<svg width="512" height="512" viewBox="0 0 512 512" fill="none" xmlns="http://www.w3.org/2000/svg">
<g clip-path="url(#clip0)">
<path d="M95.5 485V433L96 239.5V25C101.6 5.4 118.333 0.5 126 0.5H352L479 128V330V489C472.2 506.6 458.167 511.667 452 512C347 511.833 135.8 511.6 131 512C125 512.5 118 510.5 108 504.5C100 499.7 96.3333 489.5 95.5 485Z" fill="#E2E5E7"/>
<path d="M479 223V128L466 115H450.5L373.5 117L479 223Z" fill="#CAD1D8"/>
<path d="M352 98V0.5L478.5 128H384.5C360.1 126.4 352.667 107.333 352 98Z" fill="#B0B7BD"/>
<path d="M97 402V447.5L402 448C412.4 446.8 415.667 438.5 416 434.5V402H97Z" fill="#CAD1D8"/>
<rect x="10" y="240" width="384" height="192" rx="16" fill="#50BEE8"/>
<path d="M96.993 328.145C100.587 328.145 103.673 327.09 106.251 324.98C108.868 322.871 110.177 319.844 110.177 315.898C110.177 312.891 109.141 310.312 107.071 308.164C105.001 305.977 102.208 304.883 98.6922 304.883C96.3094 304.883 94.3367 305.215 92.7742 305.879C91.2508 306.543 90.0398 307.422 89.1414 308.516C88.243 309.609 87.3836 311.016 86.5633 312.734C85.782 314.453 85.0594 316.074 84.3953 317.598C84.0047 318.418 83.3016 319.062 82.2859 319.531C81.2703 320 80.0984 320.234 78.7703 320.234C77.2078 320.234 75.7625 319.609 74.4344 318.359C73.1453 317.07 72.5008 315.371 72.5008 313.262C72.5008 311.23 73.1062 309.102 74.3172 306.875C75.5672 304.609 77.3641 302.461 79.7078 300.43C82.0906 298.398 85.0398 296.777 88.5555 295.566C92.0711 294.316 95.9969 293.691 100.333 293.691C104.122 293.691 107.579 294.219 110.704 295.273C113.829 296.289 116.544 297.773 118.848 299.727C121.153 301.68 122.891 303.945 124.063 306.523C125.235 309.102 125.821 311.875 125.821 314.844C125.821 318.75 124.962 322.109 123.243 324.922C121.563 327.695 119.141 330.41 115.977 333.066C119.024 334.707 121.583 336.582 123.653 338.691C125.762 340.801 127.345 343.145 128.399 345.723C129.454 348.262 129.981 351.016 129.981 353.984C129.981 357.539 129.259 360.977 127.813 364.297C126.407 367.617 124.317 370.586 121.544 373.203C118.77 375.781 115.47 377.812 111.641 379.297C107.852 380.742 103.653 381.465 99.0437 381.465C94.3562 381.465 90.157 380.625 86.4461 378.945C82.7352 377.266 79.6687 375.176 77.2469 372.676C74.8641 370.137 73.0477 367.52 71.7977 364.824C70.5867 362.129 69.9812 359.902 69.9812 358.145C69.9812 355.879 70.7039 354.062 72.1492 352.695C73.6336 351.289 75.4695 350.586 77.657 350.586C78.7508 350.586 79.8055 350.918 80.8211 351.582C81.8367 352.207 82.5008 352.969 82.8133 353.867C84.8445 359.297 87.0125 363.34 89.3172 365.996C91.6609 368.613 94.9422 369.922 99.1609 369.922C101.583 369.922 103.907 369.336 106.134 368.164C108.399 366.953 110.255 365.176 111.7 362.832C113.184 360.488 113.927 357.773 113.927 354.688C113.927 350.117 112.677 346.543 110.177 343.965C107.677 341.348 104.2 340.039 99.7469 340.039C98.9656 340.039 97.7547 340.117 96.1141 340.273C94.4734 340.43 93.4187 340.508 92.95 340.508C90.8016 340.508 89.1414 339.98 87.9695 338.926C86.7977 337.832 86.2117 336.328 86.2117 334.414C86.2117 332.539 86.9148 331.035 88.3211 329.902C89.7273 328.73 91.8172 328.145 94.5906 328.145H96.993ZM163.445 294.102H186.121C192.02 294.102 197.078 294.648 201.297 295.742C205.516 296.836 209.344 298.887 212.781 301.895C221.727 309.551 226.199 321.191 226.199 336.816C226.199 341.973 225.75 346.68 224.852 350.938C223.953 355.195 222.566 359.043 220.691 362.48C218.816 365.879 216.414 368.926 213.484 371.621C211.18 373.691 208.66 375.352 205.926 376.602C203.191 377.852 200.242 378.73 197.078 379.238C193.953 379.746 190.418 380 186.473 380H163.797C160.633 380 158.25 379.531 156.648 378.594C155.047 377.617 153.992 376.27 153.484 374.551C153.016 372.793 152.781 370.527 152.781 367.754V304.766C152.781 301.016 153.621 298.301 155.301 296.621C156.98 294.941 159.695 294.102 163.445 294.102ZM170.184 307.871V366.172H183.367C186.258 366.172 188.523 366.094 190.164 365.938C191.805 365.781 193.504 365.391 195.262 364.766C197.02 364.141 198.543 363.262 199.832 362.129C205.652 357.207 208.562 348.73 208.562 336.699C208.562 328.223 207.273 321.875 204.695 317.656C202.156 313.438 199.012 310.762 195.262 309.629C191.512 308.457 186.98 307.871 181.668 307.871H170.184ZM278.296 367.051L264.527 312.324V371.621C264.527 374.902 263.784 377.363 262.3 379.004C260.855 380.645 258.921 381.465 256.499 381.465C254.155 381.465 252.241 380.664 250.757 379.062C249.273 377.422 248.53 374.941 248.53 371.621V303.652C248.53 299.902 249.507 297.383 251.46 296.094C253.413 294.766 256.05 294.102 259.37 294.102H264.761C268.003 294.102 270.347 294.395 271.792 294.98C273.277 295.566 274.37 296.621 275.073 298.145C275.777 299.668 276.577 302.148 277.476 305.586L289.956 352.637L302.437 305.586C303.335 302.148 304.136 299.668 304.839 298.145C305.542 296.621 306.616 295.566 308.062 294.98C309.546 294.395 311.909 294.102 315.152 294.102H320.542C323.863 294.102 326.499 294.766 328.452 296.094C330.405 297.383 331.382 299.902 331.382 303.652V371.621C331.382 374.902 330.64 377.363 329.155 379.004C327.71 380.645 325.757 381.465 323.296 381.465C320.991 381.465 319.097 380.645 317.613 379.004C316.128 377.363 315.386 374.902 315.386 371.621V312.324L301.616 367.051C300.718 370.605 299.976 373.223 299.39 374.902C298.843 376.543 297.808 378.047 296.284 379.414C294.761 380.781 292.652 381.465 289.956 381.465C287.925 381.465 286.206 381.016 284.8 380.117C283.394 379.258 282.3 378.145 281.519 376.777C280.738 375.41 280.113 373.906 279.644 372.266C279.214 370.586 278.765 368.848 278.296 367.051Z" fill="white"/>
</g>
<defs>
<clipPath id="clip0">
<rect width="512" height="512" fill="white"/>
</clipPath>
</defs>
</svg>
