<svg width="512" height="512" viewBox="0 0 512 512" fill="none" xmlns="http://www.w3.org/2000/svg">
<g clip-path="url(#clip0)">
<path d="M95.5 485V433L96 239.5V25C101.6 5.4 118.333 0.5 126 0.5H352L479 128V330V489C472.2 506.6 458.167 511.667 452 512C347 511.833 135.8 511.6 131 512C125 512.5 118 510.5 108 504.5C100 499.7 96.3333 489.5 95.5 485Z" fill="#E2E5E7"/>
<path d="M479 223V128L466 115H450.5L373.5 117L479 223Z" fill="#CAD1D8"/>
<path d="M352 98V0.5L478.5 128H384.5C360.1 126.4 352.667 107.333 352 98Z" fill="#B0B7BD"/>
<path d="M97 402V447.5L402 448C412.4 446.8 415.667 438.5 416 434.5V402H97Z" fill="#CAD1D8"/>
<rect x="10" y="240" width="384" height="192" rx="16" fill="#50BEE8"/>
<path d="M106.954 328.145C110.548 328.145 113.634 327.09 116.212 324.98C118.829 322.871 120.137 319.844 120.137 315.898C120.137 312.891 119.102 310.312 117.032 308.164C114.962 305.977 112.169 304.883 108.653 304.883C106.27 304.883 104.298 305.215 102.735 305.879C101.212 306.543 100.001 307.422 99.1023 308.516C98.2039 309.609 97.3445 311.016 96.5242 312.734C95.743 314.453 95.0203 316.074 94.3562 317.598C93.9656 318.418 93.2625 319.062 92.2469 319.531C91.2312 320 90.0594 320.234 88.7312 320.234C87.1687 320.234 85.7234 319.609 84.3953 318.359C83.1062 317.07 82.4617 315.371 82.4617 313.262C82.4617 311.23 83.0672 309.102 84.2781 306.875C85.5281 304.609 87.325 302.461 89.6687 300.43C92.0516 298.398 95.0008 296.777 98.5164 295.566C102.032 294.316 105.958 293.691 110.294 293.691C114.083 293.691 117.54 294.219 120.665 295.273C123.79 296.289 126.505 297.773 128.809 299.727C131.114 301.68 132.852 303.945 134.024 306.523C135.196 309.102 135.782 311.875 135.782 314.844C135.782 318.75 134.923 322.109 133.204 324.922C131.524 327.695 129.102 330.41 125.938 333.066C128.985 334.707 131.544 336.582 133.614 338.691C135.723 340.801 137.305 343.145 138.36 345.723C139.415 348.262 139.942 351.016 139.942 353.984C139.942 357.539 139.22 360.977 137.774 364.297C136.368 367.617 134.278 370.586 131.505 373.203C128.731 375.781 125.43 377.812 121.602 379.297C117.813 380.742 113.614 381.465 109.005 381.465C104.317 381.465 100.118 380.625 96.407 378.945C92.6961 377.266 89.6297 375.176 87.2078 372.676C84.825 370.137 83.0086 367.52 81.7586 364.824C80.5477 362.129 79.9422 359.902 79.9422 358.145C79.9422 355.879 80.6648 354.062 82.1102 352.695C83.5945 351.289 85.4305 350.586 87.618 350.586C88.7117 350.586 89.7664 350.918 90.782 351.582C91.7977 352.207 92.4617 352.969 92.7742 353.867C94.8055 359.297 96.9734 363.34 99.2781 365.996C101.622 368.613 104.903 369.922 109.122 369.922C111.544 369.922 113.868 369.336 116.095 368.164C118.36 366.953 120.216 365.176 121.661 362.832C123.145 360.488 123.887 357.773 123.887 354.688C123.887 350.117 122.637 346.543 120.137 343.965C117.637 341.348 114.161 340.039 109.708 340.039C108.927 340.039 107.716 340.117 106.075 340.273C104.434 340.43 103.38 340.508 102.911 340.508C100.762 340.508 99.1023 339.98 97.9305 338.926C96.7586 337.832 96.1727 336.328 96.1727 334.414C96.1727 332.539 96.8758 331.035 98.282 329.902C99.6883 328.73 101.778 328.145 104.552 328.145H106.954ZM173.406 294.102H196.082C201.98 294.102 207.039 294.648 211.258 295.742C215.477 296.836 219.305 298.887 222.742 301.895C231.688 309.551 236.16 321.191 236.16 336.816C236.16 341.973 235.711 346.68 234.812 350.938C233.914 355.195 232.527 359.043 230.652 362.48C228.777 365.879 226.375 368.926 223.445 371.621C221.141 373.691 218.621 375.352 215.887 376.602C213.152 377.852 210.203 378.73 207.039 379.238C203.914 379.746 200.379 380 196.434 380H173.758C170.594 380 168.211 379.531 166.609 378.594C165.008 377.617 163.953 376.27 163.445 374.551C162.977 372.793 162.742 370.527 162.742 367.754V304.766C162.742 301.016 163.582 298.301 165.262 296.621C166.941 294.941 169.656 294.102 173.406 294.102ZM180.145 307.871V366.172H193.328C196.219 366.172 198.484 366.094 200.125 365.938C201.766 365.781 203.465 365.391 205.223 364.766C206.98 364.141 208.504 363.262 209.793 362.129C215.613 357.207 218.523 348.73 218.523 336.699C218.523 328.223 217.234 321.875 214.656 317.656C212.117 313.438 208.973 310.762 205.223 309.629C201.473 308.457 196.941 307.871 191.629 307.871H180.145ZM324.527 354.219C324.527 359.414 323.179 364.082 320.484 368.223C317.827 372.363 313.921 375.605 308.765 377.949C303.609 380.293 297.495 381.465 290.425 381.465C281.948 381.465 274.956 379.863 269.448 376.66C265.542 374.355 262.359 371.289 259.898 367.461C257.476 363.594 256.265 359.844 256.265 356.211C256.265 354.102 256.988 352.305 258.433 350.82C259.917 349.297 261.792 348.535 264.058 348.535C265.894 348.535 267.437 349.121 268.687 350.293C269.976 351.465 271.07 353.203 271.968 355.508C273.062 358.242 274.234 360.527 275.484 362.363C276.773 364.199 278.57 365.723 280.874 366.934C283.179 368.105 286.206 368.691 289.956 368.691C295.113 368.691 299.292 367.5 302.495 365.117C305.738 362.695 307.359 359.688 307.359 356.094C307.359 353.242 306.48 350.938 304.722 349.18C303.003 347.383 300.757 346.016 297.984 345.078C295.249 344.141 291.577 343.145 286.968 342.09C280.796 340.645 275.62 338.965 271.441 337.051C267.3 335.098 263.999 332.461 261.538 329.141C259.116 325.781 257.905 321.621 257.905 316.66C257.905 311.934 259.195 307.734 261.773 304.062C264.351 300.391 268.081 297.578 272.964 295.625C277.847 293.633 283.589 292.637 290.191 292.637C295.464 292.637 300.015 293.301 303.843 294.629C307.71 295.918 310.913 297.656 313.452 299.844C315.991 301.992 317.847 304.258 319.019 306.641C320.191 309.023 320.777 311.348 320.777 313.613C320.777 315.684 320.034 317.559 318.55 319.238C317.105 320.879 315.288 321.699 313.101 321.699C311.109 321.699 309.585 321.211 308.53 320.234C307.515 319.219 306.402 317.578 305.191 315.312C303.628 312.07 301.753 309.551 299.566 307.754C297.378 305.918 293.863 305 289.019 305C284.527 305 280.894 305.996 278.12 307.988C275.386 309.941 274.019 312.305 274.019 315.078C274.019 316.797 274.488 318.281 275.425 319.531C276.363 320.781 277.652 321.855 279.292 322.754C280.933 323.652 282.593 324.355 284.273 324.863C285.952 325.371 288.726 326.113 292.593 327.09C297.437 328.223 301.812 329.473 305.718 330.84C309.663 332.207 313.003 333.867 315.738 335.82C318.511 337.773 320.659 340.254 322.183 343.262C323.745 346.23 324.527 349.883 324.527 354.219Z" fill="white"/>
</g>
<defs>
<clipPath id="clip0">
<rect width="512" height="512" fill="white"/>
</clipPath>
</defs>
</svg>
