<svg width="512" height="512" viewBox="0 0 512 512" fill="none" xmlns="http://www.w3.org/2000/svg">
<g clip-path="url(#clip0)">
<path d="M95.5 485V433L96 239.5V25C101.6 5.4 118.333 0.5 126 0.5H352L479 128V330V489C472.2 506.6 458.167 511.667 452 512C347 511.833 135.8 511.6 131 512C125 512.5 118 510.5 108 504.5C100 499.7 96.3333 489.5 95.5 485Z" fill="#E2E5E7"/>
<path d="M479 223V128L466 115H450.5L373.5 117L479 223Z" fill="#CAD1D8"/>
<path d="M352 98V0.5L478.5 128H384.5C360.1 126.4 352.667 107.333 352 98Z" fill="#B0B7BD"/>
<path d="M97 402V447.5L402 448C412.4 446.8 415.667 438.5 416 434.5V402H97Z" fill="#CAD1D8"/>
<rect x="10" y="240" width="384" height="192" rx="16" fill="#50BEE8"/>
<path d="M108.184 328.145C111.778 328.145 114.864 327.09 117.442 324.98C120.059 322.871 121.368 319.844 121.368 315.898C121.368 312.891 120.333 310.312 118.262 308.164C116.192 305.977 113.399 304.883 109.884 304.883C107.501 304.883 105.528 305.215 103.966 305.879C102.442 306.543 101.231 307.422 100.333 308.516C99.4344 309.609 98.575 311.016 97.7547 312.734C96.9734 314.453 96.2508 316.074 95.5867 317.598C95.1961 318.418 94.493 319.062 93.4773 319.531C92.4617 320 91.2898 320.234 89.9617 320.234C88.3992 320.234 86.9539 319.609 85.6258 318.359C84.3367 317.07 83.6922 315.371 83.6922 313.262C83.6922 311.23 84.2977 309.102 85.5086 306.875C86.7586 304.609 88.5555 302.461 90.8992 300.43C93.282 298.398 96.2312 296.777 99.7469 295.566C103.262 294.316 107.188 293.691 111.524 293.691C115.313 293.691 118.77 294.219 121.895 295.273C125.02 296.289 127.735 297.773 130.04 299.727C132.345 301.68 134.083 303.945 135.255 306.523C136.427 309.102 137.012 311.875 137.012 314.844C137.012 318.75 136.153 322.109 134.434 324.922C132.755 327.695 130.333 330.41 127.169 333.066C130.216 334.707 132.774 336.582 134.845 338.691C136.954 340.801 138.536 343.145 139.591 345.723C140.645 348.262 141.173 351.016 141.173 353.984C141.173 357.539 140.45 360.977 139.005 364.297C137.598 367.617 135.509 370.586 132.735 373.203C129.962 375.781 126.661 377.812 122.833 379.297C119.044 380.742 114.845 381.465 110.235 381.465C105.548 381.465 101.348 380.625 97.6375 378.945C93.9266 377.266 90.8602 375.176 88.4383 372.676C86.0555 370.137 84.2391 367.52 82.9891 364.824C81.7781 362.129 81.1727 359.902 81.1727 358.145C81.1727 355.879 81.8953 354.062 83.3406 352.695C84.825 351.289 86.6609 350.586 88.8484 350.586C89.9422 350.586 90.9969 350.918 92.0125 351.582C93.0281 352.207 93.6922 352.969 94.0047 353.867C96.0359 359.297 98.2039 363.34 100.509 365.996C102.852 368.613 106.134 369.922 110.352 369.922C112.774 369.922 115.098 369.336 117.325 368.164C119.591 366.953 121.446 365.176 122.891 362.832C124.376 360.488 125.118 357.773 125.118 354.688C125.118 350.117 123.868 346.543 121.368 343.965C118.868 341.348 115.391 340.039 110.938 340.039C110.157 340.039 108.946 340.117 107.305 340.273C105.665 340.43 104.61 340.508 104.141 340.508C101.993 340.508 100.333 339.98 99.1609 338.926C97.9891 337.832 97.4031 336.328 97.4031 334.414C97.4031 332.539 98.1062 331.035 99.5125 329.902C100.919 328.73 103.009 328.145 105.782 328.145H108.184ZM242.312 345.078V361.543C242.312 363.73 242.098 365.488 241.668 366.816C241.238 368.105 240.438 369.277 239.266 370.332C238.133 371.387 236.668 372.402 234.871 373.379C229.676 376.191 224.676 378.242 219.871 379.531C215.066 380.82 209.832 381.465 204.168 381.465C197.566 381.465 191.551 380.449 186.121 378.418C180.691 376.387 176.062 373.438 172.234 369.57C168.406 365.703 165.457 361.016 163.387 355.508C161.355 350 160.34 343.848 160.34 337.051C160.34 330.371 161.336 324.258 163.328 318.711C165.32 313.164 168.25 308.457 172.117 304.59C175.984 300.723 180.691 297.773 186.238 295.742C191.785 293.672 198.074 292.637 205.105 292.637C210.887 292.637 216.004 293.418 220.457 294.98C224.91 296.504 228.523 298.438 231.297 300.781C234.07 303.125 236.16 305.605 237.566 308.223C238.973 310.84 239.676 313.164 239.676 315.195C239.676 317.383 238.855 319.258 237.215 320.82C235.613 322.344 233.68 323.105 231.414 323.105C230.164 323.105 228.953 322.812 227.781 322.227C226.648 321.641 225.691 320.82 224.91 319.766C222.762 316.406 220.945 313.867 219.461 312.148C217.977 310.43 215.965 308.984 213.426 307.812C210.926 306.641 207.723 306.055 203.816 306.055C199.793 306.055 196.199 306.758 193.035 308.164C189.871 309.531 187.156 311.543 184.891 314.199C182.664 316.816 180.945 320.039 179.734 323.867C178.562 327.695 177.977 331.934 177.977 336.582C177.977 346.66 180.281 354.414 184.891 359.844C189.539 365.273 196.004 367.988 204.285 367.988C208.309 367.988 212.078 367.461 215.594 366.406C219.148 365.352 222.742 363.848 226.375 361.895V347.949H212.898C209.656 347.949 207.195 347.461 205.516 346.484C203.875 345.508 203.055 343.848 203.055 341.504C203.055 339.59 203.738 338.008 205.105 336.758C206.512 335.508 208.406 334.883 210.789 334.883H230.535C232.957 334.883 235.008 335.098 236.688 335.527C238.367 335.957 239.715 336.914 240.73 338.398C241.785 339.883 242.312 342.109 242.312 345.078ZM284.097 366.172H314.683C317.73 366.172 320.054 366.797 321.655 368.047C323.257 369.297 324.058 370.996 324.058 373.145C324.058 375.059 323.413 376.68 322.124 378.008C320.874 379.336 318.96 380 316.382 380H273.257C270.327 380 268.042 379.199 266.402 377.598C264.761 375.957 263.941 374.043 263.941 371.855C263.941 370.449 264.468 368.594 265.523 366.289C266.577 363.945 267.73 362.109 268.98 360.781C274.175 355.391 278.863 350.781 283.042 346.953C287.222 343.086 290.21 340.547 292.007 339.336C295.21 337.07 297.866 334.805 299.976 332.539C302.124 330.234 303.745 327.891 304.839 325.508C305.972 323.086 306.538 320.723 306.538 318.418C306.538 315.918 305.933 313.691 304.722 311.738C303.55 309.746 301.929 308.203 299.859 307.109C297.827 306.016 295.601 305.469 293.179 305.469C288.062 305.469 284.038 307.715 281.109 312.207C280.718 312.793 280.054 314.395 279.116 317.012C278.218 319.629 277.183 321.641 276.011 323.047C274.878 324.453 273.198 325.156 270.972 325.156C269.019 325.156 267.398 324.512 266.109 323.223C264.82 321.934 264.175 320.176 264.175 317.949C264.175 315.254 264.78 312.441 265.991 309.512C267.202 306.582 268.999 303.926 271.382 301.543C273.804 299.16 276.851 297.246 280.523 295.801C284.234 294.316 288.57 293.574 293.53 293.574C299.507 293.574 304.605 294.512 308.823 296.387C311.558 297.637 313.96 299.355 316.03 301.543C318.101 303.73 319.702 306.27 320.835 309.16C322.007 312.012 322.593 314.98 322.593 318.066C322.593 322.91 321.382 327.324 318.96 331.309C316.577 335.254 314.136 338.359 311.636 340.625C309.136 342.852 304.937 346.367 299.038 351.172C293.179 355.977 289.155 359.707 286.968 362.363C286.03 363.418 285.073 364.688 284.097 366.172Z" fill="white"/>
</g>
<defs>
<clipPath id="clip0">
<rect width="512" height="512" fill="white"/>
</clipPath>
</defs>
</svg>
