<svg width="512" height="512" viewBox="0 0 512 512" fill="none" xmlns="http://www.w3.org/2000/svg">
<g clip-path="url(#clip0)">
<path d="M95.5 485V433L96 239.5V25C101.6 5.4 118.333 0.5 126 0.5H352L479 128V330V489C472.2 506.6 458.167 511.667 452 512C347 511.833 135.8 511.6 131 512C125 512.5 118 510.5 108 504.5C100 499.7 96.3333 489.5 95.5 485Z" fill="#E2E5E7"/>
<path d="M479 223V128L466 115H450.5L373.5 117L479 223Z" fill="#CAD1D8"/>
<path d="M352 98V0.5L478.5 128H384.5C360.1 126.4 352.667 107.333 352 98Z" fill="#B0B7BD"/>
<path d="M97 402V447.5L402 448C412.4 446.8 415.667 438.5 416 434.5V402H97Z" fill="#CAD1D8"/>
<rect x="10" y="240" width="384" height="192" rx="16" fill="#50BEE8"/>
<path d="M104.348 328.145C107.942 328.145 111.028 327.09 113.606 324.98C116.223 322.871 117.532 319.844 117.532 315.898C117.532 312.891 116.497 310.312 114.427 308.164C112.356 305.977 109.563 304.883 106.048 304.883C103.665 304.883 101.692 305.215 100.13 305.879C98.6062 306.543 97.3953 307.422 96.4969 308.516C95.5984 309.609 94.7391 311.016 93.9187 312.734C93.1375 314.453 92.4148 316.074 91.7508 317.598C91.3602 318.418 90.657 319.062 89.6414 319.531C88.6258 320 87.4539 320.234 86.1258 320.234C84.5633 320.234 83.118 319.609 81.7898 318.359C80.5008 317.07 79.8562 315.371 79.8562 313.262C79.8562 311.23 80.4617 309.102 81.6727 306.875C82.9227 304.609 84.7195 302.461 87.0633 300.43C89.4461 298.398 92.3953 296.777 95.9109 295.566C99.4266 294.316 103.352 293.691 107.688 293.691C111.477 293.691 114.934 294.219 118.059 295.273C121.184 296.289 123.899 297.773 126.204 299.727C128.509 301.68 130.247 303.945 131.419 306.523C132.591 309.102 133.177 311.875 133.177 314.844C133.177 318.75 132.317 322.109 130.598 324.922C128.919 327.695 126.497 330.41 123.333 333.066C126.38 334.707 128.938 336.582 131.009 338.691C133.118 340.801 134.7 343.145 135.755 345.723C136.809 348.262 137.337 351.016 137.337 353.984C137.337 357.539 136.614 360.977 135.169 364.297C133.762 367.617 131.673 370.586 128.899 373.203C126.126 375.781 122.825 377.812 118.997 379.297C115.208 380.742 111.009 381.465 106.399 381.465C101.712 381.465 97.5125 380.625 93.8016 378.945C90.0906 377.266 87.0242 375.176 84.6023 372.676C82.2195 370.137 80.4031 367.52 79.1531 364.824C77.9422 362.129 77.3367 359.902 77.3367 358.145C77.3367 355.879 78.0594 354.062 79.5047 352.695C80.9891 351.289 82.825 350.586 85.0125 350.586C86.1062 350.586 87.1609 350.918 88.1766 351.582C89.1922 352.207 89.8562 352.969 90.1687 353.867C92.2 359.297 94.368 363.34 96.6727 365.996C99.0164 368.613 102.298 369.922 106.516 369.922C108.938 369.922 111.262 369.336 113.489 368.164C115.755 366.953 117.61 365.176 119.055 362.832C120.54 360.488 121.282 357.773 121.282 354.688C121.282 350.117 120.032 346.543 117.532 343.965C115.032 341.348 111.555 340.039 107.102 340.039C106.321 340.039 105.11 340.117 103.47 340.273C101.829 340.43 100.774 340.508 100.305 340.508C98.157 340.508 96.4969 339.98 95.325 338.926C94.1531 337.832 93.5672 336.328 93.5672 334.414C93.5672 332.539 94.2703 331.035 95.6766 329.902C97.0828 328.73 99.1727 328.145 101.946 328.145H104.348ZM238.477 345.078V361.543C238.477 363.73 238.262 365.488 237.832 366.816C237.402 368.105 236.602 369.277 235.43 370.332C234.297 371.387 232.832 372.402 231.035 373.379C225.84 376.191 220.84 378.242 216.035 379.531C211.23 380.82 205.996 381.465 200.332 381.465C193.73 381.465 187.715 380.449 182.285 378.418C176.855 376.387 172.227 373.438 168.398 369.57C164.57 365.703 161.621 361.016 159.551 355.508C157.52 350 156.504 343.848 156.504 337.051C156.504 330.371 157.5 324.258 159.492 318.711C161.484 313.164 164.414 308.457 168.281 304.59C172.148 300.723 176.855 297.773 182.402 295.742C187.949 293.672 194.238 292.637 201.27 292.637C207.051 292.637 212.168 293.418 216.621 294.98C221.074 296.504 224.688 298.438 227.461 300.781C230.234 303.125 232.324 305.605 233.73 308.223C235.137 310.84 235.84 313.164 235.84 315.195C235.84 317.383 235.02 319.258 233.379 320.82C231.777 322.344 229.844 323.105 227.578 323.105C226.328 323.105 225.117 322.812 223.945 322.227C222.812 321.641 221.855 320.82 221.074 319.766C218.926 316.406 217.109 313.867 215.625 312.148C214.141 310.43 212.129 308.984 209.59 307.812C207.09 306.641 203.887 306.055 199.98 306.055C195.957 306.055 192.363 306.758 189.199 308.164C186.035 309.531 183.32 311.543 181.055 314.199C178.828 316.816 177.109 320.039 175.898 323.867C174.727 327.695 174.141 331.934 174.141 336.582C174.141 346.66 176.445 354.414 181.055 359.844C185.703 365.273 192.168 367.988 200.449 367.988C204.473 367.988 208.242 367.461 211.758 366.406C215.312 365.352 218.906 363.848 222.539 361.895V347.949H209.062C205.82 347.949 203.359 347.461 201.68 346.484C200.039 345.508 199.219 343.848 199.219 341.504C199.219 339.59 199.902 338.008 201.27 336.758C202.676 335.508 204.57 334.883 206.953 334.883H226.699C229.121 334.883 231.172 335.098 232.852 335.527C234.531 335.957 235.879 336.914 236.895 338.398C237.949 339.883 238.477 342.109 238.477 345.078ZM296.198 346.543H280.261V370.859C280.261 374.336 279.441 376.973 277.8 378.77C276.159 380.566 274.089 381.465 271.589 381.465C268.972 381.465 266.863 380.586 265.261 378.828C263.659 377.031 262.859 374.414 262.859 370.977V304.766C262.859 300.938 263.738 298.203 265.495 296.562C267.253 294.922 270.046 294.102 273.874 294.102H296.198C302.8 294.102 307.878 294.609 311.433 295.625C314.948 296.602 317.976 298.223 320.515 300.488C323.093 302.754 325.046 305.527 326.374 308.809C327.702 312.09 328.366 315.781 328.366 319.883C328.366 328.633 325.671 335.273 320.28 339.805C314.89 344.297 306.863 346.543 296.198 346.543ZM291.98 307.168H280.261V333.418H291.98C296.081 333.418 299.499 332.988 302.234 332.129C305.007 331.27 307.116 329.863 308.562 327.91C310.007 325.957 310.73 323.398 310.73 320.234C310.73 316.445 309.616 313.359 307.39 310.977C304.89 308.438 299.753 307.168 291.98 307.168Z" fill="white"/>
</g>
<defs>
<clipPath id="clip0">
<rect width="512" height="512" fill="white"/>
</clipPath>
</defs>
</svg>
