<svg width="512" height="512" viewBox="0 0 512 512" fill="none" xmlns="http://www.w3.org/2000/svg">
<g clip-path="url(#clip0)">
<path d="M95.5 485V433L96 239.5V25C101.6 5.4 118.333 0.5 126 0.5H352L479 128V330V489C472.2 506.6 458.167 511.667 452 512C347 511.833 135.8 511.6 131 512C125 512.5 118 510.5 108 504.5C100 499.7 96.3333 489.5 95.5 485Z" fill="#E2E5E7"/>
<path d="M479 223V128L466 115H450.5L373.5 117L479 223Z" fill="#CAD1D8"/>
<path d="M352 98V0.5L478.5 128H384.5C360.1 126.4 352.667 107.333 352 98Z" fill="#B0B7BD"/>
<path d="M97 402V447.5L402 448C412.4 446.8 415.667 438.5 416 434.5V402H97Z" fill="#CAD1D8"/>
<rect x="32" y="240" width="384" height="192" rx="16" fill="#F7B84E"/>
<path d="M172.819 295.922H211.842C215.592 295.922 218.307 296.508 219.987 297.68C221.666 298.852 222.506 300.785 222.506 303.48C222.506 305.121 221.51 307.289 219.518 309.984C217.565 312.68 215.319 315.668 212.78 318.949C210.28 322.191 207.682 326.234 204.987 331.078C202.33 335.922 199.889 341.84 197.662 348.832C196.725 351.918 196.061 354.477 195.67 356.508C195.28 358.539 194.85 361.176 194.381 364.418C193.912 367.66 193.502 370.141 193.151 371.859C192.33 375.844 191.159 378.617 189.635 380.18C188.151 381.703 186.159 382.465 183.659 382.465C181.276 382.465 179.362 381.645 177.916 380.004C176.471 378.324 175.748 375.863 175.748 372.621C175.748 370.121 176.276 366.723 177.33 362.426C178.385 358.129 180.104 352.992 182.487 347.016C184.87 341 187.838 334.848 191.393 328.559C194.987 322.23 199.245 315.941 204.166 309.691H172.819C169.537 309.691 167.077 309.105 165.436 307.934C163.834 306.723 163.034 304.848 163.034 302.309C163.034 299.613 163.893 297.875 165.612 297.094C167.33 296.312 169.733 295.922 172.819 295.922ZM240.384 360.961L284.505 308.168H246.595C243.939 308.168 241.927 307.582 240.56 306.41C239.232 305.238 238.568 303.695 238.568 301.781C238.568 299.789 239.232 298.188 240.56 296.977C241.927 295.727 243.939 295.102 246.595 295.102H295.463C301.791 295.102 304.955 298.051 304.955 303.949C304.955 306.762 304.427 309.008 303.373 310.688C302.318 312.367 300.189 315.082 296.986 318.832L255.736 367.934H301.205C303.9 367.934 305.912 368.5 307.24 369.633C308.568 370.727 309.232 372.27 309.232 374.262C309.232 376.332 308.568 377.973 307.24 379.184C305.912 380.395 303.9 381 301.205 381H245.423C241.634 381 238.783 380.16 236.869 378.48C234.955 376.762 233.998 374.477 233.998 371.625C233.998 370.648 234.154 369.75 234.466 368.93C234.779 368.109 235.189 367.348 235.697 366.645C236.244 365.902 236.986 364.984 237.923 363.891C238.861 362.758 239.681 361.781 240.384 360.961Z" fill="white"/>
</g>
<defs>
<clipPath id="clip0">
<rect width="512" height="512" fill="white"/>
</clipPath>
</defs>
</svg>
