<svg width="512" height="512" viewBox="0 0 512 512" fill="none" xmlns="http://www.w3.org/2000/svg">
<g clip-path="url(#clip0)">
<path d="M95.5 485V433L96 239.5V25C101.6 5.4 118.333 0.5 126 0.5H352L479 128V330V489C472.2 506.6 458.167 511.667 452 512C347 511.833 135.8 511.6 131 512C125 512.5 118 510.5 108 504.5C100 499.7 96.3333 489.5 95.5 485Z" fill="#E2E5E7"/>
<path d="M479 223V128L466 115H450.5L373.5 117L479 223Z" fill="#CAD1D8"/>
<path d="M352 98V0.5L478.5 128H384.5C360.1 126.4 352.667 107.333 352 98Z" fill="#B0B7BD"/>
<path d="M97 402V447.5L402 448C412.4 446.8 415.667 438.5 416 434.5V402H97Z" fill="#CAD1D8"/>
<rect x="32" y="240" width="384" height="192" rx="16" fill="#F7B84E"/>
<path d="M159.778 371.273L155.677 360.492H120.755L116.653 371.508C115.052 375.805 113.684 378.715 112.552 380.238C111.419 381.723 109.563 382.465 106.985 382.465C104.798 382.465 102.864 381.664 101.184 380.062C99.5047 378.461 98.6648 376.645 98.6648 374.613C98.6648 373.441 98.8602 372.23 99.2508 370.98C99.6414 369.73 100.286 367.992 101.184 365.766L123.157 309.984C123.782 308.383 124.524 306.469 125.384 304.242C126.282 301.977 127.22 300.102 128.196 298.617C129.212 297.133 130.52 295.941 132.122 295.043C133.762 294.105 135.774 293.637 138.157 293.637C140.579 293.637 142.591 294.105 144.192 295.043C145.833 295.941 147.141 297.113 148.118 298.559C149.134 300.004 149.973 301.566 150.637 303.246C151.341 304.887 152.22 307.094 153.274 309.867L175.716 365.297C177.473 369.516 178.352 372.582 178.352 374.496C178.352 376.488 177.512 378.324 175.833 380.004C174.192 381.645 172.2 382.465 169.856 382.465C168.489 382.465 167.317 382.211 166.341 381.703C165.364 381.234 164.544 380.59 163.88 379.77C163.216 378.91 162.493 377.621 161.712 375.902C160.97 374.145 160.325 372.602 159.778 371.273ZM125.325 347.426H150.989L138.04 311.977L125.325 347.426ZM253.945 371.273L249.844 360.492H214.922L210.82 371.508C209.219 375.805 207.852 378.715 206.719 380.238C205.586 381.723 203.73 382.465 201.152 382.465C198.965 382.465 197.031 381.664 195.352 380.062C193.672 378.461 192.832 376.645 192.832 374.613C192.832 373.441 193.027 372.23 193.418 370.98C193.809 369.73 194.453 367.992 195.352 365.766L217.324 309.984C217.949 308.383 218.691 306.469 219.551 304.242C220.449 301.977 221.387 300.102 222.363 298.617C223.379 297.133 224.688 295.941 226.289 295.043C227.93 294.105 229.941 293.637 232.324 293.637C234.746 293.637 236.758 294.105 238.359 295.043C240 295.941 241.309 297.113 242.285 298.559C243.301 300.004 244.141 301.566 244.805 303.246C245.508 304.887 246.387 307.094 247.441 309.867L269.883 365.297C271.641 369.516 272.52 372.582 272.52 374.496C272.52 376.488 271.68 378.324 270 380.004C268.359 381.645 266.367 382.465 264.023 382.465C262.656 382.465 261.484 382.211 260.508 381.703C259.531 381.234 258.711 380.59 258.047 379.77C257.383 378.91 256.66 377.621 255.879 375.902C255.137 374.145 254.492 372.602 253.945 371.273ZM219.492 347.426H245.156L232.207 311.977L219.492 347.426ZM363.288 353.871C363.288 356.605 362.605 359.574 361.238 362.777C359.909 365.941 357.8 369.066 354.909 372.152C352.019 375.199 348.327 377.68 343.835 379.594C339.343 381.508 334.109 382.465 328.132 382.465C323.601 382.465 319.48 382.035 315.769 381.176C312.058 380.316 308.679 378.988 305.632 377.191C302.624 375.355 299.851 372.953 297.312 369.984C295.046 367.289 293.113 364.281 291.511 360.961C289.909 357.602 288.698 354.027 287.878 350.238C287.097 346.449 286.706 342.426 286.706 338.168C286.706 331.254 287.702 325.062 289.695 319.594C291.726 314.125 294.616 309.457 298.366 305.59C302.116 301.684 306.511 298.715 311.55 296.684C316.589 294.652 321.96 293.637 327.663 293.637C334.616 293.637 340.808 295.023 346.238 297.797C351.667 300.57 355.827 304.008 358.718 308.109C361.609 312.172 363.054 316.02 363.054 319.652C363.054 321.645 362.351 323.402 360.945 324.926C359.538 326.449 357.839 327.211 355.847 327.211C353.62 327.211 351.941 326.684 350.808 325.629C349.714 324.574 348.484 322.758 347.116 320.18C344.851 315.922 342.175 312.738 339.089 310.629C336.042 308.52 332.273 307.465 327.78 307.465C320.632 307.465 314.929 310.18 310.671 315.609C306.452 321.039 304.343 328.754 304.343 338.754C304.343 345.434 305.28 351 307.155 355.453C309.03 359.867 311.687 363.168 315.124 365.355C318.562 367.543 322.585 368.637 327.195 368.637C332.195 368.637 336.413 367.406 339.851 364.945C343.327 362.445 345.945 358.793 347.702 353.988C348.445 351.723 349.363 349.887 350.456 348.48C351.55 347.035 353.308 346.312 355.73 346.312C357.8 346.312 359.577 347.035 361.062 348.48C362.546 349.926 363.288 351.723 363.288 353.871Z" fill="white"/>
</g>
<defs>
<clipPath id="clip0">
<rect width="512" height="512" fill="white"/>
</clipPath>
</defs>
</svg>
