<svg width="512" height="512" viewBox="0 0 512 512" fill="none" xmlns="http://www.w3.org/2000/svg">
<g clip-path="url(#clip0)">
<path d="M95.5 485V433L96 239.5V25C101.6 5.4 118.333 0.5 126 0.5H352L479 128V330V489C472.2 506.6 458.167 511.667 452 512C347 511.833 135.8 511.6 131 512C125 512.5 118 510.5 108 504.5C100 499.7 96.3333 489.5 95.5 485Z" fill="#E2E5E7"/>
<path d="M479 223V128L466 115H450.5L373.5 117L479 223Z" fill="#CAD1D8"/>
<path d="M352 98V0.5L478.5 128H384.5C360.1 126.4 352.667 107.333 352 98Z" fill="#B0B7BD"/>
<path d="M97 402V447.5L402 448C412.4 446.8 415.667 438.5 416 434.5V402H97Z" fill="#CAD1D8"/>
<rect x="33" y="240" width="384" height="192" rx="16" fill="#F7B84E"/>
<path d="M93.2538 362.462L90.075 354.106H63.0106L59.8319 362.644C58.5907 365.974 57.5311 368.229 56.6532 369.41C55.7752 370.56 54.3372 371.135 52.3392 371.135C50.6439 371.135 49.1454 370.515 47.8436 369.273C46.5418 368.032 45.891 366.625 45.891 365.05C45.891 364.142 46.0423 363.204 46.3451 362.235C46.6478 361.266 47.1473 359.919 47.8436 358.193L64.8724 314.963C65.3568 313.722 65.932 312.238 66.598 310.513C67.2943 308.757 68.0208 307.304 68.7777 306.153C69.5648 305.003 70.5789 304.08 71.8202 303.383C73.0916 302.657 74.6507 302.293 76.4974 302.293C78.3744 302.293 79.9334 302.657 81.1747 303.383C82.4461 304.08 83.4603 304.988 84.2171 306.108C85.0042 307.228 85.6551 308.439 86.1698 309.741C86.7147 311.012 87.3958 312.723 88.2132 314.872L105.605 357.83C106.968 361.1 107.649 363.476 107.649 364.959C107.649 366.503 106.998 367.926 105.696 369.228C104.425 370.5 102.881 371.135 101.064 371.135C100.005 371.135 99.0965 370.938 98.3397 370.545C97.5829 370.182 96.9471 369.682 96.4325 369.046C95.9178 368.38 95.3578 367.381 94.7523 366.049C94.1771 364.687 93.6776 363.491 93.2538 362.462ZM66.5526 343.98H86.4422L76.4066 316.507L66.5526 343.98ZM177.995 348.975C177.995 351.094 177.465 353.395 176.405 355.877C175.376 358.33 173.741 360.751 171.501 363.143C169.261 365.504 166.4 367.427 162.918 368.91C159.437 370.394 155.38 371.135 150.748 371.135C147.237 371.135 144.043 370.802 141.167 370.136C138.291 369.47 135.672 368.441 133.311 367.048C130.98 365.625 128.83 363.764 126.863 361.463C125.107 359.374 123.608 357.043 122.367 354.47C121.126 351.866 120.187 349.096 119.552 346.16C118.946 343.223 118.643 340.105 118.643 336.805C118.643 331.447 119.415 326.648 120.959 322.41C122.534 318.172 124.774 314.554 127.68 311.557C130.586 308.53 133.992 306.229 137.897 304.655C141.803 303.081 145.965 302.293 150.385 302.293C155.774 302.293 160.572 303.368 164.78 305.518C168.988 307.667 172.212 310.331 174.453 313.51C176.693 316.658 177.813 319.64 177.813 322.456C177.813 324 177.268 325.362 176.178 326.542C175.088 327.723 173.771 328.313 172.227 328.313C170.502 328.313 169.2 327.905 168.322 327.087C167.475 326.27 166.521 324.862 165.461 322.864C163.705 319.564 161.632 317.097 159.24 315.462C156.879 313.828 153.957 313.01 150.476 313.01C144.936 313.01 140.516 315.114 137.216 319.322C133.947 323.53 132.312 329.509 132.312 337.259C132.312 342.436 133.038 346.75 134.492 350.201C135.945 353.622 138.003 356.18 140.667 357.875C143.331 359.571 146.45 360.418 150.022 360.418C153.897 360.418 157.166 359.465 159.83 357.558C162.525 355.62 164.553 352.79 165.915 349.066C166.491 347.31 167.202 345.887 168.05 344.797C168.897 343.677 170.26 343.117 172.137 343.117C173.741 343.117 175.119 343.677 176.269 344.797C177.419 345.917 177.995 347.31 177.995 348.975ZM252.881 348.975C252.881 351.094 252.352 353.395 251.292 355.877C250.263 358.33 248.628 360.751 246.388 363.143C244.147 365.504 241.287 367.427 237.805 368.91C234.324 370.394 230.267 371.135 225.635 371.135C222.124 371.135 218.93 370.802 216.054 370.136C213.178 369.47 210.559 368.441 208.198 367.048C205.867 365.625 203.717 363.764 201.75 361.463C199.994 359.374 198.495 357.043 197.254 354.47C196.013 351.866 195.074 349.096 194.438 346.16C193.833 343.223 193.53 340.105 193.53 336.805C193.53 331.447 194.302 326.648 195.846 322.41C197.42 318.172 199.661 314.554 202.567 311.557C205.473 308.53 208.879 306.229 212.784 304.655C216.689 303.081 220.852 302.293 225.272 302.293C230.661 302.293 235.459 303.368 239.667 305.518C243.875 307.667 247.099 310.331 249.339 313.51C251.58 316.658 252.7 319.64 252.7 322.456C252.7 324 252.155 325.362 251.065 326.542C249.975 327.723 248.658 328.313 247.114 328.313C245.389 328.313 244.087 327.905 243.209 327.087C242.361 326.27 241.408 324.862 240.348 322.864C238.592 319.564 236.519 317.097 234.127 315.462C231.766 313.828 228.844 313.01 225.363 313.01C219.823 313.01 215.403 315.114 212.103 319.322C208.833 323.53 207.199 329.509 207.199 337.259C207.199 342.436 207.925 346.75 209.378 350.201C210.832 353.622 212.89 356.18 215.554 357.875C218.218 359.571 221.336 360.418 224.909 360.418C228.784 360.418 232.053 359.465 234.717 357.558C237.412 355.62 239.44 352.79 240.802 349.066C241.377 347.31 242.089 345.887 242.937 344.797C243.784 343.677 245.146 343.117 247.023 343.117C248.628 343.117 250.005 343.677 251.156 344.797C252.306 345.917 252.881 347.31 252.881 348.975ZM279.406 303.429H296.98C301.551 303.429 305.472 303.853 308.741 304.7C312.011 305.548 314.978 307.137 317.642 309.468C324.574 315.402 328.041 324.423 328.041 336.533C328.041 340.529 327.692 344.177 326.996 347.477C326.3 350.776 325.225 353.758 323.772 356.422C322.319 359.056 320.457 361.417 318.187 363.506C316.4 365.111 314.448 366.397 312.329 367.366C310.21 368.335 307.924 369.016 305.472 369.41C303.05 369.803 300.31 370 297.253 370H279.679C277.227 370 275.38 369.637 274.139 368.91C272.898 368.153 272.08 367.109 271.687 365.777C271.323 364.415 271.142 362.659 271.142 360.509V311.693C271.142 308.787 271.793 306.683 273.094 305.381C274.396 304.08 276.5 303.429 279.406 303.429ZM284.628 314.1V359.283H294.846C297.086 359.283 298.842 359.223 300.113 359.102C301.385 358.98 302.702 358.678 304.064 358.193C305.426 357.709 306.607 357.028 307.606 356.15C312.117 352.335 314.372 345.766 314.372 336.442C314.372 329.873 313.373 324.953 311.375 321.684C309.407 318.414 306.97 316.34 304.064 315.462C301.158 314.554 297.646 314.1 293.529 314.1H284.628ZM374.364 370H354.021C351.084 370 348.98 369.349 347.709 368.047C346.467 366.715 345.847 364.611 345.847 361.735V311.693C345.847 308.757 346.483 306.653 347.754 305.381C349.056 304.08 351.145 303.429 354.021 303.429H375.59C378.769 303.429 381.524 303.625 383.855 304.019C386.186 304.413 388.275 305.169 390.122 306.29C391.696 307.228 393.089 308.424 394.299 309.877C395.51 311.3 396.434 312.889 397.069 314.645C397.705 316.371 398.023 318.202 398.023 320.14C398.023 326.8 394.693 331.674 388.033 334.762C396.782 337.547 401.156 342.966 401.156 351.019C401.156 354.742 400.203 358.103 398.296 361.1C396.388 364.066 393.815 366.261 390.576 367.684C388.548 368.532 386.216 369.137 383.583 369.5C380.949 369.833 377.876 370 374.364 370ZM373.365 340.438H359.334V359.874H373.819C382.932 359.874 387.488 356.589 387.488 350.02C387.488 346.659 386.307 344.222 383.946 342.708C381.585 341.195 378.058 340.438 373.365 340.438ZM359.334 313.555V330.766H371.685C375.046 330.766 377.634 330.448 379.45 329.812C381.297 329.176 382.705 327.965 383.673 326.179C384.43 324.908 384.809 323.485 384.809 321.911C384.809 318.55 383.613 316.325 381.221 315.235C378.83 314.115 375.182 313.555 370.277 313.555H359.334Z" fill="white"/>
</g>
<defs>
<clipPath id="clip0">
<rect width="512" height="512" fill="white"/>
</clipPath>
</defs>
</svg>
