<svg width="512" height="512" viewBox="0 0 512 512" fill="none" xmlns="http://www.w3.org/2000/svg">
<g clip-path="url(#clip0)">
<path d="M95.5 485V433L96 239.5V25C101.6 5.4 118.333 0.5 126 0.5H352L479 128V330V489C472.2 506.6 458.167 511.667 452 512C347 511.833 135.8 511.6 131 512C125 512.5 118 510.5 108 504.5C100 499.7 96.3333 489.5 95.5 485Z" fill="#E2E5E7"/>
<path d="M479 223V128L466 115H450.5L373.5 117L479 223Z" fill="#CAD1D8"/>
<path d="M352 98V0.5L478.5 128H384.5C360.1 126.4 352.667 107.333 352 98Z" fill="#B0B7BD"/>
<path d="M97 402V447.5L402 448C412.4 446.8 415.667 438.5 416 434.5V402H97Z" fill="#CAD1D8"/>
<rect x="32" y="240" width="384" height="192" rx="16" fill="#F7B84E"/>
<path d="M221.444 371.273L217.342 360.492H182.42L178.319 371.508C176.717 375.805 175.35 378.715 174.217 380.238C173.084 381.723 171.229 382.465 168.651 382.465C166.463 382.465 164.53 381.664 162.85 380.062C161.17 378.461 160.33 376.645 160.33 374.613C160.33 373.441 160.526 372.23 160.916 370.98C161.307 369.73 161.952 367.992 162.85 365.766L184.823 309.984C185.448 308.383 186.19 306.469 187.049 304.242C187.948 301.977 188.885 300.102 189.862 298.617C190.877 297.133 192.186 295.941 193.787 295.043C195.428 294.105 197.44 293.637 199.823 293.637C202.245 293.637 204.256 294.105 205.858 295.043C207.498 295.941 208.807 297.113 209.784 298.559C210.799 300.004 211.639 301.566 212.303 303.246C213.006 304.887 213.885 307.094 214.94 309.867L237.381 365.297C239.139 369.516 240.018 372.582 240.018 374.496C240.018 376.488 239.178 378.324 237.498 380.004C235.858 381.645 233.866 382.465 231.522 382.465C230.155 382.465 228.983 382.211 228.006 381.703C227.03 381.234 226.209 380.59 225.545 379.77C224.881 378.91 224.159 377.621 223.377 375.902C222.635 374.145 221.991 372.602 221.444 371.273ZM186.991 347.426H212.655L199.705 311.977L186.991 347.426ZM261.353 371.859V304.184C261.353 300.668 262.154 298.031 263.755 296.273C265.357 294.516 267.427 293.637 269.966 293.637C272.584 293.637 274.693 294.516 276.295 296.273C277.935 297.992 278.755 300.629 278.755 304.184V371.859C278.755 375.414 277.935 378.07 276.295 379.828C274.693 381.586 272.584 382.465 269.966 382.465C267.466 382.465 265.396 381.586 263.755 379.828C262.154 378.031 261.353 375.375 261.353 371.859Z" fill="white"/>
</g>
<defs>
<clipPath id="clip0">
<rect width="512" height="512" fill="white"/>
</clipPath>
</defs>
</svg>
