<svg width="512" height="512" viewBox="0 0 512 512" fill="none" xmlns="http://www.w3.org/2000/svg">
<g clip-path="url(#clip0)">
<path d="M95.5 485V433L96 239.5V25C101.6 5.4 118.333 0.5 126 0.5H352L479 128V330V489C472.2 506.6 458.167 511.667 452 512C347 511.833 135.8 511.6 131 512C125 512.5 118 510.5 108 504.5C100 499.7 96.3333 489.5 95.5 485Z" fill="#E2E5E7"/>
<path d="M479 223V128L466 115H450.5L373.5 117L479 223Z" fill="#CAD1D8"/>
<path d="M352 98V0.5L478.5 128H384.5C360.1 126.4 352.667 107.333 352 98Z" fill="#B0B7BD"/>
<path d="M97 402V447.5L402 448C412.4 446.8 415.667 438.5 416 434.5V402H97Z" fill="#CAD1D8"/>
<rect x="32" y="240" width="384" height="192" rx="16" fill="#F7B84E"/>
<path d="M181.774 371.273L177.673 360.492H142.751L138.649 371.508C137.048 375.805 135.68 378.715 134.548 380.238C133.415 381.723 131.559 382.465 128.981 382.465C126.794 382.465 124.86 381.664 123.18 380.062C121.501 378.461 120.661 376.645 120.661 374.613C120.661 373.441 120.856 372.23 121.247 370.98C121.637 369.73 122.282 367.992 123.18 365.766L145.153 309.984C145.778 308.383 146.52 306.469 147.38 304.242C148.278 301.977 149.216 300.102 150.192 298.617C151.208 297.133 152.516 295.941 154.118 295.043C155.759 294.105 157.77 293.637 160.153 293.637C162.575 293.637 164.587 294.105 166.188 295.043C167.829 295.941 169.137 297.113 170.114 298.559C171.13 300.004 171.97 301.566 172.634 303.246C173.337 304.887 174.216 307.094 175.27 309.867L197.712 365.297C199.47 369.516 200.348 372.582 200.348 374.496C200.348 376.488 199.509 378.324 197.829 380.004C196.188 381.645 194.196 382.465 191.852 382.465C190.485 382.465 189.313 382.211 188.337 381.703C187.36 381.234 186.54 380.59 185.876 379.77C185.212 378.91 184.489 377.621 183.708 375.902C182.966 374.145 182.321 372.602 181.774 371.273ZM147.321 347.426H172.985L160.036 311.977L147.321 347.426ZM221.684 371.859V304.184C221.684 300.668 222.484 298.031 224.086 296.273C225.688 294.516 227.758 293.637 230.297 293.637C232.914 293.637 235.023 294.516 236.625 296.273C238.266 297.992 239.086 300.629 239.086 304.184V371.859C239.086 375.414 238.266 378.07 236.625 379.828C235.023 381.586 232.914 382.465 230.297 382.465C227.797 382.465 225.727 381.586 224.086 379.828C222.484 378.031 221.684 375.375 221.684 371.859ZM317.726 308.52H283.448V330.492H312.101C314.757 330.492 316.73 331.098 318.019 332.309C319.347 333.48 320.011 335.062 320.011 337.055C320.011 339.047 319.347 340.629 318.019 341.801C316.691 342.973 314.718 343.559 312.101 343.559H283.448V371.859C283.448 375.453 282.628 378.129 280.988 379.887C279.386 381.605 277.316 382.465 274.777 382.465C272.198 382.465 270.089 381.586 268.448 379.828C266.847 378.07 266.046 375.414 266.046 371.859V305.766C266.046 303.266 266.417 301.234 267.159 299.672C267.902 298.07 269.054 296.918 270.616 296.215C272.218 295.473 274.249 295.102 276.71 295.102H317.726C320.499 295.102 322.55 295.727 323.878 296.977C325.245 298.188 325.929 299.789 325.929 301.781C325.929 303.812 325.245 305.453 323.878 306.703C322.55 307.914 320.499 308.52 317.726 308.52Z" fill="white"/>
</g>
<defs>
<clipPath id="clip0">
<rect width="512" height="512" fill="white"/>
</clipPath>
</defs>
</svg>
