<svg width="512" height="512" viewBox="0 0 512 512" fill="none" xmlns="http://www.w3.org/2000/svg">
<g clip-path="url(#clip0)">
<path d="M95.5 485V433L96 239.5V25C101.6 5.4 118.333 0.5 126 0.5H352L479 128V330V489C472.2 506.6 458.167 511.667 452 512C347 511.833 135.8 511.6 131 512C125 512.5 118 510.5 108 504.5C100 499.7 96.3333 489.5 95.5 485Z" fill="#E2E5E7"/>
<path d="M479 223V128L466 115H450.5L373.5 117L479 223Z" fill="#CAD1D8"/>
<path d="M352 98V0.5L478.5 128H384.5C360.1 126.4 352.667 107.333 352 98Z" fill="#B0B7BD"/>
<path d="M97 402V447.5L402 448C412.4 446.8 415.667 438.5 416 434.5V402H97Z" fill="#CAD1D8"/>
<rect x="32" y="240" width="384" height="192" rx="16" fill="#F7B84E"/>
<path d="M152.419 371.273L148.317 360.492H113.395L109.294 371.508C107.692 375.805 106.325 378.715 105.192 380.238C104.059 381.723 102.204 382.465 99.6258 382.465C97.4383 382.465 95.5047 381.664 93.825 380.062C92.1453 378.461 91.3055 376.645 91.3055 374.613C91.3055 373.441 91.5008 372.23 91.8914 370.98C92.282 369.73 92.9266 367.992 93.825 365.766L115.798 309.984C116.423 308.383 117.165 306.469 118.024 304.242C118.923 301.977 119.86 300.102 120.837 298.617C121.852 297.133 123.161 295.941 124.762 295.043C126.403 294.105 128.415 293.637 130.798 293.637C133.22 293.637 135.231 294.105 136.833 295.043C138.473 295.941 139.782 297.113 140.759 298.559C141.774 300.004 142.614 301.566 143.278 303.246C143.981 304.887 144.86 307.094 145.915 309.867L168.356 365.297C170.114 369.516 170.993 372.582 170.993 374.496C170.993 376.488 170.153 378.324 168.473 380.004C166.833 381.645 164.841 382.465 162.497 382.465C161.13 382.465 159.958 382.211 158.981 381.703C158.005 381.234 157.184 380.59 156.52 379.77C155.856 378.91 155.134 377.621 154.352 375.902C153.61 374.145 152.966 372.602 152.419 371.273ZM117.966 347.426H143.63L130.68 311.977L117.966 347.426ZM224.965 347.543H209.027V371.859C209.027 375.336 208.207 377.973 206.566 379.77C204.926 381.566 202.855 382.465 200.355 382.465C197.738 382.465 195.629 381.586 194.027 379.828C192.426 378.031 191.625 375.414 191.625 371.977V305.766C191.625 301.938 192.504 299.203 194.262 297.562C196.02 295.922 198.812 295.102 202.641 295.102H224.965C231.566 295.102 236.645 295.609 240.199 296.625C243.715 297.602 246.742 299.223 249.281 301.488C251.859 303.754 253.812 306.527 255.141 309.809C256.469 313.09 257.133 316.781 257.133 320.883C257.133 329.633 254.438 336.273 249.047 340.805C243.656 345.297 235.629 347.543 224.965 347.543ZM220.746 308.168H209.027V334.418H220.746C224.848 334.418 228.266 333.988 231 333.129C233.773 332.27 235.883 330.863 237.328 328.91C238.773 326.957 239.496 324.398 239.496 321.234C239.496 317.445 238.383 314.359 236.156 311.977C233.656 309.438 228.52 308.168 220.746 308.168ZM296.984 304.184V334.301L331.144 298.676C332.784 296.957 334.171 295.688 335.304 294.867C336.476 294.047 338.019 293.637 339.933 293.637C342.433 293.637 344.445 294.379 345.968 295.863C347.53 297.309 348.312 299.086 348.312 301.195C348.312 303.734 347.003 306.254 344.386 308.754L323.234 328.793L347.609 363.715C349.327 366.137 350.616 368.266 351.476 370.102C352.335 371.898 352.765 373.656 352.765 375.375C352.765 377.289 352.003 378.949 350.48 380.355C348.995 381.762 346.964 382.465 344.386 382.465C341.964 382.465 339.991 381.957 338.468 380.941C336.945 379.887 335.655 378.5 334.601 376.781C333.546 375.062 332.609 373.5 331.788 372.094L311.222 340.453L296.984 354.105V371.859C296.984 375.453 296.163 378.129 294.523 379.887C292.882 381.605 290.773 382.465 288.195 382.465C286.71 382.465 285.284 382.074 283.917 381.293C282.55 380.512 281.495 379.457 280.753 378.129C280.206 377.035 279.874 375.766 279.757 374.32C279.64 372.875 279.581 370.785 279.581 368.051V304.184C279.581 300.668 280.343 298.031 281.866 296.273C283.429 294.516 285.538 293.637 288.195 293.637C290.812 293.637 292.921 294.516 294.523 296.273C296.163 297.992 296.984 300.629 296.984 304.184Z" fill="white"/>
</g>
<defs>
<clipPath id="clip0">
<rect width="512" height="512" fill="white"/>
</clipPath>
</defs>
</svg>
