<svg width="512" height="512" viewBox="0 0 512 512" fill="none" xmlns="http://www.w3.org/2000/svg">
<g clip-path="url(#clip0)">
<path d="M95.5 485V433L96 239.5V25C101.6 5.4 118.333 0.5 126 0.5H352L479 128V330V489C472.2 506.6 458.167 511.667 452 512C347 511.833 135.8 511.6 131 512C125 512.5 118 510.5 108 504.5C100 499.7 96.3333 489.5 95.5 485Z" fill="#E2E5E7"/>
<path d="M479 223V128L466 115H450.5L373.5 117L479 223Z" fill="#CAD1D8"/>
<path d="M352 98V0.5L478.5 128H384.5C360.1 126.4 352.667 107.333 352 98Z" fill="#B0B7BD"/>
<path d="M97 402V447.5L402 448C412.4 446.8 415.667 438.5 416 434.5V402H97Z" fill="#CAD1D8"/>
<rect x="32" y="240" width="384" height="192" rx="16" fill="#F7B84E"/>
<path d="M156.813 371.273L152.712 360.492H117.79L113.688 371.508C112.087 375.805 110.72 378.715 109.587 380.238C108.454 381.723 106.598 382.465 104.02 382.465C101.833 382.465 99.8992 381.664 98.2195 380.062C96.5398 378.461 95.7 376.645 95.7 374.613C95.7 373.441 95.8953 372.23 96.2859 370.98C96.6766 369.73 97.3211 367.992 98.2195 365.766L120.192 309.984C120.817 308.383 121.559 306.469 122.419 304.242C123.317 301.977 124.255 300.102 125.231 298.617C126.247 297.133 127.555 295.941 129.157 295.043C130.798 294.105 132.809 293.637 135.192 293.637C137.614 293.637 139.626 294.105 141.227 295.043C142.868 295.941 144.177 297.113 145.153 298.559C146.169 300.004 147.009 301.566 147.673 303.246C148.376 304.887 149.255 307.094 150.309 309.867L172.751 365.297C174.509 369.516 175.387 372.582 175.387 374.496C175.387 376.488 174.548 378.324 172.868 380.004C171.227 381.645 169.235 382.465 166.891 382.465C165.524 382.465 164.352 382.211 163.376 381.703C162.399 381.234 161.579 380.59 160.915 379.77C160.251 378.91 159.528 377.621 158.747 375.902C158.005 374.145 157.36 372.602 156.813 371.273ZM122.36 347.426H148.024L135.075 311.977L122.36 347.426ZM229.359 347.543H213.422V371.859C213.422 375.336 212.602 377.973 210.961 379.77C209.32 381.566 207.25 382.465 204.75 382.465C202.133 382.465 200.023 381.586 198.422 379.828C196.82 378.031 196.02 375.414 196.02 371.977V305.766C196.02 301.938 196.898 299.203 198.656 297.562C200.414 295.922 203.207 295.102 207.035 295.102H229.359C235.961 295.102 241.039 295.609 244.594 296.625C248.109 297.602 251.137 299.223 253.676 301.488C256.254 303.754 258.207 306.527 259.535 309.809C260.863 313.09 261.527 316.781 261.527 320.883C261.527 329.633 258.832 336.273 253.441 340.805C248.051 345.297 240.023 347.543 229.359 347.543ZM225.141 308.168H213.422V334.418H225.141C229.242 334.418 232.66 333.988 235.395 333.129C238.168 332.27 240.277 330.863 241.723 328.91C243.168 326.957 243.891 324.398 243.891 321.234C243.891 317.445 242.777 314.359 240.551 311.977C238.051 309.438 232.914 308.168 225.141 308.168ZM317.198 347.543H301.261V371.859C301.261 375.336 300.441 377.973 298.8 379.77C297.159 381.566 295.089 382.465 292.589 382.465C289.972 382.465 287.863 381.586 286.261 379.828C284.659 378.031 283.859 375.414 283.859 371.977V305.766C283.859 301.938 284.738 299.203 286.495 297.562C288.253 295.922 291.046 295.102 294.874 295.102H317.198C323.8 295.102 328.878 295.609 332.433 296.625C335.948 297.602 338.976 299.223 341.515 301.488C344.093 303.754 346.046 306.527 347.374 309.809C348.702 313.09 349.366 316.781 349.366 320.883C349.366 329.633 346.671 336.273 341.28 340.805C335.89 345.297 327.863 347.543 317.198 347.543ZM312.98 308.168H301.261V334.418H312.98C317.081 334.418 320.499 333.988 323.234 333.129C326.007 332.27 328.116 330.863 329.562 328.91C331.007 326.957 331.73 324.398 331.73 321.234C331.73 317.445 330.616 314.359 328.39 311.977C325.89 309.438 320.753 308.168 312.98 308.168Z" fill="white"/>
</g>
<defs>
<clipPath id="clip0">
<rect width="512" height="512" fill="white"/>
</clipPath>
</defs>
</svg>
