<svg width="512" height="512" viewBox="0 0 512 512" fill="none" xmlns="http://www.w3.org/2000/svg">
<g clip-path="url(#clip0)">
<path d="M95.5 485V433L96 239.5V25C101.6 5.4 118.333 0.5 126 0.5H352L479 128V330V489C472.2 506.6 458.167 511.667 452 512C347 511.833 135.8 511.6 131 512C125 512.5 118 510.5 108 504.5C100 499.7 96.3333 489.5 95.5 485Z" fill="#E2E5E7"/>
<path d="M479 223V128L466 115H450.5L373.5 117L479 223Z" fill="#CAD1D8"/>
<path d="M352 98V0.5L478.5 128H384.5C360.1 126.4 352.667 107.333 352 98Z" fill="#B0B7BD"/>
<path d="M97 402V447.5L402 448C412.4 446.8 415.667 438.5 416 434.5V402H97Z" fill="#CAD1D8"/>
<rect x="32" y="240" width="384" height="192" rx="16" fill="#F7B84E"/>
<path d="M160.563 371.273L156.462 360.492H121.54L117.438 371.508C115.837 375.805 114.47 378.715 113.337 380.238C112.204 381.723 110.348 382.465 107.77 382.465C105.583 382.465 103.649 381.664 101.97 380.062C100.29 378.461 99.45 376.645 99.45 374.613C99.45 373.441 99.6453 372.23 100.036 370.98C100.427 369.73 101.071 367.992 101.97 365.766L123.942 309.984C124.567 308.383 125.309 306.469 126.169 304.242C127.067 301.977 128.005 300.102 128.981 298.617C129.997 297.133 131.305 295.941 132.907 295.043C134.548 294.105 136.559 293.637 138.942 293.637C141.364 293.637 143.376 294.105 144.977 295.043C146.618 295.941 147.927 297.113 148.903 298.559C149.919 300.004 150.759 301.566 151.423 303.246C152.126 304.887 153.005 307.094 154.059 309.867L176.501 365.297C178.259 369.516 179.137 372.582 179.137 374.496C179.137 376.488 178.298 378.324 176.618 380.004C174.977 381.645 172.985 382.465 170.641 382.465C169.274 382.465 168.102 382.211 167.126 381.703C166.149 381.234 165.329 380.59 164.665 379.77C164.001 378.91 163.278 377.621 162.497 375.902C161.755 374.145 161.11 372.602 160.563 371.273ZM126.11 347.426H151.774L138.825 311.977L126.11 347.426ZM265.043 355.219C265.043 360.414 263.695 365.082 261 369.223C258.344 373.363 254.438 376.605 249.281 378.949C244.125 381.293 238.012 382.465 230.941 382.465C222.465 382.465 215.473 380.863 209.965 377.66C206.059 375.355 202.875 372.289 200.414 368.461C197.992 364.594 196.781 360.844 196.781 357.211C196.781 355.102 197.504 353.305 198.949 351.82C200.434 350.297 202.309 349.535 204.574 349.535C206.41 349.535 207.953 350.121 209.203 351.293C210.492 352.465 211.586 354.203 212.484 356.508C213.578 359.242 214.75 361.527 216 363.363C217.289 365.199 219.086 366.723 221.391 367.934C223.695 369.105 226.723 369.691 230.473 369.691C235.629 369.691 239.809 368.5 243.012 366.117C246.254 363.695 247.875 360.688 247.875 357.094C247.875 354.242 246.996 351.938 245.238 350.18C243.52 348.383 241.273 347.016 238.5 346.078C235.766 345.141 232.094 344.145 227.484 343.09C221.312 341.645 216.137 339.965 211.957 338.051C207.816 336.098 204.516 333.461 202.055 330.141C199.633 326.781 198.422 322.621 198.422 317.66C198.422 312.934 199.711 308.734 202.289 305.062C204.867 301.391 208.598 298.578 213.48 296.625C218.363 294.633 224.105 293.637 230.707 293.637C235.98 293.637 240.531 294.301 244.359 295.629C248.227 296.918 251.43 298.656 253.969 300.844C256.508 302.992 258.363 305.258 259.535 307.641C260.707 310.023 261.293 312.348 261.293 314.613C261.293 316.684 260.551 318.559 259.066 320.238C257.621 321.879 255.805 322.699 253.617 322.699C251.625 322.699 250.102 322.211 249.047 321.234C248.031 320.219 246.918 318.578 245.707 316.312C244.145 313.07 242.27 310.551 240.082 308.754C237.895 306.918 234.379 306 229.535 306C225.043 306 221.41 306.996 218.637 308.988C215.902 310.941 214.535 313.305 214.535 316.078C214.535 317.797 215.004 319.281 215.941 320.531C216.879 321.781 218.168 322.855 219.809 323.754C221.449 324.652 223.109 325.355 224.789 325.863C226.469 326.371 229.242 327.113 233.109 328.09C237.953 329.223 242.328 330.473 246.234 331.84C250.18 333.207 253.52 334.867 256.254 336.82C259.027 338.773 261.176 341.254 262.699 344.262C264.262 347.23 265.043 350.883 265.043 355.219ZM338.937 308.52H304.659V330.492H333.312C335.968 330.492 337.941 331.098 339.23 332.309C340.558 333.48 341.222 335.062 341.222 337.055C341.222 339.047 340.558 340.629 339.23 341.801C337.902 342.973 335.929 343.559 333.312 343.559H304.659V371.859C304.659 375.453 303.839 378.129 302.198 379.887C300.597 381.605 298.527 382.465 295.988 382.465C293.409 382.465 291.3 381.586 289.659 379.828C288.058 378.07 287.257 375.414 287.257 371.859V305.766C287.257 303.266 287.628 301.234 288.37 299.672C289.113 298.07 290.265 296.918 291.827 296.215C293.429 295.473 295.46 295.102 297.921 295.102H338.937C341.71 295.102 343.761 295.727 345.089 296.977C346.456 298.188 347.14 299.789 347.14 301.781C347.14 303.812 346.456 305.453 345.089 306.703C343.761 307.914 341.71 308.52 338.937 308.52Z" fill="white"/>
</g>
<defs>
<clipPath id="clip0">
<rect width="512" height="512" fill="white"/>
</clipPath>
</defs>
</svg>
