<svg width="512" height="512" viewBox="0 0 512 512" fill="none" xmlns="http://www.w3.org/2000/svg">
<g clip-path="url(#clip0)">
<path d="M95.5 485V433L96 239.5V25C101.6 5.4 118.333 0.5 126 0.5H352L479 128V330V489C472.2 506.6 458.167 511.667 452 512C347 511.833 135.8 511.6 131 512C125 512.5 118 510.5 108 504.5C100 499.7 96.3333 489.5 95.5 485Z" fill="#E2E5E7"/>
<path d="M479 223V128L466 115H450.5L373.5 117L479 223Z" fill="#CAD1D8"/>
<path d="M352 98V0.5L478.5 128H384.5C360.1 126.4 352.667 107.333 352 98Z" fill="#B0B7BD"/>
<path d="M97 402V447.5L402 448C412.4 446.8 415.667 438.5 416 434.5V402H97Z" fill="#CAD1D8"/>
<rect x="32" y="240" width="384" height="192" rx="16" fill="#F7B84E"/>
<path d="M156.813 371.273L152.712 360.492H117.79L113.688 371.508C112.087 375.805 110.72 378.715 109.587 380.238C108.454 381.723 106.598 382.465 104.02 382.465C101.833 382.465 99.8992 381.664 98.2195 380.062C96.5398 378.461 95.7 376.645 95.7 374.613C95.7 373.441 95.8953 372.23 96.2859 370.98C96.6766 369.73 97.3211 367.992 98.2195 365.766L120.192 309.984C120.817 308.383 121.559 306.469 122.419 304.242C123.317 301.977 124.255 300.102 125.231 298.617C126.247 297.133 127.555 295.941 129.157 295.043C130.798 294.105 132.809 293.637 135.192 293.637C137.614 293.637 139.626 294.105 141.227 295.043C142.868 295.941 144.177 297.113 145.153 298.559C146.169 300.004 147.009 301.566 147.673 303.246C148.376 304.887 149.255 307.094 150.309 309.867L172.751 365.297C174.509 369.516 175.387 372.582 175.387 374.496C175.387 376.488 174.548 378.324 172.868 380.004C171.227 381.645 169.235 382.465 166.891 382.465C165.524 382.465 164.352 382.211 163.376 381.703C162.399 381.234 161.579 380.59 160.915 379.77C160.251 378.91 159.528 377.621 158.747 375.902C158.005 374.145 157.36 372.602 156.813 371.273ZM122.36 347.426H148.024L135.075 311.977L122.36 347.426ZM261.293 355.219C261.293 360.414 259.945 365.082 257.25 369.223C254.594 373.363 250.688 376.605 245.531 378.949C240.375 381.293 234.262 382.465 227.191 382.465C218.715 382.465 211.723 380.863 206.215 377.66C202.309 375.355 199.125 372.289 196.664 368.461C194.242 364.594 193.031 360.844 193.031 357.211C193.031 355.102 193.754 353.305 195.199 351.82C196.684 350.297 198.559 349.535 200.824 349.535C202.66 349.535 204.203 350.121 205.453 351.293C206.742 352.465 207.836 354.203 208.734 356.508C209.828 359.242 211 361.527 212.25 363.363C213.539 365.199 215.336 366.723 217.641 367.934C219.945 369.105 222.973 369.691 226.723 369.691C231.879 369.691 236.059 368.5 239.262 366.117C242.504 363.695 244.125 360.688 244.125 357.094C244.125 354.242 243.246 351.938 241.488 350.18C239.77 348.383 237.523 347.016 234.75 346.078C232.016 345.141 228.344 344.145 223.734 343.09C217.562 341.645 212.387 339.965 208.207 338.051C204.066 336.098 200.766 333.461 198.305 330.141C195.883 326.781 194.672 322.621 194.672 317.66C194.672 312.934 195.961 308.734 198.539 305.062C201.117 301.391 204.848 298.578 209.73 296.625C214.613 294.633 220.355 293.637 226.957 293.637C232.23 293.637 236.781 294.301 240.609 295.629C244.477 296.918 247.68 298.656 250.219 300.844C252.758 302.992 254.613 305.258 255.785 307.641C256.957 310.023 257.543 312.348 257.543 314.613C257.543 316.684 256.801 318.559 255.316 320.238C253.871 321.879 252.055 322.699 249.867 322.699C247.875 322.699 246.352 322.211 245.297 321.234C244.281 320.219 243.168 318.578 241.957 316.312C240.395 313.07 238.52 310.551 236.332 308.754C234.145 306.918 230.629 306 225.785 306C221.293 306 217.66 306.996 214.887 308.988C212.152 310.941 210.785 313.305 210.785 316.078C210.785 317.797 211.254 319.281 212.191 320.531C213.129 321.781 214.418 322.855 216.059 323.754C217.699 324.652 219.359 325.355 221.039 325.863C222.719 326.371 225.492 327.113 229.359 328.09C234.203 329.223 238.578 330.473 242.484 331.84C246.43 333.207 249.77 334.867 252.504 336.82C255.277 338.773 257.426 341.254 258.949 344.262C260.512 347.23 261.293 350.883 261.293 355.219ZM317.198 347.543H301.261V371.859C301.261 375.336 300.441 377.973 298.8 379.77C297.159 381.566 295.089 382.465 292.589 382.465C289.972 382.465 287.863 381.586 286.261 379.828C284.659 378.031 283.859 375.414 283.859 371.977V305.766C283.859 301.938 284.738 299.203 286.495 297.562C288.253 295.922 291.046 295.102 294.874 295.102H317.198C323.8 295.102 328.878 295.609 332.433 296.625C335.948 297.602 338.976 299.223 341.515 301.488C344.093 303.754 346.046 306.527 347.374 309.809C348.702 313.09 349.366 316.781 349.366 320.883C349.366 329.633 346.671 336.273 341.28 340.805C335.89 345.297 327.863 347.543 317.198 347.543ZM312.98 308.168H301.261V334.418H312.98C317.081 334.418 320.499 333.988 323.234 333.129C326.007 332.27 328.116 330.863 329.562 328.91C331.007 326.957 331.73 324.398 331.73 321.234C331.73 317.445 330.616 314.359 328.39 311.977C325.89 309.438 320.753 308.168 312.98 308.168Z" fill="white"/>
</g>
<defs>
<clipPath id="clip0">
<rect width="512" height="512" fill="white"/>
</clipPath>
</defs>
</svg>
