<svg width="512" height="512" viewBox="0 0 512 512" fill="none" xmlns="http://www.w3.org/2000/svg">
<g clip-path="url(#clip0)">
<path d="M95.5 485V433L96 239.5V25C101.6 5.4 118.333 0.5 126 0.5H352L479 128V330V489C472.2 506.6 458.167 511.667 452 512C347 511.833 135.8 511.6 131 512C125 512.5 118 510.5 108 504.5C100 499.7 96.3333 489.5 95.5 485Z" fill="#E2E5E7"/>
<path d="M479 223V128L466 115H450.5L373.5 117L479 223Z" fill="#CAD1D8"/>
<path d="M352 98V0.5L478.5 128H384.5C360.1 126.4 352.667 107.333 352 98Z" fill="#B0B7BD"/>
<path d="M97 402V447.5L402 448C412.4 446.8 415.667 438.5 416 434.5V402H97Z" fill="#CAD1D8"/>
<rect x="32" y="240" width="384" height="192" rx="16" fill="#F7B84E"/>
<path d="M116.644 371.273L112.542 360.492H77.6203L73.5188 371.508C71.9172 375.805 70.55 378.715 69.4172 380.238C68.2844 381.723 66.4289 382.465 63.8508 382.465C61.6633 382.465 59.7297 381.664 58.05 380.062C56.3703 378.461 55.5305 376.645 55.5305 374.613C55.5305 373.441 55.7258 372.23 56.1164 370.98C56.507 369.73 57.1516 367.992 58.05 365.766L80.0227 309.984C80.6477 308.383 81.3898 306.469 82.2492 304.242C83.1477 301.977 84.0852 300.102 85.0617 298.617C86.0773 297.133 87.3859 295.941 88.9875 295.043C90.6281 294.105 92.6398 293.637 95.0227 293.637C97.4445 293.637 99.4563 294.105 101.058 295.043C102.698 295.941 104.007 297.113 104.984 298.559C105.999 300.004 106.839 301.566 107.503 303.246C108.206 304.887 109.085 307.094 110.14 309.867L132.581 365.297C134.339 369.516 135.218 372.582 135.218 374.496C135.218 376.488 134.378 378.324 132.698 380.004C131.058 381.645 129.066 382.465 126.722 382.465C125.355 382.465 124.183 382.211 123.206 381.703C122.23 381.234 121.409 380.59 120.745 379.77C120.081 378.91 119.359 377.621 118.577 375.902C117.835 374.145 117.191 372.602 116.644 371.273ZM82.1906 347.426H107.855L94.9055 311.977L82.1906 347.426ZM221.123 355.219C221.123 360.414 219.776 365.082 217.08 369.223C214.424 373.363 210.518 376.605 205.362 378.949C200.205 381.293 194.092 382.465 187.022 382.465C178.545 382.465 171.553 380.863 166.045 377.66C162.139 375.355 158.955 372.289 156.495 368.461C154.073 364.594 152.862 360.844 152.862 357.211C152.862 355.102 153.584 353.305 155.03 351.82C156.514 350.297 158.389 349.535 160.655 349.535C162.491 349.535 164.034 350.121 165.284 351.293C166.573 352.465 167.666 354.203 168.565 356.508C169.659 359.242 170.83 361.527 172.08 363.363C173.37 365.199 175.166 366.723 177.471 367.934C179.776 369.105 182.803 369.691 186.553 369.691C191.709 369.691 195.889 368.5 199.092 366.117C202.334 363.695 203.955 360.688 203.955 357.094C203.955 354.242 203.077 351.938 201.319 350.18C199.6 348.383 197.354 347.016 194.58 346.078C191.846 345.141 188.174 344.145 183.565 343.09C177.393 341.645 172.217 339.965 168.038 338.051C163.897 336.098 160.596 333.461 158.135 330.141C155.713 326.781 154.502 322.621 154.502 317.66C154.502 312.934 155.791 308.734 158.37 305.062C160.948 301.391 164.678 298.578 169.561 296.625C174.444 294.633 180.186 293.637 186.788 293.637C192.061 293.637 196.612 294.301 200.44 295.629C204.307 296.918 207.51 298.656 210.049 300.844C212.588 302.992 214.444 305.258 215.616 307.641C216.788 310.023 217.373 312.348 217.373 314.613C217.373 316.684 216.631 318.559 215.147 320.238C213.702 321.879 211.885 322.699 209.698 322.699C207.705 322.699 206.182 322.211 205.127 321.234C204.112 320.219 202.998 318.578 201.788 316.312C200.225 313.07 198.35 310.551 196.163 308.754C193.975 306.918 190.459 306 185.616 306C181.123 306 177.491 306.996 174.717 308.988C171.983 310.941 170.616 313.305 170.616 316.078C170.616 317.797 171.084 319.281 172.022 320.531C172.959 321.781 174.248 322.855 175.889 323.754C177.53 324.652 179.19 325.355 180.87 325.863C182.549 326.371 185.323 327.113 189.19 328.09C194.034 329.223 198.409 330.473 202.315 331.84C206.26 333.207 209.6 334.867 212.334 336.82C215.108 338.773 217.256 341.254 218.78 344.262C220.342 347.23 221.123 350.883 221.123 355.219ZM277.029 347.543H261.091V371.859C261.091 375.336 260.271 377.973 258.63 379.77C256.99 381.566 254.92 382.465 252.42 382.465C249.802 382.465 247.693 381.586 246.091 379.828C244.49 378.031 243.689 375.414 243.689 371.977V305.766C243.689 301.938 244.568 299.203 246.326 297.562C248.084 295.922 250.877 295.102 254.705 295.102H277.029C283.63 295.102 288.709 295.609 292.263 296.625C295.779 297.602 298.806 299.223 301.345 301.488C303.923 303.754 305.877 306.527 307.205 309.809C308.533 313.09 309.197 316.781 309.197 320.883C309.197 329.633 306.502 336.273 301.111 340.805C295.72 345.297 287.693 347.543 277.029 347.543ZM272.81 308.168H261.091V334.418H272.81C276.912 334.418 280.33 333.988 283.064 333.129C285.838 332.27 287.947 330.863 289.392 328.91C290.838 326.957 291.56 324.398 291.56 321.234C291.56 317.445 290.447 314.359 288.22 311.977C285.72 309.438 280.584 308.168 272.81 308.168ZM328.364 364.301L347.583 336.234L331.411 311.273C329.888 308.852 328.735 306.781 327.954 305.062C327.212 303.305 326.841 301.625 326.841 300.023C326.841 298.383 327.563 296.918 329.009 295.629C330.493 294.301 332.29 293.637 334.399 293.637C336.821 293.637 338.696 294.359 340.024 295.805C341.391 297.211 343.266 299.848 345.649 303.715L358.54 324.574L372.309 303.715C373.442 301.957 374.399 300.453 375.18 299.203C376.001 297.953 376.782 296.918 377.524 296.098C378.266 295.277 379.087 294.672 379.985 294.281C380.923 293.852 381.997 293.637 383.208 293.637C385.395 293.637 387.173 294.301 388.54 295.629C389.946 296.918 390.649 298.461 390.649 300.258C390.649 302.875 389.145 306.43 386.138 310.922L369.204 336.234L387.427 364.301C389.067 366.762 390.259 368.812 391.001 370.453C391.743 372.055 392.114 373.578 392.114 375.023C392.114 376.391 391.782 377.641 391.118 378.773C390.454 379.906 389.516 380.805 388.305 381.469C387.095 382.133 385.727 382.465 384.204 382.465C382.563 382.465 381.177 382.113 380.044 381.41C378.911 380.746 377.993 379.906 377.29 378.891C376.587 377.875 375.278 375.902 373.364 372.973L358.247 349.184L342.192 373.676C340.942 375.629 340.044 376.996 339.497 377.777C338.989 378.559 338.364 379.32 337.622 380.062C336.88 380.805 336.001 381.391 334.985 381.82C333.97 382.25 332.778 382.465 331.411 382.465C329.302 382.465 327.544 381.82 326.138 380.531C324.77 379.242 324.087 377.367 324.087 374.906C324.087 372.016 325.513 368.48 328.364 364.301Z" fill="white"/>
</g>
<defs>
<clipPath id="clip0">
<rect width="512" height="512" fill="white"/>
</clipPath>
</defs>
</svg>
