<svg width="512" height="512" viewBox="0 0 512 512" fill="none" xmlns="http://www.w3.org/2000/svg">
<g clip-path="url(#clip0)">
<path d="M95.5 485V433L96 239.5V25C101.6 5.4 118.333 0.5 126 0.5H352L479 128V330V489C472.2 506.6 458.167 511.667 452 512C347 511.833 135.8 511.6 131 512C125 512.5 118 510.5 108 504.5C100 499.7 96.3333 489.5 95.5 485Z" fill="#E2E5E7"/>
<path d="M479 223V128L466 115H450.5L373.5 117L479 223Z" fill="#CAD1D8"/>
<path d="M352 98V0.5L478.5 128H384.5C360.1 126.4 352.667 107.333 352 98Z" fill="#B0B7BD"/>
<path d="M97 402V447.5L402 448C412.4 446.8 415.667 438.5 416 434.5V402H97Z" fill="#CAD1D8"/>
<rect x="33" y="240" width="384" height="192" rx="16" fill="#F7B84E"/>
<path d="M93.3434 360.3L90.0963 351.765H62.4498L59.2027 360.485C57.9348 363.887 56.8525 366.191 55.9557 367.397C55.0588 368.572 53.5899 369.16 51.5489 369.16C49.8171 369.16 48.2864 368.526 46.9566 367.258C45.6269 365.99 44.962 364.552 44.962 362.944C44.962 362.016 45.1166 361.057 45.4259 360.068C45.7351 359.078 46.2454 357.702 46.9566 355.939L64.3517 311.779C64.8464 310.511 65.434 308.996 66.1143 307.233C66.8256 305.44 67.5678 303.955 68.3409 302.78C69.1449 301.605 70.1809 300.662 71.4488 299.951C72.7477 299.208 74.3403 298.837 76.2267 298.837C78.144 298.837 79.7366 299.208 81.0045 299.951C82.3033 300.662 83.3393 301.59 84.1124 302.734C84.9164 303.878 85.5813 305.115 86.107 306.445C86.6637 307.744 87.3595 309.491 88.1944 311.687L105.961 355.568C107.352 358.908 108.048 361.336 108.048 362.851C108.048 364.428 107.383 365.882 106.053 367.211C104.754 368.51 103.177 369.16 101.322 369.16C100.24 369.16 99.3118 368.959 98.5387 368.557C97.7656 368.186 97.1161 367.675 96.5904 367.026C96.0647 366.346 95.4926 365.325 94.8741 363.964C94.2865 362.573 93.7763 361.351 93.3434 360.3ZM66.068 341.42H86.3853L76.1339 313.356L66.068 341.42ZM129.623 307.883L145.024 353.481L160.471 307.558C161.275 305.146 161.878 303.476 162.28 302.548C162.682 301.59 163.346 300.739 164.274 299.997C165.202 299.224 166.47 298.837 168.078 298.837C169.253 298.837 170.335 299.131 171.325 299.719C172.346 300.306 173.134 301.095 173.691 302.084C174.278 303.043 174.572 304.017 174.572 305.007C174.572 305.687 174.479 306.429 174.294 307.233C174.108 308.007 173.876 308.78 173.598 309.553C173.32 310.295 173.041 311.068 172.763 311.872L156.296 356.311C155.708 358.011 155.121 359.635 154.533 361.181C153.945 362.696 153.265 364.042 152.492 365.217C151.719 366.361 150.683 367.304 149.384 368.046C148.116 368.789 146.554 369.16 144.699 369.16C142.844 369.16 141.266 368.789 139.968 368.046C138.7 367.335 137.664 366.392 136.86 365.217C136.087 364.011 135.406 362.65 134.819 361.135C134.231 359.619 133.644 358.011 133.056 356.311L116.867 312.243C116.589 311.439 116.295 310.651 115.986 309.877C115.707 309.104 115.46 308.269 115.243 307.373C115.058 306.476 114.965 305.718 114.965 305.1C114.965 303.522 115.599 302.084 116.867 300.786C118.135 299.487 119.728 298.837 121.645 298.837C123.995 298.837 125.65 299.564 126.608 301.018C127.598 302.44 128.603 304.729 129.623 307.883ZM247.776 346.523C247.776 348.688 247.235 351.038 246.152 353.574C245.101 356.079 243.431 358.553 241.143 360.996C238.854 363.408 235.932 365.371 232.375 366.887C228.819 368.402 224.675 369.16 219.944 369.16C216.357 369.16 213.094 368.819 210.156 368.139C207.218 367.459 204.543 366.407 202.131 364.985C199.75 363.531 197.555 361.63 195.544 359.279C193.751 357.146 192.22 354.764 190.952 352.136C189.684 349.476 188.726 346.647 188.076 343.647C187.458 340.647 187.148 337.462 187.148 334.091C187.148 328.618 187.937 323.716 189.514 319.387C191.122 315.057 193.411 311.362 196.379 308.3C199.348 305.208 202.827 302.858 206.816 301.25C210.806 299.641 215.058 298.837 219.573 298.837C225.077 298.837 229.979 299.935 234.277 302.131C238.576 304.326 241.869 307.048 244.158 310.295C246.446 313.511 247.59 316.557 247.59 319.433C247.59 321.01 247.034 322.402 245.92 323.608C244.807 324.814 243.462 325.417 241.885 325.417C240.122 325.417 238.792 325 237.896 324.165C237.03 323.33 236.056 321.892 234.973 319.851C233.18 316.48 231.061 313.959 228.618 312.29C226.206 310.62 223.222 309.785 219.666 309.785C214.006 309.785 209.491 311.934 206.121 316.232C202.781 320.531 201.111 326.639 201.111 334.555C201.111 339.843 201.853 344.25 203.337 347.775C204.822 351.27 206.925 353.883 209.646 355.615C212.367 357.347 215.553 358.212 219.202 358.212C223.16 358.212 226.5 357.238 229.221 355.29C231.973 353.311 234.045 350.419 235.437 346.616C236.025 344.822 236.751 343.369 237.617 342.255C238.483 341.111 239.875 340.539 241.792 340.539C243.431 340.539 244.838 341.111 246.013 342.255C247.188 343.4 247.776 344.822 247.776 346.523ZM280.206 307.187V326.669H309.94V307.187C309.94 304.404 310.558 302.316 311.795 300.925C313.063 299.533 314.717 298.837 316.758 298.837C318.83 298.837 320.5 299.533 321.768 300.925C323.067 302.285 323.716 304.373 323.716 307.187V360.764C323.716 363.578 323.067 365.681 321.768 367.072C320.469 368.464 318.799 369.16 316.758 369.16C314.687 369.16 313.032 368.464 311.795 367.072C310.558 365.65 309.94 363.547 309.94 360.764V337.895H280.206V360.764C280.206 363.578 279.556 365.681 278.258 367.072C276.959 368.464 275.289 369.16 273.248 369.16C271.176 369.16 269.521 368.464 268.284 367.072C267.047 365.65 266.429 363.547 266.429 360.764V307.187C266.429 304.404 267.032 302.316 268.238 300.925C269.475 299.533 271.145 298.837 273.248 298.837C275.32 298.837 276.99 299.533 278.258 300.925C279.556 302.285 280.206 304.373 280.206 307.187ZM353.224 299.997H371.176C375.845 299.997 379.85 300.43 383.19 301.296C386.53 302.162 389.56 303.785 392.282 306.167C399.363 312.228 402.904 321.443 402.904 333.813C402.904 337.895 402.549 341.621 401.837 344.992C401.126 348.363 400.028 351.409 398.544 354.13C397.059 356.821 395.158 359.233 392.838 361.367C391.014 363.006 389.019 364.32 386.854 365.31C384.69 366.299 382.355 366.995 379.85 367.397C377.376 367.799 374.577 368 371.454 368H353.502C350.997 368 349.111 367.629 347.843 366.887C346.575 366.114 345.74 365.047 345.338 363.686C344.967 362.294 344.782 360.501 344.782 358.305V308.439C344.782 305.471 345.447 303.321 346.776 301.992C348.106 300.662 350.255 299.997 353.224 299.997ZM358.559 310.898V357.053H368.996C371.284 357.053 373.078 356.991 374.376 356.867C375.675 356.743 377.02 356.434 378.412 355.939C379.804 355.445 381.01 354.749 382.03 353.852C386.638 349.956 388.942 343.245 388.942 333.72C388.942 327.01 387.921 321.984 385.88 318.645C383.87 315.305 381.381 313.186 378.412 312.29C375.443 311.362 371.856 310.898 367.65 310.898H358.559Z" fill="white"/>
</g>
<defs>
<clipPath id="clip0">
<rect width="512" height="512" fill="white"/>
</clipPath>
</defs>
</svg>
