<svg width="512" height="512" viewBox="0 0 512 512" fill="none" xmlns="http://www.w3.org/2000/svg">
<g clip-path="url(#clip0)">
<path d="M95.5 485V433L96 239.5V25C101.6 5.4 118.333 0.5 126 0.5H352L479 128V330V489C472.2 506.6 458.167 511.667 452 512C347 511.833 135.8 511.6 131 512C125 512.5 118 510.5 108 504.5C100 499.7 96.3333 489.5 95.5 485Z" fill="#E2E5E7"/>
<path d="M479 223V128L466 115H450.5L373.5 117L479 223Z" fill="#CAD1D8"/>
<path d="M352 98V0.5L478.5 128H384.5C360.1 126.4 352.667 107.333 352 98Z" fill="#B0B7BD"/>
<path d="M97 402V447.5L402 448C412.4 446.8 415.667 438.5 416 434.5V402H97Z" fill="#CAD1D8"/>
<rect x="32" y="240" width="384" height="192" rx="16" fill="#F7B84E"/>
<path d="M179.782 371.273L175.68 360.492H140.759L136.657 371.508C135.055 375.805 133.688 378.715 132.555 380.238C131.423 381.723 129.567 382.465 126.989 382.465C124.802 382.465 122.868 381.664 121.188 380.062C119.509 378.461 118.669 376.645 118.669 374.613C118.669 373.441 118.864 372.23 119.255 370.98C119.645 369.73 120.29 367.992 121.188 365.766L143.161 309.984C143.786 308.383 144.528 306.469 145.387 304.242C146.286 301.977 147.223 300.102 148.2 298.617C149.216 297.133 150.524 295.941 152.126 295.043C153.766 294.105 155.778 293.637 158.161 293.637C160.583 293.637 162.595 294.105 164.196 295.043C165.837 295.941 167.145 297.113 168.122 298.559C169.137 300.004 169.977 301.566 170.641 303.246C171.345 304.887 172.223 307.094 173.278 309.867L195.72 365.297C197.477 369.516 198.356 372.582 198.356 374.496C198.356 376.488 197.516 378.324 195.837 380.004C194.196 381.645 192.204 382.465 189.86 382.465C188.493 382.465 187.321 382.211 186.345 381.703C185.368 381.234 184.548 380.59 183.884 379.77C183.22 378.91 182.497 377.621 181.716 375.902C180.973 374.145 180.329 372.602 179.782 371.273ZM145.329 347.426H170.993L158.044 311.977L145.329 347.426ZM225.609 305.062L245.062 362.66L264.574 304.652C265.59 301.605 266.352 299.496 266.859 298.324C267.367 297.113 268.207 296.039 269.379 295.102C270.551 294.125 272.152 293.637 274.184 293.637C275.668 293.637 277.035 294.008 278.285 294.75C279.574 295.492 280.57 296.488 281.273 297.738C282.016 298.949 282.387 300.18 282.387 301.43C282.387 302.289 282.27 303.227 282.035 304.242C281.801 305.219 281.508 306.195 281.156 307.172C280.805 308.109 280.453 309.086 280.102 310.102L259.301 366.234C258.559 368.383 257.816 370.434 257.074 372.387C256.332 374.301 255.473 376 254.496 377.484C253.52 378.93 252.211 380.121 250.57 381.059C248.969 381.996 246.996 382.465 244.652 382.465C242.309 382.465 240.316 381.996 238.676 381.059C237.074 380.16 235.766 378.969 234.75 377.484C233.773 375.961 232.914 374.242 232.172 372.328C231.43 370.414 230.688 368.383 229.945 366.234L209.496 310.57C209.145 309.555 208.773 308.559 208.383 307.582C208.031 306.605 207.719 305.551 207.445 304.418C207.211 303.285 207.094 302.328 207.094 301.547C207.094 299.555 207.895 297.738 209.496 296.098C211.098 294.457 213.109 293.637 215.531 293.637C218.5 293.637 220.59 294.555 221.801 296.391C223.051 298.188 224.32 301.078 225.609 305.062ZM304.015 371.859V304.184C304.015 300.668 304.816 298.031 306.417 296.273C308.019 294.516 310.089 293.637 312.628 293.637C315.245 293.637 317.355 294.516 318.956 296.273C320.597 297.992 321.417 300.629 321.417 304.184V371.859C321.417 375.414 320.597 378.07 318.956 379.828C317.355 381.586 315.245 382.465 312.628 382.465C310.128 382.465 308.058 381.586 306.417 379.828C304.816 378.031 304.015 375.375 304.015 371.859Z" fill="white"/>
</g>
<defs>
<clipPath id="clip0">
<rect width="512" height="512" fill="white"/>
</clipPath>
</defs>
</svg>
