<svg width="512" height="512" viewBox="0 0 512 512" fill="none" xmlns="http://www.w3.org/2000/svg">
<g clip-path="url(#clip0)">
<path d="M95.5 485V433L96 239.5V25C101.6 5.4 118.333 0.5 126 0.5H352L479 128V330V489C472.2 506.6 458.167 511.667 452 512C347 511.833 135.8 511.6 131 512C125 512.5 118 510.5 108 504.5C100 499.7 96.3333 489.5 95.5 485Z" fill="#E2E5E7"/>
<path d="M479 223V128L466 115H450.5L373.5 117L479 223Z" fill="#CAD1D8"/>
<path d="M352 98V0.5L478.5 128H384.5C360.1 126.4 352.667 107.333 352 98Z" fill="#B0B7BD"/>
<path d="M97 402V447.5L402 448C412.4 446.8 415.667 438.5 416 434.5V402H97Z" fill="#CAD1D8"/>
<rect x="32" y="240" width="384" height="192" rx="16" fill="#F15642"/>
<path d="M226.371 381H200.121C196.332 381 193.617 380.16 191.977 378.48C190.375 376.762 189.574 374.047 189.574 370.336V305.766C189.574 301.977 190.395 299.262 192.035 297.621C193.715 295.941 196.41 295.102 200.121 295.102H227.953C232.055 295.102 235.609 295.355 238.617 295.863C241.625 296.371 244.32 297.348 246.703 298.793C248.734 300.004 250.531 301.547 252.094 303.422C253.656 305.258 254.848 307.309 255.668 309.574C256.488 311.801 256.898 314.164 256.898 316.664C256.898 325.258 252.602 331.547 244.008 335.531C255.297 339.125 260.941 346.117 260.941 356.508C260.941 361.312 259.711 365.648 257.25 369.516C254.789 373.344 251.469 376.176 247.289 378.012C244.672 379.105 241.664 379.887 238.266 380.355C234.867 380.785 230.902 381 226.371 381ZM225.082 342.855H206.977V367.934H225.668C237.426 367.934 243.305 363.695 243.305 355.219C243.305 350.883 241.781 347.738 238.734 345.785C235.688 343.832 231.137 342.855 225.082 342.855ZM206.977 308.168V330.375H222.914C227.25 330.375 230.59 329.965 232.934 329.145C235.316 328.324 237.133 326.762 238.383 324.457C239.359 322.816 239.848 320.98 239.848 318.949C239.848 314.613 238.305 311.742 235.219 310.336C232.133 308.891 227.426 308.168 221.098 308.168H206.977Z" fill="white"/>
</g>
<defs>
<clipPath id="clip0">
<rect width="512" height="512" fill="white"/>
</clipPath>
</defs>
</svg>
