<svg width="512" height="512" viewBox="0 0 512 512" fill="none" xmlns="http://www.w3.org/2000/svg">
<g clip-path="url(#clip0)">
<path d="M95.5 485V433L96 239.5V25C101.6 5.4 118.333 0.5 126 0.5H352L479 128V330V489C472.2 506.6 458.167 511.667 452 512C347 511.833 135.8 511.6 131 512C125 512.5 118 510.5 108 504.5C100 499.7 96.3333 489.5 95.5 485Z" fill="#E2E5E7"/>
<path d="M479 223V128L466 115H450.5L373.5 117L479 223Z" fill="#CAD1D8"/>
<path d="M352 98V0.5L478.5 128H384.5C360.1 126.4 352.667 107.333 352 98Z" fill="#B0B7BD"/>
<path d="M97 402V447.5L402 448C412.4 446.8 415.667 438.5 416 434.5V402H97Z" fill="#CAD1D8"/>
<rect x="32" y="240" width="384" height="192" rx="16" fill="#F15642"/>
<path d="M133.259 381H107.009C103.22 381 100.505 380.16 98.8641 378.48C97.2625 376.762 96.4617 374.047 96.4617 370.336V305.766C96.4617 301.977 97.282 299.262 98.9227 297.621C100.602 295.941 103.298 295.102 107.009 295.102H134.841C138.942 295.102 142.497 295.355 145.505 295.863C148.512 296.371 151.208 297.348 153.591 298.793C155.622 300.004 157.419 301.547 158.981 303.422C160.544 305.258 161.735 307.309 162.555 309.574C163.376 311.801 163.786 314.164 163.786 316.664C163.786 325.258 159.489 331.547 150.895 335.531C162.184 339.125 167.829 346.117 167.829 356.508C167.829 361.312 166.598 365.648 164.137 369.516C161.677 373.344 158.356 376.176 154.177 378.012C151.559 379.105 148.552 379.887 145.153 380.355C141.755 380.785 137.79 381 133.259 381ZM131.97 342.855H113.864V367.934H132.555C144.313 367.934 150.192 363.695 150.192 355.219C150.192 350.883 148.669 347.738 145.622 345.785C142.575 343.832 138.024 342.855 131.97 342.855ZM113.864 308.168V330.375H129.802C134.137 330.375 137.477 329.965 139.821 329.145C142.204 328.324 144.02 326.762 145.27 324.457C146.247 322.816 146.735 320.98 146.735 318.949C146.735 314.613 145.192 311.742 142.106 310.336C139.02 308.891 134.313 308.168 127.985 308.168H113.864ZM241.137 371.273L237.035 360.492H202.113L198.012 371.508C196.41 375.805 195.043 378.715 193.91 380.238C192.777 381.723 190.922 382.465 188.344 382.465C186.156 382.465 184.223 381.664 182.543 380.062C180.863 378.461 180.023 376.645 180.023 374.613C180.023 373.441 180.219 372.23 180.609 370.98C181 369.73 181.645 367.992 182.543 365.766L204.516 309.984C205.141 308.383 205.883 306.469 206.742 304.242C207.641 301.977 208.578 300.102 209.555 298.617C210.57 297.133 211.879 295.941 213.48 295.043C215.121 294.105 217.133 293.637 219.516 293.637C221.938 293.637 223.949 294.105 225.551 295.043C227.191 295.941 228.5 297.113 229.477 298.559C230.492 300.004 231.332 301.566 231.996 303.246C232.699 304.887 233.578 307.094 234.633 309.867L257.074 365.297C258.832 369.516 259.711 372.582 259.711 374.496C259.711 376.488 258.871 378.324 257.191 380.004C255.551 381.645 253.559 382.465 251.215 382.465C249.848 382.465 248.676 382.211 247.699 381.703C246.723 381.234 245.902 380.59 245.238 379.77C244.574 378.91 243.852 377.621 243.07 375.902C242.328 374.145 241.684 372.602 241.137 371.273ZM206.684 347.426H232.348L219.398 311.977L206.684 347.426ZM297.863 304.184V334.301L332.023 298.676C333.663 296.957 335.05 295.688 336.183 294.867C337.355 294.047 338.898 293.637 340.812 293.637C343.312 293.637 345.323 294.379 346.847 295.863C348.409 297.309 349.191 299.086 349.191 301.195C349.191 303.734 347.882 306.254 345.265 308.754L324.113 328.793L348.488 363.715C350.206 366.137 351.495 368.266 352.355 370.102C353.214 371.898 353.644 373.656 353.644 375.375C353.644 377.289 352.882 378.949 351.359 380.355C349.874 381.762 347.843 382.465 345.265 382.465C342.843 382.465 340.87 381.957 339.347 380.941C337.823 379.887 336.534 378.5 335.48 376.781C334.425 375.062 333.488 373.5 332.667 372.094L312.101 340.453L297.863 354.105V371.859C297.863 375.453 297.042 378.129 295.402 379.887C293.761 381.605 291.652 382.465 289.073 382.465C287.589 382.465 286.163 382.074 284.796 381.293C283.429 380.512 282.374 379.457 281.632 378.129C281.085 377.035 280.753 375.766 280.636 374.32C280.519 372.875 280.46 370.785 280.46 368.051V304.184C280.46 300.668 281.222 298.031 282.745 296.273C284.308 294.516 286.417 293.637 289.073 293.637C291.691 293.637 293.8 294.516 295.402 296.273C297.042 297.992 297.863 300.629 297.863 304.184Z" fill="white"/>
</g>
<defs>
<clipPath id="clip0">
<rect width="512" height="512" fill="white"/>
</clipPath>
</defs>
</svg>
