<svg width="512" height="512" viewBox="0 0 512 512" fill="none" xmlns="http://www.w3.org/2000/svg">
<g clip-path="url(#clip0)">
<path d="M95.5 485V433L96 239.5V25C101.6 5.4 118.333 0.5 126 0.5H352L479 128V330V489C472.2 506.6 458.167 511.667 452 512C347 511.833 135.8 511.6 131 512C125 512.5 118 510.5 108 504.5C100 499.7 96.3333 489.5 95.5 485Z" fill="#E2E5E7"/>
<path d="M479 223V128L466 115H450.5L373.5 117L479 223Z" fill="#CAD1D8"/>
<path d="M352 98V0.5L478.5 128H384.5C360.1 126.4 352.667 107.333 352 98Z" fill="#B0B7BD"/>
<path d="M97 402V447.5L402 448C412.4 446.8 415.667 438.5 416 434.5V402H97Z" fill="#CAD1D8"/>
<rect x="32" y="240" width="384" height="192" rx="16" fill="#F15642"/>
<path d="M145.446 381H119.196C115.407 381 112.692 380.16 111.052 378.48C109.45 376.762 108.649 374.047 108.649 370.336V305.766C108.649 301.977 109.47 299.262 111.11 297.621C112.79 295.941 115.485 295.102 119.196 295.102H147.028C151.13 295.102 154.684 295.355 157.692 295.863C160.7 296.371 163.395 297.348 165.778 298.793C167.809 300.004 169.606 301.547 171.169 303.422C172.731 305.258 173.923 307.309 174.743 309.574C175.563 311.801 175.973 314.164 175.973 316.664C175.973 325.258 171.677 331.547 163.083 335.531C174.372 339.125 180.016 346.117 180.016 356.508C180.016 361.312 178.786 365.648 176.325 369.516C173.864 373.344 170.544 376.176 166.364 378.012C163.747 379.105 160.739 379.887 157.341 380.355C153.942 380.785 149.977 381 145.446 381ZM144.157 342.855H126.052V367.934H144.743C156.501 367.934 162.38 363.695 162.38 355.219C162.38 350.883 160.856 347.738 157.809 345.785C154.762 343.832 150.212 342.855 144.157 342.855ZM126.052 308.168V330.375H141.989C146.325 330.375 149.665 329.965 152.009 329.145C154.391 328.324 156.208 326.762 157.458 324.457C158.434 322.816 158.923 320.98 158.923 318.949C158.923 314.613 157.38 311.742 154.294 310.336C151.208 308.891 146.501 308.168 140.173 308.168H126.052ZM253.324 371.273L249.223 360.492H214.301L210.199 371.508C208.598 375.805 207.23 378.715 206.098 380.238C204.965 381.723 203.109 382.465 200.531 382.465C198.344 382.465 196.41 381.664 194.73 380.062C193.051 378.461 192.211 376.645 192.211 374.613C192.211 373.441 192.406 372.23 192.797 370.98C193.188 369.73 193.832 367.992 194.73 365.766L216.703 309.984C217.328 308.383 218.07 306.469 218.93 304.242C219.828 301.977 220.766 300.102 221.742 298.617C222.758 297.133 224.066 295.941 225.668 295.043C227.309 294.105 229.32 293.637 231.703 293.637C234.125 293.637 236.137 294.105 237.738 295.043C239.379 295.941 240.688 297.113 241.664 298.559C242.68 300.004 243.52 301.566 244.184 303.246C244.887 304.887 245.766 307.094 246.82 309.867L269.262 365.297C271.02 369.516 271.898 372.582 271.898 374.496C271.898 376.488 271.059 378.324 269.379 380.004C267.738 381.645 265.746 382.465 263.402 382.465C262.035 382.465 260.863 382.211 259.887 381.703C258.91 381.234 258.09 380.59 257.426 379.77C256.762 378.91 256.039 377.621 255.258 375.902C254.516 374.145 253.871 372.602 253.324 371.273ZM218.871 347.426H244.535L231.586 311.977L218.871 347.426ZM337.765 309.457H318.78V371.859C318.78 375.453 317.98 378.129 316.378 379.887C314.777 381.605 312.706 382.465 310.167 382.465C307.589 382.465 305.48 381.586 303.839 379.828C302.238 378.07 301.437 375.414 301.437 371.859V309.457H282.452C279.484 309.457 277.277 308.812 275.831 307.523C274.386 306.195 273.663 304.457 273.663 302.309C273.663 300.082 274.405 298.324 275.89 297.035C277.413 295.746 279.601 295.102 282.452 295.102H337.765C340.773 295.102 342.999 295.766 344.445 297.094C345.929 298.422 346.671 300.16 346.671 302.309C346.671 304.457 345.929 306.195 344.445 307.523C342.96 308.812 340.734 309.457 337.765 309.457Z" fill="white"/>
</g>
<defs>
<clipPath id="clip0">
<rect width="512" height="512" fill="white"/>
</clipPath>
</defs>
</svg>
