<svg width="512" height="512" viewBox="0 0 512 512" fill="none" xmlns="http://www.w3.org/2000/svg">
<g clip-path="url(#clip0)">
<path d="M95.5 485V433L96 239.5V25C101.6 5.4 118.333 0.5 126 0.5H352L479 128V330V489C472.2 506.6 458.167 511.667 452 512C347 511.833 135.8 511.6 131 512C125 512.5 118 510.5 108 504.5C100 499.7 96.3333 489.5 95.5 485Z" fill="#E2E5E7"/>
<path d="M479 223V128L466 115H450.5L373.5 117L479 223Z" fill="#CAD1D8"/>
<path d="M352 98V0.5L478.5 128H384.5C360.1 126.4 352.667 107.333 352 98Z" fill="#B0B7BD"/>
<path d="M97 402V447.5L402 448C412.4 446.8 415.667 438.5 416 434.5V402H97Z" fill="#CAD1D8"/>
<rect x="32" y="240" width="384" height="192" rx="16" fill="#F15642"/>
<path d="M154.177 381H127.927C124.137 381 121.423 380.16 119.782 378.48C118.18 376.762 117.38 374.047 117.38 370.336V305.766C117.38 301.977 118.2 299.262 119.841 297.621C121.52 295.941 124.216 295.102 127.927 295.102H155.759C159.86 295.102 163.415 295.355 166.423 295.863C169.43 296.371 172.126 297.348 174.509 298.793C176.54 300.004 178.337 301.547 179.899 303.422C181.462 305.258 182.653 307.309 183.473 309.574C184.294 311.801 184.704 314.164 184.704 316.664C184.704 325.258 180.407 331.547 171.813 335.531C183.102 339.125 188.747 346.117 188.747 356.508C188.747 361.312 187.516 365.648 185.055 369.516C182.595 373.344 179.274 376.176 175.095 378.012C172.477 379.105 169.47 379.887 166.071 380.355C162.673 380.785 158.708 381 154.177 381ZM152.887 342.855H134.782V367.934H153.473C165.231 367.934 171.11 363.695 171.11 355.219C171.11 350.883 169.587 347.738 166.54 345.785C163.493 343.832 158.942 342.855 152.887 342.855ZM134.782 308.168V330.375H150.72C155.055 330.375 158.395 329.965 160.739 329.145C163.122 328.324 164.938 326.762 166.188 324.457C167.165 322.816 167.653 320.98 167.653 318.949C167.653 314.613 166.11 311.742 163.024 310.336C159.938 308.891 155.231 308.168 148.903 308.168H134.782ZM212.367 371.859V304.184C212.367 300.668 213.168 298.031 214.77 296.273C216.371 294.516 218.441 293.637 220.98 293.637C223.598 293.637 225.707 294.516 227.309 296.273C228.949 297.992 229.77 300.629 229.77 304.184V371.859C229.77 375.414 228.949 378.07 227.309 379.828C225.707 381.586 223.598 382.465 220.98 382.465C218.48 382.465 216.41 381.586 214.77 379.828C213.168 378.031 212.367 375.375 212.367 371.859ZM279.757 304.066L313.214 354.691V303.598C313.214 300.277 313.917 297.797 315.323 296.156C316.769 294.477 318.702 293.637 321.124 293.637C323.624 293.637 325.597 294.477 327.042 296.156C328.488 297.797 329.21 300.277 329.21 303.598V371.156C329.21 378.695 326.085 382.465 319.835 382.465C318.273 382.465 316.866 382.23 315.616 381.762C314.366 381.332 313.195 380.629 312.101 379.652C311.007 378.676 309.991 377.543 309.054 376.254C308.116 374.926 307.179 373.578 306.241 372.211L273.605 322.172V372.504C273.605 375.785 272.843 378.266 271.32 379.945C269.796 381.625 267.843 382.465 265.46 382.465C262.999 382.465 261.027 381.625 259.542 379.945C258.058 378.227 257.316 375.746 257.316 372.504V306.234C257.316 303.422 257.628 301.215 258.253 299.613C258.995 297.855 260.226 296.43 261.945 295.336C263.663 294.203 265.519 293.637 267.511 293.637C269.073 293.637 270.402 293.891 271.495 294.398C272.628 294.906 273.605 295.59 274.425 296.449C275.284 297.309 276.144 298.422 277.003 299.789C277.902 301.156 278.82 302.582 279.757 304.066Z" fill="white"/>
</g>
<defs>
<clipPath id="clip0">
<rect width="512" height="512" fill="white"/>
</clipPath>
</defs>
</svg>
