<svg width="512" height="512" viewBox="0 0 512 512" fill="none" xmlns="http://www.w3.org/2000/svg">
<g clip-path="url(#clip0)">
<path d="M95.5 485V433L96 239.5V25C101.6 5.4 118.333 0.5 126 0.5H352L479 128V330V489C472.2 506.6 458.167 511.667 452 512C347 511.833 135.8 511.6 131 512C125 512.5 118 510.5 108 504.5C100 499.7 96.3333 489.5 95.5 485Z" fill="#E2E5E7"/>
<path d="M479 223V128L466 115H450.5L373.5 117L479 223Z" fill="#CAD1D8"/>
<path d="M352 98V0.5L478.5 128H384.5C360.1 126.4 352.667 107.333 352 98Z" fill="#B0B7BD"/>
<path d="M97 402V447.5L402 448C412.4 446.8 415.667 438.5 416 434.5V402H97Z" fill="#CAD1D8"/>
<rect x="32" y="240" width="384" height="192" rx="16" fill="#F15642"/>
<path d="M128.071 381H101.821C98.032 381 95.3172 380.16 93.6766 378.48C92.075 376.762 91.2742 374.047 91.2742 370.336V305.766C91.2742 301.977 92.0945 299.262 93.7352 297.621C95.4148 295.941 98.1102 295.102 101.821 295.102H129.653C133.755 295.102 137.309 295.355 140.317 295.863C143.325 296.371 146.02 297.348 148.403 298.793C150.434 300.004 152.231 301.547 153.794 303.422C155.356 305.258 156.548 307.309 157.368 309.574C158.188 311.801 158.598 314.164 158.598 316.664C158.598 325.258 154.302 331.547 145.708 335.531C156.997 339.125 162.641 346.117 162.641 356.508C162.641 361.312 161.411 365.648 158.95 369.516C156.489 373.344 153.169 376.176 148.989 378.012C146.372 379.105 143.364 379.887 139.966 380.355C136.567 380.785 132.602 381 128.071 381ZM126.782 342.855H108.677V367.934H127.368C139.126 367.934 145.005 363.695 145.005 355.219C145.005 350.883 143.481 347.738 140.434 345.785C137.387 343.832 132.837 342.855 126.782 342.855ZM108.677 308.168V330.375H124.614C128.95 330.375 132.29 329.965 134.634 329.145C137.016 328.324 138.833 326.762 140.083 324.457C141.059 322.816 141.548 320.98 141.548 318.949C141.548 314.613 140.005 311.742 136.919 310.336C133.833 308.891 129.126 308.168 122.798 308.168H108.677ZM214.562 368.051L200.793 313.324V372.621C200.793 375.902 200.051 378.363 198.566 380.004C197.121 381.645 195.188 382.465 192.766 382.465C190.422 382.465 188.508 381.664 187.023 380.062C185.539 378.422 184.797 375.941 184.797 372.621V304.652C184.797 300.902 185.773 298.383 187.727 297.094C189.68 295.766 192.316 295.102 195.637 295.102H201.027C204.27 295.102 206.613 295.395 208.059 295.98C209.543 296.566 210.637 297.621 211.34 299.145C212.043 300.668 212.844 303.148 213.742 306.586L226.223 353.637L238.703 306.586C239.602 303.148 240.402 300.668 241.105 299.145C241.809 297.621 242.883 296.566 244.328 295.98C245.812 295.395 248.176 295.102 251.418 295.102H256.809C260.129 295.102 262.766 295.766 264.719 297.094C266.672 298.383 267.648 300.902 267.648 304.652V372.621C267.648 375.902 266.906 378.363 265.422 380.004C263.977 381.645 262.023 382.465 259.562 382.465C257.258 382.465 255.363 381.645 253.879 380.004C252.395 378.363 251.652 375.902 251.652 372.621V313.324L237.883 368.051C236.984 371.605 236.242 374.223 235.656 375.902C235.109 377.543 234.074 379.047 232.551 380.414C231.027 381.781 228.918 382.465 226.223 382.465C224.191 382.465 222.473 382.016 221.066 381.117C219.66 380.258 218.566 379.145 217.785 377.777C217.004 376.41 216.379 374.906 215.91 373.266C215.48 371.586 215.031 369.848 214.562 368.051ZM326.659 347.543H310.722V371.859C310.722 375.336 309.902 377.973 308.261 379.77C306.62 381.566 304.55 382.465 302.05 382.465C299.433 382.465 297.323 381.586 295.722 379.828C294.12 378.031 293.32 375.414 293.32 371.977V305.766C293.32 301.938 294.198 299.203 295.956 297.562C297.714 295.922 300.507 295.102 304.335 295.102H326.659C333.261 295.102 338.339 295.609 341.894 296.625C345.409 297.602 348.437 299.223 350.976 301.488C353.554 303.754 355.507 306.527 356.835 309.809C358.163 313.09 358.827 316.781 358.827 320.883C358.827 329.633 356.132 336.273 350.741 340.805C345.351 345.297 337.323 347.543 326.659 347.543ZM322.441 308.168H310.722V334.418H322.441C326.542 334.418 329.96 333.988 332.695 333.129C335.468 332.27 337.577 330.863 339.023 328.91C340.468 326.957 341.191 324.398 341.191 321.234C341.191 317.445 340.077 314.359 337.851 311.977C335.351 309.438 330.214 308.168 322.441 308.168Z" fill="white"/>
</g>
<defs>
<clipPath id="clip0">
<rect width="512" height="512" fill="white"/>
</clipPath>
</defs>
</svg>
