<svg width="512" height="512" viewBox="0 0 512 512" fill="none" xmlns="http://www.w3.org/2000/svg">
<g clip-path="url(#clip0)">
<path d="M95.5 485V433L96 239.5V25C101.6 5.4 118.333 0.5 126 0.5H352L479 128V330V489C472.2 506.6 458.167 511.667 452 512C347 511.833 135.8 511.6 131 512C125 512.5 118 510.5 108 504.5C100 499.7 96.3333 489.5 95.5 485Z" fill="#E2E5E7"/>
<path d="M479 223V128L466 115H450.5L373.5 117L479 223Z" fill="#CAD1D8"/>
<path d="M352 98V0.5L478.5 128H384.5C360.1 126.4 352.667 107.333 352 98Z" fill="#B0B7BD"/>
<path d="M97 402V447.5L402 448C412.4 446.8 415.667 438.5 416 434.5V402H97Z" fill="#CAD1D8"/>
<rect x="32" y="240" width="384" height="192" rx="16" fill="#A066AA"/>
<path d="M261.645 353.871C261.645 356.605 260.961 359.574 259.594 362.777C258.266 365.941 256.156 369.066 253.266 372.152C250.375 375.199 246.684 377.68 242.191 379.594C237.699 381.508 232.465 382.465 226.488 382.465C221.957 382.465 217.836 382.035 214.125 381.176C210.414 380.316 207.035 378.988 203.988 377.191C200.98 375.355 198.207 372.953 195.668 369.984C193.402 367.289 191.469 364.281 189.867 360.961C188.266 357.602 187.055 354.027 186.234 350.238C185.453 346.449 185.062 342.426 185.062 338.168C185.062 331.254 186.059 325.062 188.051 319.594C190.082 314.125 192.973 309.457 196.723 305.59C200.473 301.684 204.867 298.715 209.906 296.684C214.945 294.652 220.316 293.637 226.02 293.637C232.973 293.637 239.164 295.023 244.594 297.797C250.023 300.57 254.184 304.008 257.074 308.109C259.965 312.172 261.41 316.02 261.41 319.652C261.41 321.645 260.707 323.402 259.301 324.926C257.895 326.449 256.195 327.211 254.203 327.211C251.977 327.211 250.297 326.684 249.164 325.629C248.07 324.574 246.84 322.758 245.473 320.18C243.207 315.922 240.531 312.738 237.445 310.629C234.398 308.52 230.629 307.465 226.137 307.465C218.988 307.465 213.285 310.18 209.027 315.609C204.809 321.039 202.699 328.754 202.699 338.754C202.699 345.434 203.637 351 205.512 355.453C207.387 359.867 210.043 363.168 213.48 365.355C216.918 367.543 220.941 368.637 225.551 368.637C230.551 368.637 234.77 367.406 238.207 364.945C241.684 362.445 244.301 358.793 246.059 353.988C246.801 351.723 247.719 349.887 248.812 348.48C249.906 347.035 251.664 346.312 254.086 346.312C256.156 346.312 257.934 347.035 259.418 348.48C260.902 349.926 261.645 351.723 261.645 353.871Z" fill="white"/>
</g>
<defs>
<clipPath id="clip0">
<rect width="512" height="512" fill="white"/>
</clipPath>
</defs>
</svg>
