<svg width="512" height="512" viewBox="0 0 512 512" fill="none" xmlns="http://www.w3.org/2000/svg">
<g clip-path="url(#clip0)">
<path d="M95.5 485V433L96 239.5V25C101.6 5.4 118.333 0.5 126 0.5H352L479 128V330V489C472.2 506.6 458.167 511.667 452 512C347 511.833 135.8 511.6 131 512C125 512.5 118 510.5 108 504.5C100 499.7 96.3333 489.5 95.5 485Z" fill="#E2E5E7"/>
<path d="M479 223V128L466 115H450.5L373.5 117L479 223Z" fill="#CAD1D8"/>
<path d="M352 98V0.5L478.5 128H384.5C360.1 126.4 352.667 107.333 352 98Z" fill="#B0B7BD"/>
<path d="M97 402V447.5L402 448C412.4 446.8 415.667 438.5 416 434.5V402H97Z" fill="#CAD1D8"/>
<rect x="32" y="240" width="384" height="192" rx="16" fill="#A066AA"/>
<path d="M166.977 353.871C166.977 356.605 166.294 359.574 164.927 362.777C163.598 365.941 161.489 369.066 158.598 372.152C155.708 375.199 152.016 377.68 147.524 379.594C143.032 381.508 137.798 382.465 131.821 382.465C127.29 382.465 123.169 382.035 119.458 381.176C115.747 380.316 112.368 378.988 109.321 377.191C106.313 375.355 103.54 372.953 101.001 369.984C98.7352 367.289 96.8016 364.281 95.2 360.961C93.5984 357.602 92.3875 354.027 91.5672 350.238C90.7859 346.449 90.3953 342.426 90.3953 338.168C90.3953 331.254 91.3914 325.062 93.3836 319.594C95.4148 314.125 98.3055 309.457 102.055 305.59C105.805 301.684 110.2 298.715 115.239 296.684C120.278 294.652 125.649 293.637 131.352 293.637C138.305 293.637 144.497 295.023 149.927 297.797C155.356 300.57 159.516 304.008 162.407 308.109C165.298 312.172 166.743 316.02 166.743 319.652C166.743 321.645 166.04 323.402 164.634 324.926C163.227 326.449 161.528 327.211 159.536 327.211C157.309 327.211 155.63 326.684 154.497 325.629C153.403 324.574 152.173 322.758 150.805 320.18C148.54 315.922 145.864 312.738 142.778 310.629C139.731 308.52 135.962 307.465 131.47 307.465C124.321 307.465 118.618 310.18 114.36 315.609C110.141 321.039 108.032 328.754 108.032 338.754C108.032 345.434 108.97 351 110.845 355.453C112.72 359.867 115.376 363.168 118.813 365.355C122.251 367.543 126.274 368.637 130.884 368.637C135.884 368.637 140.102 367.406 143.54 364.945C147.016 362.445 149.634 358.793 151.391 353.988C152.134 351.723 153.052 349.887 154.145 348.48C155.239 347.035 156.997 346.312 159.419 346.312C161.489 346.312 163.266 347.035 164.751 348.48C166.235 349.926 166.977 351.723 166.977 353.871ZM245.383 371.273L241.281 360.492H206.359L202.258 371.508C200.656 375.805 199.289 378.715 198.156 380.238C197.023 381.723 195.168 382.465 192.59 382.465C190.402 382.465 188.469 381.664 186.789 380.062C185.109 378.461 184.27 376.645 184.27 374.613C184.27 373.441 184.465 372.23 184.855 370.98C185.246 369.73 185.891 367.992 186.789 365.766L208.762 309.984C209.387 308.383 210.129 306.469 210.988 304.242C211.887 301.977 212.824 300.102 213.801 298.617C214.816 297.133 216.125 295.941 217.727 295.043C219.367 294.105 221.379 293.637 223.762 293.637C226.184 293.637 228.195 294.105 229.797 295.043C231.438 295.941 232.746 297.113 233.723 298.559C234.738 300.004 235.578 301.566 236.242 303.246C236.945 304.887 237.824 307.094 238.879 309.867L261.32 365.297C263.078 369.516 263.957 372.582 263.957 374.496C263.957 376.488 263.117 378.324 261.438 380.004C259.797 381.645 257.805 382.465 255.461 382.465C254.094 382.465 252.922 382.211 251.945 381.703C250.969 381.234 250.148 380.59 249.484 379.77C248.82 378.91 248.098 377.621 247.316 375.902C246.574 374.145 245.93 372.602 245.383 371.273ZM210.93 347.426H236.594L223.645 311.977L210.93 347.426ZM321.269 381H295.019C291.23 381 288.515 380.16 286.874 378.48C285.273 376.762 284.472 374.047 284.472 370.336V305.766C284.472 301.977 285.292 299.262 286.933 297.621C288.613 295.941 291.308 295.102 295.019 295.102H322.851C326.952 295.102 330.507 295.355 333.515 295.863C336.523 296.371 339.218 297.348 341.601 298.793C343.632 300.004 345.429 301.547 346.991 303.422C348.554 305.258 349.745 307.309 350.566 309.574C351.386 311.801 351.796 314.164 351.796 316.664C351.796 325.258 347.499 331.547 338.905 335.531C350.195 339.125 355.839 346.117 355.839 356.508C355.839 361.312 354.609 365.648 352.148 369.516C349.687 373.344 346.366 376.176 342.187 378.012C339.57 379.105 336.562 379.887 333.163 380.355C329.765 380.785 325.8 381 321.269 381ZM319.98 342.855H301.874V367.934H320.566C332.323 367.934 338.202 363.695 338.202 355.219C338.202 350.883 336.679 347.738 333.632 345.785C330.585 343.832 326.034 342.855 319.98 342.855ZM301.874 308.168V330.375H317.812C322.148 330.375 325.488 329.965 327.831 329.145C330.214 328.324 332.03 326.762 333.28 324.457C334.257 322.816 334.745 320.98 334.745 318.949C334.745 314.613 333.202 311.742 330.116 310.336C327.03 308.891 322.323 308.168 315.995 308.168H301.874Z" fill="white"/>
</g>
<defs>
<clipPath id="clip0">
<rect width="512" height="512" fill="white"/>
</clipPath>
</defs>
</svg>
