<svg width="512" height="512" viewBox="0 0 512 512" fill="none" xmlns="http://www.w3.org/2000/svg">
<g clip-path="url(#clip0)">
<path d="M95.5 485V433L96 239.5V25C101.6 5.4 118.333 0.5 126 0.5H352L479 128V330V489C472.2 506.6 458.167 511.667 452 512C347 511.833 135.8 511.6 131 512C125 512.5 118 510.5 108 504.5C100 499.7 96.3333 489.5 95.5 485Z" fill="#E2E5E7"/>
<path d="M479 223V128L466 115H450.5L373.5 117L479 223Z" fill="#CAD1D8"/>
<path d="M352 98V0.5L478.5 128H384.5C360.1 126.4 352.667 107.333 352 98Z" fill="#B0B7BD"/>
<path d="M97 402V447.5L402 448C412.4 446.8 415.667 438.5 416 434.5V402H97Z" fill="#CAD1D8"/>
<rect x="32" y="240" width="384" height="192" rx="16" fill="#A066AA"/>
<path d="M165.747 353.871C165.747 356.605 165.063 359.574 163.696 362.777C162.368 365.941 160.259 369.066 157.368 372.152C154.477 375.199 150.786 377.68 146.294 379.594C141.802 381.508 136.567 382.465 130.591 382.465C126.059 382.465 121.938 382.035 118.227 381.176C114.516 380.316 111.137 378.988 108.091 377.191C105.083 375.355 102.309 372.953 99.7703 369.984C97.5047 367.289 95.5711 364.281 93.9695 360.961C92.368 357.602 91.157 354.027 90.3367 350.238C89.5555 346.449 89.1648 342.426 89.1648 338.168C89.1648 331.254 90.1609 325.062 92.1531 319.594C94.1844 314.125 97.075 309.457 100.825 305.59C104.575 301.684 108.97 298.715 114.009 296.684C119.048 294.652 124.419 293.637 130.122 293.637C137.075 293.637 143.266 295.023 148.696 297.797C154.126 300.57 158.286 304.008 161.177 308.109C164.067 312.172 165.512 316.02 165.512 319.652C165.512 321.645 164.809 323.402 163.403 324.926C161.997 326.449 160.298 327.211 158.305 327.211C156.079 327.211 154.399 326.684 153.266 325.629C152.173 324.574 150.942 322.758 149.575 320.18C147.309 315.922 144.634 312.738 141.548 310.629C138.501 308.52 134.731 307.465 130.239 307.465C123.091 307.465 117.387 310.18 113.13 315.609C108.911 321.039 106.802 328.754 106.802 338.754C106.802 345.434 107.739 351 109.614 355.453C111.489 359.867 114.145 363.168 117.583 365.355C121.02 367.543 125.044 368.637 129.653 368.637C134.653 368.637 138.872 367.406 142.309 364.945C145.786 362.445 148.403 358.793 150.161 353.988C150.903 351.723 151.821 349.887 152.915 348.48C154.009 347.035 155.766 346.312 158.188 346.312C160.259 346.312 162.036 347.035 163.52 348.48C165.005 349.926 165.747 351.723 165.747 353.871ZM244.152 371.273L240.051 360.492H205.129L201.027 371.508C199.426 375.805 198.059 378.715 196.926 380.238C195.793 381.723 193.938 382.465 191.359 382.465C189.172 382.465 187.238 381.664 185.559 380.062C183.879 378.461 183.039 376.645 183.039 374.613C183.039 373.441 183.234 372.23 183.625 370.98C184.016 369.73 184.66 367.992 185.559 365.766L207.531 309.984C208.156 308.383 208.898 306.469 209.758 304.242C210.656 301.977 211.594 300.102 212.57 298.617C213.586 297.133 214.895 295.941 216.496 295.043C218.137 294.105 220.148 293.637 222.531 293.637C224.953 293.637 226.965 294.105 228.566 295.043C230.207 295.941 231.516 297.113 232.492 298.559C233.508 300.004 234.348 301.566 235.012 303.246C235.715 304.887 236.594 307.094 237.648 309.867L260.09 365.297C261.848 369.516 262.727 372.582 262.727 374.496C262.727 376.488 261.887 378.324 260.207 380.004C258.566 381.645 256.574 382.465 254.23 382.465C252.863 382.465 251.691 382.211 250.715 381.703C249.738 381.234 248.918 380.59 248.254 379.77C247.59 378.91 246.867 377.621 246.086 375.902C245.344 374.145 244.699 372.602 244.152 371.273ZM209.699 347.426H235.363L222.414 311.977L209.699 347.426ZM294.14 295.102H316.816C322.714 295.102 327.773 295.648 331.991 296.742C336.21 297.836 340.038 299.887 343.476 302.895C352.421 310.551 356.894 322.191 356.894 337.816C356.894 342.973 356.445 347.68 355.546 351.938C354.648 356.195 353.261 360.043 351.386 363.48C349.511 366.879 347.109 369.926 344.179 372.621C341.874 374.691 339.355 376.352 336.62 377.602C333.886 378.852 330.937 379.73 327.773 380.238C324.648 380.746 321.113 381 317.167 381H294.491C291.327 381 288.945 380.531 287.343 379.594C285.741 378.617 284.687 377.27 284.179 375.551C283.71 373.793 283.476 371.527 283.476 368.754V305.766C283.476 302.016 284.316 299.301 285.995 297.621C287.675 295.941 290.39 295.102 294.14 295.102ZM300.878 308.871V367.172H314.062C316.952 367.172 319.218 367.094 320.859 366.938C322.499 366.781 324.198 366.391 325.956 365.766C327.714 365.141 329.238 364.262 330.527 363.129C336.347 358.207 339.257 349.73 339.257 337.699C339.257 329.223 337.968 322.875 335.39 318.656C332.851 314.438 329.706 311.762 325.956 310.629C322.206 309.457 317.675 308.871 312.363 308.871H300.878Z" fill="white"/>
</g>
<defs>
<clipPath id="clip0">
<rect width="512" height="512" fill="white"/>
</clipPath>
</defs>
</svg>
