<svg width="512" height="512" viewBox="0 0 512 512" fill="none" xmlns="http://www.w3.org/2000/svg">
<g clip-path="url(#clip0)">
<path d="M95.5 485V433L96 239.5V25C101.6 5.4 118.333 0.5 126 0.5H352L479 128V330V489C472.2 506.6 458.167 511.667 452 512C347 511.833 135.8 511.6 131 512C125 512.5 118 510.5 108 504.5C100 499.7 96.3333 489.5 95.5 485Z" fill="#E2E5E7"/>
<path d="M479 223V128L466 115H450.5L373.5 117L479 223Z" fill="#CAD1D8"/>
<path d="M352 98V0.5L478.5 128H384.5C360.1 126.4 352.667 107.333 352 98Z" fill="#B0B7BD"/>
<path d="M97 402V447.5L402 448C412.4 446.8 415.667 438.5 416 434.5V402H97Z" fill="#CAD1D8"/>
<rect x="32" y="240" width="384" height="192" rx="16" fill="#A066AA"/>
<path d="M166.977 353.871C166.977 356.605 166.294 359.574 164.927 362.777C163.598 365.941 161.489 369.066 158.598 372.152C155.708 375.199 152.016 377.68 147.524 379.594C143.032 381.508 137.798 382.465 131.821 382.465C127.29 382.465 123.169 382.035 119.458 381.176C115.747 380.316 112.368 378.988 109.321 377.191C106.313 375.355 103.54 372.953 101.001 369.984C98.7352 367.289 96.8016 364.281 95.2 360.961C93.5984 357.602 92.3875 354.027 91.5672 350.238C90.7859 346.449 90.3953 342.426 90.3953 338.168C90.3953 331.254 91.3914 325.062 93.3836 319.594C95.4148 314.125 98.3055 309.457 102.055 305.59C105.805 301.684 110.2 298.715 115.239 296.684C120.278 294.652 125.649 293.637 131.352 293.637C138.305 293.637 144.497 295.023 149.927 297.797C155.356 300.57 159.516 304.008 162.407 308.109C165.298 312.172 166.743 316.02 166.743 319.652C166.743 321.645 166.04 323.402 164.634 324.926C163.227 326.449 161.528 327.211 159.536 327.211C157.309 327.211 155.63 326.684 154.497 325.629C153.403 324.574 152.173 322.758 150.805 320.18C148.54 315.922 145.864 312.738 142.778 310.629C139.731 308.52 135.962 307.465 131.47 307.465C124.321 307.465 118.618 310.18 114.36 315.609C110.141 321.039 108.032 328.754 108.032 338.754C108.032 345.434 108.97 351 110.845 355.453C112.72 359.867 115.376 363.168 118.813 365.355C122.251 367.543 126.274 368.637 130.884 368.637C135.884 368.637 140.102 367.406 143.54 364.945C147.016 362.445 149.634 358.793 151.391 353.988C152.134 351.723 153.052 349.887 154.145 348.48C155.239 347.035 156.997 346.312 159.419 346.312C161.489 346.312 163.266 347.035 164.751 348.48C166.235 349.926 166.977 351.723 166.977 353.871ZM227.102 381H200.852C197.062 381 194.348 380.16 192.707 378.48C191.105 376.762 190.305 374.047 190.305 370.336V305.766C190.305 301.977 191.125 299.262 192.766 297.621C194.445 295.941 197.141 295.102 200.852 295.102H228.684C232.785 295.102 236.34 295.355 239.348 295.863C242.355 296.371 245.051 297.348 247.434 298.793C249.465 300.004 251.262 301.547 252.824 303.422C254.387 305.258 255.578 307.309 256.398 309.574C257.219 311.801 257.629 314.164 257.629 316.664C257.629 325.258 253.332 331.547 244.738 335.531C256.027 339.125 261.672 346.117 261.672 356.508C261.672 361.312 260.441 365.648 257.98 369.516C255.52 373.344 252.199 376.176 248.02 378.012C245.402 379.105 242.395 379.887 238.996 380.355C235.598 380.785 231.633 381 227.102 381ZM225.812 342.855H207.707V367.934H226.398C238.156 367.934 244.035 363.695 244.035 355.219C244.035 350.883 242.512 347.738 239.465 345.785C236.418 343.832 231.867 342.855 225.812 342.855ZM207.707 308.168V330.375H223.645C227.98 330.375 231.32 329.965 233.664 329.145C236.047 328.324 237.863 326.762 239.113 324.457C240.09 322.816 240.578 320.98 240.578 318.949C240.578 314.613 239.035 311.742 235.949 310.336C232.863 308.891 228.156 308.168 221.828 308.168H207.707ZM307.968 344.262H301.874V371.859C301.874 375.492 301.073 378.168 299.472 379.887C297.87 381.605 295.78 382.465 293.202 382.465C290.429 382.465 288.28 381.566 286.757 379.77C285.234 377.973 284.472 375.336 284.472 371.859V305.766C284.472 302.016 285.312 299.301 286.991 297.621C288.671 295.941 291.386 295.102 295.136 295.102H323.437C327.343 295.102 330.683 295.277 333.456 295.629C336.23 295.941 338.73 296.605 340.956 297.621C343.652 298.754 346.034 300.375 348.105 302.484C350.175 304.594 351.738 307.055 352.792 309.867C353.886 312.641 354.433 315.59 354.433 318.715C354.433 325.121 352.616 330.238 348.984 334.066C345.39 337.895 339.921 340.609 332.577 342.211C335.663 343.852 338.613 346.273 341.425 349.477C344.238 352.68 346.738 356.098 348.925 359.73C351.152 363.324 352.87 366.586 354.081 369.516C355.331 372.406 355.956 374.398 355.956 375.492C355.956 376.625 355.585 377.758 354.843 378.891C354.14 379.984 353.163 380.844 351.913 381.469C350.663 382.133 349.218 382.465 347.577 382.465C345.624 382.465 343.984 381.996 342.655 381.059C341.327 380.16 340.175 379.008 339.198 377.602C338.261 376.195 336.972 374.125 335.331 371.391L328.359 359.789C325.859 355.531 323.613 352.289 321.62 350.062C319.667 347.836 317.675 346.312 315.644 345.492C313.613 344.672 311.054 344.262 307.968 344.262ZM317.929 308.168H301.874V331.781H317.46C321.64 331.781 325.155 331.43 328.007 330.727C330.859 329.984 333.027 328.754 334.511 327.035C336.034 325.277 336.796 322.875 336.796 319.828C336.796 317.445 336.191 315.355 334.98 313.559C333.769 311.723 332.089 310.355 329.941 309.457C327.909 308.598 323.905 308.168 317.929 308.168Z" fill="white"/>
</g>
<defs>
<clipPath id="clip0">
<rect width="512" height="512" fill="white"/>
</clipPath>
</defs>
</svg>
