<svg width="512" height="512" viewBox="0 0 512 512" fill="none" xmlns="http://www.w3.org/2000/svg">
<g clip-path="url(#clip0)">
<path d="M95.5 485V433L96 239.5V25C101.6 5.4 118.333 0.5 126 0.5H352L479 128V330V489C472.2 506.6 458.167 511.667 452 512C347 511.833 135.8 511.6 131 512C125 512.5 118 510.5 108 504.5C100 499.7 96.3333 489.5 95.5 485Z" fill="#E2E5E7"/>
<path d="M479 223V128L466 115H450.5L373.5 117L479 223Z" fill="#CAD1D8"/>
<path d="M352 98V0.5L478.5 128H384.5C360.1 126.4 352.667 107.333 352 98Z" fill="#B0B7BD"/>
<path d="M97 402V447.5L402 448C412.4 446.8 415.667 438.5 416 434.5V402H97Z" fill="#CAD1D8"/>
<rect x="10" y="240" width="384" height="192" rx="16" fill="#A066AA"/>
<path d="M144.747 352.871C144.747 355.605 144.063 358.574 142.696 361.777C141.368 364.941 139.259 368.066 136.368 371.152C133.477 374.199 129.786 376.68 125.294 378.594C120.802 380.508 115.567 381.465 109.591 381.465C105.059 381.465 100.938 381.035 97.2273 380.176C93.5164 379.316 90.1375 377.988 87.0906 376.191C84.0828 374.355 81.3094 371.953 78.7703 368.984C76.5047 366.289 74.5711 363.281 72.9695 359.961C71.368 356.602 70.157 353.027 69.3367 349.238C68.5555 345.449 68.1648 341.426 68.1648 337.168C68.1648 330.254 69.1609 324.062 71.1531 318.594C73.1844 313.125 76.075 308.457 79.825 304.59C83.575 300.684 87.9695 297.715 93.0086 295.684C98.0477 293.652 103.419 292.637 109.122 292.637C116.075 292.637 122.266 294.023 127.696 296.797C133.126 299.57 137.286 303.008 140.177 307.109C143.067 311.172 144.512 315.02 144.512 318.652C144.512 320.645 143.809 322.402 142.403 323.926C140.997 325.449 139.298 326.211 137.305 326.211C135.079 326.211 133.399 325.684 132.266 324.629C131.173 323.574 129.942 321.758 128.575 319.18C126.309 314.922 123.634 311.738 120.548 309.629C117.501 307.52 113.731 306.465 109.239 306.465C102.091 306.465 96.3875 309.18 92.1297 314.609C87.9109 320.039 85.8016 327.754 85.8016 337.754C85.8016 344.434 86.7391 350 88.6141 354.453C90.4891 358.867 93.1453 362.168 96.5828 364.355C100.02 366.543 104.044 367.637 108.653 367.637C113.653 367.637 117.872 366.406 121.309 363.945C124.786 361.445 127.403 357.793 129.161 352.988C129.903 350.723 130.821 348.887 131.915 347.48C133.009 346.035 134.766 345.312 137.188 345.312C139.259 345.312 141.036 346.035 142.52 347.48C144.005 348.926 144.747 350.723 144.747 352.871ZM178.973 294.102H201.648C207.547 294.102 212.605 294.648 216.824 295.742C221.043 296.836 224.871 298.887 228.309 301.895C237.254 309.551 241.727 321.191 241.727 336.816C241.727 341.973 241.277 346.68 240.379 350.938C239.48 355.195 238.094 359.043 236.219 362.48C234.344 365.879 231.941 368.926 229.012 371.621C226.707 373.691 224.188 375.352 221.453 376.602C218.719 377.852 215.77 378.73 212.605 379.238C209.48 379.746 205.945 380 202 380H179.324C176.16 380 173.777 379.531 172.176 378.594C170.574 377.617 169.52 376.27 169.012 374.551C168.543 372.793 168.309 370.527 168.309 367.754V304.766C168.309 301.016 169.148 298.301 170.828 296.621C172.508 294.941 175.223 294.102 178.973 294.102ZM185.711 307.871V366.172H198.895C201.785 366.172 204.051 366.094 205.691 365.938C207.332 365.781 209.031 365.391 210.789 364.766C212.547 364.141 214.07 363.262 215.359 362.129C221.18 357.207 224.09 348.73 224.09 336.699C224.09 328.223 222.801 321.875 220.223 317.656C217.684 313.438 214.539 310.762 210.789 309.629C207.039 308.457 202.508 307.871 197.195 307.871H185.711ZM288.198 343.262H282.105V370.859C282.105 374.492 281.304 377.168 279.702 378.887C278.101 380.605 276.011 381.465 273.433 381.465C270.659 381.465 268.511 380.566 266.988 378.77C265.464 376.973 264.702 374.336 264.702 370.859V304.766C264.702 301.016 265.542 298.301 267.222 296.621C268.902 294.941 271.616 294.102 275.366 294.102H303.667C307.573 294.102 310.913 294.277 313.687 294.629C316.46 294.941 318.96 295.605 321.187 296.621C323.882 297.754 326.265 299.375 328.335 301.484C330.405 303.594 331.968 306.055 333.023 308.867C334.116 311.641 334.663 314.59 334.663 317.715C334.663 324.121 332.847 329.238 329.214 333.066C325.62 336.895 320.152 339.609 312.808 341.211C315.894 342.852 318.843 345.273 321.655 348.477C324.468 351.68 326.968 355.098 329.155 358.73C331.382 362.324 333.101 365.586 334.312 368.516C335.562 371.406 336.187 373.398 336.187 374.492C336.187 375.625 335.816 376.758 335.073 377.891C334.37 378.984 333.394 379.844 332.144 380.469C330.894 381.133 329.448 381.465 327.808 381.465C325.855 381.465 324.214 380.996 322.886 380.059C321.558 379.16 320.405 378.008 319.429 376.602C318.491 375.195 317.202 373.125 315.562 370.391L308.589 358.789C306.089 354.531 303.843 351.289 301.851 349.062C299.898 346.836 297.905 345.312 295.874 344.492C293.843 343.672 291.284 343.262 288.198 343.262ZM298.159 307.168H282.105V330.781H297.691C301.87 330.781 305.386 330.43 308.238 329.727C311.089 328.984 313.257 327.754 314.741 326.035C316.265 324.277 317.027 321.875 317.027 318.828C317.027 316.445 316.421 314.355 315.21 312.559C313.999 310.723 312.32 309.355 310.171 308.457C308.14 307.598 304.136 307.168 298.159 307.168Z" fill="white"/>
</g>
<defs>
<clipPath id="clip0">
<rect width="512" height="512" fill="white"/>
</clipPath>
</defs>
</svg>
