<svg width="512" height="512" viewBox="0 0 512 512" fill="none" xmlns="http://www.w3.org/2000/svg">
<g clip-path="url(#clip0)">
<path d="M95.5 485V433L96 239.5V25C101.6 5.4 118.333 0.5 126 0.5H352L479 128V330V489C472.2 506.6 458.167 511.667 452 512C347 511.833 135.8 511.6 131 512C125 512.5 118 510.5 108 504.5C100 499.7 96.3333 489.5 95.5 485Z" fill="#E2E5E7"/>
<path d="M479 223V128L466 115H450.5L373.5 117L479 223Z" fill="#CAD1D8"/>
<path d="M352 98V0.5L478.5 128H384.5C360.1 126.4 352.667 107.333 352 98Z" fill="#B0B7BD"/>
<path d="M97 402V447.5L402 448C412.4 446.8 415.667 438.5 416 434.5V402H97Z" fill="#CAD1D8"/>
<rect x="32" y="240" width="384" height="192" rx="16" fill="#A066AA"/>
<path d="M171.641 353.871C171.641 356.605 170.958 359.574 169.591 362.777C168.262 365.941 166.153 369.066 163.262 372.152C160.372 375.199 156.68 377.68 152.188 379.594C147.696 381.508 142.462 382.465 136.485 382.465C131.954 382.465 127.833 382.035 124.122 381.176C120.411 380.316 117.032 378.988 113.985 377.191C110.977 375.355 108.204 372.953 105.665 369.984C103.399 367.289 101.466 364.281 99.8641 360.961C98.2625 357.602 97.0516 354.027 96.2312 350.238C95.45 346.449 95.0594 342.426 95.0594 338.168C95.0594 331.254 96.0555 325.062 98.0477 319.594C100.079 314.125 102.97 309.457 106.72 305.59C110.47 301.684 114.864 298.715 119.903 296.684C124.942 294.652 130.313 293.637 136.016 293.637C142.97 293.637 149.161 295.023 154.591 297.797C160.02 300.57 164.18 304.008 167.071 308.109C169.962 312.172 171.407 316.02 171.407 319.652C171.407 321.645 170.704 323.402 169.298 324.926C167.891 326.449 166.192 327.211 164.2 327.211C161.973 327.211 160.294 326.684 159.161 325.629C158.067 324.574 156.837 322.758 155.47 320.18C153.204 315.922 150.528 312.738 147.442 310.629C144.395 308.52 140.626 307.465 136.134 307.465C128.985 307.465 123.282 310.18 119.024 315.609C114.805 321.039 112.696 328.754 112.696 338.754C112.696 345.434 113.634 351 115.509 355.453C117.384 359.867 120.04 363.168 123.477 365.355C126.915 367.543 130.938 368.637 135.548 368.637C140.548 368.637 144.766 367.406 148.204 364.945C151.68 362.445 154.298 358.793 156.055 353.988C156.798 351.723 157.716 349.887 158.809 348.48C159.903 347.035 161.661 346.312 164.083 346.312C166.153 346.312 167.93 347.035 169.415 348.48C170.899 349.926 171.641 351.723 171.641 353.871ZM251.688 308.52H212.488V329.613H248.582C251.238 329.613 253.211 330.219 254.5 331.43C255.828 332.602 256.492 334.164 256.492 336.117C256.492 338.07 255.848 339.672 254.559 340.922C253.27 342.133 251.277 342.738 248.582 342.738H212.488V367.172H253.035C255.77 367.172 257.82 367.816 259.188 369.105C260.594 370.355 261.297 372.035 261.297 374.145C261.297 376.176 260.594 377.836 259.188 379.125C257.82 380.375 255.77 381 253.035 381H205.75C201.961 381 199.227 380.16 197.547 378.48C195.906 376.801 195.086 374.086 195.086 370.336V305.766C195.086 303.266 195.457 301.234 196.199 299.672C196.941 298.07 198.094 296.918 199.656 296.215C201.258 295.473 203.289 295.102 205.75 295.102H251.688C254.461 295.102 256.512 295.727 257.84 296.977C259.207 298.188 259.891 299.789 259.891 301.781C259.891 303.812 259.207 305.453 257.84 306.703C256.512 307.914 254.461 308.52 251.688 308.52ZM306.304 344.262H300.21V371.859C300.21 375.492 299.409 378.168 297.808 379.887C296.206 381.605 294.116 382.465 291.538 382.465C288.765 382.465 286.616 381.566 285.093 379.77C283.57 377.973 282.808 375.336 282.808 371.859V305.766C282.808 302.016 283.648 299.301 285.327 297.621C287.007 295.941 289.722 295.102 293.472 295.102H321.773C325.679 295.102 329.019 295.277 331.792 295.629C334.566 295.941 337.066 296.605 339.292 297.621C341.988 298.754 344.37 300.375 346.441 302.484C348.511 304.594 350.073 307.055 351.128 309.867C352.222 312.641 352.769 315.59 352.769 318.715C352.769 325.121 350.952 330.238 347.32 334.066C343.726 337.895 338.257 340.609 330.913 342.211C333.999 343.852 336.948 346.273 339.761 349.477C342.573 352.68 345.073 356.098 347.261 359.73C349.488 363.324 351.206 366.586 352.417 369.516C353.667 372.406 354.292 374.398 354.292 375.492C354.292 376.625 353.921 377.758 353.179 378.891C352.476 379.984 351.499 380.844 350.249 381.469C348.999 382.133 347.554 382.465 345.913 382.465C343.96 382.465 342.32 381.996 340.991 381.059C339.663 380.16 338.511 379.008 337.534 377.602C336.597 376.195 335.308 374.125 333.667 371.391L326.695 359.789C324.195 355.531 321.948 352.289 319.956 350.062C318.003 347.836 316.011 346.312 313.98 345.492C311.948 344.672 309.39 344.262 306.304 344.262ZM316.265 308.168H300.21V331.781H315.796C319.976 331.781 323.491 331.43 326.343 330.727C329.195 329.984 331.363 328.754 332.847 327.035C334.37 325.277 335.132 322.875 335.132 319.828C335.132 317.445 334.527 315.355 333.316 313.559C332.105 311.723 330.425 310.355 328.277 309.457C326.245 308.598 322.241 308.168 316.265 308.168Z" fill="white"/>
</g>
<defs>
<clipPath id="clip0">
<rect width="512" height="512" fill="white"/>
</clipPath>
</defs>
</svg>
