<svg width="512" height="512" viewBox="0 0 512 512" fill="none" xmlns="http://www.w3.org/2000/svg">
<g clip-path="url(#clip0)">
<path d="M95.5 485V433L96 239.5V25C101.6 5.4 118.333 0.5 126 0.5H352L479 128V330V489C472.2 506.6 458.167 511.667 452 512C347 511.833 135.8 511.6 131 512C125 512.5 118 510.5 108 504.5C100 499.7 96.3333 489.5 95.5 485Z" fill="#E2E5E7"/>
<path d="M479 223V128L466 115H450.5L373.5 117L479 223Z" fill="#CAD1D8"/>
<path d="M352 98V0.5L478.5 128H384.5C360.1 126.4 352.667 107.333 352 98Z" fill="#B0B7BD"/>
<path d="M97 402V447.5L402 448C412.4 446.8 415.667 438.5 416 434.5V402H97Z" fill="#CAD1D8"/>
<rect x="32" y="240" width="384" height="192" rx="16" fill="#A066AA"/>
<path d="M170.055 353.871C170.055 356.605 169.372 359.574 168.005 362.777C166.677 365.941 164.567 369.066 161.677 372.152C158.786 375.199 155.095 377.68 150.602 379.594C146.11 381.508 140.876 382.465 134.899 382.465C130.368 382.465 126.247 382.035 122.536 381.176C118.825 380.316 115.446 378.988 112.399 377.191C109.391 375.355 106.618 372.953 104.079 369.984C101.813 367.289 99.8797 364.281 98.2781 360.961C96.6766 357.602 95.4656 354.027 94.6453 350.238C93.8641 346.449 93.4734 342.426 93.4734 338.168C93.4734 331.254 94.4695 325.062 96.4617 319.594C98.493 314.125 101.384 309.457 105.134 305.59C108.884 301.684 113.278 298.715 118.317 296.684C123.356 294.652 128.727 293.637 134.43 293.637C141.384 293.637 147.575 295.023 153.005 297.797C158.434 300.57 162.595 304.008 165.485 308.109C168.376 312.172 169.821 316.02 169.821 319.652C169.821 321.645 169.118 323.402 167.712 324.926C166.305 326.449 164.606 327.211 162.614 327.211C160.387 327.211 158.708 326.684 157.575 325.629C156.481 324.574 155.251 322.758 153.884 320.18C151.618 315.922 148.942 312.738 145.856 310.629C142.809 308.52 139.04 307.465 134.548 307.465C127.399 307.465 121.696 310.18 117.438 315.609C113.22 321.039 111.11 328.754 111.11 338.754C111.11 345.434 112.048 351 113.923 355.453C115.798 359.867 118.454 363.168 121.891 365.355C125.329 367.543 129.352 368.637 133.962 368.637C138.962 368.637 143.18 367.406 146.618 364.945C150.095 362.445 152.712 358.793 154.47 353.988C155.212 351.723 156.13 349.887 157.223 348.48C158.317 347.035 160.075 346.312 162.497 346.312C164.567 346.312 166.345 347.035 167.829 348.48C169.313 349.926 170.055 351.723 170.055 353.871ZM244.828 308.52H210.551V330.492H239.203C241.859 330.492 243.832 331.098 245.121 332.309C246.449 333.48 247.113 335.062 247.113 337.055C247.113 339.047 246.449 340.629 245.121 341.801C243.793 342.973 241.82 343.559 239.203 343.559H210.551V371.859C210.551 375.453 209.73 378.129 208.09 379.887C206.488 381.605 204.418 382.465 201.879 382.465C199.301 382.465 197.191 381.586 195.551 379.828C193.949 378.07 193.148 375.414 193.148 371.859V305.766C193.148 303.266 193.52 301.234 194.262 299.672C195.004 298.07 196.156 296.918 197.719 296.215C199.32 295.473 201.352 295.102 203.812 295.102H244.828C247.602 295.102 249.652 295.727 250.98 296.977C252.348 298.188 253.031 299.789 253.031 301.781C253.031 303.812 252.348 305.453 250.98 306.703C249.652 307.914 247.602 308.52 244.828 308.52ZM352.296 346.078V362.543C352.296 364.73 352.081 366.488 351.652 367.816C351.222 369.105 350.421 370.277 349.249 371.332C348.116 372.387 346.652 373.402 344.855 374.379C339.659 377.191 334.659 379.242 329.855 380.531C325.05 381.82 319.816 382.465 314.152 382.465C307.55 382.465 301.534 381.449 296.105 379.418C290.675 377.387 286.046 374.438 282.218 370.57C278.39 366.703 275.441 362.016 273.37 356.508C271.339 351 270.323 344.848 270.323 338.051C270.323 331.371 271.32 325.258 273.312 319.711C275.304 314.164 278.234 309.457 282.101 305.59C285.968 301.723 290.675 298.773 296.222 296.742C301.769 294.672 308.058 293.637 315.089 293.637C320.87 293.637 325.988 294.418 330.441 295.98C334.894 297.504 338.507 299.438 341.28 301.781C344.054 304.125 346.144 306.605 347.55 309.223C348.956 311.84 349.659 314.164 349.659 316.195C349.659 318.383 348.839 320.258 347.198 321.82C345.597 323.344 343.663 324.105 341.398 324.105C340.148 324.105 338.937 323.812 337.765 323.227C336.632 322.641 335.675 321.82 334.894 320.766C332.745 317.406 330.929 314.867 329.445 313.148C327.96 311.43 325.948 309.984 323.409 308.812C320.909 307.641 317.706 307.055 313.8 307.055C309.777 307.055 306.183 307.758 303.019 309.164C299.855 310.531 297.14 312.543 294.874 315.199C292.648 317.816 290.929 321.039 289.718 324.867C288.546 328.695 287.96 332.934 287.96 337.582C287.96 347.66 290.265 355.414 294.874 360.844C299.523 366.273 305.988 368.988 314.269 368.988C318.292 368.988 322.062 368.461 325.577 367.406C329.132 366.352 332.726 364.848 336.359 362.895V348.949H322.882C319.64 348.949 317.179 348.461 315.499 347.484C313.859 346.508 313.038 344.848 313.038 342.504C313.038 340.59 313.722 339.008 315.089 337.758C316.495 336.508 318.39 335.883 320.773 335.883H340.519C342.941 335.883 344.991 336.098 346.671 336.527C348.351 336.957 349.698 337.914 350.714 339.398C351.769 340.883 352.296 343.109 352.296 346.078Z" fill="white"/>
</g>
<defs>
<clipPath id="clip0">
<rect width="512" height="512" fill="white"/>
</clipPath>
</defs>
</svg>
