<svg width="512" height="512" viewBox="0 0 512 512" fill="none" xmlns="http://www.w3.org/2000/svg">
<g clip-path="url(#clip0)">
<path d="M95.5 485V433L96 239.5V25C101.6 5.4 118.333 0.5 126 0.5H352L479 128V330V489C472.2 506.6 458.167 511.667 452 512C347 511.833 135.8 511.6 131 512C125 512.5 118 510.5 108 504.5C100 499.7 96.3333 489.5 95.5 485Z" fill="#E2E5E7"/>
<path d="M479 223V128L466 115H450.5L373.5 117L479 223Z" fill="#CAD1D8"/>
<path d="M352 98V0.5L478.5 128H384.5C360.1 126.4 352.667 107.333 352 98Z" fill="#B0B7BD"/>
<path d="M97 402V447.5L402 448C412.4 446.8 415.667 438.5 416 434.5V402H97Z" fill="#CAD1D8"/>
<rect x="32" y="240" width="384" height="192" rx="16" fill="#A066AA"/>
<path d="M167.595 353.871C167.595 356.605 166.911 359.574 165.544 362.777C164.216 365.941 162.106 369.066 159.216 372.152C156.325 375.199 152.634 377.68 148.141 379.594C143.649 381.508 138.415 382.465 132.438 382.465C127.907 382.465 123.786 382.035 120.075 381.176C116.364 380.316 112.985 378.988 109.938 377.191C106.93 375.355 104.157 372.953 101.618 369.984C99.3523 367.289 97.4187 364.281 95.8172 360.961C94.2156 357.602 93.0047 354.027 92.1844 350.238C91.4031 346.449 91.0125 342.426 91.0125 338.168C91.0125 331.254 92.0086 325.062 94.0008 319.594C96.032 314.125 98.9227 309.457 102.673 305.59C106.423 301.684 110.817 298.715 115.856 296.684C120.895 294.652 126.266 293.637 131.97 293.637C138.923 293.637 145.114 295.023 150.544 297.797C155.973 300.57 160.134 304.008 163.024 308.109C165.915 312.172 167.36 316.02 167.36 319.652C167.36 321.645 166.657 323.402 165.251 324.926C163.845 326.449 162.145 327.211 160.153 327.211C157.927 327.211 156.247 326.684 155.114 325.629C154.02 324.574 152.79 322.758 151.423 320.18C149.157 315.922 146.481 312.738 143.395 310.629C140.348 308.52 136.579 307.465 132.087 307.465C124.938 307.465 119.235 310.18 114.977 315.609C110.759 321.039 108.649 328.754 108.649 338.754C108.649 345.434 109.587 351 111.462 355.453C113.337 359.867 115.993 363.168 119.43 365.355C122.868 367.543 126.891 368.637 131.501 368.637C136.501 368.637 140.72 367.406 144.157 364.945C147.634 362.445 150.251 358.793 152.009 353.988C152.751 351.723 153.669 349.887 154.762 348.48C155.856 347.035 157.614 346.312 160.036 346.312C162.106 346.312 163.884 347.035 165.368 348.48C166.852 349.926 167.595 351.723 167.595 353.871ZM242.367 308.52H208.09V330.492H236.742C239.398 330.492 241.371 331.098 242.66 332.309C243.988 333.48 244.652 335.062 244.652 337.055C244.652 339.047 243.988 340.629 242.66 341.801C241.332 342.973 239.359 343.559 236.742 343.559H208.09V371.859C208.09 375.453 207.27 378.129 205.629 379.887C204.027 381.605 201.957 382.465 199.418 382.465C196.84 382.465 194.73 381.586 193.09 379.828C191.488 378.07 190.688 375.414 190.688 371.859V305.766C190.688 303.266 191.059 301.234 191.801 299.672C192.543 298.07 193.695 296.918 195.258 296.215C196.859 295.473 198.891 295.102 201.352 295.102H242.367C245.141 295.102 247.191 295.727 248.52 296.977C249.887 298.188 250.57 299.789 250.57 301.781C250.57 303.812 249.887 305.453 248.52 306.703C247.191 307.914 245.141 308.52 242.367 308.52ZM300.382 368.051L286.613 313.324V372.621C286.613 375.902 285.87 378.363 284.386 380.004C282.941 381.645 281.007 382.465 278.585 382.465C276.241 382.465 274.327 381.664 272.843 380.062C271.359 378.422 270.616 375.941 270.616 372.621V304.652C270.616 300.902 271.593 298.383 273.546 297.094C275.499 295.766 278.136 295.102 281.456 295.102H286.847C290.089 295.102 292.433 295.395 293.878 295.98C295.363 296.566 296.456 297.621 297.159 299.145C297.863 300.668 298.663 303.148 299.562 306.586L312.042 353.637L324.523 306.586C325.421 303.148 326.222 300.668 326.925 299.145C327.628 297.621 328.702 296.566 330.148 295.98C331.632 295.395 333.995 295.102 337.238 295.102H342.628C345.948 295.102 348.585 295.766 350.538 297.094C352.491 298.383 353.468 300.902 353.468 304.652V372.621C353.468 375.902 352.726 378.363 351.241 380.004C349.796 381.645 347.843 382.465 345.382 382.465C343.077 382.465 341.183 381.645 339.698 380.004C338.214 378.363 337.472 375.902 337.472 372.621V313.324L323.702 368.051C322.804 371.605 322.062 374.223 321.476 375.902C320.929 377.543 319.894 379.047 318.37 380.414C316.847 381.781 314.738 382.465 312.042 382.465C310.011 382.465 308.292 382.016 306.886 381.117C305.48 380.258 304.386 379.145 303.605 377.777C302.823 376.41 302.198 374.906 301.73 373.266C301.3 371.586 300.851 369.848 300.382 368.051Z" fill="white"/>
</g>
<defs>
<clipPath id="clip0">
<rect width="512" height="512" fill="white"/>
</clipPath>
</defs>
</svg>
