<svg width="512" height="512" viewBox="0 0 512 512" fill="none" xmlns="http://www.w3.org/2000/svg">
<g clip-path="url(#clip0)">
<path d="M95.5 485V433L96 239.5V25C101.6 5.4 118.333 0.5 126 0.5H352L479 128V330V489C472.2 506.6 458.167 511.667 452 512C347 511.833 135.8 511.6 131 512C125 512.5 118 510.5 108 504.5C100 499.7 96.3333 489.5 95.5 485Z" fill="#E2E5E7"/>
<path d="M479 223V128L466 115H450.5L373.5 117L479 223Z" fill="#CAD1D8"/>
<path d="M352 98V0.5L478.5 128H384.5C360.1 126.4 352.667 107.333 352 98Z" fill="#B0B7BD"/>
<path d="M97 402V447.5L402 448C412.4 446.8 415.667 438.5 416 434.5V402H97Z" fill="#CAD1D8"/>
<rect x="32" y="240" width="384" height="192" rx="16" fill="#A066AA"/>
<path d="M196.016 353.871C196.016 356.605 195.333 359.574 193.966 362.777C192.637 365.941 190.528 369.066 187.637 372.152C184.747 375.199 181.055 377.68 176.563 379.594C172.071 381.508 166.837 382.465 160.86 382.465C156.329 382.465 152.208 382.035 148.497 381.176C144.786 380.316 141.407 378.988 138.36 377.191C135.352 375.355 132.579 372.953 130.04 369.984C127.774 367.289 125.841 364.281 124.239 360.961C122.637 357.602 121.427 354.027 120.606 350.238C119.825 346.449 119.434 342.426 119.434 338.168C119.434 331.254 120.43 325.062 122.423 319.594C124.454 314.125 127.345 309.457 131.095 305.59C134.845 301.684 139.239 298.715 144.278 296.684C149.317 294.652 154.688 293.637 160.391 293.637C167.345 293.637 173.536 295.023 178.966 297.797C184.395 300.57 188.555 304.008 191.446 308.109C194.337 312.172 195.782 316.02 195.782 319.652C195.782 321.645 195.079 323.402 193.673 324.926C192.266 326.449 190.567 327.211 188.575 327.211C186.348 327.211 184.669 326.684 183.536 325.629C182.442 324.574 181.212 322.758 179.845 320.18C177.579 315.922 174.903 312.738 171.817 310.629C168.77 308.52 165.001 307.465 160.509 307.465C153.36 307.465 147.657 310.18 143.399 315.609C139.18 321.039 137.071 328.754 137.071 338.754C137.071 345.434 138.009 351 139.884 355.453C141.759 359.867 144.415 363.168 147.852 365.355C151.29 367.543 155.313 368.637 159.923 368.637C164.923 368.637 169.141 367.406 172.579 364.945C176.055 362.445 178.673 358.793 180.43 353.988C181.173 351.723 182.091 349.887 183.184 348.48C184.278 347.035 186.036 346.312 188.458 346.312C190.528 346.312 192.305 347.035 193.79 348.48C195.274 349.926 196.016 351.723 196.016 353.871ZM297.918 346.078V362.543C297.918 364.73 297.703 366.488 297.273 367.816C296.844 369.105 296.043 370.277 294.871 371.332C293.738 372.387 292.273 373.402 290.477 374.379C285.281 377.191 280.281 379.242 275.477 380.531C270.672 381.82 265.438 382.465 259.773 382.465C253.172 382.465 247.156 381.449 241.727 379.418C236.297 377.387 231.668 374.438 227.84 370.57C224.012 366.703 221.062 362.016 218.992 356.508C216.961 351 215.945 344.848 215.945 338.051C215.945 331.371 216.941 325.258 218.934 319.711C220.926 314.164 223.855 309.457 227.723 305.59C231.59 301.723 236.297 298.773 241.844 296.742C247.391 294.672 253.68 293.637 260.711 293.637C266.492 293.637 271.609 294.418 276.062 295.98C280.516 297.504 284.129 299.438 286.902 301.781C289.676 304.125 291.766 306.605 293.172 309.223C294.578 311.84 295.281 314.164 295.281 316.195C295.281 318.383 294.461 320.258 292.82 321.82C291.219 323.344 289.285 324.105 287.02 324.105C285.77 324.105 284.559 323.812 283.387 323.227C282.254 322.641 281.297 321.82 280.516 320.766C278.367 317.406 276.551 314.867 275.066 313.148C273.582 311.43 271.57 309.984 269.031 308.812C266.531 307.641 263.328 307.055 259.422 307.055C255.398 307.055 251.805 307.758 248.641 309.164C245.477 310.531 242.762 312.543 240.496 315.199C238.27 317.816 236.551 321.039 235.34 324.867C234.168 328.695 233.582 332.934 233.582 337.582C233.582 347.66 235.887 355.414 240.496 360.844C245.145 366.273 251.609 368.988 259.891 368.988C263.914 368.988 267.684 368.461 271.199 367.406C274.754 366.352 278.348 364.848 281.98 362.895V348.949H268.504C265.262 348.949 262.801 348.461 261.121 347.484C259.48 346.508 258.66 344.848 258.66 342.504C258.66 340.59 259.344 339.008 260.711 337.758C262.117 336.508 264.012 335.883 266.395 335.883H286.141C288.562 335.883 290.613 336.098 292.293 336.527C293.973 336.957 295.32 337.914 296.336 339.398C297.391 340.883 297.918 343.109 297.918 346.078ZM323.003 371.859V304.184C323.003 300.668 323.804 298.031 325.405 296.273C327.007 294.516 329.077 293.637 331.616 293.637C334.234 293.637 336.343 294.516 337.945 296.273C339.585 297.992 340.405 300.629 340.405 304.184V371.859C340.405 375.414 339.585 378.07 337.945 379.828C336.343 381.586 334.234 382.465 331.616 382.465C329.116 382.465 327.046 381.586 325.405 379.828C323.804 378.031 323.003 375.375 323.003 371.859Z" fill="white"/>
</g>
<defs>
<clipPath id="clip0">
<rect width="512" height="512" fill="white"/>
</clipPath>
</defs>
</svg>
