<svg width="512" height="512" viewBox="0 0 512 512" fill="none" xmlns="http://www.w3.org/2000/svg">
<g clip-path="url(#clip0)">
<path d="M95.5 485V433L96 239.5V25C101.6 5.4 118.333 0.5 126 0.5H352L479 128V330V489C472.2 506.6 458.167 511.667 452 512C347 511.833 135.8 511.6 131 512C125 512.5 118 510.5 108 504.5C100 499.7 96.3333 489.5 95.5 485Z" fill="#E2E5E7"/>
<path d="M479 223V128L466 115H450.5L373.5 117L479 223Z" fill="#CAD1D8"/>
<path d="M352 98V0.5L478.5 128H384.5C360.1 126.4 352.667 107.333 352 98Z" fill="#B0B7BD"/>
<path d="M97 402V447.5L402 448C412.4 446.8 415.667 438.5 416 434.5V402H97Z" fill="#CAD1D8"/>
<rect x="32" y="240" width="384" height="192" rx="16" fill="#A066AA"/>
<path d="M115.733 349.523C115.733 351.688 115.191 354.038 114.109 356.574C113.058 359.079 111.388 361.553 109.099 363.996C106.811 366.408 103.888 368.371 100.332 369.887C96.7758 371.402 92.6319 372.16 87.9005 372.16C84.3132 372.16 81.0507 371.819 78.1129 371.139C75.1751 370.459 72.5001 369.407 70.088 367.985C67.7068 366.531 65.5112 364.63 63.5011 362.279C61.7074 360.146 60.1767 357.764 58.9088 355.136C57.6409 352.476 56.6822 349.647 56.0328 346.647C55.4143 343.647 55.1051 340.462 55.1051 337.091C55.1051 331.618 55.8936 326.716 57.4708 322.387C59.0789 318.057 61.3673 314.362 64.336 311.3C67.3048 308.208 70.7838 305.858 74.773 304.25C78.7623 302.641 83.0144 301.837 87.5294 301.837C93.0339 301.837 97.9355 302.935 102.234 305.131C106.532 307.326 109.826 310.048 112.114 313.295C114.403 316.511 115.547 319.557 115.547 322.433C115.547 324.01 114.99 325.402 113.877 326.608C112.764 327.814 111.419 328.417 109.841 328.417C108.079 328.417 106.749 328 105.852 327.165C104.986 326.33 104.012 324.892 102.93 322.851C101.136 319.48 99.0178 316.959 96.5748 315.29C94.1627 313.62 91.1785 312.785 87.6222 312.785C81.963 312.785 77.448 314.934 74.0772 319.232C70.7374 323.531 69.0675 329.639 69.0675 337.555C69.0675 342.843 69.8097 347.25 71.294 350.775C72.7784 354.27 74.8813 356.883 77.6026 358.615C80.324 360.347 83.5092 361.212 87.1583 361.212C91.1166 361.212 94.4565 360.238 97.1778 358.29C99.9301 356.311 102.002 353.419 103.394 349.616C103.981 347.822 104.708 346.369 105.574 345.255C106.44 344.111 107.831 343.539 109.749 343.539C111.388 343.539 112.795 344.111 113.97 345.255C115.145 346.4 115.733 347.822 115.733 349.523ZM147.791 310.187V359.682H175.716C177.943 359.682 179.644 360.223 180.819 361.305C182.025 362.388 182.628 363.748 182.628 365.387C182.628 367.057 182.04 368.418 180.865 369.469C179.69 370.49 177.974 371 175.716 371H142.457C139.457 371 137.292 370.335 135.963 369.005C134.664 367.676 134.014 365.526 134.014 362.558V310.187C134.014 307.404 134.633 305.316 135.87 303.925C137.138 302.533 138.792 301.837 140.833 301.837C142.905 301.837 144.575 302.533 145.843 303.925C147.142 305.285 147.791 307.373 147.791 310.187ZM240.106 363.3L236.859 354.765H209.213L205.966 363.485C204.698 366.887 203.616 369.191 202.719 370.397C201.822 371.572 200.353 372.16 198.312 372.16C196.58 372.16 195.049 371.526 193.72 370.258C192.39 368.99 191.725 367.552 191.725 365.944C191.725 365.016 191.88 364.057 192.189 363.068C192.498 362.078 193.008 360.702 193.72 358.939L211.115 314.779C211.61 313.511 212.197 311.996 212.877 310.233C213.589 308.44 214.331 306.955 215.104 305.78C215.908 304.605 216.944 303.662 218.212 302.951C219.511 302.208 221.103 301.837 222.99 301.837C224.907 301.837 226.5 302.208 227.768 302.951C229.066 303.662 230.102 304.59 230.875 305.734C231.68 306.878 232.344 308.115 232.87 309.445C233.427 310.744 234.123 312.491 234.958 314.687L252.724 358.568C254.115 361.908 254.811 364.336 254.811 365.851C254.811 367.428 254.146 368.882 252.816 370.211C251.518 371.51 249.94 372.16 248.085 372.16C247.003 372.16 246.075 371.959 245.302 371.557C244.529 371.186 243.879 370.675 243.354 370.026C242.828 369.346 242.256 368.325 241.637 366.964C241.05 365.573 240.539 364.351 240.106 363.3ZM212.831 344.42H233.148L222.897 316.356L212.831 344.42ZM322.82 350.59C322.82 354.703 321.753 358.398 319.619 361.676C317.516 364.954 314.424 367.521 310.341 369.376C306.259 371.232 301.42 372.16 295.822 372.16C289.112 372.16 283.576 370.892 279.216 368.356C276.124 366.531 273.603 364.104 271.655 361.073C269.738 358.012 268.779 355.043 268.779 352.167C268.779 350.497 269.351 349.075 270.495 347.899C271.67 346.693 273.155 346.09 274.948 346.09C276.402 346.09 277.623 346.554 278.613 347.482C279.633 348.41 280.499 349.786 281.211 351.61C282.077 353.775 283.004 355.584 283.994 357.038C285.014 358.491 286.437 359.697 288.261 360.656C290.086 361.583 292.483 362.047 295.451 362.047C299.533 362.047 302.842 361.104 305.378 359.218C307.945 357.3 309.228 354.919 309.228 352.074C309.228 349.817 308.532 347.992 307.141 346.601C305.78 345.178 304.002 344.096 301.806 343.354C299.642 342.611 296.735 341.823 293.086 340.988C288.2 339.844 284.102 338.514 280.793 336.999C277.515 335.452 274.902 333.365 272.954 330.736C271.036 328.077 270.078 324.783 270.078 320.856C270.078 317.114 271.098 313.79 273.139 310.883C275.18 307.976 278.134 305.749 281.999 304.203C285.865 302.626 290.411 301.837 295.637 301.837C299.812 301.837 303.414 302.363 306.445 303.415C309.507 304.435 312.042 305.811 314.052 307.543C316.063 309.244 317.531 311.037 318.459 312.924C319.387 314.81 319.851 316.65 319.851 318.444C319.851 320.083 319.263 321.567 318.088 322.897C316.944 324.196 315.506 324.845 313.774 324.845C312.197 324.845 310.991 324.459 310.156 323.686C309.352 322.882 308.471 321.583 307.512 319.789C306.275 317.222 304.791 315.228 303.059 313.805C301.327 312.352 298.544 311.625 294.709 311.625C291.153 311.625 288.277 312.414 286.081 313.991C283.917 315.537 282.834 317.408 282.834 319.604C282.834 320.964 283.205 322.139 283.947 323.129C284.69 324.118 285.71 324.969 287.009 325.68C288.308 326.391 289.622 326.948 290.952 327.35C292.282 327.752 294.477 328.34 297.539 329.113C301.373 330.01 304.837 330.999 307.929 332.082C311.053 333.164 313.697 334.478 315.862 336.024C318.057 337.571 319.758 339.534 320.964 341.916C322.201 344.266 322.82 347.157 322.82 350.59ZM392.359 350.59C392.359 354.703 391.292 358.398 389.158 361.676C387.055 364.954 383.963 367.521 379.881 369.376C375.799 371.232 370.959 372.16 365.362 372.16C358.651 372.16 353.116 370.892 348.755 368.356C345.663 366.531 343.142 364.104 341.194 361.073C339.277 358.012 338.318 355.043 338.318 352.167C338.318 350.497 338.89 349.075 340.035 347.899C341.21 346.693 342.694 346.09 344.488 346.09C345.941 346.09 347.163 346.554 348.152 347.482C349.173 348.41 350.039 349.786 350.75 351.61C351.616 353.775 352.544 355.584 353.533 357.038C354.554 358.491 355.976 359.697 357.801 360.656C359.625 361.583 362.022 362.047 364.991 362.047C369.073 362.047 372.382 361.104 374.917 359.218C377.484 357.3 378.767 354.919 378.767 352.074C378.767 349.817 378.072 347.992 376.68 346.601C375.319 345.178 373.541 344.096 371.346 343.354C369.181 342.611 366.274 341.823 362.625 340.988C357.739 339.844 353.641 338.514 350.332 336.999C347.054 335.452 344.441 333.365 342.493 330.736C340.576 328.077 339.617 324.783 339.617 320.856C339.617 317.114 340.638 313.79 342.679 310.883C344.72 307.976 347.673 305.749 351.538 304.203C355.404 302.626 359.95 301.837 365.176 301.837C369.351 301.837 372.954 302.363 375.984 303.415C379.046 304.435 381.582 305.811 383.592 307.543C385.602 309.244 387.071 311.037 387.998 312.924C388.926 314.81 389.39 316.65 389.39 318.444C389.39 320.083 388.802 321.567 387.627 322.897C386.483 324.196 385.045 324.845 383.313 324.845C381.736 324.845 380.53 324.459 379.695 323.686C378.891 322.882 378.01 321.583 377.051 319.789C375.814 317.222 374.33 315.228 372.598 313.805C370.866 312.352 368.083 311.625 364.248 311.625C360.692 311.625 357.816 312.414 355.621 313.991C353.456 315.537 352.373 317.408 352.373 319.604C352.373 320.964 352.745 322.139 353.487 323.129C354.229 324.118 355.249 324.969 356.548 325.68C357.847 326.391 359.161 326.948 360.491 327.35C361.821 327.752 364.017 328.34 367.078 329.113C370.913 330.01 374.376 330.999 377.469 332.082C380.592 333.164 383.236 334.478 385.401 336.024C387.596 337.571 389.297 339.534 390.503 341.916C391.74 344.266 392.359 347.157 392.359 350.59Z" fill="white"/>
</g>
<defs>
<clipPath id="clip0">
<rect width="512" height="512" fill="white"/>
</clipPath>
</defs>
</svg>
