<svg width="512" height="512" viewBox="0 0 512 512" fill="none" xmlns="http://www.w3.org/2000/svg">
<g clip-path="url(#clip0)">
<path d="M95.5 485V433L96 239.5V25C101.6 5.4 118.333 0.5 126 0.5H352L479 128V330V489C472.2 506.6 458.167 511.667 452 512C347 511.833 135.8 511.6 131 512C125 512.5 118 510.5 108 504.5C100 499.7 96.3333 489.5 95.5 485Z" fill="#E2E5E7"/>
<path d="M479 223V128L466 115H450.5L373.5 117L479 223Z" fill="#CAD1D8"/>
<path d="M352 98V0.5L478.5 128H384.5C360.1 126.4 352.667 107.333 352 98Z" fill="#B0B7BD"/>
<path d="M97 402V447.5L402 448C412.4 446.8 415.667 438.5 416 434.5V402H97Z" fill="#CAD1D8"/>
<rect x="32" y="240" width="384" height="192" rx="16" fill="#A066AA"/>
<path d="M164.845 353.871C164.845 356.605 164.161 359.574 162.794 362.777C161.466 365.941 159.356 369.066 156.466 372.152C153.575 375.199 149.884 377.68 145.391 379.594C140.899 381.508 135.665 382.465 129.688 382.465C125.157 382.465 121.036 382.035 117.325 381.176C113.614 380.316 110.235 378.988 107.188 377.191C104.18 375.355 101.407 372.953 98.868 369.984C96.6023 367.289 94.6687 364.281 93.0672 360.961C91.4656 357.602 90.2547 354.027 89.4344 350.238C88.6531 346.449 88.2625 342.426 88.2625 338.168C88.2625 331.254 89.2586 325.062 91.2508 319.594C93.282 314.125 96.1727 309.457 99.9227 305.59C103.673 301.684 108.067 298.715 113.106 296.684C118.145 294.652 123.516 293.637 129.22 293.637C136.173 293.637 142.364 295.023 147.794 297.797C153.223 300.57 157.384 304.008 160.274 308.109C163.165 312.172 164.61 316.02 164.61 319.652C164.61 321.645 163.907 323.402 162.501 324.926C161.095 326.449 159.395 327.211 157.403 327.211C155.177 327.211 153.497 326.684 152.364 325.629C151.27 324.574 150.04 322.758 148.673 320.18C146.407 315.922 143.731 312.738 140.645 310.629C137.598 308.52 133.829 307.465 129.337 307.465C122.188 307.465 116.485 310.18 112.227 315.609C108.009 321.039 105.899 328.754 105.899 338.754C105.899 345.434 106.837 351 108.712 355.453C110.587 359.867 113.243 363.168 116.68 365.355C120.118 367.543 124.141 368.637 128.751 368.637C133.751 368.637 137.97 367.406 141.407 364.945C144.884 362.445 147.501 358.793 149.259 353.988C150.001 351.723 150.919 349.887 152.012 348.48C153.106 347.035 154.864 346.312 157.286 346.312C159.356 346.312 161.134 347.035 162.618 348.48C164.102 349.926 164.845 351.723 164.845 353.871ZM226.082 293.637C234.988 293.637 242.625 295.453 248.992 299.086C255.398 302.68 260.242 307.816 263.523 314.496C266.805 321.137 268.445 328.949 268.445 337.934C268.445 344.574 267.547 350.609 265.75 356.039C263.953 361.469 261.258 366.176 257.664 370.16C254.07 374.145 249.656 377.191 244.422 379.301C239.188 381.41 233.191 382.465 226.434 382.465C219.715 382.465 213.699 381.391 208.387 379.242C203.074 377.055 198.641 373.988 195.086 370.043C191.531 366.098 188.836 361.352 187 355.805C185.203 350.258 184.305 344.262 184.305 337.816C184.305 331.215 185.242 325.16 187.117 319.652C189.031 314.145 191.785 309.457 195.379 305.59C198.973 301.723 203.348 298.773 208.504 296.742C213.66 294.672 219.52 293.637 226.082 293.637ZM250.809 337.816C250.809 331.527 249.793 326.078 247.762 321.469C245.73 316.859 242.82 313.383 239.031 311.039C235.281 308.656 230.965 307.465 226.082 307.465C222.605 307.465 219.383 308.129 216.414 309.457C213.484 310.746 210.945 312.641 208.797 315.141C206.688 317.641 205.008 320.844 203.758 324.75C202.547 328.617 201.941 332.973 201.941 337.816C201.941 342.699 202.547 347.113 203.758 351.059C205.008 355.004 206.746 358.285 208.973 360.902C211.238 363.48 213.816 365.414 216.707 366.703C219.637 367.992 222.84 368.637 226.316 368.637C230.77 368.637 234.852 367.523 238.562 365.297C242.312 363.07 245.281 359.633 247.469 354.984C249.695 350.336 250.809 344.613 250.809 337.816ZM320.132 368.051L306.363 313.324V372.621C306.363 375.902 305.62 378.363 304.136 380.004C302.691 381.645 300.757 382.465 298.335 382.465C295.991 382.465 294.077 381.664 292.593 380.062C291.109 378.422 290.366 375.941 290.366 372.621V304.652C290.366 300.902 291.343 298.383 293.296 297.094C295.249 295.766 297.886 295.102 301.206 295.102H306.597C309.839 295.102 312.183 295.395 313.628 295.98C315.113 296.566 316.206 297.621 316.909 299.145C317.613 300.668 318.413 303.148 319.312 306.586L331.792 353.637L344.273 306.586C345.171 303.148 345.972 300.668 346.675 299.145C347.378 297.621 348.452 296.566 349.898 295.98C351.382 295.395 353.745 295.102 356.988 295.102H362.378C365.698 295.102 368.335 295.766 370.288 297.094C372.241 298.383 373.218 300.902 373.218 304.652V372.621C373.218 375.902 372.476 378.363 370.991 380.004C369.546 381.645 367.593 382.465 365.132 382.465C362.827 382.465 360.933 381.645 359.448 380.004C357.964 378.363 357.222 375.902 357.222 372.621V313.324L343.452 368.051C342.554 371.605 341.812 374.223 341.226 375.902C340.679 377.543 339.644 379.047 338.12 380.414C336.597 381.781 334.488 382.465 331.792 382.465C329.761 382.465 328.042 382.016 326.636 381.117C325.23 380.258 324.136 379.145 323.355 377.777C322.573 376.41 321.948 374.906 321.48 373.266C321.05 371.586 320.601 369.848 320.132 368.051Z" fill="white"/>
</g>
<defs>
<clipPath id="clip0">
<rect width="512" height="512" fill="white"/>
</clipPath>
</defs>
</svg>
