<svg width="512" height="512" viewBox="0 0 512 512" fill="none" xmlns="http://www.w3.org/2000/svg">
<g clip-path="url(#clip0)">
<path d="M95.5 485V433L96 239.5V25C101.6 5.4 118.333 0.5 126 0.5H352L479 128V330V489C472.2 506.6 458.167 511.667 452 512C347 511.833 135.8 511.6 131 512C125 512.5 118 510.5 108 504.5C100 499.7 96.3333 489.5 95.5 485Z" fill="#E2E5E7"/>
<path d="M479 223V128L466 115H450.5L373.5 117L479 223Z" fill="#CAD1D8"/>
<path d="M352 98V0.5L478.5 128H384.5C360.1 126.4 352.667 107.333 352 98Z" fill="#B0B7BD"/>
<path d="M97 402V447.5L402 448C412.4 446.8 415.667 438.5 416 434.5V402H97Z" fill="#CAD1D8"/>
<rect x="32" y="240" width="384" height="192" rx="16" fill="#A066AA"/>
<path d="M177.055 353.871C177.055 356.605 176.372 359.574 175.005 362.777C173.677 365.941 171.567 369.066 168.677 372.152C165.786 375.199 162.095 377.68 157.602 379.594C153.11 381.508 147.876 382.465 141.899 382.465C137.368 382.465 133.247 382.035 129.536 381.176C125.825 380.316 122.446 378.988 119.399 377.191C116.391 375.355 113.618 372.953 111.079 369.984C108.813 367.289 106.88 364.281 105.278 360.961C103.677 357.602 102.466 354.027 101.645 350.238C100.864 346.449 100.473 342.426 100.473 338.168C100.473 331.254 101.47 325.062 103.462 319.594C105.493 314.125 108.384 309.457 112.134 305.59C115.884 301.684 120.278 298.715 125.317 296.684C130.356 294.652 135.727 293.637 141.43 293.637C148.384 293.637 154.575 295.023 160.005 297.797C165.434 300.57 169.595 304.008 172.485 308.109C175.376 312.172 176.821 316.02 176.821 319.652C176.821 321.645 176.118 323.402 174.712 324.926C173.305 326.449 171.606 327.211 169.614 327.211C167.387 327.211 165.708 326.684 164.575 325.629C163.481 324.574 162.251 322.758 160.884 320.18C158.618 315.922 155.942 312.738 152.856 310.629C149.809 308.52 146.04 307.465 141.548 307.465C134.399 307.465 128.696 310.18 124.438 315.609C120.22 321.039 118.11 328.754 118.11 338.754C118.11 345.434 119.048 351 120.923 355.453C122.798 359.867 125.454 363.168 128.891 365.355C132.329 367.543 136.352 368.637 140.962 368.637C145.962 368.637 150.18 367.406 153.618 364.945C157.095 362.445 159.712 358.793 161.47 353.988C162.212 351.723 163.13 349.887 164.223 348.48C165.317 347.035 167.075 346.312 169.497 346.312C171.567 346.312 173.345 347.035 174.829 348.48C176.313 349.926 177.055 351.723 177.055 353.871ZM233.84 347.543H217.902V371.859C217.902 375.336 217.082 377.973 215.441 379.77C213.801 381.566 211.73 382.465 209.23 382.465C206.613 382.465 204.504 381.586 202.902 379.828C201.301 378.031 200.5 375.414 200.5 371.977V305.766C200.5 301.938 201.379 299.203 203.137 297.562C204.895 295.922 207.688 295.102 211.516 295.102H233.84C240.441 295.102 245.52 295.609 249.074 296.625C252.59 297.602 255.617 299.223 258.156 301.488C260.734 303.754 262.688 306.527 264.016 309.809C265.344 313.09 266.008 316.781 266.008 320.883C266.008 329.633 263.312 336.273 257.922 340.805C252.531 345.297 244.504 347.543 233.84 347.543ZM229.621 308.168H217.902V334.418H229.621C233.723 334.418 237.141 333.988 239.875 333.129C242.648 332.27 244.758 330.863 246.203 328.91C247.648 326.957 248.371 324.398 248.371 321.234C248.371 317.445 247.258 314.359 245.031 311.977C242.531 309.438 237.395 308.168 229.621 308.168ZM305.39 304.184V366.703H340.663C343.476 366.703 345.624 367.387 347.109 368.754C348.632 370.121 349.394 371.84 349.394 373.91C349.394 376.02 348.652 377.738 347.167 379.066C345.683 380.355 343.515 381 340.663 381H298.652C294.863 381 292.128 380.16 290.448 378.48C288.808 376.801 287.988 374.086 287.988 370.336V304.184C287.988 300.668 288.769 298.031 290.331 296.273C291.933 294.516 294.023 293.637 296.601 293.637C299.218 293.637 301.327 294.516 302.929 296.273C304.57 297.992 305.39 300.629 305.39 304.184Z" fill="white"/>
</g>
<defs>
<clipPath id="clip0">
<rect width="512" height="512" fill="white"/>
</clipPath>
</defs>
</svg>
