<svg width="512" height="512" viewBox="0 0 512 512" fill="none" xmlns="http://www.w3.org/2000/svg">
<g clip-path="url(#clip0)">
<path d="M95.5 485V433L96 239.5V25C101.6 5.4 118.333 0.5 126 0.5H352L479 128V330V489C472.2 506.6 458.167 511.667 452 512C347 511.833 135.8 511.6 131 512C125 512.5 118 510.5 108 504.5C100 499.7 96.3333 489.5 95.5 485Z" fill="#E2E5E7"/>
<path d="M479 223V128L466 115H450.5L373.5 117L479 223Z" fill="#CAD1D8"/>
<path d="M352 98V0.5L478.5 128H384.5C360.1 126.4 352.667 107.333 352 98Z" fill="#B0B7BD"/>
<path d="M97 402V447.5L402 448C412.4 446.8 415.667 438.5 416 434.5V402H97Z" fill="#CAD1D8"/>
<rect x="32" y="240" width="384" height="192" rx="16" fill="#A066AA"/>
<path d="M173.805 353.871C173.805 356.605 173.122 359.574 171.755 362.777C170.427 365.941 168.317 369.066 165.427 372.152C162.536 375.199 158.845 377.68 154.352 379.594C149.86 381.508 144.626 382.465 138.649 382.465C134.118 382.465 129.997 382.035 126.286 381.176C122.575 380.316 119.196 378.988 116.149 377.191C113.141 375.355 110.368 372.953 107.829 369.984C105.563 367.289 103.63 364.281 102.028 360.961C100.427 357.602 99.2156 354.027 98.3953 350.238C97.6141 346.449 97.2234 342.426 97.2234 338.168C97.2234 331.254 98.2195 325.062 100.212 319.594C102.243 314.125 105.134 309.457 108.884 305.59C112.634 301.684 117.028 298.715 122.067 296.684C127.106 294.652 132.477 293.637 138.18 293.637C145.134 293.637 151.325 295.023 156.755 297.797C162.184 300.57 166.345 304.008 169.235 308.109C172.126 312.172 173.571 316.02 173.571 319.652C173.571 321.645 172.868 323.402 171.462 324.926C170.055 326.449 168.356 327.211 166.364 327.211C164.137 327.211 162.458 326.684 161.325 325.629C160.231 324.574 159.001 322.758 157.634 320.18C155.368 315.922 152.692 312.738 149.606 310.629C146.559 308.52 142.79 307.465 138.298 307.465C131.149 307.465 125.446 310.18 121.188 315.609C116.97 321.039 114.86 328.754 114.86 338.754C114.86 345.434 115.798 351 117.673 355.453C119.548 359.867 122.204 363.168 125.641 365.355C129.079 367.543 133.102 368.637 137.712 368.637C142.712 368.637 146.93 367.406 150.368 364.945C153.845 362.445 156.462 358.793 158.22 353.988C158.962 351.723 159.88 349.887 160.973 348.48C162.067 347.035 163.825 346.312 166.247 346.312C168.317 346.312 170.095 347.035 171.579 348.48C173.063 349.926 173.805 351.723 173.805 353.871ZM230.59 347.543H214.652V371.859C214.652 375.336 213.832 377.973 212.191 379.77C210.551 381.566 208.48 382.465 205.98 382.465C203.363 382.465 201.254 381.586 199.652 379.828C198.051 378.031 197.25 375.414 197.25 371.977V305.766C197.25 301.938 198.129 299.203 199.887 297.562C201.645 295.922 204.438 295.102 208.266 295.102H230.59C237.191 295.102 242.27 295.609 245.824 296.625C249.34 297.602 252.367 299.223 254.906 301.488C257.484 303.754 259.438 306.527 260.766 309.809C262.094 313.09 262.758 316.781 262.758 320.883C262.758 329.633 260.062 336.273 254.672 340.805C249.281 345.297 241.254 347.543 230.59 347.543ZM226.371 308.168H214.652V334.418H226.371C230.473 334.418 233.891 333.988 236.625 333.129C239.398 332.27 241.508 330.863 242.953 328.91C244.398 326.957 245.121 324.398 245.121 321.234C245.121 317.445 244.008 314.359 241.781 311.977C239.281 309.438 234.145 308.168 226.371 308.168ZM318.429 347.543H302.491V371.859C302.491 375.336 301.671 377.973 300.03 379.77C298.39 381.566 296.32 382.465 293.82 382.465C291.202 382.465 289.093 381.586 287.491 379.828C285.89 378.031 285.089 375.414 285.089 371.977V305.766C285.089 301.938 285.968 299.203 287.726 297.562C289.484 295.922 292.277 295.102 296.105 295.102H318.429C325.03 295.102 330.109 295.609 333.663 296.625C337.179 297.602 340.206 299.223 342.745 301.488C345.323 303.754 347.277 306.527 348.605 309.809C349.933 313.09 350.597 316.781 350.597 320.883C350.597 329.633 347.902 336.273 342.511 340.805C337.12 345.297 329.093 347.543 318.429 347.543ZM314.21 308.168H302.491V334.418H314.21C318.312 334.418 321.73 333.988 324.464 333.129C327.238 332.27 329.347 330.863 330.792 328.91C332.238 326.957 332.96 324.398 332.96 321.234C332.96 317.445 331.847 314.359 329.62 311.977C327.12 309.438 321.984 308.168 314.21 308.168Z" fill="white"/>
</g>
<defs>
<clipPath id="clip0">
<rect width="512" height="512" fill="white"/>
</clipPath>
</defs>
</svg>
