<svg width="512" height="512" viewBox="0 0 512 512" fill="none" xmlns="http://www.w3.org/2000/svg">
<g clip-path="url(#clip0)">
<path d="M95.5 485V433L96 239.5V25C101.6 5.4 118.333 0.5 126 0.5H352L479 128V330V489C472.2 506.6 458.167 511.667 452 512C347 511.833 135.8 511.6 131 512C125 512.5 118 510.5 108 504.5C100 499.7 96.3333 489.5 95.5 485Z" fill="#E2E5E7"/>
<path d="M479 223V128L466 115H450.5L373.5 117L479 223Z" fill="#CAD1D8"/>
<path d="M352 98V0.5L478.5 128H384.5C360.1 126.4 352.667 107.333 352 98Z" fill="#B0B7BD"/>
<path d="M97 402V447.5L402 448C412.4 446.8 415.667 438.5 416 434.5V402H97Z" fill="#CAD1D8"/>
<rect x="32" y="240" width="384" height="192" rx="16" fill="#A066AA"/>
<path d="M219.903 311.566C219.903 312.819 219.59 314.18 218.963 315.648C218.354 317.098 217.387 318.53 216.063 319.945C214.738 321.341 213.046 322.478 210.987 323.355C208.928 324.233 206.529 324.671 203.79 324.671C201.713 324.671 199.824 324.474 198.123 324.081C196.422 323.687 194.874 323.078 193.477 322.254C192.099 321.413 190.827 320.312 189.664 318.951C188.625 317.716 187.739 316.337 187.005 314.815C186.271 313.276 185.716 311.638 185.34 309.901C184.982 308.164 184.803 306.32 184.803 304.369C184.803 301.2 185.259 298.362 186.172 295.855C187.103 293.349 188.428 291.209 190.147 289.437C191.866 287.647 193.88 286.286 196.19 285.355C198.499 284.424 200.961 283.958 203.575 283.958C206.762 283.958 209.599 284.594 212.088 285.865C214.577 287.136 216.483 288.712 217.808 290.592C219.133 292.454 219.796 294.217 219.796 295.882C219.796 296.795 219.473 297.601 218.829 298.299C218.184 298.998 217.405 299.347 216.492 299.347C215.472 299.347 214.702 299.105 214.183 298.622C213.681 298.138 213.117 297.306 212.491 296.124C211.452 294.173 210.226 292.713 208.812 291.747C207.415 290.78 205.687 290.296 203.629 290.296C200.352 290.296 197.738 291.541 195.787 294.029C193.853 296.518 192.886 300.054 192.886 304.637C192.886 307.699 193.316 310.25 194.175 312.291C195.035 314.314 196.252 315.827 197.828 316.83C199.403 317.832 201.247 318.333 203.36 318.333C205.652 318.333 207.585 317.77 209.161 316.642C210.754 315.496 211.954 313.822 212.759 311.62C213.1 310.581 213.52 309.74 214.022 309.095C214.523 308.433 215.329 308.102 216.439 308.102C217.387 308.102 218.202 308.433 218.882 309.095C219.563 309.758 219.903 310.581 219.903 311.566ZM241.364 307.162H238.571V319.811C238.571 321.476 238.204 322.702 237.47 323.49C236.736 324.278 235.778 324.671 234.596 324.671C233.325 324.671 232.34 324.26 231.642 323.436C230.944 322.612 230.595 321.404 230.595 319.811V289.518C230.595 287.799 230.98 286.555 231.749 285.785C232.519 285.015 233.764 284.63 235.482 284.63H248.454C250.244 284.63 251.775 284.71 253.046 284.872C254.317 285.015 255.463 285.319 256.483 285.785C257.719 286.304 258.811 287.047 259.76 288.014C260.709 288.98 261.425 290.108 261.908 291.397C262.409 292.669 262.66 294.02 262.66 295.453C262.66 298.389 261.828 300.734 260.162 302.489C258.515 304.243 256.009 305.488 252.643 306.222C254.057 306.974 255.409 308.084 256.698 309.552C257.987 311.02 259.133 312.586 260.136 314.251C261.156 315.899 261.944 317.394 262.499 318.736C263.072 320.061 263.358 320.974 263.358 321.476C263.358 321.995 263.188 322.514 262.848 323.033C262.526 323.535 262.078 323.928 261.505 324.215C260.932 324.519 260.27 324.671 259.518 324.671C258.623 324.671 257.871 324.457 257.262 324.027C256.653 323.615 256.125 323.087 255.678 322.442C255.248 321.798 254.657 320.849 253.905 319.596L250.709 314.278C249.564 312.327 248.534 310.841 247.621 309.82C246.726 308.8 245.813 308.102 244.882 307.726C243.951 307.35 242.778 307.162 241.364 307.162ZM245.929 290.619H238.571V301.441H245.714C247.63 301.441 249.241 301.28 250.548 300.958C251.855 300.618 252.849 300.054 253.529 299.266C254.227 298.46 254.577 297.359 254.577 295.963C254.577 294.871 254.299 293.913 253.744 293.089C253.189 292.248 252.419 291.621 251.434 291.209C250.503 290.816 248.668 290.619 245.929 290.619ZM55.4035 348.63H65.7966C68.5 348.63 70.8186 348.881 72.7522 349.382C74.6857 349.883 76.4403 350.823 78.0158 352.202C82.1158 355.711 84.1657 361.046 84.1657 368.208C84.1657 370.571 83.9598 372.728 83.548 374.68C83.1363 376.631 82.5007 378.395 81.6413 379.97C80.7819 381.528 79.6809 382.924 78.3381 384.16C77.2818 385.109 76.127 385.869 74.8737 386.442C73.6205 387.015 72.2688 387.418 70.8186 387.651C69.3863 387.884 67.766 388 65.9577 388H55.5647C54.1145 388 53.0223 387.785 52.2883 387.355C51.5542 386.908 51.0708 386.29 50.8381 385.502C50.6232 384.697 50.5158 383.658 50.5158 382.387V353.518C50.5158 351.799 50.9008 350.555 51.6706 349.785C52.4405 349.015 53.6848 348.63 55.4035 348.63ZM58.4919 354.941V381.662H64.5344C65.8592 381.662 66.8977 381.626 67.6496 381.555C68.4016 381.483 69.1804 381.304 69.986 381.018C70.7917 380.731 71.4899 380.328 72.0808 379.809C74.7484 377.553 76.0822 373.668 76.0822 368.154C76.0822 364.269 75.4914 361.359 74.3098 359.426C73.146 357.492 71.7048 356.266 69.986 355.747C68.2673 355.209 66.1905 354.941 63.7556 354.941H58.4919ZM112.072 347.958C116.154 347.958 119.654 348.791 122.572 350.456C125.508 352.103 127.729 354.458 129.232 357.519C130.736 360.563 131.488 364.143 131.488 368.261C131.488 371.305 131.077 374.071 130.253 376.56C129.429 379.048 128.194 381.206 126.547 383.032C124.9 384.858 122.877 386.254 120.478 387.221C118.078 388.188 115.33 388.671 112.233 388.671C109.153 388.671 106.396 388.179 103.961 387.194C101.527 386.192 99.4945 384.786 97.8652 382.978C96.236 381.17 95.0007 378.994 94.1592 376.452C93.3356 373.91 92.9238 371.162 92.9238 368.208C92.9238 365.182 93.3535 362.407 94.2129 359.882C95.0902 357.358 96.3524 355.209 97.9995 353.437C99.6467 351.665 101.652 350.313 104.015 349.382C106.378 348.433 109.064 347.958 112.072 347.958ZM123.405 368.208C123.405 365.325 122.939 362.827 122.008 360.715C121.077 358.602 119.743 357.009 118.007 355.935C116.288 354.842 114.31 354.296 112.072 354.296C110.478 354.296 109.001 354.601 107.641 355.209C106.298 355.8 105.134 356.669 104.149 357.814C103.183 358.96 102.413 360.428 101.84 362.219C101.285 363.991 101.007 365.987 101.007 368.208C101.007 370.445 101.285 372.469 101.84 374.277C102.413 376.085 103.209 377.589 104.23 378.789C105.268 379.97 106.45 380.856 107.775 381.447C109.118 382.038 110.586 382.333 112.179 382.333C114.22 382.333 116.091 381.823 117.792 380.803C119.511 379.782 120.871 378.207 121.874 376.076C122.895 373.946 123.405 371.323 123.405 368.208ZM170.459 381.796L164.094 358.19L157.649 381.796C157.147 383.587 156.745 384.876 156.44 385.664C156.154 386.433 155.644 387.132 154.909 387.758C154.175 388.367 153.2 388.671 151.982 388.671C150.998 388.671 150.183 388.483 149.538 388.107C148.912 387.749 148.402 387.239 148.008 386.577C147.614 385.896 147.291 385.1 147.041 384.187C146.79 383.256 146.566 382.396 146.369 381.608L139.817 355.102C139.423 353.562 139.226 352.39 139.226 351.584C139.226 350.563 139.584 349.704 140.3 349.006C141.016 348.308 141.902 347.958 142.959 347.958C144.409 347.958 145.385 348.424 145.886 349.355C146.387 350.286 146.826 351.638 147.202 353.41L152.358 376.398L158.132 354.887C158.562 353.24 158.947 351.987 159.287 351.127C159.627 350.268 160.182 349.525 160.952 348.898C161.722 348.272 162.769 347.958 164.094 347.958C165.437 347.958 166.475 348.29 167.209 348.952C167.961 349.597 168.48 350.304 168.767 351.074C169.053 351.844 169.438 353.115 169.922 354.887L175.749 376.398L180.906 353.41C181.156 352.211 181.389 351.271 181.604 350.59C181.837 349.91 182.221 349.301 182.759 348.764C183.314 348.227 184.11 347.958 185.149 347.958C186.187 347.958 187.064 348.308 187.781 349.006C188.515 349.686 188.882 350.546 188.882 351.584C188.882 352.318 188.685 353.491 188.291 355.102L181.738 381.608C181.29 383.399 180.915 384.715 180.61 385.556C180.324 386.38 179.822 387.105 179.106 387.731C178.408 388.358 177.414 388.671 176.125 388.671C174.908 388.671 173.932 388.367 173.198 387.758C172.464 387.15 171.954 386.469 171.667 385.717C171.381 384.947 170.978 383.64 170.459 381.796ZM208.167 352.739L223.502 375.942V352.524C223.502 351.002 223.824 349.865 224.468 349.113C225.131 348.343 226.017 347.958 227.127 347.958C228.273 347.958 229.177 348.343 229.839 349.113C230.502 349.865 230.833 351.002 230.833 352.524V383.488C230.833 386.944 229.401 388.671 226.536 388.671C225.82 388.671 225.176 388.564 224.603 388.349C224.03 388.152 223.493 387.83 222.991 387.382C222.49 386.935 222.025 386.416 221.595 385.825C221.165 385.216 220.735 384.598 220.306 383.972L205.347 361.037V384.106C205.347 385.61 204.998 386.747 204.3 387.517C203.602 388.286 202.706 388.671 201.614 388.671C200.486 388.671 199.582 388.286 198.902 387.517C198.222 386.729 197.881 385.592 197.881 384.106V353.732C197.881 352.443 198.025 351.432 198.311 350.698C198.651 349.892 199.215 349.239 200.003 348.737C200.791 348.218 201.641 347.958 202.554 347.958C203.27 347.958 203.879 348.075 204.38 348.308C204.9 348.54 205.347 348.854 205.723 349.248C206.117 349.641 206.511 350.152 206.905 350.778C207.317 351.405 207.737 352.058 208.167 352.739ZM250.951 352.792V381.447H267.118C268.407 381.447 269.392 381.761 270.072 382.387C270.77 383.014 271.12 383.802 271.12 384.75C271.12 385.717 270.779 386.505 270.099 387.114C269.419 387.705 268.425 388 267.118 388H247.863C246.126 388 244.873 387.615 244.103 386.845C243.351 386.075 242.975 384.831 242.975 383.112V352.792C242.975 351.181 243.333 349.973 244.049 349.167C244.783 348.361 245.741 347.958 246.923 347.958C248.122 347.958 249.089 348.361 249.823 349.167C250.575 349.955 250.951 351.163 250.951 352.792ZM294.541 347.958C298.623 347.958 302.123 348.791 305.041 350.456C307.977 352.103 310.197 354.458 311.701 357.519C313.205 360.563 313.957 364.143 313.957 368.261C313.957 371.305 313.545 374.071 312.722 376.56C311.898 379.048 310.663 381.206 309.016 383.032C307.369 384.858 305.346 386.254 302.946 387.221C300.547 388.188 297.799 388.671 294.702 388.671C291.622 388.671 288.865 388.179 286.43 387.194C283.995 386.192 281.963 384.786 280.334 382.978C278.705 381.17 277.47 378.994 276.628 376.452C275.805 373.91 275.393 371.162 275.393 368.208C275.393 365.182 275.822 362.407 276.682 359.882C277.559 357.358 278.821 355.209 280.468 353.437C282.116 351.665 284.121 350.313 286.484 349.382C288.847 348.433 291.533 347.958 294.541 347.958ZM305.874 368.208C305.874 365.325 305.408 362.827 304.477 360.715C303.546 358.602 302.212 357.009 300.476 355.935C298.757 354.842 296.779 354.296 294.541 354.296C292.947 354.296 291.47 354.601 290.11 355.209C288.767 355.8 287.603 356.669 286.618 357.814C285.652 358.96 284.882 360.428 284.309 362.219C283.754 363.991 283.476 365.987 283.476 368.208C283.476 370.445 283.754 372.469 284.309 374.277C284.882 376.085 285.678 377.589 286.699 378.789C287.737 379.97 288.919 380.856 290.244 381.447C291.587 382.038 293.055 382.333 294.648 382.333C296.689 382.333 298.56 381.823 300.261 380.803C301.98 379.782 303.34 378.207 304.343 376.076C305.363 373.946 305.874 371.323 305.874 368.208ZM347.449 383.542L345.569 378.601H329.563L327.684 383.649C326.95 385.619 326.323 386.953 325.804 387.651C325.285 388.331 324.434 388.671 323.252 388.671C322.25 388.671 321.364 388.304 320.594 387.57C319.824 386.836 319.439 386.004 319.439 385.073C319.439 384.536 319.528 383.981 319.708 383.408C319.887 382.835 320.182 382.038 320.594 381.018L330.665 355.451C330.951 354.717 331.291 353.84 331.685 352.819C332.097 351.781 332.527 350.922 332.974 350.241C333.44 349.561 334.039 349.015 334.773 348.603C335.525 348.173 336.447 347.958 337.54 347.958C338.65 347.958 339.572 348.173 340.306 348.603C341.058 349.015 341.657 349.552 342.105 350.214C342.57 350.877 342.955 351.593 343.26 352.363C343.582 353.115 343.985 354.126 344.468 355.397L354.754 380.803C355.56 382.736 355.962 384.142 355.962 385.019C355.962 385.932 355.577 386.774 354.808 387.543C354.056 388.295 353.143 388.671 352.068 388.671C351.442 388.671 350.905 388.555 350.457 388.322C350.009 388.107 349.633 387.812 349.329 387.436C349.025 387.042 348.694 386.451 348.335 385.664C347.995 384.858 347.7 384.151 347.449 383.542ZM331.658 372.612H343.421L337.486 356.364L331.658 372.612ZM370.36 348.63H380.753C383.457 348.63 385.775 348.881 387.709 349.382C389.642 349.883 391.397 350.823 392.972 352.202C397.072 355.711 399.122 361.046 399.122 368.208C399.122 370.571 398.916 372.728 398.505 374.68C398.093 376.631 397.457 378.395 396.598 379.97C395.739 381.528 394.638 382.924 393.295 384.16C392.238 385.109 391.084 385.869 389.83 386.442C388.577 387.015 387.225 387.418 385.775 387.651C384.343 387.884 382.723 388 380.914 388H370.521C369.071 388 367.979 387.785 367.245 387.355C366.511 386.908 366.027 386.29 365.795 385.502C365.58 384.697 365.472 383.658 365.472 382.387V353.518C365.472 351.799 365.857 350.555 366.627 349.785C367.397 349.015 368.641 348.63 370.36 348.63ZM373.449 354.941V381.662H379.491C380.816 381.662 381.854 381.626 382.606 381.555C383.358 381.483 384.137 381.304 384.943 381.018C385.748 380.731 386.447 380.328 387.037 379.809C389.705 377.553 391.039 373.668 391.039 368.154C391.039 364.269 390.448 361.359 389.266 359.426C388.103 357.492 386.661 356.266 384.943 355.747C383.224 355.209 381.147 354.941 378.712 354.941H373.449Z" fill="white"/>
</g>
<defs>
<clipPath id="clip0">
<rect width="512" height="512" fill="white"/>
</clipPath>
</defs>
</svg>
