<svg width="512" height="512" viewBox="0 0 512 512" fill="none" xmlns="http://www.w3.org/2000/svg">
<g clip-path="url(#clip0)">
<path d="M95.5 485V433L96 239.5V25C101.6 5.4 118.333 0.5 126 0.5H352L479 128V330V489C472.2 506.6 458.167 511.667 452 512C347 511.833 135.8 511.6 131 512C125 512.5 118 510.5 108 504.5C100 499.7 96.3333 489.5 95.5 485Z" fill="#E2E5E7"/>
<path d="M479 223V128L466 115H450.5L373.5 117L479 223Z" fill="#CAD1D8"/>
<path d="M352 98V0.5L478.5 128H384.5C360.1 126.4 352.667 107.333 352 98Z" fill="#B0B7BD"/>
<path d="M97 402V447.5L402 448C412.4 446.8 415.667 438.5 416 434.5V402H97Z" fill="#CAD1D8"/>
<rect x="32" y="240" width="384" height="192" rx="16" fill="#A066AA"/>
<path d="M173.891 353.871C173.891 356.605 173.208 359.574 171.841 362.777C170.512 365.941 168.403 369.066 165.512 372.152C162.622 375.199 158.93 377.68 154.438 379.594C149.946 381.508 144.712 382.465 138.735 382.465C134.204 382.465 130.083 382.035 126.372 381.176C122.661 380.316 119.282 378.988 116.235 377.191C113.227 375.355 110.454 372.953 107.915 369.984C105.649 367.289 103.716 364.281 102.114 360.961C100.512 357.602 99.3016 354.027 98.4812 350.238C97.7 346.449 97.3094 342.426 97.3094 338.168C97.3094 331.254 98.3055 325.062 100.298 319.594C102.329 314.125 105.22 309.457 108.97 305.59C112.72 301.684 117.114 298.715 122.153 296.684C127.192 294.652 132.563 293.637 138.266 293.637C145.22 293.637 151.411 295.023 156.841 297.797C162.27 300.57 166.43 304.008 169.321 308.109C172.212 312.172 173.657 316.02 173.657 319.652C173.657 321.645 172.954 323.402 171.548 324.926C170.141 326.449 168.442 327.211 166.45 327.211C164.223 327.211 162.544 326.684 161.411 325.629C160.317 324.574 159.087 322.758 157.72 320.18C155.454 315.922 152.778 312.738 149.692 310.629C146.645 308.52 142.876 307.465 138.384 307.465C131.235 307.465 125.532 310.18 121.274 315.609C117.055 321.039 114.946 328.754 114.946 338.754C114.946 345.434 115.884 351 117.759 355.453C119.634 359.867 122.29 363.168 125.727 365.355C129.165 367.543 133.188 368.637 137.798 368.637C142.798 368.637 147.016 367.406 150.454 364.945C153.93 362.445 156.548 358.793 158.305 353.988C159.048 351.723 159.966 349.887 161.059 348.48C162.153 347.035 163.911 346.312 166.333 346.312C168.403 346.312 170.18 347.035 171.665 348.48C173.149 349.926 173.891 351.723 173.891 353.871ZM220.715 344.262H214.621V371.859C214.621 375.492 213.82 378.168 212.219 379.887C210.617 381.605 208.527 382.465 205.949 382.465C203.176 382.465 201.027 381.566 199.504 379.77C197.98 377.973 197.219 375.336 197.219 371.859V305.766C197.219 302.016 198.059 299.301 199.738 297.621C201.418 295.941 204.133 295.102 207.883 295.102H236.184C240.09 295.102 243.43 295.277 246.203 295.629C248.977 295.941 251.477 296.605 253.703 297.621C256.398 298.754 258.781 300.375 260.852 302.484C262.922 304.594 264.484 307.055 265.539 309.867C266.633 312.641 267.18 315.59 267.18 318.715C267.18 325.121 265.363 330.238 261.73 334.066C258.137 337.895 252.668 340.609 245.324 342.211C248.41 343.852 251.359 346.273 254.172 349.477C256.984 352.68 259.484 356.098 261.672 359.73C263.898 363.324 265.617 366.586 266.828 369.516C268.078 372.406 268.703 374.398 268.703 375.492C268.703 376.625 268.332 377.758 267.59 378.891C266.887 379.984 265.91 380.844 264.66 381.469C263.41 382.133 261.965 382.465 260.324 382.465C258.371 382.465 256.73 381.996 255.402 381.059C254.074 380.16 252.922 379.008 251.945 377.602C251.008 376.195 249.719 374.125 248.078 371.391L241.105 359.789C238.605 355.531 236.359 352.289 234.367 350.062C232.414 347.836 230.422 346.312 228.391 345.492C226.359 344.672 223.801 344.262 220.715 344.262ZM230.676 308.168H214.621V331.781H230.207C234.387 331.781 237.902 331.43 240.754 330.727C243.605 329.984 245.773 328.754 247.258 327.035C248.781 325.277 249.543 322.875 249.543 319.828C249.543 317.445 248.938 315.355 247.727 313.559C246.516 311.723 244.836 310.355 242.688 309.457C240.656 308.598 236.652 308.168 230.676 308.168ZM288.339 364.301L307.558 336.234L291.386 311.273C289.863 308.852 288.71 306.781 287.929 305.062C287.187 303.305 286.816 301.625 286.816 300.023C286.816 298.383 287.538 296.918 288.984 295.629C290.468 294.301 292.265 293.637 294.374 293.637C296.796 293.637 298.671 294.359 299.999 295.805C301.366 297.211 303.241 299.848 305.624 303.715L318.515 324.574L332.284 303.715C333.417 301.957 334.374 300.453 335.155 299.203C335.976 297.953 336.757 296.918 337.499 296.098C338.241 295.277 339.062 294.672 339.96 294.281C340.898 293.852 341.972 293.637 343.183 293.637C345.37 293.637 347.148 294.301 348.515 295.629C349.921 296.918 350.624 298.461 350.624 300.258C350.624 302.875 349.12 306.43 346.113 310.922L329.179 336.234L347.402 364.301C349.042 366.762 350.234 368.812 350.976 370.453C351.718 372.055 352.089 373.578 352.089 375.023C352.089 376.391 351.757 377.641 351.093 378.773C350.429 379.906 349.491 380.805 348.28 381.469C347.07 382.133 345.702 382.465 344.179 382.465C342.538 382.465 341.152 382.113 340.019 381.41C338.886 380.746 337.968 379.906 337.265 378.891C336.562 377.875 335.253 375.902 333.339 372.973L318.222 349.184L302.167 373.676C300.917 375.629 300.019 376.996 299.472 377.777C298.964 378.559 298.339 379.32 297.597 380.062C296.855 380.805 295.976 381.391 294.96 381.82C293.945 382.25 292.753 382.465 291.386 382.465C289.277 382.465 287.519 381.82 286.113 380.531C284.745 379.242 284.062 377.367 284.062 374.906C284.062 372.016 285.488 368.48 288.339 364.301Z" fill="white"/>
</g>
<defs>
<clipPath id="clip0">
<rect width="512" height="512" fill="white"/>
</clipPath>
</defs>
</svg>
