<svg width="512" height="512" viewBox="0 0 512 512" fill="none" xmlns="http://www.w3.org/2000/svg">
<g clip-path="url(#clip0)">
<path d="M95.5 485V433L96 239.5V25C101.6 5.4 118.333 0.5 126 0.5H352L479 128V330V489C472.2 506.6 458.167 511.667 452 512C347 511.833 135.8 511.6 131 512C125 512.5 118 510.5 108 504.5C100 499.7 96.3333 489.5 95.5 485Z" fill="#E2E5E7"/>
<path d="M479 223V128L466 115H450.5L373.5 117L479 223Z" fill="#CAD1D8"/>
<path d="M352 98V0.5L478.5 128H384.5C360.1 126.4 352.667 107.333 352 98Z" fill="#B0B7BD"/>
<path d="M97 402V447.5L402 448C412.4 446.8 415.667 438.5 416 434.5V402H97Z" fill="#CAD1D8"/>
<rect x="32" y="240" width="384" height="192" rx="16" fill="#A066AA"/>
<path d="M217.725 353.871C217.725 356.605 217.041 359.574 215.674 362.777C214.346 365.941 212.237 369.066 209.346 372.152C206.455 375.199 202.764 377.68 198.272 379.594C193.78 381.508 188.545 382.465 182.569 382.465C178.037 382.465 173.916 382.035 170.205 381.176C166.495 380.316 163.116 378.988 160.069 377.191C157.061 375.355 154.287 372.953 151.748 369.984C149.483 367.289 147.549 364.281 145.948 360.961C144.346 357.602 143.135 354.027 142.315 350.238C141.534 346.449 141.143 342.426 141.143 338.168C141.143 331.254 142.139 325.062 144.131 319.594C146.162 314.125 149.053 309.457 152.803 305.59C156.553 301.684 160.948 298.715 165.987 296.684C171.026 294.652 176.397 293.637 182.1 293.637C189.053 293.637 195.245 295.023 200.674 297.797C206.104 300.57 210.264 304.008 213.155 308.109C216.045 312.172 217.491 316.02 217.491 319.652C217.491 321.645 216.787 323.402 215.381 324.926C213.975 326.449 212.276 327.211 210.284 327.211C208.057 327.211 206.377 326.684 205.245 325.629C204.151 324.574 202.92 322.758 201.553 320.18C199.287 315.922 196.612 312.738 193.526 310.629C190.479 308.52 186.709 307.465 182.217 307.465C175.069 307.465 169.366 310.18 165.108 315.609C160.889 321.039 158.78 328.754 158.78 338.754C158.78 345.434 159.717 351 161.592 355.453C163.467 359.867 166.123 363.168 169.561 365.355C172.998 367.543 177.022 368.637 181.631 368.637C186.631 368.637 190.85 367.406 194.287 364.945C197.764 362.445 200.381 358.793 202.139 353.988C202.881 351.723 203.799 349.887 204.893 348.48C205.987 347.035 207.745 346.312 210.166 346.312C212.237 346.312 214.014 347.035 215.498 348.48C216.983 349.926 217.725 351.723 217.725 353.871ZM306.443 355.219C306.443 360.414 305.095 365.082 302.4 369.223C299.744 373.363 295.838 376.605 290.681 378.949C285.525 381.293 279.412 382.465 272.341 382.465C263.865 382.465 256.873 380.863 251.365 377.66C247.459 375.355 244.275 372.289 241.814 368.461C239.392 364.594 238.181 360.844 238.181 357.211C238.181 355.102 238.904 353.305 240.349 351.82C241.834 350.297 243.709 349.535 245.974 349.535C247.81 349.535 249.353 350.121 250.603 351.293C251.892 352.465 252.986 354.203 253.884 356.508C254.978 359.242 256.15 361.527 257.4 363.363C258.689 365.199 260.486 366.723 262.791 367.934C265.095 369.105 268.123 369.691 271.873 369.691C277.029 369.691 281.209 368.5 284.412 366.117C287.654 363.695 289.275 360.688 289.275 357.094C289.275 354.242 288.396 351.938 286.638 350.18C284.92 348.383 282.673 347.016 279.9 346.078C277.166 345.141 273.494 344.145 268.884 343.09C262.713 341.645 257.537 339.965 253.357 338.051C249.216 336.098 245.916 333.461 243.455 330.141C241.033 326.781 239.822 322.621 239.822 317.66C239.822 312.934 241.111 308.734 243.689 305.062C246.267 301.391 249.998 298.578 254.88 296.625C259.763 294.633 265.505 293.637 272.107 293.637C277.38 293.637 281.931 294.301 285.759 295.629C289.627 296.918 292.83 298.656 295.369 300.844C297.908 302.992 299.763 305.258 300.935 307.641C302.107 310.023 302.693 312.348 302.693 314.613C302.693 316.684 301.951 318.559 300.466 320.238C299.021 321.879 297.205 322.699 295.017 322.699C293.025 322.699 291.502 322.211 290.447 321.234C289.431 320.219 288.318 318.578 287.107 316.312C285.545 313.07 283.67 310.551 281.482 308.754C279.295 306.918 275.779 306 270.935 306C266.443 306 262.81 306.996 260.037 308.988C257.302 310.941 255.935 313.305 255.935 316.078C255.935 317.797 256.404 319.281 257.341 320.531C258.279 321.781 259.568 322.855 261.209 323.754C262.849 324.652 264.509 325.355 266.189 325.863C267.869 326.371 270.642 327.113 274.509 328.09C279.353 329.223 283.728 330.473 287.634 331.84C291.58 333.207 294.92 334.867 297.654 336.82C300.427 338.773 302.576 341.254 304.099 344.262C305.662 347.23 306.443 350.883 306.443 355.219Z" fill="white"/>
</g>
<defs>
<clipPath id="clip0">
<rect width="512" height="512" fill="white"/>
</clipPath>
</defs>
</svg>
