<svg width="512" height="512" viewBox="0 0 512 512" fill="none" xmlns="http://www.w3.org/2000/svg">
<g clip-path="url(#clip0)">
<path d="M95.5 485V433L96 239.5V25C101.6 5.4 118.333 0.5 126 0.5H352L479 128V330V489C472.2 506.6 458.167 511.667 452 512C347 511.833 135.8 511.6 131 512C125 512.5 118 510.5 108 504.5C100 499.7 96.3333 489.5 95.5 485Z" fill="#E2E5E7"/>
<path d="M479 223V128L466 115H450.5L373.5 117L479 223Z" fill="#CAD1D8"/>
<path d="M352 98V0.5L478.5 128H384.5C360.1 126.4 352.667 107.333 352 98Z" fill="#B0B7BD"/>
<path d="M97 402V447.5L402 448C412.4 446.8 415.667 438.5 416 434.5V402H97Z" fill="#CAD1D8"/>
<rect x="32" y="240" width="384" height="192" rx="16" fill="#A066AA"/>
<path d="M170.641 353.871C170.641 356.605 169.958 359.574 168.591 362.777C167.262 365.941 165.153 369.066 162.262 372.152C159.372 375.199 155.68 377.68 151.188 379.594C146.696 381.508 141.462 382.465 135.485 382.465C130.954 382.465 126.833 382.035 123.122 381.176C119.411 380.316 116.032 378.988 112.985 377.191C109.977 375.355 107.204 372.953 104.665 369.984C102.399 367.289 100.466 364.281 98.8641 360.961C97.2625 357.602 96.0516 354.027 95.2312 350.238C94.45 346.449 94.0594 342.426 94.0594 338.168C94.0594 331.254 95.0555 325.062 97.0477 319.594C99.0789 314.125 101.97 309.457 105.72 305.59C109.47 301.684 113.864 298.715 118.903 296.684C123.942 294.652 129.313 293.637 135.016 293.637C141.97 293.637 148.161 295.023 153.591 297.797C159.02 300.57 163.18 304.008 166.071 308.109C168.962 312.172 170.407 316.02 170.407 319.652C170.407 321.645 169.704 323.402 168.298 324.926C166.891 326.449 165.192 327.211 163.2 327.211C160.973 327.211 159.294 326.684 158.161 325.629C157.067 324.574 155.837 322.758 154.47 320.18C152.204 315.922 149.528 312.738 146.442 310.629C143.395 308.52 139.626 307.465 135.134 307.465C127.985 307.465 122.282 310.18 118.024 315.609C113.805 321.039 111.696 328.754 111.696 338.754C111.696 345.434 112.634 351 114.509 355.453C116.384 359.867 119.04 363.168 122.477 365.355C125.915 367.543 129.938 368.637 134.548 368.637C139.548 368.637 143.766 367.406 147.204 364.945C150.68 362.445 153.298 358.793 155.055 353.988C155.798 351.723 156.716 349.887 157.809 348.48C158.903 347.035 160.661 346.312 163.083 346.312C165.153 346.312 166.93 347.035 168.415 348.48C169.899 349.926 170.641 351.723 170.641 353.871ZM259.359 355.219C259.359 360.414 258.012 365.082 255.316 369.223C252.66 373.363 248.754 376.605 243.598 378.949C238.441 381.293 232.328 382.465 225.258 382.465C216.781 382.465 209.789 380.863 204.281 377.66C200.375 375.355 197.191 372.289 194.73 368.461C192.309 364.594 191.098 360.844 191.098 357.211C191.098 355.102 191.82 353.305 193.266 351.82C194.75 350.297 196.625 349.535 198.891 349.535C200.727 349.535 202.27 350.121 203.52 351.293C204.809 352.465 205.902 354.203 206.801 356.508C207.895 359.242 209.066 361.527 210.316 363.363C211.605 365.199 213.402 366.723 215.707 367.934C218.012 369.105 221.039 369.691 224.789 369.691C229.945 369.691 234.125 368.5 237.328 366.117C240.57 363.695 242.191 360.688 242.191 357.094C242.191 354.242 241.312 351.938 239.555 350.18C237.836 348.383 235.59 347.016 232.816 346.078C230.082 345.141 226.41 344.145 221.801 343.09C215.629 341.645 210.453 339.965 206.273 338.051C202.133 336.098 198.832 333.461 196.371 330.141C193.949 326.781 192.738 322.621 192.738 317.66C192.738 312.934 194.027 308.734 196.605 305.062C199.184 301.391 202.914 298.578 207.797 296.625C212.68 294.633 218.422 293.637 225.023 293.637C230.297 293.637 234.848 294.301 238.676 295.629C242.543 296.918 245.746 298.656 248.285 300.844C250.824 302.992 252.68 305.258 253.852 307.641C255.023 310.023 255.609 312.348 255.609 314.613C255.609 316.684 254.867 318.559 253.383 320.238C251.938 321.879 250.121 322.699 247.934 322.699C245.941 322.699 244.418 322.211 243.363 321.234C242.348 320.219 241.234 318.578 240.023 316.312C238.461 313.07 236.586 310.551 234.398 308.754C232.211 306.918 228.695 306 223.852 306C219.359 306 215.727 306.996 212.953 308.988C210.219 310.941 208.852 313.305 208.852 316.078C208.852 317.797 209.32 319.281 210.258 320.531C211.195 321.781 212.484 322.855 214.125 323.754C215.766 324.652 217.426 325.355 219.105 325.863C220.785 326.371 223.559 327.113 227.426 328.09C232.27 329.223 236.645 330.473 240.551 331.84C244.496 333.207 247.836 334.867 250.57 336.82C253.344 338.773 255.492 341.254 257.016 344.262C258.578 347.23 259.359 350.883 259.359 355.219ZM305.304 344.262H299.21V371.859C299.21 375.492 298.409 378.168 296.808 379.887C295.206 381.605 293.116 382.465 290.538 382.465C287.765 382.465 285.616 381.566 284.093 379.77C282.57 377.973 281.808 375.336 281.808 371.859V305.766C281.808 302.016 282.648 299.301 284.327 297.621C286.007 295.941 288.722 295.102 292.472 295.102H320.773C324.679 295.102 328.019 295.277 330.792 295.629C333.566 295.941 336.066 296.605 338.292 297.621C340.988 298.754 343.37 300.375 345.441 302.484C347.511 304.594 349.073 307.055 350.128 309.867C351.222 312.641 351.769 315.59 351.769 318.715C351.769 325.121 349.952 330.238 346.32 334.066C342.726 337.895 337.257 340.609 329.913 342.211C332.999 343.852 335.948 346.273 338.761 349.477C341.573 352.68 344.073 356.098 346.261 359.73C348.488 363.324 350.206 366.586 351.417 369.516C352.667 372.406 353.292 374.398 353.292 375.492C353.292 376.625 352.921 377.758 352.179 378.891C351.476 379.984 350.499 380.844 349.249 381.469C347.999 382.133 346.554 382.465 344.913 382.465C342.96 382.465 341.32 381.996 339.991 381.059C338.663 380.16 337.511 379.008 336.534 377.602C335.597 376.195 334.308 374.125 332.667 371.391L325.695 359.789C323.195 355.531 320.948 352.289 318.956 350.062C317.003 347.836 315.011 346.312 312.98 345.492C310.948 344.672 308.39 344.262 305.304 344.262ZM315.265 308.168H299.21V331.781H314.796C318.976 331.781 322.491 331.43 325.343 330.727C328.195 329.984 330.363 328.754 331.847 327.035C333.37 325.277 334.132 322.875 334.132 319.828C334.132 317.445 333.527 315.355 332.316 313.559C331.105 311.723 329.425 310.355 327.277 309.457C325.245 308.598 321.241 308.168 315.265 308.168Z" fill="white"/>
</g>
<defs>
<clipPath id="clip0">
<rect width="512" height="512" fill="white"/>
</clipPath>
</defs>
</svg>
