<svg width="512" height="512" viewBox="0 0 512 512" fill="none" xmlns="http://www.w3.org/2000/svg">
<g clip-path="url(#clip0)">
<path d="M95.5 485V433L96 239.5V25C101.6 5.4 118.333 0.5 126 0.5H352L479 128V330V489C472.2 506.6 458.167 511.667 452 512C347 511.833 135.8 511.6 131 512C125 512.5 118 510.5 108 504.5C100 499.7 96.3333 489.5 95.5 485Z" fill="#E2E5E7"/>
<path d="M479 223V128L466 115H450.5L373.5 117L479 223Z" fill="#CAD1D8"/>
<path d="M352 98V0.5L478.5 128H384.5C360.1 126.4 352.667 107.333 352 98Z" fill="#B0B7BD"/>
<path d="M97 402V447.5L402 448C412.4 446.8 415.667 438.5 416 434.5V402H97Z" fill="#CAD1D8"/>
<rect x="32" y="240" width="384" height="192" rx="16" fill="#A066AA"/>
<path d="M182.805 353.871C182.805 356.605 182.122 359.574 180.755 362.777C179.427 365.941 177.317 369.066 174.427 372.152C171.536 375.199 167.845 377.68 163.352 379.594C158.86 381.508 153.626 382.465 147.649 382.465C143.118 382.465 138.997 382.035 135.286 381.176C131.575 380.316 128.196 378.988 125.149 377.191C122.141 375.355 119.368 372.953 116.829 369.984C114.563 367.289 112.63 364.281 111.028 360.961C109.427 357.602 108.216 354.027 107.395 350.238C106.614 346.449 106.223 342.426 106.223 338.168C106.223 331.254 107.22 325.062 109.212 319.594C111.243 314.125 114.134 309.457 117.884 305.59C121.634 301.684 126.028 298.715 131.067 296.684C136.106 294.652 141.477 293.637 147.18 293.637C154.134 293.637 160.325 295.023 165.755 297.797C171.184 300.57 175.345 304.008 178.235 308.109C181.126 312.172 182.571 316.02 182.571 319.652C182.571 321.645 181.868 323.402 180.462 324.926C179.055 326.449 177.356 327.211 175.364 327.211C173.137 327.211 171.458 326.684 170.325 325.629C169.231 324.574 168.001 322.758 166.634 320.18C164.368 315.922 161.692 312.738 158.606 310.629C155.559 308.52 151.79 307.465 147.298 307.465C140.149 307.465 134.446 310.18 130.188 315.609C125.97 321.039 123.86 328.754 123.86 338.754C123.86 345.434 124.798 351 126.673 355.453C128.548 359.867 131.204 363.168 134.641 365.355C138.079 367.543 142.102 368.637 146.712 368.637C151.712 368.637 155.93 367.406 159.368 364.945C162.845 362.445 165.462 358.793 167.22 353.988C167.962 351.723 168.88 349.887 169.973 348.48C171.067 347.035 172.825 346.312 175.247 346.312C177.317 346.312 179.095 347.035 180.579 348.48C182.063 349.926 182.805 351.723 182.805 353.871ZM271.523 355.219C271.523 360.414 270.176 365.082 267.48 369.223C264.824 373.363 260.918 376.605 255.762 378.949C250.605 381.293 244.492 382.465 237.422 382.465C228.945 382.465 221.953 380.863 216.445 377.66C212.539 375.355 209.355 372.289 206.895 368.461C204.473 364.594 203.262 360.844 203.262 357.211C203.262 355.102 203.984 353.305 205.43 351.82C206.914 350.297 208.789 349.535 211.055 349.535C212.891 349.535 214.434 350.121 215.684 351.293C216.973 352.465 218.066 354.203 218.965 356.508C220.059 359.242 221.23 361.527 222.48 363.363C223.77 365.199 225.566 366.723 227.871 367.934C230.176 369.105 233.203 369.691 236.953 369.691C242.109 369.691 246.289 368.5 249.492 366.117C252.734 363.695 254.355 360.688 254.355 357.094C254.355 354.242 253.477 351.938 251.719 350.18C250 348.383 247.754 347.016 244.98 346.078C242.246 345.141 238.574 344.145 233.965 343.09C227.793 341.645 222.617 339.965 218.438 338.051C214.297 336.098 210.996 333.461 208.535 330.141C206.113 326.781 204.902 322.621 204.902 317.66C204.902 312.934 206.191 308.734 208.77 305.062C211.348 301.391 215.078 298.578 219.961 296.625C224.844 294.633 230.586 293.637 237.188 293.637C242.461 293.637 247.012 294.301 250.84 295.629C254.707 296.918 257.91 298.656 260.449 300.844C262.988 302.992 264.844 305.258 266.016 307.641C267.188 310.023 267.773 312.348 267.773 314.613C267.773 316.684 267.031 318.559 265.547 320.238C264.102 321.879 262.285 322.699 260.098 322.699C258.105 322.699 256.582 322.211 255.527 321.234C254.512 320.219 253.398 318.578 252.188 316.312C250.625 313.07 248.75 310.551 246.562 308.754C244.375 306.918 240.859 306 236.016 306C231.523 306 227.891 306.996 225.117 308.988C222.383 310.941 221.016 313.305 221.016 316.078C221.016 317.797 221.484 319.281 222.422 320.531C223.359 321.781 224.648 322.855 226.289 323.754C227.93 324.652 229.59 325.355 231.27 325.863C232.949 326.371 235.723 327.113 239.59 328.09C244.434 329.223 248.809 330.473 252.715 331.84C256.66 333.207 260 334.867 262.734 336.82C265.508 338.773 267.656 341.254 269.18 344.262C270.742 347.23 271.523 350.883 271.523 355.219ZM359.363 355.219C359.363 360.414 358.015 365.082 355.32 369.223C352.663 373.363 348.757 376.605 343.601 378.949C338.445 381.293 332.331 382.465 325.261 382.465C316.784 382.465 309.792 380.863 304.284 377.66C300.378 375.355 297.195 372.289 294.734 368.461C292.312 364.594 291.101 360.844 291.101 357.211C291.101 355.102 291.823 353.305 293.269 351.82C294.753 350.297 296.628 349.535 298.894 349.535C300.73 349.535 302.273 350.121 303.523 351.293C304.812 352.465 305.905 354.203 306.804 356.508C307.898 359.242 309.07 361.527 310.32 363.363C311.609 365.199 313.405 366.723 315.71 367.934C318.015 369.105 321.042 369.691 324.792 369.691C329.948 369.691 334.128 368.5 337.331 366.117C340.573 363.695 342.195 360.688 342.195 357.094C342.195 354.242 341.316 351.938 339.558 350.18C337.839 348.383 335.593 347.016 332.82 346.078C330.085 345.141 326.413 344.145 321.804 343.09C315.632 341.645 310.456 339.965 306.277 338.051C302.136 336.098 298.835 333.461 296.374 330.141C293.952 326.781 292.741 322.621 292.741 317.66C292.741 312.934 294.03 308.734 296.609 305.062C299.187 301.391 302.917 298.578 307.8 296.625C312.683 294.633 318.425 293.637 325.027 293.637C330.3 293.637 334.851 294.301 338.679 295.629C342.546 296.918 345.749 298.656 348.288 300.844C350.827 302.992 352.683 305.258 353.855 307.641C355.027 310.023 355.613 312.348 355.613 314.613C355.613 316.684 354.87 318.559 353.386 320.238C351.941 321.879 350.124 322.699 347.937 322.699C345.945 322.699 344.421 322.211 343.366 321.234C342.351 320.219 341.238 318.578 340.027 316.312C338.464 313.07 336.589 310.551 334.402 308.754C332.214 306.918 328.698 306 323.855 306C319.363 306 315.73 306.996 312.956 308.988C310.222 310.941 308.855 313.305 308.855 316.078C308.855 317.797 309.323 319.281 310.261 320.531C311.198 321.781 312.488 322.855 314.128 323.754C315.769 324.652 317.429 325.355 319.109 325.863C320.788 326.371 323.562 327.113 327.429 328.09C332.273 329.223 336.648 330.473 340.554 331.84C344.499 333.207 347.839 334.867 350.573 336.82C353.347 338.773 355.495 341.254 357.019 344.262C358.581 347.23 359.363 350.883 359.363 355.219Z" fill="white"/>
</g>
<defs>
<clipPath id="clip0">
<rect width="512" height="512" fill="white"/>
</clipPath>
</defs>
</svg>
