<svg width="512" height="512" viewBox="0 0 512 512" fill="none" xmlns="http://www.w3.org/2000/svg">
<g clip-path="url(#clip0)">
<path d="M95.5 485V433L96 239.5V25C101.6 5.4 118.333 0.5 126 0.5H352L479 128V330V489C472.2 506.6 458.167 511.667 452 512C347 511.833 135.8 511.6 131 512C125 512.5 118 510.5 108 504.5C100 499.7 96.3333 489.5 95.5 485Z" fill="#E2E5E7"/>
<path d="M479 223V128L466 115H450.5L373.5 117L479 223Z" fill="#CAD1D8"/>
<path d="M352 98V0.5L478.5 128H384.5C360.1 126.4 352.667 107.333 352 98Z" fill="#B0B7BD"/>
<path d="M97 402V447.5L402 448C412.4 446.8 415.667 438.5 416 434.5V402H97Z" fill="#CAD1D8"/>
<rect x="32" y="240" width="384" height="192" rx="16" fill="#A066AA"/>
<path d="M181.016 353.871C181.016 356.605 180.333 359.574 178.966 362.777C177.637 365.941 175.528 369.066 172.637 372.152C169.747 375.199 166.055 377.68 161.563 379.594C157.071 381.508 151.837 382.465 145.86 382.465C141.329 382.465 137.208 382.035 133.497 381.176C129.786 380.316 126.407 378.988 123.36 377.191C120.352 375.355 117.579 372.953 115.04 369.984C112.774 367.289 110.841 364.281 109.239 360.961C107.637 357.602 106.427 354.027 105.606 350.238C104.825 346.449 104.434 342.426 104.434 338.168C104.434 331.254 105.43 325.062 107.423 319.594C109.454 314.125 112.345 309.457 116.095 305.59C119.845 301.684 124.239 298.715 129.278 296.684C134.317 294.652 139.688 293.637 145.391 293.637C152.345 293.637 158.536 295.023 163.966 297.797C169.395 300.57 173.555 304.008 176.446 308.109C179.337 312.172 180.782 316.02 180.782 319.652C180.782 321.645 180.079 323.402 178.673 324.926C177.266 326.449 175.567 327.211 173.575 327.211C171.348 327.211 169.669 326.684 168.536 325.629C167.442 324.574 166.212 322.758 164.845 320.18C162.579 315.922 159.903 312.738 156.817 310.629C153.77 308.52 150.001 307.465 145.509 307.465C138.36 307.465 132.657 310.18 128.399 315.609C124.18 321.039 122.071 328.754 122.071 338.754C122.071 345.434 123.009 351 124.884 355.453C126.759 359.867 129.415 363.168 132.852 365.355C136.29 367.543 140.313 368.637 144.923 368.637C149.923 368.637 154.141 367.406 157.579 364.945C161.055 362.445 163.673 358.793 165.43 353.988C166.173 351.723 167.091 349.887 168.184 348.48C169.278 347.035 171.036 346.312 173.458 346.312C175.528 346.312 177.305 347.035 178.79 348.48C180.274 349.926 181.016 351.723 181.016 353.871ZM269.734 355.219C269.734 360.414 268.387 365.082 265.691 369.223C263.035 373.363 259.129 376.605 253.973 378.949C248.816 381.293 242.703 382.465 235.633 382.465C227.156 382.465 220.164 380.863 214.656 377.66C210.75 375.355 207.566 372.289 205.105 368.461C202.684 364.594 201.473 360.844 201.473 357.211C201.473 355.102 202.195 353.305 203.641 351.82C205.125 350.297 207 349.535 209.266 349.535C211.102 349.535 212.645 350.121 213.895 351.293C215.184 352.465 216.277 354.203 217.176 356.508C218.27 359.242 219.441 361.527 220.691 363.363C221.98 365.199 223.777 366.723 226.082 367.934C228.387 369.105 231.414 369.691 235.164 369.691C240.32 369.691 244.5 368.5 247.703 366.117C250.945 363.695 252.566 360.688 252.566 357.094C252.566 354.242 251.688 351.938 249.93 350.18C248.211 348.383 245.965 347.016 243.191 346.078C240.457 345.141 236.785 344.145 232.176 343.09C226.004 341.645 220.828 339.965 216.648 338.051C212.508 336.098 209.207 333.461 206.746 330.141C204.324 326.781 203.113 322.621 203.113 317.66C203.113 312.934 204.402 308.734 206.98 305.062C209.559 301.391 213.289 298.578 218.172 296.625C223.055 294.633 228.797 293.637 235.398 293.637C240.672 293.637 245.223 294.301 249.051 295.629C252.918 296.918 256.121 298.656 258.66 300.844C261.199 302.992 263.055 305.258 264.227 307.641C265.398 310.023 265.984 312.348 265.984 314.613C265.984 316.684 265.242 318.559 263.758 320.238C262.312 321.879 260.496 322.699 258.309 322.699C256.316 322.699 254.793 322.211 253.738 321.234C252.723 320.219 251.609 318.578 250.398 316.312C248.836 313.07 246.961 310.551 244.773 308.754C242.586 306.918 239.07 306 234.227 306C229.734 306 226.102 306.996 223.328 308.988C220.594 310.941 219.227 313.305 219.227 316.078C219.227 317.797 219.695 319.281 220.633 320.531C221.57 321.781 222.859 322.855 224.5 323.754C226.141 324.652 227.801 325.355 229.48 325.863C231.16 326.371 233.934 327.113 237.801 328.09C242.645 329.223 247.02 330.473 250.926 331.84C254.871 333.207 258.211 334.867 260.945 336.82C263.719 338.773 265.867 341.254 267.391 344.262C268.953 347.23 269.734 350.883 269.734 355.219ZM305.015 305.062L324.468 362.66L343.98 304.652C344.995 301.605 345.757 299.496 346.265 298.324C346.773 297.113 347.613 296.039 348.784 295.102C349.956 294.125 351.558 293.637 353.589 293.637C355.073 293.637 356.441 294.008 357.691 294.75C358.98 295.492 359.976 296.488 360.679 297.738C361.421 298.949 361.792 300.18 361.792 301.43C361.792 302.289 361.675 303.227 361.441 304.242C361.206 305.219 360.913 306.195 360.562 307.172C360.21 308.109 359.859 309.086 359.507 310.102L338.706 366.234C337.964 368.383 337.222 370.434 336.48 372.387C335.738 374.301 334.878 376 333.902 377.484C332.925 378.93 331.616 380.121 329.976 381.059C328.374 381.996 326.402 382.465 324.058 382.465C321.714 382.465 319.722 381.996 318.081 381.059C316.48 380.16 315.171 378.969 314.155 377.484C313.179 375.961 312.32 374.242 311.577 372.328C310.835 370.414 310.093 368.383 309.351 366.234L288.902 310.57C288.55 309.555 288.179 308.559 287.788 307.582C287.437 306.605 287.124 305.551 286.851 304.418C286.616 303.285 286.499 302.328 286.499 301.547C286.499 299.555 287.3 297.738 288.902 296.098C290.503 294.457 292.515 293.637 294.937 293.637C297.905 293.637 299.995 294.555 301.206 296.391C302.456 298.188 303.726 301.078 305.015 305.062Z" fill="white"/>
</g>
<defs>
<clipPath id="clip0">
<rect width="512" height="512" fill="white"/>
</clipPath>
</defs>
</svg>
