<svg width="512" height="512" viewBox="0 0 512 512" fill="none" xmlns="http://www.w3.org/2000/svg">
<g clip-path="url(#clip0)">
<path d="M95.5 485V433L96 239.5V25C101.6 5.4 118.333 0.5 126 0.5H352L479 128V330V489C472.2 506.6 458.167 511.667 452 512C347 511.833 135.8 511.6 131 512C125 512.5 118 510.5 108 504.5C100 499.7 96.3333 489.5 95.5 485Z" fill="#E2E5E7"/>
<path d="M479 223V128L466 115H450.5L373.5 117L479 223Z" fill="#CAD1D8"/>
<path d="M352 98V0.5L478.5 128H384.5C360.1 126.4 352.667 107.333 352 98Z" fill="#B0B7BD"/>
<path d="M97 402V447.5L402 448C412.4 446.8 415.667 438.5 416 434.5V402H97Z" fill="#CAD1D8"/>
<rect x="32" y="240" width="384" height="192" rx="16" fill="#A066AA"/>
<path d="M167.739 353.871C167.739 356.605 167.055 359.574 165.688 362.777C164.36 365.941 162.251 369.066 159.36 372.152C156.47 375.199 152.778 377.68 148.286 379.594C143.794 381.508 138.559 382.465 132.583 382.465C128.052 382.465 123.93 382.035 120.22 381.176C116.509 380.316 113.13 378.988 110.083 377.191C107.075 375.355 104.302 372.953 101.762 369.984C99.4969 367.289 97.5633 364.281 95.9617 360.961C94.3602 357.602 93.1492 354.027 92.3289 350.238C91.5477 346.449 91.157 342.426 91.157 338.168C91.157 331.254 92.1531 325.062 94.1453 319.594C96.1766 314.125 99.0672 309.457 102.817 305.59C106.567 301.684 110.962 298.715 116.001 296.684C121.04 294.652 126.411 293.637 132.114 293.637C139.067 293.637 145.259 295.023 150.688 297.797C156.118 300.57 160.278 304.008 163.169 308.109C166.059 312.172 167.505 316.02 167.505 319.652C167.505 321.645 166.802 323.402 165.395 324.926C163.989 326.449 162.29 327.211 160.298 327.211C158.071 327.211 156.391 326.684 155.259 325.629C154.165 324.574 152.934 322.758 151.567 320.18C149.302 315.922 146.626 312.738 143.54 310.629C140.493 308.52 136.723 307.465 132.231 307.465C125.083 307.465 119.38 310.18 115.122 315.609C110.903 321.039 108.794 328.754 108.794 338.754C108.794 345.434 109.731 351 111.606 355.453C113.481 359.867 116.137 363.168 119.575 365.355C123.012 367.543 127.036 368.637 131.645 368.637C136.645 368.637 140.864 367.406 144.302 364.945C147.778 362.445 150.395 358.793 152.153 353.988C152.895 351.723 153.813 349.887 154.907 348.48C156.001 347.035 157.759 346.312 160.18 346.312C162.251 346.312 164.028 347.035 165.512 348.48C166.997 349.926 167.739 351.723 167.739 353.871ZM191.301 345.492V304.184C191.301 300.668 192.082 298.031 193.645 296.273C195.246 294.516 197.336 293.637 199.914 293.637C202.609 293.637 204.738 294.516 206.301 296.273C207.902 298.031 208.703 300.668 208.703 304.184V346.43C208.703 351.234 209.23 355.258 210.285 358.5C211.379 361.703 213.293 364.203 216.027 366C218.762 367.758 222.59 368.637 227.512 368.637C234.309 368.637 239.113 366.84 241.926 363.246C244.738 359.613 246.145 354.125 246.145 346.781V304.184C246.145 300.629 246.926 297.992 248.488 296.273C250.051 294.516 252.141 293.637 254.758 293.637C257.375 293.637 259.484 294.516 261.086 296.273C262.727 297.992 263.547 300.629 263.547 304.184V345.492C263.547 352.211 262.883 357.816 261.555 362.309C260.266 366.801 257.805 370.746 254.172 374.145C251.047 377.035 247.414 379.145 243.273 380.473C239.133 381.801 234.289 382.465 228.742 382.465C222.141 382.465 216.457 381.762 211.691 380.355C206.926 378.91 203.039 376.703 200.031 373.734C197.023 370.727 194.816 366.898 193.41 362.25C192.004 357.562 191.301 351.977 191.301 345.492ZM346.757 308.52H307.558V329.613H343.652C346.308 329.613 348.28 330.219 349.57 331.43C350.898 332.602 351.562 334.164 351.562 336.117C351.562 338.07 350.917 339.672 349.628 340.922C348.339 342.133 346.347 342.738 343.652 342.738H307.558V367.172H348.105C350.839 367.172 352.89 367.816 354.257 369.105C355.663 370.355 356.366 372.035 356.366 374.145C356.366 376.176 355.663 377.836 354.257 379.125C352.89 380.375 350.839 381 348.105 381H300.82C297.03 381 294.296 380.16 292.616 378.48C290.976 376.801 290.155 374.086 290.155 370.336V305.766C290.155 303.266 290.527 301.234 291.269 299.672C292.011 298.07 293.163 296.918 294.726 296.215C296.327 295.473 298.359 295.102 300.82 295.102H346.757C349.53 295.102 351.581 295.727 352.909 296.977C354.277 298.188 354.96 299.789 354.96 301.781C354.96 303.812 354.277 305.453 352.909 306.703C351.581 307.914 349.53 308.52 346.757 308.52Z" fill="white"/>
</g>
<defs>
<clipPath id="clip0">
<rect width="512" height="512" fill="white"/>
</clipPath>
</defs>
</svg>
