<svg width="512" height="512" viewBox="0 0 512 512" fill="none" xmlns="http://www.w3.org/2000/svg">
<g clip-path="url(#clip0)">
<path d="M95.5 485V433L96 239.5V25C101.6 5.4 118.333 0.5 126 0.5H352L479 128V330V489C472.2 506.6 458.167 511.667 452 512C347 511.833 135.8 511.6 131 512C125 512.5 118 510.5 108 504.5C100 499.7 96.3333 489.5 95.5 485Z" fill="#E2E5E7"/>
<path d="M479 223V128L466 115H450.5L373.5 117L479 223Z" fill="#CAD1D8"/>
<path d="M352 98V0.5L478.5 128H384.5C360.1 126.4 352.667 107.333 352 98Z" fill="#B0B7BD"/>
<path d="M97 402V447.5L402 448C412.4 446.8 415.667 438.5 416 434.5V402H97Z" fill="#CAD1D8"/>
<rect x="32" y="240" width="384" height="192" rx="16" fill="#A066AA"/>
<path d="M164.575 353.871C164.575 356.605 163.891 359.574 162.524 362.777C161.196 365.941 159.087 369.066 156.196 372.152C153.305 375.199 149.614 377.68 145.122 379.594C140.63 381.508 135.395 382.465 129.419 382.465C124.887 382.465 120.766 382.035 117.055 381.176C113.345 380.316 109.966 378.988 106.919 377.191C103.911 375.355 101.137 372.953 98.5984 369.984C96.3328 367.289 94.3992 364.281 92.7977 360.961C91.1961 357.602 89.9852 354.027 89.1648 350.238C88.3836 346.449 87.993 342.426 87.993 338.168C87.993 331.254 88.9891 325.062 90.9812 319.594C93.0125 314.125 95.9031 309.457 99.6531 305.59C103.403 301.684 107.798 298.715 112.837 296.684C117.876 294.652 123.247 293.637 128.95 293.637C135.903 293.637 142.095 295.023 147.524 297.797C152.954 300.57 157.114 304.008 160.005 308.109C162.895 312.172 164.341 316.02 164.341 319.652C164.341 321.645 163.637 323.402 162.231 324.926C160.825 326.449 159.126 327.211 157.134 327.211C154.907 327.211 153.227 326.684 152.095 325.629C151.001 324.574 149.77 322.758 148.403 320.18C146.137 315.922 143.462 312.738 140.376 310.629C137.329 308.52 133.559 307.465 129.067 307.465C121.919 307.465 116.216 310.18 111.958 315.609C107.739 321.039 105.63 328.754 105.63 338.754C105.63 345.434 106.567 351 108.442 355.453C110.317 359.867 112.973 363.168 116.411 365.355C119.848 367.543 123.872 368.637 128.481 368.637C133.481 368.637 137.7 367.406 141.137 364.945C144.614 362.445 147.231 358.793 148.989 353.988C149.731 351.723 150.649 349.887 151.743 348.48C152.837 347.035 154.595 346.312 157.016 346.312C159.087 346.312 160.864 347.035 162.348 348.48C163.833 349.926 164.575 351.723 164.575 353.871ZM188.137 345.492V304.184C188.137 300.668 188.918 298.031 190.48 296.273C192.082 294.516 194.172 293.637 196.75 293.637C199.445 293.637 201.574 294.516 203.137 296.273C204.738 298.031 205.539 300.668 205.539 304.184V346.43C205.539 351.234 206.066 355.258 207.121 358.5C208.215 361.703 210.129 364.203 212.863 366C215.598 367.758 219.426 368.637 224.348 368.637C231.145 368.637 235.949 366.84 238.762 363.246C241.574 359.613 242.98 354.125 242.98 346.781V304.184C242.98 300.629 243.762 297.992 245.324 296.273C246.887 294.516 248.977 293.637 251.594 293.637C254.211 293.637 256.32 294.516 257.922 296.273C259.562 297.992 260.383 300.629 260.383 304.184V345.492C260.383 352.211 259.719 357.816 258.391 362.309C257.102 366.801 254.641 370.746 251.008 374.145C247.883 377.035 244.25 379.145 240.109 380.473C235.969 381.801 231.125 382.465 225.578 382.465C218.977 382.465 213.293 381.762 208.527 380.355C203.762 378.91 199.875 376.703 196.867 373.734C193.859 370.727 191.652 366.898 190.246 362.25C188.84 357.562 188.137 351.977 188.137 345.492ZM310.37 344.262H304.277V371.859C304.277 375.492 303.476 378.168 301.874 379.887C300.273 381.605 298.183 382.465 295.605 382.465C292.831 382.465 290.683 381.566 289.159 379.77C287.636 377.973 286.874 375.336 286.874 371.859V305.766C286.874 302.016 287.714 299.301 289.394 297.621C291.073 295.941 293.788 295.102 297.538 295.102H325.839C329.745 295.102 333.085 295.277 335.859 295.629C338.632 295.941 341.132 296.605 343.359 297.621C346.054 298.754 348.437 300.375 350.507 302.484C352.577 304.594 354.14 307.055 355.195 309.867C356.288 312.641 356.835 315.59 356.835 318.715C356.835 325.121 355.019 330.238 351.386 334.066C347.792 337.895 342.323 340.609 334.98 342.211C338.066 343.852 341.015 346.273 343.827 349.477C346.64 352.68 349.14 356.098 351.327 359.73C353.554 363.324 355.273 366.586 356.484 369.516C357.734 372.406 358.359 374.398 358.359 375.492C358.359 376.625 357.988 377.758 357.245 378.891C356.542 379.984 355.566 380.844 354.316 381.469C353.066 382.133 351.62 382.465 349.98 382.465C348.027 382.465 346.386 381.996 345.058 381.059C343.73 380.16 342.577 379.008 341.601 377.602C340.663 376.195 339.374 374.125 337.734 371.391L330.761 359.789C328.261 355.531 326.015 352.289 324.023 350.062C322.07 347.836 320.077 346.312 318.046 345.492C316.015 344.672 313.456 344.262 310.37 344.262ZM320.331 308.168H304.277V331.781H319.863C324.042 331.781 327.558 331.43 330.409 330.727C333.261 329.984 335.429 328.754 336.913 327.035C338.437 325.277 339.198 322.875 339.198 319.828C339.198 317.445 338.593 315.355 337.382 313.559C336.171 311.723 334.491 310.355 332.343 309.457C330.312 308.598 326.308 308.168 320.331 308.168Z" fill="white"/>
</g>
<defs>
<clipPath id="clip0">
<rect width="512" height="512" fill="white"/>
</clipPath>
</defs>
</svg>
