<svg width="512" height="512" viewBox="0 0 512 512" fill="none" xmlns="http://www.w3.org/2000/svg">
<g clip-path="url(#clip0)">
<path d="M95.5 485V433L96 239.5V25C101.6 5.4 118.333 0.5 126 0.5H352L479 128V330V489C472.2 506.6 458.167 511.667 452 512C347 511.833 135.8 511.6 131 512C125 512.5 118 510.5 108 504.5C100 499.7 96.3333 489.5 95.5 485Z" fill="#E2E5E7"/>
<path d="M479 223V128L466 115H450.5L373.5 117L479 223Z" fill="#CAD1D8"/>
<path d="M352 98V0.5L478.5 128H384.5C360.1 126.4 352.667 107.333 352 98Z" fill="#B0B7BD"/>
<path d="M97 402V447.5L402 448C412.4 446.8 415.667 438.5 416 434.5V402H97Z" fill="#CAD1D8"/>
<rect x="32" y="240" width="384" height="192" rx="16" fill="#576D7E"/>
<path d="M118.317 295.102H140.993C146.891 295.102 151.95 295.648 156.169 296.742C160.387 297.836 164.216 299.887 167.653 302.895C176.598 310.551 181.071 322.191 181.071 337.816C181.071 342.973 180.622 347.68 179.723 351.938C178.825 356.195 177.438 360.043 175.563 363.48C173.688 366.879 171.286 369.926 168.356 372.621C166.052 374.691 163.532 376.352 160.798 377.602C158.063 378.852 155.114 379.73 151.95 380.238C148.825 380.746 145.29 381 141.345 381H118.669C115.505 381 113.122 380.531 111.52 379.594C109.919 378.617 108.864 377.27 108.356 375.551C107.887 373.793 107.653 371.527 107.653 368.754V305.766C107.653 302.016 108.493 299.301 110.173 297.621C111.852 295.941 114.567 295.102 118.317 295.102ZM125.055 308.871V367.172H138.239C141.13 367.172 143.395 367.094 145.036 366.938C146.677 366.781 148.376 366.391 150.134 365.766C151.891 365.141 153.415 364.262 154.704 363.129C160.524 358.207 163.434 349.73 163.434 337.699C163.434 329.223 162.145 322.875 159.567 318.656C157.028 314.438 153.884 311.762 150.134 310.629C146.384 309.457 141.852 308.871 136.54 308.871H125.055ZM254.555 371.273L250.453 360.492H215.531L211.43 371.508C209.828 375.805 208.461 378.715 207.328 380.238C206.195 381.723 204.34 382.465 201.762 382.465C199.574 382.465 197.641 381.664 195.961 380.062C194.281 378.461 193.441 376.645 193.441 374.613C193.441 373.441 193.637 372.23 194.027 370.98C194.418 369.73 195.062 367.992 195.961 365.766L217.934 309.984C218.559 308.383 219.301 306.469 220.16 304.242C221.059 301.977 221.996 300.102 222.973 298.617C223.988 297.133 225.297 295.941 226.898 295.043C228.539 294.105 230.551 293.637 232.934 293.637C235.355 293.637 237.367 294.105 238.969 295.043C240.609 295.941 241.918 297.113 242.895 298.559C243.91 300.004 244.75 301.566 245.414 303.246C246.117 304.887 246.996 307.094 248.051 309.867L270.492 365.297C272.25 369.516 273.129 372.582 273.129 374.496C273.129 376.488 272.289 378.324 270.609 380.004C268.969 381.645 266.977 382.465 264.633 382.465C263.266 382.465 262.094 382.211 261.117 381.703C260.141 381.234 259.32 380.59 258.656 379.77C257.992 378.91 257.27 377.621 256.488 375.902C255.746 374.145 255.102 372.602 254.555 371.273ZM220.102 347.426H245.766L232.816 311.977L220.102 347.426ZM338.995 309.457H320.011V371.859C320.011 375.453 319.21 378.129 317.609 379.887C316.007 381.605 313.937 382.465 311.398 382.465C308.82 382.465 306.71 381.586 305.07 379.828C303.468 378.07 302.667 375.414 302.667 371.859V309.457H283.683C280.714 309.457 278.507 308.812 277.062 307.523C275.616 306.195 274.894 304.457 274.894 302.309C274.894 300.082 275.636 298.324 277.12 297.035C278.644 295.746 280.831 295.102 283.683 295.102H338.995C342.003 295.102 344.23 295.766 345.675 297.094C347.159 298.422 347.902 300.16 347.902 302.309C347.902 304.457 347.159 306.195 345.675 307.523C344.191 308.812 341.964 309.457 338.995 309.457Z" fill="white"/>
</g>
<defs>
<clipPath id="clip0">
<rect width="512" height="512" fill="white"/>
</clipPath>
</defs>
</svg>
