<svg width="512" height="512" viewBox="0 0 512 512" fill="none" xmlns="http://www.w3.org/2000/svg">
<g clip-path="url(#clip0)">
<path d="M95.5 485V433L96 239.5V25C101.6 5.4 118.333 0.5 126 0.5H352L479 128V330V489C472.2 506.6 458.167 511.667 452 512C347 511.833 135.8 511.6 131 512C125 512.5 118 510.5 108 504.5C100 499.7 96.3333 489.5 95.5 485Z" fill="#E2E5E7"/>
<path d="M479 223V128L466 115H450.5L373.5 117L479 223Z" fill="#CAD1D8"/>
<path d="M352 98V0.5L478.5 128H384.5C360.1 126.4 352.667 107.333 352 98Z" fill="#B0B7BD"/>
<path d="M97 402V447.5L402 448C412.4 446.8 415.667 438.5 416 434.5V402H97Z" fill="#CAD1D8"/>
<rect x="32" y="240" width="384" height="192" rx="16" fill="#576D7E"/>
<path d="M152.159 295.102H174.834C180.733 295.102 185.791 295.648 190.01 296.742C194.229 297.836 198.057 299.887 201.495 302.895C210.44 310.551 214.912 322.191 214.912 337.816C214.912 342.973 214.463 347.68 213.565 351.938C212.666 356.195 211.28 360.043 209.405 363.48C207.53 366.879 205.127 369.926 202.198 372.621C199.893 374.691 197.373 376.352 194.639 377.602C191.905 378.852 188.955 379.73 185.791 380.238C182.666 380.746 179.131 381 175.186 381H152.51C149.346 381 146.963 380.531 145.362 379.594C143.76 378.617 142.705 377.27 142.198 375.551C141.729 373.793 141.495 371.527 141.495 368.754V305.766C141.495 302.016 142.334 299.301 144.014 297.621C145.694 295.941 148.409 295.102 152.159 295.102ZM158.897 308.871V367.172H172.08C174.971 367.172 177.237 367.094 178.877 366.938C180.518 366.781 182.217 366.391 183.975 365.766C185.733 365.141 187.256 364.262 188.545 363.129C194.366 358.207 197.276 349.73 197.276 337.699C197.276 329.223 195.987 322.875 193.409 318.656C190.87 314.438 187.725 311.762 183.975 310.629C180.225 309.457 175.694 308.871 170.381 308.871H158.897ZM274.685 381H248.435C244.646 381 241.931 380.16 240.291 378.48C238.689 376.762 237.888 374.047 237.888 370.336V305.766C237.888 301.977 238.709 299.262 240.349 297.621C242.029 295.941 244.724 295.102 248.435 295.102H276.267C280.369 295.102 283.923 295.355 286.931 295.863C289.939 296.371 292.634 297.348 295.017 298.793C297.048 300.004 298.845 301.547 300.408 303.422C301.97 305.258 303.162 307.309 303.982 309.574C304.802 311.801 305.213 314.164 305.213 316.664C305.213 325.258 300.916 331.547 292.322 335.531C303.611 339.125 309.255 346.117 309.255 356.508C309.255 361.312 308.025 365.648 305.564 369.516C303.103 373.344 299.783 376.176 295.603 378.012C292.986 379.105 289.978 379.887 286.58 380.355C283.181 380.785 279.216 381 274.685 381ZM273.396 342.855H255.291V367.934H273.982C285.74 367.934 291.619 363.695 291.619 355.219C291.619 350.883 290.095 347.738 287.048 345.785C284.002 343.832 279.451 342.855 273.396 342.855ZM255.291 308.168V330.375H271.228C275.564 330.375 278.904 329.965 281.248 329.145C283.63 328.324 285.447 326.762 286.697 324.457C287.673 322.816 288.162 320.98 288.162 318.949C288.162 314.613 286.619 311.742 283.533 310.336C280.447 308.891 275.74 308.168 269.412 308.168H255.291Z" fill="white"/>
</g>
<defs>
<clipPath id="clip0">
<rect width="512" height="512" fill="white"/>
</clipPath>
</defs>
</svg>
