<svg width="512" height="512" viewBox="0 0 512 512" fill="none" xmlns="http://www.w3.org/2000/svg">
<g clip-path="url(#clip0)">
<path d="M95.5 485V433L96 239.5V25C101.6 5.4 118.333 0.5 126 0.5H352L479 128V330V489C472.2 506.6 458.167 511.667 452 512C347 511.833 135.8 511.6 131 512C125 512.5 118 510.5 108 504.5C100 499.7 96.3333 489.5 95.5 485Z" fill="#E2E5E7"/>
<path d="M479 223V128L466 115H450.5L373.5 117L479 223Z" fill="#CAD1D8"/>
<path d="M352 98V0.5L478.5 128H384.5C360.1 126.4 352.667 107.333 352 98Z" fill="#B0B7BD"/>
<path d="M97 402V447.5L402 448C412.4 446.8 415.667 438.5 416 434.5V402H97Z" fill="#CAD1D8"/>
<rect x="32" y="240" width="384" height="192" rx="16" fill="#576D7E"/>
<path d="M111.489 295.102H134.165C140.063 295.102 145.122 295.648 149.341 296.742C153.559 297.836 157.387 299.887 160.825 302.895C169.77 310.551 174.243 322.191 174.243 337.816C174.243 342.973 173.794 347.68 172.895 351.938C171.997 356.195 170.61 360.043 168.735 363.48C166.86 366.879 164.458 369.926 161.528 372.621C159.223 374.691 156.704 376.352 153.97 377.602C151.235 378.852 148.286 379.73 145.122 380.238C141.997 380.746 138.462 381 134.516 381H111.841C108.677 381 106.294 380.531 104.692 379.594C103.091 378.617 102.036 377.27 101.528 375.551C101.059 373.793 100.825 371.527 100.825 368.754V305.766C100.825 302.016 101.665 299.301 103.345 297.621C105.024 295.941 107.739 295.102 111.489 295.102ZM118.227 308.871V367.172H131.411C134.302 367.172 136.567 367.094 138.208 366.938C139.848 366.781 141.548 366.391 143.305 365.766C145.063 365.141 146.587 364.262 147.876 363.129C153.696 358.207 156.606 349.73 156.606 337.699C156.606 329.223 155.317 322.875 152.739 318.656C150.2 314.438 147.055 311.762 143.305 310.629C139.555 309.457 135.024 308.871 129.712 308.871H118.227ZM234.016 381H207.766C203.977 381 201.262 380.16 199.621 378.48C198.02 376.762 197.219 374.047 197.219 370.336V305.766C197.219 301.977 198.039 299.262 199.68 297.621C201.359 295.941 204.055 295.102 207.766 295.102H235.598C239.699 295.102 243.254 295.355 246.262 295.863C249.27 296.371 251.965 297.348 254.348 298.793C256.379 300.004 258.176 301.547 259.738 303.422C261.301 305.258 262.492 307.309 263.312 309.574C264.133 311.801 264.543 314.164 264.543 316.664C264.543 325.258 260.246 331.547 251.652 335.531C262.941 339.125 268.586 346.117 268.586 356.508C268.586 361.312 267.355 365.648 264.895 369.516C262.434 373.344 259.113 376.176 254.934 378.012C252.316 379.105 249.309 379.887 245.91 380.355C242.512 380.785 238.547 381 234.016 381ZM232.727 342.855H214.621V367.934H233.312C245.07 367.934 250.949 363.695 250.949 355.219C250.949 350.883 249.426 347.738 246.379 345.785C243.332 343.832 238.781 342.855 232.727 342.855ZM214.621 308.168V330.375H230.559C234.895 330.375 238.234 329.965 240.578 329.145C242.961 328.324 244.777 326.762 246.027 324.457C247.004 322.816 247.492 320.98 247.492 318.949C247.492 314.613 245.949 311.742 242.863 310.336C239.777 308.891 235.07 308.168 228.742 308.168H214.621ZM342.831 308.52H308.554V330.492H337.206C339.863 330.492 341.835 331.098 343.124 332.309C344.452 333.48 345.116 335.062 345.116 337.055C345.116 339.047 344.452 340.629 343.124 341.801C341.796 342.973 339.823 343.559 337.206 343.559H308.554V371.859C308.554 375.453 307.734 378.129 306.093 379.887C304.491 381.605 302.421 382.465 299.882 382.465C297.304 382.465 295.195 381.586 293.554 379.828C291.952 378.07 291.152 375.414 291.152 371.859V305.766C291.152 303.266 291.523 301.234 292.265 299.672C293.007 298.07 294.159 296.918 295.722 296.215C297.323 295.473 299.355 295.102 301.816 295.102H342.831C345.605 295.102 347.655 295.727 348.984 296.977C350.351 298.188 351.034 299.789 351.034 301.781C351.034 303.812 350.351 305.453 348.984 306.703C347.655 307.914 345.605 308.52 342.831 308.52Z" fill="white"/>
</g>
<defs>
<clipPath id="clip0">
<rect width="512" height="512" fill="white"/>
</clipPath>
</defs>
</svg>
