<svg width="512" height="512" viewBox="0 0 512 512" fill="none" xmlns="http://www.w3.org/2000/svg">
<g clip-path="url(#clip0)">
<path d="M95.5 485V433L96 239.5V25C101.6 5.4 118.333 0.5 126 0.5H352L479 128V330V489C472.2 506.6 458.167 511.667 452 512C347 511.833 135.8 511.6 131 512C125 512.5 118 510.5 108 504.5C100 499.7 96.3333 489.5 95.5 485Z" fill="#E2E5E7"/>
<path d="M479 223V128L466 115H450.5L373.5 117L479 223Z" fill="#CAD1D8"/>
<path d="M352 98V0.5L478.5 128H384.5C360.1 126.4 352.667 107.333 352 98Z" fill="#B0B7BD"/>
<path d="M97 402V447.5L402 448C412.4 446.8 415.667 438.5 416 434.5V402H97Z" fill="#CAD1D8"/>
<rect x="32" y="240" width="384" height="192" rx="16" fill="#576D7E"/>
<path d="M103.345 295.102H126.02C131.919 295.102 136.977 295.648 141.196 296.742C145.415 297.836 149.243 299.887 152.68 302.895C161.626 310.551 166.098 322.191 166.098 337.816C166.098 342.973 165.649 347.68 164.751 351.938C163.852 356.195 162.466 360.043 160.591 363.48C158.716 366.879 156.313 369.926 153.384 372.621C151.079 374.691 148.559 376.352 145.825 377.602C143.091 378.852 140.141 379.73 136.977 380.238C133.852 380.746 130.317 381 126.372 381H103.696C100.532 381 98.1492 380.531 96.5477 379.594C94.9461 378.617 93.8914 377.27 93.3836 375.551C92.9148 373.793 92.6805 371.527 92.6805 368.754V305.766C92.6805 302.016 93.5203 299.301 95.2 297.621C96.8797 295.941 99.5945 295.102 103.345 295.102ZM110.083 308.871V367.172H123.266C126.157 367.172 128.423 367.094 130.063 366.938C131.704 366.781 133.403 366.391 135.161 365.766C136.919 365.141 138.442 364.262 139.731 363.129C145.552 358.207 148.462 349.73 148.462 337.699C148.462 329.223 147.173 322.875 144.595 318.656C142.055 314.438 138.911 311.762 135.161 310.629C131.411 309.457 126.88 308.871 121.567 308.871H110.083ZM262.375 353.871C262.375 356.605 261.691 359.574 260.324 362.777C258.996 365.941 256.887 369.066 253.996 372.152C251.105 375.199 247.414 377.68 242.922 379.594C238.43 381.508 233.195 382.465 227.219 382.465C222.688 382.465 218.566 382.035 214.855 381.176C211.145 380.316 207.766 378.988 204.719 377.191C201.711 375.355 198.938 372.953 196.398 369.984C194.133 367.289 192.199 364.281 190.598 360.961C188.996 357.602 187.785 354.027 186.965 350.238C186.184 346.449 185.793 342.426 185.793 338.168C185.793 331.254 186.789 325.062 188.781 319.594C190.812 314.125 193.703 309.457 197.453 305.59C201.203 301.684 205.598 298.715 210.637 296.684C215.676 294.652 221.047 293.637 226.75 293.637C233.703 293.637 239.895 295.023 245.324 297.797C250.754 300.57 254.914 304.008 257.805 308.109C260.695 312.172 262.141 316.02 262.141 319.652C262.141 321.645 261.438 323.402 260.031 324.926C258.625 326.449 256.926 327.211 254.934 327.211C252.707 327.211 251.027 326.684 249.895 325.629C248.801 324.574 247.57 322.758 246.203 320.18C243.938 315.922 241.262 312.738 238.176 310.629C235.129 308.52 231.359 307.465 226.867 307.465C219.719 307.465 214.016 310.18 209.758 315.609C205.539 321.039 203.43 328.754 203.43 338.754C203.43 345.434 204.367 351 206.242 355.453C208.117 359.867 210.773 363.168 214.211 365.355C217.648 367.543 221.672 368.637 226.281 368.637C231.281 368.637 235.5 367.406 238.938 364.945C242.414 362.445 245.031 358.793 246.789 353.988C247.531 351.723 248.449 349.887 249.543 348.48C250.637 347.035 252.395 346.312 254.816 346.312C256.887 346.312 258.664 347.035 260.148 348.48C261.633 349.926 262.375 351.723 262.375 353.871ZM309.198 344.262H303.105V371.859C303.105 375.492 302.304 378.168 300.702 379.887C299.101 381.605 297.011 382.465 294.433 382.465C291.659 382.465 289.511 381.566 287.988 379.77C286.464 377.973 285.702 375.336 285.702 371.859V305.766C285.702 302.016 286.542 299.301 288.222 297.621C289.902 295.941 292.616 295.102 296.366 295.102H324.667C328.573 295.102 331.913 295.277 334.687 295.629C337.46 295.941 339.96 296.605 342.187 297.621C344.882 298.754 347.265 300.375 349.335 302.484C351.405 304.594 352.968 307.055 354.023 309.867C355.116 312.641 355.663 315.59 355.663 318.715C355.663 325.121 353.847 330.238 350.214 334.066C346.62 337.895 341.152 340.609 333.808 342.211C336.894 343.852 339.843 346.273 342.655 349.477C345.468 352.68 347.968 356.098 350.155 359.73C352.382 363.324 354.101 366.586 355.312 369.516C356.562 372.406 357.187 374.398 357.187 375.492C357.187 376.625 356.816 377.758 356.073 378.891C355.37 379.984 354.394 380.844 353.144 381.469C351.894 382.133 350.448 382.465 348.808 382.465C346.855 382.465 345.214 381.996 343.886 381.059C342.558 380.16 341.405 379.008 340.429 377.602C339.491 376.195 338.202 374.125 336.562 371.391L329.589 359.789C327.089 355.531 324.843 352.289 322.851 350.062C320.898 347.836 318.905 346.312 316.874 345.492C314.843 344.672 312.284 344.262 309.198 344.262ZM319.159 308.168H303.105V331.781H318.691C322.87 331.781 326.386 331.43 329.238 330.727C332.089 329.984 334.257 328.754 335.741 327.035C337.265 325.277 338.027 322.875 338.027 319.828C338.027 317.445 337.421 315.355 336.21 313.559C334.999 311.723 333.32 310.355 331.171 309.457C329.14 308.598 325.136 308.168 319.159 308.168Z" fill="white"/>
</g>
<defs>
<clipPath id="clip0">
<rect width="512" height="512" fill="white"/>
</clipPath>
</defs>
</svg>
