<svg width="512" height="512" viewBox="0 0 512 512" fill="none" xmlns="http://www.w3.org/2000/svg">
<g clip-path="url(#clip0)">
<path d="M95.5 485V433L96 239.5V25C101.6 5.4 118.333 0.5 126 0.5H352L479 128V330V489C472.2 506.6 458.167 511.667 452 512C347 511.833 135.8 511.6 131 512C125 512.5 118 510.5 108 504.5C100 499.7 96.3333 489.5 95.5 485Z" fill="#E2E5E7"/>
<path d="M479 223V128L466 115H450.5L373.5 117L479 223Z" fill="#CAD1D8"/>
<path d="M352 98V0.5L478.5 128H384.5C360.1 126.4 352.667 107.333 352 98Z" fill="#B0B7BD"/>
<path d="M97 402V447.5L402 448C412.4 446.8 415.667 438.5 416 434.5V402H97Z" fill="#CAD1D8"/>
<rect x="32" y="240" width="384" height="192" rx="16" fill="#576D7E"/>
<path d="M106.509 295.102H129.184C135.083 295.102 140.141 295.648 144.36 296.742C148.579 297.836 152.407 299.887 155.845 302.895C164.79 310.551 169.262 322.191 169.262 337.816C169.262 342.973 168.813 347.68 167.915 351.938C167.016 356.195 165.63 360.043 163.755 363.48C161.88 366.879 159.477 369.926 156.548 372.621C154.243 374.691 151.723 376.352 148.989 377.602C146.255 378.852 143.305 379.73 140.141 380.238C137.016 380.746 133.481 381 129.536 381H106.86C103.696 381 101.313 380.531 99.7117 379.594C98.1102 378.617 97.0555 377.27 96.5477 375.551C96.0789 373.793 95.8445 371.527 95.8445 368.754V305.766C95.8445 302.016 96.6844 299.301 98.3641 297.621C100.044 295.941 102.759 295.102 106.509 295.102ZM113.247 308.871V367.172H126.43C129.321 367.172 131.587 367.094 133.227 366.938C134.868 366.781 136.567 366.391 138.325 365.766C140.083 365.141 141.606 364.262 142.895 363.129C148.716 358.207 151.626 349.73 151.626 337.699C151.626 329.223 150.337 322.875 147.759 318.656C145.22 314.438 142.075 311.762 138.325 310.629C134.575 309.457 130.044 308.871 124.731 308.871H113.247ZM203.137 295.102H225.812C231.711 295.102 236.77 295.648 240.988 296.742C245.207 297.836 249.035 299.887 252.473 302.895C261.418 310.551 265.891 322.191 265.891 337.816C265.891 342.973 265.441 347.68 264.543 351.938C263.645 356.195 262.258 360.043 260.383 363.48C258.508 366.879 256.105 369.926 253.176 372.621C250.871 374.691 248.352 376.352 245.617 377.602C242.883 378.852 239.934 379.73 236.77 380.238C233.645 380.746 230.109 381 226.164 381H203.488C200.324 381 197.941 380.531 196.34 379.594C194.738 378.617 193.684 377.27 193.176 375.551C192.707 373.793 192.473 371.527 192.473 368.754V305.766C192.473 302.016 193.312 299.301 194.992 297.621C196.672 295.941 199.387 295.102 203.137 295.102ZM209.875 308.871V367.172H223.059C225.949 367.172 228.215 367.094 229.855 366.938C231.496 366.781 233.195 366.391 234.953 365.766C236.711 365.141 238.234 364.262 239.523 363.129C245.344 358.207 248.254 349.73 248.254 337.699C248.254 329.223 246.965 322.875 244.387 318.656C241.848 314.438 238.703 311.762 234.953 310.629C231.203 309.457 226.672 308.871 221.359 308.871H209.875ZM354.257 355.219C354.257 360.414 352.909 365.082 350.214 369.223C347.558 373.363 343.652 376.605 338.495 378.949C333.339 381.293 327.226 382.465 320.155 382.465C311.679 382.465 304.687 380.863 299.179 377.66C295.273 375.355 292.089 372.289 289.628 368.461C287.206 364.594 285.995 360.844 285.995 357.211C285.995 355.102 286.718 353.305 288.163 351.82C289.648 350.297 291.523 349.535 293.788 349.535C295.624 349.535 297.167 350.121 298.417 351.293C299.706 352.465 300.8 354.203 301.698 356.508C302.792 359.242 303.964 361.527 305.214 363.363C306.503 365.199 308.3 366.723 310.605 367.934C312.909 369.105 315.937 369.691 319.687 369.691C324.843 369.691 329.023 368.5 332.226 366.117C335.468 363.695 337.089 360.688 337.089 357.094C337.089 354.242 336.21 351.938 334.452 350.18C332.734 348.383 330.488 347.016 327.714 346.078C324.98 345.141 321.308 344.145 316.698 343.09C310.527 341.645 305.351 339.965 301.171 338.051C297.03 336.098 293.73 333.461 291.269 330.141C288.847 326.781 287.636 322.621 287.636 317.66C287.636 312.934 288.925 308.734 291.503 305.062C294.081 301.391 297.812 298.578 302.695 296.625C307.577 294.633 313.32 293.637 319.921 293.637C325.195 293.637 329.745 294.301 333.573 295.629C337.441 296.918 340.644 298.656 343.183 300.844C345.722 302.992 347.577 305.258 348.749 307.641C349.921 310.023 350.507 312.348 350.507 314.613C350.507 316.684 349.765 318.559 348.28 320.238C346.835 321.879 345.019 322.699 342.831 322.699C340.839 322.699 339.316 322.211 338.261 321.234C337.245 320.219 336.132 318.578 334.921 316.312C333.359 313.07 331.484 310.551 329.296 308.754C327.109 306.918 323.593 306 318.749 306C314.257 306 310.624 306.996 307.851 308.988C305.116 310.941 303.749 313.305 303.749 316.078C303.749 317.797 304.218 319.281 305.155 320.531C306.093 321.781 307.382 322.855 309.023 323.754C310.663 324.652 312.323 325.355 314.003 325.863C315.683 326.371 318.456 327.113 322.323 328.09C327.167 329.223 331.542 330.473 335.448 331.84C339.394 333.207 342.734 334.867 345.468 336.82C348.241 338.773 350.39 341.254 351.913 344.262C353.476 347.23 354.257 350.883 354.257 355.219Z" fill="white"/>
</g>
<defs>
<clipPath id="clip0">
<rect width="512" height="512" fill="white"/>
</clipPath>
</defs>
</svg>
