<svg width="512" height="512" viewBox="0 0 512 512" fill="none" xmlns="http://www.w3.org/2000/svg">
<g clip-path="url(#clip0)">
<path d="M95.5 485V433L96 239.5V25C101.6 5.4 118.333 0.5 126 0.5H352L479 128V330V489C472.2 506.6 458.167 511.667 452 512C347 511.833 135.8 511.6 131 512C125 512.5 118 510.5 108 504.5C100 499.7 96.3333 489.5 95.5 485Z" fill="#E2E5E7"/>
<path d="M479 223V128L466 115H450.5L373.5 117L479 223Z" fill="#CAD1D8"/>
<path d="M352 98V0.5L478.5 128H384.5C360.1 126.4 352.667 107.333 352 98Z" fill="#B0B7BD"/>
<path d="M97 402V447.5L402 448C412.4 446.8 415.667 438.5 416 434.5V402H97Z" fill="#CAD1D8"/>
<rect x="32" y="240" width="384" height="192" rx="16" fill="#576D7E"/>
<path d="M108.239 295.102H130.915C136.813 295.102 141.872 295.648 146.091 296.742C150.309 297.836 154.137 299.887 157.575 302.895C166.52 310.551 170.993 322.191 170.993 337.816C170.993 342.973 170.544 347.68 169.645 351.938C168.747 356.195 167.36 360.043 165.485 363.48C163.61 366.879 161.208 369.926 158.278 372.621C155.973 374.691 153.454 376.352 150.72 377.602C147.985 378.852 145.036 379.73 141.872 380.238C138.747 380.746 135.212 381 131.266 381H108.591C105.427 381 103.044 380.531 101.442 379.594C99.8406 378.617 98.7859 377.27 98.2781 375.551C97.8094 373.793 97.575 371.527 97.575 368.754V305.766C97.575 302.016 98.4148 299.301 100.095 297.621C101.774 295.941 104.489 295.102 108.239 295.102ZM114.977 308.871V367.172H128.161C131.052 367.172 133.317 367.094 134.958 366.938C136.598 366.781 138.298 366.391 140.055 365.766C141.813 365.141 143.337 364.262 144.626 363.129C150.446 358.207 153.356 349.73 153.356 337.699C153.356 329.223 152.067 322.875 149.489 318.656C146.95 314.438 143.805 311.762 140.055 310.629C136.305 309.457 131.774 308.871 126.462 308.871H114.977ZM250.688 308.52H211.488V329.613H247.582C250.238 329.613 252.211 330.219 253.5 331.43C254.828 332.602 255.492 334.164 255.492 336.117C255.492 338.07 254.848 339.672 253.559 340.922C252.27 342.133 250.277 342.738 247.582 342.738H211.488V367.172H252.035C254.77 367.172 256.82 367.816 258.188 369.105C259.594 370.355 260.297 372.035 260.297 374.145C260.297 376.176 259.594 377.836 258.188 379.125C256.82 380.375 254.77 381 252.035 381H204.75C200.961 381 198.227 380.16 196.547 378.48C194.906 376.801 194.086 374.086 194.086 370.336V305.766C194.086 303.266 194.457 301.234 195.199 299.672C195.941 298.07 197.094 296.918 198.656 296.215C200.258 295.473 202.289 295.102 204.75 295.102H250.688C253.461 295.102 255.512 295.727 256.84 296.977C258.207 298.188 258.891 299.789 258.891 301.781C258.891 303.812 258.207 305.453 256.84 306.703C255.512 307.914 253.461 308.52 250.688 308.52ZM318.605 381H292.355C288.566 381 285.851 380.16 284.21 378.48C282.609 376.762 281.808 374.047 281.808 370.336V305.766C281.808 301.977 282.628 299.262 284.269 297.621C285.948 295.941 288.644 295.102 292.355 295.102H320.187C324.288 295.102 327.843 295.355 330.851 295.863C333.859 296.371 336.554 297.348 338.937 298.793C340.968 300.004 342.765 301.547 344.327 303.422C345.89 305.258 347.081 307.309 347.902 309.574C348.722 311.801 349.132 314.164 349.132 316.664C349.132 325.258 344.835 331.547 336.241 335.531C347.53 339.125 353.175 346.117 353.175 356.508C353.175 361.312 351.945 365.648 349.484 369.516C347.023 373.344 343.702 376.176 339.523 378.012C336.905 379.105 333.898 379.887 330.499 380.355C327.101 380.785 323.136 381 318.605 381ZM317.316 342.855H299.21V367.934H317.902C329.659 367.934 335.538 363.695 335.538 355.219C335.538 350.883 334.015 347.738 330.968 345.785C327.921 343.832 323.37 342.855 317.316 342.855ZM299.21 308.168V330.375H315.148C319.484 330.375 322.823 329.965 325.167 329.145C327.55 328.324 329.366 326.762 330.616 324.457C331.593 322.816 332.081 320.98 332.081 318.949C332.081 314.613 330.538 311.742 327.452 310.336C324.366 308.891 319.659 308.168 313.331 308.168H299.21Z" fill="white"/>
</g>
<defs>
<clipPath id="clip0">
<rect width="512" height="512" fill="white"/>
</clipPath>
</defs>
</svg>
