<svg width="512" height="512" viewBox="0 0 512 512" fill="none" xmlns="http://www.w3.org/2000/svg">
<g clip-path="url(#clip0)">
<path d="M95.5 485V433L96 239.5V25C101.6 5.4 118.333 0.5 126 0.5H352L479 128V330V489C472.2 506.6 458.167 511.667 452 512C347 511.833 135.8 511.6 131 512C125 512.5 118 510.5 108 504.5C100 499.7 96.3333 489.5 95.5 485Z" fill="#E2E5E7"/>
<path d="M479 223V128L466 115H450.5L373.5 117L479 223Z" fill="#CAD1D8"/>
<path d="M352 98V0.5L478.5 128H384.5C360.1 126.4 352.667 107.333 352 98Z" fill="#B0B7BD"/>
<path d="M97 402V447.5L402 448C412.4 446.8 415.667 438.5 416 434.5V402H97Z" fill="#CAD1D8"/>
<rect x="32" y="240" width="384" height="192" rx="16" fill="#576D7E"/>
<path d="M101.442 295.102H124.118C130.016 295.102 135.075 295.648 139.294 296.742C143.512 297.836 147.341 299.887 150.778 302.895C159.723 310.551 164.196 322.191 164.196 337.816C164.196 342.973 163.747 347.68 162.848 351.938C161.95 356.195 160.563 360.043 158.688 363.48C156.813 366.879 154.411 369.926 151.481 372.621C149.177 374.691 146.657 376.352 143.923 377.602C141.188 378.852 138.239 379.73 135.075 380.238C131.95 380.746 128.415 381 124.47 381H101.794C98.6297 381 96.2469 380.531 94.6453 379.594C93.0437 378.617 91.9891 377.27 91.4812 375.551C91.0125 373.793 90.7781 371.527 90.7781 368.754V305.766C90.7781 302.016 91.618 299.301 93.2977 297.621C94.9773 295.941 97.6922 295.102 101.442 295.102ZM108.18 308.871V367.172H121.364C124.255 367.172 126.52 367.094 128.161 366.938C129.802 366.781 131.501 366.391 133.259 365.766C135.016 365.141 136.54 364.262 137.829 363.129C143.649 358.207 146.559 349.73 146.559 337.699C146.559 329.223 145.27 322.875 142.692 318.656C140.153 314.438 137.009 311.762 133.259 310.629C129.509 309.457 124.977 308.871 119.665 308.871H108.18ZM243.891 308.52H204.691V329.613H240.785C243.441 329.613 245.414 330.219 246.703 331.43C248.031 332.602 248.695 334.164 248.695 336.117C248.695 338.07 248.051 339.672 246.762 340.922C245.473 342.133 243.48 342.738 240.785 342.738H204.691V367.172H245.238C247.973 367.172 250.023 367.816 251.391 369.105C252.797 370.355 253.5 372.035 253.5 374.145C253.5 376.176 252.797 377.836 251.391 379.125C250.023 380.375 247.973 381 245.238 381H197.953C194.164 381 191.43 380.16 189.75 378.48C188.109 376.801 187.289 374.086 187.289 370.336V305.766C187.289 303.266 187.66 301.234 188.402 299.672C189.145 298.07 190.297 296.918 191.859 296.215C193.461 295.473 195.492 295.102 197.953 295.102H243.891C246.664 295.102 248.715 295.727 250.043 296.977C251.41 298.188 252.094 299.789 252.094 301.781C252.094 303.812 251.41 305.453 250.043 306.703C248.715 307.914 246.664 308.52 243.891 308.52ZM304.132 368.051L290.363 313.324V372.621C290.363 375.902 289.62 378.363 288.136 380.004C286.691 381.645 284.757 382.465 282.335 382.465C279.991 382.465 278.077 381.664 276.593 380.062C275.109 378.422 274.366 375.941 274.366 372.621V304.652C274.366 300.902 275.343 298.383 277.296 297.094C279.249 295.766 281.886 295.102 285.206 295.102H290.597C293.839 295.102 296.183 295.395 297.628 295.98C299.113 296.566 300.206 297.621 300.909 299.145C301.613 300.668 302.413 303.148 303.312 306.586L315.792 353.637L328.273 306.586C329.171 303.148 329.972 300.668 330.675 299.145C331.378 297.621 332.452 296.566 333.898 295.98C335.382 295.395 337.745 295.102 340.988 295.102H346.378C349.698 295.102 352.335 295.766 354.288 297.094C356.241 298.383 357.218 300.902 357.218 304.652V372.621C357.218 375.902 356.476 378.363 354.991 380.004C353.546 381.645 351.593 382.465 349.132 382.465C346.827 382.465 344.933 381.645 343.448 380.004C341.964 378.363 341.222 375.902 341.222 372.621V313.324L327.452 368.051C326.554 371.605 325.812 374.223 325.226 375.902C324.679 377.543 323.644 379.047 322.12 380.414C320.597 381.781 318.488 382.465 315.792 382.465C313.761 382.465 312.042 382.016 310.636 381.117C309.23 380.258 308.136 379.145 307.355 377.777C306.573 376.41 305.948 374.906 305.48 373.266C305.05 371.586 304.601 369.848 304.132 368.051Z" fill="white"/>
</g>
<defs>
<clipPath id="clip0">
<rect width="512" height="512" fill="white"/>
</clipPath>
</defs>
</svg>
