<svg width="512" height="512" viewBox="0 0 512 512" fill="none" xmlns="http://www.w3.org/2000/svg">
<g clip-path="url(#clip0)">
<path d="M95.5 485V433L96 239.5V25C101.6 5.4 118.333 0.5 126 0.5H352L479 128V330V489C472.2 506.6 458.167 511.667 452 512C347 511.833 135.8 511.6 131 512C125 512.5 118 510.5 108 504.5C100 499.7 96.3333 489.5 95.5 485Z" fill="#E2E5E7"/>
<path d="M479 223V128L466 115H450.5L373.5 117L479 223Z" fill="#CAD1D8"/>
<path d="M352 98V0.5L478.5 128H384.5C360.1 126.4 352.667 107.333 352 98Z" fill="#B0B7BD"/>
<path d="M97 402V447.5L402 448C412.4 446.8 415.667 438.5 416 434.5V402H97Z" fill="#CAD1D8"/>
<rect x="32" y="240" width="384" height="192" rx="16" fill="#576D7E"/>
<path d="M157.162 289.209H166.61C169.068 289.209 171.176 289.437 172.934 289.893C174.691 290.348 176.286 291.203 177.719 292.456C181.446 295.646 183.31 300.496 183.31 307.007C183.31 309.155 183.122 311.117 182.748 312.891C182.374 314.665 181.796 316.268 181.015 317.7C180.233 319.116 179.232 320.386 178.012 321.509C177.051 322.371 176.002 323.063 174.862 323.584C173.723 324.105 172.494 324.471 171.176 324.683C169.874 324.894 168.401 325 166.757 325H157.309C155.99 325 154.997 324.805 154.33 324.414C153.663 324.007 153.223 323.446 153.012 322.729C152.816 321.997 152.719 321.053 152.719 319.897V293.652C152.719 292.09 153.069 290.959 153.769 290.259C154.468 289.559 155.6 289.209 157.162 289.209ZM159.97 294.946V319.238H165.463C166.667 319.238 167.611 319.206 168.295 319.141C168.979 319.076 169.687 318.913 170.419 318.652C171.151 318.392 171.786 318.026 172.323 317.554C174.748 315.503 175.961 311.971 175.961 306.958C175.961 303.426 175.424 300.781 174.35 299.023C173.292 297.266 171.981 296.151 170.419 295.679C168.856 295.19 166.968 294.946 164.755 294.946H159.97ZM216.516 294.8H200.183V303.589H215.222C216.328 303.589 217.15 303.841 217.688 304.346C218.241 304.834 218.518 305.485 218.518 306.299C218.518 307.113 218.249 307.78 217.712 308.301C217.175 308.805 216.345 309.058 215.222 309.058H200.183V319.238H217.077C218.216 319.238 219.071 319.507 219.641 320.044C220.227 320.565 220.52 321.265 220.52 322.144C220.52 322.99 220.227 323.682 219.641 324.219C219.071 324.74 218.216 325 217.077 325H197.375C195.796 325 194.657 324.65 193.957 323.95C193.273 323.25 192.932 322.119 192.932 320.557V293.652C192.932 292.611 193.086 291.764 193.396 291.113C193.705 290.446 194.185 289.966 194.836 289.673C195.503 289.364 196.35 289.209 197.375 289.209H216.516C217.671 289.209 218.526 289.469 219.079 289.99C219.649 290.495 219.934 291.162 219.934 291.992C219.934 292.839 219.649 293.522 219.079 294.043C218.526 294.548 217.671 294.8 216.516 294.8ZM256.729 314.258C256.729 316.423 256.167 318.368 255.044 320.093C253.937 321.818 252.31 323.169 250.161 324.146C248.013 325.122 245.465 325.61 242.52 325.61C238.988 325.61 236.074 324.943 233.779 323.608C232.152 322.648 230.825 321.37 229.8 319.775C228.791 318.164 228.286 316.602 228.286 315.088C228.286 314.209 228.587 313.46 229.189 312.842C229.808 312.207 230.589 311.89 231.533 311.89C232.298 311.89 232.941 312.134 233.462 312.622C233.999 313.11 234.455 313.835 234.829 314.795C235.285 315.934 235.773 316.886 236.294 317.651C236.831 318.416 237.58 319.051 238.54 319.556C239.5 320.044 240.762 320.288 242.324 320.288C244.473 320.288 246.214 319.792 247.549 318.799C248.9 317.79 249.575 316.536 249.575 315.039C249.575 313.851 249.209 312.891 248.477 312.158C247.76 311.41 246.825 310.84 245.669 310.449C244.53 310.059 243 309.644 241.079 309.204C238.507 308.602 236.351 307.902 234.609 307.104C232.884 306.291 231.509 305.192 230.483 303.809C229.474 302.409 228.97 300.675 228.97 298.608C228.97 296.639 229.507 294.889 230.581 293.359C231.655 291.829 233.21 290.658 235.244 289.844C237.279 289.014 239.671 288.599 242.422 288.599C244.619 288.599 246.515 288.875 248.11 289.429C249.722 289.966 251.056 290.69 252.114 291.602C253.172 292.497 253.945 293.441 254.434 294.434C254.922 295.426 255.166 296.395 255.166 297.339C255.166 298.201 254.857 298.983 254.238 299.683C253.636 300.366 252.879 300.708 251.968 300.708C251.138 300.708 250.503 300.505 250.063 300.098C249.64 299.674 249.176 298.991 248.672 298.047C248.021 296.696 247.24 295.646 246.328 294.897C245.417 294.132 243.952 293.75 241.934 293.75C240.062 293.75 238.548 294.165 237.393 294.995C236.253 295.809 235.684 296.794 235.684 297.949C235.684 298.665 235.879 299.284 236.27 299.805C236.66 300.326 237.197 300.773 237.881 301.147C238.564 301.522 239.256 301.815 239.956 302.026C240.656 302.238 241.812 302.547 243.423 302.954C245.441 303.426 247.264 303.947 248.892 304.517C250.535 305.086 251.927 305.778 253.066 306.592C254.222 307.406 255.117 308.439 255.752 309.692C256.403 310.929 256.729 312.451 256.729 314.258ZM273.431 292.993V305.542L287.664 290.698C288.348 289.982 288.925 289.453 289.397 289.111C289.886 288.77 290.529 288.599 291.326 288.599C292.368 288.599 293.206 288.908 293.841 289.526C294.492 290.129 294.817 290.869 294.817 291.748C294.817 292.806 294.272 293.856 293.182 294.897L284.368 303.247L294.524 317.798C295.241 318.807 295.778 319.694 296.136 320.459C296.494 321.208 296.673 321.94 296.673 322.656C296.673 323.454 296.355 324.146 295.721 324.731C295.102 325.317 294.256 325.61 293.182 325.61C292.173 325.61 291.351 325.399 290.716 324.976C290.081 324.536 289.544 323.958 289.104 323.242C288.665 322.526 288.274 321.875 287.933 321.289L279.363 308.105L273.431 313.794V321.191C273.431 322.689 273.089 323.804 272.405 324.536C271.722 325.252 270.843 325.61 269.769 325.61C269.15 325.61 268.556 325.448 267.986 325.122C267.417 324.797 266.977 324.357 266.668 323.804C266.44 323.348 266.302 322.819 266.253 322.217C266.204 321.615 266.18 320.744 266.18 319.604V292.993C266.18 291.528 266.497 290.43 267.132 289.697C267.783 288.965 268.662 288.599 269.769 288.599C270.859 288.599 271.738 288.965 272.405 289.697C273.089 290.413 273.431 291.512 273.431 292.993ZM80.5068 353.19H72.5967V379.191C72.5967 380.689 72.263 381.804 71.5957 382.536C70.9284 383.252 70.0658 383.61 69.0078 383.61C67.9336 383.61 67.0547 383.244 66.3711 382.512C65.7038 381.779 65.3701 380.673 65.3701 379.191V353.19H57.46C56.223 353.19 55.3034 352.922 54.7012 352.385C54.099 351.831 53.7979 351.107 53.7979 350.212C53.7979 349.284 54.1071 348.552 54.7256 348.015C55.3604 347.478 56.2718 347.209 57.46 347.209H80.5068C81.7601 347.209 82.6878 347.486 83.29 348.039C83.9085 348.592 84.2178 349.317 84.2178 350.212C84.2178 351.107 83.9085 351.831 83.29 352.385C82.6715 352.922 81.7438 353.19 80.5068 353.19ZM99.0645 350.993V361.247H114.714V350.993C114.714 349.528 115.039 348.43 115.69 347.697C116.358 346.965 117.229 346.599 118.303 346.599C119.393 346.599 120.272 346.965 120.939 347.697C121.623 348.413 121.965 349.512 121.965 350.993V379.191C121.965 380.673 121.623 381.779 120.939 382.512C120.256 383.244 119.377 383.61 118.303 383.61C117.212 383.61 116.341 383.244 115.69 382.512C115.039 381.763 114.714 380.656 114.714 379.191V367.155H99.0645V379.191C99.0645 380.673 98.7227 381.779 98.0391 382.512C97.3555 383.244 96.4766 383.61 95.4023 383.61C94.3118 383.61 93.4411 383.244 92.79 382.512C92.139 381.763 91.8135 380.656 91.8135 379.191V350.993C91.8135 349.528 92.1309 348.43 92.7656 347.697C93.4167 346.965 94.2956 346.599 95.4023 346.599C96.4928 346.599 97.3717 346.965 98.0391 347.697C98.7227 348.413 99.0645 349.512 99.0645 350.993ZM156.587 352.8H140.254V361.589H155.293C156.4 361.589 157.222 361.841 157.759 362.346C158.312 362.834 158.589 363.485 158.589 364.299C158.589 365.113 158.32 365.78 157.783 366.301C157.246 366.805 156.416 367.058 155.293 367.058H140.254V377.238H157.148C158.288 377.238 159.142 377.507 159.712 378.044C160.298 378.565 160.591 379.265 160.591 380.144C160.591 380.99 160.298 381.682 159.712 382.219C159.142 382.74 158.288 383 157.148 383H137.446C135.868 383 134.728 382.65 134.028 381.95C133.345 381.25 133.003 380.119 133.003 378.557V351.652C133.003 350.611 133.158 349.764 133.467 349.113C133.776 348.446 134.256 347.966 134.907 347.673C135.575 347.364 136.421 347.209 137.446 347.209H156.587C157.743 347.209 158.597 347.469 159.15 347.99C159.72 348.495 160.005 349.162 160.005 349.992C160.005 350.839 159.72 351.522 159.15 352.043C158.597 352.548 157.743 352.8 156.587 352.8ZM181.688 377.604L175.95 354.802V379.509C175.95 380.876 175.641 381.901 175.022 382.585C174.42 383.269 173.615 383.61 172.605 383.61C171.629 383.61 170.831 383.277 170.213 382.609C169.594 381.926 169.285 380.892 169.285 379.509V351.188C169.285 349.626 169.692 348.576 170.506 348.039C171.32 347.486 172.418 347.209 173.802 347.209H176.048C177.399 347.209 178.375 347.331 178.978 347.575C179.596 347.819 180.052 348.259 180.345 348.894C180.638 349.528 180.971 350.562 181.346 351.994L186.546 371.599L191.746 351.994C192.12 350.562 192.454 349.528 192.747 348.894C193.04 348.259 193.488 347.819 194.09 347.575C194.708 347.331 195.693 347.209 197.044 347.209H199.29C200.674 347.209 201.772 347.486 202.586 348.039C203.4 348.576 203.807 349.626 203.807 351.188V379.509C203.807 380.876 203.497 381.901 202.879 382.585C202.277 383.269 201.463 383.61 200.438 383.61C199.477 383.61 198.688 383.269 198.069 382.585C197.451 381.901 197.142 380.876 197.142 379.509V354.802L191.404 377.604C191.03 379.086 190.721 380.176 190.477 380.876C190.249 381.56 189.817 382.186 189.183 382.756C188.548 383.326 187.669 383.61 186.546 383.61C185.7 383.61 184.983 383.423 184.397 383.049C183.812 382.691 183.356 382.227 183.03 381.657C182.705 381.088 182.444 380.461 182.249 379.777C182.07 379.077 181.883 378.353 181.688 377.604ZM238.087 352.8H221.754V361.589H236.793C237.9 361.589 238.722 361.841 239.259 362.346C239.812 362.834 240.089 363.485 240.089 364.299C240.089 365.113 239.82 365.78 239.283 366.301C238.746 366.805 237.916 367.058 236.793 367.058H221.754V377.238H238.648C239.788 377.238 240.642 377.507 241.212 378.044C241.798 378.565 242.091 379.265 242.091 380.144C242.091 380.99 241.798 381.682 241.212 382.219C240.642 382.74 239.788 383 238.648 383H218.946C217.368 383 216.228 382.65 215.528 381.95C214.845 381.25 214.503 380.119 214.503 378.557V351.652C214.503 350.611 214.658 349.764 214.967 349.113C215.276 348.446 215.756 347.966 216.407 347.673C217.075 347.364 217.921 347.209 218.946 347.209H238.087C239.243 347.209 240.097 347.469 240.65 347.99C241.22 348.495 241.505 349.162 241.505 349.992C241.505 350.839 241.22 351.522 240.65 352.043C240.097 352.548 239.243 352.8 238.087 352.8ZM264.994 369.06H258.354V379.191C258.354 380.64 258.012 381.739 257.328 382.487C256.645 383.236 255.782 383.61 254.74 383.61C253.65 383.61 252.771 383.244 252.104 382.512C251.436 381.763 251.103 380.673 251.103 379.24V351.652C251.103 350.057 251.469 348.918 252.201 348.234C252.934 347.551 254.097 347.209 255.692 347.209H264.994C267.745 347.209 269.861 347.421 271.342 347.844C272.807 348.251 274.068 348.926 275.126 349.87C276.2 350.814 277.014 351.97 277.567 353.337C278.121 354.704 278.397 356.242 278.397 357.951C278.397 361.597 277.274 364.364 275.028 366.252C272.782 368.124 269.438 369.06 264.994 369.06ZM263.236 352.653H258.354V363.591H263.236C264.945 363.591 266.369 363.412 267.509 363.054C268.664 362.696 269.543 362.11 270.146 361.296C270.748 360.482 271.049 359.416 271.049 358.098C271.049 356.519 270.585 355.233 269.657 354.24C268.616 353.182 266.475 352.653 263.236 352.653ZM306.208 378.947L304.499 374.455H289.948L288.239 379.045C287.572 380.835 287.002 382.048 286.53 382.683C286.058 383.301 285.285 383.61 284.211 383.61C283.299 383.61 282.494 383.277 281.794 382.609C281.094 381.942 280.744 381.185 280.744 380.339C280.744 379.851 280.826 379.346 280.988 378.825C281.151 378.304 281.42 377.58 281.794 376.652L290.949 353.41C291.21 352.743 291.519 351.945 291.877 351.018C292.251 350.074 292.642 349.292 293.049 348.674C293.472 348.055 294.017 347.559 294.685 347.185C295.368 346.794 296.206 346.599 297.199 346.599C298.208 346.599 299.047 346.794 299.714 347.185C300.397 347.559 300.943 348.047 301.35 348.649C301.773 349.252 302.123 349.903 302.399 350.603C302.692 351.286 303.059 352.206 303.498 353.361L312.849 376.457C313.581 378.215 313.947 379.493 313.947 380.29C313.947 381.12 313.597 381.885 312.897 382.585C312.214 383.269 311.384 383.61 310.407 383.61C309.838 383.61 309.349 383.505 308.942 383.293C308.535 383.098 308.194 382.829 307.917 382.487C307.64 382.129 307.339 381.592 307.014 380.876C306.704 380.144 306.436 379.501 306.208 378.947ZM291.853 369.011H302.546L297.15 354.24L291.853 369.011ZM351.768 371.696C351.768 372.836 351.483 374.073 350.913 375.407C350.36 376.726 349.481 378.028 348.276 379.313C347.072 380.583 345.534 381.617 343.662 382.414C341.79 383.212 339.609 383.61 337.119 383.61C335.231 383.61 333.514 383.431 331.968 383.073C330.422 382.715 329.014 382.162 327.744 381.413C326.491 380.648 325.335 379.647 324.277 378.41C323.333 377.287 322.528 376.034 321.86 374.65C321.193 373.251 320.688 371.761 320.347 370.183C320.021 368.604 319.858 366.927 319.858 365.153C319.858 362.272 320.273 359.693 321.104 357.414C321.95 355.135 323.154 353.19 324.717 351.579C326.279 349.951 328.11 348.715 330.21 347.868C332.31 347.022 334.548 346.599 336.924 346.599C339.821 346.599 342.401 347.176 344.663 348.332C346.925 349.488 348.659 350.92 349.863 352.629C351.068 354.322 351.67 355.925 351.67 357.438C351.67 358.269 351.377 359.001 350.791 359.636C350.205 360.271 349.497 360.588 348.667 360.588C347.739 360.588 347.039 360.368 346.567 359.929C346.112 359.489 345.599 358.732 345.029 357.658C344.085 355.884 342.97 354.558 341.685 353.679C340.415 352.8 338.844 352.36 336.973 352.36C333.994 352.36 331.618 353.492 329.844 355.754C328.086 358.016 327.207 361.231 327.207 365.397C327.207 368.181 327.598 370.5 328.379 372.355C329.16 374.195 330.267 375.57 331.699 376.481C333.132 377.393 334.808 377.849 336.729 377.849C338.812 377.849 340.57 377.336 342.002 376.311C343.451 375.269 344.541 373.747 345.273 371.745C345.583 370.801 345.965 370.036 346.421 369.45C346.877 368.848 347.609 368.547 348.618 368.547C349.481 368.547 350.221 368.848 350.84 369.45C351.458 370.052 351.768 370.801 351.768 371.696ZM368.836 350.993V363.542L383.069 348.698C383.753 347.982 384.331 347.453 384.803 347.111C385.291 346.77 385.934 346.599 386.731 346.599C387.773 346.599 388.611 346.908 389.246 347.526C389.897 348.129 390.223 348.869 390.223 349.748C390.223 350.806 389.677 351.856 388.587 352.897L379.773 361.247L389.93 375.798C390.646 376.807 391.183 377.694 391.541 378.459C391.899 379.208 392.078 379.94 392.078 380.656C392.078 381.454 391.761 382.146 391.126 382.731C390.507 383.317 389.661 383.61 388.587 383.61C387.578 383.61 386.756 383.399 386.121 382.976C385.486 382.536 384.949 381.958 384.51 381.242C384.07 380.526 383.68 379.875 383.338 379.289L374.769 366.105L368.836 371.794V379.191C368.836 380.689 368.494 381.804 367.811 382.536C367.127 383.252 366.248 383.61 365.174 383.61C364.555 383.61 363.961 383.448 363.392 383.122C362.822 382.797 362.382 382.357 362.073 381.804C361.845 381.348 361.707 380.819 361.658 380.217C361.609 379.615 361.585 378.744 361.585 377.604V350.993C361.585 349.528 361.902 348.43 362.537 347.697C363.188 346.965 364.067 346.599 365.174 346.599C366.264 346.599 367.143 346.965 367.811 347.697C368.494 348.413 368.836 349.512 368.836 350.993Z" fill="white"/>
</g>
<defs>
<clipPath id="clip0">
<rect width="512" height="512" fill="white"/>
</clipPath>
</defs>
</svg>
