<svg width="512" height="512" viewBox="0 0 512 512" fill="none" xmlns="http://www.w3.org/2000/svg">
<g clip-path="url(#clip0)">
<path d="M95.5 485V433L96 239.5V25C101.6 5.4 118.333 0.5 126 0.5H352L479 128V330V489C472.2 506.6 458.167 511.667 452 512C347 511.833 135.8 511.6 131 512C125 512.5 118 510.5 108 504.5C100 499.7 96.3333 489.5 95.5 485Z" fill="#E2E5E7"/>
<path d="M479 223V128L466 115H450.5L373.5 117L479 223Z" fill="#CAD1D8"/>
<path d="M352 98V0.5L478.5 128H384.5C360.1 126.4 352.667 107.333 352 98Z" fill="#B0B7BD"/>
<path d="M97 402V447.5L402 448C412.4 446.8 415.667 438.5 416 434.5V402H97Z" fill="#CAD1D8"/>
<rect x="32" y="240" width="384" height="192" rx="16" fill="#576D7E"/>
<path d="M118.403 295.102H141.079C146.977 295.102 152.036 295.648 156.255 296.742C160.473 297.836 164.302 299.887 167.739 302.895C176.684 310.551 181.157 322.191 181.157 337.816C181.157 342.973 180.708 347.68 179.809 351.938C178.911 356.195 177.524 360.043 175.649 363.48C173.774 366.879 171.372 369.926 168.442 372.621C166.137 374.691 163.618 376.352 160.884 377.602C158.149 378.852 155.2 379.73 152.036 380.238C148.911 380.746 145.376 381 141.43 381H118.755C115.591 381 113.208 380.531 111.606 379.594C110.005 378.617 108.95 377.27 108.442 375.551C107.973 373.793 107.739 371.527 107.739 368.754V305.766C107.739 302.016 108.579 299.301 110.259 297.621C111.938 295.941 114.653 295.102 118.403 295.102ZM125.141 308.871V367.172H138.325C141.216 367.172 143.481 367.094 145.122 366.938C146.762 366.781 148.462 366.391 150.22 365.766C151.977 365.141 153.501 364.262 154.79 363.129C160.61 358.207 163.52 349.73 163.52 337.699C163.52 329.223 162.231 322.875 159.653 318.656C157.114 314.438 153.97 311.762 150.22 310.629C146.47 309.457 141.938 308.871 136.626 308.871H125.141ZM221.301 304.184V366.703H256.574C259.387 366.703 261.535 367.387 263.02 368.754C264.543 370.121 265.305 371.84 265.305 373.91C265.305 376.02 264.562 377.738 263.078 379.066C261.594 380.355 259.426 381 256.574 381H214.562C210.773 381 208.039 380.16 206.359 378.48C204.719 376.801 203.898 374.086 203.898 370.336V304.184C203.898 300.668 204.68 298.031 206.242 296.273C207.844 294.516 209.934 293.637 212.512 293.637C215.129 293.637 217.238 294.516 218.84 296.273C220.48 297.992 221.301 300.629 221.301 304.184ZM301.64 304.184V366.703H336.913C339.726 366.703 341.874 367.387 343.359 368.754C344.882 370.121 345.644 371.84 345.644 373.91C345.644 376.02 344.902 377.738 343.417 379.066C341.933 380.355 339.765 381 336.913 381H294.902C291.113 381 288.378 380.16 286.698 378.48C285.058 376.801 284.238 374.086 284.238 370.336V304.184C284.238 300.668 285.019 298.031 286.581 296.273C288.183 294.516 290.273 293.637 292.851 293.637C295.468 293.637 297.577 294.516 299.179 296.273C300.82 297.992 301.64 300.629 301.64 304.184Z" fill="white"/>
</g>
<defs>
<clipPath id="clip0">
<rect width="512" height="512" fill="white"/>
</clipPath>
</defs>
</svg>
