<svg width="512" height="512" viewBox="0 0 512 512" fill="none" xmlns="http://www.w3.org/2000/svg">
<g clip-path="url(#clip0)">
<path d="M95.5 485V433L96 239.5V25C101.6 5.4 118.333 0.5 126 0.5H352L479 128V330V489C472.2 506.6 458.167 511.667 452 512C347 511.833 135.8 511.6 131 512C125 512.5 118 510.5 108 504.5C100 499.7 96.3333 489.5 95.5 485Z" fill="#E2E5E7"/>
<path d="M479 223V128L466 115H450.5L373.5 117L479 223Z" fill="#CAD1D8"/>
<path d="M352 98V0.5L478.5 128H384.5C360.1 126.4 352.667 107.333 352 98Z" fill="#B0B7BD"/>
<path d="M97 402V447.5L402 448C412.4 446.8 415.667 438.5 416 434.5V402H97Z" fill="#CAD1D8"/>
<rect x="32" y="240" width="384" height="192" rx="16" fill="#576D7E"/>
<path d="M93.4422 295.102H116.118C122.016 295.102 127.075 295.648 131.294 296.742C135.512 297.836 139.341 299.887 142.778 302.895C151.723 310.551 156.196 322.191 156.196 337.816C156.196 342.973 155.747 347.68 154.848 351.938C153.95 356.195 152.563 360.043 150.688 363.48C148.813 366.879 146.411 369.926 143.481 372.621C141.177 374.691 138.657 376.352 135.923 377.602C133.188 378.852 130.239 379.73 127.075 380.238C123.95 380.746 120.415 381 116.47 381H93.7937C90.6297 381 88.2469 380.531 86.6453 379.594C85.0437 378.617 83.9891 377.27 83.4812 375.551C83.0125 373.793 82.7781 371.527 82.7781 368.754V305.766C82.7781 302.016 83.618 299.301 85.2977 297.621C86.9773 295.941 89.6922 295.102 93.4422 295.102ZM100.18 308.871V367.172H113.364C116.255 367.172 118.52 367.094 120.161 366.938C121.802 366.781 123.501 366.391 125.259 365.766C127.016 365.141 128.54 364.262 129.829 363.129C135.649 358.207 138.559 349.73 138.559 337.699C138.559 329.223 137.27 322.875 134.692 318.656C132.153 314.438 129.009 311.762 125.259 310.629C121.509 309.457 116.977 308.871 111.665 308.871H100.18ZM208.293 368.051L194.523 313.324V372.621C194.523 375.902 193.781 378.363 192.297 380.004C190.852 381.645 188.918 382.465 186.496 382.465C184.152 382.465 182.238 381.664 180.754 380.062C179.27 378.422 178.527 375.941 178.527 372.621V304.652C178.527 300.902 179.504 298.383 181.457 297.094C183.41 295.766 186.047 295.102 189.367 295.102H194.758C198 295.102 200.344 295.395 201.789 295.98C203.273 296.566 204.367 297.621 205.07 299.145C205.773 300.668 206.574 303.148 207.473 306.586L219.953 353.637L232.434 306.586C233.332 303.148 234.133 300.668 234.836 299.145C235.539 297.621 236.613 296.566 238.059 295.98C239.543 295.395 241.906 295.102 245.148 295.102H250.539C253.859 295.102 256.496 295.766 258.449 297.094C260.402 298.383 261.379 300.902 261.379 304.652V372.621C261.379 375.902 260.637 378.363 259.152 380.004C257.707 381.645 255.754 382.465 253.293 382.465C250.988 382.465 249.094 381.645 247.609 380.004C246.125 378.363 245.383 375.902 245.383 372.621V313.324L231.613 368.051C230.715 371.605 229.973 374.223 229.387 375.902C228.84 377.543 227.805 379.047 226.281 380.414C224.758 381.781 222.648 382.465 219.953 382.465C217.922 382.465 216.203 382.016 214.797 381.117C213.391 380.258 212.297 379.145 211.516 377.777C210.734 376.41 210.109 374.906 209.641 373.266C209.211 371.586 208.762 369.848 208.293 368.051ZM365.507 346.078V362.543C365.507 364.73 365.292 366.488 364.863 367.816C364.433 369.105 363.632 370.277 362.46 371.332C361.327 372.387 359.863 373.402 358.066 374.379C352.87 377.191 347.87 379.242 343.066 380.531C338.261 381.82 333.027 382.465 327.363 382.465C320.761 382.465 314.745 381.449 309.316 379.418C303.886 377.387 299.257 374.438 295.429 370.57C291.601 366.703 288.652 362.016 286.581 356.508C284.55 351 283.534 344.848 283.534 338.051C283.534 331.371 284.53 325.258 286.523 319.711C288.515 314.164 291.445 309.457 295.312 305.59C299.179 301.723 303.886 298.773 309.433 296.742C314.98 294.672 321.269 293.637 328.3 293.637C334.081 293.637 339.198 294.418 343.652 295.98C348.105 297.504 351.718 299.438 354.491 301.781C357.265 304.125 359.355 306.605 360.761 309.223C362.167 311.84 362.87 314.164 362.87 316.195C362.87 318.383 362.05 320.258 360.409 321.82C358.808 323.344 356.874 324.105 354.609 324.105C353.359 324.105 352.148 323.812 350.976 323.227C349.843 322.641 348.886 321.82 348.105 320.766C345.956 317.406 344.14 314.867 342.655 313.148C341.171 311.43 339.159 309.984 336.62 308.812C334.12 307.641 330.917 307.055 327.011 307.055C322.988 307.055 319.394 307.758 316.23 309.164C313.066 310.531 310.351 312.543 308.085 315.199C305.859 317.816 304.14 321.039 302.929 324.867C301.757 328.695 301.171 332.934 301.171 337.582C301.171 347.66 303.476 355.414 308.085 360.844C312.734 366.273 319.198 368.988 327.48 368.988C331.503 368.988 335.273 368.461 338.788 367.406C342.343 366.352 345.937 364.848 349.57 362.895V348.949H336.093C332.851 348.949 330.39 348.461 328.71 347.484C327.07 346.508 326.249 344.848 326.249 342.504C326.249 340.59 326.933 339.008 328.3 337.758C329.706 336.508 331.601 335.883 333.984 335.883H353.73C356.152 335.883 358.202 336.098 359.882 336.527C361.562 336.957 362.909 337.914 363.925 339.398C364.98 340.883 365.507 343.109 365.507 346.078Z" fill="white"/>
</g>
<defs>
<clipPath id="clip0">
<rect width="512" height="512" fill="white"/>
</clipPath>
</defs>
</svg>
