<svg width="512" height="512" viewBox="0 0 512 512" fill="none" xmlns="http://www.w3.org/2000/svg">
<g clip-path="url(#clip0)">
<path d="M95.5 485V433L96 239.5V25C101.6 5.4 118.333 0.5 126 0.5H352L479 128V330V489C472.2 506.6 458.167 511.667 452 512C347 511.833 135.8 511.6 131 512C125 512.5 118 510.5 108 504.5C100 499.7 96.3333 489.5 95.5 485Z" fill="#E2E5E7"/>
<path d="M479 223V128L466 115H450.5L373.5 117L479 223Z" fill="#CAD1D8"/>
<path d="M352 98V0.5L478.5 128H384.5C360.1 126.4 352.667 107.333 352 98Z" fill="#B0B7BD"/>
<path d="M97 402V447.5L402 448C412.4 446.8 415.667 438.5 416 434.5V402H97Z" fill="#CAD1D8"/>
<rect x="32" y="240" width="384" height="192" rx="16" fill="#576D7E"/>
<path d="M101.442 295.102H124.118C130.016 295.102 135.075 295.648 139.294 296.742C143.512 297.836 147.341 299.887 150.778 302.895C159.723 310.551 164.196 322.191 164.196 337.816C164.196 342.973 163.747 347.68 162.848 351.938C161.95 356.195 160.563 360.043 158.688 363.48C156.813 366.879 154.411 369.926 151.481 372.621C149.177 374.691 146.657 376.352 143.923 377.602C141.188 378.852 138.239 379.73 135.075 380.238C131.95 380.746 128.415 381 124.47 381H101.794C98.6297 381 96.2469 380.531 94.6453 379.594C93.0437 378.617 91.9891 377.27 91.4812 375.551C91.0125 373.793 90.7781 371.527 90.7781 368.754V305.766C90.7781 302.016 91.618 299.301 93.2977 297.621C94.9773 295.941 97.6922 295.102 101.442 295.102ZM108.18 308.871V367.172H121.364C124.255 367.172 126.52 367.094 128.161 366.938C129.802 366.781 131.501 366.391 133.259 365.766C135.016 365.141 136.54 364.262 137.829 363.129C143.649 358.207 146.559 349.73 146.559 337.699C146.559 329.223 145.27 322.875 142.692 318.656C140.153 314.438 137.009 311.762 133.259 310.629C129.509 309.457 124.977 308.871 119.665 308.871H108.18ZM216.293 368.051L202.523 313.324V372.621C202.523 375.902 201.781 378.363 200.297 380.004C198.852 381.645 196.918 382.465 194.496 382.465C192.152 382.465 190.238 381.664 188.754 380.062C187.27 378.422 186.527 375.941 186.527 372.621V304.652C186.527 300.902 187.504 298.383 189.457 297.094C191.41 295.766 194.047 295.102 197.367 295.102H202.758C206 295.102 208.344 295.395 209.789 295.98C211.273 296.566 212.367 297.621 213.07 299.145C213.773 300.668 214.574 303.148 215.473 306.586L227.953 353.637L240.434 306.586C241.332 303.148 242.133 300.668 242.836 299.145C243.539 297.621 244.613 296.566 246.059 295.98C247.543 295.395 249.906 295.102 253.148 295.102H258.539C261.859 295.102 264.496 295.766 266.449 297.094C268.402 298.383 269.379 300.902 269.379 304.652V372.621C269.379 375.902 268.637 378.363 267.152 380.004C265.707 381.645 263.754 382.465 261.293 382.465C258.988 382.465 257.094 381.645 255.609 380.004C254.125 378.363 253.383 375.902 253.383 372.621V313.324L239.613 368.051C238.715 371.605 237.973 374.223 237.387 375.902C236.84 377.543 235.805 379.047 234.281 380.414C232.758 381.781 230.648 382.465 227.953 382.465C225.922 382.465 224.203 382.016 222.797 381.117C221.391 380.258 220.297 379.145 219.516 377.777C218.734 376.41 218.109 374.906 217.641 373.266C217.211 371.586 216.762 369.848 216.293 368.051ZM328.39 347.543H312.452V371.859C312.452 375.336 311.632 377.973 309.991 379.77C308.351 381.566 306.28 382.465 303.78 382.465C301.163 382.465 299.054 381.586 297.452 379.828C295.851 378.031 295.05 375.414 295.05 371.977V305.766C295.05 301.938 295.929 299.203 297.687 297.562C299.445 295.922 302.238 295.102 306.066 295.102H328.39C334.991 295.102 340.07 295.609 343.624 296.625C347.14 297.602 350.167 299.223 352.706 301.488C355.284 303.754 357.238 306.527 358.566 309.809C359.894 313.09 360.558 316.781 360.558 320.883C360.558 329.633 357.863 336.273 352.472 340.805C347.081 345.297 339.054 347.543 328.39 347.543ZM324.171 308.168H312.452V334.418H324.171C328.273 334.418 331.691 333.988 334.425 333.129C337.198 332.27 339.308 330.863 340.753 328.91C342.198 326.957 342.921 324.398 342.921 321.234C342.921 317.445 341.808 314.359 339.581 311.977C337.081 309.438 331.945 308.168 324.171 308.168Z" fill="white"/>
</g>
<defs>
<clipPath id="clip0">
<rect width="512" height="512" fill="white"/>
</clipPath>
</defs>
</svg>
