<svg width="512" height="512" viewBox="0 0 512 512" fill="none" xmlns="http://www.w3.org/2000/svg">
<g clip-path="url(#clip0)">
<path d="M95.5 485V433L96 239.5V25C101.6 5.4 118.333 0.5 126 0.5H352L479 128V330V489C472.2 506.6 458.167 511.667 452 512C347 511.833 135.8 511.6 131 512C125 512.5 118 510.5 108 504.5C100 499.7 96.3333 489.5 95.5 485Z" fill="#E2E5E7"/>
<path d="M479 223V128L466 115H450.5L373.5 117L479 223Z" fill="#CAD1D8"/>
<path d="M352 98V0.5L478.5 128H384.5C360.1 126.4 352.667 107.333 352 98Z" fill="#B0B7BD"/>
<path d="M97 402V447.5L402 448C412.4 446.8 415.667 438.5 416 434.5V402H97Z" fill="#CAD1D8"/>
<rect x="32" y="240" width="384" height="192" rx="16" fill="#576D7E"/>
<path d="M99.5086 295.102H122.184C128.083 295.102 133.141 295.648 137.36 296.742C141.579 297.836 145.407 299.887 148.845 302.895C157.79 310.551 162.262 322.191 162.262 337.816C162.262 342.973 161.813 347.68 160.915 351.938C160.016 356.195 158.63 360.043 156.755 363.48C154.88 366.879 152.477 369.926 149.548 372.621C147.243 374.691 144.723 376.352 141.989 377.602C139.255 378.852 136.305 379.73 133.141 380.238C130.016 380.746 126.481 381 122.536 381H99.8602C96.6961 381 94.3133 380.531 92.7117 379.594C91.1102 378.617 90.0555 377.27 89.5477 375.551C89.0789 373.793 88.8445 371.527 88.8445 368.754V305.766C88.8445 302.016 89.6844 299.301 91.3641 297.621C93.0437 295.941 95.7586 295.102 99.5086 295.102ZM106.247 308.871V367.172H119.43C122.321 367.172 124.587 367.094 126.227 366.938C127.868 366.781 129.567 366.391 131.325 365.766C133.083 365.141 134.606 364.262 135.895 363.129C141.716 358.207 144.626 349.73 144.626 337.699C144.626 329.223 143.337 322.875 140.759 318.656C138.22 314.438 135.075 311.762 131.325 310.629C127.575 309.457 123.044 308.871 117.731 308.871H106.247ZM223.148 293.637C232.055 293.637 239.691 295.453 246.059 299.086C252.465 302.68 257.309 307.816 260.59 314.496C263.871 321.137 265.512 328.949 265.512 337.934C265.512 344.574 264.613 350.609 262.816 356.039C261.02 361.469 258.324 366.176 254.73 370.16C251.137 374.145 246.723 377.191 241.488 379.301C236.254 381.41 230.258 382.465 223.5 382.465C216.781 382.465 210.766 381.391 205.453 379.242C200.141 377.055 195.707 373.988 192.152 370.043C188.598 366.098 185.902 361.352 184.066 355.805C182.27 350.258 181.371 344.262 181.371 337.816C181.371 331.215 182.309 325.16 184.184 319.652C186.098 314.145 188.852 309.457 192.445 305.59C196.039 301.723 200.414 298.773 205.57 296.742C210.727 294.672 216.586 293.637 223.148 293.637ZM247.875 337.816C247.875 331.527 246.859 326.078 244.828 321.469C242.797 316.859 239.887 313.383 236.098 311.039C232.348 308.656 228.031 307.465 223.148 307.465C219.672 307.465 216.449 308.129 213.48 309.457C210.551 310.746 208.012 312.641 205.863 315.141C203.754 317.641 202.074 320.844 200.824 324.75C199.613 328.617 199.008 332.973 199.008 337.816C199.008 342.699 199.613 347.113 200.824 351.059C202.074 355.004 203.812 358.285 206.039 360.902C208.305 363.48 210.883 365.414 213.773 366.703C216.703 367.992 219.906 368.637 223.383 368.637C227.836 368.637 231.918 367.523 235.629 365.297C239.379 363.07 242.348 359.633 244.535 354.984C246.762 350.336 247.875 344.613 247.875 337.816ZM361.378 353.871C361.378 356.605 360.695 359.574 359.327 362.777C357.999 365.941 355.89 369.066 352.999 372.152C350.109 375.199 346.417 377.68 341.925 379.594C337.433 381.508 332.198 382.465 326.222 382.465C321.691 382.465 317.57 382.035 313.859 381.176C310.148 380.316 306.769 378.988 303.722 377.191C300.714 375.355 297.941 372.953 295.402 369.984C293.136 367.289 291.202 364.281 289.601 360.961C287.999 357.602 286.788 354.027 285.968 350.238C285.187 346.449 284.796 342.426 284.796 338.168C284.796 331.254 285.792 325.062 287.784 319.594C289.816 314.125 292.706 309.457 296.456 305.59C300.206 301.684 304.601 298.715 309.64 296.684C314.679 294.652 320.05 293.637 325.753 293.637C332.706 293.637 338.898 295.023 344.327 297.797C349.757 300.57 353.917 304.008 356.808 308.109C359.698 312.172 361.144 316.02 361.144 319.652C361.144 321.645 360.441 323.402 359.034 324.926C357.628 326.449 355.929 327.211 353.937 327.211C351.71 327.211 350.03 326.684 348.898 325.629C347.804 324.574 346.573 322.758 345.206 320.18C342.941 315.922 340.265 312.738 337.179 310.629C334.132 308.52 330.363 307.465 325.87 307.465C318.722 307.465 313.019 310.18 308.761 315.609C304.542 321.039 302.433 328.754 302.433 338.754C302.433 345.434 303.37 351 305.245 355.453C307.12 359.867 309.777 363.168 313.214 365.355C316.652 367.543 320.675 368.637 325.284 368.637C330.284 368.637 334.503 367.406 337.941 364.945C341.417 362.445 344.034 358.793 345.792 353.988C346.534 351.723 347.452 349.887 348.546 348.48C349.64 347.035 351.398 346.312 353.82 346.312C355.89 346.312 357.667 347.035 359.152 348.48C360.636 349.926 361.378 351.723 361.378 353.871Z" fill="white"/>
</g>
<defs>
<clipPath id="clip0">
<rect width="512" height="512" fill="white"/>
</clipPath>
</defs>
</svg>
