<svg width="512" height="512" viewBox="0 0 512 512" fill="none" xmlns="http://www.w3.org/2000/svg">
<g clip-path="url(#clip0)">
<path d="M95.5 485V433L96 239.5V25C101.6 5.4 118.333 0.5 126 0.5H352L479 128V330V489C472.2 506.6 458.167 511.667 452 512C347 511.833 135.8 511.6 131 512C125 512.5 118 510.5 108 504.5C100 499.7 96.3333 489.5 95.5 485Z" fill="#E2E5E7"/>
<path d="M479 223V128L466 115H450.5L373.5 117L479 223Z" fill="#CAD1D8"/>
<path d="M352 98V0.5L478.5 128H384.5C360.1 126.4 352.667 107.333 352 98Z" fill="#B0B7BD"/>
<path d="M97 402V447.5L402 448C412.4 446.8 415.667 438.5 416 434.5V402H97Z" fill="#CAD1D8"/>
<rect x="32" y="240" width="384" height="192" rx="16" fill="#576D7E"/>
<path d="M73.5191 298.26H94.3053C99.7122 298.26 104.349 298.761 108.216 299.764C112.084 300.766 115.593 302.646 118.744 305.403C126.944 312.422 131.044 323.092 131.044 337.415C131.044 342.142 130.632 346.456 129.808 350.359C128.985 354.262 127.713 357.789 125.995 360.94C124.276 364.056 122.074 366.849 119.388 369.319C117.276 371.217 114.966 372.739 112.46 373.885C109.953 375.031 107.25 375.836 104.349 376.302C101.485 376.767 98.2441 377 94.6275 377H73.8414C70.941 377 68.7568 376.57 67.2887 375.711C65.8206 374.816 64.8538 373.58 64.3883 372.005C63.9586 370.394 63.7437 368.317 63.7437 365.774V308.035C63.7437 304.598 64.5136 302.109 66.0533 300.569C67.593 299.03 70.0816 298.26 73.5191 298.26ZM79.6959 310.882V364.324H91.7809C94.4306 364.324 96.5074 364.253 98.0113 364.109C99.5152 363.966 101.073 363.608 102.684 363.035C104.296 362.462 105.692 361.657 106.874 360.618C112.209 356.106 114.877 348.336 114.877 337.308C114.877 329.537 113.695 323.719 111.332 319.852C109.004 315.984 106.122 313.532 102.684 312.493C99.2467 311.419 95.093 310.882 90.2232 310.882H79.6959ZM186.856 296.917C195.02 296.917 202.02 298.582 207.857 301.912C213.729 305.206 218.169 309.915 221.177 316.038C224.185 322.125 225.689 329.287 225.689 337.522C225.689 343.61 224.865 349.142 223.218 354.119C221.571 359.096 219.1 363.411 215.806 367.063C212.512 370.716 208.465 373.509 203.667 375.442C198.869 377.376 193.373 378.343 187.178 378.343C181.019 378.343 175.505 377.358 170.635 375.389C165.765 373.383 161.701 370.573 158.443 366.956C155.184 363.34 152.713 358.989 151.03 353.904C149.383 348.82 148.56 343.323 148.56 337.415C148.56 331.364 149.419 325.813 151.138 320.765C152.892 315.716 155.417 311.419 158.711 307.874C162.005 304.329 166.016 301.626 170.742 299.764C175.469 297.866 180.84 296.917 186.856 296.917ZM209.522 337.415C209.522 331.65 208.591 326.655 206.729 322.43C204.867 318.204 202.199 315.018 198.726 312.869C195.288 310.685 191.332 309.593 186.856 309.593C183.669 309.593 180.715 310.201 177.993 311.419C175.308 312.601 172.98 314.337 171.011 316.629C169.077 318.921 167.538 321.857 166.392 325.438C165.282 328.982 164.727 332.975 164.727 337.415C164.727 341.891 165.282 345.937 166.392 349.554C167.538 353.17 169.131 356.178 171.172 358.577C173.249 360.94 175.612 362.713 178.262 363.895C180.947 365.076 183.884 365.667 187.071 365.667C191.153 365.667 194.894 364.646 198.296 362.605C201.734 360.564 204.455 357.413 206.46 353.152C208.501 348.891 209.522 343.646 209.522 337.415ZM313.566 352.132C313.566 354.638 312.94 357.36 311.686 360.296C310.469 363.196 308.535 366.061 305.886 368.89C303.236 371.683 299.852 373.956 295.734 375.711C291.616 377.465 286.818 378.343 281.34 378.343C277.186 378.343 273.408 377.949 270.007 377.161C266.605 376.373 263.508 375.156 260.715 373.509C257.957 371.826 255.415 369.624 253.088 366.902C251.011 364.432 249.238 361.674 247.77 358.631C246.302 355.551 245.192 352.275 244.44 348.802C243.724 345.328 243.366 341.64 243.366 337.737C243.366 331.399 244.279 325.724 246.105 320.711C247.967 315.698 250.617 311.419 254.054 307.874C257.492 304.293 261.52 301.572 266.139 299.71C270.759 297.848 275.682 296.917 280.91 296.917C287.284 296.917 292.959 298.188 297.936 300.73C302.914 303.273 306.727 306.424 309.377 310.184C312.026 313.908 313.351 317.435 313.351 320.765C313.351 322.591 312.707 324.202 311.418 325.599C310.129 326.995 308.571 327.693 306.745 327.693C304.704 327.693 303.164 327.21 302.126 326.243C301.123 325.276 299.995 323.611 298.742 321.248C296.665 317.345 294.212 314.427 291.384 312.493C288.591 310.56 285.135 309.593 281.017 309.593C274.465 309.593 269.237 312.081 265.334 317.059C261.467 322.036 259.533 329.108 259.533 338.274C259.533 344.397 260.392 349.5 262.111 353.582C263.83 357.628 266.265 360.654 269.416 362.659C272.567 364.664 276.255 365.667 280.48 365.667C285.064 365.667 288.931 364.539 292.082 362.283C295.269 359.992 297.668 356.644 299.279 352.239C299.959 350.162 300.801 348.479 301.804 347.19C302.806 345.866 304.417 345.203 306.637 345.203C308.535 345.203 310.165 345.866 311.525 347.19C312.886 348.515 313.566 350.162 313.566 352.132ZM332.157 361.692L349.774 335.965L334.95 313.084C333.553 310.864 332.497 308.966 331.781 307.391C331.1 305.779 330.76 304.24 330.76 302.771C330.76 301.268 331.423 299.925 332.747 298.743C334.108 297.526 335.755 296.917 337.689 296.917C339.909 296.917 341.628 297.579 342.845 298.904C344.098 300.193 345.817 302.61 348.001 306.155L359.818 325.276L372.44 306.155C373.478 304.544 374.356 303.165 375.072 302.02C375.824 300.874 376.54 299.925 377.22 299.173C377.9 298.421 378.652 297.866 379.476 297.508C380.335 297.114 381.32 296.917 382.43 296.917C384.435 296.917 386.065 297.526 387.318 298.743C388.607 299.925 389.251 301.339 389.251 302.986C389.251 305.385 387.873 308.644 385.116 312.762L369.593 335.965L386.297 361.692C387.801 363.948 388.893 365.828 389.574 367.332C390.254 368.8 390.594 370.197 390.594 371.521C390.594 372.775 390.29 373.921 389.681 374.959C389.072 375.997 388.213 376.821 387.103 377.43C385.993 378.038 384.74 378.343 383.343 378.343C381.839 378.343 380.568 378.021 379.53 377.376C378.491 376.767 377.65 375.997 377.005 375.066C376.361 374.135 375.161 372.327 373.407 369.642L359.549 347.835L344.832 370.286C343.687 372.076 342.863 373.33 342.362 374.046C341.896 374.762 341.323 375.46 340.643 376.141C339.963 376.821 339.157 377.358 338.226 377.752C337.295 378.146 336.203 378.343 334.95 378.343C333.016 378.343 331.405 377.752 330.116 376.57C328.862 375.389 328.236 373.67 328.236 371.414C328.236 368.764 329.543 365.524 332.157 361.692Z" fill="white"/>
</g>
<defs>
<clipPath id="clip0">
<rect width="512" height="512" fill="white"/>
</clipPath>
</defs>
</svg>
