<svg width="512" height="512" viewBox="0 0 512 512" fill="none" xmlns="http://www.w3.org/2000/svg">
<g clip-path="url(#clip0)">
<path d="M95.5 485V433L96 239.5V25C101.6 5.4 118.333 0.5 126 0.5H352L479 128V330V489C472.2 506.6 458.167 511.667 452 512C347 511.833 135.8 511.6 131 512C125 512.5 118 510.5 108 504.5C100 499.7 96.3333 489.5 95.5 485Z" fill="#E2E5E7"/>
<path d="M479 223V128L466 115H450.5L373.5 117L479 223Z" fill="#CAD1D8"/>
<path d="M352 98V0.5L478.5 128H384.5C360.1 126.4 352.667 107.333 352 98Z" fill="#B0B7BD"/>
<path d="M97 402V447.5L402 448C412.4 446.8 415.667 438.5 416 434.5V402H97Z" fill="#CAD1D8"/>
<rect x="32" y="240" width="384" height="192" rx="16" fill="#576D7E"/>
<path d="M108.473 295.102H131.149C137.048 295.102 142.106 295.648 146.325 296.742C150.544 297.836 154.372 299.887 157.809 302.895C166.755 310.551 171.227 322.191 171.227 337.816C171.227 342.973 170.778 347.68 169.88 351.938C168.981 356.195 167.595 360.043 165.72 363.48C163.845 366.879 161.442 369.926 158.512 372.621C156.208 374.691 153.688 376.352 150.954 377.602C148.22 378.852 145.27 379.73 142.106 380.238C138.981 380.746 135.446 381 131.501 381H108.825C105.661 381 103.278 380.531 101.677 379.594C100.075 378.617 99.0203 377.27 98.5125 375.551C98.0437 373.793 97.8094 371.527 97.8094 368.754V305.766C97.8094 302.016 98.6492 299.301 100.329 297.621C102.009 295.941 104.723 295.102 108.473 295.102ZM115.212 308.871V367.172H128.395C131.286 367.172 133.552 367.094 135.192 366.938C136.833 366.781 138.532 366.391 140.29 365.766C142.048 365.141 143.571 364.262 144.86 363.129C150.68 358.207 153.591 349.73 153.591 337.699C153.591 329.223 152.302 322.875 149.723 318.656C147.184 314.438 144.04 311.762 140.29 310.629C136.54 309.457 132.009 308.871 126.696 308.871H115.212ZM217.699 344.262H211.605V371.859C211.605 375.492 210.805 378.168 209.203 379.887C207.602 381.605 205.512 382.465 202.934 382.465C200.16 382.465 198.012 381.566 196.488 379.77C194.965 377.973 194.203 375.336 194.203 371.859V305.766C194.203 302.016 195.043 299.301 196.723 297.621C198.402 295.941 201.117 295.102 204.867 295.102H233.168C237.074 295.102 240.414 295.277 243.188 295.629C245.961 295.941 248.461 296.605 250.688 297.621C253.383 298.754 255.766 300.375 257.836 302.484C259.906 304.594 261.469 307.055 262.523 309.867C263.617 312.641 264.164 315.59 264.164 318.715C264.164 325.121 262.348 330.238 258.715 334.066C255.121 337.895 249.652 340.609 242.309 342.211C245.395 343.852 248.344 346.273 251.156 349.477C253.969 352.68 256.469 356.098 258.656 359.73C260.883 363.324 262.602 366.586 263.812 369.516C265.062 372.406 265.688 374.398 265.688 375.492C265.688 376.625 265.316 377.758 264.574 378.891C263.871 379.984 262.895 380.844 261.645 381.469C260.395 382.133 258.949 382.465 257.309 382.465C255.355 382.465 253.715 381.996 252.387 381.059C251.059 380.16 249.906 379.008 248.93 377.602C247.992 376.195 246.703 374.125 245.062 371.391L238.09 359.789C235.59 355.531 233.344 352.289 231.352 350.062C229.398 347.836 227.406 346.312 225.375 345.492C223.344 344.672 220.785 344.262 217.699 344.262ZM227.66 308.168H211.605V331.781H227.191C231.371 331.781 234.887 331.43 237.738 330.727C240.59 329.984 242.758 328.754 244.242 327.035C245.766 325.277 246.527 322.875 246.527 319.828C246.527 317.445 245.922 315.355 244.711 313.559C243.5 311.723 241.82 310.355 239.672 309.457C237.641 308.598 233.637 308.168 227.66 308.168ZM298.155 305.062L317.609 362.66L337.12 304.652C338.136 301.605 338.898 299.496 339.405 298.324C339.913 297.113 340.753 296.039 341.925 295.102C343.097 294.125 344.698 293.637 346.73 293.637C348.214 293.637 349.581 294.008 350.831 294.75C352.12 295.492 353.116 296.488 353.82 297.738C354.562 298.949 354.933 300.18 354.933 301.43C354.933 302.289 354.816 303.227 354.581 304.242C354.347 305.219 354.054 306.195 353.702 307.172C353.351 308.109 352.999 309.086 352.648 310.102L331.847 366.234C331.105 368.383 330.363 370.434 329.62 372.387C328.878 374.301 328.019 376 327.042 377.484C326.066 378.93 324.757 380.121 323.116 381.059C321.515 381.996 319.542 382.465 317.198 382.465C314.855 382.465 312.863 381.996 311.222 381.059C309.62 380.16 308.312 378.969 307.296 377.484C306.32 375.961 305.46 374.242 304.718 372.328C303.976 370.414 303.234 368.383 302.491 366.234L282.042 310.57C281.691 309.555 281.32 308.559 280.929 307.582C280.577 306.605 280.265 305.551 279.991 304.418C279.757 303.285 279.64 302.328 279.64 301.547C279.64 299.555 280.441 297.738 282.042 296.098C283.644 294.457 285.655 293.637 288.077 293.637C291.046 293.637 293.136 294.555 294.347 296.391C295.597 298.188 296.866 301.078 298.155 305.062Z" fill="white"/>
</g>
<defs>
<clipPath id="clip0">
<rect width="512" height="512" fill="white"/>
</clipPath>
</defs>
</svg>
