<svg width="512" height="512" viewBox="0 0 512 512" fill="none" xmlns="http://www.w3.org/2000/svg">
<g clip-path="url(#clip0)">
<path d="M95.5 485V433L96 239.5V25C101.6 5.4 118.333 0.5 126 0.5H352L479 128V330V489C472.2 506.6 458.167 511.667 452 512C347 511.833 135.8 511.6 131 512C125 512.5 118 510.5 108 504.5C100 499.7 96.3333 489.5 95.5 485Z" fill="#E2E5E7"/>
<path d="M479 223V128L466 115H450.5L373.5 117L479 223Z" fill="#CAD1D8"/>
<path d="M352 98V0.5L478.5 128H384.5C360.1 126.4 352.667 107.333 352 98Z" fill="#B0B7BD"/>
<path d="M97 402V447.5L402 448C412.4 446.8 415.667 438.5 416 434.5V402H97Z" fill="#CAD1D8"/>
<rect x="32" y="240" width="384" height="192" rx="16" fill="#576D7E"/>
<path d="M109.528 295.102H132.204C138.102 295.102 143.161 295.648 147.38 296.742C151.598 297.836 155.427 299.887 158.864 302.895C167.809 310.551 172.282 322.191 172.282 337.816C172.282 342.973 171.833 347.68 170.934 351.938C170.036 356.195 168.649 360.043 166.774 363.48C164.899 366.879 162.497 369.926 159.567 372.621C157.262 374.691 154.743 376.352 152.009 377.602C149.274 378.852 146.325 379.73 143.161 380.238C140.036 380.746 136.501 381 132.555 381H109.88C106.716 381 104.333 380.531 102.731 379.594C101.13 378.617 100.075 377.27 99.5672 375.551C99.0984 373.793 98.8641 371.527 98.8641 368.754V305.766C98.8641 302.016 99.7039 299.301 101.384 297.621C103.063 295.941 105.778 295.102 109.528 295.102ZM116.266 308.871V367.172H129.45C132.341 367.172 134.606 367.094 136.247 366.938C137.887 366.781 139.587 366.391 141.345 365.766C143.102 365.141 144.626 364.262 145.915 363.129C151.735 358.207 154.645 349.73 154.645 337.699C154.645 329.223 153.356 322.875 150.778 318.656C148.239 314.438 145.095 311.762 141.345 310.629C137.595 309.457 133.063 308.871 127.751 308.871H116.266ZM251.156 309.457H232.172V371.859C232.172 375.453 231.371 378.129 229.77 379.887C228.168 381.605 226.098 382.465 223.559 382.465C220.98 382.465 218.871 381.586 217.23 379.828C215.629 378.07 214.828 375.414 214.828 371.859V309.457H195.844C192.875 309.457 190.668 308.812 189.223 307.523C187.777 306.195 187.055 304.457 187.055 302.309C187.055 300.082 187.797 298.324 189.281 297.035C190.805 295.746 192.992 295.102 195.844 295.102H251.156C254.164 295.102 256.391 295.766 257.836 297.094C259.32 298.422 260.062 300.16 260.062 302.309C260.062 304.457 259.32 306.195 257.836 307.523C256.352 308.812 254.125 309.457 251.156 309.457ZM288.956 295.102H311.632C317.53 295.102 322.589 295.648 326.808 296.742C331.027 297.836 334.855 299.887 338.292 302.895C347.238 310.551 351.71 322.191 351.71 337.816C351.71 342.973 351.261 347.68 350.363 351.938C349.464 356.195 348.077 360.043 346.202 363.48C344.327 366.879 341.925 369.926 338.995 372.621C336.691 374.691 334.171 376.352 331.437 377.602C328.702 378.852 325.753 379.73 322.589 380.238C319.464 380.746 315.929 381 311.984 381H289.308C286.144 381 283.761 380.531 282.159 379.594C280.558 378.617 279.503 377.27 278.995 375.551C278.527 373.793 278.292 371.527 278.292 368.754V305.766C278.292 302.016 279.132 299.301 280.812 297.621C282.491 295.941 285.206 295.102 288.956 295.102ZM295.695 308.871V367.172H308.878C311.769 367.172 314.034 367.094 315.675 366.938C317.316 366.781 319.015 366.391 320.773 365.766C322.53 365.141 324.054 364.262 325.343 363.129C331.163 358.207 334.073 349.73 334.073 337.699C334.073 329.223 332.784 322.875 330.206 318.656C327.667 314.438 324.523 311.762 320.773 310.629C317.023 309.457 312.491 308.871 307.179 308.871H295.695Z" fill="white"/>
</g>
<defs>
<clipPath id="clip0">
<rect width="512" height="512" fill="white"/>
</clipPath>
</defs>
</svg>
