<svg width="512" height="512" viewBox="0 0 512 512" fill="none" xmlns="http://www.w3.org/2000/svg">
<g clip-path="url(#clip0)">
<path d="M95.5 485V433L96 239.5V25C101.6 5.4 118.333 0.5 126 0.5H352L479 128V330V489C472.2 506.6 458.167 511.667 452 512C347 511.833 135.8 511.6 131 512C125 512.5 118 510.5 108 504.5C100 499.7 96.3333 489.5 95.5 485Z" fill="#E2E5E7"/>
<path d="M479 223V128L466 115H450.5L373.5 117L479 223Z" fill="#CAD1D8"/>
<path d="M352 98V0.5L478.5 128H384.5C360.1 126.4 352.667 107.333 352 98Z" fill="#B0B7BD"/>
<path d="M97 402V447.5L402 448C412.4 446.8 415.667 438.5 416 434.5V402H97Z" fill="#CAD1D8"/>
<rect x="32" y="240" width="384" height="192" rx="16" fill="#576D7E"/>
<path d="M85.5906 295.102H108.266C114.165 295.102 119.223 295.648 123.442 296.742C127.661 297.836 131.489 299.887 134.927 302.895C143.872 310.551 148.345 322.191 148.345 337.816C148.345 342.973 147.895 347.68 146.997 351.938C146.098 356.195 144.712 360.043 142.837 363.48C140.962 366.879 138.559 369.926 135.63 372.621C133.325 374.691 130.805 376.352 128.071 377.602C125.337 378.852 122.387 379.73 119.223 380.238C116.098 380.746 112.563 381 108.618 381H85.9422C82.7781 381 80.3953 380.531 78.7937 379.594C77.1922 378.617 76.1375 377.27 75.6297 375.551C75.1609 373.793 74.9266 371.527 74.9266 368.754V305.766C74.9266 302.016 75.7664 299.301 77.4461 297.621C79.1258 295.941 81.8406 295.102 85.5906 295.102ZM92.3289 308.871V367.172H105.512C108.403 367.172 110.669 367.094 112.309 366.938C113.95 366.781 115.649 366.391 117.407 365.766C119.165 365.141 120.688 364.262 121.977 363.129C127.798 358.207 130.708 349.73 130.708 337.699C130.708 329.223 129.419 322.875 126.841 318.656C124.302 314.438 121.157 311.762 117.407 310.629C113.657 309.457 109.126 308.871 103.813 308.871H92.3289ZM235.305 367.465L221.418 315.961L207.355 367.465C206.262 371.371 205.383 374.184 204.719 375.902C204.094 377.582 202.98 379.105 201.379 380.473C199.777 381.801 197.648 382.465 194.992 382.465C192.844 382.465 191.066 382.055 189.66 381.234C188.293 380.453 187.18 379.34 186.32 377.895C185.461 376.41 184.758 374.672 184.211 372.68C183.664 370.648 183.176 368.773 182.746 367.055L168.449 309.223C167.59 305.863 167.16 303.305 167.16 301.547C167.16 299.32 167.941 297.445 169.504 295.922C171.066 294.398 173 293.637 175.305 293.637C178.469 293.637 180.598 294.652 181.691 296.684C182.785 298.715 183.742 301.664 184.562 305.531L195.812 355.688L208.41 308.754C209.348 305.16 210.188 302.426 210.93 300.551C211.672 298.676 212.883 297.055 214.562 295.688C216.242 294.32 218.527 293.637 221.418 293.637C224.348 293.637 226.613 294.359 228.215 295.805C229.855 297.211 230.988 298.754 231.613 300.434C232.238 302.113 233.078 304.887 234.133 308.754L246.848 355.688L258.098 305.531C258.645 302.914 259.152 300.863 259.621 299.379C260.129 297.895 260.969 296.566 262.141 295.395C263.352 294.223 265.09 293.637 267.355 293.637C269.621 293.637 271.535 294.398 273.098 295.922C274.699 297.406 275.5 299.281 275.5 301.547C275.5 303.148 275.07 305.707 274.211 309.223L259.914 367.055C258.938 370.961 258.117 373.832 257.453 375.668C256.828 377.465 255.734 379.047 254.172 380.414C252.648 381.781 250.48 382.465 247.668 382.465C245.012 382.465 242.883 381.801 241.281 380.473C239.68 379.145 238.566 377.66 237.941 376.02C237.316 374.34 236.438 371.488 235.305 367.465ZM373.359 346.078V362.543C373.359 364.73 373.144 366.488 372.714 367.816C372.284 369.105 371.484 370.277 370.312 371.332C369.179 372.387 367.714 373.402 365.917 374.379C360.722 377.191 355.722 379.242 350.917 380.531C346.113 381.82 340.878 382.465 335.214 382.465C328.613 382.465 322.597 381.449 317.167 379.418C311.738 377.387 307.109 374.438 303.28 370.57C299.452 366.703 296.503 362.016 294.433 356.508C292.402 351 291.386 344.848 291.386 338.051C291.386 331.371 292.382 325.258 294.374 319.711C296.366 314.164 299.296 309.457 303.163 305.59C307.03 301.723 311.738 298.773 317.284 296.742C322.831 294.672 329.12 293.637 336.152 293.637C341.933 293.637 347.05 294.418 351.503 295.98C355.956 297.504 359.57 299.438 362.343 301.781C365.116 304.125 367.206 306.605 368.613 309.223C370.019 311.84 370.722 314.164 370.722 316.195C370.722 318.383 369.902 320.258 368.261 321.82C366.659 323.344 364.726 324.105 362.46 324.105C361.21 324.105 359.999 323.812 358.827 323.227C357.695 322.641 356.738 321.82 355.956 320.766C353.808 317.406 351.991 314.867 350.507 313.148C349.023 311.43 347.011 309.984 344.472 308.812C341.972 307.641 338.769 307.055 334.863 307.055C330.839 307.055 327.245 307.758 324.081 309.164C320.917 310.531 318.202 312.543 315.937 315.199C313.71 317.816 311.991 321.039 310.78 324.867C309.609 328.695 309.023 332.934 309.023 337.582C309.023 347.66 311.327 355.414 315.937 360.844C320.585 366.273 327.05 368.988 335.331 368.988C339.355 368.988 343.124 368.461 346.64 367.406C350.195 366.352 353.788 364.848 357.421 362.895V348.949H343.945C340.702 348.949 338.241 348.461 336.562 347.484C334.921 346.508 334.101 344.848 334.101 342.504C334.101 340.59 334.784 339.008 336.152 337.758C337.558 336.508 339.452 335.883 341.835 335.883H361.581C364.003 335.883 366.054 336.098 367.734 336.527C369.413 336.957 370.761 337.914 371.777 339.398C372.831 340.883 373.359 343.109 373.359 346.078Z" fill="white"/>
</g>
<defs>
<clipPath id="clip0">
<rect width="512" height="512" fill="white"/>
</clipPath>
</defs>
</svg>
