<svg width="512" height="512" viewBox="0 0 512 512" fill="none" xmlns="http://www.w3.org/2000/svg">
<g clip-path="url(#clip0)">
<path d="M95.5 485V433L96 239.5V25C101.6 5.4 118.333 0.5 126 0.5H352L479 128V330V489C472.2 506.6 458.167 511.667 452 512C347 511.833 135.8 511.6 131 512C125 512.5 118 510.5 108 504.5C100 499.7 96.3333 489.5 95.5 485Z" fill="#E2E5E7"/>
<path d="M479 223V128L466 115H450.5L373.5 117L479 223Z" fill="#CAD1D8"/>
<path d="M352 98V0.5L478.5 128H384.5C360.1 126.4 352.667 107.333 352 98Z" fill="#B0B7BD"/>
<path d="M97 402V447.5L402 448C412.4 446.8 415.667 438.5 416 434.5V402H97Z" fill="#CAD1D8"/>
<rect x="32" y="240" width="384" height="192" rx="16" fill="#576D7E"/>
<path d="M118.403 295.102H141.079C146.977 295.102 152.036 295.648 156.255 296.742C160.473 297.836 164.302 299.887 167.739 302.895C176.684 310.551 181.157 322.191 181.157 337.816C181.157 342.973 180.708 347.68 179.809 351.938C178.911 356.195 177.524 360.043 175.649 363.48C173.774 366.879 171.372 369.926 168.442 372.621C166.137 374.691 163.618 376.352 160.884 377.602C158.149 378.852 155.2 379.73 152.036 380.238C148.911 380.746 145.376 381 141.43 381H118.755C115.591 381 113.208 380.531 111.606 379.594C110.005 378.617 108.95 377.27 108.442 375.551C107.973 373.793 107.739 371.527 107.739 368.754V305.766C107.739 302.016 108.579 299.301 110.259 297.621C111.938 295.941 114.653 295.102 118.403 295.102ZM125.141 308.871V367.172H138.325C141.216 367.172 143.481 367.094 145.122 366.938C146.762 366.781 148.462 366.391 150.22 365.766C151.977 365.141 153.501 364.262 154.79 363.129C160.61 358.207 163.52 349.73 163.52 337.699C163.52 329.223 162.231 322.875 159.653 318.656C157.114 314.438 153.97 311.762 150.22 310.629C146.47 309.457 141.938 308.871 136.626 308.871H125.141ZM201.086 364.301L220.305 336.234L204.133 311.273C202.609 308.852 201.457 306.781 200.676 305.062C199.934 303.305 199.562 301.625 199.562 300.023C199.562 298.383 200.285 296.918 201.73 295.629C203.215 294.301 205.012 293.637 207.121 293.637C209.543 293.637 211.418 294.359 212.746 295.805C214.113 297.211 215.988 299.848 218.371 303.715L231.262 324.574L245.031 303.715C246.164 301.957 247.121 300.453 247.902 299.203C248.723 297.953 249.504 296.918 250.246 296.098C250.988 295.277 251.809 294.672 252.707 294.281C253.645 293.852 254.719 293.637 255.93 293.637C258.117 293.637 259.895 294.301 261.262 295.629C262.668 296.918 263.371 298.461 263.371 300.258C263.371 302.875 261.867 306.43 258.859 310.922L241.926 336.234L260.148 364.301C261.789 366.762 262.98 368.812 263.723 370.453C264.465 372.055 264.836 373.578 264.836 375.023C264.836 376.391 264.504 377.641 263.84 378.773C263.176 379.906 262.238 380.805 261.027 381.469C259.816 382.133 258.449 382.465 256.926 382.465C255.285 382.465 253.898 382.113 252.766 381.41C251.633 380.746 250.715 379.906 250.012 378.891C249.309 377.875 248 375.902 246.086 372.973L230.969 349.184L214.914 373.676C213.664 375.629 212.766 376.996 212.219 377.777C211.711 378.559 211.086 379.32 210.344 380.062C209.602 380.805 208.723 381.391 207.707 381.82C206.691 382.25 205.5 382.465 204.133 382.465C202.023 382.465 200.266 381.82 198.859 380.531C197.492 379.242 196.809 377.367 196.809 374.906C196.809 372.016 198.234 368.48 201.086 364.301ZM335.917 308.52H301.64V330.492H330.292C332.948 330.492 334.921 331.098 336.21 332.309C337.538 333.48 338.202 335.062 338.202 337.055C338.202 339.047 337.538 340.629 336.21 341.801C334.882 342.973 332.909 343.559 330.292 343.559H301.64V371.859C301.64 375.453 300.82 378.129 299.179 379.887C297.577 381.605 295.507 382.465 292.968 382.465C290.39 382.465 288.28 381.586 286.64 379.828C285.038 378.07 284.238 375.414 284.238 371.859V305.766C284.238 303.266 284.609 301.234 285.351 299.672C286.093 298.07 287.245 296.918 288.808 296.215C290.409 295.473 292.441 295.102 294.902 295.102H335.917C338.691 295.102 340.741 295.727 342.07 296.977C343.437 298.188 344.12 299.789 344.12 301.781C344.12 303.812 343.437 305.453 342.07 306.703C340.741 307.914 338.691 308.52 335.917 308.52Z" fill="white"/>
</g>
<defs>
<clipPath id="clip0">
<rect width="512" height="512" fill="white"/>
</clipPath>
</defs>
</svg>
