<svg width="512" height="512" viewBox="0 0 512 512" fill="none" xmlns="http://www.w3.org/2000/svg">
<g clip-path="url(#clip0)">
<path d="M95.5 485V433L96 239.5V25C101.6 5.4 118.333 0.5 126 0.5H352L479 128V330V489C472.2 506.6 458.167 511.667 452 512C347 511.833 135.8 511.6 131 512C125 512.5 118 510.5 108 504.5C100 499.7 96.3333 489.5 95.5 485Z" fill="#E2E5E7"/>
<path d="M479 223V128L466 115H450.5L373.5 117L479 223Z" fill="#CAD1D8"/>
<path d="M352 98V0.5L478.5 128H384.5C360.1 126.4 352.667 107.333 352 98Z" fill="#B0B7BD"/>
<path d="M97 402V447.5L402 448C412.4 446.8 415.667 438.5 416 434.5V402H97Z" fill="#CAD1D8"/>
<rect x="10" y="240" width="384" height="192" rx="16" fill="#84BD5A"/>
<path d="M140.118 307.52H100.919V328.613H137.012C139.669 328.613 141.641 329.219 142.93 330.43C144.259 331.602 144.923 333.164 144.923 335.117C144.923 337.07 144.278 338.672 142.989 339.922C141.7 341.133 139.708 341.738 137.012 341.738H100.919V366.172H141.466C144.2 366.172 146.251 366.816 147.618 368.105C149.024 369.355 149.727 371.035 149.727 373.145C149.727 375.176 149.024 376.836 147.618 378.125C146.251 379.375 144.2 380 141.466 380H94.1805C90.3914 380 87.657 379.16 85.9773 377.48C84.3367 375.801 83.5164 373.086 83.5164 369.336V304.766C83.5164 302.266 83.8875 300.234 84.6297 298.672C85.3719 297.07 86.5242 295.918 88.0867 295.215C89.6883 294.473 91.7195 294.102 94.1805 294.102H140.118C142.891 294.102 144.942 294.727 146.27 295.977C147.637 297.188 148.321 298.789 148.321 300.781C148.321 302.812 147.637 304.453 146.27 305.703C144.942 306.914 142.891 307.52 140.118 307.52ZM204.695 346.543H188.758V370.859C188.758 374.336 187.938 376.973 186.297 378.77C184.656 380.566 182.586 381.465 180.086 381.465C177.469 381.465 175.359 380.586 173.758 378.828C172.156 377.031 171.355 374.414 171.355 370.977V304.766C171.355 300.938 172.234 298.203 173.992 296.562C175.75 294.922 178.543 294.102 182.371 294.102H204.695C211.297 294.102 216.375 294.609 219.93 295.625C223.445 296.602 226.473 298.223 229.012 300.488C231.59 302.754 233.543 305.527 234.871 308.809C236.199 312.09 236.863 315.781 236.863 319.883C236.863 328.633 234.168 335.273 228.777 339.805C223.387 344.297 215.359 346.543 204.695 346.543ZM200.477 307.168H188.758V333.418H200.477C204.578 333.418 207.996 332.988 210.73 332.129C213.504 331.27 215.613 329.863 217.059 327.91C218.504 325.957 219.227 323.398 219.227 320.234C219.227 316.445 218.113 313.359 215.887 310.977C213.387 308.438 208.25 307.168 200.477 307.168ZM324.468 354.219C324.468 359.414 323.12 364.082 320.425 368.223C317.769 372.363 313.863 375.605 308.706 377.949C303.55 380.293 297.437 381.465 290.366 381.465C281.89 381.465 274.898 379.863 269.39 376.66C265.484 374.355 262.3 371.289 259.839 367.461C257.417 363.594 256.206 359.844 256.206 356.211C256.206 354.102 256.929 352.305 258.374 350.82C259.859 349.297 261.734 348.535 263.999 348.535C265.835 348.535 267.378 349.121 268.628 350.293C269.917 351.465 271.011 353.203 271.909 355.508C273.003 358.242 274.175 360.527 275.425 362.363C276.714 364.199 278.511 365.723 280.816 366.934C283.12 368.105 286.148 368.691 289.898 368.691C295.054 368.691 299.234 367.5 302.437 365.117C305.679 362.695 307.3 359.688 307.3 356.094C307.3 353.242 306.421 350.938 304.663 349.18C302.945 347.383 300.698 346.016 297.925 345.078C295.191 344.141 291.519 343.145 286.909 342.09C280.738 340.645 275.562 338.965 271.382 337.051C267.241 335.098 263.941 332.461 261.48 329.141C259.058 325.781 257.847 321.621 257.847 316.66C257.847 311.934 259.136 307.734 261.714 304.062C264.292 300.391 268.023 297.578 272.905 295.625C277.788 293.633 283.53 292.637 290.132 292.637C295.405 292.637 299.956 293.301 303.784 294.629C307.652 295.918 310.855 297.656 313.394 299.844C315.933 301.992 317.788 304.258 318.96 306.641C320.132 309.023 320.718 311.348 320.718 313.613C320.718 315.684 319.976 317.559 318.491 319.238C317.046 320.879 315.23 321.699 313.042 321.699C311.05 321.699 309.527 321.211 308.472 320.234C307.456 319.219 306.343 317.578 305.132 315.312C303.57 312.07 301.695 309.551 299.507 307.754C297.32 305.918 293.804 305 288.96 305C284.468 305 280.835 305.996 278.062 307.988C275.327 309.941 273.96 312.305 273.96 315.078C273.96 316.797 274.429 318.281 275.366 319.531C276.304 320.781 277.593 321.855 279.234 322.754C280.874 323.652 282.534 324.355 284.214 324.863C285.894 325.371 288.667 326.113 292.534 327.09C297.378 328.223 301.753 329.473 305.659 330.84C309.605 332.207 312.945 333.867 315.679 335.82C318.452 337.773 320.601 340.254 322.124 343.262C323.687 346.23 324.468 349.883 324.468 354.219Z" fill="white"/>
</g>
<defs>
<clipPath id="clip0">
<rect width="512" height="512" fill="white"/>
</clipPath>
</defs>
</svg>
