<svg width="512" height="512" viewBox="0 0 512 512" fill="none" xmlns="http://www.w3.org/2000/svg">
<g clip-path="url(#clip0)">
<path d="M95.5 485V433L96 239.5V25C101.6 5.4 118.333 0.5 126 0.5H352L479 128V330V489C472.2 506.6 458.167 511.667 452 512C347 511.833 135.8 511.6 131 512C125 512.5 118 510.5 108 504.5C100 499.7 96.3333 489.5 95.5 485Z" fill="#E2E5E7"/>
<path d="M479 223V128L466 115H450.5L373.5 117L479 223Z" fill="#CAD1D8"/>
<path d="M352 98V0.5L478.5 128H384.5C360.1 126.4 352.667 107.333 352 98Z" fill="#B0B7BD"/>
<path d="M97 402V447.5L402 448C412.4 446.8 415.667 438.5 416 434.5V402H97Z" fill="#CAD1D8"/>
<rect x="32" y="240" width="384" height="192" rx="16" fill="#84BD5A"/>
<path d="M174.368 308.52H135.169V329.613H171.262C173.919 329.613 175.891 330.219 177.18 331.43C178.509 332.602 179.173 334.164 179.173 336.117C179.173 338.07 178.528 339.672 177.239 340.922C175.95 342.133 173.958 342.738 171.262 342.738H135.169V367.172H175.716C178.45 367.172 180.501 367.816 181.868 369.105C183.274 370.355 183.977 372.035 183.977 374.145C183.977 376.176 183.274 377.836 181.868 379.125C180.501 380.375 178.45 381 175.716 381H128.43C124.641 381 121.907 380.16 120.227 378.48C118.587 376.801 117.766 374.086 117.766 370.336V305.766C117.766 303.266 118.137 301.234 118.88 299.672C119.622 298.07 120.774 296.918 122.337 296.215C123.938 295.473 125.97 295.102 128.43 295.102H174.368C177.141 295.102 179.192 295.727 180.52 296.977C181.887 298.188 182.571 299.789 182.571 301.781C182.571 303.812 181.887 305.453 180.52 306.703C179.192 307.914 177.141 308.52 174.368 308.52ZM202.441 364.301L221.66 336.234L205.488 311.273C203.965 308.852 202.812 306.781 202.031 305.062C201.289 303.305 200.918 301.625 200.918 300.023C200.918 298.383 201.641 296.918 203.086 295.629C204.57 294.301 206.367 293.637 208.477 293.637C210.898 293.637 212.773 294.359 214.102 295.805C215.469 297.211 217.344 299.848 219.727 303.715L232.617 324.574L246.387 303.715C247.52 301.957 248.477 300.453 249.258 299.203C250.078 297.953 250.859 296.918 251.602 296.098C252.344 295.277 253.164 294.672 254.062 294.281C255 293.852 256.074 293.637 257.285 293.637C259.473 293.637 261.25 294.301 262.617 295.629C264.023 296.918 264.727 298.461 264.727 300.258C264.727 302.875 263.223 306.43 260.215 310.922L243.281 336.234L261.504 364.301C263.145 366.762 264.336 368.812 265.078 370.453C265.82 372.055 266.191 373.578 266.191 375.023C266.191 376.391 265.859 377.641 265.195 378.773C264.531 379.906 263.594 380.805 262.383 381.469C261.172 382.133 259.805 382.465 258.281 382.465C256.641 382.465 255.254 382.113 254.121 381.41C252.988 380.746 252.07 379.906 251.367 378.891C250.664 377.875 249.355 375.902 247.441 372.973L232.324 349.184L216.27 373.676C215.02 375.629 214.121 376.996 213.574 377.777C213.066 378.559 212.441 379.32 211.699 380.062C210.957 380.805 210.078 381.391 209.062 381.82C208.047 382.25 206.855 382.465 205.488 382.465C203.379 382.465 201.621 381.82 200.215 380.531C198.848 379.242 198.164 377.367 198.164 374.906C198.164 372.016 199.59 368.48 202.441 364.301ZM342.546 308.52H303.347V329.613H339.441C342.097 329.613 344.07 330.219 345.359 331.43C346.687 332.602 347.351 334.164 347.351 336.117C347.351 338.07 346.706 339.672 345.417 340.922C344.128 342.133 342.136 342.738 339.441 342.738H303.347V367.172H343.894C346.628 367.172 348.679 367.816 350.046 369.105C351.452 370.355 352.155 372.035 352.155 374.145C352.155 376.176 351.452 377.836 350.046 379.125C348.679 380.375 346.628 381 343.894 381H296.609C292.82 381 290.085 380.16 288.405 378.48C286.765 376.801 285.945 374.086 285.945 370.336V305.766C285.945 303.266 286.316 301.234 287.058 299.672C287.8 298.07 288.952 296.918 290.515 296.215C292.116 295.473 294.148 295.102 296.609 295.102H342.546C345.32 295.102 347.37 295.727 348.698 296.977C350.066 298.188 350.749 299.789 350.749 301.781C350.749 303.812 350.066 305.453 348.698 306.703C347.37 307.914 345.32 308.52 342.546 308.52Z" fill="white"/>
</g>
<defs>
<clipPath id="clip0">
<rect width="512" height="512" fill="white"/>
</clipPath>
</defs>
</svg>
