<svg width="512" height="512" viewBox="0 0 512 512" fill="none" xmlns="http://www.w3.org/2000/svg">
<g clip-path="url(#clip0)">
<path d="M95.5 485V433L96 239.5V25C101.6 5.4 118.333 0.5 126 0.5H352L479 128V330V489C472.2 506.6 458.167 511.667 452 512C347 511.833 135.8 511.6 131 512C125 512.5 118 510.5 108 504.5C100 499.7 96.3333 489.5 95.5 485Z" fill="#E2E5E7"/>
<path d="M479 223V128L466 115H450.5L373.5 117L479 223Z" fill="#CAD1D8"/>
<path d="M352 98V0.5L478.5 128H384.5C360.1 126.4 352.667 107.333 352 98Z" fill="#B0B7BD"/>
<path d="M97 402V447.5L402 448C412.4 446.8 415.667 438.5 416 434.5V402H97Z" fill="#CAD1D8"/>
<rect x="32" y="240" width="384" height="192" rx="16" fill="#50BEE8"/>
<path d="M163.141 308.52H128.864V330.492H157.516C160.173 330.492 162.145 331.098 163.434 332.309C164.762 333.48 165.427 335.062 165.427 337.055C165.427 339.047 164.762 340.629 163.434 341.801C162.106 342.973 160.134 343.559 157.516 343.559H128.864V371.859C128.864 375.453 128.044 378.129 126.403 379.887C124.802 381.605 122.731 382.465 120.192 382.465C117.614 382.465 115.505 381.586 113.864 379.828C112.262 378.07 111.462 375.414 111.462 371.859V305.766C111.462 303.266 111.833 301.234 112.575 299.672C113.317 298.07 114.47 296.918 116.032 296.215C117.634 295.473 119.665 295.102 122.126 295.102H163.141C165.915 295.102 167.966 295.727 169.294 296.977C170.661 298.188 171.345 299.789 171.345 301.781C171.345 303.812 170.661 305.453 169.294 306.703C167.966 307.914 165.915 308.52 163.141 308.52ZM224.789 373.559V362.66H195.375C191.664 362.66 188.871 361.82 186.996 360.141C185.16 358.461 184.242 356.176 184.242 353.285C184.242 352.543 184.379 351.801 184.652 351.059C184.926 350.277 185.336 349.477 185.883 348.656C186.43 347.797 186.996 346.977 187.582 346.195C188.168 345.414 188.891 344.457 189.75 343.324L220.805 301.781C222.836 299.047 224.496 297.074 225.785 295.863C227.113 294.613 228.695 293.988 230.531 293.988C236.469 293.988 239.438 297.387 239.438 304.184V349.535H241.957C244.965 349.535 247.367 349.945 249.164 350.766C251 351.586 251.918 353.383 251.918 356.156C251.918 358.422 251.176 360.082 249.691 361.137C248.207 362.152 245.98 362.66 243.012 362.66H239.438V373.559C239.438 376.566 238.773 378.812 237.445 380.297C236.117 381.742 234.34 382.465 232.113 382.465C229.926 382.465 228.148 381.723 226.781 380.238C225.453 378.715 224.789 376.488 224.789 373.559ZM199.594 349.535H224.789V315.492L199.594 349.535ZM284.034 305.062L303.488 362.66L322.999 304.652C324.015 301.605 324.777 299.496 325.284 298.324C325.792 297.113 326.632 296.039 327.804 295.102C328.976 294.125 330.577 293.637 332.609 293.637C334.093 293.637 335.46 294.008 336.71 294.75C337.999 295.492 338.995 296.488 339.698 297.738C340.441 298.949 340.812 300.18 340.812 301.43C340.812 302.289 340.695 303.227 340.46 304.242C340.226 305.219 339.933 306.195 339.581 307.172C339.23 308.109 338.878 309.086 338.527 310.102L317.726 366.234C316.984 368.383 316.241 370.434 315.499 372.387C314.757 374.301 313.898 376 312.921 377.484C311.945 378.93 310.636 380.121 308.995 381.059C307.394 381.996 305.421 382.465 303.077 382.465C300.734 382.465 298.741 381.996 297.101 381.059C295.499 380.16 294.191 378.969 293.175 377.484C292.198 375.961 291.339 374.242 290.597 372.328C289.855 370.414 289.113 368.383 288.37 366.234L267.921 310.57C267.57 309.555 267.198 308.559 266.808 307.582C266.456 306.605 266.144 305.551 265.87 304.418C265.636 303.285 265.519 302.328 265.519 301.547C265.519 299.555 266.32 297.738 267.921 296.098C269.523 294.457 271.534 293.637 273.956 293.637C276.925 293.637 279.015 294.555 280.226 296.391C281.476 298.188 282.745 301.078 284.034 305.062Z" fill="white"/>
</g>
<defs>
<clipPath id="clip0">
<rect width="512" height="512" fill="white"/>
</clipPath>
</defs>
</svg>
