<svg width="512" height="512" viewBox="0 0 512 512" fill="none" xmlns="http://www.w3.org/2000/svg">
<g clip-path="url(#clip0)">
<path d="M95.5 485V433L96 239.5V25C101.6 5.4 118.333 0.5 126 0.5H352L479 128V330V489C472.2 506.6 458.167 511.667 452 512C347 511.833 135.8 511.6 131 512C125 512.5 118 510.5 108 504.5C100 499.7 96.3333 489.5 95.5 485Z" fill="#E2E5E7"/>
<path d="M479 223V128L466 115H450.5L373.5 117L479 223Z" fill="#CAD1D8"/>
<path d="M352 98V0.5L478.5 128H384.5C360.1 126.4 352.667 107.333 352 98Z" fill="#B0B7BD"/>
<path d="M97 402V447.5L402 448C412.4 446.8 415.667 438.5 416 434.5V402H97Z" fill="#CAD1D8"/>
<rect x="32" y="240" width="384" height="192" rx="16" fill="#50BEE8"/>
<path d="M170.001 308.52H135.723V330.492H164.376C167.032 330.492 169.005 331.098 170.294 332.309C171.622 333.48 172.286 335.062 172.286 337.055C172.286 339.047 171.622 340.629 170.294 341.801C168.966 342.973 166.993 343.559 164.376 343.559H135.723V371.859C135.723 375.453 134.903 378.129 133.262 379.887C131.661 381.605 129.591 382.465 127.052 382.465C124.473 382.465 122.364 381.586 120.723 379.828C119.122 378.07 118.321 375.414 118.321 371.859V305.766C118.321 303.266 118.692 301.234 119.434 299.672C120.177 298.07 121.329 296.918 122.891 296.215C124.493 295.473 126.524 295.102 128.985 295.102H170.001C172.774 295.102 174.825 295.727 176.153 296.977C177.52 298.188 178.204 299.789 178.204 301.781C178.204 303.812 177.52 305.453 176.153 306.703C174.825 307.914 172.774 308.52 170.001 308.52ZM216.062 304.184V366.703H251.336C254.148 366.703 256.297 367.387 257.781 368.754C259.305 370.121 260.066 371.84 260.066 373.91C260.066 376.02 259.324 377.738 257.84 379.066C256.355 380.355 254.188 381 251.336 381H209.324C205.535 381 202.801 380.16 201.121 378.48C199.48 376.801 198.66 374.086 198.66 370.336V304.184C198.66 300.668 199.441 298.031 201.004 296.273C202.605 294.516 204.695 293.637 207.273 293.637C209.891 293.637 212 294.516 213.602 296.273C215.242 297.992 216.062 300.629 216.062 304.184ZM332.671 371.273L328.57 360.492H293.648L289.546 371.508C287.945 375.805 286.577 378.715 285.445 380.238C284.312 381.723 282.456 382.465 279.878 382.465C277.691 382.465 275.757 381.664 274.077 380.062C272.398 378.461 271.558 376.645 271.558 374.613C271.558 373.441 271.753 372.23 272.144 370.98C272.534 369.73 273.179 367.992 274.077 365.766L296.05 309.984C296.675 308.383 297.417 306.469 298.277 304.242C299.175 301.977 300.113 300.102 301.089 298.617C302.105 297.133 303.413 295.941 305.015 295.043C306.655 294.105 308.667 293.637 311.05 293.637C313.472 293.637 315.484 294.105 317.085 295.043C318.726 295.941 320.034 297.113 321.011 298.559C322.027 300.004 322.866 301.566 323.53 303.246C324.234 304.887 325.113 307.094 326.167 309.867L348.609 365.297C350.366 369.516 351.245 372.582 351.245 374.496C351.245 376.488 350.405 378.324 348.726 380.004C347.085 381.645 345.093 382.465 342.749 382.465C341.382 382.465 340.21 382.211 339.234 381.703C338.257 381.234 337.437 380.59 336.773 379.77C336.109 378.91 335.386 377.621 334.605 375.902C333.863 374.145 333.218 372.602 332.671 371.273ZM298.218 347.426H323.882L310.933 311.977L298.218 347.426Z" fill="white"/>
</g>
<defs>
<clipPath id="clip0">
<rect width="512" height="512" fill="white"/>
</clipPath>
</defs>
</svg>
