<svg width="512" height="512" viewBox="0 0 512 512" fill="none" xmlns="http://www.w3.org/2000/svg">
<g clip-path="url(#clip0)">
<path d="M95.5 485V433L96 239.5V25C101.6 5.4 118.333 0.5 126 0.5H352L479 128V330V489C472.2 506.6 458.167 511.667 452 512C347 511.833 135.8 511.6 131 512C125 512.5 118 510.5 108 504.5C100 499.7 96.3333 489.5 95.5 485Z" fill="#E2E5E7"/>
<path d="M479 223V128L466 115H450.5L373.5 117L479 223Z" fill="#CAD1D8"/>
<path d="M352 98V0.5L478.5 128H384.5C360.1 126.4 352.667 107.333 352 98Z" fill="#B0B7BD"/>
<path d="M97 402V447.5L402 448C412.4 446.8 415.667 438.5 416 434.5V402H97Z" fill="#CAD1D8"/>
<rect x="32" y="240" width="384" height="192" rx="16" fill="#50BEE8"/>
<path d="M115.71 308.52H81.4328V330.492H110.085C112.741 330.492 114.714 331.098 116.003 332.309C117.331 333.48 117.995 335.062 117.995 337.055C117.995 339.047 117.331 340.629 116.003 341.801C114.675 342.973 112.702 343.559 110.085 343.559H81.4328V371.859C81.4328 375.453 80.6125 378.129 78.9719 379.887C77.3703 381.605 75.3 382.465 72.7609 382.465C70.1828 382.465 68.0734 381.586 66.4328 379.828C64.8313 378.07 64.0305 375.414 64.0305 371.859V305.766C64.0305 303.266 64.4016 301.234 65.1438 299.672C65.8859 298.07 67.0383 296.918 68.6008 296.215C70.2023 295.473 72.2336 295.102 74.6945 295.102H115.71C118.484 295.102 120.534 295.727 121.863 296.977C123.23 298.188 123.913 299.789 123.913 301.781C123.913 303.812 123.23 305.453 121.863 306.703C120.534 307.914 118.484 308.52 115.71 308.52ZM161.772 304.184V366.703H197.045C199.858 366.703 202.006 367.387 203.491 368.754C205.014 370.121 205.776 371.84 205.776 373.91C205.776 376.02 205.034 377.738 203.549 379.066C202.065 380.355 199.897 381 197.045 381H155.034C151.245 381 148.51 380.16 146.83 378.48C145.19 376.801 144.37 374.086 144.37 370.336V304.184C144.37 300.668 145.151 298.031 146.713 296.273C148.315 294.516 150.405 293.637 152.983 293.637C155.6 293.637 157.709 294.516 159.311 296.273C160.952 297.992 161.772 300.629 161.772 304.184ZM278.38 371.273L274.279 360.492H239.357L235.255 371.508C233.654 375.805 232.287 378.715 231.154 380.238C230.021 381.723 228.166 382.465 225.588 382.465C223.4 382.465 221.466 381.664 219.787 380.062C218.107 378.461 217.267 376.645 217.267 374.613C217.267 373.441 217.463 372.23 217.853 370.98C218.244 369.73 218.888 367.992 219.787 365.766L241.759 309.984C242.384 308.383 243.127 306.469 243.986 304.242C244.884 301.977 245.822 300.102 246.798 298.617C247.814 297.133 249.123 295.941 250.724 295.043C252.365 294.105 254.377 293.637 256.759 293.637C259.181 293.637 261.193 294.105 262.795 295.043C264.435 295.941 265.744 297.113 266.72 298.559C267.736 300.004 268.576 301.566 269.24 303.246C269.943 304.887 270.822 307.094 271.877 309.867L294.318 365.297C296.076 369.516 296.955 372.582 296.955 374.496C296.955 376.488 296.115 378.324 294.435 380.004C292.795 381.645 290.802 382.465 288.459 382.465C287.091 382.465 285.92 382.211 284.943 381.703C283.966 381.234 283.146 380.59 282.482 379.77C281.818 378.91 281.095 377.621 280.314 375.902C279.572 374.145 278.927 372.602 278.38 371.273ZM243.927 347.426H269.591L256.642 311.977L243.927 347.426ZM387.723 353.871C387.723 356.605 387.04 359.574 385.673 362.777C384.345 365.941 382.235 369.066 379.345 372.152C376.454 375.199 372.762 377.68 368.27 379.594C363.778 381.508 358.544 382.465 352.567 382.465C348.036 382.465 343.915 382.035 340.204 381.176C336.493 380.316 333.114 378.988 330.067 377.191C327.059 375.355 324.286 372.953 321.747 369.984C319.481 367.289 317.548 364.281 315.946 360.961C314.345 357.602 313.134 354.027 312.313 350.238C311.532 346.449 311.141 342.426 311.141 338.168C311.141 331.254 312.137 325.062 314.13 319.594C316.161 314.125 319.052 309.457 322.802 305.59C326.552 301.684 330.946 298.715 335.985 296.684C341.024 294.652 346.395 293.637 352.098 293.637C359.052 293.637 365.243 295.023 370.673 297.797C376.102 300.57 380.262 304.008 383.153 308.109C386.044 312.172 387.489 316.02 387.489 319.652C387.489 321.645 386.786 323.402 385.38 324.926C383.973 326.449 382.274 327.211 380.282 327.211C378.055 327.211 376.376 326.684 375.243 325.629C374.149 324.574 372.919 322.758 371.552 320.18C369.286 315.922 366.61 312.738 363.524 310.629C360.477 308.52 356.708 307.465 352.216 307.465C345.067 307.465 339.364 310.18 335.106 315.609C330.887 321.039 328.778 328.754 328.778 338.754C328.778 345.434 329.716 351 331.591 355.453C333.466 359.867 336.122 363.168 339.559 365.355C342.997 367.543 347.02 368.637 351.63 368.637C356.63 368.637 360.848 367.406 364.286 364.945C367.762 362.445 370.38 358.793 372.137 353.988C372.88 351.723 373.798 349.887 374.891 348.48C375.985 347.035 377.743 346.312 380.165 346.312C382.235 346.312 384.012 347.035 385.497 348.48C386.981 349.926 387.723 351.723 387.723 353.871Z" fill="white"/>
</g>
<defs>
<clipPath id="clip0">
<rect width="512" height="512" fill="white"/>
</clipPath>
</defs>
</svg>
