<svg width="512" height="512" viewBox="0 0 512 512" fill="none" xmlns="http://www.w3.org/2000/svg">
<g clip-path="url(#clip0)">
<path d="M95.5 485V433L96 239.5V25C101.6 5.4 118.333 0.5 126 0.5H352L479 128V330V489C472.2 506.6 458.167 511.667 452 512C347 511.833 135.8 511.6 131 512C125 512.5 118 510.5 108 504.5C100 499.7 96.3333 489.5 95.5 485Z" fill="#E2E5E7"/>
<path d="M479 223V128L466 115H450.5L373.5 117L479 223Z" fill="#CAD1D8"/>
<path d="M352 98V0.5L478.5 128H384.5C360.1 126.4 352.667 107.333 352 98Z" fill="#B0B7BD"/>
<path d="M97 402V447.5L402 448C412.4 446.8 415.667 438.5 416 434.5V402H97Z" fill="#CAD1D8"/>
<rect x="32" y="240" width="384" height="192" rx="16" fill="#50BEE8"/>
<path d="M168.852 308.52H134.575V330.492H163.227C165.884 330.492 167.856 331.098 169.145 332.309C170.473 333.48 171.137 335.062 171.137 337.055C171.137 339.047 170.473 340.629 169.145 341.801C167.817 342.973 165.845 343.559 163.227 343.559H134.575V371.859C134.575 375.453 133.755 378.129 132.114 379.887C130.512 381.605 128.442 382.465 125.903 382.465C123.325 382.465 121.216 381.586 119.575 379.828C117.973 378.07 117.173 375.414 117.173 371.859V305.766C117.173 303.266 117.544 301.234 118.286 299.672C119.028 298.07 120.18 296.918 121.743 296.215C123.345 295.473 125.376 295.102 127.837 295.102H168.852C171.626 295.102 173.677 295.727 175.005 296.977C176.372 298.188 177.055 299.789 177.055 301.781C177.055 303.812 176.372 305.453 175.005 306.703C173.677 307.914 171.626 308.52 168.852 308.52ZM214.914 304.184V366.703H250.188C253 366.703 255.148 367.387 256.633 368.754C258.156 370.121 258.918 371.84 258.918 373.91C258.918 376.02 258.176 377.738 256.691 379.066C255.207 380.355 253.039 381 250.188 381H208.176C204.387 381 201.652 380.16 199.973 378.48C198.332 376.801 197.512 374.086 197.512 370.336V304.184C197.512 300.668 198.293 298.031 199.855 296.273C201.457 294.516 203.547 293.637 206.125 293.637C208.742 293.637 210.852 294.516 212.453 296.273C214.094 297.992 214.914 300.629 214.914 304.184ZM277.323 305.062L296.777 362.66L316.288 304.652C317.304 301.605 318.066 299.496 318.573 298.324C319.081 297.113 319.921 296.039 321.093 295.102C322.265 294.125 323.866 293.637 325.898 293.637C327.382 293.637 328.749 294.008 329.999 294.75C331.288 295.492 332.284 296.488 332.988 297.738C333.73 298.949 334.101 300.18 334.101 301.43C334.101 302.289 333.984 303.227 333.749 304.242C333.515 305.219 333.222 306.195 332.87 307.172C332.519 308.109 332.167 309.086 331.816 310.102L311.015 366.234C310.273 368.383 309.53 370.434 308.788 372.387C308.046 374.301 307.187 376 306.21 377.484C305.234 378.93 303.925 380.121 302.284 381.059C300.683 381.996 298.71 382.465 296.366 382.465C294.023 382.465 292.03 381.996 290.39 381.059C288.788 380.16 287.48 378.969 286.464 377.484C285.488 375.961 284.628 374.242 283.886 372.328C283.144 370.414 282.402 368.383 281.659 366.234L261.21 310.57C260.859 309.555 260.488 308.559 260.097 307.582C259.745 306.605 259.433 305.551 259.159 304.418C258.925 303.285 258.808 302.328 258.808 301.547C258.808 299.555 259.609 297.738 261.21 296.098C262.812 294.457 264.823 293.637 267.245 293.637C270.214 293.637 272.304 294.555 273.515 296.391C274.765 298.188 276.034 301.078 277.323 305.062Z" fill="white"/>
</g>
<defs>
<clipPath id="clip0">
<rect width="512" height="512" fill="white"/>
</clipPath>
</defs>
</svg>
