<svg width="512" height="512" viewBox="0 0 512 512" fill="none" xmlns="http://www.w3.org/2000/svg">
<g clip-path="url(#clip0)">
<path d="M95.5 485V433L96 239.5V25C101.6 5.4 118.333 0.5 126 0.5H352L479 128V330V489C472.2 506.6 458.167 511.667 452 512C347 511.833 135.8 511.6 131 512C125 512.5 118 510.5 108 504.5C100 499.7 96.3333 489.5 95.5 485Z" fill="#E2E5E7"/>
<path d="M479 223V128L466 115H450.5L373.5 117L479 223Z" fill="#CAD1D8"/>
<path d="M352 98V0.5L478.5 128H384.5C360.1 126.4 352.667 107.333 352 98Z" fill="#B0B7BD"/>
<path d="M97 402V447.5L402 448C412.4 446.8 415.667 438.5 416 434.5V402H97Z" fill="#CAD1D8"/>
<rect x="32" y="240" width="384" height="192" rx="16" fill="#50BEE8"/>
<path d="M158.048 308.52H123.77V330.492H152.423C155.079 330.492 157.052 331.098 158.341 332.309C159.669 333.48 160.333 335.062 160.333 337.055C160.333 339.047 159.669 340.629 158.341 341.801C157.012 342.973 155.04 343.559 152.423 343.559H123.77V371.859C123.77 375.453 122.95 378.129 121.309 379.887C119.708 381.605 117.637 382.465 115.098 382.465C112.52 382.465 110.411 381.586 108.77 379.828C107.169 378.07 106.368 375.414 106.368 371.859V305.766C106.368 303.266 106.739 301.234 107.481 299.672C108.223 298.07 109.376 296.918 110.938 296.215C112.54 295.473 114.571 295.102 117.032 295.102H158.048C160.821 295.102 162.872 295.727 164.2 296.977C165.567 298.188 166.251 299.789 166.251 301.781C166.251 303.812 165.567 305.453 164.2 306.703C162.872 307.914 160.821 308.52 158.048 308.52ZM209.734 304.066L243.191 354.691V303.598C243.191 300.277 243.895 297.797 245.301 296.156C246.746 294.477 248.68 293.637 251.102 293.637C253.602 293.637 255.574 294.477 257.02 296.156C258.465 297.797 259.188 300.277 259.188 303.598V371.156C259.188 378.695 256.062 382.465 249.812 382.465C248.25 382.465 246.844 382.23 245.594 381.762C244.344 381.332 243.172 380.629 242.078 379.652C240.984 378.676 239.969 377.543 239.031 376.254C238.094 374.926 237.156 373.578 236.219 372.211L203.582 322.172V372.504C203.582 375.785 202.82 378.266 201.297 379.945C199.773 381.625 197.82 382.465 195.438 382.465C192.977 382.465 191.004 381.625 189.52 379.945C188.035 378.227 187.293 375.746 187.293 372.504V306.234C187.293 303.422 187.605 301.215 188.23 299.613C188.973 297.855 190.203 296.43 191.922 295.336C193.641 294.203 195.496 293.637 197.488 293.637C199.051 293.637 200.379 293.891 201.473 294.398C202.605 294.906 203.582 295.59 204.402 296.449C205.262 297.309 206.121 298.422 206.98 299.789C207.879 301.156 208.797 302.582 209.734 304.066ZM341.812 309.457H322.827V371.859C322.827 375.453 322.027 378.129 320.425 379.887C318.823 381.605 316.753 382.465 314.214 382.465C311.636 382.465 309.527 381.586 307.886 379.828C306.284 378.07 305.484 375.414 305.484 371.859V309.457H286.499C283.53 309.457 281.323 308.812 279.878 307.523C278.433 306.195 277.71 304.457 277.71 302.309C277.71 300.082 278.452 298.324 279.937 297.035C281.46 295.746 283.648 295.102 286.499 295.102H341.812C344.82 295.102 347.046 295.766 348.491 297.094C349.976 298.422 350.718 300.16 350.718 302.309C350.718 304.457 349.976 306.195 348.491 307.523C347.007 308.812 344.78 309.457 341.812 309.457Z" fill="white"/>
</g>
<defs>
<clipPath id="clip0">
<rect width="512" height="512" fill="white"/>
</clipPath>
</defs>
</svg>
