<svg width="512" height="512" viewBox="0 0 512 512" fill="none" xmlns="http://www.w3.org/2000/svg">
<g clip-path="url(#clip0)">
<path d="M95.5 485V433L96 239.5V25C101.6 5.4 118.333 0.5 126 0.5H352L479 128V330V489C472.2 506.6 458.167 511.667 452 512C347 511.833 135.8 511.6 131 512C125 512.5 118 510.5 108 504.5C100 499.7 96.3333 489.5 95.5 485Z" fill="#E2E5E7"/>
<path d="M479 223V128L466 115H450.5L373.5 117L479 223Z" fill="#CAD1D8"/>
<path d="M352 98V0.5L478.5 128H384.5C360.1 126.4 352.667 107.333 352 98Z" fill="#B0B7BD"/>
<path d="M97 402V447.5L402 448C412.4 446.8 415.667 438.5 416 434.5V402H97Z" fill="#CAD1D8"/>
<rect x="32" y="240" width="384" height="192" rx="16" fill="#50BEE8"/>
<path d="M148.028 308.52H113.751V330.492H142.403C145.059 330.492 147.032 331.098 148.321 332.309C149.649 333.48 150.313 335.062 150.313 337.055C150.313 339.047 149.649 340.629 148.321 341.801C146.993 342.973 145.02 343.559 142.403 343.559H113.751V371.859C113.751 375.453 112.93 378.129 111.29 379.887C109.688 381.605 107.618 382.465 105.079 382.465C102.501 382.465 100.391 381.586 98.7508 379.828C97.1492 378.07 96.3484 375.414 96.3484 371.859V305.766C96.3484 303.266 96.7195 301.234 97.4617 299.672C98.2039 298.07 99.3562 296.918 100.919 296.215C102.52 295.473 104.552 295.102 107.012 295.102H148.028C150.802 295.102 152.852 295.727 154.18 296.977C155.548 298.188 156.231 299.789 156.231 301.781C156.231 303.812 155.548 305.453 154.18 306.703C152.852 307.914 150.802 308.52 148.028 308.52ZM214.832 293.637C223.738 293.637 231.375 295.453 237.742 299.086C244.148 302.68 248.992 307.816 252.273 314.496C255.555 321.137 257.195 328.949 257.195 337.934C257.195 344.574 256.297 350.609 254.5 356.039C252.703 361.469 250.008 366.176 246.414 370.16C242.82 374.145 238.406 377.191 233.172 379.301C227.938 381.41 221.941 382.465 215.184 382.465C208.465 382.465 202.449 381.391 197.137 379.242C191.824 377.055 187.391 373.988 183.836 370.043C180.281 366.098 177.586 361.352 175.75 355.805C173.953 350.258 173.055 344.262 173.055 337.816C173.055 331.215 173.992 325.16 175.867 319.652C177.781 314.145 180.535 309.457 184.129 305.59C187.723 301.723 192.098 298.773 197.254 296.742C202.41 294.672 208.27 293.637 214.832 293.637ZM239.559 337.816C239.559 331.527 238.543 326.078 236.512 321.469C234.48 316.859 231.57 313.383 227.781 311.039C224.031 308.656 219.715 307.465 214.832 307.465C211.355 307.465 208.133 308.129 205.164 309.457C202.234 310.746 199.695 312.641 197.547 315.141C195.438 317.641 193.758 320.844 192.508 324.75C191.297 328.617 190.691 332.973 190.691 337.816C190.691 342.699 191.297 347.113 192.508 351.059C193.758 355.004 195.496 358.285 197.723 360.902C199.988 363.48 202.566 365.414 205.457 366.703C208.387 367.992 211.59 368.637 215.066 368.637C219.52 368.637 223.602 367.523 227.312 365.297C231.062 363.07 234.031 359.633 236.219 354.984C238.445 350.336 239.559 344.613 239.559 337.816ZM302.554 304.066L336.011 354.691V303.598C336.011 300.277 336.714 297.797 338.12 296.156C339.566 294.477 341.499 293.637 343.921 293.637C346.421 293.637 348.394 294.477 349.839 296.156C351.284 297.797 352.007 300.277 352.007 303.598V371.156C352.007 378.695 348.882 382.465 342.632 382.465C341.07 382.465 339.663 382.23 338.413 381.762C337.163 381.332 335.991 380.629 334.898 379.652C333.804 378.676 332.788 377.543 331.851 376.254C330.913 374.926 329.976 373.578 329.038 372.211L296.402 322.172V372.504C296.402 375.785 295.64 378.266 294.116 379.945C292.593 381.625 290.64 382.465 288.257 382.465C285.796 382.465 283.823 381.625 282.339 379.945C280.855 378.227 280.113 375.746 280.113 372.504V306.234C280.113 303.422 280.425 301.215 281.05 299.613C281.792 297.855 283.023 296.43 284.741 295.336C286.46 294.203 288.316 293.637 290.308 293.637C291.87 293.637 293.198 293.891 294.292 294.398C295.425 294.906 296.402 295.59 297.222 296.449C298.081 297.309 298.941 298.422 299.8 299.789C300.698 301.156 301.616 302.582 302.554 304.066Z" fill="white"/>
</g>
<defs>
<clipPath id="clip0">
<rect width="512" height="512" fill="white"/>
</clipPath>
</defs>
</svg>
