<svg width="512" height="512" viewBox="0 0 512 512" fill="none" xmlns="http://www.w3.org/2000/svg">
<g clip-path="url(#clip0)">
<path d="M95.5 485V433L96 239.5V25C101.6 5.4 118.333 0.5 126 0.5H352L479 128V330V489C472.2 506.6 458.167 511.667 452 512C347 511.833 135.8 511.6 131 512C125 512.5 118 510.5 108 504.5C100 499.7 96.3333 489.5 95.5 485Z" fill="#E2E5E7"/>
<path d="M479 223V128L466 115H450.5L373.5 117L479 223Z" fill="#CAD1D8"/>
<path d="M352 98V0.5L478.5 128H384.5C360.1 126.4 352.667 107.333 352 98Z" fill="#B0B7BD"/>
<path d="M97 402V447.5L402 448C412.4 446.8 415.667 438.5 416 434.5V402H97Z" fill="#CAD1D8"/>
<rect x="32" y="240" width="384" height="192" rx="16" fill="#F7B84E"/>
<path d="M97.6406 341.719V352.695C97.6406 354.154 97.4974 355.326 97.2109 356.211C96.9245 357.07 96.3906 357.852 95.6094 358.555C94.8542 359.258 93.8776 359.935 92.6797 360.586C89.2161 362.461 85.8828 363.828 82.6797 364.688C79.4766 365.547 75.987 365.977 72.2109 365.977C67.8099 365.977 63.7995 365.299 60.1797 363.945C56.5599 362.591 53.474 360.625 50.9219 358.047C48.3698 355.469 46.4036 352.344 45.0234 348.672C43.6693 345 42.9922 340.898 42.9922 336.367C42.9922 331.914 43.6562 327.839 44.9844 324.141C46.3125 320.443 48.2656 317.305 50.8438 314.727C53.4219 312.148 56.5599 310.182 60.2578 308.828C63.9557 307.448 68.1484 306.758 72.8359 306.758C76.6901 306.758 80.1016 307.279 83.0703 308.32C86.0391 309.336 88.4479 310.625 90.2969 312.188C92.1458 313.75 93.5391 315.404 94.4766 317.148C95.4141 318.893 95.8828 320.443 95.8828 321.797C95.8828 323.255 95.3359 324.505 94.2422 325.547C93.1745 326.562 91.8854 327.07 90.375 327.07C89.5417 327.07 88.7344 326.875 87.9531 326.484C87.1979 326.094 86.5599 325.547 86.0391 324.844C84.6068 322.604 83.3958 320.911 82.4062 319.766C81.4167 318.62 80.0755 317.656 78.3828 316.875C76.7161 316.094 74.5807 315.703 71.9766 315.703C69.2943 315.703 66.8984 316.172 64.7891 317.109C62.6797 318.021 60.8698 319.362 59.3594 321.133C57.875 322.878 56.7292 325.026 55.9219 327.578C55.1406 330.13 54.75 332.956 54.75 336.055C54.75 342.773 56.2865 347.943 59.3594 351.562C62.4583 355.182 66.7682 356.992 72.2891 356.992C74.9714 356.992 77.4844 356.641 79.8281 355.938C82.1979 355.234 84.5938 354.232 87.0156 352.93V343.633H78.0312C75.8698 343.633 74.2292 343.307 73.1094 342.656C72.0156 342.005 71.4688 340.898 71.4688 339.336C71.4688 338.06 71.9245 337.005 72.8359 336.172C73.7734 335.339 75.0365 334.922 76.625 334.922H89.7891C91.4036 334.922 92.7708 335.065 93.8906 335.352C95.0104 335.638 95.9089 336.276 96.5859 337.266C97.2891 338.255 97.6406 339.74 97.6406 341.719ZM147.489 358.516L144.755 351.328H121.473L118.739 358.672C117.671 361.536 116.76 363.477 116.005 364.492C115.249 365.482 114.012 365.977 112.294 365.977C110.835 365.977 109.546 365.443 108.427 364.375C107.307 363.307 106.747 362.096 106.747 360.742C106.747 359.961 106.877 359.154 107.137 358.32C107.398 357.487 107.828 356.328 108.427 354.844L123.075 317.656C123.492 316.589 123.986 315.312 124.559 313.828C125.158 312.318 125.783 311.068 126.434 310.078C127.111 309.089 127.984 308.294 129.052 307.695C130.145 307.07 131.486 306.758 133.075 306.758C134.69 306.758 136.031 307.07 137.098 307.695C138.192 308.294 139.065 309.076 139.716 310.039C140.393 311.003 140.953 312.044 141.395 313.164C141.864 314.258 142.45 315.729 143.153 317.578L158.114 354.531C159.286 357.344 159.872 359.388 159.872 360.664C159.872 361.992 159.312 363.216 158.192 364.336C157.098 365.43 155.77 365.977 154.208 365.977C153.296 365.977 152.515 365.807 151.864 365.469C151.213 365.156 150.666 364.727 150.223 364.18C149.781 363.607 149.299 362.747 148.778 361.602C148.283 360.43 147.854 359.401 147.489 358.516ZM124.52 342.617H141.63L132.997 318.984L124.52 342.617ZM180.814 307.734H195.931C199.864 307.734 203.236 308.099 206.048 308.828C208.861 309.557 211.413 310.924 213.705 312.93C219.668 318.034 222.65 325.794 222.65 336.211C222.65 339.648 222.351 342.786 221.752 345.625C221.153 348.464 220.228 351.029 218.978 353.32C217.728 355.586 216.127 357.617 214.173 359.414C212.637 360.794 210.957 361.901 209.134 362.734C207.311 363.568 205.345 364.154 203.236 364.492C201.153 364.831 198.796 365 196.166 365H181.048C178.939 365 177.351 364.688 176.283 364.062C175.215 363.411 174.512 362.513 174.173 361.367C173.861 360.195 173.705 358.685 173.705 356.836V314.844C173.705 312.344 174.265 310.534 175.384 309.414C176.504 308.294 178.314 307.734 180.814 307.734ZM185.306 316.914V355.781H194.095C196.022 355.781 197.533 355.729 198.627 355.625C199.72 355.521 200.853 355.26 202.025 354.844C203.197 354.427 204.212 353.841 205.072 353.086C208.952 349.805 210.892 344.154 210.892 336.133C210.892 330.482 210.033 326.25 208.314 323.438C206.621 320.625 204.525 318.841 202.025 318.086C199.525 317.305 196.504 316.914 192.962 316.914H185.306ZM290.35 341.719V352.695C290.35 354.154 290.207 355.326 289.92 356.211C289.634 357.07 289.1 357.852 288.319 358.555C287.564 359.258 286.587 359.935 285.389 360.586C281.926 362.461 278.592 363.828 275.389 364.688C272.186 365.547 268.696 365.977 264.92 365.977C260.519 365.977 256.509 365.299 252.889 363.945C249.269 362.591 246.183 360.625 243.631 358.047C241.079 355.469 239.113 352.344 237.733 348.672C236.379 345 235.702 340.898 235.702 336.367C235.702 331.914 236.366 327.839 237.694 324.141C239.022 320.443 240.975 317.305 243.553 314.727C246.131 312.148 249.269 310.182 252.967 308.828C256.665 307.448 260.858 306.758 265.545 306.758C269.399 306.758 272.811 307.279 275.78 308.32C278.748 309.336 281.157 310.625 283.006 312.188C284.855 313.75 286.248 315.404 287.186 317.148C288.123 318.893 288.592 320.443 288.592 321.797C288.592 323.255 288.045 324.505 286.952 325.547C285.884 326.562 284.595 327.07 283.084 327.07C282.251 327.07 281.444 326.875 280.663 326.484C279.907 326.094 279.269 325.547 278.748 324.844C277.316 322.604 276.105 320.911 275.116 319.766C274.126 318.62 272.785 317.656 271.092 316.875C269.426 316.094 267.29 315.703 264.686 315.703C262.004 315.703 259.608 316.172 257.498 317.109C255.389 318.021 253.579 319.362 252.069 321.133C250.584 322.878 249.439 325.026 248.631 327.578C247.85 330.13 247.459 332.956 247.459 336.055C247.459 342.773 248.996 347.943 252.069 351.562C255.168 355.182 259.478 356.992 264.998 356.992C267.681 356.992 270.194 356.641 272.538 355.938C274.907 355.234 277.303 354.232 279.725 352.93V343.633H270.741C268.579 343.633 266.939 343.307 265.819 342.656C264.725 342.005 264.178 340.898 264.178 339.336C264.178 338.06 264.634 337.005 265.545 336.172C266.483 335.339 267.746 334.922 269.334 334.922H282.498C284.113 334.922 285.48 335.065 286.6 335.352C287.72 335.638 288.618 336.276 289.295 337.266C289.998 338.255 290.35 339.74 290.35 341.719ZM344.339 316.68H318.206V330.742H342.269C344.04 330.742 345.355 331.146 346.214 331.953C347.099 332.734 347.542 333.776 347.542 335.078C347.542 336.38 347.112 337.448 346.253 338.281C345.394 339.089 344.066 339.492 342.269 339.492H318.206V355.781H345.237C347.06 355.781 348.428 356.211 349.339 357.07C350.277 357.904 350.745 359.023 350.745 360.43C350.745 361.784 350.277 362.891 349.339 363.75C348.428 364.583 347.06 365 345.237 365H313.714C311.188 365 309.365 364.44 308.245 363.32C307.152 362.201 306.605 360.391 306.605 357.891V314.844C306.605 313.177 306.852 311.823 307.347 310.781C307.842 309.714 308.61 308.945 309.652 308.477C310.719 307.982 312.073 307.734 313.714 307.734H344.339C346.188 307.734 347.555 308.151 348.441 308.984C349.352 309.792 349.808 310.859 349.808 312.188C349.808 313.542 349.352 314.635 348.441 315.469C347.555 316.276 346.188 316.68 344.339 316.68ZM402.352 317.305H389.695V358.906C389.695 361.302 389.161 363.086 388.094 364.258C387.026 365.404 385.646 365.977 383.953 365.977C382.234 365.977 380.828 365.391 379.734 364.219C378.667 363.047 378.133 361.276 378.133 358.906V317.305H365.477C363.497 317.305 362.026 316.875 361.062 316.016C360.099 315.13 359.617 313.971 359.617 312.539C359.617 311.055 360.112 309.883 361.102 309.023C362.117 308.164 363.576 307.734 365.477 307.734H402.352C404.357 307.734 405.841 308.177 406.805 309.062C407.794 309.948 408.289 311.107 408.289 312.539C408.289 313.971 407.794 315.13 406.805 316.016C405.815 316.875 404.331 317.305 402.352 317.305Z" fill="white"/>
</g>
<defs>
<clipPath id="clip0">
<rect width="512" height="512" fill="white"/>
</clipPath>
</defs>
</svg>
