<svg width="512" height="512" viewBox="0 0 512 512" fill="none" xmlns="http://www.w3.org/2000/svg">
<g clip-path="url(#clip0)">
<path d="M95.5 485V433L96 239.5V25C101.6 5.4 118.333 0.5 126 0.5H352L479 128V330V489C472.2 506.6 458.167 511.667 452 512C347 511.833 135.8 511.6 131 512C125 512.5 118 510.5 108 504.5C100 499.7 96.3333 489.5 95.5 485Z" fill="#E2E5E7"/>
<path d="M479 223V128L466 115H450.5L373.5 117L479 223Z" fill="#CAD1D8"/>
<path d="M352 98V0.5L478.5 128H384.5C360.1 126.4 352.667 107.333 352 98Z" fill="#B0B7BD"/>
<path d="M97 402V447.5L402 448C412.4 446.8 415.667 438.5 416 434.5V402H97Z" fill="#CAD1D8"/>
<rect x="32" y="240" width="384" height="192" rx="16" fill="#F7B84E"/>
<path d="M165.134 346.078V362.543C165.134 364.73 164.919 366.488 164.489 367.816C164.059 369.105 163.259 370.277 162.087 371.332C160.954 372.387 159.489 373.402 157.692 374.379C152.497 377.191 147.497 379.242 142.692 380.531C137.887 381.82 132.653 382.465 126.989 382.465C120.387 382.465 114.372 381.449 108.942 379.418C103.512 377.387 98.8836 374.438 95.0555 370.57C91.2273 366.703 88.2781 362.016 86.2078 356.508C84.1766 351 83.1609 344.848 83.1609 338.051C83.1609 331.371 84.157 325.258 86.1492 319.711C88.1414 314.164 91.0711 309.457 94.9383 305.59C98.8055 301.723 103.512 298.773 109.059 296.742C114.606 294.672 120.895 293.637 127.927 293.637C133.708 293.637 138.825 294.418 143.278 295.98C147.731 297.504 151.345 299.438 154.118 301.781C156.891 304.125 158.981 306.605 160.387 309.223C161.794 311.84 162.497 314.164 162.497 316.195C162.497 318.383 161.677 320.258 160.036 321.82C158.434 323.344 156.501 324.105 154.235 324.105C152.985 324.105 151.774 323.812 150.602 323.227C149.47 322.641 148.512 321.82 147.731 320.766C145.583 317.406 143.766 314.867 142.282 313.148C140.798 311.43 138.786 309.984 136.247 308.812C133.747 307.641 130.544 307.055 126.637 307.055C122.614 307.055 119.02 307.758 115.856 309.164C112.692 310.531 109.977 312.543 107.712 315.199C105.485 317.816 103.766 321.039 102.555 324.867C101.384 328.695 100.798 332.934 100.798 337.582C100.798 347.66 103.102 355.414 107.712 360.844C112.36 366.273 118.825 368.988 127.106 368.988C131.13 368.988 134.899 368.461 138.415 367.406C141.97 366.352 145.563 364.848 149.196 362.895V348.949H135.72C132.477 348.949 130.016 348.461 128.337 347.484C126.696 346.508 125.876 344.848 125.876 342.504C125.876 340.59 126.559 339.008 127.927 337.758C129.333 336.508 131.227 335.883 133.61 335.883H153.356C155.778 335.883 157.829 336.098 159.509 336.527C161.188 336.957 162.536 337.914 163.552 339.398C164.606 340.883 165.134 343.109 165.134 346.078ZM239.906 371.273L235.805 360.492H200.883L196.781 371.508C195.18 375.805 193.812 378.715 192.68 380.238C191.547 381.723 189.691 382.465 187.113 382.465C184.926 382.465 182.992 381.664 181.312 380.062C179.633 378.461 178.793 376.645 178.793 374.613C178.793 373.441 178.988 372.23 179.379 370.98C179.77 369.73 180.414 367.992 181.312 365.766L203.285 309.984C203.91 308.383 204.652 306.469 205.512 304.242C206.41 301.977 207.348 300.102 208.324 298.617C209.34 297.133 210.648 295.941 212.25 295.043C213.891 294.105 215.902 293.637 218.285 293.637C220.707 293.637 222.719 294.105 224.32 295.043C225.961 295.941 227.27 297.113 228.246 298.559C229.262 300.004 230.102 301.566 230.766 303.246C231.469 304.887 232.348 307.094 233.402 309.867L255.844 365.297C257.602 369.516 258.48 372.582 258.48 374.496C258.48 376.488 257.641 378.324 255.961 380.004C254.32 381.645 252.328 382.465 249.984 382.465C248.617 382.465 247.445 382.211 246.469 381.703C245.492 381.234 244.672 380.59 244.008 379.77C243.344 378.91 242.621 377.621 241.84 375.902C241.098 374.145 240.453 372.602 239.906 371.273ZM205.453 347.426H231.117L218.168 311.977L205.453 347.426ZM308.116 368.051L294.347 313.324V372.621C294.347 375.902 293.605 378.363 292.12 380.004C290.675 381.645 288.741 382.465 286.32 382.465C283.976 382.465 282.062 381.664 280.577 380.062C279.093 378.422 278.351 375.941 278.351 372.621V304.652C278.351 300.902 279.327 298.383 281.28 297.094C283.234 295.766 285.87 295.102 289.191 295.102H294.581C297.823 295.102 300.167 295.395 301.613 295.98C303.097 296.566 304.191 297.621 304.894 299.145C305.597 300.668 306.398 303.148 307.296 306.586L319.777 353.637L332.257 306.586C333.155 303.148 333.956 300.668 334.659 299.145C335.363 297.621 336.437 296.566 337.882 295.98C339.366 295.395 341.73 295.102 344.972 295.102H350.363C353.683 295.102 356.32 295.766 358.273 297.094C360.226 298.383 361.202 300.902 361.202 304.652V372.621C361.202 375.902 360.46 378.363 358.976 380.004C357.53 381.645 355.577 382.465 353.116 382.465C350.812 382.465 348.917 381.645 347.433 380.004C345.948 378.363 345.206 375.902 345.206 372.621V313.324L331.437 368.051C330.538 371.605 329.796 374.223 329.21 375.902C328.663 377.543 327.628 379.047 326.105 380.414C324.581 381.781 322.472 382.465 319.777 382.465C317.745 382.465 316.027 382.016 314.62 381.117C313.214 380.258 312.12 379.145 311.339 377.777C310.558 376.41 309.933 374.906 309.464 373.266C309.034 371.586 308.585 369.848 308.116 368.051Z" fill="white"/>
</g>
<defs>
<clipPath id="clip0">
<rect width="512" height="512" fill="white"/>
</clipPath>
</defs>
</svg>
