<svg width="512" height="512" viewBox="0 0 512 512" fill="none" xmlns="http://www.w3.org/2000/svg">
<g clip-path="url(#clip0)">
<path d="M95.5 485V433L96 239.5V25C101.6 5.4 118.333 0.5 126 0.5H352L479 128V330V489C472.2 506.6 458.167 511.667 452 512C347 511.833 135.8 511.6 131 512C125 512.5 118 510.5 108 504.5C100 499.7 96.3333 489.5 95.5 485Z" fill="#E2E5E7"/>
<path d="M479 223V128L466 115H450.5L373.5 117L479 223Z" fill="#CAD1D8"/>
<path d="M352 98V0.5L478.5 128H384.5C360.1 126.4 352.667 107.333 352 98Z" fill="#B0B7BD"/>
<path d="M97 402V447.5L402 448C412.4 446.8 415.667 438.5 416 434.5V402H97Z" fill="#CAD1D8"/>
<rect x="32" y="240" width="384" height="192" rx="16" fill="#F7B84E"/>
<path d="M171.079 346.078V362.543C171.079 364.73 170.864 366.488 170.434 367.816C170.005 369.105 169.204 370.277 168.032 371.332C166.899 372.387 165.434 373.402 163.637 374.379C158.442 377.191 153.442 379.242 148.637 380.531C143.833 381.82 138.598 382.465 132.934 382.465C126.333 382.465 120.317 381.449 114.887 379.418C109.458 377.387 104.829 374.438 101.001 370.57C97.1727 366.703 94.2234 362.016 92.1531 356.508C90.1219 351 89.1062 344.848 89.1062 338.051C89.1062 331.371 90.1023 325.258 92.0945 319.711C94.0867 314.164 97.0164 309.457 100.884 305.59C104.751 301.723 109.458 298.773 115.005 296.742C120.552 294.672 126.841 293.637 133.872 293.637C139.653 293.637 144.77 294.418 149.223 295.98C153.677 297.504 157.29 299.438 160.063 301.781C162.837 304.125 164.927 306.605 166.333 309.223C167.739 311.84 168.442 314.164 168.442 316.195C168.442 318.383 167.622 320.258 165.981 321.82C164.38 323.344 162.446 324.105 160.18 324.105C158.93 324.105 157.72 323.812 156.548 323.227C155.415 322.641 154.458 321.82 153.677 320.766C151.528 317.406 149.712 314.867 148.227 313.148C146.743 311.43 144.731 309.984 142.192 308.812C139.692 307.641 136.489 307.055 132.583 307.055C128.559 307.055 124.966 307.758 121.802 309.164C118.637 310.531 115.923 312.543 113.657 315.199C111.43 317.816 109.712 321.039 108.501 324.867C107.329 328.695 106.743 332.934 106.743 337.582C106.743 347.66 109.048 355.414 113.657 360.844C118.305 366.273 124.77 368.988 133.052 368.988C137.075 368.988 140.845 368.461 144.36 367.406C147.915 366.352 151.509 364.848 155.141 362.895V348.949H141.665C138.423 348.949 135.962 348.461 134.282 347.484C132.641 346.508 131.821 344.848 131.821 342.504C131.821 340.59 132.505 339.008 133.872 337.758C135.278 336.508 137.173 335.883 139.555 335.883H159.302C161.723 335.883 163.774 336.098 165.454 336.527C167.134 336.957 168.481 337.914 169.497 339.398C170.552 340.883 171.079 343.109 171.079 346.078ZM252.062 308.52H212.863V329.613H248.957C251.613 329.613 253.586 330.219 254.875 331.43C256.203 332.602 256.867 334.164 256.867 336.117C256.867 338.07 256.223 339.672 254.934 340.922C253.645 342.133 251.652 342.738 248.957 342.738H212.863V367.172H253.41C256.145 367.172 258.195 367.816 259.562 369.105C260.969 370.355 261.672 372.035 261.672 374.145C261.672 376.176 260.969 377.836 259.562 379.125C258.195 380.375 256.145 381 253.41 381H206.125C202.336 381 199.602 380.16 197.922 378.48C196.281 376.801 195.461 374.086 195.461 370.336V305.766C195.461 303.266 195.832 301.234 196.574 299.672C197.316 298.07 198.469 296.918 200.031 296.215C201.633 295.473 203.664 295.102 206.125 295.102H252.062C254.836 295.102 256.887 295.727 258.215 296.977C259.582 298.188 260.266 299.789 260.266 301.781C260.266 303.812 259.582 305.453 258.215 306.703C256.887 307.914 254.836 308.52 252.062 308.52ZM294.081 295.102H316.757C322.655 295.102 327.714 295.648 331.933 296.742C336.152 297.836 339.98 299.887 343.417 302.895C352.363 310.551 356.835 322.191 356.835 337.816C356.835 342.973 356.386 347.68 355.488 351.938C354.589 356.195 353.202 360.043 351.327 363.48C349.452 366.879 347.05 369.926 344.12 372.621C341.816 374.691 339.296 376.352 336.562 377.602C333.827 378.852 330.878 379.73 327.714 380.238C324.589 380.746 321.054 381 317.109 381H294.433C291.269 381 288.886 380.531 287.284 379.594C285.683 378.617 284.628 377.27 284.12 375.551C283.652 373.793 283.417 371.527 283.417 368.754V305.766C283.417 302.016 284.257 299.301 285.937 297.621C287.616 295.941 290.331 295.102 294.081 295.102ZM300.82 308.871V367.172H314.003C316.894 367.172 319.159 367.094 320.8 366.938C322.441 366.781 324.14 366.391 325.898 365.766C327.655 365.141 329.179 364.262 330.468 363.129C336.288 358.207 339.198 349.73 339.198 337.699C339.198 329.223 337.909 322.875 335.331 318.656C332.792 314.438 329.648 311.762 325.898 310.629C322.148 309.457 317.616 308.871 312.304 308.871H300.82Z" fill="white"/>
</g>
<defs>
<clipPath id="clip0">
<rect width="512" height="512" fill="white"/>
</clipPath>
</defs>
</svg>
