<svg width="512" height="512" viewBox="0 0 512 512" fill="none" xmlns="http://www.w3.org/2000/svg">
<g clip-path="url(#clip0)">
<path d="M95.5 485V433L96 239.5V25C101.6 5.4 118.333 0.5 126 0.5H352L479 128V330V489C472.2 506.6 458.167 511.667 452 512C347 511.833 135.8 511.6 131 512C125 512.5 118 510.5 108 504.5C100 499.7 96.3333 489.5 95.5 485Z" fill="#E2E5E7"/>
<path d="M479 223V128L466 115H450.5L373.5 117L479 223Z" fill="#CAD1D8"/>
<path d="M352 98V0.5L478.5 128H384.5C360.1 126.4 352.667 107.333 352 98Z" fill="#B0B7BD"/>
<path d="M97 402V447.5L402 448C412.4 446.8 415.667 438.5 416 434.5V402H97Z" fill="#CAD1D8"/>
<rect x="32" y="240" width="384" height="192" rx="16" fill="#F7B84E"/>
<path d="M200.934 346.078V362.543C200.934 364.73 200.72 366.488 200.29 367.816C199.86 369.105 199.059 370.277 197.887 371.332C196.755 372.387 195.29 373.402 193.493 374.379C188.298 377.191 183.298 379.242 178.493 380.531C173.688 381.82 168.454 382.465 162.79 382.465C156.188 382.465 150.173 381.449 144.743 379.418C139.313 377.387 134.684 374.438 130.856 370.57C127.028 366.703 124.079 362.016 122.009 356.508C119.977 351 118.962 344.848 118.962 338.051C118.962 331.371 119.958 325.258 121.95 319.711C123.942 314.164 126.872 309.457 130.739 305.59C134.606 301.723 139.313 298.773 144.86 296.742C150.407 294.672 156.696 293.637 163.727 293.637C169.509 293.637 174.626 294.418 179.079 295.98C183.532 297.504 187.145 299.438 189.919 301.781C192.692 304.125 194.782 306.605 196.188 309.223C197.595 311.84 198.298 314.164 198.298 316.195C198.298 318.383 197.477 320.258 195.837 321.82C194.235 323.344 192.302 324.105 190.036 324.105C188.786 324.105 187.575 323.812 186.403 323.227C185.27 322.641 184.313 321.82 183.532 320.766C181.384 317.406 179.567 314.867 178.083 313.148C176.598 311.43 174.587 309.984 172.048 308.812C169.548 307.641 166.345 307.055 162.438 307.055C158.415 307.055 154.821 307.758 151.657 309.164C148.493 310.531 145.778 312.543 143.512 315.199C141.286 317.816 139.567 321.039 138.356 324.867C137.184 328.695 136.598 332.934 136.598 337.582C136.598 347.66 138.903 355.414 143.512 360.844C148.161 366.273 154.626 368.988 162.907 368.988C166.93 368.988 170.7 368.461 174.216 367.406C177.77 366.352 181.364 364.848 184.997 362.895V348.949H171.52C168.278 348.949 165.817 348.461 164.137 347.484C162.497 346.508 161.677 344.848 161.677 342.504C161.677 340.59 162.36 339.008 163.727 337.758C165.134 336.508 167.028 335.883 169.411 335.883H189.157C191.579 335.883 193.63 336.098 195.309 336.527C196.989 336.957 198.337 337.914 199.352 339.398C200.407 340.883 200.934 343.109 200.934 346.078ZM226.02 371.859V304.184C226.02 300.668 226.82 298.031 228.422 296.273C230.023 294.516 232.094 293.637 234.633 293.637C237.25 293.637 239.359 294.516 240.961 296.273C242.602 297.992 243.422 300.629 243.422 304.184V371.859C243.422 375.414 242.602 378.07 240.961 379.828C239.359 381.586 237.25 382.465 234.633 382.465C232.133 382.465 230.062 381.586 228.422 379.828C226.82 378.031 226.02 375.375 226.02 371.859ZM322.062 308.52H287.784V330.492H316.437C319.093 330.492 321.066 331.098 322.355 332.309C323.683 333.48 324.347 335.062 324.347 337.055C324.347 339.047 323.683 340.629 322.355 341.801C321.027 342.973 319.054 343.559 316.437 343.559H287.784V371.859C287.784 375.453 286.964 378.129 285.323 379.887C283.722 381.605 281.652 382.465 279.113 382.465C276.534 382.465 274.425 381.586 272.784 379.828C271.183 378.07 270.382 375.414 270.382 371.859V305.766C270.382 303.266 270.753 301.234 271.495 299.672C272.238 298.07 273.39 296.918 274.952 296.215C276.554 295.473 278.585 295.102 281.046 295.102H322.062C324.835 295.102 326.886 295.727 328.214 296.977C329.581 298.188 330.265 299.789 330.265 301.781C330.265 303.812 329.581 305.453 328.214 306.703C326.886 307.914 324.835 308.52 322.062 308.52Z" fill="white"/>
</g>
<defs>
<clipPath id="clip0">
<rect width="512" height="512" fill="white"/>
</clipPath>
</defs>
</svg>
