<svg width="512" height="512" viewBox="0 0 512 512" fill="none" xmlns="http://www.w3.org/2000/svg">
<g clip-path="url(#clip0)">
<path d="M95.5 485V433L96 239.5V25C101.6 5.4 118.333 0.5 126 0.5H352L479 128V330V489C472.2 506.6 458.167 511.667 452 512C347 511.833 135.8 511.6 131 512C125 512.5 118 510.5 108 504.5C100 499.7 96.3333 489.5 95.5 485Z" fill="#E2E5E7"/>
<path d="M479 223V128L466 115H450.5L373.5 117L479 223Z" fill="#CAD1D8"/>
<path d="M352 98V0.5L478.5 128H384.5C360.1 126.4 352.667 107.333 352 98Z" fill="#B0B7BD"/>
<path d="M97 402V447.5L402 448C412.4 446.8 415.667 438.5 416 434.5V402H97Z" fill="#CAD1D8"/>
<rect x="32" y="240" width="384" height="192" rx="16" fill="#F7B84E"/>
<path d="M179.223 346.078V362.543C179.223 364.73 179.009 366.488 178.579 367.816C178.149 369.105 177.348 370.277 176.177 371.332C175.044 372.387 173.579 373.402 171.782 374.379C166.587 377.191 161.587 379.242 156.782 380.531C151.977 381.82 146.743 382.465 141.079 382.465C134.477 382.465 128.462 381.449 123.032 379.418C117.602 377.387 112.973 374.438 109.145 370.57C105.317 366.703 102.368 362.016 100.298 356.508C98.2664 351 97.2508 344.848 97.2508 338.051C97.2508 331.371 98.2469 325.258 100.239 319.711C102.231 314.164 105.161 309.457 109.028 305.59C112.895 301.723 117.602 298.773 123.149 296.742C128.696 294.672 134.985 293.637 142.016 293.637C147.798 293.637 152.915 294.418 157.368 295.98C161.821 297.504 165.434 299.438 168.208 301.781C170.981 304.125 173.071 306.605 174.477 309.223C175.884 311.84 176.587 314.164 176.587 316.195C176.587 318.383 175.766 320.258 174.126 321.82C172.524 323.344 170.591 324.105 168.325 324.105C167.075 324.105 165.864 323.812 164.692 323.227C163.559 322.641 162.602 321.82 161.821 320.766C159.673 317.406 157.856 314.867 156.372 313.148C154.887 311.43 152.876 309.984 150.337 308.812C147.837 307.641 144.634 307.055 140.727 307.055C136.704 307.055 133.11 307.758 129.946 309.164C126.782 310.531 124.067 312.543 121.802 315.199C119.575 317.816 117.856 321.039 116.645 324.867C115.473 328.695 114.887 332.934 114.887 337.582C114.887 347.66 117.192 355.414 121.802 360.844C126.45 366.273 132.915 368.988 141.196 368.988C145.22 368.988 148.989 368.461 152.505 367.406C156.059 366.352 159.653 364.848 163.286 362.895V348.949H149.809C146.567 348.949 144.106 348.461 142.427 347.484C140.786 346.508 139.966 344.848 139.966 342.504C139.966 340.59 140.649 339.008 142.016 337.758C143.423 336.508 145.317 335.883 147.7 335.883H167.446C169.868 335.883 171.919 336.098 173.598 336.527C175.278 336.957 176.626 337.914 177.641 339.398C178.696 340.883 179.223 343.109 179.223 346.078ZM236.945 347.543H221.008V371.859C221.008 375.336 220.188 377.973 218.547 379.77C216.906 381.566 214.836 382.465 212.336 382.465C209.719 382.465 207.609 381.586 206.008 379.828C204.406 378.031 203.605 375.414 203.605 371.977V305.766C203.605 301.938 204.484 299.203 206.242 297.562C208 295.922 210.793 295.102 214.621 295.102H236.945C243.547 295.102 248.625 295.609 252.18 296.625C255.695 297.602 258.723 299.223 261.262 301.488C263.84 303.754 265.793 306.527 267.121 309.809C268.449 313.09 269.113 316.781 269.113 320.883C269.113 329.633 266.418 336.273 261.027 340.805C255.637 345.297 247.609 347.543 236.945 347.543ZM232.727 308.168H221.008V334.418H232.727C236.828 334.418 240.246 333.988 242.98 333.129C245.754 332.27 247.863 330.863 249.309 328.91C250.754 326.957 251.477 324.398 251.477 321.234C251.477 317.445 250.363 314.359 248.137 311.977C245.637 309.438 240.5 308.168 232.727 308.168ZM288.28 364.301L307.499 336.234L291.327 311.273C289.804 308.852 288.652 306.781 287.87 305.062C287.128 303.305 286.757 301.625 286.757 300.023C286.757 298.383 287.48 296.918 288.925 295.629C290.409 294.301 292.206 293.637 294.316 293.637C296.738 293.637 298.613 294.359 299.941 295.805C301.308 297.211 303.183 299.848 305.566 303.715L318.456 324.574L332.226 303.715C333.359 301.957 334.316 300.453 335.097 299.203C335.917 297.953 336.698 296.918 337.441 296.098C338.183 295.277 339.003 294.672 339.902 294.281C340.839 293.852 341.913 293.637 343.124 293.637C345.312 293.637 347.089 294.301 348.456 295.629C349.863 296.918 350.566 298.461 350.566 300.258C350.566 302.875 349.062 306.43 346.054 310.922L329.12 336.234L347.343 364.301C348.984 366.762 350.175 368.812 350.917 370.453C351.659 372.055 352.03 373.578 352.03 375.023C352.03 376.391 351.698 377.641 351.034 378.773C350.37 379.906 349.433 380.805 348.222 381.469C347.011 382.133 345.644 382.465 344.12 382.465C342.48 382.465 341.093 382.113 339.96 381.41C338.827 380.746 337.909 379.906 337.206 378.891C336.503 377.875 335.195 375.902 333.28 372.973L318.163 349.184L302.109 373.676C300.859 375.629 299.96 376.996 299.413 377.777C298.905 378.559 298.28 379.32 297.538 380.062C296.796 380.805 295.917 381.391 294.902 381.82C293.886 382.25 292.695 382.465 291.327 382.465C289.218 382.465 287.46 381.82 286.054 380.531C284.687 379.242 284.003 377.367 284.003 374.906C284.003 372.016 285.429 368.48 288.28 364.301Z" fill="white"/>
</g>
<defs>
<clipPath id="clip0">
<rect width="512" height="512" fill="white"/>
</clipPath>
</defs>
</svg>
