<svg width="512" height="512" viewBox="0 0 512 512" fill="none" xmlns="http://www.w3.org/2000/svg">
<g clip-path="url(#clip0)">
<path d="M95.5 485V433L96 239.5V25C101.6 5.4 118.333 0.5 126 0.5H352L479 128V330V489C472.2 506.6 458.167 511.667 452 512C347 511.833 135.8 511.6 131 512C125 512.5 118 510.5 108 504.5C100 499.7 96.3333 489.5 95.5 485Z" fill="#E2E5E7"/>
<path d="M479 223V128L466 115H450.5L373.5 117L479 223Z" fill="#CAD1D8"/>
<path d="M352 98V0.5L478.5 128H384.5C360.1 126.4 352.667 107.333 352 98Z" fill="#B0B7BD"/>
<path d="M97 402V447.5L402 448C412.4 446.8 415.667 438.5 416 434.5V402H97Z" fill="#CAD1D8"/>
<rect x="32" y="240" width="384" height="192" rx="16" fill="#F7B84E"/>
<path d="M221.123 346.078V362.543C221.123 364.73 220.909 366.488 220.479 367.816C220.049 369.105 219.248 370.277 218.077 371.332C216.944 372.387 215.479 373.402 213.682 374.379C208.487 377.191 203.487 379.242 198.682 380.531C193.877 381.82 188.643 382.465 182.979 382.465C176.377 382.465 170.362 381.449 164.932 379.418C159.502 377.387 154.873 374.438 151.045 370.57C147.217 366.703 144.268 362.016 142.198 356.508C140.166 351 139.151 344.848 139.151 338.051C139.151 331.371 140.147 325.258 142.139 319.711C144.131 314.164 147.061 309.457 150.928 305.59C154.795 301.723 159.502 298.773 165.049 296.742C170.596 294.672 176.885 293.637 183.916 293.637C189.698 293.637 194.815 294.418 199.268 295.98C203.721 297.504 207.334 299.438 210.108 301.781C212.881 304.125 214.971 306.605 216.377 309.223C217.784 311.84 218.487 314.164 218.487 316.195C218.487 318.383 217.666 320.258 216.026 321.82C214.424 323.344 212.491 324.105 210.225 324.105C208.975 324.105 207.764 323.812 206.592 323.227C205.459 322.641 204.502 321.82 203.721 320.766C201.573 317.406 199.756 314.867 198.272 313.148C196.787 311.43 194.776 309.984 192.237 308.812C189.737 307.641 186.534 307.055 182.627 307.055C178.604 307.055 175.01 307.758 171.846 309.164C168.682 310.531 165.967 312.543 163.702 315.199C161.475 317.816 159.756 321.039 158.545 324.867C157.373 328.695 156.787 332.934 156.787 337.582C156.787 347.66 159.092 355.414 163.702 360.844C168.35 366.273 174.815 368.988 183.096 368.988C187.12 368.988 190.889 368.461 194.405 367.406C197.959 366.352 201.553 364.848 205.186 362.895V348.949H191.709C188.467 348.949 186.006 348.461 184.327 347.484C182.686 346.508 181.866 344.848 181.866 342.504C181.866 340.59 182.549 339.008 183.916 337.758C185.323 336.508 187.217 335.883 189.6 335.883H209.346C211.768 335.883 213.819 336.098 215.498 336.527C217.178 336.957 218.526 337.914 219.541 339.398C220.596 340.883 221.123 343.109 221.123 346.078ZM243.22 360.961L287.341 308.168H249.431C246.775 308.168 244.763 307.582 243.396 306.41C242.068 305.238 241.404 303.695 241.404 301.781C241.404 299.789 242.068 298.188 243.396 296.977C244.763 295.727 246.775 295.102 249.431 295.102H298.298C304.627 295.102 307.791 298.051 307.791 303.949C307.791 306.762 307.263 309.008 306.209 310.688C305.154 312.367 303.025 315.082 299.822 318.832L258.572 367.934H304.041C306.736 367.934 308.748 368.5 310.076 369.633C311.404 370.727 312.068 372.27 312.068 374.262C312.068 376.332 311.404 377.973 310.076 379.184C308.748 380.395 306.736 381 304.041 381H248.259C244.47 381 241.619 380.16 239.705 378.48C237.791 376.762 236.834 374.477 236.834 371.625C236.834 370.648 236.99 369.75 237.302 368.93C237.615 368.109 238.025 367.348 238.533 366.645C239.08 365.902 239.822 364.984 240.759 363.891C241.697 362.758 242.517 361.781 243.22 360.961Z" fill="white"/>
</g>
<defs>
<clipPath id="clip0">
<rect width="512" height="512" fill="white"/>
</clipPath>
</defs>
</svg>
