<svg width="512" height="512" viewBox="0 0 512 512" fill="none" xmlns="http://www.w3.org/2000/svg">
<g clip-path="url(#clip0)">
<path d="M95.5 485V433L96 239.5V25C101.6 5.4 118.333 0.5 126 0.5H352L479 128V330V489C472.2 506.6 458.167 511.667 452 512C347 511.833 135.8 511.6 131 512C125 512.5 118 510.5 108 504.5C100 499.7 96.3333 489.5 95.5 485Z" fill="#E2E5E7"/>
<path d="M479 223V128L466 115H450.5L373.5 117L479 223Z" fill="#CAD1D8"/>
<path d="M352 98V0.5L478.5 128H384.5C360.1 126.4 352.667 107.333 352 98Z" fill="#B0B7BD"/>
<path d="M97 402V447.5L402 448C412.4 446.8 415.667 438.5 416 434.5V402H97Z" fill="#CAD1D8"/>
<rect x="32" y="240" width="384" height="192" rx="16" fill="#F15642"/>
<path d="M205.309 303.184V327.793H242.867V303.184C242.867 299.668 243.648 297.031 245.211 295.273C246.812 293.516 248.902 292.637 251.48 292.637C254.098 292.637 256.207 293.516 257.809 295.273C259.449 296.992 260.27 299.629 260.27 303.184V370.859C260.27 374.414 259.449 377.07 257.809 378.828C256.168 380.586 254.059 381.465 251.48 381.465C248.863 381.465 246.773 380.586 245.211 378.828C243.648 377.031 242.867 374.375 242.867 370.859V341.973H205.309V370.859C205.309 374.414 204.488 377.07 202.848 378.828C201.207 380.586 199.098 381.465 196.52 381.465C193.902 381.465 191.812 380.586 190.25 378.828C188.688 377.031 187.906 374.375 187.906 370.859V303.184C187.906 299.668 188.668 297.031 190.191 295.273C191.754 293.516 193.863 292.637 196.52 292.637C199.137 292.637 201.246 293.516 202.848 295.273C204.488 296.992 205.309 299.629 205.309 303.184Z" fill="white"/>
</g>
<defs>
<clipPath id="clip0">
<rect width="512" height="512" fill="white"/>
</clipPath>
</defs>
</svg>
