<svg width="512" height="512" viewBox="0 0 512 512" fill="none" xmlns="http://www.w3.org/2000/svg">
<g clip-path="url(#clip0)">
<path d="M95.5 485V433L96 239.5V25C101.6 5.4 118.333 0.5 126 0.5H352L479 128V330V489C472.2 506.6 458.167 511.667 452 512C347 511.833 135.8 511.6 131 512C125 512.5 118 510.5 108 504.5C100 499.7 96.3333 489.5 95.5 485Z" fill="#E2E5E7"/>
<path d="M479 223V128L466 115H450.5L373.5 117L479 223Z" fill="#CAD1D8"/>
<path d="M352 98V0.5L478.5 128H384.5C360.1 126.4 352.667 107.333 352 98Z" fill="#B0B7BD"/>
<path d="M97 402V447.5L402 448C412.4 446.8 415.667 438.5 416 434.5V402H97Z" fill="#CAD1D8"/>
<rect x="32" y="240" width="384" height="192" rx="16" fill="#F15642"/>
<path d="M89.3664 304.184V328.793H126.925V304.184C126.925 300.668 127.706 298.031 129.269 296.273C130.87 294.516 132.96 293.637 135.538 293.637C138.155 293.637 140.265 294.516 141.866 296.273C143.507 297.992 144.327 300.629 144.327 304.184V371.859C144.327 375.414 143.507 378.07 141.866 379.828C140.226 381.586 138.116 382.465 135.538 382.465C132.921 382.465 130.831 381.586 129.269 379.828C127.706 378.031 126.925 375.375 126.925 371.859V342.973H89.3664V371.859C89.3664 375.414 88.5461 378.07 86.9055 379.828C85.2648 381.586 83.1555 382.465 80.5773 382.465C77.9602 382.465 75.8703 381.586 74.3078 379.828C72.7453 378.031 71.9641 375.375 71.9641 371.859V304.184C71.9641 300.668 72.7258 298.031 74.2492 296.273C75.8117 294.516 77.9211 293.637 80.5773 293.637C83.1945 293.637 85.3039 294.516 86.9055 296.273C88.5461 297.992 89.3664 300.629 89.3664 304.184ZM227.42 308.52H188.221V329.613H224.315C226.971 329.613 228.944 330.219 230.233 331.43C231.561 332.602 232.225 334.164 232.225 336.117C232.225 338.07 231.58 339.672 230.291 340.922C229.002 342.133 227.01 342.738 224.315 342.738H188.221V367.172H228.768C231.502 367.172 233.553 367.816 234.92 369.105C236.327 370.355 237.03 372.035 237.03 374.145C237.03 376.176 236.327 377.836 234.92 379.125C233.553 380.375 231.502 381 228.768 381H181.483C177.694 381 174.959 380.16 173.28 378.48C171.639 376.801 170.819 374.086 170.819 370.336V305.766C170.819 303.266 171.19 301.234 171.932 299.672C172.674 298.07 173.827 296.918 175.389 296.215C176.991 295.473 179.022 295.102 181.483 295.102H227.42C230.194 295.102 232.245 295.727 233.573 296.977C234.94 298.188 235.623 299.789 235.623 301.781C235.623 303.812 234.94 305.453 233.573 306.703C232.245 307.914 230.194 308.52 227.42 308.52ZM259.361 371.859V304.184C259.361 300.668 260.162 298.031 261.763 296.273C263.365 294.516 265.435 293.637 267.974 293.637C270.591 293.637 272.701 294.516 274.302 296.273C275.943 297.992 276.763 300.629 276.763 304.184V371.859C276.763 375.414 275.943 378.07 274.302 379.828C272.701 381.586 270.591 382.465 267.974 382.465C265.474 382.465 263.404 381.586 261.763 379.828C260.162 378.031 259.361 375.375 259.361 371.859ZM377.259 353.871C377.259 356.605 376.575 359.574 375.208 362.777C373.88 365.941 371.77 369.066 368.88 372.152C365.989 375.199 362.298 377.68 357.805 379.594C353.313 381.508 348.079 382.465 342.102 382.465C337.571 382.465 333.45 382.035 329.739 381.176C326.028 380.316 322.649 378.988 319.602 377.191C316.595 375.355 313.821 372.953 311.282 369.984C309.016 367.289 307.083 364.281 305.481 360.961C303.88 357.602 302.669 354.027 301.848 350.238C301.067 346.449 300.677 342.426 300.677 338.168C300.677 331.254 301.673 325.062 303.665 319.594C305.696 314.125 308.587 309.457 312.337 305.59C316.087 301.684 320.481 298.715 325.52 296.684C330.559 294.652 335.93 293.637 341.634 293.637C348.587 293.637 354.778 295.023 360.208 297.797C365.637 300.57 369.798 304.008 372.688 308.109C375.579 312.172 377.024 316.02 377.024 319.652C377.024 321.645 376.321 323.402 374.915 324.926C373.509 326.449 371.809 327.211 369.817 327.211C367.591 327.211 365.911 326.684 364.778 325.629C363.684 324.574 362.454 322.758 361.087 320.18C358.821 315.922 356.145 312.738 353.059 310.629C350.012 308.52 346.243 307.465 341.751 307.465C334.602 307.465 328.899 310.18 324.641 315.609C320.423 321.039 318.313 328.754 318.313 338.754C318.313 345.434 319.251 351 321.126 355.453C323.001 359.867 325.657 363.168 329.095 365.355C332.532 367.543 336.555 368.637 341.165 368.637C346.165 368.637 350.384 367.406 353.821 364.945C357.298 362.445 359.915 358.793 361.673 353.988C362.415 351.723 363.333 349.887 364.427 348.48C365.52 347.035 367.278 346.312 369.7 346.312C371.77 346.312 373.548 347.035 375.032 348.48C376.516 349.926 377.259 351.723 377.259 353.871Z" fill="white"/>
</g>
<defs>
<clipPath id="clip0">
<rect width="512" height="512" fill="white"/>
</clipPath>
</defs>
</svg>
