<svg width="512" height="512" viewBox="0 0 512 512" fill="none" xmlns="http://www.w3.org/2000/svg">
<g clip-path="url(#clip0)">
<path d="M95.5 485V433L96 239.5V25C101.6 5.4 118.333 0.5 126 0.5H352L479 128V330V489C472.2 506.6 458.167 511.667 452 512C347 511.833 135.8 511.6 131 512C125 512.5 118 510.5 108 504.5C100 499.7 96.3333 489.5 95.5 485Z" fill="#E2E5E7"/>
<path d="M479 223V128L466 115H450.5L373.5 117L479 223Z" fill="#CAD1D8"/>
<path d="M352 98V0.5L478.5 128H384.5C360.1 126.4 352.667 107.333 352 98Z" fill="#B0B7BD"/>
<path d="M97 402V447.5L402 448C412.4 446.8 415.667 438.5 416 434.5V402H97Z" fill="#CAD1D8"/>
<rect x="32" y="240" width="384" height="192" rx="16" fill="#F15642"/>
<path d="M114.22 303.184V327.793H151.778V303.184C151.778 299.668 152.559 297.031 154.122 295.273C155.723 293.516 157.813 292.637 160.391 292.637C163.009 292.637 165.118 293.516 166.72 295.273C168.36 296.992 169.18 299.629 169.18 303.184V370.859C169.18 374.414 168.36 377.07 166.72 378.828C165.079 380.586 162.97 381.465 160.391 381.465C157.774 381.465 155.684 380.586 154.122 378.828C152.559 377.031 151.778 374.375 151.778 370.859V341.973H114.22V370.859C114.22 374.414 113.399 377.07 111.759 378.828C110.118 380.586 108.009 381.465 105.43 381.465C102.813 381.465 100.723 380.586 99.1609 378.828C97.5984 377.031 96.8172 374.375 96.8172 370.859V303.184C96.8172 299.668 97.5789 297.031 99.1023 295.273C100.665 293.516 102.774 292.637 105.43 292.637C108.048 292.637 110.157 293.516 111.759 295.273C113.399 296.992 114.22 299.629 114.22 303.184ZM264.754 369.336C267.293 371.055 270.066 372.734 273.074 374.375C276.082 375.977 278.074 377.266 279.051 378.242C280.027 379.18 280.516 380.527 280.516 382.285C280.516 383.535 279.93 384.785 278.758 386.035C277.625 387.285 276.238 387.91 274.598 387.91C273.27 387.91 271.648 387.48 269.734 386.621C267.859 385.762 265.633 384.512 263.055 382.871C260.516 381.23 257.723 379.316 254.676 377.129C249.012 380.02 242.059 381.465 233.816 381.465C227.137 381.465 221.141 380.41 215.828 378.301C210.555 376.152 206.121 373.086 202.527 369.102C198.934 365.078 196.219 360.312 194.383 354.805C192.586 349.297 191.688 343.301 191.688 336.816C191.688 330.215 192.625 324.16 194.5 318.652C196.414 313.145 199.168 308.457 202.762 304.59C206.355 300.723 210.73 297.773 215.887 295.742C221.043 293.672 226.902 292.637 233.465 292.637C242.371 292.637 250.008 294.453 256.375 298.086C262.781 301.68 267.625 306.816 270.906 313.496C274.188 320.137 275.828 327.949 275.828 336.934C275.828 350.566 272.137 361.367 264.754 369.336ZM251.102 359.844C253.523 357.07 255.301 353.789 256.434 350C257.605 346.211 258.191 341.816 258.191 336.816C258.191 330.527 257.176 325.078 255.145 320.469C253.113 315.859 250.203 312.383 246.414 310.039C242.664 307.656 238.348 306.465 233.465 306.465C229.988 306.465 226.766 307.129 223.797 308.457C220.867 309.746 218.328 311.641 216.18 314.141C214.07 316.641 212.391 319.844 211.141 323.75C209.93 327.617 209.324 331.973 209.324 336.816C209.324 346.699 211.629 354.316 216.238 359.668C220.848 364.98 226.668 367.637 233.699 367.637C236.59 367.637 239.559 367.031 242.605 365.82C240.77 364.453 238.465 363.086 235.691 361.719C232.957 360.352 231.082 359.297 230.066 358.555C229.051 357.812 228.543 356.758 228.543 355.391C228.543 354.219 229.031 353.184 230.008 352.285C230.984 351.387 232.059 350.938 233.23 350.938C236.785 350.938 242.742 353.906 251.102 359.844ZM295.347 363.301L314.566 335.234L298.394 310.273C296.87 307.852 295.718 305.781 294.937 304.062C294.195 302.305 293.823 300.625 293.823 299.023C293.823 297.383 294.546 295.918 295.991 294.629C297.476 293.301 299.273 292.637 301.382 292.637C303.804 292.637 305.679 293.359 307.007 294.805C308.374 296.211 310.249 298.848 312.632 302.715L325.523 323.574L339.292 302.715C340.425 300.957 341.382 299.453 342.163 298.203C342.984 296.953 343.765 295.918 344.507 295.098C345.249 294.277 346.07 293.672 346.968 293.281C347.905 292.852 348.98 292.637 350.191 292.637C352.378 292.637 354.155 293.301 355.523 294.629C356.929 295.918 357.632 297.461 357.632 299.258C357.632 301.875 356.128 305.43 353.12 309.922L336.187 335.234L354.409 363.301C356.05 365.762 357.241 367.812 357.984 369.453C358.726 371.055 359.097 372.578 359.097 374.023C359.097 375.391 358.765 376.641 358.101 377.773C357.437 378.906 356.499 379.805 355.288 380.469C354.077 381.133 352.71 381.465 351.187 381.465C349.546 381.465 348.159 381.113 347.027 380.41C345.894 379.746 344.976 378.906 344.273 377.891C343.57 376.875 342.261 374.902 340.347 371.973L325.23 348.184L309.175 372.676C307.925 374.629 307.027 375.996 306.48 376.777C305.972 377.559 305.347 378.32 304.605 379.062C303.863 379.805 302.984 380.391 301.968 380.82C300.952 381.25 299.761 381.465 298.394 381.465C296.284 381.465 294.527 380.82 293.12 379.531C291.753 378.242 291.07 376.367 291.07 373.906C291.07 371.016 292.495 367.48 295.347 363.301Z" fill="white"/>
</g>
<defs>
<clipPath id="clip0">
<rect width="512" height="512" fill="white"/>
</clipPath>
</defs>
</svg>
