<svg width="512" height="512" viewBox="0 0 512 512" fill="none" xmlns="http://www.w3.org/2000/svg">
<g clip-path="url(#clip0)">
<path d="M95.5 485V433L96 239.5V25C101.6 5.4 118.333 0.5 126 0.5H352L479 128V330V489C472.2 506.6 458.167 511.667 452 512C347 511.833 135.8 511.6 131 512C125 512.5 118 510.5 108 504.5C100 499.7 96.3333 489.5 95.5 485Z" fill="#E2E5E7"/>
<path d="M479 223V128L466 115H450.5L373.5 117L479 223Z" fill="#CAD1D8"/>
<path d="M352 98V0.5L478.5 128H384.5C360.1 126.4 352.667 107.333 352 98Z" fill="#B0B7BD"/>
<path d="M97 402V447.5L402 448C412.4 446.8 415.667 438.5 416 434.5V402H97Z" fill="#CAD1D8"/>
<rect x="32" y="240" width="384" height="192" rx="16" fill="#F15642"/>
<path d="M110.028 303.184V327.793H147.587V303.184C147.587 299.668 148.368 297.031 149.93 295.273C151.532 293.516 153.622 292.637 156.2 292.637C158.817 292.637 160.927 293.516 162.528 295.273C164.169 296.992 164.989 299.629 164.989 303.184V370.859C164.989 374.414 164.169 377.07 162.528 378.828C160.887 380.586 158.778 381.465 156.2 381.465C153.583 381.465 151.493 380.586 149.93 378.828C148.368 377.031 147.587 374.375 147.587 370.859V341.973H110.028V370.859C110.028 374.414 109.208 377.07 107.567 378.828C105.927 380.586 103.817 381.465 101.239 381.465C98.6219 381.465 96.532 380.586 94.9695 378.828C93.407 377.031 92.6258 374.375 92.6258 370.859V303.184C92.6258 299.668 93.3875 297.031 94.9109 295.273C96.4734 293.516 98.5828 292.637 101.239 292.637C103.856 292.637 105.966 293.516 107.567 295.273C109.208 296.992 110.028 299.629 110.028 303.184ZM247.262 308.457H228.277V370.859C228.277 374.453 227.477 377.129 225.875 378.887C224.273 380.605 222.203 381.465 219.664 381.465C217.086 381.465 214.977 380.586 213.336 378.828C211.734 377.07 210.934 374.414 210.934 370.859V308.457H191.949C188.98 308.457 186.773 307.812 185.328 306.523C183.883 305.195 183.16 303.457 183.16 301.309C183.16 299.082 183.902 297.324 185.387 296.035C186.91 294.746 189.098 294.102 191.949 294.102H247.262C250.27 294.102 252.496 294.766 253.941 296.094C255.426 297.422 256.168 299.16 256.168 301.309C256.168 303.457 255.426 305.195 253.941 306.523C252.457 307.812 250.23 308.457 247.262 308.457ZM303.284 367.051L289.515 312.324V371.621C289.515 374.902 288.773 377.363 287.288 379.004C285.843 380.645 283.909 381.465 281.488 381.465C279.144 381.465 277.23 380.664 275.745 379.062C274.261 377.422 273.519 374.941 273.519 371.621V303.652C273.519 299.902 274.495 297.383 276.448 296.094C278.402 294.766 281.038 294.102 284.359 294.102H289.749C292.991 294.102 295.335 294.395 296.78 294.98C298.265 295.566 299.359 296.621 300.062 298.145C300.765 299.668 301.566 302.148 302.464 305.586L314.945 352.637L327.425 305.586C328.323 302.148 329.124 299.668 329.827 298.145C330.53 296.621 331.605 295.566 333.05 294.98C334.534 294.395 336.898 294.102 340.14 294.102H345.53C348.851 294.102 351.488 294.766 353.441 296.094C355.394 297.383 356.37 299.902 356.37 303.652V371.621C356.37 374.902 355.628 377.363 354.144 379.004C352.698 380.645 350.745 381.465 348.284 381.465C345.98 381.465 344.085 380.645 342.601 379.004C341.116 377.363 340.374 374.902 340.374 371.621V312.324L326.605 367.051C325.706 370.605 324.964 373.223 324.378 374.902C323.831 376.543 322.796 378.047 321.273 379.414C319.749 380.781 317.64 381.465 314.945 381.465C312.913 381.465 311.195 381.016 309.788 380.117C308.382 379.258 307.288 378.145 306.507 376.777C305.726 375.41 305.101 373.906 304.632 372.266C304.202 370.586 303.753 368.848 303.284 367.051Z" fill="white"/>
</g>
<defs>
<clipPath id="clip0">
<rect width="512" height="512" fill="white"/>
</clipPath>
</defs>
</svg>
