<svg width="512" height="512" viewBox="0 0 512 512" fill="none" xmlns="http://www.w3.org/2000/svg">
<g clip-path="url(#clip0)">
<path d="M95.5 485V433L96 239.5V25C101.6 5.4 118.333 0.5 126 0.5H352L479 128V330V489C472.2 506.6 458.167 511.667 452 512C347 511.833 135.8 511.6 131 512C125 512.5 118 510.5 108 504.5C100 499.7 96.3333 489.5 95.5 485Z" fill="#E2E5E7"/>
<path d="M479 223V128L466 115H450.5L373.5 117L479 223Z" fill="#CAD1D8"/>
<path d="M352 98V0.5L478.5 128H384.5C360.1 126.4 352.667 107.333 352 98Z" fill="#B0B7BD"/>
<path d="M97 402V447.5L402 448C412.4 446.8 415.667 438.5 416 434.5V402H97Z" fill="#CAD1D8"/>
<rect x="32" y="240" width="384" height="192" rx="16" fill="#F15642"/>
<path d="M69.3586 304.184V328.793H106.917V304.184C106.917 300.668 107.698 298.031 109.261 296.273C110.863 294.516 112.952 293.637 115.53 293.637C118.148 293.637 120.257 294.516 121.859 296.273C123.499 297.992 124.32 300.629 124.32 304.184V371.859C124.32 375.414 123.499 378.07 121.859 379.828C120.218 381.586 118.109 382.465 115.53 382.465C112.913 382.465 110.823 381.586 109.261 379.828C107.698 378.031 106.917 375.375 106.917 371.859V342.973H69.3586V371.859C69.3586 375.414 68.5383 378.07 66.8977 379.828C65.257 381.586 63.1477 382.465 60.5695 382.465C57.9523 382.465 55.8625 381.586 54.3 379.828C52.7375 378.031 51.9563 375.375 51.9563 371.859V304.184C51.9563 300.668 52.718 298.031 54.2414 296.273C55.8039 294.516 57.9133 293.637 60.5695 293.637C63.1867 293.637 65.2961 294.516 66.8977 296.273C68.5383 297.992 69.3586 300.629 69.3586 304.184ZM206.592 309.457H187.608V371.859C187.608 375.453 186.807 378.129 185.205 379.887C183.604 381.605 181.534 382.465 178.995 382.465C176.416 382.465 174.307 381.586 172.666 379.828C171.065 378.07 170.264 375.414 170.264 371.859V309.457H151.28C148.311 309.457 146.104 308.812 144.659 307.523C143.213 306.195 142.491 304.457 142.491 302.309C142.491 300.082 143.233 298.324 144.717 297.035C146.241 295.746 148.428 295.102 151.28 295.102H206.592C209.6 295.102 211.827 295.766 213.272 297.094C214.756 298.422 215.498 300.16 215.498 302.309C215.498 304.457 214.756 306.195 213.272 307.523C211.788 308.812 209.561 309.457 206.592 309.457ZM262.615 368.051L248.845 313.324V372.621C248.845 375.902 248.103 378.363 246.619 380.004C245.173 381.645 243.24 382.465 240.818 382.465C238.474 382.465 236.56 381.664 235.076 380.062C233.591 378.422 232.849 375.941 232.849 372.621V304.652C232.849 300.902 233.826 298.383 235.779 297.094C237.732 295.766 240.369 295.102 243.689 295.102H249.08C252.322 295.102 254.666 295.395 256.111 295.98C257.595 296.566 258.689 297.621 259.392 299.145C260.095 300.668 260.896 303.148 261.795 306.586L274.275 353.637L286.755 306.586C287.654 303.148 288.455 300.668 289.158 299.145C289.861 297.621 290.935 296.566 292.38 295.98C293.865 295.395 296.228 295.102 299.47 295.102H304.861C308.181 295.102 310.818 295.766 312.771 297.094C314.724 298.383 315.701 300.902 315.701 304.652V372.621C315.701 375.902 314.959 378.363 313.474 380.004C312.029 381.645 310.076 382.465 307.615 382.465C305.31 382.465 303.416 381.645 301.931 380.004C300.447 378.363 299.705 375.902 299.705 372.621V313.324L285.935 368.051C285.037 371.605 284.295 374.223 283.709 375.902C283.162 377.543 282.127 379.047 280.603 380.414C279.08 381.781 276.97 382.465 274.275 382.465C272.244 382.465 270.525 382.016 269.119 381.117C267.713 380.258 266.619 379.145 265.838 377.777C265.056 376.41 264.431 374.906 263.963 373.266C263.533 371.586 263.084 369.848 262.615 368.051ZM358.423 304.184V366.703H393.696C396.509 366.703 398.657 367.387 400.141 368.754C401.665 370.121 402.427 371.84 402.427 373.91C402.427 376.02 401.684 377.738 400.2 379.066C398.716 380.355 396.548 381 393.696 381H351.684C347.895 381 345.161 380.16 343.481 378.48C341.841 376.801 341.02 374.086 341.02 370.336V304.184C341.02 300.668 341.802 298.031 343.364 296.273C344.966 294.516 347.055 293.637 349.634 293.637C352.251 293.637 354.36 294.516 355.962 296.273C357.602 297.992 358.423 300.629 358.423 304.184Z" fill="white"/>
</g>
<defs>
<clipPath id="clip0">
<rect width="512" height="512" fill="white"/>
</clipPath>
</defs>
</svg>
