<svg width="512" height="512" viewBox="0 0 512 512" fill="none" xmlns="http://www.w3.org/2000/svg">
<g clip-path="url(#clip0)">
<path d="M95.5 485V433L96 239.5V25C101.6 5.4 118.333 0.5 126 0.5H352L479 128V330V489C472.2 506.6 458.167 511.667 452 512C347 511.833 135.8 511.6 131 512C125 512.5 118 510.5 108 504.5C100 499.7 96.3333 489.5 95.5 485Z" fill="#E2E5E7"/>
<path d="M479 223V128L466 115H450.5L373.5 117L479 223Z" fill="#CAD1D8"/>
<path d="M352 98V0.5L478.5 128H384.5C360.1 126.4 352.667 107.333 352 98Z" fill="#B0B7BD"/>
<path d="M97 402V447.5L402 448C412.4 446.8 415.667 438.5 416 434.5V402H97Z" fill="#CAD1D8"/>
<rect x="32" y="240" width="384" height="192" rx="16" fill="#A066AA"/>
<path d="M72.55 371.859V304.184C72.55 300.668 73.3508 298.031 74.9523 296.273C76.5539 294.516 78.6242 293.637 81.1633 293.637C83.7805 293.637 85.8898 294.516 87.4914 296.273C89.132 297.992 89.9523 300.629 89.9523 304.184V371.859C89.9523 375.414 89.132 378.07 87.4914 379.828C85.8898 381.586 83.7805 382.465 81.1633 382.465C78.6633 382.465 76.593 381.586 74.9523 379.828C73.3508 378.031 72.55 375.375 72.55 371.859ZM190.448 353.871C190.448 356.605 189.764 359.574 188.397 362.777C187.069 365.941 184.959 369.066 182.069 372.152C179.178 375.199 175.487 377.68 170.995 379.594C166.502 381.508 161.268 382.465 155.291 382.465C150.76 382.465 146.639 382.035 142.928 381.176C139.217 380.316 135.838 378.988 132.791 377.191C129.784 375.355 127.01 372.953 124.471 369.984C122.205 367.289 120.272 364.281 118.67 360.961C117.069 357.602 115.858 354.027 115.038 350.238C114.256 346.449 113.866 342.426 113.866 338.168C113.866 331.254 114.862 325.062 116.854 319.594C118.885 314.125 121.776 309.457 125.526 305.59C129.276 301.684 133.67 298.715 138.709 296.684C143.748 294.652 149.12 293.637 154.823 293.637C161.776 293.637 167.967 295.023 173.397 297.797C178.827 300.57 182.987 304.008 185.877 308.109C188.768 312.172 190.213 316.02 190.213 319.652C190.213 321.645 189.51 323.402 188.104 324.926C186.698 326.449 184.998 327.211 183.006 327.211C180.78 327.211 179.1 326.684 177.967 325.629C176.873 324.574 175.643 322.758 174.276 320.18C172.01 315.922 169.334 312.738 166.248 310.629C163.202 308.52 159.432 307.465 154.94 307.465C147.791 307.465 142.088 310.18 137.83 315.609C133.612 321.039 131.502 328.754 131.502 338.754C131.502 345.434 132.44 351 134.315 355.453C136.19 359.867 138.846 363.168 142.284 365.355C145.721 367.543 149.745 368.637 154.354 368.637C159.354 368.637 163.573 367.406 167.01 364.945C170.487 362.445 173.104 358.793 174.862 353.988C175.604 351.723 176.522 349.887 177.616 348.48C178.709 347.035 180.467 346.312 182.889 346.312C184.959 346.312 186.737 347.035 188.221 348.48C189.705 349.926 190.448 351.723 190.448 353.871ZM236.568 304.066L270.025 354.691V303.598C270.025 300.277 270.728 297.797 272.134 296.156C273.58 294.477 275.513 293.637 277.935 293.637C280.435 293.637 282.408 294.477 283.853 296.156C285.298 297.797 286.021 300.277 286.021 303.598V371.156C286.021 378.695 282.896 382.465 276.646 382.465C275.084 382.465 273.677 382.23 272.427 381.762C271.177 381.332 270.005 380.629 268.912 379.652C267.818 378.676 266.802 377.543 265.865 376.254C264.927 374.926 263.99 373.578 263.052 372.211L230.416 322.172V372.504C230.416 375.785 229.654 378.266 228.13 379.945C226.607 381.625 224.654 382.465 222.271 382.465C219.81 382.465 217.838 381.625 216.353 379.945C214.869 378.227 214.127 375.746 214.127 372.504V306.234C214.127 303.422 214.439 301.215 215.064 299.613C215.806 297.855 217.037 296.43 218.755 295.336C220.474 294.203 222.33 293.637 224.322 293.637C225.884 293.637 227.213 293.891 228.306 294.398C229.439 294.906 230.416 295.59 231.236 296.449C232.095 297.309 232.955 298.422 233.814 299.789C234.713 301.156 235.63 302.582 236.568 304.066ZM378.137 355.219C378.137 360.414 376.79 365.082 374.095 369.223C371.438 373.363 367.532 376.605 362.376 378.949C357.22 381.293 351.106 382.465 344.036 382.465C335.559 382.465 328.567 380.863 323.059 377.66C319.153 375.355 315.97 372.289 313.509 368.461C311.087 364.594 309.876 360.844 309.876 357.211C309.876 355.102 310.598 353.305 312.044 351.82C313.528 350.297 315.403 349.535 317.669 349.535C319.505 349.535 321.048 350.121 322.298 351.293C323.587 352.465 324.68 354.203 325.579 356.508C326.673 359.242 327.845 361.527 329.095 363.363C330.384 365.199 332.18 366.723 334.485 367.934C336.79 369.105 339.817 369.691 343.567 369.691C348.723 369.691 352.903 368.5 356.106 366.117C359.348 363.695 360.97 360.688 360.97 357.094C360.97 354.242 360.091 351.938 358.333 350.18C356.614 348.383 354.368 347.016 351.595 346.078C348.86 345.141 345.188 344.145 340.579 343.09C334.407 341.645 329.231 339.965 325.052 338.051C320.911 336.098 317.61 333.461 315.149 330.141C312.727 326.781 311.516 322.621 311.516 317.66C311.516 312.934 312.805 308.734 315.384 305.062C317.962 301.391 321.692 298.578 326.575 296.625C331.458 294.633 337.2 293.637 343.802 293.637C349.075 293.637 353.626 294.301 357.454 295.629C361.321 296.918 364.524 298.656 367.063 300.844C369.602 302.992 371.458 305.258 372.63 307.641C373.802 310.023 374.387 312.348 374.387 314.613C374.387 316.684 373.645 318.559 372.161 320.238C370.716 321.879 368.899 322.699 366.712 322.699C364.72 322.699 363.196 322.211 362.141 321.234C361.126 320.219 360.012 318.578 358.802 316.312C357.239 313.07 355.364 310.551 353.177 308.754C350.989 306.918 347.473 306 342.63 306C338.137 306 334.505 306.996 331.731 308.988C328.997 310.941 327.63 313.305 327.63 316.078C327.63 317.797 328.098 319.281 329.036 320.531C329.973 321.781 331.262 322.855 332.903 323.754C334.544 324.652 336.204 325.355 337.884 325.863C339.563 326.371 342.337 327.113 346.204 328.09C351.048 329.223 355.423 330.473 359.329 331.84C363.274 333.207 366.614 334.867 369.348 336.82C372.122 338.773 374.27 341.254 375.794 344.262C377.356 347.23 378.137 350.883 378.137 355.219Z" fill="white"/>
</g>
<defs>
<clipPath id="clip0">
<rect width="512" height="512" fill="white"/>
</clipPath>
</defs>
</svg>
