<svg width="512" height="512" viewBox="0 0 512 512" fill="none" xmlns="http://www.w3.org/2000/svg">
<g clip-path="url(#clip0)">
<path d="M95.5 485V433L96 239.5V25C101.6 5.4 118.333 0.5 126 0.5H352L479 128V330V489C472.2 506.6 458.167 511.667 452 512C347 511.833 135.8 511.6 131 512C125 512.5 118 510.5 108 504.5C100 499.7 96.3333 489.5 95.5 485Z" fill="#E2E5E7"/>
<path d="M479 223V128L466 115H450.5L373.5 117L479 223Z" fill="#CAD1D8"/>
<path d="M352 98V0.5L478.5 128H384.5C360.1 126.4 352.667 107.333 352 98Z" fill="#B0B7BD"/>
<path d="M97 402V447.5L402 448C412.4 446.8 415.667 438.5 416 434.5V402H97Z" fill="#CAD1D8"/>
<rect x="32" y="240" width="384" height="192" rx="16" fill="#A066AA"/>
<path d="M115.536 371.859V304.184C115.536 300.668 116.337 298.031 117.938 296.273C119.54 294.516 121.61 293.637 124.149 293.637C126.766 293.637 128.876 294.516 130.477 296.273C132.118 297.992 132.938 300.629 132.938 304.184V371.859C132.938 375.414 132.118 378.07 130.477 379.828C128.876 381.586 126.766 382.465 124.149 382.465C121.649 382.465 119.579 381.586 117.938 379.828C116.337 378.031 115.536 375.375 115.536 371.859ZM233.434 353.871C233.434 356.605 232.75 359.574 231.383 362.777C230.055 365.941 227.945 369.066 225.055 372.152C222.164 375.199 218.473 377.68 213.98 379.594C209.488 381.508 204.254 382.465 198.277 382.465C193.746 382.465 189.625 382.035 185.914 381.176C182.203 380.316 178.824 378.988 175.777 377.191C172.77 375.355 169.996 372.953 167.457 369.984C165.191 367.289 163.258 364.281 161.656 360.961C160.055 357.602 158.844 354.027 158.023 350.238C157.242 346.449 156.852 342.426 156.852 338.168C156.852 331.254 157.848 325.062 159.84 319.594C161.871 314.125 164.762 309.457 168.512 305.59C172.262 301.684 176.656 298.715 181.695 296.684C186.734 294.652 192.105 293.637 197.809 293.637C204.762 293.637 210.953 295.023 216.383 297.797C221.812 300.57 225.973 304.008 228.863 308.109C231.754 312.172 233.199 316.02 233.199 319.652C233.199 321.645 232.496 323.402 231.09 324.926C229.684 326.449 227.984 327.211 225.992 327.211C223.766 327.211 222.086 326.684 220.953 325.629C219.859 324.574 218.629 322.758 217.262 320.18C214.996 315.922 212.32 312.738 209.234 310.629C206.187 308.52 202.418 307.465 197.926 307.465C190.777 307.465 185.074 310.18 180.816 315.609C176.598 321.039 174.488 328.754 174.488 338.754C174.488 345.434 175.426 351 177.301 355.453C179.176 359.867 181.832 363.168 185.27 365.355C188.707 367.543 192.73 368.637 197.34 368.637C202.34 368.637 206.559 367.406 209.996 364.945C213.473 362.445 216.09 358.793 217.848 353.988C218.59 351.723 219.508 349.887 220.602 348.48C221.695 347.035 223.453 346.312 225.875 346.312C227.945 346.312 229.723 347.035 231.207 348.48C232.691 349.926 233.434 351.723 233.434 353.871ZM294.671 293.637C303.577 293.637 311.214 295.453 317.581 299.086C323.988 302.68 328.831 307.816 332.113 314.496C335.394 321.137 337.034 328.949 337.034 337.934C337.034 344.574 336.136 350.609 334.339 356.039C332.542 361.469 329.847 366.176 326.253 370.16C322.659 374.145 318.245 377.191 313.011 379.301C307.777 381.41 301.78 382.465 295.023 382.465C288.304 382.465 282.288 381.391 276.976 379.242C271.663 377.055 267.23 373.988 263.675 370.043C260.12 366.098 257.425 361.352 255.589 355.805C253.792 350.258 252.894 344.262 252.894 337.816C252.894 331.215 253.831 325.16 255.706 319.652C257.62 314.145 260.374 309.457 263.968 305.59C267.562 301.723 271.937 298.773 277.093 296.742C282.249 294.672 288.109 293.637 294.671 293.637ZM319.398 337.816C319.398 331.527 318.382 326.078 316.351 321.469C314.32 316.859 311.409 313.383 307.62 311.039C303.87 308.656 299.554 307.465 294.671 307.465C291.195 307.465 287.972 308.129 285.003 309.457C282.073 310.746 279.534 312.641 277.386 315.141C275.277 317.641 273.597 320.844 272.347 324.75C271.136 328.617 270.53 332.973 270.53 337.816C270.53 342.699 271.136 347.113 272.347 351.059C273.597 355.004 275.335 358.285 277.562 360.902C279.827 363.48 282.405 365.414 285.296 366.703C288.226 367.992 291.429 368.637 294.905 368.637C299.359 368.637 303.441 367.523 307.152 365.297C310.902 363.07 313.87 359.633 316.058 354.984C318.284 350.336 319.398 344.613 319.398 337.816Z" fill="white"/>
</g>
<defs>
<clipPath id="clip0">
<rect width="512" height="512" fill="white"/>
</clipPath>
</defs>
</svg>
