<svg width="512" height="512" viewBox="0 0 512 512" fill="none" xmlns="http://www.w3.org/2000/svg">
<g clip-path="url(#clip0)">
<path d="M95.5 485V433L96 239.5V25C101.6 5.4 118.333 0.5 126 0.5H352L479 128V330V489C472.2 506.6 458.167 511.667 452 512C347 511.833 135.8 511.6 131 512C125 512.5 118 510.5 108 504.5C100 499.7 96.3333 489.5 95.5 485Z" fill="#E2E5E7"/>
<path d="M479 223V128L466 115H450.5L373.5 117L479 223Z" fill="#CAD1D8"/>
<path d="M352 98V0.5L478.5 128H384.5C360.1 126.4 352.667 107.333 352 98Z" fill="#B0B7BD"/>
<path d="M97 402V447.5L402 448C412.4 446.8 415.667 438.5 416 434.5V402H97Z" fill="#CAD1D8"/>
<rect x="32" y="240" width="384" height="192" rx="16" fill="#A066AA"/>
<path d="M123.536 371.859V304.184C123.536 300.668 124.337 298.031 125.938 296.273C127.54 294.516 129.61 293.637 132.149 293.637C134.766 293.637 136.876 294.516 138.477 296.273C140.118 297.992 140.938 300.629 140.938 304.184V371.859C140.938 375.414 140.118 378.07 138.477 379.828C136.876 381.586 134.766 382.465 132.149 382.465C129.649 382.465 127.579 381.586 125.938 379.828C124.337 378.031 123.536 375.375 123.536 371.859ZM241.434 353.871C241.434 356.605 240.75 359.574 239.383 362.777C238.055 365.941 235.945 369.066 233.055 372.152C230.164 375.199 226.473 377.68 221.98 379.594C217.488 381.508 212.254 382.465 206.277 382.465C201.746 382.465 197.625 382.035 193.914 381.176C190.203 380.316 186.824 378.988 183.777 377.191C180.77 375.355 177.996 372.953 175.457 369.984C173.191 367.289 171.258 364.281 169.656 360.961C168.055 357.602 166.844 354.027 166.023 350.238C165.242 346.449 164.852 342.426 164.852 338.168C164.852 331.254 165.848 325.062 167.84 319.594C169.871 314.125 172.762 309.457 176.512 305.59C180.262 301.684 184.656 298.715 189.695 296.684C194.734 294.652 200.105 293.637 205.809 293.637C212.762 293.637 218.953 295.023 224.383 297.797C229.812 300.57 233.973 304.008 236.863 308.109C239.754 312.172 241.199 316.02 241.199 319.652C241.199 321.645 240.496 323.402 239.09 324.926C237.684 326.449 235.984 327.211 233.992 327.211C231.766 327.211 230.086 326.684 228.953 325.629C227.859 324.574 226.629 322.758 225.262 320.18C222.996 315.922 220.32 312.738 217.234 310.629C214.187 308.52 210.418 307.465 205.926 307.465C198.777 307.465 193.074 310.18 188.816 315.609C184.598 321.039 182.488 328.754 182.488 338.754C182.488 345.434 183.426 351 185.301 355.453C187.176 359.867 189.832 363.168 193.27 365.355C196.707 367.543 200.73 368.637 205.34 368.637C210.34 368.637 214.559 367.406 217.996 364.945C221.473 362.445 224.09 358.793 225.848 353.988C226.59 351.723 227.508 349.887 228.602 348.48C229.695 347.035 231.453 346.312 233.875 346.312C235.945 346.312 237.723 347.035 239.207 348.48C240.691 349.926 241.434 351.723 241.434 353.871ZM330.152 355.219C330.152 360.414 328.804 365.082 326.109 369.223C323.452 373.363 319.546 376.605 314.39 378.949C309.234 381.293 303.12 382.465 296.05 382.465C287.573 382.465 280.581 380.863 275.073 377.66C271.167 375.355 267.984 372.289 265.523 368.461C263.101 364.594 261.89 360.844 261.89 357.211C261.89 355.102 262.613 353.305 264.058 351.82C265.542 350.297 267.417 349.535 269.683 349.535C271.519 349.535 273.062 350.121 274.312 351.293C275.601 352.465 276.695 354.203 277.593 356.508C278.687 359.242 279.859 361.527 281.109 363.363C282.398 365.199 284.195 366.723 286.499 367.934C288.804 369.105 291.831 369.691 295.581 369.691C300.738 369.691 304.917 368.5 308.12 366.117C311.363 363.695 312.984 360.688 312.984 357.094C312.984 354.242 312.105 351.938 310.347 350.18C308.628 348.383 306.382 347.016 303.609 346.078C300.874 345.141 297.202 344.145 292.593 343.09C286.421 341.645 281.245 339.965 277.066 338.051C272.925 336.098 269.624 333.461 267.163 330.141C264.741 326.781 263.53 322.621 263.53 317.66C263.53 312.934 264.82 308.734 267.398 305.062C269.976 301.391 273.706 298.578 278.589 296.625C283.472 294.633 289.214 293.637 295.816 293.637C301.089 293.637 305.64 294.301 309.468 295.629C313.335 296.918 316.538 298.656 319.077 300.844C321.616 302.992 323.472 305.258 324.644 307.641C325.816 310.023 326.402 312.348 326.402 314.613C326.402 316.684 325.659 318.559 324.175 320.238C322.73 321.879 320.913 322.699 318.726 322.699C316.734 322.699 315.21 322.211 314.155 321.234C313.14 320.219 312.027 318.578 310.816 316.312C309.253 313.07 307.378 310.551 305.191 308.754C303.003 306.918 299.488 306 294.644 306C290.152 306 286.519 306.996 283.745 308.988C281.011 310.941 279.644 313.305 279.644 316.078C279.644 317.797 280.113 319.281 281.05 320.531C281.988 321.781 283.277 322.855 284.917 323.754C286.558 324.652 288.218 325.355 289.898 325.863C291.577 326.371 294.351 327.113 298.218 328.09C303.062 329.223 307.437 330.473 311.343 331.84C315.288 333.207 318.628 334.867 321.363 336.82C324.136 338.773 326.284 341.254 327.808 344.262C329.37 347.23 330.152 350.883 330.152 355.219Z" fill="white"/>
</g>
<defs>
<clipPath id="clip0">
<rect width="512" height="512" fill="white"/>
</clipPath>
</defs>
</svg>
