<svg width="512" height="512" viewBox="0 0 512 512" fill="none" xmlns="http://www.w3.org/2000/svg">
<g clip-path="url(#clip0)">
<path d="M95.5 485V433L96 239.5V25C101.6 5.4 118.333 0.5 126 0.5H352L479 128V330V489C472.2 506.6 458.167 511.667 452 512C347 511.833 135.8 511.6 131 512C125 512.5 118 510.5 108 504.5C100 499.7 96.3333 489.5 95.5 485Z" fill="#E2E5E7"/>
<path d="M479 223V128L466 115H450.5L373.5 117L479 223Z" fill="#CAD1D8"/>
<path d="M352 98V0.5L478.5 128H384.5C360.1 126.4 352.667 107.333 352 98Z" fill="#B0B7BD"/>
<path d="M97 402V447.5L402 448C412.4 446.8 415.667 438.5 416 434.5V402H97Z" fill="#CAD1D8"/>
<rect x="32" y="240" width="384" height="192" rx="16" fill="#A066AA"/>
<path d="M135.43 371.859V304.184C135.43 300.668 136.231 298.031 137.833 296.273C139.434 294.516 141.505 293.637 144.044 293.637C146.661 293.637 148.77 294.516 150.372 296.273C152.012 297.992 152.833 300.629 152.833 304.184V371.859C152.833 375.414 152.012 378.07 150.372 379.828C148.77 381.586 146.661 382.465 144.044 382.465C141.544 382.465 139.473 381.586 137.833 379.828C136.231 378.031 135.43 375.375 135.43 371.859ZM231.473 308.52H197.195V330.492H225.848C228.504 330.492 230.477 331.098 231.766 332.309C233.094 333.48 233.758 335.062 233.758 337.055C233.758 339.047 233.094 340.629 231.766 341.801C230.437 342.973 228.465 343.559 225.848 343.559H197.195V371.859C197.195 375.453 196.375 378.129 194.734 379.887C193.133 381.605 191.062 382.465 188.523 382.465C185.945 382.465 183.836 381.586 182.195 379.828C180.594 378.07 179.793 375.414 179.793 371.859V305.766C179.793 303.266 180.164 301.234 180.906 299.672C181.648 298.07 182.801 296.918 184.363 296.215C185.965 295.473 187.996 295.102 190.457 295.102H231.473C234.246 295.102 236.297 295.727 237.625 296.977C238.992 298.188 239.676 299.789 239.676 301.781C239.676 303.812 238.992 305.453 237.625 306.703C236.297 307.914 234.246 308.52 231.473 308.52ZM311.812 308.52H277.534V330.492H306.187C308.843 330.492 310.816 331.098 312.105 332.309C313.433 333.48 314.097 335.062 314.097 337.055C314.097 339.047 313.433 340.629 312.105 341.801C310.777 342.973 308.804 343.559 306.187 343.559H277.534V371.859C277.534 375.453 276.714 378.129 275.073 379.887C273.472 381.605 271.402 382.465 268.862 382.465C266.284 382.465 264.175 381.586 262.534 379.828C260.933 378.07 260.132 375.414 260.132 371.859V305.766C260.132 303.266 260.503 301.234 261.245 299.672C261.987 298.07 263.14 296.918 264.702 296.215C266.304 295.473 268.335 295.102 270.796 295.102H311.812C314.585 295.102 316.636 295.727 317.964 296.977C319.331 298.188 320.015 299.789 320.015 301.781C320.015 303.812 319.331 305.453 317.964 306.703C316.636 307.914 314.585 308.52 311.812 308.52Z" fill="white"/>
</g>
<defs>
<clipPath id="clip0">
<rect width="512" height="512" fill="white"/>
</clipPath>
</defs>
</svg>
