<svg width="512" height="512" viewBox="0 0 512 512" fill="none" xmlns="http://www.w3.org/2000/svg">
<g clip-path="url(#clip0)">
<path d="M95.5 485V433L96 239.5V25C101.6 5.4 118.333 0.5 126 0.5H352L479 128V330V489C472.2 506.6 458.167 511.667 452 512C347 511.833 135.8 511.6 131 512C125 512.5 118 510.5 108 504.5C100 499.7 96.3333 489.5 95.5 485Z" fill="#E2E5E7"/>
<path d="M479 223V128L466 115H450.5L373.5 117L479 223Z" fill="#CAD1D8"/>
<path d="M352 98V0.5L478.5 128H384.5C360.1 126.4 352.667 107.333 352 98Z" fill="#B0B7BD"/>
<path d="M97 402V447.5L402 448C412.4 446.8 415.667 438.5 416 434.5V402H97Z" fill="#CAD1D8"/>
<rect x="32" y="240" width="384" height="192" rx="16" fill="#A066AA"/>
<path d="M68.1555 371.859V304.184C68.1555 300.668 68.9563 298.031 70.5578 296.273C72.1594 294.516 74.2297 293.637 76.7688 293.637C79.3859 293.637 81.4953 294.516 83.0969 296.273C84.7375 297.992 85.5578 300.629 85.5578 304.184V371.859C85.5578 375.414 84.7375 378.07 83.0969 379.828C81.4953 381.586 79.3859 382.465 76.7688 382.465C74.2688 382.465 72.1984 381.586 70.5578 379.828C68.9563 378.031 68.1555 375.375 68.1555 371.859ZM135.545 304.066L169.002 354.691V303.598C169.002 300.277 169.705 297.797 171.112 296.156C172.557 294.477 174.491 293.637 176.913 293.637C179.413 293.637 181.385 294.477 182.83 296.156C184.276 297.797 184.998 300.277 184.998 303.598V371.156C184.998 378.695 181.873 382.465 175.623 382.465C174.061 382.465 172.655 382.23 171.405 381.762C170.155 381.332 168.983 380.629 167.889 379.652C166.795 378.676 165.78 377.543 164.842 376.254C163.905 374.926 162.967 373.578 162.03 372.211L129.393 322.172V372.504C129.393 375.785 128.631 378.266 127.108 379.945C125.584 381.625 123.631 382.465 121.248 382.465C118.788 382.465 116.815 381.625 115.33 379.945C113.846 378.227 113.104 375.746 113.104 372.504V306.234C113.104 303.422 113.416 301.215 114.041 299.613C114.784 297.855 116.014 296.43 117.733 295.336C119.452 294.203 121.307 293.637 123.299 293.637C124.862 293.637 126.19 293.891 127.284 294.398C128.416 294.906 129.393 295.59 130.213 296.449C131.073 297.309 131.932 298.422 132.791 299.789C133.69 301.156 134.608 302.582 135.545 304.066ZM222.623 295.102H245.298C251.197 295.102 256.255 295.648 260.474 296.742C264.693 297.836 268.521 299.887 271.959 302.895C280.904 310.551 285.377 322.191 285.377 337.816C285.377 342.973 284.927 347.68 284.029 351.938C283.13 356.195 281.744 360.043 279.869 363.48C277.994 366.879 275.591 369.926 272.662 372.621C270.357 374.691 267.838 376.352 265.103 377.602C262.369 378.852 259.42 379.73 256.255 380.238C253.13 380.746 249.595 381 245.65 381H222.974C219.81 381 217.427 380.531 215.826 379.594C214.224 378.617 213.17 377.27 212.662 375.551C212.193 373.793 211.959 371.527 211.959 368.754V305.766C211.959 302.016 212.798 299.301 214.478 297.621C216.158 295.941 218.873 295.102 222.623 295.102ZM229.361 308.871V367.172H242.545C245.435 367.172 247.701 367.094 249.341 366.938C250.982 366.781 252.681 366.391 254.439 365.766C256.197 365.141 257.72 364.262 259.009 363.129C264.83 358.207 267.74 349.73 267.74 337.699C267.74 329.223 266.451 322.875 263.873 318.656C261.334 314.438 258.189 311.762 254.439 310.629C250.689 309.457 246.158 308.871 240.845 308.871H229.361ZM319.251 295.102H341.927C347.825 295.102 352.884 295.648 357.102 296.742C361.321 297.836 365.149 299.887 368.587 302.895C377.532 310.551 382.005 322.191 382.005 337.816C382.005 342.973 381.555 347.68 380.657 351.938C379.759 356.195 378.372 360.043 376.497 363.48C374.622 366.879 372.22 369.926 369.29 372.621C366.985 374.691 364.466 376.352 361.731 377.602C358.997 378.852 356.048 379.73 352.884 380.238C349.759 380.746 346.223 381 342.278 381H319.602C316.438 381 314.055 380.531 312.454 379.594C310.852 378.617 309.798 377.27 309.29 375.551C308.821 373.793 308.587 371.527 308.587 368.754V305.766C308.587 302.016 309.427 299.301 311.106 297.621C312.786 295.941 315.501 295.102 319.251 295.102ZM325.989 308.871V367.172H339.173C342.063 367.172 344.329 367.094 345.97 366.938C347.61 366.781 349.309 366.391 351.067 365.766C352.825 365.141 354.348 364.262 355.637 363.129C361.458 358.207 364.368 349.73 364.368 337.699C364.368 329.223 363.079 322.875 360.501 318.656C357.962 314.438 354.817 311.762 351.067 310.629C347.317 309.457 342.786 308.871 337.473 308.871H325.989Z" fill="white"/>
</g>
<defs>
<clipPath id="clip0">
<rect width="512" height="512" fill="white"/>
</clipPath>
</defs>
</svg>
