<svg width="512" height="512" viewBox="0 0 512 512" fill="none" xmlns="http://www.w3.org/2000/svg">
<g clip-path="url(#clip0)">
<path d="M95.5 485V433L96 239.5V25C101.6 5.4 118.333 0.5 126 0.5H352L479 128V330V489C472.2 506.6 458.167 511.667 452 512C347 511.833 135.8 511.6 131 512C125 512.5 118 510.5 108 504.5C100 499.7 96.3333 489.5 95.5 485Z" fill="#E2E5E7"/>
<path d="M479 223V128L466 115H450.5L373.5 117L479 223Z" fill="#CAD1D8"/>
<path d="M352 98V0.5L478.5 128H384.5C360.1 126.4 352.667 107.333 352 98Z" fill="#B0B7BD"/>
<path d="M97 402V447.5L402 448C412.4 446.8 415.667 438.5 416 434.5V402H97Z" fill="#CAD1D8"/>
<rect x="32" y="240" width="384" height="192" rx="16" fill="#A066AA"/>
<path d="M143.575 371.859V304.184C143.575 300.668 144.376 298.031 145.977 296.273C147.579 294.516 149.649 293.637 152.188 293.637C154.805 293.637 156.915 294.516 158.516 296.273C160.157 297.992 160.977 300.629 160.977 304.184V371.859C160.977 375.414 160.157 378.07 158.516 379.828C156.915 381.586 154.805 382.465 152.188 382.465C149.688 382.465 147.618 381.586 145.977 379.828C144.376 378.031 143.575 375.375 143.575 371.859ZM210.965 304.066L244.422 354.691V303.598C244.422 300.277 245.125 297.797 246.531 296.156C247.977 294.477 249.91 293.637 252.332 293.637C254.832 293.637 256.805 294.477 258.25 296.156C259.695 297.797 260.418 300.277 260.418 303.598V371.156C260.418 378.695 257.293 382.465 251.043 382.465C249.48 382.465 248.074 382.23 246.824 381.762C245.574 381.332 244.402 380.629 243.309 379.652C242.215 378.676 241.199 377.543 240.262 376.254C239.324 374.926 238.387 373.578 237.449 372.211L204.812 322.172V372.504C204.812 375.785 204.051 378.266 202.527 379.945C201.004 381.625 199.051 382.465 196.668 382.465C194.207 382.465 192.234 381.625 190.75 379.945C189.266 378.227 188.523 375.746 188.523 372.504V306.234C188.523 303.422 188.836 301.215 189.461 299.613C190.203 297.855 191.434 296.43 193.152 295.336C194.871 294.203 196.727 293.637 198.719 293.637C200.281 293.637 201.609 293.891 202.703 294.398C203.836 294.906 204.812 295.59 205.633 296.449C206.492 297.309 207.352 298.422 208.211 299.789C209.109 301.156 210.027 302.582 210.965 304.066ZM287.964 371.859V304.184C287.964 300.668 288.765 298.031 290.366 296.273C291.968 294.516 294.038 293.637 296.577 293.637C299.195 293.637 301.304 294.516 302.905 296.273C304.546 297.992 305.366 300.629 305.366 304.184V371.859C305.366 375.414 304.546 378.07 302.905 379.828C301.304 381.586 299.195 382.465 296.577 382.465C294.077 382.465 292.007 381.586 290.366 379.828C288.765 378.031 287.964 375.375 287.964 371.859Z" fill="white"/>
</g>
<defs>
<clipPath id="clip0">
<rect width="512" height="512" fill="white"/>
</clipPath>
</defs>
</svg>
