<svg width="512" height="512" viewBox="0 0 512 512" fill="none" xmlns="http://www.w3.org/2000/svg">
<g clip-path="url(#clip0)">
<path d="M95.5 485V433L96 239.5V25C101.6 5.4 118.333 0.5 126 0.5H352L479 128V330V489C472.2 506.6 458.167 511.667 452 512C347 511.833 135.8 511.6 131 512C125 512.5 118 510.5 108 504.5C100 499.7 96.3333 489.5 95.5 485Z" fill="#E2E5E7"/>
<path d="M479 223V128L466 115H450.5L373.5 117L479 223Z" fill="#CAD1D8"/>
<path d="M352 98V0.5L478.5 128H384.5C360.1 126.4 352.667 107.333 352 98Z" fill="#B0B7BD"/>
<path d="M97 402V447.5L402 448C412.4 446.8 415.667 438.5 416 434.5V402H97Z" fill="#CAD1D8"/>
<rect x="10" y="240" width="384" height="192" rx="16" fill="#A066AA"/>
<path d="M98.4305 370.859V303.184C98.4305 299.668 99.2312 297.031 100.833 295.273C102.434 293.516 104.505 292.637 107.044 292.637C109.661 292.637 111.77 293.516 113.372 295.273C115.012 296.992 115.833 299.629 115.833 303.184V370.859C115.833 374.414 115.012 377.07 113.372 378.828C111.77 380.586 109.661 381.465 107.044 381.465C104.544 381.465 102.473 380.586 100.833 378.828C99.2312 377.031 98.4305 374.375 98.4305 370.859ZM208.418 354.219C208.418 359.414 207.07 364.082 204.375 368.223C201.719 372.363 197.812 375.605 192.656 377.949C187.5 380.293 181.387 381.465 174.316 381.465C165.84 381.465 158.848 379.863 153.34 376.66C149.434 374.355 146.25 371.289 143.789 367.461C141.367 363.594 140.156 359.844 140.156 356.211C140.156 354.102 140.879 352.305 142.324 350.82C143.809 349.297 145.684 348.535 147.949 348.535C149.785 348.535 151.328 349.121 152.578 350.293C153.867 351.465 154.961 353.203 155.859 355.508C156.953 358.242 158.125 360.527 159.375 362.363C160.664 364.199 162.461 365.723 164.766 366.934C167.07 368.105 170.098 368.691 173.848 368.691C179.004 368.691 183.184 367.5 186.387 365.117C189.629 362.695 191.25 359.688 191.25 356.094C191.25 353.242 190.371 350.938 188.613 349.18C186.895 347.383 184.648 346.016 181.875 345.078C179.141 344.141 175.469 343.145 170.859 342.09C164.687 340.645 159.512 338.965 155.332 337.051C151.191 335.098 147.891 332.461 145.43 329.141C143.008 325.781 141.797 321.621 141.797 316.66C141.797 311.934 143.086 307.734 145.664 304.062C148.242 300.391 151.973 297.578 156.855 295.625C161.738 293.633 167.48 292.637 174.082 292.637C179.355 292.637 183.906 293.301 187.734 294.629C191.602 295.918 194.805 297.656 197.344 299.844C199.883 301.992 201.738 304.258 202.91 306.641C204.082 309.023 204.668 311.348 204.668 313.613C204.668 315.684 203.926 317.559 202.441 319.238C200.996 320.879 199.18 321.699 196.992 321.699C195 321.699 193.477 321.211 192.422 320.234C191.406 319.219 190.293 317.578 189.082 315.312C187.52 312.07 185.645 309.551 183.457 307.754C181.27 305.918 177.754 305 172.91 305C168.418 305 164.785 305.996 162.012 307.988C159.277 309.941 157.91 312.305 157.91 315.078C157.91 316.797 158.379 318.281 159.316 319.531C160.254 320.781 161.543 321.855 163.184 322.754C164.824 323.652 166.484 324.355 168.164 324.863C169.844 325.371 172.617 326.113 176.484 327.09C181.328 328.223 185.703 329.473 189.609 330.84C193.555 332.207 196.895 333.867 199.629 335.82C202.402 337.773 204.551 340.254 206.074 343.262C207.637 346.23 208.418 349.883 208.418 354.219ZM268.777 292.637C277.683 292.637 285.32 294.453 291.687 298.086C298.093 301.68 302.937 306.816 306.218 313.496C309.499 320.137 311.14 327.949 311.14 336.934C311.14 343.574 310.241 349.609 308.445 355.039C306.648 360.469 303.952 365.176 300.359 369.16C296.765 373.145 292.351 376.191 287.116 378.301C281.882 380.41 275.886 381.465 269.128 381.465C262.409 381.465 256.394 380.391 251.081 378.242C245.769 376.055 241.335 372.988 237.78 369.043C234.226 365.098 231.53 360.352 229.695 354.805C227.898 349.258 226.999 343.262 226.999 336.816C226.999 330.215 227.937 324.16 229.812 318.652C231.726 313.145 234.48 308.457 238.073 304.59C241.667 300.723 246.042 297.773 251.198 295.742C256.355 293.672 262.214 292.637 268.777 292.637ZM293.503 336.816C293.503 330.527 292.488 325.078 290.456 320.469C288.425 315.859 285.515 312.383 281.726 310.039C277.976 307.656 273.659 306.465 268.777 306.465C265.3 306.465 262.077 307.129 259.109 308.457C256.179 309.746 253.64 311.641 251.491 314.141C249.382 316.641 247.702 319.844 246.452 323.75C245.241 327.617 244.636 331.973 244.636 336.816C244.636 341.699 245.241 346.113 246.452 350.059C247.702 354.004 249.441 357.285 251.667 359.902C253.933 362.48 256.511 364.414 259.402 365.703C262.331 366.992 265.534 367.637 269.011 367.637C273.464 367.637 277.546 366.523 281.257 364.297C285.007 362.07 287.976 358.633 290.163 353.984C292.39 349.336 293.503 343.613 293.503 336.816Z" fill="white"/>
</g>
<defs>
<clipPath id="clip0">
<rect width="512" height="512" fill="white"/>
</clipPath>
</defs>
</svg>
