<svg width="512" height="512" viewBox="0 0 512 512" fill="none" xmlns="http://www.w3.org/2000/svg">
<g clip-path="url(#clip0)">
<path d="M95.5 485V433L96 239.5V25C101.6 5.4 118.333 0.5 126 0.5H352L479 128V330V489C472.2 506.6 458.167 511.667 452 512C347 511.833 135.8 511.6 131 512C125 512.5 118 510.5 108 504.5C100 499.7 96.3333 489.5 95.5 485Z" fill="#E2E5E7"/>
<path d="M479 223V128L466 115H450.5L373.5 117L479 223Z" fill="#CAD1D8"/>
<path d="M352 98V0.5L478.5 128H384.5C360.1 126.4 352.667 107.333 352 98Z" fill="#B0B7BD"/>
<path d="M97 402V447.5L402 448C412.4 446.8 415.667 438.5 416 434.5V402H97Z" fill="#CAD1D8"/>
<rect x="10" y="240" width="384" height="192" rx="16" fill="#576D7E"/>
<path d="M134.759 303.184V348.184C134.759 352.09 134.583 355.41 134.231 358.145C133.919 360.879 133.177 363.652 132.005 366.465C130.052 371.191 126.829 374.883 122.337 377.539C117.845 380.156 112.376 381.465 105.93 381.465C100.11 381.465 95.2469 380.547 91.3406 378.711C87.4734 376.875 84.3484 373.906 81.9656 369.805C80.7156 367.617 79.7 365.098 78.9187 362.246C78.1375 359.395 77.7469 356.68 77.7469 354.102C77.7469 351.367 78.5086 349.277 80.032 347.832C81.5555 346.387 83.5086 345.664 85.8914 345.664C88.1961 345.664 89.9344 346.328 91.1062 347.656C92.2781 348.984 93.1766 351.055 93.8016 353.867C94.4656 356.875 95.1297 359.277 95.7937 361.074C96.4578 362.871 97.5711 364.414 99.1336 365.703C100.696 366.992 102.923 367.637 105.813 367.637C113.509 367.637 117.356 361.992 117.356 350.703V303.184C117.356 299.668 118.118 297.031 119.641 295.273C121.204 293.516 123.313 292.637 125.97 292.637C128.665 292.637 130.794 293.516 132.356 295.273C133.958 297.031 134.759 299.668 134.759 303.184ZM213.34 370.273L209.238 359.492H174.316L170.215 370.508C168.613 374.805 167.246 377.715 166.113 379.238C164.98 380.723 163.125 381.465 160.547 381.465C158.359 381.465 156.426 380.664 154.746 379.062C153.066 377.461 152.227 375.645 152.227 373.613C152.227 372.441 152.422 371.23 152.812 369.98C153.203 368.73 153.848 366.992 154.746 364.766L176.719 308.984C177.344 307.383 178.086 305.469 178.945 303.242C179.844 300.977 180.781 299.102 181.758 297.617C182.773 296.133 184.082 294.941 185.684 294.043C187.324 293.105 189.336 292.637 191.719 292.637C194.141 292.637 196.152 293.105 197.754 294.043C199.395 294.941 200.703 296.113 201.68 297.559C202.695 299.004 203.535 300.566 204.199 302.246C204.902 303.887 205.781 306.094 206.836 308.867L229.277 364.297C231.035 368.516 231.914 371.582 231.914 373.496C231.914 375.488 231.074 377.324 229.395 379.004C227.754 380.645 225.762 381.465 223.418 381.465C222.051 381.465 220.879 381.211 219.902 380.703C218.926 380.234 218.105 379.59 217.441 378.77C216.777 377.91 216.055 376.621 215.273 374.902C214.531 373.145 213.887 371.602 213.34 370.273ZM178.887 346.426H204.551L191.602 310.977L178.887 346.426ZM275.925 343.262H269.831V370.859C269.831 374.492 269.03 377.168 267.429 378.887C265.827 380.605 263.738 381.465 261.159 381.465C258.386 381.465 256.238 380.566 254.714 378.77C253.191 376.973 252.429 374.336 252.429 370.859V304.766C252.429 301.016 253.269 298.301 254.948 296.621C256.628 294.941 259.343 294.102 263.093 294.102H291.394C295.3 294.102 298.64 294.277 301.413 294.629C304.187 294.941 306.687 295.605 308.913 296.621C311.609 297.754 313.991 299.375 316.062 301.484C318.132 303.594 319.695 306.055 320.749 308.867C321.843 311.641 322.39 314.59 322.39 317.715C322.39 324.121 320.573 329.238 316.941 333.066C313.347 336.895 307.878 339.609 300.534 341.211C303.62 342.852 306.57 345.273 309.382 348.477C312.195 351.68 314.695 355.098 316.882 358.73C319.109 362.324 320.827 365.586 322.038 368.516C323.288 371.406 323.913 373.398 323.913 374.492C323.913 375.625 323.542 376.758 322.8 377.891C322.097 378.984 321.12 379.844 319.87 380.469C318.62 381.133 317.175 381.465 315.534 381.465C313.581 381.465 311.941 380.996 310.613 380.059C309.284 379.16 308.132 378.008 307.155 376.602C306.218 375.195 304.929 373.125 303.288 370.391L296.316 358.789C293.816 354.531 291.57 351.289 289.577 349.062C287.624 346.836 285.632 345.312 283.601 344.492C281.57 343.672 279.011 343.262 275.925 343.262ZM285.886 307.168H269.831V330.781H285.417C289.597 330.781 293.113 330.43 295.964 329.727C298.816 328.984 300.984 327.754 302.468 326.035C303.991 324.277 304.753 321.875 304.753 318.828C304.753 316.445 304.148 314.355 302.937 312.559C301.726 310.723 300.046 309.355 297.898 308.457C295.866 307.598 291.863 307.168 285.886 307.168Z" fill="white"/>
</g>
<defs>
<clipPath id="clip0">
<rect width="512" height="512" fill="white"/>
</clipPath>
</defs>
</svg>
