<svg width="512" height="512" viewBox="0 0 512 512" fill="none" xmlns="http://www.w3.org/2000/svg">
<g clip-path="url(#clip0)">
<path d="M95.5 485V433L96 239.5V25C101.6 5.4 118.333 0.5 126 0.5H352L479 128V330V489C472.2 506.6 458.167 511.667 452 512C347 511.833 135.8 511.6 131 512C125 512.5 118 510.5 108 504.5C100 499.7 96.3333 489.5 95.5 485Z" fill="#E2E5E7"/>
<path d="M479 223V128L466 115H450.5L373.5 117L479 223Z" fill="#CAD1D8"/>
<path d="M352 98V0.5L478.5 128H384.5C360.1 126.4 352.667 107.333 352 98Z" fill="#B0B7BD"/>
<path d="M97 402V447.5L402 448C412.4 446.8 415.667 438.5 416 434.5V402H97Z" fill="#CAD1D8"/>
<rect x="10" y="240" width="384" height="192" rx="16" fill="#576D7E"/>
<path d="M95.6438 303.184V348.184C95.6438 352.09 95.468 355.41 95.1164 358.145C94.8039 360.879 94.0617 363.652 92.8898 366.465C90.9367 371.191 87.7141 374.883 83.2219 377.539C78.7297 380.156 73.2609 381.465 66.8156 381.465C60.9953 381.465 56.132 380.547 52.2258 378.711C48.3586 376.875 45.2336 373.906 42.8508 369.805C41.6008 367.617 40.5852 365.098 39.8039 362.246C39.0227 359.395 38.632 356.68 38.632 354.102C38.632 351.367 39.3938 349.277 40.9172 347.832C42.4406 346.387 44.3938 345.664 46.7766 345.664C49.0813 345.664 50.8195 346.328 51.9914 347.656C53.1633 348.984 54.0617 351.055 54.6867 353.867C55.3508 356.875 56.0148 359.277 56.6789 361.074C57.343 362.871 58.4563 364.414 60.0188 365.703C61.5813 366.992 63.8078 367.637 66.6984 367.637C74.3938 367.637 78.2414 361.992 78.2414 350.703V303.184C78.2414 299.668 79.0031 297.031 80.5266 295.273C82.0891 293.516 84.1984 292.637 86.8547 292.637C89.55 292.637 91.6789 293.516 93.2414 295.273C94.843 297.031 95.6438 299.668 95.6438 303.184ZM174.225 370.273L170.123 359.492H135.202L131.1 370.508C129.498 374.805 128.131 377.715 126.998 379.238C125.866 380.723 124.01 381.465 121.432 381.465C119.245 381.465 117.311 380.664 115.631 379.062C113.952 377.461 113.112 375.645 113.112 373.613C113.112 372.441 113.307 371.23 113.698 369.98C114.088 368.73 114.733 366.992 115.631 364.766L137.604 308.984C138.229 307.383 138.971 305.469 139.83 303.242C140.729 300.977 141.666 299.102 142.643 297.617C143.659 296.133 144.967 294.941 146.569 294.043C148.209 293.105 150.221 292.637 152.604 292.637C155.026 292.637 157.038 293.105 158.639 294.043C160.28 294.941 161.588 296.113 162.565 297.559C163.58 299.004 164.42 300.566 165.084 302.246C165.788 303.887 166.666 306.094 167.721 308.867L190.163 364.297C191.92 368.516 192.799 371.582 192.799 373.496C192.799 375.488 191.959 377.324 190.28 379.004C188.639 380.645 186.647 381.465 184.303 381.465C182.936 381.465 181.764 381.211 180.788 380.703C179.811 380.234 178.991 379.59 178.327 378.77C177.663 377.91 176.94 376.621 176.159 374.902C175.416 373.145 174.772 371.602 174.225 370.273ZM139.772 346.426H165.436L152.487 310.977L139.772 346.426ZM220.052 304.062L239.505 361.66L259.017 303.652C260.033 300.605 260.795 298.496 261.302 297.324C261.81 296.113 262.65 295.039 263.822 294.102C264.994 293.125 266.595 292.637 268.627 292.637C270.111 292.637 271.478 293.008 272.728 293.75C274.017 294.492 275.013 295.488 275.716 296.738C276.459 297.949 276.83 299.18 276.83 300.43C276.83 301.289 276.713 302.227 276.478 303.242C276.244 304.219 275.951 305.195 275.599 306.172C275.248 307.109 274.896 308.086 274.545 309.102L253.744 365.234C253.002 367.383 252.259 369.434 251.517 371.387C250.775 373.301 249.916 375 248.939 376.484C247.963 377.93 246.654 379.121 245.013 380.059C243.412 380.996 241.439 381.465 239.095 381.465C236.752 381.465 234.759 380.996 233.119 380.059C231.517 379.16 230.209 377.969 229.193 376.484C228.216 374.961 227.357 373.242 226.615 371.328C225.873 369.414 225.13 367.383 224.388 365.234L203.939 309.57C203.588 308.555 203.216 307.559 202.826 306.582C202.474 305.605 202.162 304.551 201.888 303.418C201.654 302.285 201.537 301.328 201.537 300.547C201.537 298.555 202.338 296.738 203.939 295.098C205.541 293.457 207.552 292.637 209.974 292.637C212.943 292.637 215.033 293.555 216.244 295.391C217.494 297.188 218.763 300.078 220.052 304.062ZM346.622 370.273L342.52 359.492H307.598L303.497 370.508C301.895 374.805 300.528 377.715 299.395 379.238C298.262 380.723 296.407 381.465 293.829 381.465C291.641 381.465 289.708 380.664 288.028 379.062C286.348 377.461 285.509 375.645 285.509 373.613C285.509 372.441 285.704 371.23 286.095 369.98C286.485 368.73 287.13 366.992 288.028 364.766L310.001 308.984C310.626 307.383 311.368 305.469 312.227 303.242C313.126 300.977 314.063 299.102 315.04 297.617C316.055 296.133 317.364 294.941 318.966 294.043C320.606 293.105 322.618 292.637 325.001 292.637C327.423 292.637 329.434 293.105 331.036 294.043C332.677 294.941 333.985 296.113 334.962 297.559C335.977 299.004 336.817 300.566 337.481 302.246C338.184 303.887 339.063 306.094 340.118 308.867L362.559 364.297C364.317 368.516 365.196 371.582 365.196 373.496C365.196 375.488 364.356 377.324 362.677 379.004C361.036 380.645 359.044 381.465 356.7 381.465C355.333 381.465 354.161 381.211 353.184 380.703C352.208 380.234 351.387 379.59 350.723 378.77C350.059 377.91 349.337 376.621 348.555 374.902C347.813 373.145 347.169 371.602 346.622 370.273ZM312.169 346.426H337.833L324.884 310.977L312.169 346.426Z" fill="white"/>
</g>
<defs>
<clipPath id="clip0">
<rect width="512" height="512" fill="white"/>
</clipPath>
</defs>
</svg>
