<svg width="512" height="512" viewBox="0 0 512 512" fill="none" xmlns="http://www.w3.org/2000/svg">
<g clip-path="url(#clip0)">
<path d="M95.5 485V433L96 239.5V25C101.6 5.4 118.333 0.5 126 0.5H352L479 128V330V489C472.2 506.6 458.167 511.667 452 512C347 511.833 135.8 511.6 131 512C125 512.5 118 510.5 108 504.5C100 499.7 96.3333 489.5 95.5 485Z" fill="#E2E5E7"/>
<path d="M479 223V128L466 115H450.5L373.5 117L479 223Z" fill="#CAD1D8"/>
<path d="M352 98V0.5L478.5 128H384.5C360.1 126.4 352.667 107.333 352 98Z" fill="#B0B7BD"/>
<path d="M97 402V447.5L402 448C412.4 446.8 415.667 438.5 416 434.5V402H97Z" fill="#CAD1D8"/>
<rect x="32" y="240" width="384" height="192" rx="16" fill="#576D7E"/>
<path d="M108.644 304.184V349.184C108.644 353.09 108.468 356.41 108.116 359.145C107.804 361.879 107.062 364.652 105.89 367.465C103.937 372.191 100.714 375.883 96.2219 378.539C91.7297 381.156 86.2609 382.465 79.8156 382.465C73.9953 382.465 69.132 381.547 65.2258 379.711C61.3586 377.875 58.2336 374.906 55.8508 370.805C54.6008 368.617 53.5852 366.098 52.8039 363.246C52.0227 360.395 51.632 357.68 51.632 355.102C51.632 352.367 52.3938 350.277 53.9172 348.832C55.4406 347.387 57.3938 346.664 59.7766 346.664C62.0813 346.664 63.8195 347.328 64.9914 348.656C66.1633 349.984 67.0617 352.055 67.6867 354.867C68.3508 357.875 69.0148 360.277 69.6789 362.074C70.343 363.871 71.4563 365.414 73.0188 366.703C74.5813 367.992 76.8078 368.637 79.6984 368.637C87.3938 368.637 91.2414 362.992 91.2414 351.703V304.184C91.2414 300.668 92.0031 298.031 93.5266 296.273C95.0891 294.516 97.1984 293.637 99.8547 293.637C102.55 293.637 104.679 294.516 106.241 296.273C107.843 298.031 108.644 300.668 108.644 304.184ZM168.651 347.543H152.713V371.859C152.713 375.336 151.893 377.973 150.252 379.77C148.612 381.566 146.541 382.465 144.041 382.465C141.424 382.465 139.315 381.586 137.713 379.828C136.112 378.031 135.311 375.414 135.311 371.977V305.766C135.311 301.938 136.19 299.203 137.948 297.562C139.705 295.922 142.498 295.102 146.327 295.102H168.651C175.252 295.102 180.33 295.609 183.885 296.625C187.401 297.602 190.428 299.223 192.967 301.488C195.545 303.754 197.498 306.527 198.827 309.809C200.155 313.09 200.819 316.781 200.819 320.883C200.819 329.633 198.123 336.273 192.733 340.805C187.342 345.297 179.315 347.543 168.651 347.543ZM164.432 308.168H152.713V334.418H164.432C168.534 334.418 171.952 333.988 174.686 333.129C177.459 332.27 179.569 330.863 181.014 328.91C182.459 326.957 183.182 324.398 183.182 321.234C183.182 317.445 182.069 314.359 179.842 311.977C177.342 309.438 172.205 308.168 164.432 308.168ZM279.752 308.52H240.552V329.613H276.646C279.302 329.613 281.275 330.219 282.564 331.43C283.892 332.602 284.556 334.164 284.556 336.117C284.556 338.07 283.912 339.672 282.623 340.922C281.334 342.133 279.341 342.738 276.646 342.738H240.552V367.172H281.099C283.834 367.172 285.884 367.816 287.252 369.105C288.658 370.355 289.361 372.035 289.361 374.145C289.361 376.176 288.658 377.836 287.252 379.125C285.884 380.375 283.834 381 281.099 381H233.814C230.025 381 227.291 380.16 225.611 378.48C223.97 376.801 223.15 374.086 223.15 370.336V305.766C223.15 303.266 223.521 301.234 224.263 299.672C225.005 298.07 226.158 296.918 227.72 296.215C229.322 295.473 231.353 295.102 233.814 295.102H279.752C282.525 295.102 284.576 295.727 285.904 296.977C287.271 298.188 287.955 299.789 287.955 301.781C287.955 303.812 287.271 305.453 285.904 306.703C284.576 307.914 282.525 308.52 279.752 308.52ZM389.446 346.078V362.543C389.446 364.73 389.231 366.488 388.802 367.816C388.372 369.105 387.571 370.277 386.399 371.332C385.266 372.387 383.802 373.402 382.005 374.379C376.809 377.191 371.809 379.242 367.005 380.531C362.2 381.82 356.966 382.465 351.302 382.465C344.7 382.465 338.684 381.449 333.255 379.418C327.825 377.387 323.196 374.438 319.368 370.57C315.54 366.703 312.591 362.016 310.52 356.508C308.489 351 307.473 344.848 307.473 338.051C307.473 331.371 308.47 325.258 310.462 319.711C312.454 314.164 315.384 309.457 319.251 305.59C323.118 301.723 327.825 298.773 333.372 296.742C338.919 294.672 345.208 293.637 352.239 293.637C358.02 293.637 363.137 294.418 367.591 295.98C372.044 297.504 375.657 299.438 378.43 301.781C381.204 304.125 383.294 306.605 384.7 309.223C386.106 311.84 386.809 314.164 386.809 316.195C386.809 318.383 385.989 320.258 384.348 321.82C382.747 323.344 380.813 324.105 378.548 324.105C377.298 324.105 376.087 323.812 374.915 323.227C373.782 322.641 372.825 321.82 372.044 320.766C369.895 317.406 368.079 314.867 366.595 313.148C365.11 311.43 363.098 309.984 360.559 308.812C358.059 307.641 354.856 307.055 350.95 307.055C346.927 307.055 343.333 307.758 340.169 309.164C337.005 310.531 334.29 312.543 332.024 315.199C329.798 317.816 328.079 321.039 326.868 324.867C325.696 328.695 325.11 332.934 325.11 337.582C325.11 347.66 327.415 355.414 332.024 360.844C336.673 366.273 343.137 368.988 351.419 368.988C355.442 368.988 359.212 368.461 362.727 367.406C366.282 366.352 369.876 364.848 373.509 362.895V348.949H360.032C356.79 348.949 354.329 348.461 352.649 347.484C351.009 346.508 350.188 344.848 350.188 342.504C350.188 340.59 350.872 339.008 352.239 337.758C353.645 336.508 355.54 335.883 357.923 335.883H377.669C380.091 335.883 382.141 336.098 383.821 336.527C385.501 336.957 386.848 337.914 387.864 339.398C388.919 340.883 389.446 343.109 389.446 346.078Z" fill="white"/>
</g>
<defs>
<clipPath id="clip0">
<rect width="512" height="512" fill="white"/>
</clipPath>
</defs>
</svg>
