<svg width="512" height="512" viewBox="0 0 512 512" fill="none" xmlns="http://www.w3.org/2000/svg">
<g clip-path="url(#clip0)">
<path d="M95.5 485V433L96 239.5V25C101.6 5.4 118.333 0.5 126 0.5H352L479 128V330V489C472.2 506.6 458.167 511.667 452 512C347 511.833 135.8 511.6 131 512C125 512.5 118 510.5 108 504.5C100 499.7 96.3333 489.5 95.5 485Z" fill="#E2E5E7"/>
<path d="M479 223V128L466 115H450.5L373.5 117L479 223Z" fill="#CAD1D8"/>
<path d="M352 98V0.5L478.5 128H384.5C360.1 126.4 352.667 107.333 352 98Z" fill="#B0B7BD"/>
<path d="M97 402V447.5L402 448C412.4 446.8 415.667 438.5 416 434.5V402H97Z" fill="#CAD1D8"/>
<rect x="32" y="240" width="384" height="192" rx="16" fill="#576D7E"/>
<path d="M161.563 304.184V349.184C161.563 353.09 161.387 356.41 161.036 359.145C160.723 361.879 159.981 364.652 158.809 367.465C156.856 372.191 153.634 375.883 149.141 378.539C144.649 381.156 139.18 382.465 132.735 382.465C126.915 382.465 122.052 381.547 118.145 379.711C114.278 377.875 111.153 374.906 108.77 370.805C107.52 368.617 106.505 366.098 105.723 363.246C104.942 360.395 104.552 357.68 104.552 355.102C104.552 352.367 105.313 350.277 106.837 348.832C108.36 347.387 110.313 346.664 112.696 346.664C115.001 346.664 116.739 347.328 117.911 348.656C119.083 349.984 119.981 352.055 120.606 354.867C121.27 357.875 121.934 360.277 122.598 362.074C123.262 363.871 124.376 365.414 125.938 366.703C127.501 367.992 129.727 368.637 132.618 368.637C140.313 368.637 144.161 362.992 144.161 351.703V304.184C144.161 300.668 144.923 298.031 146.446 296.273C148.009 294.516 150.118 293.637 152.774 293.637C155.47 293.637 157.598 294.516 159.161 296.273C160.762 298.031 161.563 300.668 161.563 304.184ZM221.57 347.543H205.633V371.859C205.633 375.336 204.812 377.973 203.172 379.77C201.531 381.566 199.461 382.465 196.961 382.465C194.344 382.465 192.234 381.586 190.633 379.828C189.031 378.031 188.23 375.414 188.23 371.977V305.766C188.23 301.938 189.109 299.203 190.867 297.562C192.625 295.922 195.418 295.102 199.246 295.102H221.57C228.172 295.102 233.25 295.609 236.805 296.625C240.32 297.602 243.348 299.223 245.887 301.488C248.465 303.754 250.418 306.527 251.746 309.809C253.074 313.09 253.738 316.781 253.738 320.883C253.738 329.633 251.043 336.273 245.652 340.805C240.262 345.297 232.234 347.543 221.57 347.543ZM217.352 308.168H205.633V334.418H217.352C221.453 334.418 224.871 333.988 227.605 333.129C230.379 332.27 232.488 330.863 233.934 328.91C235.379 326.957 236.102 324.398 236.102 321.234C236.102 317.445 234.988 314.359 232.762 311.977C230.262 309.438 225.125 308.168 217.352 308.168ZM354.527 346.078V362.543C354.527 364.73 354.312 366.488 353.882 367.816C353.452 369.105 352.652 370.277 351.48 371.332C350.347 372.387 348.882 373.402 347.085 374.379C341.89 377.191 336.89 379.242 332.085 380.531C327.28 381.82 322.046 382.465 316.382 382.465C309.78 382.465 303.765 381.449 298.335 379.418C292.905 377.387 288.277 374.438 284.448 370.57C280.62 366.703 277.671 362.016 275.601 356.508C273.57 351 272.554 344.848 272.554 338.051C272.554 331.371 273.55 325.258 275.542 319.711C277.534 314.164 280.464 309.457 284.331 305.59C288.198 301.723 292.905 298.773 298.452 296.742C303.999 294.672 310.288 293.637 317.32 293.637C323.101 293.637 328.218 294.418 332.671 295.98C337.124 297.504 340.738 299.438 343.511 301.781C346.284 304.125 348.374 306.605 349.78 309.223C351.187 311.84 351.89 314.164 351.89 316.195C351.89 318.383 351.07 320.258 349.429 321.82C347.827 323.344 345.894 324.105 343.628 324.105C342.378 324.105 341.167 323.812 339.995 323.227C338.863 322.641 337.905 321.82 337.124 320.766C334.976 317.406 333.159 314.867 331.675 313.148C330.191 311.43 328.179 309.984 325.64 308.812C323.14 307.641 319.937 307.055 316.03 307.055C312.007 307.055 308.413 307.758 305.249 309.164C302.085 310.531 299.37 312.543 297.105 315.199C294.878 317.816 293.159 321.039 291.948 324.867C290.777 328.695 290.191 332.934 290.191 337.582C290.191 347.66 292.495 355.414 297.105 360.844C301.753 366.273 308.218 368.988 316.499 368.988C320.523 368.988 324.292 368.461 327.808 367.406C331.363 366.352 334.956 364.848 338.589 362.895V348.949H325.113C321.87 348.949 319.409 348.461 317.73 347.484C316.089 346.508 315.269 344.848 315.269 342.504C315.269 340.59 315.952 339.008 317.32 337.758C318.726 336.508 320.62 335.883 323.003 335.883H342.749C345.171 335.883 347.222 336.098 348.902 336.527C350.581 336.957 351.929 337.914 352.945 339.398C353.999 340.883 354.527 343.109 354.527 346.078Z" fill="white"/>
</g>
<defs>
<clipPath id="clip0">
<rect width="512" height="512" fill="white"/>
</clipPath>
</defs>
</svg>
