<svg width="512" height="512" viewBox="0 0 512 512" fill="none" xmlns="http://www.w3.org/2000/svg">
<g clip-path="url(#clip0)">
<path d="M95.5 485V433L96 239.5V25C101.6 5.4 118.333 0.5 126 0.5H352L479 128V330V489C472.2 506.6 458.167 511.667 452 512C347 511.833 135.8 511.6 131 512C125 512.5 118 510.5 108 504.5C100 499.7 96.3333 489.5 95.5 485Z" fill="#E2E5E7"/>
<path d="M479 223V128L466 115H450.5L373.5 117L479 223Z" fill="#CAD1D8"/>
<path d="M352 98V0.5L478.5 128H384.5C360.1 126.4 352.667 107.333 352 98Z" fill="#B0B7BD"/>
<path d="M97 402V447.5L402 448C412.4 446.8 415.667 438.5 416 434.5V402H97Z" fill="#CAD1D8"/>
<rect x="32" y="240" width="384" height="192" rx="16" fill="#576D7E"/>
<path d="M204.483 304.184V349.184C204.483 353.09 204.307 356.41 203.955 359.145C203.643 361.879 202.901 364.652 201.729 367.465C199.776 372.191 196.553 375.883 192.061 378.539C187.569 381.156 182.1 382.465 175.655 382.465C169.834 382.465 164.971 381.547 161.065 379.711C157.198 377.875 154.073 374.906 151.69 370.805C150.44 368.617 149.424 366.098 148.643 363.246C147.862 360.395 147.471 357.68 147.471 355.102C147.471 352.367 148.233 350.277 149.756 348.832C151.28 347.387 153.233 346.664 155.616 346.664C157.92 346.664 159.659 347.328 160.83 348.656C162.002 349.984 162.901 352.055 163.526 354.867C164.19 357.875 164.854 360.277 165.518 362.074C166.182 363.871 167.295 365.414 168.858 366.703C170.42 367.992 172.647 368.637 175.537 368.637C183.233 368.637 187.08 362.992 187.08 351.703V304.184C187.08 300.668 187.842 298.031 189.366 296.273C190.928 294.516 193.037 293.637 195.694 293.637C198.389 293.637 200.518 294.516 202.08 296.273C203.682 298.031 204.483 300.668 204.483 304.184ZM296.423 355.219C296.423 360.414 295.076 365.082 292.38 369.223C289.724 373.363 285.818 376.605 280.662 378.949C275.505 381.293 269.392 382.465 262.322 382.465C253.845 382.465 246.853 380.863 241.345 377.66C237.439 375.355 234.255 372.289 231.795 368.461C229.373 364.594 228.162 360.844 228.162 357.211C228.162 355.102 228.884 353.305 230.33 351.82C231.814 350.297 233.689 349.535 235.955 349.535C237.791 349.535 239.334 350.121 240.584 351.293C241.873 352.465 242.966 354.203 243.865 356.508C244.959 359.242 246.13 361.527 247.38 363.363C248.67 365.199 250.466 366.723 252.771 367.934C255.076 369.105 258.103 369.691 261.853 369.691C267.009 369.691 271.189 368.5 274.392 366.117C277.634 363.695 279.255 360.688 279.255 357.094C279.255 354.242 278.377 351.938 276.619 350.18C274.9 348.383 272.654 347.016 269.88 346.078C267.146 345.141 263.474 344.145 258.865 343.09C252.693 341.645 247.517 339.965 243.338 338.051C239.197 336.098 235.896 333.461 233.435 330.141C231.013 326.781 229.802 322.621 229.802 317.66C229.802 312.934 231.091 308.734 233.67 305.062C236.248 301.391 239.978 298.578 244.861 296.625C249.744 294.633 255.486 293.637 262.088 293.637C267.361 293.637 271.912 294.301 275.74 295.629C279.607 296.918 282.81 298.656 285.349 300.844C287.888 302.992 289.744 305.258 290.916 307.641C292.088 310.023 292.673 312.348 292.673 314.613C292.673 316.684 291.931 318.559 290.447 320.238C289.002 321.879 287.185 322.699 284.998 322.699C283.005 322.699 281.482 322.211 280.427 321.234C279.412 320.219 278.298 318.578 277.088 316.312C275.525 313.07 273.65 310.551 271.463 308.754C269.275 306.918 265.759 306 260.916 306C256.423 306 252.791 306.996 250.017 308.988C247.283 310.941 245.916 313.305 245.916 316.078C245.916 317.797 246.384 319.281 247.322 320.531C248.259 321.781 249.548 322.855 251.189 323.754C252.83 324.652 254.49 325.355 256.17 325.863C257.849 326.371 260.623 327.113 264.49 328.09C269.334 329.223 273.709 330.473 277.615 331.84C281.56 333.207 284.9 334.867 287.634 336.82C290.408 338.773 292.556 341.254 294.08 344.262C295.642 347.23 296.423 350.883 296.423 355.219Z" fill="white"/>
</g>
<defs>
<clipPath id="clip0">
<rect width="512" height="512" fill="white"/>
</clipPath>
</defs>
</svg>
