<svg width="512" height="512" viewBox="0 0 512 512" fill="none" xmlns="http://www.w3.org/2000/svg">
<g clip-path="url(#clip0)">
<path d="M95.5 485V433L96 239.5V25C101.6 5.4 118.333 0.5 126 0.5H352L479 128V330V489C472.2 506.6 458.167 511.667 452 512C347 511.833 135.8 511.6 131 512C125 512.5 118 510.5 108 504.5C100 499.7 96.3333 489.5 95.5 485Z" fill="#E2E5E7"/>
<path d="M479 223V128L466 115H450.5L373.5 117L479 223Z" fill="#CAD1D8"/>
<path d="M352 98V0.5L478.5 128H384.5C360.1 126.4 352.667 107.333 352 98Z" fill="#B0B7BD"/>
<path d="M97 402V447.5L402 448C412.4 446.8 415.667 438.5 416 434.5V402H97Z" fill="#CAD1D8"/>
<rect x="10" y="240" width="384" height="192" rx="16" fill="#576D7E"/>
<path d="M82.5773 303.184V348.184C82.5773 352.09 82.4016 355.41 82.05 358.145C81.7375 360.879 80.9953 363.652 79.8234 366.465C77.8703 371.191 74.6477 374.883 70.1555 377.539C65.6633 380.156 60.1945 381.465 53.7492 381.465C47.9289 381.465 43.0656 380.547 39.1594 378.711C35.2922 376.875 32.1672 373.906 29.7844 369.805C28.5344 367.617 27.5188 365.098 26.7375 362.246C25.9563 359.395 25.5656 356.68 25.5656 354.102C25.5656 351.367 26.3273 349.277 27.8508 347.832C29.3742 346.387 31.3273 345.664 33.7102 345.664C36.0148 345.664 37.7531 346.328 38.925 347.656C40.0969 348.984 40.9953 351.055 41.6203 353.867C42.2844 356.875 42.9484 359.277 43.6125 361.074C44.2766 362.871 45.3898 364.414 46.9523 365.703C48.5148 366.992 50.7414 367.637 53.632 367.637C61.3273 367.637 65.175 361.992 65.175 350.703V303.184C65.175 299.668 65.9367 297.031 67.4602 295.273C69.0227 293.516 71.132 292.637 73.7883 292.637C76.4836 292.637 78.6125 293.516 80.175 295.273C81.7766 297.031 82.5773 299.668 82.5773 303.184ZM174.518 354.219C174.518 359.414 173.17 364.082 170.475 368.223C167.819 372.363 163.913 375.605 158.756 377.949C153.6 380.293 147.487 381.465 140.416 381.465C131.94 381.465 124.948 379.863 119.44 376.66C115.534 374.355 112.35 371.289 109.889 367.461C107.467 363.594 106.256 359.844 106.256 356.211C106.256 354.102 106.979 352.305 108.424 350.82C109.909 349.297 111.784 348.535 114.049 348.535C115.885 348.535 117.428 349.121 118.678 350.293C119.967 351.465 121.061 353.203 121.959 355.508C123.053 358.242 124.225 360.527 125.475 362.363C126.764 364.199 128.561 365.723 130.866 366.934C133.17 368.105 136.198 368.691 139.948 368.691C145.104 368.691 149.284 367.5 152.487 365.117C155.729 362.695 157.35 359.688 157.35 356.094C157.35 353.242 156.471 350.938 154.713 349.18C152.995 347.383 150.748 346.016 147.975 345.078C145.241 344.141 141.569 343.145 136.959 342.09C130.788 340.645 125.612 338.965 121.432 337.051C117.291 335.098 113.991 332.461 111.53 329.141C109.108 325.781 107.897 321.621 107.897 316.66C107.897 311.934 109.186 307.734 111.764 304.062C114.342 300.391 118.073 297.578 122.955 295.625C127.838 293.633 133.58 292.637 140.182 292.637C145.455 292.637 150.006 293.301 153.834 294.629C157.702 295.918 160.905 297.656 163.444 299.844C165.983 301.992 167.838 304.258 169.01 306.641C170.182 309.023 170.768 311.348 170.768 313.613C170.768 315.684 170.026 317.559 168.541 319.238C167.096 320.879 165.28 321.699 163.092 321.699C161.1 321.699 159.577 321.211 158.522 320.234C157.506 319.219 156.393 317.578 155.182 315.312C153.62 312.07 151.745 309.551 149.557 307.754C147.37 305.918 143.854 305 139.01 305C134.518 305 130.885 305.996 128.112 307.988C125.377 309.941 124.01 312.305 124.01 315.078C124.01 316.797 124.479 318.281 125.416 319.531C126.354 320.781 127.643 321.855 129.284 322.754C130.924 323.652 132.584 324.355 134.264 324.863C135.944 325.371 138.717 326.113 142.584 327.09C147.428 328.223 151.803 329.473 155.709 330.84C159.655 332.207 162.995 333.867 165.729 335.82C168.502 337.773 170.651 340.254 172.174 343.262C173.737 346.23 174.518 349.883 174.518 354.219ZM234.877 292.637C243.783 292.637 251.42 294.453 257.787 298.086C264.193 301.68 269.037 306.816 272.318 313.496C275.599 320.137 277.24 327.949 277.24 336.934C277.24 343.574 276.341 349.609 274.545 355.039C272.748 360.469 270.052 365.176 266.459 369.16C262.865 373.145 258.451 376.191 253.216 378.301C247.982 380.41 241.986 381.465 235.228 381.465C228.509 381.465 222.494 380.391 217.181 378.242C211.869 376.055 207.435 372.988 203.88 369.043C200.326 365.098 197.63 360.352 195.795 354.805C193.998 349.258 193.099 343.262 193.099 336.816C193.099 330.215 194.037 324.16 195.912 318.652C197.826 313.145 200.58 308.457 204.173 304.59C207.767 300.723 212.142 297.773 217.298 295.742C222.455 293.672 228.314 292.637 234.877 292.637ZM259.603 336.816C259.603 330.527 258.588 325.078 256.556 320.469C254.525 315.859 251.615 312.383 247.826 310.039C244.076 307.656 239.759 306.465 234.877 306.465C231.4 306.465 228.177 307.129 225.209 308.457C222.279 309.746 219.74 311.641 217.591 314.141C215.482 316.641 213.802 319.844 212.552 323.75C211.341 327.617 210.736 331.973 210.736 336.816C210.736 341.699 211.341 346.113 212.552 350.059C213.802 354.004 215.541 357.285 217.767 359.902C220.033 362.48 222.611 364.414 225.502 365.703C228.431 366.992 231.634 367.637 235.111 367.637C239.564 367.637 243.646 366.523 247.357 364.297C251.107 362.07 254.076 358.633 256.263 353.984C258.49 349.336 259.603 343.613 259.603 336.816ZM322.598 303.066L356.055 353.691V302.598C356.055 299.277 356.759 296.797 358.165 295.156C359.61 293.477 361.544 292.637 363.966 292.637C366.466 292.637 368.438 293.477 369.884 295.156C371.329 296.797 372.052 299.277 372.052 302.598V370.156C372.052 377.695 368.927 381.465 362.677 381.465C361.114 381.465 359.708 381.23 358.458 380.762C357.208 380.332 356.036 379.629 354.942 378.652C353.848 377.676 352.833 376.543 351.895 375.254C350.958 373.926 350.02 372.578 349.083 371.211L316.446 321.172V371.504C316.446 374.785 315.684 377.266 314.161 378.945C312.638 380.625 310.684 381.465 308.302 381.465C305.841 381.465 303.868 380.625 302.384 378.945C300.899 377.227 300.157 374.746 300.157 371.504V305.234C300.157 302.422 300.47 300.215 301.095 298.613C301.837 296.855 303.067 295.43 304.786 294.336C306.505 293.203 308.36 292.637 310.352 292.637C311.915 292.637 313.243 292.891 314.337 293.398C315.47 293.906 316.446 294.59 317.266 295.449C318.126 296.309 318.985 297.422 319.845 298.789C320.743 300.156 321.661 301.582 322.598 303.066Z" fill="white"/>
</g>
<defs>
<clipPath id="clip0">
<rect width="512" height="512" fill="white"/>
</clipPath>
</defs>
</svg>
