<svg width="512" height="512" viewBox="0 0 512 512" fill="none" xmlns="http://www.w3.org/2000/svg">
<g clip-path="url(#clip0)">
<path d="M95.5 485V433L96 239.5V25C101.6 5.4 118.333 0.5 126 0.5H352L479 128V330V489C472.2 506.6 458.167 511.667 452 512C347 511.833 135.8 511.6 131 512C125 512.5 118 510.5 108 504.5C100 499.7 96.3333 489.5 95.5 485Z" fill="#E2E5E7"/>
<path d="M479 223V128L466 115H450.5L373.5 117L479 223Z" fill="#CAD1D8"/>
<path d="M352 98V0.5L478.5 128H384.5C360.1 126.4 352.667 107.333 352 98Z" fill="#B0B7BD"/>
<path d="M97 402V447.5L402 448C412.4 446.8 415.667 438.5 416 434.5V402H97Z" fill="#CAD1D8"/>
<rect x="10" y="240" width="384" height="192" rx="16" fill="#576D7E"/>
<path d="M139.563 303.184V348.184C139.563 352.09 139.387 355.41 139.036 358.145C138.723 360.879 137.981 363.652 136.809 366.465C134.856 371.191 131.634 374.883 127.141 377.539C122.649 380.156 117.18 381.465 110.735 381.465C104.915 381.465 100.052 380.547 96.1453 378.711C92.2781 376.875 89.1531 373.906 86.7703 369.805C85.5203 367.617 84.5047 365.098 83.7234 362.246C82.9422 359.395 82.5516 356.68 82.5516 354.102C82.5516 351.367 83.3133 349.277 84.8367 347.832C86.3602 346.387 88.3133 345.664 90.6961 345.664C93.0008 345.664 94.7391 346.328 95.9109 347.656C97.0828 348.984 97.9812 351.055 98.6062 353.867C99.2703 356.875 99.9344 359.277 100.598 361.074C101.262 362.871 102.376 364.414 103.938 365.703C105.501 366.992 107.727 367.637 110.618 367.637C118.313 367.637 122.161 361.992 122.161 350.703V303.184C122.161 299.668 122.923 297.031 124.446 295.273C126.009 293.516 128.118 292.637 130.774 292.637C133.47 292.637 135.598 293.516 137.161 295.273C138.762 297.031 139.563 299.668 139.563 303.184ZM231.504 354.219C231.504 359.414 230.156 364.082 227.461 368.223C224.805 372.363 220.898 375.605 215.742 377.949C210.586 380.293 204.473 381.465 197.402 381.465C188.926 381.465 181.934 379.863 176.426 376.66C172.52 374.355 169.336 371.289 166.875 367.461C164.453 363.594 163.242 359.844 163.242 356.211C163.242 354.102 163.965 352.305 165.41 350.82C166.895 349.297 168.77 348.535 171.035 348.535C172.871 348.535 174.414 349.121 175.664 350.293C176.953 351.465 178.047 353.203 178.945 355.508C180.039 358.242 181.211 360.527 182.461 362.363C183.75 364.199 185.547 365.723 187.852 366.934C190.156 368.105 193.184 368.691 196.934 368.691C202.09 368.691 206.27 367.5 209.473 365.117C212.715 362.695 214.336 359.688 214.336 356.094C214.336 353.242 213.457 350.938 211.699 349.18C209.98 347.383 207.734 346.016 204.961 345.078C202.227 344.141 198.555 343.145 193.945 342.09C187.773 340.645 182.598 338.965 178.418 337.051C174.277 335.098 170.977 332.461 168.516 329.141C166.094 325.781 164.883 321.621 164.883 316.66C164.883 311.934 166.172 307.734 168.75 304.062C171.328 300.391 175.059 297.578 179.941 295.625C184.824 293.633 190.566 292.637 197.168 292.637C202.441 292.637 206.992 293.301 210.82 294.629C214.688 295.918 217.891 297.656 220.43 299.844C222.969 301.992 224.824 304.258 225.996 306.641C227.168 309.023 227.754 311.348 227.754 313.613C227.754 315.684 227.012 317.559 225.527 319.238C224.082 320.879 222.266 321.699 220.078 321.699C218.086 321.699 216.562 321.211 215.508 320.234C214.492 319.219 213.379 317.578 212.168 315.312C210.605 312.07 208.73 309.551 206.543 307.754C204.355 305.918 200.84 305 195.996 305C191.504 305 187.871 305.996 185.098 307.988C182.363 309.941 180.996 312.305 180.996 315.078C180.996 316.797 181.465 318.281 182.402 319.531C183.34 320.781 184.629 321.855 186.27 322.754C187.91 323.652 189.57 324.355 191.25 324.863C192.93 325.371 195.703 326.113 199.57 327.09C204.414 328.223 208.789 329.473 212.695 330.84C216.641 332.207 219.98 333.867 222.715 335.82C225.488 337.773 227.637 340.254 229.16 343.262C230.723 346.23 231.504 349.883 231.504 354.219ZM287.409 346.543H271.472V370.859C271.472 374.336 270.652 376.973 269.011 378.77C267.37 380.566 265.3 381.465 262.8 381.465C260.183 381.465 258.073 380.586 256.472 378.828C254.87 377.031 254.07 374.414 254.07 370.977V304.766C254.07 300.938 254.948 298.203 256.706 296.562C258.464 294.922 261.257 294.102 265.085 294.102H287.409C294.011 294.102 299.089 294.609 302.644 295.625C306.159 296.602 309.187 298.223 311.726 300.488C314.304 302.754 316.257 305.527 317.585 308.809C318.913 312.09 319.577 315.781 319.577 319.883C319.577 328.633 316.882 335.273 311.491 339.805C306.101 344.297 298.073 346.543 287.409 346.543ZM283.191 307.168H271.472V333.418H283.191C287.292 333.418 290.71 332.988 293.445 332.129C296.218 331.27 298.327 329.863 299.773 327.91C301.218 325.957 301.941 323.398 301.941 320.234C301.941 316.445 300.827 313.359 298.601 310.977C296.101 308.438 290.964 307.168 283.191 307.168Z" fill="white"/>
</g>
<defs>
<clipPath id="clip0">
<rect width="512" height="512" fill="white"/>
</clipPath>
</defs>
</svg>
