<svg width="512" height="512" viewBox="0 0 512 512" fill="none" xmlns="http://www.w3.org/2000/svg">
<g clip-path="url(#clip0)">
<path d="M95.5 485V433L96 239.5V25C101.6 5.4 118.333 0.5 126 0.5H352L479 128V330V489C472.2 506.6 458.167 511.667 452 512C347 511.833 135.8 511.6 131 512C125 512.5 118 510.5 108 504.5C100 499.7 96.3333 489.5 95.5 485Z" fill="#E2E5E7"/>
<path d="M479 223V128L466 115H450.5L373.5 117L479 223Z" fill="#CAD1D8"/>
<path d="M352 98V0.5L478.5 128H384.5C360.1 126.4 352.667 107.333 352 98Z" fill="#B0B7BD"/>
<path d="M97 402V447.5L402 448C412.4 446.8 415.667 438.5 416 434.5V402H97Z" fill="#CAD1D8"/>
<rect x="32" y="240" width="384" height="192" rx="16" fill="#84BD5A"/>
<path d="M120.161 304.184V334.301L154.321 298.676C155.962 296.957 157.348 295.688 158.481 294.867C159.653 294.047 161.196 293.637 163.11 293.637C165.61 293.637 167.622 294.379 169.145 295.863C170.708 297.309 171.489 299.086 171.489 301.195C171.489 303.734 170.18 306.254 167.563 308.754L146.411 328.793L170.786 363.715C172.505 366.137 173.794 368.266 174.653 370.102C175.512 371.898 175.942 373.656 175.942 375.375C175.942 377.289 175.18 378.949 173.657 380.355C172.173 381.762 170.141 382.465 167.563 382.465C165.141 382.465 163.169 381.957 161.645 380.941C160.122 379.887 158.833 378.5 157.778 376.781C156.723 375.062 155.786 373.5 154.966 372.094L134.399 340.453L120.161 354.105V371.859C120.161 375.453 119.341 378.129 117.7 379.887C116.059 381.605 113.95 382.465 111.372 382.465C109.887 382.465 108.462 382.074 107.095 381.293C105.727 380.512 104.673 379.457 103.93 378.129C103.384 377.035 103.052 375.766 102.934 374.32C102.817 372.875 102.759 370.785 102.759 368.051V304.184C102.759 300.668 103.52 298.031 105.044 296.273C106.606 294.516 108.716 293.637 111.372 293.637C113.989 293.637 116.098 294.516 117.7 296.273C119.341 297.992 120.161 300.629 120.161 304.184ZM255.871 308.52H216.672V329.613H252.766C255.422 329.613 257.395 330.219 258.684 331.43C260.012 332.602 260.676 334.164 260.676 336.117C260.676 338.07 260.031 339.672 258.742 340.922C257.453 342.133 255.461 342.738 252.766 342.738H216.672V367.172H257.219C259.953 367.172 262.004 367.816 263.371 369.105C264.777 370.355 265.48 372.035 265.48 374.145C265.48 376.176 264.777 377.836 263.371 379.125C262.004 380.375 259.953 381 257.219 381H209.934C206.145 381 203.41 380.16 201.73 378.48C200.09 376.801 199.27 374.086 199.27 370.336V305.766C199.27 303.266 199.641 301.234 200.383 299.672C201.125 298.07 202.277 296.918 203.84 296.215C205.441 295.473 207.473 295.102 209.934 295.102H255.871C258.645 295.102 260.695 295.727 262.023 296.977C263.391 298.188 264.074 299.789 264.074 301.781C264.074 303.812 263.391 305.453 262.023 306.703C260.695 307.914 258.645 308.52 255.871 308.52ZM306.269 371.859V344.613L285.292 312.094C283.456 309.164 282.148 306.879 281.366 305.238C280.624 303.598 280.253 302.172 280.253 300.961C280.253 298.969 281.015 297.25 282.538 295.805C284.101 294.359 286.015 293.637 288.28 293.637C290.663 293.637 292.46 294.32 293.671 295.688C294.921 297.016 296.777 299.691 299.238 303.715L315.292 329.789L331.523 303.715C332.499 302.113 333.32 300.766 333.984 299.672C334.648 298.578 335.37 297.562 336.152 296.625C336.972 295.648 337.87 294.906 338.847 294.398C339.823 293.891 341.015 293.637 342.421 293.637C344.609 293.637 346.425 294.359 347.87 295.805C349.355 297.211 350.097 298.852 350.097 300.727C350.097 302.25 349.726 303.773 348.984 305.297C348.241 306.82 346.972 308.93 345.175 311.625L323.671 344.613V371.859C323.671 375.414 322.851 378.07 321.21 379.828C319.57 381.586 317.48 382.465 314.941 382.465C312.363 382.465 310.273 381.605 308.671 379.887C307.07 378.129 306.269 375.453 306.269 371.859Z" fill="white"/>
</g>
<defs>
<clipPath id="clip0">
<rect width="512" height="512" fill="white"/>
</clipPath>
</defs>
</svg>
