<svg width="512" height="512" viewBox="0 0 512 512" fill="none" xmlns="http://www.w3.org/2000/svg">
<g clip-path="url(#clip0)">
<path d="M95.5 485V433L96 239.5V25C101.6 5.4 118.333 0.5 126 0.5H352L479 128V330V489C472.2 506.6 458.167 511.667 452 512C347 511.833 135.8 511.6 131 512C125 512.5 118 510.5 108 504.5C100 499.7 96.3333 489.5 95.5 485Z" fill="#E2E5E7"/>
<path d="M479 223V128L466 115H450.5L373.5 117L479 223Z" fill="#CAD1D8"/>
<path d="M352 98V0.5L478.5 128H384.5C360.1 126.4 352.667 107.333 352 98Z" fill="#B0B7BD"/>
<path d="M97 402V447.5L402 448C412.4 446.8 415.667 438.5 416 434.5V402H97Z" fill="#CAD1D8"/>
<rect x="32" y="240" width="384" height="192" rx="16" fill="#84BD5A"/>
<path d="M155.941 267.789V287.867L178.714 264.117C179.808 262.971 180.732 262.125 181.488 261.578C182.269 261.031 183.297 260.758 184.573 260.758C186.24 260.758 187.581 261.253 188.597 262.242C189.639 263.206 190.159 264.391 190.159 265.797C190.159 267.49 189.287 269.169 187.542 270.836L173.441 284.195L189.691 307.477C190.836 309.091 191.696 310.51 192.269 311.734C192.842 312.932 193.128 314.104 193.128 315.25C193.128 316.526 192.62 317.633 191.605 318.57C190.615 319.508 189.261 319.977 187.542 319.977C185.928 319.977 184.613 319.638 183.597 318.961C182.581 318.258 181.722 317.333 181.019 316.188C180.316 315.042 179.691 314 179.144 313.062L165.433 291.969L155.941 301.07V312.906C155.941 315.302 155.394 317.086 154.3 318.258C153.206 319.404 151.8 319.977 150.081 319.977C149.092 319.977 148.141 319.716 147.23 319.195C146.318 318.674 145.615 317.971 145.12 317.086C144.756 316.357 144.534 315.51 144.456 314.547C144.378 313.583 144.339 312.19 144.339 310.367V267.789C144.339 265.445 144.847 263.688 145.863 262.516C146.904 261.344 148.31 260.758 150.081 260.758C151.826 260.758 153.232 261.344 154.3 262.516C155.394 263.661 155.941 265.419 155.941 267.789ZM246.414 270.68H220.281V284.742H244.344C246.115 284.742 247.43 285.146 248.289 285.953C249.174 286.734 249.617 287.776 249.617 289.078C249.617 290.38 249.188 291.448 248.328 292.281C247.469 293.089 246.141 293.492 244.344 293.492H220.281V309.781H247.312C249.135 309.781 250.503 310.211 251.414 311.07C252.352 311.904 252.82 313.023 252.82 314.43C252.82 315.784 252.352 316.891 251.414 317.75C250.503 318.583 249.135 319 247.312 319H215.789C213.263 319 211.44 318.44 210.32 317.32C209.227 316.201 208.68 314.391 208.68 311.891V268.844C208.68 267.177 208.927 265.823 209.422 264.781C209.917 263.714 210.685 262.945 211.727 262.477C212.794 261.982 214.148 261.734 215.789 261.734H246.414C248.263 261.734 249.63 262.151 250.516 262.984C251.427 263.792 251.883 264.859 251.883 266.188C251.883 267.542 251.427 268.635 250.516 269.469C249.63 270.276 248.263 270.68 246.414 270.68ZM280.013 312.906V294.742L266.028 273.062C264.804 271.109 263.932 269.586 263.411 268.492C262.916 267.398 262.669 266.448 262.669 265.641C262.669 264.312 263.177 263.167 264.192 262.203C265.234 261.24 266.51 260.758 268.02 260.758C269.609 260.758 270.807 261.214 271.614 262.125C272.447 263.01 273.684 264.794 275.325 267.477L286.028 284.859L296.848 267.477C297.499 266.409 298.046 265.51 298.489 264.781C298.932 264.052 299.414 263.375 299.934 262.75C300.481 262.099 301.08 261.604 301.731 261.266C302.382 260.927 303.177 260.758 304.114 260.758C305.572 260.758 306.783 261.24 307.747 262.203C308.736 263.141 309.231 264.234 309.231 265.484C309.231 266.5 308.984 267.516 308.489 268.531C307.994 269.547 307.148 270.953 305.95 272.75L291.614 294.742V312.906C291.614 315.276 291.067 317.047 289.973 318.219C288.88 319.391 287.486 319.977 285.794 319.977C284.075 319.977 282.682 319.404 281.614 318.258C280.546 317.086 280.013 315.302 280.013 312.906ZM137.42 393.914C137.42 395.737 136.965 397.716 136.053 399.852C135.168 401.961 133.761 404.044 131.834 406.102C129.907 408.133 127.446 409.786 124.452 411.062C121.457 412.339 117.967 412.977 113.983 412.977C110.962 412.977 108.215 412.69 105.741 412.117C103.267 411.544 101.014 410.659 98.9828 409.461C96.9776 408.237 95.1287 406.635 93.4359 404.656C91.9255 402.859 90.6365 400.854 89.5688 398.641C88.501 396.401 87.6938 394.018 87.1469 391.492C86.626 388.966 86.3656 386.284 86.3656 383.445C86.3656 378.836 87.0297 374.708 88.3578 371.062C89.712 367.417 91.6391 364.305 94.1391 361.727C96.6391 359.122 99.5688 357.143 102.928 355.789C106.288 354.435 109.868 353.758 113.67 353.758C118.306 353.758 122.433 354.682 126.053 356.531C129.673 358.38 132.446 360.672 134.373 363.406C136.301 366.115 137.264 368.68 137.264 371.102C137.264 372.43 136.795 373.602 135.858 374.617C134.92 375.633 133.788 376.141 132.459 376.141C130.975 376.141 129.855 375.789 129.1 375.086C128.371 374.383 127.551 373.172 126.639 371.453C125.129 368.615 123.345 366.492 121.288 365.086C119.256 363.68 116.743 362.977 113.748 362.977C108.983 362.977 105.181 364.786 102.342 368.406C99.5297 372.026 98.1234 377.169 98.1234 383.836C98.1234 388.289 98.7484 392 99.9984 394.969C101.248 397.911 103.019 400.112 105.311 401.57C107.603 403.029 110.285 403.758 113.358 403.758C116.691 403.758 119.504 402.938 121.795 401.297C124.113 399.63 125.858 397.195 127.03 393.992C127.524 392.482 128.136 391.258 128.866 390.32C129.595 389.357 130.767 388.875 132.381 388.875C133.761 388.875 134.946 389.357 135.936 390.32C136.926 391.284 137.42 392.482 137.42 393.914ZM164.73 360.789V377.195H189.769V360.789C189.769 358.445 190.29 356.688 191.331 355.516C192.399 354.344 193.792 353.758 195.511 353.758C197.256 353.758 198.662 354.344 199.73 355.516C200.823 356.661 201.37 358.419 201.37 360.789V405.906C201.37 408.276 200.823 410.047 199.73 411.219C198.636 412.391 197.23 412.977 195.511 412.977C193.766 412.977 192.373 412.391 191.331 411.219C190.29 410.021 189.769 408.25 189.769 405.906V386.648H164.73V405.906C164.73 408.276 164.183 410.047 163.089 411.219C161.995 412.391 160.589 412.977 158.87 412.977C157.126 412.977 155.732 412.391 154.691 411.219C153.649 410.021 153.128 408.25 153.128 405.906V360.789C153.128 358.445 153.636 356.688 154.652 355.516C155.693 354.344 157.099 353.758 158.87 353.758C160.615 353.758 162.021 354.344 163.089 355.516C164.183 356.661 164.73 358.419 164.73 360.789ZM255.672 405.516L252.938 398.328H229.656L226.922 405.672C225.854 408.536 224.943 410.477 224.188 411.492C223.432 412.482 222.195 412.977 220.477 412.977C219.018 412.977 217.729 412.443 216.609 411.375C215.49 410.307 214.93 409.096 214.93 407.742C214.93 406.961 215.06 406.154 215.32 405.32C215.581 404.487 216.01 403.328 216.609 401.844L231.258 364.656C231.674 363.589 232.169 362.312 232.742 360.828C233.341 359.318 233.966 358.068 234.617 357.078C235.294 356.089 236.167 355.294 237.234 354.695C238.328 354.07 239.669 353.758 241.258 353.758C242.872 353.758 244.214 354.07 245.281 354.695C246.375 355.294 247.247 356.076 247.898 357.039C248.576 358.003 249.135 359.044 249.578 360.164C250.047 361.258 250.633 362.729 251.336 364.578L266.297 401.531C267.469 404.344 268.055 406.388 268.055 407.664C268.055 408.992 267.495 410.216 266.375 411.336C265.281 412.43 263.953 412.977 262.391 412.977C261.479 412.977 260.698 412.807 260.047 412.469C259.396 412.156 258.849 411.727 258.406 411.18C257.964 410.607 257.482 409.747 256.961 408.602C256.466 407.43 256.036 406.401 255.672 405.516ZM232.703 389.617H249.812L241.18 365.984L232.703 389.617ZM282.278 405.906V360.789C282.278 358.445 282.812 356.688 283.88 355.516C284.947 354.344 286.328 353.758 288.02 353.758C289.765 353.758 291.171 354.344 292.239 355.516C293.333 356.661 293.88 358.419 293.88 360.789V405.906C293.88 408.276 293.333 410.047 292.239 411.219C291.171 412.391 289.765 412.977 288.02 412.977C286.354 412.977 284.973 412.391 283.88 411.219C282.812 410.021 282.278 408.25 282.278 405.906ZM327.205 360.711L349.509 394.461V360.398C349.509 358.185 349.978 356.531 350.916 355.438C351.879 354.318 353.168 353.758 354.783 353.758C356.449 353.758 357.765 354.318 358.728 355.438C359.692 356.531 360.173 358.185 360.173 360.398V405.438C360.173 410.464 358.09 412.977 353.923 412.977C352.882 412.977 351.944 412.82 351.111 412.508C350.278 412.221 349.496 411.753 348.767 411.102C348.038 410.451 347.361 409.695 346.736 408.836C346.111 407.951 345.486 407.052 344.861 406.141L323.103 372.781V406.336C323.103 408.523 322.595 410.177 321.58 411.297C320.564 412.417 319.262 412.977 317.673 412.977C316.033 412.977 314.718 412.417 313.728 411.297C312.739 410.151 312.244 408.497 312.244 406.336V362.156C312.244 360.281 312.452 358.81 312.869 357.742C313.364 356.57 314.184 355.62 315.33 354.891C316.476 354.135 317.713 353.758 319.041 353.758C320.082 353.758 320.968 353.927 321.697 354.266C322.452 354.604 323.103 355.06 323.65 355.633C324.223 356.206 324.796 356.948 325.369 357.859C325.968 358.771 326.58 359.721 327.205 360.711Z" fill="white"/>
</g>
<defs>
<clipPath id="clip0">
<rect width="512" height="512" fill="white"/>
</clipPath>
</defs>
</svg>
