<svg width="512" height="512" viewBox="0 0 512 512" fill="none" xmlns="http://www.w3.org/2000/svg">
<g clip-path="url(#clip0)">
<path d="M95.5 485V433L96 239.5V25C101.6 5.4 118.333 0.5 126 0.5H352L479 128V330V489C472.2 506.6 458.167 511.667 452 512C347 511.833 135.8 511.6 131 512C125 512.5 118 510.5 108 504.5C100 499.7 96.3333 489.5 95.5 485Z" fill="#E2E5E7"/>
<path d="M479 223V128L466 115H450.5L373.5 117L479 223Z" fill="#CAD1D8"/>
<path d="M352 98V0.5L478.5 128H384.5C360.1 126.4 352.667 107.333 352 98Z" fill="#B0B7BD"/>
<path d="M97 402V447.5L402 448C412.4 446.8 415.667 438.5 416 434.5V402H97Z" fill="#CAD1D8"/>
<rect x="32" y="240" width="384" height="192" rx="16" fill="#84BD5A"/>
<path d="M111.93 304.184V334.301L146.091 298.676C147.731 296.957 149.118 295.688 150.251 294.867C151.423 294.047 152.966 293.637 154.88 293.637C157.38 293.637 159.391 294.379 160.915 295.863C162.477 297.309 163.259 299.086 163.259 301.195C163.259 303.734 161.95 306.254 159.333 308.754L138.18 328.793L162.555 363.715C164.274 366.137 165.563 368.266 166.423 370.102C167.282 371.898 167.712 373.656 167.712 375.375C167.712 377.289 166.95 378.949 165.427 380.355C163.942 381.762 161.911 382.465 159.333 382.465C156.911 382.465 154.938 381.957 153.415 380.941C151.891 379.887 150.602 378.5 149.548 376.781C148.493 375.062 147.555 373.5 146.735 372.094L126.169 340.453L111.93 354.105V371.859C111.93 375.453 111.11 378.129 109.47 379.887C107.829 381.605 105.72 382.465 103.141 382.465C101.657 382.465 100.231 382.074 98.8641 381.293C97.4969 380.512 96.4422 379.457 95.7 378.129C95.1531 377.035 94.8211 375.766 94.7039 374.32C94.5867 372.875 94.5281 370.785 94.5281 368.051V304.184C94.5281 300.668 95.2898 298.031 96.8133 296.273C98.3758 294.516 100.485 293.637 103.141 293.637C105.759 293.637 107.868 294.516 109.47 296.273C111.11 297.992 111.93 300.629 111.93 304.184ZM220.043 368.051L206.273 313.324V372.621C206.273 375.902 205.531 378.363 204.047 380.004C202.602 381.645 200.668 382.465 198.246 382.465C195.902 382.465 193.988 381.664 192.504 380.062C191.02 378.422 190.277 375.941 190.277 372.621V304.652C190.277 300.902 191.254 298.383 193.207 297.094C195.16 295.766 197.797 295.102 201.117 295.102H206.508C209.75 295.102 212.094 295.395 213.539 295.98C215.023 296.566 216.117 297.621 216.82 299.145C217.523 300.668 218.324 303.148 219.223 306.586L231.703 353.637L244.184 306.586C245.082 303.148 245.883 300.668 246.586 299.145C247.289 297.621 248.363 296.566 249.809 295.98C251.293 295.395 253.656 295.102 256.898 295.102H262.289C265.609 295.102 268.246 295.766 270.199 297.094C272.152 298.383 273.129 300.902 273.129 304.652V372.621C273.129 375.902 272.387 378.363 270.902 380.004C269.457 381.645 267.504 382.465 265.043 382.465C262.738 382.465 260.844 381.645 259.359 380.004C257.875 378.363 257.133 375.902 257.133 372.621V313.324L243.363 368.051C242.465 371.605 241.723 374.223 241.137 375.902C240.59 377.543 239.555 379.047 238.031 380.414C236.508 381.781 234.398 382.465 231.703 382.465C229.672 382.465 227.953 382.016 226.547 381.117C225.141 380.258 224.047 379.145 223.266 377.777C222.484 376.41 221.859 374.906 221.391 373.266C220.961 371.586 220.512 369.848 220.043 368.051ZM315.851 304.184V366.703H351.124C353.937 366.703 356.085 367.387 357.57 368.754C359.093 370.121 359.855 371.84 359.855 373.91C359.855 376.02 359.113 377.738 357.628 379.066C356.144 380.355 353.976 381 351.124 381H309.113C305.323 381 302.589 380.16 300.909 378.48C299.269 376.801 298.448 374.086 298.448 370.336V304.184C298.448 300.668 299.23 298.031 300.792 296.273C302.394 294.516 304.484 293.637 307.062 293.637C309.679 293.637 311.788 294.516 313.39 296.273C315.03 297.992 315.851 300.629 315.851 304.184Z" fill="white"/>
</g>
<defs>
<clipPath id="clip0">
<rect width="512" height="512" fill="white"/>
</clipPath>
</defs>
</svg>
