<svg width="512" height="512" viewBox="0 0 512 512" fill="none" xmlns="http://www.w3.org/2000/svg">
<g clip-path="url(#clip0)">
<path d="M95.5 485V433L96 239.5V25C101.6 5.4 118.333 0.5 126 0.5H352L479 128V330V489C472.2 506.6 458.167 511.667 452 512C347 511.833 135.8 511.6 131 512C125 512.5 118 510.5 108 504.5C100 499.7 96.3333 489.5 95.5 485Z" fill="#E2E5E7"/>
<path d="M479 223V128L466 115H450.5L373.5 117L479 223Z" fill="#CAD1D8"/>
<path d="M352 98V0.5L478.5 128H384.5C360.1 126.4 352.667 107.333 352 98Z" fill="#B0B7BD"/>
<path d="M97 402V447.5L402 448C412.4 446.8 415.667 438.5 416 434.5V402H97Z" fill="#CAD1D8"/>
<rect x="32" y="240" width="384" height="192" rx="16" fill="#84BD5A"/>
<path d="M108.911 304.184V334.301L143.071 298.676C144.712 296.957 146.098 295.688 147.231 294.867C148.403 294.047 149.946 293.637 151.86 293.637C154.36 293.637 156.372 294.379 157.895 295.863C159.458 297.309 160.239 299.086 160.239 301.195C160.239 303.734 158.93 306.254 156.313 308.754L135.161 328.793L159.536 363.715C161.255 366.137 162.544 368.266 163.403 370.102C164.262 371.898 164.692 373.656 164.692 375.375C164.692 377.289 163.93 378.949 162.407 380.355C160.923 381.762 158.891 382.465 156.313 382.465C153.891 382.465 151.919 381.957 150.395 380.941C148.872 379.887 147.583 378.5 146.528 376.781C145.473 375.062 144.536 373.5 143.716 372.094L123.149 340.453L108.911 354.105V371.859C108.911 375.453 108.091 378.129 106.45 379.887C104.809 381.605 102.7 382.465 100.122 382.465C98.6375 382.465 97.2117 382.074 95.8445 381.293C94.4773 380.512 93.4227 379.457 92.6805 378.129C92.1336 377.035 91.8016 375.766 91.6844 374.32C91.5672 372.875 91.5086 370.785 91.5086 368.051V304.184C91.5086 300.668 92.2703 298.031 93.7937 296.273C95.3562 294.516 97.4656 293.637 100.122 293.637C102.739 293.637 104.848 294.516 106.45 296.273C108.091 297.992 108.911 300.629 108.911 304.184ZM217.023 368.051L203.254 313.324V372.621C203.254 375.902 202.512 378.363 201.027 380.004C199.582 381.645 197.648 382.465 195.227 382.465C192.883 382.465 190.969 381.664 189.484 380.062C188 378.422 187.258 375.941 187.258 372.621V304.652C187.258 300.902 188.234 298.383 190.188 297.094C192.141 295.766 194.777 295.102 198.098 295.102H203.488C206.73 295.102 209.074 295.395 210.52 295.98C212.004 296.566 213.098 297.621 213.801 299.145C214.504 300.668 215.305 303.148 216.203 306.586L228.684 353.637L241.164 306.586C242.062 303.148 242.863 300.668 243.566 299.145C244.27 297.621 245.344 296.566 246.789 295.98C248.273 295.395 250.637 295.102 253.879 295.102H259.27C262.59 295.102 265.227 295.766 267.18 297.094C269.133 298.383 270.109 300.902 270.109 304.652V372.621C270.109 375.902 269.367 378.363 267.883 380.004C266.438 381.645 264.484 382.465 262.023 382.465C259.719 382.465 257.824 381.645 256.34 380.004C254.855 378.363 254.113 375.902 254.113 372.621V313.324L240.344 368.051C239.445 371.605 238.703 374.223 238.117 375.902C237.57 377.543 236.535 379.047 235.012 380.414C233.488 381.781 231.379 382.465 228.684 382.465C226.652 382.465 224.934 382.016 223.527 381.117C222.121 380.258 221.027 379.145 220.246 377.777C219.465 376.41 218.84 374.906 218.371 373.266C217.941 371.586 217.492 369.848 217.023 368.051ZM293.495 360.961L337.616 308.168H299.706C297.05 308.168 295.038 307.582 293.671 306.41C292.343 305.238 291.679 303.695 291.679 301.781C291.679 299.789 292.343 298.188 293.671 296.977C295.038 295.727 297.05 295.102 299.706 295.102H348.573C354.902 295.102 358.066 298.051 358.066 303.949C358.066 306.762 357.538 309.008 356.484 310.688C355.429 312.367 353.3 315.082 350.097 318.832L308.847 367.934H354.316C357.011 367.934 359.023 368.5 360.351 369.633C361.679 370.727 362.343 372.27 362.343 374.262C362.343 376.332 361.679 377.973 360.351 379.184C359.023 380.395 357.011 381 354.316 381H298.534C294.745 381 291.894 380.16 289.98 378.48C288.066 376.762 287.109 374.477 287.109 371.625C287.109 370.648 287.265 369.75 287.577 368.93C287.89 368.109 288.3 367.348 288.808 366.645C289.355 365.902 290.097 364.984 291.034 363.891C291.972 362.758 292.792 361.781 293.495 360.961Z" fill="white"/>
</g>
<defs>
<clipPath id="clip0">
<rect width="512" height="512" fill="white"/>
</clipPath>
</defs>
</svg>
