<svg width="512" height="512" viewBox="0 0 512 512" fill="none" xmlns="http://www.w3.org/2000/svg">
<g clip-path="url(#clip0)">
<path d="M95.5 485V433L96 239.5V25C101.6 5.4 118.333 0.5 126 0.5H352L479 128V330V489C472.2 506.6 458.167 511.667 452 512C347 511.833 135.8 511.6 131 512C125 512.5 118 510.5 108 504.5C100 499.7 96.3333 489.5 95.5 485Z" fill="#E2E5E7"/>
<path d="M479 223V128L466 115H450.5L373.5 117L479 223Z" fill="#CAD1D8"/>
<path d="M352 98V0.5L478.5 128H384.5C360.1 126.4 352.667 107.333 352 98Z" fill="#B0B7BD"/>
<path d="M97 402V447.5L402 448C412.4 446.8 415.667 438.5 416 434.5V402H97Z" fill="#CAD1D8"/>
<rect x="32" y="240" width="384" height="192" rx="16" fill="#50BEE8"/>
<path d="M115.856 304.184V366.703H151.13C153.942 366.703 156.091 367.387 157.575 368.754C159.098 370.121 159.86 371.84 159.86 373.91C159.86 376.02 159.118 377.738 157.634 379.066C156.149 380.355 153.981 381 151.13 381H109.118C105.329 381 102.595 380.16 100.915 378.48C99.2742 376.801 98.4539 374.086 98.4539 370.336V304.184C98.4539 300.668 99.2352 298.031 100.798 296.273C102.399 294.516 104.489 293.637 107.067 293.637C109.684 293.637 111.794 294.516 113.395 296.273C115.036 297.992 115.856 300.629 115.856 304.184ZM201.82 304.066L235.277 354.691V303.598C235.277 300.277 235.98 297.797 237.387 296.156C238.832 294.477 240.766 293.637 243.188 293.637C245.688 293.637 247.66 294.477 249.105 296.156C250.551 297.797 251.273 300.277 251.273 303.598V371.156C251.273 378.695 248.148 382.465 241.898 382.465C240.336 382.465 238.93 382.23 237.68 381.762C236.43 381.332 235.258 380.629 234.164 379.652C233.07 378.676 232.055 377.543 231.117 376.254C230.18 374.926 229.242 373.578 228.305 372.211L195.668 322.172V372.504C195.668 375.785 194.906 378.266 193.383 379.945C191.859 381.625 189.906 382.465 187.523 382.465C185.062 382.465 183.09 381.625 181.605 379.945C180.121 378.227 179.379 375.746 179.379 372.504V306.234C179.379 303.422 179.691 301.215 180.316 299.613C181.059 297.855 182.289 296.43 184.008 295.336C185.727 294.203 187.582 293.637 189.574 293.637C191.137 293.637 192.465 293.891 193.559 294.398C194.691 294.906 195.668 295.59 196.488 296.449C197.348 297.309 198.207 298.422 199.066 299.789C199.965 301.156 200.883 302.582 201.82 304.066ZM295.636 304.184V334.301L329.796 298.676C331.437 296.957 332.823 295.688 333.956 294.867C335.128 294.047 336.671 293.637 338.585 293.637C341.085 293.637 343.097 294.379 344.62 295.863C346.183 297.309 346.964 299.086 346.964 301.195C346.964 303.734 345.655 306.254 343.038 308.754L321.886 328.793L346.261 363.715C347.98 366.137 349.269 368.266 350.128 370.102C350.988 371.898 351.417 373.656 351.417 375.375C351.417 377.289 350.655 378.949 349.132 380.355C347.648 381.762 345.616 382.465 343.038 382.465C340.616 382.465 338.644 381.957 337.12 380.941C335.597 379.887 334.308 378.5 333.253 376.781C332.198 375.062 331.261 373.5 330.441 372.094L309.874 340.453L295.636 354.105V371.859C295.636 375.453 294.816 378.129 293.175 379.887C291.534 381.605 289.425 382.465 286.847 382.465C285.363 382.465 283.937 382.074 282.57 381.293C281.202 380.512 280.148 379.457 279.405 378.129C278.859 377.035 278.527 375.766 278.409 374.32C278.292 372.875 278.234 370.785 278.234 368.051V304.184C278.234 300.668 278.995 298.031 280.519 296.273C282.081 294.516 284.191 293.637 286.847 293.637C289.464 293.637 291.573 294.516 293.175 296.273C294.816 297.992 295.636 300.629 295.636 304.184Z" fill="white"/>
</g>
<defs>
<clipPath id="clip0">
<rect width="512" height="512" fill="white"/>
</clipPath>
</defs>
</svg>
