<svg width="512" height="512" viewBox="0 0 512 512" fill="none" xmlns="http://www.w3.org/2000/svg">
<g clip-path="url(#clip0)">
<path d="M95.5 485V433L96 239.5V25C101.6 5.4 118.333 0.5 126 0.5H352L479 128V330V489C472.2 506.6 458.167 511.667 452 512C347 511.833 135.8 511.6 131 512C125 512.5 118 510.5 108 504.5C100 499.7 96.3333 489.5 95.5 485Z" fill="#E2E5E7"/>
<path d="M479 223V128L466 115H450.5L373.5 117L479 223Z" fill="#CAD1D8"/>
<path d="M352 98V0.5L478.5 128H384.5C360.1 126.4 352.667 107.333 352 98Z" fill="#B0B7BD"/>
<path d="M97 402V447.5L402 448C412.4 446.8 415.667 438.5 416 434.5V402H97Z" fill="#CAD1D8"/>
<rect x="32" y="240" width="384" height="192" rx="16" fill="#50BEE8"/>
<path d="M113.805 304.184V366.703H149.079C151.891 366.703 154.04 367.387 155.524 368.754C157.048 370.121 157.809 371.84 157.809 373.91C157.809 376.02 157.067 377.738 155.583 379.066C154.098 380.355 151.93 381 149.079 381H107.067C103.278 381 100.544 380.16 98.8641 378.48C97.2234 376.801 96.4031 374.086 96.4031 370.336V304.184C96.4031 300.668 97.1844 298.031 98.7469 296.273C100.348 294.516 102.438 293.637 105.016 293.637C107.634 293.637 109.743 294.516 111.345 296.273C112.985 297.992 113.805 300.629 113.805 304.184ZM208.91 293.637C217.816 293.637 225.453 295.453 231.82 299.086C238.227 302.68 243.07 307.816 246.352 314.496C249.633 321.137 251.273 328.949 251.273 337.934C251.273 344.574 250.375 350.609 248.578 356.039C246.781 361.469 244.086 366.176 240.492 370.16C236.898 374.145 232.484 377.191 227.25 379.301C222.016 381.41 216.02 382.465 209.262 382.465C202.543 382.465 196.527 381.391 191.215 379.242C185.902 377.055 181.469 373.988 177.914 370.043C174.359 366.098 171.664 361.352 169.828 355.805C168.031 350.258 167.133 344.262 167.133 337.816C167.133 331.215 168.07 325.16 169.945 319.652C171.859 314.145 174.613 309.457 178.207 305.59C181.801 301.723 186.176 298.773 191.332 296.742C196.488 294.672 202.348 293.637 208.91 293.637ZM233.637 337.816C233.637 331.527 232.621 326.078 230.59 321.469C228.559 316.859 225.648 313.383 221.859 311.039C218.109 308.656 213.793 307.465 208.91 307.465C205.434 307.465 202.211 308.129 199.242 309.457C196.312 310.746 193.773 312.641 191.625 315.141C189.516 317.641 187.836 320.844 186.586 324.75C185.375 328.617 184.77 332.973 184.77 337.816C184.77 342.699 185.375 347.113 186.586 351.059C187.836 355.004 189.574 358.285 191.801 360.902C194.066 363.48 196.645 365.414 199.535 366.703C202.465 367.992 205.668 368.637 209.145 368.637C213.598 368.637 217.68 367.523 221.391 365.297C225.141 363.07 228.109 359.633 230.297 354.984C232.523 350.336 233.637 344.613 233.637 337.816ZM352.413 346.078V362.543C352.413 364.73 352.198 366.488 351.769 367.816C351.339 369.105 350.538 370.277 349.366 371.332C348.234 372.387 346.769 373.402 344.972 374.379C339.777 377.191 334.777 379.242 329.972 380.531C325.167 381.82 319.933 382.465 314.269 382.465C307.667 382.465 301.652 381.449 296.222 379.418C290.792 377.387 286.163 374.438 282.335 370.57C278.507 366.703 275.558 362.016 273.488 356.508C271.456 351 270.441 344.848 270.441 338.051C270.441 331.371 271.437 325.258 273.429 319.711C275.421 314.164 278.351 309.457 282.218 305.59C286.085 301.723 290.792 298.773 296.339 296.742C301.886 294.672 308.175 293.637 315.206 293.637C320.988 293.637 326.105 294.418 330.558 295.98C335.011 297.504 338.624 299.438 341.398 301.781C344.171 304.125 346.261 306.605 347.667 309.223C349.073 311.84 349.777 314.164 349.777 316.195C349.777 318.383 348.956 320.258 347.316 321.82C345.714 323.344 343.78 324.105 341.515 324.105C340.265 324.105 339.054 323.812 337.882 323.227C336.749 322.641 335.792 321.82 335.011 320.766C332.863 317.406 331.046 314.867 329.562 313.148C328.077 311.43 326.066 309.984 323.527 308.812C321.027 307.641 317.823 307.055 313.917 307.055C309.894 307.055 306.3 307.758 303.136 309.164C299.972 310.531 297.257 312.543 294.991 315.199C292.765 317.816 291.046 321.039 289.835 324.867C288.663 328.695 288.077 332.934 288.077 337.582C288.077 347.66 290.382 355.414 294.991 360.844C299.64 366.273 306.105 368.988 314.386 368.988C318.409 368.988 322.179 368.461 325.695 367.406C329.249 366.352 332.843 364.848 336.476 362.895V348.949H322.999C319.757 348.949 317.296 348.461 315.616 347.484C313.976 346.508 313.155 344.848 313.155 342.504C313.155 340.59 313.839 339.008 315.206 337.758C316.613 336.508 318.507 335.883 320.89 335.883H340.636C343.058 335.883 345.109 336.098 346.788 336.527C348.468 336.957 349.816 337.914 350.831 339.398C351.886 340.883 352.413 343.109 352.413 346.078Z" fill="white"/>
</g>
<defs>
<clipPath id="clip0">
<rect width="512" height="512" fill="white"/>
</clipPath>
</defs>
</svg>
