<svg width="512" height="512" viewBox="0 0 512 512" fill="none" xmlns="http://www.w3.org/2000/svg">
<g clip-path="url(#clip0)">
<path d="M95.5 485V433L96 239.5V25C101.6 5.4 118.333 0.5 126 0.5H352L479 128V330V489C472.2 506.6 458.167 511.667 452 512C347 511.833 135.8 511.6 131 512C125 512.5 118 510.5 108 504.5C100 499.7 96.3333 489.5 95.5 485Z" fill="#E2E5E7"/>
<path d="M479 223V128L466 115H450.5L373.5 117L479 223Z" fill="#CAD1D8"/>
<path d="M352 98V0.5L478.5 128H384.5C360.1 126.4 352.667 107.333 352 98Z" fill="#B0B7BD"/>
<path d="M97 402V447.5L402 448C412.4 446.8 415.667 438.5 416 434.5V402H97Z" fill="#CAD1D8"/>
<rect x="32" y="240" width="384" height="192" rx="16" fill="#50BEE8"/>
<path d="M122.563 304.184V366.703H157.837C160.649 366.703 162.798 367.387 164.282 368.754C165.805 370.121 166.567 371.84 166.567 373.91C166.567 376.02 165.825 377.738 164.341 379.066C162.856 380.355 160.688 381 157.837 381H115.825C112.036 381 109.302 380.16 107.622 378.48C105.981 376.801 105.161 374.086 105.161 370.336V304.184C105.161 300.668 105.942 298.031 107.505 296.273C109.106 294.516 111.196 293.637 113.774 293.637C116.391 293.637 118.501 294.516 120.102 296.273C121.743 297.992 122.563 300.629 122.563 304.184ZM179.992 345.492V304.184C179.992 300.668 180.773 298.031 182.336 296.273C183.938 294.516 186.027 293.637 188.605 293.637C191.301 293.637 193.43 294.516 194.992 296.273C196.594 298.031 197.395 300.668 197.395 304.184V346.43C197.395 351.234 197.922 355.258 198.977 358.5C200.07 361.703 201.984 364.203 204.719 366C207.453 367.758 211.281 368.637 216.203 368.637C223 368.637 227.805 366.84 230.617 363.246C233.43 359.613 234.836 354.125 234.836 346.781V304.184C234.836 300.629 235.617 297.992 237.18 296.273C238.742 294.516 240.832 293.637 243.449 293.637C246.066 293.637 248.176 294.516 249.777 296.273C251.418 297.992 252.238 300.629 252.238 304.184V345.492C252.238 352.211 251.574 357.816 250.246 362.309C248.957 366.801 246.496 370.746 242.863 374.145C239.738 377.035 236.105 379.145 231.965 380.473C227.824 381.801 222.98 382.465 217.434 382.465C210.832 382.465 205.148 381.762 200.383 380.355C195.617 378.91 191.73 376.703 188.723 373.734C185.715 370.727 183.508 366.898 182.102 362.25C180.695 357.562 179.992 351.977 179.992 345.492ZM327.831 371.273L323.73 360.492H288.808L284.706 371.508C283.105 375.805 281.738 378.715 280.605 380.238C279.472 381.723 277.616 382.465 275.038 382.465C272.851 382.465 270.917 381.664 269.238 380.062C267.558 378.461 266.718 376.645 266.718 374.613C266.718 373.441 266.913 372.23 267.304 370.98C267.695 369.73 268.339 367.992 269.238 365.766L291.21 309.984C291.835 308.383 292.577 306.469 293.437 304.242C294.335 301.977 295.273 300.102 296.249 298.617C297.265 297.133 298.573 295.941 300.175 295.043C301.816 294.105 303.827 293.637 306.21 293.637C308.632 293.637 310.644 294.105 312.245 295.043C313.886 295.941 315.195 297.113 316.171 298.559C317.187 300.004 318.027 301.566 318.691 303.246C319.394 304.887 320.273 307.094 321.327 309.867L343.769 365.297C345.527 369.516 346.405 372.582 346.405 374.496C346.405 376.488 345.566 378.324 343.886 380.004C342.245 381.645 340.253 382.465 337.909 382.465C336.542 382.465 335.37 382.211 334.394 381.703C333.417 381.234 332.597 380.59 331.933 379.77C331.269 378.91 330.546 377.621 329.765 375.902C329.023 374.145 328.378 372.602 327.831 371.273ZM293.378 347.426H319.042L306.093 311.977L293.378 347.426Z" fill="white"/>
</g>
<defs>
<clipPath id="clip0">
<rect width="512" height="512" fill="white"/>
</clipPath>
</defs>
</svg>
