<svg width="512" height="512" viewBox="0 0 512 512" fill="none" xmlns="http://www.w3.org/2000/svg">
<g clip-path="url(#clip0)">
<path d="M95.5 485V433L96 239.5V25C101.6 5.4 118.333 0.5 126 0.5H352L479 128V330V489C472.2 506.6 458.167 511.667 452 512C347 511.833 135.8 511.6 131 512C125 512.5 118 510.5 108 504.5C100 499.7 96.3333 489.5 95.5 485Z" fill="#E2E5E7"/>
<path d="M479 223V128L466 115H450.5L373.5 117L479 223Z" fill="#CAD1D8"/>
<path d="M352 98V0.5L478.5 128H384.5C360.1 126.4 352.667 107.333 352 98Z" fill="#B0B7BD"/>
<path d="M97 402V447.5L402 448C412.4 446.8 415.667 438.5 416 434.5V402H97Z" fill="#CAD1D8"/>
<rect x="10" y="240" width="384" height="192" rx="16" fill="#F7B84E"/>
<path d="M190.398 367.051L176.629 312.324V371.621C176.629 374.902 175.887 377.363 174.402 379.004C172.957 380.645 171.023 381.465 168.602 381.465C166.258 381.465 164.344 380.664 162.859 379.062C161.375 377.422 160.633 374.941 160.633 371.621V303.652C160.633 299.902 161.609 297.383 163.562 296.094C165.516 294.766 168.152 294.102 171.473 294.102H176.863C180.105 294.102 182.449 294.395 183.895 294.98C185.379 295.566 186.473 296.621 187.176 298.145C187.879 299.668 188.68 302.148 189.578 305.586L202.059 352.637L214.539 305.586C215.438 302.148 216.238 299.668 216.941 298.145C217.645 296.621 218.719 295.566 220.164 294.98C221.648 294.395 224.012 294.102 227.254 294.102H232.645C235.965 294.102 238.602 294.766 240.555 296.094C242.508 297.383 243.484 299.902 243.484 303.652V371.621C243.484 374.902 242.742 377.363 241.258 379.004C239.812 380.645 237.859 381.465 235.398 381.465C233.094 381.465 231.199 380.645 229.715 379.004C228.23 377.363 227.488 374.902 227.488 371.621V312.324L213.719 367.051C212.82 370.605 212.078 373.223 211.492 374.902C210.945 376.543 209.91 378.047 208.387 379.414C206.863 380.781 204.754 381.465 202.059 381.465C200.027 381.465 198.309 381.016 196.902 380.117C195.496 379.258 194.402 378.145 193.621 376.777C192.84 375.41 192.215 373.906 191.746 372.266C191.316 370.586 190.867 368.848 190.398 367.051Z" fill="white"/>
</g>
<defs>
<clipPath id="clip0">
<rect width="512" height="512" fill="white"/>
</clipPath>
</defs>
</svg>
