<svg width="512" height="512" viewBox="0 0 512 512" fill="none" xmlns="http://www.w3.org/2000/svg">
<g clip-path="url(#clip0)">
<path d="M95.5 485V433L96 239.5V25C101.6 5.4 118.333 0.5 126 0.5H352L479 128V330V489C472.2 506.6 458.167 511.667 452 512C347 511.833 135.8 511.6 131 512C125 512.5 118 510.5 108 504.5C100 499.7 96.3333 489.5 95.5 485Z" fill="#E2E5E7"/>
<path d="M479 223V128L466 115H450.5L373.5 117L479 223Z" fill="#CAD1D8"/>
<path d="M352 98V0.5L478.5 128H384.5C360.1 126.4 352.667 107.333 352 98Z" fill="#B0B7BD"/>
<path d="M97 402V447.5L402 448C412.4 446.8 415.667 438.5 416 434.5V402H97Z" fill="#CAD1D8"/>
<rect x="10" y="240" width="384" height="192" rx="16" fill="#F7B84E"/>
<path d="M101.829 367.051L88.0594 312.324V371.621C88.0594 374.902 87.3172 377.363 85.8328 379.004C84.3875 380.645 82.4539 381.465 80.032 381.465C77.6883 381.465 75.7742 380.664 74.2898 379.062C72.8055 377.422 72.0633 374.941 72.0633 371.621V303.652C72.0633 299.902 73.0398 297.383 74.993 296.094C76.9461 294.766 79.5828 294.102 82.9031 294.102H88.2937C91.5359 294.102 93.8797 294.395 95.325 294.98C96.8094 295.566 97.9031 296.621 98.6062 298.145C99.3094 299.668 100.11 302.148 101.009 305.586L113.489 352.637L125.97 305.586C126.868 302.148 127.669 299.668 128.372 298.145C129.075 296.621 130.149 295.566 131.595 294.98C133.079 294.395 135.442 294.102 138.684 294.102H144.075C147.395 294.102 150.032 294.766 151.985 296.094C153.938 297.383 154.915 299.902 154.915 303.652V371.621C154.915 374.902 154.173 377.363 152.688 379.004C151.243 380.645 149.29 381.465 146.829 381.465C144.524 381.465 142.63 380.645 141.145 379.004C139.661 377.363 138.919 374.902 138.919 371.621V312.324L125.149 367.051C124.251 370.605 123.509 373.223 122.923 374.902C122.376 376.543 121.341 378.047 119.817 379.414C118.294 380.781 116.184 381.465 113.489 381.465C111.458 381.465 109.739 381.016 108.333 380.117C106.927 379.258 105.833 378.145 105.052 376.777C104.27 375.41 103.645 373.906 103.177 372.266C102.747 370.586 102.298 368.848 101.829 367.051ZM204.082 328.145C207.676 328.145 210.762 327.09 213.34 324.98C215.957 322.871 217.266 319.844 217.266 315.898C217.266 312.891 216.23 310.312 214.16 308.164C212.09 305.977 209.297 304.883 205.781 304.883C203.398 304.883 201.426 305.215 199.863 305.879C198.34 306.543 197.129 307.422 196.23 308.516C195.332 309.609 194.473 311.016 193.652 312.734C192.871 314.453 192.148 316.074 191.484 317.598C191.094 318.418 190.391 319.062 189.375 319.531C188.359 320 187.188 320.234 185.859 320.234C184.297 320.234 182.852 319.609 181.523 318.359C180.234 317.07 179.59 315.371 179.59 313.262C179.59 311.23 180.195 309.102 181.406 306.875C182.656 304.609 184.453 302.461 186.797 300.43C189.18 298.398 192.129 296.777 195.645 295.566C199.16 294.316 203.086 293.691 207.422 293.691C211.211 293.691 214.668 294.219 217.793 295.273C220.918 296.289 223.633 297.773 225.938 299.727C228.242 301.68 229.98 303.945 231.152 306.523C232.324 309.102 232.91 311.875 232.91 314.844C232.91 318.75 232.051 322.109 230.332 324.922C228.652 327.695 226.23 330.41 223.066 333.066C226.113 334.707 228.672 336.582 230.742 338.691C232.852 340.801 234.434 343.145 235.488 345.723C236.543 348.262 237.07 351.016 237.07 353.984C237.07 357.539 236.348 360.977 234.902 364.297C233.496 367.617 231.406 370.586 228.633 373.203C225.859 375.781 222.559 377.812 218.73 379.297C214.941 380.742 210.742 381.465 206.133 381.465C201.445 381.465 197.246 380.625 193.535 378.945C189.824 377.266 186.758 375.176 184.336 372.676C181.953 370.137 180.137 367.52 178.887 364.824C177.676 362.129 177.07 359.902 177.07 358.145C177.07 355.879 177.793 354.062 179.238 352.695C180.723 351.289 182.559 350.586 184.746 350.586C185.84 350.586 186.895 350.918 187.91 351.582C188.926 352.207 189.59 352.969 189.902 353.867C191.934 359.297 194.102 363.34 196.406 365.996C198.75 368.613 202.031 369.922 206.25 369.922C208.672 369.922 210.996 369.336 213.223 368.164C215.488 366.953 217.344 365.176 218.789 362.832C220.273 360.488 221.016 357.773 221.016 354.688C221.016 350.117 219.766 346.543 217.266 343.965C214.766 341.348 211.289 340.039 206.836 340.039C206.055 340.039 204.844 340.117 203.203 340.273C201.562 340.43 200.508 340.508 200.039 340.508C197.891 340.508 196.23 339.98 195.059 338.926C193.887 337.832 193.301 336.328 193.301 334.414C193.301 332.539 194.004 331.035 195.41 329.902C196.816 328.73 198.906 328.145 201.68 328.145H204.082ZM259.87 344.492V303.184C259.87 299.668 260.652 297.031 262.214 295.273C263.816 293.516 265.905 292.637 268.484 292.637C271.179 292.637 273.308 293.516 274.87 295.273C276.472 297.031 277.273 299.668 277.273 303.184V345.43C277.273 350.234 277.8 354.258 278.855 357.5C279.948 360.703 281.863 363.203 284.597 365C287.331 366.758 291.159 367.637 296.081 367.637C302.878 367.637 307.683 365.84 310.495 362.246C313.308 358.613 314.714 353.125 314.714 345.781V303.184C314.714 299.629 315.495 296.992 317.058 295.273C318.62 293.516 320.71 292.637 323.327 292.637C325.945 292.637 328.054 293.516 329.655 295.273C331.296 296.992 332.116 299.629 332.116 303.184V344.492C332.116 351.211 331.452 356.816 330.124 361.309C328.835 365.801 326.374 369.746 322.741 373.145C319.616 376.035 315.984 378.145 311.843 379.473C307.702 380.801 302.859 381.465 297.312 381.465C290.71 381.465 285.027 380.762 280.261 379.355C275.495 377.91 271.609 375.703 268.601 372.734C265.593 369.727 263.386 365.898 261.98 361.25C260.573 356.562 259.87 350.977 259.87 344.492Z" fill="white"/>
</g>
<defs>
<clipPath id="clip0">
<rect width="512" height="512" fill="white"/>
</clipPath>
</defs>
</svg>
