<svg width="512" height="512" viewBox="0 0 512 512" fill="none" xmlns="http://www.w3.org/2000/svg">
<g clip-path="url(#clip0)">
<path d="M95.5 485V433L96 239.5V25C101.6 5.4 118.333 0.5 126 0.5H352L479 128V330V489C472.2 506.6 458.167 511.667 452 512C347 511.833 135.8 511.6 131 512C125 512.5 118 510.5 108 504.5C100 499.7 96.3333 489.5 95.5 485Z" fill="#E2E5E7"/>
<path d="M479 223V128L466 115H450.5L373.5 117L479 223Z" fill="#CAD1D8"/>
<path d="M352 98V0.5L478.5 128H384.5C360.1 126.4 352.667 107.333 352 98Z" fill="#B0B7BD"/>
<path d="M97 402V447.5L402 448C412.4 446.8 415.667 438.5 416 434.5V402H97Z" fill="#CAD1D8"/>
<rect x="10" y="240" width="384" height="192" rx="16" fill="#F7B84E"/>
<path d="M103.731 367.051L89.9617 312.324V371.621C89.9617 374.902 89.2195 377.363 87.7352 379.004C86.2898 380.645 84.3562 381.465 81.9344 381.465C79.5906 381.465 77.6766 380.664 76.1922 379.062C74.7078 377.422 73.9656 374.941 73.9656 371.621V303.652C73.9656 299.902 74.9422 297.383 76.8953 296.094C78.8484 294.766 81.4852 294.102 84.8055 294.102H90.1961C93.4383 294.102 95.782 294.395 97.2273 294.98C98.7117 295.566 99.8055 296.621 100.509 298.145C101.212 299.668 102.012 302.148 102.911 305.586L115.391 352.637L127.872 305.586C128.77 302.148 129.571 299.668 130.274 298.145C130.977 296.621 132.052 295.566 133.497 294.98C134.981 294.395 137.345 294.102 140.587 294.102H145.977C149.298 294.102 151.934 294.766 153.887 296.094C155.841 297.383 156.817 299.902 156.817 303.652V371.621C156.817 374.902 156.075 377.363 154.591 379.004C153.145 380.645 151.192 381.465 148.731 381.465C146.427 381.465 144.532 380.645 143.048 379.004C141.563 377.363 140.821 374.902 140.821 371.621V312.324L127.052 367.051C126.153 370.605 125.411 373.223 124.825 374.902C124.278 376.543 123.243 378.047 121.72 379.414C120.196 380.781 118.087 381.465 115.391 381.465C113.36 381.465 111.641 381.016 110.235 380.117C108.829 379.258 107.735 378.145 106.954 376.777C106.173 375.41 105.548 373.906 105.079 372.266C104.649 370.586 104.2 368.848 103.731 367.051ZM215.125 372.559V361.66H185.711C182 361.66 179.207 360.82 177.332 359.141C175.496 357.461 174.578 355.176 174.578 352.285C174.578 351.543 174.715 350.801 174.988 350.059C175.262 349.277 175.672 348.477 176.219 347.656C176.766 346.797 177.332 345.977 177.918 345.195C178.504 344.414 179.227 343.457 180.086 342.324L211.141 300.781C213.172 298.047 214.832 296.074 216.121 294.863C217.449 293.613 219.031 292.988 220.867 292.988C226.805 292.988 229.773 296.387 229.773 303.184V348.535H232.293C235.301 348.535 237.703 348.945 239.5 349.766C241.336 350.586 242.254 352.383 242.254 355.156C242.254 357.422 241.512 359.082 240.027 360.137C238.543 361.152 236.316 361.66 233.348 361.66H229.773V372.559C229.773 375.566 229.109 377.812 227.781 379.297C226.453 380.742 224.676 381.465 222.449 381.465C220.262 381.465 218.484 380.723 217.117 379.238C215.789 377.715 215.125 375.488 215.125 372.559ZM189.93 348.535H215.125V314.492L189.93 348.535ZM316.616 370.273L312.515 359.492H277.593L273.491 370.508C271.89 374.805 270.523 377.715 269.39 379.238C268.257 380.723 266.402 381.465 263.823 381.465C261.636 381.465 259.702 380.664 258.023 379.062C256.343 377.461 255.503 375.645 255.503 373.613C255.503 372.441 255.698 371.23 256.089 369.98C256.48 368.73 257.124 366.992 258.023 364.766L279.995 308.984C280.62 307.383 281.363 305.469 282.222 303.242C283.12 300.977 284.058 299.102 285.034 297.617C286.05 296.133 287.359 294.941 288.96 294.043C290.601 293.105 292.613 292.637 294.995 292.637C297.417 292.637 299.429 293.105 301.03 294.043C302.671 294.941 303.98 296.113 304.956 297.559C305.972 299.004 306.812 300.566 307.476 302.246C308.179 303.887 309.058 306.094 310.113 308.867L332.554 364.297C334.312 368.516 335.191 371.582 335.191 373.496C335.191 375.488 334.351 377.324 332.671 379.004C331.03 380.645 329.038 381.465 326.695 381.465C325.327 381.465 324.155 381.211 323.179 380.703C322.202 380.234 321.382 379.59 320.718 378.77C320.054 377.91 319.331 376.621 318.55 374.902C317.808 373.145 317.163 371.602 316.616 370.273ZM282.163 346.426H307.827L294.878 310.977L282.163 346.426Z" fill="white"/>
</g>
<defs>
<clipPath id="clip0">
<rect width="512" height="512" fill="white"/>
</clipPath>
</defs>
</svg>
