<svg width="512" height="512" viewBox="0 0 512 512" fill="none" xmlns="http://www.w3.org/2000/svg">
<g clip-path="url(#clip0)">
<path d="M95.5 485V433L96 239.5V25C101.6 5.4 118.333 0.5 126 0.5H352L479 128V330V489C472.2 506.6 458.167 511.667 452 512C347 511.833 135.8 511.6 131 512C125 512.5 118 510.5 108 504.5C100 499.7 96.3333 489.5 95.5 485Z" fill="#E2E5E7"/>
<path d="M479 223V128L466 115H450.5L373.5 117L479 223Z" fill="#CAD1D8"/>
<path d="M352 98V0.5L478.5 128H384.5C360.1 126.4 352.667 107.333 352 98Z" fill="#B0B7BD"/>
<path d="M97 402V447.5L402 448C412.4 446.8 415.667 438.5 416 434.5V402H97Z" fill="#CAD1D8"/>
<rect x="10" y="240" width="384" height="192" rx="16" fill="#F7B84E"/>
<path d="M103.645 367.051L89.8758 312.324V371.621C89.8758 374.902 89.1336 377.363 87.6492 379.004C86.2039 380.645 84.2703 381.465 81.8484 381.465C79.5047 381.465 77.5906 380.664 76.1062 379.062C74.6219 377.422 73.8797 374.941 73.8797 371.621V303.652C73.8797 299.902 74.8562 297.383 76.8094 296.094C78.7625 294.766 81.3992 294.102 84.7195 294.102H90.1102C93.3523 294.102 95.6961 294.395 97.1414 294.98C98.6258 295.566 99.7195 296.621 100.423 298.145C101.126 299.668 101.927 302.148 102.825 305.586L115.305 352.637L127.786 305.586C128.684 302.148 129.485 299.668 130.188 298.145C130.891 296.621 131.966 295.566 133.411 294.98C134.895 294.395 137.259 294.102 140.501 294.102H145.891C149.212 294.102 151.848 294.766 153.802 296.094C155.755 297.383 156.731 299.902 156.731 303.652V371.621C156.731 374.902 155.989 377.363 154.505 379.004C153.059 380.645 151.106 381.465 148.645 381.465C146.341 381.465 144.446 380.645 142.962 379.004C141.477 377.363 140.735 374.902 140.735 371.621V312.324L126.966 367.051C126.067 370.605 125.325 373.223 124.739 374.902C124.192 376.543 123.157 378.047 121.634 379.414C120.11 380.781 118.001 381.465 115.305 381.465C113.274 381.465 111.555 381.016 110.149 380.117C108.743 379.258 107.649 378.145 106.868 376.777C106.087 375.41 105.462 373.906 104.993 372.266C104.563 370.586 104.114 368.848 103.645 367.051ZM237.363 370.273L233.262 359.492H198.34L194.238 370.508C192.637 374.805 191.27 377.715 190.137 379.238C189.004 380.723 187.148 381.465 184.57 381.465C182.383 381.465 180.449 380.664 178.77 379.062C177.09 377.461 176.25 375.645 176.25 373.613C176.25 372.441 176.445 371.23 176.836 369.98C177.227 368.73 177.871 366.992 178.77 364.766L200.742 308.984C201.367 307.383 202.109 305.469 202.969 303.242C203.867 300.977 204.805 299.102 205.781 297.617C206.797 296.133 208.105 294.941 209.707 294.043C211.348 293.105 213.359 292.637 215.742 292.637C218.164 292.637 220.176 293.105 221.777 294.043C223.418 294.941 224.727 296.113 225.703 297.559C226.719 299.004 227.559 300.566 228.223 302.246C228.926 303.887 229.805 306.094 230.859 308.867L253.301 364.297C255.059 368.516 255.938 371.582 255.938 373.496C255.938 375.488 255.098 377.324 253.418 379.004C251.777 380.645 249.785 381.465 247.441 381.465C246.074 381.465 244.902 381.211 243.926 380.703C242.949 380.234 242.129 379.59 241.465 378.77C240.801 377.91 240.078 376.621 239.297 374.902C238.555 373.145 237.91 371.602 237.363 370.273ZM202.91 346.426H228.574L215.625 310.977L202.91 346.426ZM273.405 363.301L292.624 335.234L276.452 310.273C274.929 307.852 273.777 305.781 272.995 304.062C272.253 302.305 271.882 300.625 271.882 299.023C271.882 297.383 272.605 295.918 274.05 294.629C275.534 293.301 277.331 292.637 279.441 292.637C281.863 292.637 283.738 293.359 285.066 294.805C286.433 296.211 288.308 298.848 290.691 302.715L303.581 323.574L317.351 302.715C318.484 300.957 319.441 299.453 320.222 298.203C321.042 296.953 321.823 295.918 322.566 295.098C323.308 294.277 324.128 293.672 325.027 293.281C325.964 292.852 327.038 292.637 328.249 292.637C330.437 292.637 332.214 293.301 333.581 294.629C334.988 295.918 335.691 297.461 335.691 299.258C335.691 301.875 334.187 305.43 331.179 309.922L314.245 335.234L332.468 363.301C334.109 365.762 335.3 367.812 336.042 369.453C336.784 371.055 337.155 372.578 337.155 374.023C337.155 375.391 336.823 376.641 336.159 377.773C335.495 378.906 334.558 379.805 333.347 380.469C332.136 381.133 330.769 381.465 329.245 381.465C327.605 381.465 326.218 381.113 325.085 380.41C323.952 379.746 323.034 378.906 322.331 377.891C321.628 376.875 320.32 374.902 318.405 371.973L303.288 348.184L287.234 372.676C285.984 374.629 285.085 375.996 284.538 376.777C284.03 377.559 283.405 378.32 282.663 379.062C281.921 379.805 281.042 380.391 280.027 380.82C279.011 381.25 277.82 381.465 276.452 381.465C274.343 381.465 272.585 380.82 271.179 379.531C269.812 378.242 269.128 376.367 269.128 373.906C269.128 371.016 270.554 367.48 273.405 363.301Z" fill="white"/>
</g>
<defs>
<clipPath id="clip0">
<rect width="512" height="512" fill="white"/>
</clipPath>
</defs>
</svg>
