<svg width="512" height="512" viewBox="0 0 512 512" fill="none" xmlns="http://www.w3.org/2000/svg">
<g clip-path="url(#clip0)">
<path d="M95.5 485V433L96 239.5V25C101.6 5.4 118.333 0.5 126 0.5H352L479 128V330V489C472.2 506.6 458.167 511.667 452 512C347 511.833 135.8 511.6 131 512C125 512.5 118 510.5 108 504.5C100 499.7 96.3333 489.5 95.5 485Z" fill="#E2E5E7"/>
<path d="M479 223V128L466 115H450.5L373.5 117L479 223Z" fill="#CAD1D8"/>
<path d="M352 98V0.5L478.5 128H384.5C360.1 126.4 352.667 107.333 352 98Z" fill="#B0B7BD"/>
<path d="M97 402V447.5L402 448C412.4 446.8 415.667 438.5 416 434.5V402H97Z" fill="#CAD1D8"/>
<rect x="10" y="240" width="384" height="192" rx="16" fill="#F7B84E"/>
<path d="M95.5008 367.051L81.7312 312.324V371.621C81.7312 374.902 80.9891 377.363 79.5047 379.004C78.0594 380.645 76.1258 381.465 73.7039 381.465C71.3602 381.465 69.4461 380.664 67.9617 379.062C66.4773 377.422 65.7352 374.941 65.7352 371.621V303.652C65.7352 299.902 66.7117 297.383 68.6648 296.094C70.618 294.766 73.2547 294.102 76.575 294.102H81.9656C85.2078 294.102 87.5516 294.395 88.9969 294.98C90.4812 295.566 91.575 296.621 92.2781 298.145C92.9812 299.668 93.782 302.148 94.6805 305.586L107.161 352.637L119.641 305.586C120.54 302.148 121.341 299.668 122.044 298.145C122.747 296.621 123.821 295.566 125.266 294.98C126.751 294.395 129.114 294.102 132.356 294.102H137.747C141.067 294.102 143.704 294.766 145.657 296.094C147.61 297.383 148.587 299.902 148.587 303.652V371.621C148.587 374.902 147.845 377.363 146.36 379.004C144.915 380.645 142.962 381.465 140.501 381.465C138.196 381.465 136.302 380.645 134.817 379.004C133.333 377.363 132.591 374.902 132.591 371.621V312.324L118.821 367.051C117.923 370.605 117.18 373.223 116.595 374.902C116.048 376.543 115.012 378.047 113.489 379.414C111.966 380.781 109.856 381.465 107.161 381.465C105.13 381.465 103.411 381.016 102.005 380.117C100.598 379.258 99.5047 378.145 98.7234 376.777C97.9422 375.41 97.3172 373.906 96.8484 372.266C96.4187 370.586 95.9695 368.848 95.5008 367.051ZM185.039 294.102H207.715C213.613 294.102 218.672 294.648 222.891 295.742C227.109 296.836 230.938 298.887 234.375 301.895C243.32 309.551 247.793 321.191 247.793 336.816C247.793 341.973 247.344 346.68 246.445 350.938C245.547 355.195 244.16 359.043 242.285 362.48C240.41 365.879 238.008 368.926 235.078 371.621C232.773 373.691 230.254 375.352 227.52 376.602C224.785 377.852 221.836 378.73 218.672 379.238C215.547 379.746 212.012 380 208.066 380H185.391C182.227 380 179.844 379.531 178.242 378.594C176.641 377.617 175.586 376.27 175.078 374.551C174.609 372.793 174.375 370.527 174.375 367.754V304.766C174.375 301.016 175.215 298.301 176.895 296.621C178.574 294.941 181.289 294.102 185.039 294.102ZM191.777 307.871V366.172H204.961C207.852 366.172 210.117 366.094 211.758 365.938C213.398 365.781 215.098 365.391 216.855 364.766C218.613 364.141 220.137 363.262 221.426 362.129C227.246 357.207 230.156 348.73 230.156 336.699C230.156 328.223 228.867 321.875 226.289 317.656C223.75 313.438 220.605 310.762 216.855 309.629C213.105 308.457 208.574 307.871 203.262 307.871H191.777ZM307.566 380H281.316C277.527 380 274.812 379.16 273.171 377.48C271.57 375.762 270.769 373.047 270.769 369.336V304.766C270.769 300.977 271.589 298.262 273.23 296.621C274.909 294.941 277.605 294.102 281.316 294.102H309.148C313.249 294.102 316.804 294.355 319.812 294.863C322.82 295.371 325.515 296.348 327.898 297.793C329.929 299.004 331.726 300.547 333.288 302.422C334.851 304.258 336.042 306.309 336.863 308.574C337.683 310.801 338.093 313.164 338.093 315.664C338.093 324.258 333.796 330.547 325.202 334.531C336.491 338.125 342.136 345.117 342.136 355.508C342.136 360.312 340.905 364.648 338.445 368.516C335.984 372.344 332.663 375.176 328.484 377.012C325.866 378.105 322.859 378.887 319.46 379.355C316.062 379.785 312.097 380 307.566 380ZM306.277 341.855H288.171V366.934H306.863C318.62 366.934 324.499 362.695 324.499 354.219C324.499 349.883 322.976 346.738 319.929 344.785C316.882 342.832 312.331 341.855 306.277 341.855ZM288.171 307.168V329.375H304.109C308.445 329.375 311.784 328.965 314.128 328.145C316.511 327.324 318.327 325.762 319.577 323.457C320.554 321.816 321.042 319.98 321.042 317.949C321.042 313.613 319.499 310.742 316.413 309.336C313.327 307.891 308.62 307.168 302.292 307.168H288.171Z" fill="white"/>
</g>
<defs>
<clipPath id="clip0">
<rect width="512" height="512" fill="white"/>
</clipPath>
</defs>
</svg>
