<svg width="512" height="512" viewBox="0 0 512 512" fill="none" xmlns="http://www.w3.org/2000/svg">
<g clip-path="url(#clip0)">
<path d="M95.5 485V433L96 239.5V25C101.6 5.4 118.333 0.5 126 0.5H352L479 128V330V489C472.2 506.6 458.167 511.667 452 512C347 511.833 135.8 511.6 131 512C125 512.5 118 510.5 108 504.5C100 499.7 96.3333 489.5 95.5 485Z" fill="#E2E5E7"/>
<path d="M479 223V128L466 115H450.5L373.5 117L479 223Z" fill="#CAD1D8"/>
<path d="M352 98V0.5L478.5 128H384.5C360.1 126.4 352.667 107.333 352 98Z" fill="#B0B7BD"/>
<path d="M97 402V447.5L402 448C412.4 446.8 415.667 438.5 416 434.5V402H97Z" fill="#CAD1D8"/>
<rect x="10" y="240" width="384" height="192" rx="16" fill="#F7B84E"/>
<path d="M102.415 367.051L88.6453 312.324V371.621C88.6453 374.902 87.9031 377.363 86.4187 379.004C84.9734 380.645 83.0398 381.465 80.618 381.465C78.2742 381.465 76.3602 380.664 74.8758 379.062C73.3914 377.422 72.6492 374.941 72.6492 371.621V303.652C72.6492 299.902 73.6258 297.383 75.5789 296.094C77.532 294.766 80.1687 294.102 83.4891 294.102H88.8797C92.1219 294.102 94.4656 294.395 95.9109 294.98C97.3953 295.566 98.4891 296.621 99.1922 298.145C99.8953 299.668 100.696 302.148 101.595 305.586L114.075 352.637L126.555 305.586C127.454 302.148 128.255 299.668 128.958 298.145C129.661 296.621 130.735 295.566 132.18 294.98C133.665 294.395 136.028 294.102 139.27 294.102H144.661C147.981 294.102 150.618 294.766 152.571 296.094C154.524 297.383 155.501 299.902 155.501 303.652V371.621C155.501 374.902 154.759 377.363 153.274 379.004C151.829 380.645 149.876 381.465 147.415 381.465C145.11 381.465 143.216 380.645 141.731 379.004C140.247 377.363 139.505 374.902 139.505 371.621V312.324L125.735 367.051C124.837 370.605 124.095 373.223 123.509 374.902C122.962 376.543 121.927 378.047 120.403 379.414C118.88 380.781 116.77 381.465 114.075 381.465C112.044 381.465 110.325 381.016 108.919 380.117C107.512 379.258 106.419 378.145 105.637 376.777C104.856 375.41 104.231 373.906 103.762 372.266C103.333 370.586 102.884 368.848 102.415 367.051ZM191.953 294.102H214.629C220.527 294.102 225.586 294.648 229.805 295.742C234.023 296.836 237.852 298.887 241.289 301.895C250.234 309.551 254.707 321.191 254.707 336.816C254.707 341.973 254.258 346.68 253.359 350.938C252.461 355.195 251.074 359.043 249.199 362.48C247.324 365.879 244.922 368.926 241.992 371.621C239.688 373.691 237.168 375.352 234.434 376.602C231.699 377.852 228.75 378.73 225.586 379.238C222.461 379.746 218.926 380 214.98 380H192.305C189.141 380 186.758 379.531 185.156 378.594C183.555 377.617 182.5 376.27 181.992 374.551C181.523 372.793 181.289 370.527 181.289 367.754V304.766C181.289 301.016 182.129 298.301 183.809 296.621C185.488 294.941 188.203 294.102 191.953 294.102ZM198.691 307.871V366.172H211.875C214.766 366.172 217.031 366.094 218.672 365.938C220.312 365.781 222.012 365.391 223.77 364.766C225.527 364.141 227.051 363.262 228.34 362.129C234.16 357.207 237.07 348.73 237.07 336.699C237.07 328.223 235.781 321.875 233.203 317.656C230.664 313.438 227.52 310.762 223.77 309.629C220.02 308.457 215.488 307.871 210.176 307.871H198.691ZM329.128 307.52H294.851V329.492H323.503C326.159 329.492 328.132 330.098 329.421 331.309C330.749 332.48 331.413 334.062 331.413 336.055C331.413 338.047 330.749 339.629 329.421 340.801C328.093 341.973 326.12 342.559 323.503 342.559H294.851V370.859C294.851 374.453 294.03 377.129 292.39 378.887C290.788 380.605 288.718 381.465 286.179 381.465C283.601 381.465 281.491 380.586 279.851 378.828C278.249 377.07 277.448 374.414 277.448 370.859V304.766C277.448 302.266 277.82 300.234 278.562 298.672C279.304 297.07 280.456 295.918 282.019 295.215C283.62 294.473 285.652 294.102 288.113 294.102H329.128C331.902 294.102 333.952 294.727 335.28 295.977C336.648 297.188 337.331 298.789 337.331 300.781C337.331 302.812 336.648 304.453 335.28 305.703C333.952 306.914 331.902 307.52 329.128 307.52Z" fill="white"/>
</g>
<defs>
<clipPath id="clip0">
<rect width="512" height="512" fill="white"/>
</clipPath>
</defs>
</svg>
