<svg width="512" height="512" viewBox="0 0 512 512" fill="none" xmlns="http://www.w3.org/2000/svg">
<g clip-path="url(#clip0)">
<path d="M95.5 485V433L96 239.5V25C101.6 5.4 118.333 0.5 126 0.5H352L479 128V330V489C472.2 506.6 458.167 511.667 452 512C347 511.833 135.8 511.6 131 512C125 512.5 118 510.5 108 504.5C100 499.7 96.3333 489.5 95.5 485Z" fill="#E2E5E7"/>
<path d="M479 223V128L466 115H450.5L373.5 117L479 223Z" fill="#CAD1D8"/>
<path d="M352 98V0.5L478.5 128H384.5C360.1 126.4 352.667 107.333 352 98Z" fill="#B0B7BD"/>
<path d="M97 402V447.5L402 448C412.4 446.8 415.667 438.5 416 434.5V402H97Z" fill="#CAD1D8"/>
<rect x="10" y="240" width="384" height="192" rx="16" fill="#F7B84E"/>
<path d="M119.876 367.051L106.106 312.324V371.621C106.106 374.902 105.364 377.363 103.88 379.004C102.434 380.645 100.501 381.465 98.0789 381.465C95.7352 381.465 93.8211 380.664 92.3367 379.062C90.8523 377.422 90.1102 374.941 90.1102 371.621V303.652C90.1102 299.902 91.0867 297.383 93.0398 296.094C94.993 294.766 97.6297 294.102 100.95 294.102H106.341C109.583 294.102 111.927 294.395 113.372 294.98C114.856 295.566 115.95 296.621 116.653 298.145C117.356 299.668 118.157 302.148 119.055 305.586L131.536 352.637L144.016 305.586C144.915 302.148 145.716 299.668 146.419 298.145C147.122 296.621 148.196 295.566 149.641 294.98C151.126 294.395 153.489 294.102 156.731 294.102H162.122C165.442 294.102 168.079 294.766 170.032 296.094C171.985 297.383 172.962 299.902 172.962 303.652V371.621C172.962 374.902 172.22 377.363 170.735 379.004C169.29 380.645 167.337 381.465 164.876 381.465C162.571 381.465 160.677 380.645 159.192 379.004C157.708 377.363 156.966 374.902 156.966 371.621V312.324L143.196 367.051C142.298 370.605 141.555 373.223 140.97 374.902C140.423 376.543 139.387 378.047 137.864 379.414C136.341 380.781 134.231 381.465 131.536 381.465C129.505 381.465 127.786 381.016 126.38 380.117C124.973 379.258 123.88 378.145 123.098 376.777C122.317 375.41 121.692 373.906 121.223 372.266C120.794 370.586 120.345 368.848 119.876 367.051ZM199.336 370.859V303.184C199.336 299.668 200.137 297.031 201.738 295.273C203.34 293.516 205.41 292.637 207.949 292.637C210.566 292.637 212.676 293.516 214.277 295.273C215.918 296.992 216.738 299.629 216.738 303.184V370.859C216.738 374.414 215.918 377.07 214.277 378.828C212.676 380.586 210.566 381.465 207.949 381.465C205.449 381.465 203.379 380.586 201.738 378.828C200.137 377.031 199.336 374.375 199.336 370.859ZM254.831 294.102H277.507C283.405 294.102 288.464 294.648 292.683 295.742C296.902 296.836 300.73 298.887 304.167 301.895C313.113 309.551 317.585 321.191 317.585 336.816C317.585 341.973 317.136 346.68 316.238 350.938C315.339 355.195 313.952 359.043 312.077 362.48C310.202 365.879 307.8 368.926 304.87 371.621C302.566 373.691 300.046 375.352 297.312 376.602C294.577 377.852 291.628 378.73 288.464 379.238C285.339 379.746 281.804 380 277.859 380H255.183C252.019 380 249.636 379.531 248.034 378.594C246.433 377.617 245.378 376.27 244.87 374.551C244.402 372.793 244.167 370.527 244.167 367.754V304.766C244.167 301.016 245.007 298.301 246.687 296.621C248.366 294.941 251.081 294.102 254.831 294.102ZM261.57 307.871V366.172H274.753C277.644 366.172 279.909 366.094 281.55 365.938C283.191 365.781 284.89 365.391 286.648 364.766C288.405 364.141 289.929 363.262 291.218 362.129C297.038 357.207 299.948 348.73 299.948 336.699C299.948 328.223 298.659 321.875 296.081 317.656C293.542 313.438 290.398 310.762 286.648 309.629C282.898 308.457 278.366 307.871 273.054 307.871H261.57Z" fill="white"/>
</g>
<defs>
<clipPath id="clip0">
<rect width="512" height="512" fill="white"/>
</clipPath>
</defs>
</svg>
