<svg width="512" height="512" viewBox="0 0 512 512" fill="none" xmlns="http://www.w3.org/2000/svg">
<g clip-path="url(#clip0)">
<path d="M95.5 485V433L96 239.5V25C101.6 5.4 118.333 0.5 126 0.5H352L479 128V330V489C472.2 506.6 458.167 511.667 452 512C347 511.833 135.8 511.6 131 512C125 512.5 118 510.5 108 504.5C100 499.7 96.3333 489.5 95.5 485Z" fill="#E2E5E7"/>
<path d="M479 223V128L466 115H450.5L373.5 117L479 223Z" fill="#CAD1D8"/>
<path d="M352 98V0.5L478.5 128H384.5C360.1 126.4 352.667 107.333 352 98Z" fill="#B0B7BD"/>
<path d="M97 402V447.5L402 448C412.4 446.8 415.667 438.5 416 434.5V402H97Z" fill="#CAD1D8"/>
<rect x="32" y="240" width="384" height="192" rx="16" fill="#F7B84E"/>
<path d="M117.667 368.051L103.898 313.324V372.621C103.898 375.902 103.155 378.363 101.671 380.004C100.226 381.645 98.2922 382.465 95.8703 382.465C93.5266 382.465 91.6125 381.664 90.1281 380.062C88.6438 378.422 87.9016 375.941 87.9016 372.621V304.652C87.9016 300.902 88.8781 298.383 90.8313 297.094C92.7844 295.766 95.4211 295.102 98.7414 295.102H104.132C107.374 295.102 109.718 295.395 111.163 295.98C112.648 296.566 113.741 297.621 114.445 299.145C115.148 300.668 115.948 303.148 116.847 306.586L129.327 353.637L141.808 306.586C142.706 303.148 143.507 300.668 144.21 299.145C144.913 297.621 145.988 296.566 147.433 295.98C148.917 295.395 151.28 295.102 154.523 295.102H159.913C163.234 295.102 165.87 295.766 167.823 297.094C169.777 298.383 170.753 300.902 170.753 304.652V372.621C170.753 375.902 170.011 378.363 168.527 380.004C167.081 381.645 165.128 382.465 162.667 382.465C160.363 382.465 158.468 381.645 156.984 380.004C155.499 378.363 154.757 375.902 154.757 372.621V313.324L140.988 368.051C140.089 371.605 139.347 374.223 138.761 375.902C138.214 377.543 137.179 379.047 135.655 380.414C134.132 381.781 132.023 382.465 129.327 382.465C127.296 382.465 125.577 382.016 124.171 381.117C122.765 380.258 121.671 379.145 120.89 377.777C120.109 376.41 119.484 374.906 119.015 373.266C118.585 371.586 118.136 369.848 117.667 368.051ZM197.127 371.859V304.184C197.127 300.668 197.928 298.031 199.53 296.273C201.131 294.516 203.202 293.637 205.741 293.637C208.358 293.637 210.467 294.516 212.069 296.273C213.709 297.992 214.53 300.629 214.53 304.184V371.859C214.53 375.414 213.709 378.07 212.069 379.828C210.467 381.586 208.358 382.465 205.741 382.465C203.241 382.465 201.17 381.586 199.53 379.828C197.928 378.031 197.127 375.375 197.127 371.859ZM252.623 295.102H275.298C281.197 295.102 286.255 295.648 290.474 296.742C294.693 297.836 298.521 299.887 301.959 302.895C310.904 310.551 315.377 322.191 315.377 337.816C315.377 342.973 314.927 347.68 314.029 351.938C313.13 356.195 311.744 360.043 309.869 363.48C307.994 366.879 305.591 369.926 302.662 372.621C300.357 374.691 297.838 376.352 295.103 377.602C292.369 378.852 289.42 379.73 286.255 380.238C283.13 380.746 279.595 381 275.65 381H252.974C249.81 381 247.427 380.531 245.826 379.594C244.224 378.617 243.17 377.27 242.662 375.551C242.193 373.793 241.959 371.527 241.959 368.754V305.766C241.959 302.016 242.798 299.301 244.478 297.621C246.158 295.941 248.873 295.102 252.623 295.102ZM259.361 308.871V367.172H272.545C275.435 367.172 277.701 367.094 279.341 366.938C280.982 366.781 282.681 366.391 284.439 365.766C286.197 365.141 287.72 364.262 289.009 363.129C294.83 358.207 297.74 349.73 297.74 337.699C297.74 329.223 296.451 322.875 293.873 318.656C291.334 314.438 288.189 311.762 284.439 310.629C280.689 309.457 276.158 308.871 270.845 308.871H259.361ZM339.173 371.859V304.184C339.173 300.668 339.973 298.031 341.575 296.273C343.177 294.516 345.247 293.637 347.786 293.637C350.403 293.637 352.512 294.516 354.114 296.273C355.755 297.992 356.575 300.629 356.575 304.184V371.859C356.575 375.414 355.755 378.07 354.114 379.828C352.512 381.586 350.403 382.465 347.786 382.465C345.286 382.465 343.216 381.586 341.575 379.828C339.973 378.031 339.173 375.375 339.173 371.859Z" fill="white"/>
</g>
<defs>
<clipPath id="clip0">
<rect width="512" height="512" fill="white"/>
</clipPath>
</defs>
</svg>
