<svg width="512" height="512" viewBox="0 0 512 512" fill="none" xmlns="http://www.w3.org/2000/svg">
<g clip-path="url(#clip0)">
<path d="M95.5 485V433L96 239.5V25C101.6 5.4 118.333 0.5 126 0.5H352L479 128V330V489C472.2 506.6 458.167 511.667 452 512C347 511.833 135.8 511.6 131 512C125 512.5 118 510.5 108 504.5C100 499.7 96.3333 489.5 95.5 485Z" fill="#E2E5E7"/>
<path d="M479 223V128L466 115H450.5L373.5 117L479 223Z" fill="#CAD1D8"/>
<path d="M352 98V0.5L478.5 128H384.5C360.1 126.4 352.667 107.333 352 98Z" fill="#B0B7BD"/>
<path d="M97 402V447.5L402 448C412.4 446.8 415.667 438.5 416 434.5V402H97Z" fill="#CAD1D8"/>
<rect x="10" y="240" width="384" height="192" rx="16" fill="#F7B84E"/>
<path d="M113.809 367.051L100.04 312.324V371.621C100.04 374.902 99.2977 377.363 97.8133 379.004C96.368 380.645 94.4344 381.465 92.0125 381.465C89.6687 381.465 87.7547 380.664 86.2703 379.062C84.7859 377.422 84.0437 374.941 84.0437 371.621V303.652C84.0437 299.902 85.0203 297.383 86.9734 296.094C88.9266 294.766 91.5633 294.102 94.8836 294.102H100.274C103.516 294.102 105.86 294.395 107.305 294.98C108.79 295.566 109.884 296.621 110.587 298.145C111.29 299.668 112.091 302.148 112.989 305.586L125.47 352.637L137.95 305.586C138.848 302.148 139.649 299.668 140.352 298.145C141.055 296.621 142.13 295.566 143.575 294.98C145.059 294.395 147.423 294.102 150.665 294.102H156.055C159.376 294.102 162.012 294.766 163.966 296.094C165.919 297.383 166.895 299.902 166.895 303.652V371.621C166.895 374.902 166.153 377.363 164.669 379.004C163.223 380.645 161.27 381.465 158.809 381.465C156.505 381.465 154.61 380.645 153.126 379.004C151.641 377.363 150.899 374.902 150.899 371.621V312.324L137.13 367.051C136.231 370.605 135.489 373.223 134.903 374.902C134.356 376.543 133.321 378.047 131.798 379.414C130.274 380.781 128.165 381.465 125.47 381.465C123.438 381.465 121.72 381.016 120.313 380.117C118.907 379.258 117.813 378.145 117.032 376.777C116.251 375.41 115.626 373.906 115.157 372.266C114.727 370.586 114.278 368.848 113.809 367.051ZM193.27 370.859V303.184C193.27 299.668 194.07 297.031 195.672 295.273C197.273 293.516 199.344 292.637 201.883 292.637C204.5 292.637 206.609 293.516 208.211 295.273C209.852 296.992 210.672 299.629 210.672 303.184V370.859C210.672 374.414 209.852 377.07 208.211 378.828C206.609 380.586 204.5 381.465 201.883 381.465C199.383 381.465 197.312 380.586 195.672 378.828C194.07 377.031 193.27 374.375 193.27 370.859ZM266.988 367.051L253.218 312.324V371.621C253.218 374.902 252.476 377.363 250.991 379.004C249.546 380.645 247.613 381.465 245.191 381.465C242.847 381.465 240.933 380.664 239.448 379.062C237.964 377.422 237.222 374.941 237.222 371.621V303.652C237.222 299.902 238.198 297.383 240.152 296.094C242.105 294.766 244.741 294.102 248.062 294.102H253.452C256.695 294.102 259.038 294.395 260.484 294.98C261.968 295.566 263.062 296.621 263.765 298.145C264.468 299.668 265.269 302.148 266.167 305.586L278.648 352.637L291.128 305.586C292.027 302.148 292.827 299.668 293.53 298.145C294.234 296.621 295.308 295.566 296.753 294.98C298.238 294.395 300.601 294.102 303.843 294.102H309.234C312.554 294.102 315.191 294.766 317.144 296.094C319.097 297.383 320.073 299.902 320.073 303.652V371.621C320.073 374.902 319.331 377.363 317.847 379.004C316.402 380.645 314.448 381.465 311.988 381.465C309.683 381.465 307.788 380.645 306.304 379.004C304.82 377.363 304.077 374.902 304.077 371.621V312.324L290.308 367.051C289.409 370.605 288.667 373.223 288.081 374.902C287.534 376.543 286.499 378.047 284.976 379.414C283.452 380.781 281.343 381.465 278.648 381.465C276.616 381.465 274.898 381.016 273.491 380.117C272.085 379.258 270.991 378.145 270.21 376.777C269.429 375.41 268.804 373.906 268.335 372.266C267.905 370.586 267.456 368.848 266.988 367.051Z" fill="white"/>
</g>
<defs>
<clipPath id="clip0">
<rect width="512" height="512" fill="white"/>
</clipPath>
</defs>
</svg>
