<svg width="512" height="512" viewBox="0 0 512 512" fill="none" xmlns="http://www.w3.org/2000/svg">
<g clip-path="url(#clip0)">
<path d="M95.5 485V433L96 239.5V25C101.6 5.4 118.333 0.5 126 0.5H352L479 128V330V489C472.2 506.6 458.167 511.667 452 512C347 511.833 135.8 511.6 131 512C125 512.5 118 510.5 108 504.5C100 499.7 96.3333 489.5 95.5 485Z" fill="#E2E5E7"/>
<path d="M479 223V128L466 115H450.5L373.5 117L479 223Z" fill="#CAD1D8"/>
<path d="M352 98V0.5L478.5 128H384.5C360.1 126.4 352.667 107.333 352 98Z" fill="#B0B7BD"/>
<path d="M97 402V447.5L402 448C412.4 446.8 415.667 438.5 416 434.5V402H97Z" fill="#CAD1D8"/>
<rect x="32" y="240" width="384" height="192" rx="16" fill="#F7B84E"/>
<path d="M117.876 368.051L104.106 313.324V372.621C104.106 375.902 103.364 378.363 101.88 380.004C100.434 381.645 98.5008 382.465 96.0789 382.465C93.7352 382.465 91.8211 381.664 90.3367 380.062C88.8523 378.422 88.1102 375.941 88.1102 372.621V304.652C88.1102 300.902 89.0867 298.383 91.0398 297.094C92.993 295.766 95.6297 295.102 98.95 295.102H104.341C107.583 295.102 109.927 295.395 111.372 295.98C112.856 296.566 113.95 297.621 114.653 299.145C115.356 300.668 116.157 303.148 117.055 306.586L129.536 353.637L142.016 306.586C142.915 303.148 143.716 300.668 144.419 299.145C145.122 297.621 146.196 296.566 147.641 295.98C149.126 295.395 151.489 295.102 154.731 295.102H160.122C163.442 295.102 166.079 295.766 168.032 297.094C169.985 298.383 170.962 300.902 170.962 304.652V372.621C170.962 375.902 170.22 378.363 168.735 380.004C167.29 381.645 165.337 382.465 162.876 382.465C160.571 382.465 158.677 381.645 157.192 380.004C155.708 378.363 154.966 375.902 154.966 372.621V313.324L141.196 368.051C140.298 371.605 139.555 374.223 138.97 375.902C138.423 377.543 137.387 379.047 135.864 380.414C134.341 381.781 132.231 382.465 129.536 382.465C127.505 382.465 125.786 382.016 124.38 381.117C122.973 380.258 121.88 379.145 121.098 377.777C120.317 376.41 119.692 374.906 119.223 373.266C118.794 371.586 118.345 369.848 117.876 368.051ZM214.152 304.184V334.301L248.312 298.676C249.953 296.957 251.34 295.688 252.473 294.867C253.645 294.047 255.188 293.637 257.102 293.637C259.602 293.637 261.613 294.379 263.137 295.863C264.699 297.309 265.48 299.086 265.48 301.195C265.48 303.734 264.172 306.254 261.555 308.754L240.402 328.793L264.777 363.715C266.496 366.137 267.785 368.266 268.645 370.102C269.504 371.898 269.934 373.656 269.934 375.375C269.934 377.289 269.172 378.949 267.648 380.355C266.164 381.762 264.133 382.465 261.555 382.465C259.133 382.465 257.16 381.957 255.637 380.941C254.113 379.887 252.824 378.5 251.77 376.781C250.715 375.062 249.777 373.5 248.957 372.094L228.391 340.453L214.152 354.105V371.859C214.152 375.453 213.332 378.129 211.691 379.887C210.051 381.605 207.941 382.465 205.363 382.465C203.879 382.465 202.453 382.074 201.086 381.293C199.719 380.512 198.664 379.457 197.922 378.129C197.375 377.035 197.043 375.766 196.926 374.32C196.809 372.875 196.75 370.785 196.75 368.051V304.184C196.75 300.668 197.512 298.031 199.035 296.273C200.598 294.516 202.707 293.637 205.363 293.637C207.98 293.637 210.09 294.516 211.691 296.273C213.332 297.992 214.152 300.629 214.152 304.184ZM305.976 305.062L325.429 362.66L344.941 304.652C345.956 301.605 346.718 299.496 347.226 298.324C347.734 297.113 348.573 296.039 349.745 295.102C350.917 294.125 352.519 293.637 354.55 293.637C356.034 293.637 357.402 294.008 358.652 294.75C359.941 295.492 360.937 296.488 361.64 297.738C362.382 298.949 362.753 300.18 362.753 301.43C362.753 302.289 362.636 303.227 362.402 304.242C362.167 305.219 361.874 306.195 361.523 307.172C361.171 308.109 360.82 309.086 360.468 310.102L339.667 366.234C338.925 368.383 338.183 370.434 337.441 372.387C336.698 374.301 335.839 376 334.863 377.484C333.886 378.93 332.577 380.121 330.937 381.059C329.335 381.996 327.363 382.465 325.019 382.465C322.675 382.465 320.683 381.996 319.042 381.059C317.441 380.16 316.132 378.969 315.116 377.484C314.14 375.961 313.28 374.242 312.538 372.328C311.796 370.414 311.054 368.383 310.312 366.234L289.863 310.57C289.511 309.555 289.14 308.559 288.749 307.582C288.398 306.605 288.085 305.551 287.812 304.418C287.577 303.285 287.46 302.328 287.46 301.547C287.46 299.555 288.261 297.738 289.863 296.098C291.464 294.457 293.476 293.637 295.898 293.637C298.866 293.637 300.956 294.555 302.167 296.391C303.417 298.188 304.687 301.078 305.976 305.062Z" fill="white"/>
</g>
<defs>
<clipPath id="clip0">
<rect width="512" height="512" fill="white"/>
</clipPath>
</defs>
</svg>
