<svg width="512" height="512" viewBox="0 0 512 512" fill="none" xmlns="http://www.w3.org/2000/svg">
<g clip-path="url(#clip0)">
<path d="M95.5 485V433L96 239.5V25C101.6 5.4 118.333 0.5 126 0.5H352L479 128V330V489C472.2 506.6 458.167 511.667 452 512C347 511.833 135.8 511.6 131 512C125 512.5 118 510.5 108 504.5C100 499.7 96.3333 489.5 95.5 485Z" fill="#E2E5E7"/>
<path d="M479 223V128L466 115H450.5L373.5 117L479 223Z" fill="#CAD1D8"/>
<path d="M352 98V0.5L478.5 128H384.5C360.1 126.4 352.667 107.333 352 98Z" fill="#B0B7BD"/>
<path d="M97 402V447.5L402 448C412.4 446.8 415.667 438.5 416 434.5V402H97Z" fill="#CAD1D8"/>
<rect x="32" y="240" width="384" height="192" rx="16" fill="#F7B84E"/>
<path d="M116.852 368.051L103.083 313.324V372.621C103.083 375.902 102.341 378.363 100.856 380.004C99.4109 381.645 97.4773 382.465 95.0555 382.465C92.7117 382.465 90.7977 381.664 89.3133 380.062C87.8289 378.422 87.0867 375.941 87.0867 372.621V304.652C87.0867 300.902 88.0633 298.383 90.0164 297.094C91.9695 295.766 94.6062 295.102 97.9266 295.102H103.317C106.559 295.102 108.903 295.395 110.348 295.98C111.833 296.566 112.927 297.621 113.63 299.145C114.333 300.668 115.134 303.148 116.032 306.586L128.512 353.637L140.993 306.586C141.891 303.148 142.692 300.668 143.395 299.145C144.098 297.621 145.173 296.566 146.618 295.98C148.102 295.395 150.466 295.102 153.708 295.102H159.098C162.419 295.102 165.055 295.766 167.009 297.094C168.962 298.383 169.938 300.902 169.938 304.652V372.621C169.938 375.902 169.196 378.363 167.712 380.004C166.266 381.645 164.313 382.465 161.852 382.465C159.548 382.465 157.653 381.645 156.169 380.004C154.684 378.363 153.942 375.902 153.942 372.621V313.324L140.173 368.051C139.274 371.605 138.532 374.223 137.946 375.902C137.399 377.543 136.364 379.047 134.841 380.414C133.317 381.781 131.208 382.465 128.512 382.465C126.481 382.465 124.762 382.016 123.356 381.117C121.95 380.258 120.856 379.145 120.075 377.777C119.294 376.41 118.669 374.906 118.2 373.266C117.77 371.586 117.321 369.848 116.852 368.051ZM233.402 293.637C242.309 293.637 249.945 295.453 256.312 299.086C262.719 302.68 267.562 307.816 270.844 314.496C274.125 321.137 275.766 328.949 275.766 337.934C275.766 344.574 274.867 350.609 273.07 356.039C271.273 361.469 268.578 366.176 264.984 370.16C261.391 374.145 256.977 377.191 251.742 379.301C246.508 381.41 240.512 382.465 233.754 382.465C227.035 382.465 221.02 381.391 215.707 379.242C210.395 377.055 205.961 373.988 202.406 370.043C198.852 366.098 196.156 361.352 194.32 355.805C192.523 350.258 191.625 344.262 191.625 337.816C191.625 331.215 192.562 325.16 194.438 319.652C196.352 314.145 199.105 309.457 202.699 305.59C206.293 301.723 210.668 298.773 215.824 296.742C220.98 294.672 226.84 293.637 233.402 293.637ZM258.129 337.816C258.129 331.527 257.113 326.078 255.082 321.469C253.051 316.859 250.141 313.383 246.352 311.039C242.602 308.656 238.285 307.465 233.402 307.465C229.926 307.465 226.703 308.129 223.734 309.457C220.805 310.746 218.266 312.641 216.117 315.141C214.008 317.641 212.328 320.844 211.078 324.75C209.867 328.617 209.262 332.973 209.262 337.816C209.262 342.699 209.867 347.113 211.078 351.059C212.328 355.004 214.066 358.285 216.293 360.902C218.559 363.48 221.137 365.414 224.027 366.703C226.957 367.992 230.16 368.637 233.637 368.637C238.09 368.637 242.172 367.523 245.883 365.297C249.633 363.07 252.602 359.633 254.789 354.984C257.016 350.336 258.129 344.613 258.129 337.816ZM307.999 305.062L327.452 362.66L346.964 304.652C347.98 301.605 348.741 299.496 349.249 298.324C349.757 297.113 350.597 296.039 351.769 295.102C352.941 294.125 354.542 293.637 356.573 293.637C358.058 293.637 359.425 294.008 360.675 294.75C361.964 295.492 362.96 296.488 363.663 297.738C364.405 298.949 364.777 300.18 364.777 301.43C364.777 302.289 364.659 303.227 364.425 304.242C364.191 305.219 363.898 306.195 363.546 307.172C363.195 308.109 362.843 309.086 362.491 310.102L341.691 366.234C340.948 368.383 340.206 370.434 339.464 372.387C338.722 374.301 337.863 376 336.886 377.484C335.909 378.93 334.601 380.121 332.96 381.059C331.359 381.996 329.386 382.465 327.042 382.465C324.698 382.465 322.706 381.996 321.066 381.059C319.464 380.16 318.155 378.969 317.14 377.484C316.163 375.961 315.304 374.242 314.562 372.328C313.82 370.414 313.077 368.383 312.335 366.234L291.886 310.57C291.534 309.555 291.163 308.559 290.773 307.582C290.421 306.605 290.109 305.551 289.835 304.418C289.601 303.285 289.484 302.328 289.484 301.547C289.484 299.555 290.284 297.738 291.886 296.098C293.488 294.457 295.499 293.637 297.921 293.637C300.89 293.637 302.98 294.555 304.191 296.391C305.441 298.188 306.71 301.078 307.999 305.062Z" fill="white"/>
</g>
<defs>
<clipPath id="clip0">
<rect width="512" height="512" fill="white"/>
</clipPath>
</defs>
</svg>
