<svg width="512" height="512" viewBox="0 0 512 512" fill="none" xmlns="http://www.w3.org/2000/svg">
<g clip-path="url(#clip0)">
<path d="M95.5 485V433L96 239.5V25C101.6 5.4 118.333 0.5 126 0.5H352L479 128V330V489C472.2 506.6 458.167 511.667 452 512C347 511.833 135.8 511.6 131 512C125 512.5 118 510.5 108 504.5C100 499.7 96.3333 489.5 95.5 485Z" fill="#E2E5E7"/>
<path d="M479 223V128L466 115H450.5L373.5 117L479 223Z" fill="#CAD1D8"/>
<path d="M352 98V0.5L478.5 128H384.5C360.1 126.4 352.667 107.333 352 98Z" fill="#B0B7BD"/>
<path d="M97 402V447.5L402 448C412.4 446.8 415.667 438.5 416 434.5V402H97Z" fill="#CAD1D8"/>
<rect x="32" y="240" width="384" height="192" rx="16" fill="#F7B84E"/>
<path d="M128.395 368.051L114.626 313.324V372.621C114.626 375.902 113.884 378.363 112.399 380.004C110.954 381.645 109.02 382.465 106.598 382.465C104.255 382.465 102.341 381.664 100.856 380.062C99.3719 378.422 98.6297 375.941 98.6297 372.621V304.652C98.6297 300.902 99.6062 298.383 101.559 297.094C103.512 295.766 106.149 295.102 109.47 295.102H114.86C118.102 295.102 120.446 295.395 121.891 295.98C123.376 296.566 124.47 297.621 125.173 299.145C125.876 300.668 126.677 303.148 127.575 306.586L140.055 353.637L152.536 306.586C153.434 303.148 154.235 300.668 154.938 299.145C155.641 297.621 156.716 296.566 158.161 295.98C159.645 295.395 162.009 295.102 165.251 295.102H170.641C173.962 295.102 176.598 295.766 178.552 297.094C180.505 298.383 181.481 300.902 181.481 304.652V372.621C181.481 375.902 180.739 378.363 179.255 380.004C177.809 381.645 175.856 382.465 173.395 382.465C171.091 382.465 169.196 381.645 167.712 380.004C166.227 378.363 165.485 375.902 165.485 372.621V313.324L151.716 368.051C150.817 371.605 150.075 374.223 149.489 375.902C148.942 377.543 147.907 379.047 146.384 380.414C144.86 381.781 142.751 382.465 140.055 382.465C138.024 382.465 136.305 382.016 134.899 381.117C133.493 380.258 132.399 379.145 131.618 377.777C130.837 376.41 130.212 374.906 129.743 373.266C129.313 371.586 128.864 369.848 128.395 368.051ZM240.492 347.543H224.555V371.859C224.555 375.336 223.734 377.973 222.094 379.77C220.453 381.566 218.383 382.465 215.883 382.465C213.266 382.465 211.156 381.586 209.555 379.828C207.953 378.031 207.152 375.414 207.152 371.977V305.766C207.152 301.938 208.031 299.203 209.789 297.562C211.547 295.922 214.34 295.102 218.168 295.102H240.492C247.094 295.102 252.172 295.609 255.727 296.625C259.242 297.602 262.27 299.223 264.809 301.488C267.387 303.754 269.34 306.527 270.668 309.809C271.996 313.09 272.66 316.781 272.66 320.883C272.66 329.633 269.965 336.273 264.574 340.805C259.184 345.297 251.156 347.543 240.492 347.543ZM236.273 308.168H224.555V334.418H236.273C240.375 334.418 243.793 333.988 246.527 333.129C249.301 332.27 251.41 330.863 252.855 328.91C254.301 326.957 255.023 324.398 255.023 321.234C255.023 317.445 253.91 314.359 251.684 311.977C249.184 309.438 244.047 308.168 236.273 308.168ZM318.488 329.145C322.081 329.145 325.167 328.09 327.745 325.98C330.363 323.871 331.671 320.844 331.671 316.898C331.671 313.891 330.636 311.312 328.566 309.164C326.495 306.977 323.702 305.883 320.187 305.883C317.804 305.883 315.831 306.215 314.269 306.879C312.745 307.543 311.534 308.422 310.636 309.516C309.738 310.609 308.878 312.016 308.058 313.734C307.277 315.453 306.554 317.074 305.89 318.598C305.499 319.418 304.796 320.062 303.78 320.531C302.765 321 301.593 321.234 300.265 321.234C298.702 321.234 297.257 320.609 295.929 319.359C294.64 318.07 293.995 316.371 293.995 314.262C293.995 312.23 294.601 310.102 295.812 307.875C297.062 305.609 298.859 303.461 301.202 301.43C303.585 299.398 306.534 297.777 310.05 296.566C313.566 295.316 317.491 294.691 321.827 294.691C325.616 294.691 329.073 295.219 332.198 296.273C335.323 297.289 338.038 298.773 340.343 300.727C342.648 302.68 344.386 304.945 345.558 307.523C346.73 310.102 347.316 312.875 347.316 315.844C347.316 319.75 346.456 323.109 344.738 325.922C343.058 328.695 340.636 331.41 337.472 334.066C340.519 335.707 343.077 337.582 345.148 339.691C347.257 341.801 348.839 344.145 349.894 346.723C350.948 349.262 351.476 352.016 351.476 354.984C351.476 358.539 350.753 361.977 349.308 365.297C347.902 368.617 345.812 371.586 343.038 374.203C340.265 376.781 336.964 378.812 333.136 380.297C329.347 381.742 325.148 382.465 320.538 382.465C315.851 382.465 311.652 381.625 307.941 379.945C304.23 378.266 301.163 376.176 298.741 373.676C296.359 371.137 294.542 368.52 293.292 365.824C292.081 363.129 291.476 360.902 291.476 359.145C291.476 356.879 292.198 355.062 293.644 353.695C295.128 352.289 296.964 351.586 299.152 351.586C300.245 351.586 301.3 351.918 302.316 352.582C303.331 353.207 303.995 353.969 304.308 354.867C306.339 360.297 308.507 364.34 310.812 366.996C313.155 369.613 316.437 370.922 320.655 370.922C323.077 370.922 325.402 370.336 327.628 369.164C329.894 367.953 331.749 366.176 333.195 363.832C334.679 361.488 335.421 358.773 335.421 355.688C335.421 351.117 334.171 347.543 331.671 344.965C329.171 342.348 325.695 341.039 321.241 341.039C320.46 341.039 319.249 341.117 317.609 341.273C315.968 341.43 314.913 341.508 314.445 341.508C312.296 341.508 310.636 340.98 309.464 339.926C308.292 338.832 307.706 337.328 307.706 335.414C307.706 333.539 308.409 332.035 309.816 330.902C311.222 329.73 313.312 329.145 316.085 329.145H318.488Z" fill="white"/>
</g>
<defs>
<clipPath id="clip0">
<rect width="512" height="512" fill="white"/>
</clipPath>
</defs>
</svg>
