<svg width="512" height="512" viewBox="0 0 512 512" fill="none" xmlns="http://www.w3.org/2000/svg">
<g clip-path="url(#clip0)">
<path d="M95.5 485V433L96 239.5V25C101.6 5.4 118.333 0.5 126 0.5H352L479 128V330V489C472.2 506.6 458.167 511.667 452 512C347 511.833 135.8 511.6 131 512C125 512.5 118 510.5 108 504.5C100 499.7 96.3333 489.5 95.5 485Z" fill="#E2E5E7"/>
<path d="M479 223V128L466 115H450.5L373.5 117L479 223Z" fill="#CAD1D8"/>
<path d="M352 98V0.5L478.5 128H384.5C360.1 126.4 352.667 107.333 352 98Z" fill="#B0B7BD"/>
<path d="M97 402V447.5L402 448C412.4 446.8 415.667 438.5 416 434.5V402H97Z" fill="#CAD1D8"/>
<rect x="32" y="240" width="384" height="192" rx="16" fill="#F7B84E"/>
<path d="M128.395 368.051L114.626 313.324V372.621C114.626 375.902 113.884 378.363 112.399 380.004C110.954 381.645 109.02 382.465 106.598 382.465C104.255 382.465 102.341 381.664 100.856 380.062C99.3719 378.422 98.6297 375.941 98.6297 372.621V304.652C98.6297 300.902 99.6062 298.383 101.559 297.094C103.512 295.766 106.149 295.102 109.47 295.102H114.86C118.102 295.102 120.446 295.395 121.891 295.98C123.376 296.566 124.47 297.621 125.173 299.145C125.876 300.668 126.677 303.148 127.575 306.586L140.055 353.637L152.536 306.586C153.434 303.148 154.235 300.668 154.938 299.145C155.641 297.621 156.716 296.566 158.161 295.98C159.645 295.395 162.009 295.102 165.251 295.102H170.641C173.962 295.102 176.598 295.766 178.552 297.094C180.505 298.383 181.481 300.902 181.481 304.652V372.621C181.481 375.902 180.739 378.363 179.255 380.004C177.809 381.645 175.856 382.465 173.395 382.465C171.091 382.465 169.196 381.645 167.712 380.004C166.227 378.363 165.485 375.902 165.485 372.621V313.324L151.716 368.051C150.817 371.605 150.075 374.223 149.489 375.902C148.942 377.543 147.907 379.047 146.384 380.414C144.86 381.781 142.751 382.465 140.055 382.465C138.024 382.465 136.305 382.016 134.899 381.117C133.493 380.258 132.399 379.145 131.618 377.777C130.837 376.41 130.212 374.906 129.743 373.266C129.313 371.586 128.864 369.848 128.395 368.051ZM240.492 347.543H224.555V371.859C224.555 375.336 223.734 377.973 222.094 379.77C220.453 381.566 218.383 382.465 215.883 382.465C213.266 382.465 211.156 381.586 209.555 379.828C207.953 378.031 207.152 375.414 207.152 371.977V305.766C207.152 301.938 208.031 299.203 209.789 297.562C211.547 295.922 214.34 295.102 218.168 295.102H240.492C247.094 295.102 252.172 295.609 255.727 296.625C259.242 297.602 262.27 299.223 264.809 301.488C267.387 303.754 269.34 306.527 270.668 309.809C271.996 313.09 272.66 316.781 272.66 320.883C272.66 329.633 269.965 336.273 264.574 340.805C259.184 345.297 251.156 347.543 240.492 347.543ZM236.273 308.168H224.555V334.418H236.273C240.375 334.418 243.793 333.988 246.527 333.129C249.301 332.27 251.41 330.863 252.855 328.91C254.301 326.957 255.023 324.398 255.023 321.234C255.023 317.445 253.91 314.359 251.684 311.977C249.184 309.438 244.047 308.168 236.273 308.168ZM327.628 373.559V362.66H298.214C294.503 362.66 291.71 361.82 289.835 360.141C287.999 358.461 287.081 356.176 287.081 353.285C287.081 352.543 287.218 351.801 287.491 351.059C287.765 350.277 288.175 349.477 288.722 348.656C289.269 347.797 289.835 346.977 290.421 346.195C291.007 345.414 291.73 344.457 292.589 343.324L323.644 301.781C325.675 299.047 327.335 297.074 328.624 295.863C329.952 294.613 331.534 293.988 333.37 293.988C339.308 293.988 342.277 297.387 342.277 304.184V349.535H344.796C347.804 349.535 350.206 349.945 352.003 350.766C353.839 351.586 354.757 353.383 354.757 356.156C354.757 358.422 354.015 360.082 352.53 361.137C351.046 362.152 348.82 362.66 345.851 362.66H342.277V373.559C342.277 376.566 341.613 378.812 340.284 380.297C338.956 381.742 337.179 382.465 334.952 382.465C332.765 382.465 330.988 381.723 329.62 380.238C328.292 378.715 327.628 376.488 327.628 373.559ZM302.433 349.535H327.628V315.492L302.433 349.535Z" fill="white"/>
</g>
<defs>
<clipPath id="clip0">
<rect width="512" height="512" fill="white"/>
</clipPath>
</defs>
</svg>
