<svg width="512" height="512" viewBox="0 0 512 512" fill="none" xmlns="http://www.w3.org/2000/svg">
<g clip-path="url(#clip0)">
<path d="M95.5 485V433L96 239.5V25C101.6 5.4 118.333 0.5 126 0.5H352L479 128V330V489C472.2 506.6 458.167 511.667 452 512C347 511.833 135.8 511.6 131 512C125 512.5 118 510.5 108 504.5C100 499.7 96.3333 489.5 95.5 485Z" fill="#E2E5E7"/>
<path d="M479 223V128L466 115H450.5L373.5 117L479 223Z" fill="#CAD1D8"/>
<path d="M352 98V0.5L478.5 128H384.5C360.1 126.4 352.667 107.333 352 98Z" fill="#B0B7BD"/>
<path d="M97 402V447.5L402 448C412.4 446.8 415.667 438.5 416 434.5V402H97Z" fill="#CAD1D8"/>
<rect x="10" y="240" width="384" height="192" rx="16" fill="#F7B84E"/>
<path d="M104.669 367.051L90.8992 312.324V371.621C90.8992 374.902 90.157 377.363 88.6727 379.004C87.2273 380.645 85.2937 381.465 82.8719 381.465C80.5281 381.465 78.6141 380.664 77.1297 379.062C75.6453 377.422 74.9031 374.941 74.9031 371.621V303.652C74.9031 299.902 75.8797 297.383 77.8328 296.094C79.7859 294.766 82.4227 294.102 85.743 294.102H91.1336C94.3758 294.102 96.7195 294.395 98.1648 294.98C99.6492 295.566 100.743 296.621 101.446 298.145C102.149 299.668 102.95 302.148 103.848 305.586L116.329 352.637L128.809 305.586C129.708 302.148 130.509 299.668 131.212 298.145C131.915 296.621 132.989 295.566 134.434 294.98C135.919 294.395 138.282 294.102 141.524 294.102H146.915C150.235 294.102 152.872 294.766 154.825 296.094C156.778 297.383 157.755 299.902 157.755 303.652V371.621C157.755 374.902 157.012 377.363 155.528 379.004C154.083 380.645 152.13 381.465 149.669 381.465C147.364 381.465 145.47 380.645 143.985 379.004C142.501 377.363 141.759 374.902 141.759 371.621V312.324L127.989 367.051C127.091 370.605 126.348 373.223 125.762 374.902C125.216 376.543 124.18 378.047 122.657 379.414C121.134 380.781 119.024 381.465 116.329 381.465C114.298 381.465 112.579 381.016 111.173 380.117C109.766 379.258 108.673 378.145 107.891 376.777C107.11 375.41 106.485 373.906 106.016 372.266C105.587 370.586 105.137 368.848 104.669 367.051ZM216.766 346.543H200.828V370.859C200.828 374.336 200.008 376.973 198.367 378.77C196.727 380.566 194.656 381.465 192.156 381.465C189.539 381.465 187.43 380.586 185.828 378.828C184.227 377.031 183.426 374.414 183.426 370.977V304.766C183.426 300.938 184.305 298.203 186.062 296.562C187.82 294.922 190.613 294.102 194.441 294.102H216.766C223.367 294.102 228.445 294.609 232 295.625C235.516 296.602 238.543 298.223 241.082 300.488C243.66 302.754 245.613 305.527 246.941 308.809C248.27 312.09 248.934 315.781 248.934 319.883C248.934 328.633 246.238 335.273 240.848 339.805C235.457 344.297 227.43 346.543 216.766 346.543ZM212.547 307.168H200.828V333.418H212.547C216.648 333.418 220.066 332.988 222.801 332.129C225.574 331.27 227.684 329.863 229.129 327.91C230.574 325.957 231.297 323.398 231.297 320.234C231.297 316.445 230.184 313.359 227.957 310.977C225.457 308.438 220.32 307.168 212.547 307.168ZM315.679 370.273L311.577 359.492H276.655L272.554 370.508C270.952 374.805 269.585 377.715 268.452 379.238C267.32 380.723 265.464 381.465 262.886 381.465C260.698 381.465 258.765 380.664 257.085 379.062C255.405 377.461 254.566 375.645 254.566 373.613C254.566 372.441 254.761 371.23 255.152 369.98C255.542 368.73 256.187 366.992 257.085 364.766L279.058 308.984C279.683 307.383 280.425 305.469 281.284 303.242C282.183 300.977 283.12 299.102 284.097 297.617C285.113 296.133 286.421 294.941 288.023 294.043C289.663 293.105 291.675 292.637 294.058 292.637C296.48 292.637 298.491 293.105 300.093 294.043C301.734 294.941 303.042 296.113 304.019 297.559C305.034 299.004 305.874 300.566 306.538 302.246C307.241 303.887 308.12 306.094 309.175 308.867L331.616 364.297C333.374 368.516 334.253 371.582 334.253 373.496C334.253 375.488 333.413 377.324 331.734 379.004C330.093 380.645 328.101 381.465 325.757 381.465C324.39 381.465 323.218 381.211 322.241 380.703C321.265 380.234 320.445 379.59 319.78 378.77C319.116 377.91 318.394 376.621 317.613 374.902C316.87 373.145 316.226 371.602 315.679 370.273ZM281.226 346.426H306.89L293.941 310.977L281.226 346.426Z" fill="white"/>
</g>
<defs>
<clipPath id="clip0">
<rect width="512" height="512" fill="white"/>
</clipPath>
</defs>
</svg>
