<svg width="512" height="512" viewBox="0 0 512 512" fill="none" xmlns="http://www.w3.org/2000/svg">
<g clip-path="url(#clip0)">
<path d="M95.5 485V433L96 239.5V25C101.6 5.4 118.333 0.5 126 0.5H352L479 128V330V489C472.2 506.6 458.167 511.667 452 512C347 511.833 135.8 511.6 131 512C125 512.5 118 510.5 108 504.5C100 499.7 96.3333 489.5 95.5 485Z" fill="#E2E5E7"/>
<path d="M479 223V128L466 115H450.5L373.5 117L479 223Z" fill="#CAD1D8"/>
<path d="M352 98V0.5L478.5 128H384.5C360.1 126.4 352.667 107.333 352 98Z" fill="#B0B7BD"/>
<path d="M97 402V447.5L402 448C412.4 446.8 415.667 438.5 416 434.5V402H97Z" fill="#CAD1D8"/>
<rect x="32" y="240" width="384" height="192" rx="16" fill="#F7B84E"/>
<path d="M78.9257 365.59L65.7299 313.144V369.97C65.7299 373.115 65.0186 375.473 63.5961 377.045C62.211 378.618 60.358 379.404 58.037 379.404C55.7909 379.404 53.9566 378.636 52.5341 377.102C51.1116 375.529 50.4003 373.152 50.4003 369.97V304.833C50.4003 301.24 51.3362 298.825 53.2079 297.59C55.0797 296.317 57.6065 295.681 60.7885 295.681H65.9545C69.0616 295.681 71.3077 295.961 72.6928 296.523C74.1153 297.084 75.1635 298.095 75.8373 299.555C76.5111 301.015 77.2786 303.392 78.1396 306.687L90.1 351.777L102.06 306.687C102.921 303.392 103.689 301.015 104.363 299.555C105.037 298.095 106.066 297.084 107.451 296.523C108.874 295.961 111.138 295.681 114.246 295.681H119.412C122.593 295.681 125.12 296.317 126.992 297.59C128.864 298.825 129.8 301.24 129.8 304.833V369.97C129.8 373.115 129.088 375.473 127.666 377.045C126.281 378.618 124.409 379.404 122.051 379.404C119.842 379.404 118.026 378.618 116.604 377.045C115.181 375.473 114.47 373.115 114.47 369.97V313.144L101.274 365.59C100.413 368.997 99.7021 371.505 99.1405 373.115C98.6164 374.687 97.6244 376.128 96.1645 377.438C94.7045 378.749 92.683 379.404 90.1 379.404C88.1534 379.404 86.5063 378.973 85.1586 378.112C83.8109 377.289 82.7628 376.222 82.0141 374.912C81.2654 373.601 80.6664 372.16 80.2172 370.588C79.8054 368.978 79.3749 367.312 78.9257 365.59ZM186.352 345.937H171.078V369.24C171.078 372.572 170.292 375.099 168.72 376.821C167.148 378.543 165.164 379.404 162.768 379.404C160.26 379.404 158.238 378.562 156.703 376.877C155.169 375.155 154.401 372.647 154.401 369.353V305.9C154.401 302.232 155.243 299.611 156.928 298.039C158.613 296.467 161.289 295.681 164.958 295.681H186.352C192.678 295.681 197.545 296.167 200.951 297.141C204.321 298.076 207.222 299.63 209.655 301.801C212.126 303.972 213.998 306.63 215.27 309.775C216.543 312.919 217.179 316.457 217.179 320.388C217.179 328.773 214.596 335.137 209.43 339.479C204.264 343.785 196.572 345.937 186.352 345.937ZM182.309 308.203H171.078V333.359H182.309C186.24 333.359 189.515 332.947 192.136 332.124C194.793 331.3 196.815 329.952 198.2 328.081C199.585 326.209 200.278 323.757 200.278 320.725C200.278 317.093 199.211 314.136 197.077 311.853C194.681 309.419 189.758 308.203 182.309 308.203ZM292.823 308.54H255.258V328.754H289.847C292.393 328.754 294.283 329.335 295.519 330.495C296.792 331.618 297.428 333.116 297.428 334.987C297.428 336.859 296.81 338.394 295.575 339.592C294.34 340.752 292.43 341.333 289.847 341.333H255.258V364.748H294.115C296.735 364.748 298.701 365.366 300.011 366.601C301.359 367.799 302.032 369.409 302.032 371.43C302.032 373.377 301.359 374.968 300.011 376.203C298.701 377.401 296.735 378 294.115 378H248.8C245.169 378 242.548 377.195 240.939 375.585C239.366 373.976 238.58 371.374 238.58 367.78V305.9C238.58 303.505 238.936 301.558 239.647 300.061C240.358 298.526 241.463 297.421 242.96 296.748C244.495 296.036 246.442 295.681 248.8 295.681H292.823C295.481 295.681 297.447 296.28 298.719 297.478C300.03 298.638 300.685 300.173 300.685 302.082C300.685 304.029 300.03 305.601 298.719 306.799C297.447 307.959 295.481 308.54 292.823 308.54ZM397.947 344.533V360.312C397.947 362.408 397.741 364.093 397.33 365.366C396.918 366.601 396.15 367.724 395.027 368.735C393.942 369.746 392.538 370.719 390.816 371.655C385.837 374.35 381.046 376.315 376.441 377.551C371.837 378.786 366.82 379.404 361.392 379.404C355.066 379.404 349.301 378.431 344.097 376.484C338.894 374.537 334.458 371.711 330.789 368.005C327.121 364.299 324.294 359.807 322.31 354.528C320.364 349.25 319.39 343.354 319.39 336.84C319.39 330.439 320.345 324.58 322.254 319.265C324.163 313.949 326.971 309.438 330.677 305.732C334.383 302.026 338.894 299.2 344.21 297.253C349.525 295.269 355.552 294.277 362.291 294.277C367.831 294.277 372.735 295.026 377.003 296.523C381.27 297.983 384.733 299.836 387.391 302.082C390.049 304.328 392.051 306.705 393.399 309.213C394.747 311.722 395.421 313.949 395.421 315.896C395.421 317.992 394.634 319.789 393.062 321.286C391.527 322.746 389.674 323.476 387.503 323.476C386.305 323.476 385.145 323.195 384.022 322.634C382.936 322.072 382.019 321.286 381.27 320.275C379.211 317.056 377.47 314.623 376.048 312.976C374.625 311.328 372.698 309.943 370.264 308.82C367.868 307.697 364.799 307.136 361.055 307.136C357.199 307.136 353.755 307.81 350.723 309.157C347.691 310.467 345.089 312.395 342.918 314.941C340.784 317.449 339.137 320.537 337.977 324.206C336.854 327.875 336.292 331.936 336.292 336.391C336.292 346.049 338.501 353.48 342.918 358.684C347.373 363.887 353.568 366.489 361.504 366.489C365.36 366.489 368.973 365.983 372.342 364.973C375.748 363.962 379.192 362.521 382.674 360.649V347.285H369.759C366.652 347.285 364.293 346.817 362.684 345.881C361.111 344.945 360.325 343.354 360.325 341.108C360.325 339.274 360.98 337.757 362.291 336.56C363.638 335.362 365.454 334.763 367.737 334.763H386.661C388.982 334.763 390.947 334.969 392.557 335.38C394.166 335.792 395.458 336.709 396.431 338.132C397.442 339.554 397.947 341.688 397.947 344.533Z" fill="white"/>
</g>
<defs>
<clipPath id="clip0">
<rect width="512" height="512" fill="white"/>
</clipPath>
</defs>
</svg>
