<svg width="512" height="512" viewBox="0 0 512 512" fill="none" xmlns="http://www.w3.org/2000/svg">
<g clip-path="url(#clip0)">
<path d="M95.5 485V433L96 239.5V25C101.6 5.4 118.333 0.5 126 0.5H352L479 128V330V489C472.2 506.6 458.167 511.667 452 512C347 511.833 135.8 511.6 131 512C125 512.5 118 510.5 108 504.5C100 499.7 96.3333 489.5 95.5 485Z" fill="#E2E5E7"/>
<path d="M479 223V128L466 115H450.5L373.5 117L479 223Z" fill="#CAD1D8"/>
<path d="M352 98V0.5L478.5 128H384.5C360.1 126.4 352.667 107.333 352 98Z" fill="#B0B7BD"/>
<path d="M97 402V447.5L402 448C412.4 446.8 415.667 438.5 416 434.5V402H97Z" fill="#CAD1D8"/>
<rect x="10" y="240" width="384" height="192" rx="16" fill="#F7B84E"/>
<path d="M95.5594 367.051L81.7898 312.324V371.621C81.7898 374.902 81.0477 377.363 79.5633 379.004C78.118 380.645 76.1844 381.465 73.7625 381.465C71.4187 381.465 69.5047 380.664 68.0203 379.062C66.5359 377.422 65.7937 374.941 65.7937 371.621V303.652C65.7937 299.902 66.7703 297.383 68.7234 296.094C70.6766 294.766 73.3133 294.102 76.6336 294.102H82.0242C85.2664 294.102 87.6102 294.395 89.0555 294.98C90.5398 295.566 91.6336 296.621 92.3367 298.145C93.0398 299.668 93.8406 302.148 94.7391 305.586L107.22 352.637L119.7 305.586C120.598 302.148 121.399 299.668 122.102 298.145C122.805 296.621 123.88 295.566 125.325 294.98C126.809 294.395 129.173 294.102 132.415 294.102H137.805C141.126 294.102 143.762 294.766 145.716 296.094C147.669 297.383 148.645 299.902 148.645 303.652V371.621C148.645 374.902 147.903 377.363 146.419 379.004C144.973 380.645 143.02 381.465 140.559 381.465C138.255 381.465 136.36 380.645 134.876 379.004C133.391 377.363 132.649 374.902 132.649 371.621V312.324L118.88 367.051C117.981 370.605 117.239 373.223 116.653 374.902C116.106 376.543 115.071 378.047 113.548 379.414C112.024 380.781 109.915 381.465 107.22 381.465C105.188 381.465 103.47 381.016 102.063 380.117C100.657 379.258 99.5633 378.145 98.782 376.777C98.0008 375.41 97.3758 373.906 96.907 372.266C96.4773 370.586 96.0281 368.848 95.5594 367.051ZM207.656 346.543H191.719V370.859C191.719 374.336 190.898 376.973 189.258 378.77C187.617 380.566 185.547 381.465 183.047 381.465C180.43 381.465 178.32 380.586 176.719 378.828C175.117 377.031 174.316 374.414 174.316 370.977V304.766C174.316 300.938 175.195 298.203 176.953 296.562C178.711 294.922 181.504 294.102 185.332 294.102H207.656C214.258 294.102 219.336 294.609 222.891 295.625C226.406 296.602 229.434 298.223 231.973 300.488C234.551 302.754 236.504 305.527 237.832 308.809C239.16 312.09 239.824 315.781 239.824 319.883C239.824 328.633 237.129 335.273 231.738 339.805C226.348 344.297 218.32 346.543 207.656 346.543ZM203.438 307.168H191.719V333.418H203.438C207.539 333.418 210.957 332.988 213.691 332.129C216.465 331.27 218.574 329.863 220.02 327.91C221.465 325.957 222.188 323.398 222.188 320.234C222.188 316.445 221.074 313.359 218.848 310.977C216.348 308.438 211.211 307.168 203.438 307.168ZM340.613 345.078V361.543C340.613 363.73 340.398 365.488 339.968 366.816C339.538 368.105 338.738 369.277 337.566 370.332C336.433 371.387 334.968 372.402 333.171 373.379C327.976 376.191 322.976 378.242 318.171 379.531C313.366 380.82 308.132 381.465 302.468 381.465C295.866 381.465 289.851 380.449 284.421 378.418C278.991 376.387 274.363 373.438 270.534 369.57C266.706 365.703 263.757 361.016 261.687 355.508C259.655 350 258.64 343.848 258.64 337.051C258.64 330.371 259.636 324.258 261.628 318.711C263.62 313.164 266.55 308.457 270.417 304.59C274.284 300.723 278.991 297.773 284.538 295.742C290.085 293.672 296.374 292.637 303.405 292.637C309.187 292.637 314.304 293.418 318.757 294.98C323.21 296.504 326.823 298.438 329.597 300.781C332.37 303.125 334.46 305.605 335.866 308.223C337.273 310.84 337.976 313.164 337.976 315.195C337.976 317.383 337.155 319.258 335.515 320.82C333.913 322.344 331.98 323.105 329.714 323.105C328.464 323.105 327.253 322.812 326.081 322.227C324.948 321.641 323.991 320.82 323.21 319.766C321.062 316.406 319.245 313.867 317.761 312.148C316.277 310.43 314.265 308.984 311.726 307.812C309.226 306.641 306.023 306.055 302.116 306.055C298.093 306.055 294.499 306.758 291.335 308.164C288.171 309.531 285.456 311.543 283.191 314.199C280.964 316.816 279.245 320.039 278.034 323.867C276.863 327.695 276.277 331.934 276.277 336.582C276.277 346.66 278.581 354.414 283.191 359.844C287.839 365.273 294.304 367.988 302.585 367.988C306.609 367.988 310.378 367.461 313.894 366.406C317.448 365.352 321.042 363.848 324.675 361.895V347.949H311.198C307.956 347.949 305.495 347.461 303.816 346.484C302.175 345.508 301.355 343.848 301.355 341.504C301.355 339.59 302.038 338.008 303.405 336.758C304.812 335.508 306.706 334.883 309.089 334.883H328.835C331.257 334.883 333.308 335.098 334.988 335.527C336.667 335.957 338.015 336.914 339.03 338.398C340.085 339.883 340.613 342.109 340.613 345.078Z" fill="white"/>
</g>
<defs>
<clipPath id="clip0">
<rect width="512" height="512" fill="white"/>
</clipPath>
</defs>
</svg>
