<svg width="512" height="512" viewBox="0 0 512 512" fill="none" xmlns="http://www.w3.org/2000/svg">
<g clip-path="url(#clip0)">
<path d="M95.5 485V433L96 239.5V25C101.6 5.4 118.333 0.5 126 0.5H352L479 128V330V489C472.2 506.6 458.167 511.667 452 512C347 511.833 135.8 511.6 131 512C125 512.5 118 510.5 108 504.5C100 499.7 96.3333 489.5 95.5 485Z" fill="#E2E5E7"/>
<path d="M479 223V128L466 115H450.5L373.5 117L479 223Z" fill="#CAD1D8"/>
<path d="M352 98V0.5L478.5 128H384.5C360.1 126.4 352.667 107.333 352 98Z" fill="#B0B7BD"/>
<path d="M97 402V447.5L402 448C412.4 446.8 415.667 438.5 416 434.5V402H97Z" fill="#CAD1D8"/>
<rect x="10" y="240" width="384" height="192" rx="16" fill="#F7B84E"/>
<path d="M95.5594 367.051L81.7898 312.324V371.621C81.7898 374.902 81.0477 377.363 79.5633 379.004C78.118 380.645 76.1844 381.465 73.7625 381.465C71.4187 381.465 69.5047 380.664 68.0203 379.062C66.5359 377.422 65.7937 374.941 65.7937 371.621V303.652C65.7937 299.902 66.7703 297.383 68.7234 296.094C70.6766 294.766 73.3133 294.102 76.6336 294.102H82.0242C85.2664 294.102 87.6102 294.395 89.0555 294.98C90.5398 295.566 91.6336 296.621 92.3367 298.145C93.0398 299.668 93.8406 302.148 94.7391 305.586L107.22 352.637L119.7 305.586C120.598 302.148 121.399 299.668 122.102 298.145C122.805 296.621 123.88 295.566 125.325 294.98C126.809 294.395 129.173 294.102 132.415 294.102H137.805C141.126 294.102 143.762 294.766 145.716 296.094C147.669 297.383 148.645 299.902 148.645 303.652V371.621C148.645 374.902 147.903 377.363 146.419 379.004C144.973 380.645 143.02 381.465 140.559 381.465C138.255 381.465 136.36 380.645 134.876 379.004C133.391 377.363 132.649 374.902 132.649 371.621V312.324L118.88 367.051C117.981 370.605 117.239 373.223 116.653 374.902C116.106 376.543 115.071 378.047 113.548 379.414C112.024 380.781 109.915 381.465 107.22 381.465C105.188 381.465 103.47 381.016 102.063 380.117C100.657 379.258 99.5633 378.145 98.782 376.777C98.0008 375.41 97.3758 373.906 96.907 372.266C96.4773 370.586 96.0281 368.848 95.5594 367.051ZM239.59 354.219C239.59 359.414 238.242 364.082 235.547 368.223C232.891 372.363 228.984 375.605 223.828 377.949C218.672 380.293 212.559 381.465 205.488 381.465C197.012 381.465 190.02 379.863 184.512 376.66C180.605 374.355 177.422 371.289 174.961 367.461C172.539 363.594 171.328 359.844 171.328 356.211C171.328 354.102 172.051 352.305 173.496 350.82C174.98 349.297 176.855 348.535 179.121 348.535C180.957 348.535 182.5 349.121 183.75 350.293C185.039 351.465 186.133 353.203 187.031 355.508C188.125 358.242 189.297 360.527 190.547 362.363C191.836 364.199 193.633 365.723 195.938 366.934C198.242 368.105 201.27 368.691 205.02 368.691C210.176 368.691 214.355 367.5 217.559 365.117C220.801 362.695 222.422 359.688 222.422 356.094C222.422 353.242 221.543 350.938 219.785 349.18C218.066 347.383 215.82 346.016 213.047 345.078C210.312 344.141 206.641 343.145 202.031 342.09C195.859 340.645 190.684 338.965 186.504 337.051C182.363 335.098 179.062 332.461 176.602 329.141C174.18 325.781 172.969 321.621 172.969 316.66C172.969 311.934 174.258 307.734 176.836 304.062C179.414 300.391 183.145 297.578 188.027 295.625C192.91 293.633 198.652 292.637 205.254 292.637C210.527 292.637 215.078 293.301 218.906 294.629C222.773 295.918 225.977 297.656 228.516 299.844C231.055 301.992 232.91 304.258 234.082 306.641C235.254 309.023 235.84 311.348 235.84 313.613C235.84 315.684 235.098 317.559 233.613 319.238C232.168 320.879 230.352 321.699 228.164 321.699C226.172 321.699 224.648 321.211 223.594 320.234C222.578 319.219 221.465 317.578 220.254 315.312C218.691 312.07 216.816 309.551 214.629 307.754C212.441 305.918 208.926 305 204.082 305C199.59 305 195.957 305.996 193.184 307.988C190.449 309.941 189.082 312.305 189.082 315.078C189.082 316.797 189.551 318.281 190.488 319.531C191.426 320.781 192.715 321.855 194.355 322.754C195.996 323.652 197.656 324.355 199.336 324.863C201.016 325.371 203.789 326.113 207.656 327.09C212.5 328.223 216.875 329.473 220.781 330.84C224.727 332.207 228.066 333.867 230.801 335.82C233.574 337.773 235.723 340.254 237.246 343.262C238.809 346.23 239.59 349.883 239.59 354.219ZM340.613 345.078V361.543C340.613 363.73 340.398 365.488 339.968 366.816C339.538 368.105 338.738 369.277 337.566 370.332C336.433 371.387 334.968 372.402 333.171 373.379C327.976 376.191 322.976 378.242 318.171 379.531C313.366 380.82 308.132 381.465 302.468 381.465C295.866 381.465 289.851 380.449 284.421 378.418C278.991 376.387 274.363 373.438 270.534 369.57C266.706 365.703 263.757 361.016 261.687 355.508C259.655 350 258.64 343.848 258.64 337.051C258.64 330.371 259.636 324.258 261.628 318.711C263.62 313.164 266.55 308.457 270.417 304.59C274.284 300.723 278.991 297.773 284.538 295.742C290.085 293.672 296.374 292.637 303.405 292.637C309.187 292.637 314.304 293.418 318.757 294.98C323.21 296.504 326.823 298.438 329.597 300.781C332.37 303.125 334.46 305.605 335.866 308.223C337.273 310.84 337.976 313.164 337.976 315.195C337.976 317.383 337.155 319.258 335.515 320.82C333.913 322.344 331.98 323.105 329.714 323.105C328.464 323.105 327.253 322.812 326.081 322.227C324.948 321.641 323.991 320.82 323.21 319.766C321.062 316.406 319.245 313.867 317.761 312.148C316.277 310.43 314.265 308.984 311.726 307.812C309.226 306.641 306.023 306.055 302.116 306.055C298.093 306.055 294.499 306.758 291.335 308.164C288.171 309.531 285.456 311.543 283.191 314.199C280.964 316.816 279.245 320.039 278.034 323.867C276.863 327.695 276.277 331.934 276.277 336.582C276.277 346.66 278.581 354.414 283.191 359.844C287.839 365.273 294.304 367.988 302.585 367.988C306.609 367.988 310.378 367.461 313.894 366.406C317.448 365.352 321.042 363.848 324.675 361.895V347.949H311.198C307.956 347.949 305.495 347.461 303.816 346.484C302.175 345.508 301.355 343.848 301.355 341.504C301.355 339.59 302.038 338.008 303.405 336.758C304.812 335.508 306.706 334.883 309.089 334.883H328.835C331.257 334.883 333.308 335.098 334.988 335.527C336.667 335.957 338.015 336.914 339.03 338.398C340.085 339.883 340.613 342.109 340.613 345.078Z" fill="white"/>
</g>
<defs>
<clipPath id="clip0">
<rect width="512" height="512" fill="white"/>
</clipPath>
</defs>
</svg>
