<svg width="512" height="512" viewBox="0 0 512 512" fill="none" xmlns="http://www.w3.org/2000/svg">
<g clip-path="url(#clip0)">
<path d="M95.5 485V433L96 239.5V25C101.6 5.4 118.333 0.5 126 0.5H352L479 128V330V489C472.2 506.6 458.167 511.667 452 512C347 511.833 135.8 511.6 131 512C125 512.5 118 510.5 108 504.5C100 499.7 96.3333 489.5 95.5 485Z" fill="#E2E5E7"/>
<path d="M479 223V128L466 115H450.5L373.5 117L479 223Z" fill="#CAD1D8"/>
<path d="M352 98V0.5L478.5 128H384.5C360.1 126.4 352.667 107.333 352 98Z" fill="#B0B7BD"/>
<path d="M97 402V447.5L402 448C412.4 446.8 415.667 438.5 416 434.5V402H97Z" fill="#CAD1D8"/>
<rect x="10" y="240" width="384" height="192" rx="16" fill="#F7B84E"/>
<path d="M123.77 367.051L110.001 312.324V371.621C110.001 374.902 109.259 377.363 107.774 379.004C106.329 380.645 104.395 381.465 101.973 381.465C99.6297 381.465 97.7156 380.664 96.2312 379.062C94.7469 377.422 94.0047 374.941 94.0047 371.621V303.652C94.0047 299.902 94.9812 297.383 96.9344 296.094C98.8875 294.766 101.524 294.102 104.845 294.102H110.235C113.477 294.102 115.821 294.395 117.266 294.98C118.751 295.566 119.845 296.621 120.548 298.145C121.251 299.668 122.052 302.148 122.95 305.586L135.43 352.637L147.911 305.586C148.809 302.148 149.61 299.668 150.313 298.145C151.016 296.621 152.091 295.566 153.536 294.98C155.02 294.395 157.384 294.102 160.626 294.102H166.016C169.337 294.102 171.973 294.766 173.927 296.094C175.88 297.383 176.856 299.902 176.856 303.652V371.621C176.856 374.902 176.114 377.363 174.63 379.004C173.184 380.645 171.231 381.465 168.77 381.465C166.466 381.465 164.571 380.645 163.087 379.004C161.602 377.363 160.86 374.902 160.86 371.621V312.324L147.091 367.051C146.192 370.605 145.45 373.223 144.864 374.902C144.317 376.543 143.282 378.047 141.759 379.414C140.235 380.781 138.126 381.465 135.43 381.465C133.399 381.465 131.68 381.016 130.274 380.117C128.868 379.258 127.774 378.145 126.993 376.777C126.212 375.41 125.587 373.906 125.118 372.266C124.688 370.586 124.239 368.848 123.77 367.051ZM267.801 354.219C267.801 359.414 266.453 364.082 263.758 368.223C261.102 372.363 257.195 375.605 252.039 377.949C246.883 380.293 240.77 381.465 233.699 381.465C225.223 381.465 218.23 379.863 212.723 376.66C208.816 374.355 205.633 371.289 203.172 367.461C200.75 363.594 199.539 359.844 199.539 356.211C199.539 354.102 200.262 352.305 201.707 350.82C203.191 349.297 205.066 348.535 207.332 348.535C209.168 348.535 210.711 349.121 211.961 350.293C213.25 351.465 214.344 353.203 215.242 355.508C216.336 358.242 217.508 360.527 218.758 362.363C220.047 364.199 221.844 365.723 224.148 366.934C226.453 368.105 229.48 368.691 233.23 368.691C238.387 368.691 242.566 367.5 245.77 365.117C249.012 362.695 250.633 359.688 250.633 356.094C250.633 353.242 249.754 350.938 247.996 349.18C246.277 347.383 244.031 346.016 241.258 345.078C238.523 344.141 234.852 343.145 230.242 342.09C224.07 340.645 218.895 338.965 214.715 337.051C210.574 335.098 207.273 332.461 204.812 329.141C202.391 325.781 201.18 321.621 201.18 316.66C201.18 311.934 202.469 307.734 205.047 304.062C207.625 300.391 211.355 297.578 216.238 295.625C221.121 293.633 226.863 292.637 233.465 292.637C238.738 292.637 243.289 293.301 247.117 294.629C250.984 295.918 254.188 297.656 256.727 299.844C259.266 301.992 261.121 304.258 262.293 306.641C263.465 309.023 264.051 311.348 264.051 313.613C264.051 315.684 263.309 317.559 261.824 319.238C260.379 320.879 258.562 321.699 256.375 321.699C254.383 321.699 252.859 321.211 251.805 320.234C250.789 319.219 249.676 317.578 248.465 315.312C246.902 312.07 245.027 309.551 242.84 307.754C240.652 305.918 237.137 305 232.293 305C227.801 305 224.168 305.996 221.395 307.988C218.66 309.941 217.293 312.305 217.293 315.078C217.293 316.797 217.762 318.281 218.699 319.531C219.637 320.781 220.926 321.855 222.566 322.754C224.207 323.652 225.867 324.355 227.547 324.863C229.227 325.371 232 326.113 235.867 327.09C240.711 328.223 245.086 329.473 248.992 330.84C252.938 332.207 256.277 333.867 259.012 335.82C261.785 337.773 263.934 340.254 265.457 343.262C267.02 346.23 267.801 349.883 267.801 354.219ZM291.07 370.859V303.184C291.07 299.668 291.87 297.031 293.472 295.273C295.073 293.516 297.144 292.637 299.683 292.637C302.3 292.637 304.409 293.516 306.011 295.273C307.652 296.992 308.472 299.629 308.472 303.184V370.859C308.472 374.414 307.652 377.07 306.011 378.828C304.409 380.586 302.3 381.465 299.683 381.465C297.183 381.465 295.113 380.586 293.472 378.828C291.87 377.031 291.07 374.375 291.07 370.859Z" fill="white"/>
</g>
<defs>
<clipPath id="clip0">
<rect width="512" height="512" fill="white"/>
</clipPath>
</defs>
</svg>
