<svg width="512" height="512" viewBox="0 0 512 512" fill="none" xmlns="http://www.w3.org/2000/svg">
<g clip-path="url(#clip0)">
<path d="M95.5 485V433L96 239.5V25C101.6 5.4 118.333 0.5 126 0.5H352L479 128V330V489C472.2 506.6 458.167 511.667 452 512C347 511.833 135.8 511.6 131 512C125 512.5 118 510.5 108 504.5C100 499.7 96.3333 489.5 95.5 485Z" fill="#E2E5E7"/>
<path d="M479 223V128L466 115H450.5L373.5 117L479 223Z" fill="#CAD1D8"/>
<path d="M352 98V0.5L478.5 128H384.5C360.1 126.4 352.667 107.333 352 98Z" fill="#B0B7BD"/>
<path d="M97 402V447.5L402 448C412.4 446.8 415.667 438.5 416 434.5V402H97Z" fill="#CAD1D8"/>
<rect x="32" y="240" width="384" height="192" rx="16" fill="#F15642"/>
<path d="M122.126 304.066L155.583 354.691V303.598C155.583 300.277 156.286 297.797 157.692 296.156C159.137 294.477 161.071 293.637 163.493 293.637C165.993 293.637 167.966 294.477 169.411 296.156C170.856 297.797 171.579 300.277 171.579 303.598V371.156C171.579 378.695 168.454 382.465 162.204 382.465C160.641 382.465 159.235 382.23 157.985 381.762C156.735 381.332 155.563 380.629 154.47 379.652C153.376 378.676 152.36 377.543 151.423 376.254C150.485 374.926 149.548 373.578 148.61 372.211L115.973 322.172V372.504C115.973 375.785 115.212 378.266 113.688 379.945C112.165 381.625 110.212 382.465 107.829 382.465C105.368 382.465 103.395 381.625 101.911 379.945C100.427 378.227 99.6844 375.746 99.6844 372.504V306.234C99.6844 303.422 99.9969 301.215 100.622 299.613C101.364 297.855 102.595 296.43 104.313 295.336C106.032 294.203 107.887 293.637 109.88 293.637C111.442 293.637 112.77 293.891 113.864 294.398C114.997 294.906 115.973 295.59 116.794 296.449C117.653 297.309 118.512 298.422 119.372 299.789C120.27 301.156 121.188 302.582 122.126 304.066ZM255.023 308.52H215.824V329.613H251.918C254.574 329.613 256.547 330.219 257.836 331.43C259.164 332.602 259.828 334.164 259.828 336.117C259.828 338.07 259.184 339.672 257.895 340.922C256.605 342.133 254.613 342.738 251.918 342.738H215.824V367.172H256.371C259.105 367.172 261.156 367.816 262.523 369.105C263.93 370.355 264.633 372.035 264.633 374.145C264.633 376.176 263.93 377.836 262.523 379.125C261.156 380.375 259.105 381 256.371 381H209.086C205.297 381 202.562 380.16 200.883 378.48C199.242 376.801 198.422 374.086 198.422 370.336V305.766C198.422 303.266 198.793 301.234 199.535 299.672C200.277 298.07 201.43 296.918 202.992 296.215C204.594 295.473 206.625 295.102 209.086 295.102H255.023C257.797 295.102 259.848 295.727 261.176 296.977C262.543 298.188 263.227 299.789 263.227 301.781C263.227 303.812 262.543 305.453 261.176 306.703C259.848 307.914 257.797 308.52 255.023 308.52ZM351.534 355.219C351.534 360.414 350.187 365.082 347.491 369.223C344.835 373.363 340.929 376.605 335.773 378.949C330.616 381.293 324.503 382.465 317.433 382.465C308.956 382.465 301.964 380.863 296.456 377.66C292.55 375.355 289.366 372.289 286.905 368.461C284.484 364.594 283.273 360.844 283.273 357.211C283.273 355.102 283.995 353.305 285.441 351.82C286.925 350.297 288.8 349.535 291.066 349.535C292.902 349.535 294.445 350.121 295.695 351.293C296.984 352.465 298.077 354.203 298.976 356.508C300.07 359.242 301.241 361.527 302.491 363.363C303.78 365.199 305.577 366.723 307.882 367.934C310.187 369.105 313.214 369.691 316.964 369.691C322.12 369.691 326.3 368.5 329.503 366.117C332.745 363.695 334.366 360.688 334.366 357.094C334.366 354.242 333.488 351.938 331.73 350.18C330.011 348.383 327.765 347.016 324.991 346.078C322.257 345.141 318.585 344.145 313.976 343.09C307.804 341.645 302.628 339.965 298.448 338.051C294.308 336.098 291.007 333.461 288.546 330.141C286.124 326.781 284.913 322.621 284.913 317.66C284.913 312.934 286.202 308.734 288.78 305.062C291.359 301.391 295.089 298.578 299.972 296.625C304.855 294.633 310.597 293.637 317.198 293.637C322.472 293.637 327.023 294.301 330.851 295.629C334.718 296.918 337.921 298.656 340.46 300.844C342.999 302.992 344.855 305.258 346.027 307.641C347.198 310.023 347.784 312.348 347.784 314.613C347.784 316.684 347.042 318.559 345.558 320.238C344.113 321.879 342.296 322.699 340.109 322.699C338.116 322.699 336.593 322.211 335.538 321.234C334.523 320.219 333.409 318.578 332.198 316.312C330.636 313.07 328.761 310.551 326.573 308.754C324.386 306.918 320.87 306 316.027 306C311.534 306 307.902 306.996 305.128 308.988C302.394 310.941 301.027 313.305 301.027 316.078C301.027 317.797 301.495 319.281 302.433 320.531C303.37 321.781 304.659 322.855 306.3 323.754C307.941 324.652 309.601 325.355 311.28 325.863C312.96 326.371 315.734 327.113 319.601 328.09C324.445 329.223 328.82 330.473 332.726 331.84C336.671 333.207 340.011 334.867 342.745 336.82C345.519 338.773 347.667 341.254 349.191 344.262C350.753 347.23 351.534 350.883 351.534 355.219Z" fill="white"/>
</g>
<defs>
<clipPath id="clip0">
<rect width="512" height="512" fill="white"/>
</clipPath>
</defs>
</svg>
