<svg width="512" height="512" viewBox="0 0 512 512" fill="none" xmlns="http://www.w3.org/2000/svg">
<g clip-path="url(#clip0)">
<path d="M95.5 485V433L96 239.5V25C101.6 5.4 118.333 0.5 126 0.5H352L479 128V330V489C472.2 506.6 458.167 511.667 452 512C347 511.833 135.8 511.6 131 512C125 512.5 118 510.5 108 504.5C100 499.7 96.3333 489.5 95.5 485Z" fill="#E2E5E7"/>
<path d="M479 223V128L466 115H450.5L373.5 117L479 223Z" fill="#CAD1D8"/>
<path d="M352 98V0.5L478.5 128H384.5C360.1 126.4 352.667 107.333 352 98Z" fill="#B0B7BD"/>
<path d="M97 402V447.5L402 448C412.4 446.8 415.667 438.5 416 434.5V402H97Z" fill="#CAD1D8"/>
<rect x="32" y="240" width="384" height="192" rx="16" fill="#A066AA"/>
<path d="M137.27 293.637C146.177 293.637 153.813 295.453 160.18 299.086C166.587 302.68 171.43 307.816 174.712 314.496C177.993 321.137 179.634 328.949 179.634 337.934C179.634 344.574 178.735 350.609 176.938 356.039C175.141 361.469 172.446 366.176 168.852 370.16C165.259 374.145 160.845 377.191 155.61 379.301C150.376 381.41 144.38 382.465 137.622 382.465C130.903 382.465 124.887 381.391 119.575 379.242C114.262 377.055 109.829 373.988 106.274 370.043C102.72 366.098 100.024 361.352 98.1883 355.805C96.3914 350.258 95.493 344.262 95.493 337.816C95.493 331.215 96.4305 325.16 98.3055 319.652C100.22 314.145 102.973 309.457 106.567 305.59C110.161 301.723 114.536 298.773 119.692 296.742C124.848 294.672 130.708 293.637 137.27 293.637ZM161.997 337.816C161.997 331.527 160.981 326.078 158.95 321.469C156.919 316.859 154.009 313.383 150.22 311.039C146.47 308.656 142.153 307.465 137.27 307.465C133.794 307.465 130.571 308.129 127.602 309.457C124.673 310.746 122.134 312.641 119.985 315.141C117.876 317.641 116.196 320.844 114.946 324.75C113.735 328.617 113.13 332.973 113.13 337.816C113.13 342.699 113.735 347.113 114.946 351.059C116.196 355.004 117.934 358.285 120.161 360.902C122.427 363.48 125.005 365.414 127.895 366.703C130.825 367.992 134.028 368.637 137.505 368.637C141.958 368.637 146.04 367.523 149.751 365.297C153.501 363.07 156.47 359.633 158.657 354.984C160.884 350.336 161.997 344.613 161.997 337.816ZM238.996 381H212.746C208.957 381 206.242 380.16 204.602 378.48C203 376.762 202.199 374.047 202.199 370.336V305.766C202.199 301.977 203.02 299.262 204.66 297.621C206.34 295.941 209.035 295.102 212.746 295.102H240.578C244.68 295.102 248.234 295.355 251.242 295.863C254.25 296.371 256.945 297.348 259.328 298.793C261.359 300.004 263.156 301.547 264.719 303.422C266.281 305.258 267.473 307.309 268.293 309.574C269.113 311.801 269.523 314.164 269.523 316.664C269.523 325.258 265.227 331.547 256.633 335.531C267.922 339.125 273.566 346.117 273.566 356.508C273.566 361.312 272.336 365.648 269.875 369.516C267.414 373.344 264.094 376.176 259.914 378.012C257.297 379.105 254.289 379.887 250.891 380.355C247.492 380.785 243.527 381 238.996 381ZM237.707 342.855H219.602V367.934H238.293C250.051 367.934 255.93 363.695 255.93 355.219C255.93 350.883 254.406 347.738 251.359 345.785C248.312 343.832 243.762 342.855 237.707 342.855ZM219.602 308.168V330.375H235.539C239.875 330.375 243.215 329.965 245.559 329.145C247.941 328.324 249.758 326.762 251.008 324.457C251.984 322.816 252.473 320.98 252.473 318.949C252.473 314.613 250.93 311.742 247.844 310.336C244.758 308.891 240.051 308.168 233.723 308.168H219.602ZM346.405 304.184V349.184C346.405 353.09 346.23 356.41 345.878 359.145C345.566 361.879 344.823 364.652 343.652 367.465C341.698 372.191 338.476 375.883 333.984 378.539C329.491 381.156 324.023 382.465 317.577 382.465C311.757 382.465 306.894 381.547 302.988 379.711C299.12 377.875 295.995 374.906 293.613 370.805C292.363 368.617 291.347 366.098 290.566 363.246C289.784 360.395 289.394 357.68 289.394 355.102C289.394 352.367 290.155 350.277 291.679 348.832C293.202 347.387 295.155 346.664 297.538 346.664C299.843 346.664 301.581 347.328 302.753 348.656C303.925 349.984 304.823 352.055 305.448 354.867C306.113 357.875 306.777 360.277 307.441 362.074C308.105 363.871 309.218 365.414 310.78 366.703C312.343 367.992 314.57 368.637 317.46 368.637C325.155 368.637 329.003 362.992 329.003 351.703V304.184C329.003 300.668 329.765 298.031 331.288 296.273C332.851 294.516 334.96 293.637 337.616 293.637C340.312 293.637 342.441 294.516 344.003 296.273C345.605 298.031 346.405 300.668 346.405 304.184Z" fill="white"/>
</g>
<defs>
<clipPath id="clip0">
<rect width="512" height="512" fill="white"/>
</clipPath>
</defs>
</svg>
