<svg width="512" height="512" viewBox="0 0 512 512" fill="none" xmlns="http://www.w3.org/2000/svg">
<g clip-path="url(#clip0)">
<path d="M95.5 485V433L96 239.5V25C101.6 5.4 118.333 0.5 126 0.5H352L479 128V330V489C472.2 506.6 458.167 511.667 452 512C347 511.833 135.8 511.6 131 512C125 512.5 118 510.5 108 504.5C100 499.7 96.3333 489.5 95.5 485Z" fill="#E2E5E7"/>
<path d="M479 223V128L466 115H450.5L373.5 117L479 223Z" fill="#CAD1D8"/>
<path d="M352 98V0.5L478.5 128H384.5C360.1 126.4 352.667 107.333 352 98Z" fill="#B0B7BD"/>
<path d="M97 402V447.5L402 448C412.4 446.8 415.667 438.5 416 434.5V402H97Z" fill="#CAD1D8"/>
<rect x="32" y="240" width="384" height="192" rx="16" fill="#A066AA"/>
<path d="M133.434 293.637C142.341 293.637 149.977 295.453 156.345 299.086C162.751 302.68 167.595 307.816 170.876 314.496C174.157 321.137 175.798 328.949 175.798 337.934C175.798 344.574 174.899 350.609 173.102 356.039C171.305 361.469 168.61 366.176 165.016 370.16C161.423 374.145 157.009 377.191 151.774 379.301C146.54 381.41 140.544 382.465 133.786 382.465C127.067 382.465 121.052 381.391 115.739 379.242C110.427 377.055 105.993 373.988 102.438 370.043C98.8836 366.098 96.1883 361.352 94.3523 355.805C92.5555 350.258 91.657 344.262 91.657 337.816C91.657 331.215 92.5945 325.16 94.4695 319.652C96.3836 314.145 99.1375 309.457 102.731 305.59C106.325 301.723 110.7 298.773 115.856 296.742C121.012 294.672 126.872 293.637 133.434 293.637ZM158.161 337.816C158.161 331.527 157.145 326.078 155.114 321.469C153.083 316.859 150.173 313.383 146.384 311.039C142.634 308.656 138.317 307.465 133.434 307.465C129.958 307.465 126.735 308.129 123.766 309.457C120.837 310.746 118.298 312.641 116.149 315.141C114.04 317.641 112.36 320.844 111.11 324.75C109.899 328.617 109.294 332.973 109.294 337.816C109.294 342.699 109.899 347.113 111.11 351.059C112.36 355.004 114.098 358.285 116.325 360.902C118.591 363.48 121.169 365.414 124.059 366.703C126.989 367.992 130.192 368.637 133.669 368.637C138.122 368.637 142.204 367.523 145.915 365.297C149.665 363.07 152.634 359.633 154.821 354.984C157.048 350.336 158.161 344.613 158.161 337.816ZM209.262 295.102H231.938C237.836 295.102 242.895 295.648 247.113 296.742C251.332 297.836 255.16 299.887 258.598 302.895C267.543 310.551 272.016 322.191 272.016 337.816C272.016 342.973 271.566 347.68 270.668 351.938C269.77 356.195 268.383 360.043 266.508 363.48C264.633 366.879 262.23 369.926 259.301 372.621C256.996 374.691 254.477 376.352 251.742 377.602C249.008 378.852 246.059 379.73 242.895 380.238C239.77 380.746 236.234 381 232.289 381H209.613C206.449 381 204.066 380.531 202.465 379.594C200.863 378.617 199.809 377.27 199.301 375.551C198.832 373.793 198.598 371.527 198.598 368.754V305.766C198.598 302.016 199.438 299.301 201.117 297.621C202.797 295.941 205.512 295.102 209.262 295.102ZM216 308.871V367.172H229.184C232.074 367.172 234.34 367.094 235.98 366.938C237.621 366.781 239.32 366.391 241.078 365.766C242.836 365.141 244.359 364.262 245.648 363.129C251.469 358.207 254.379 349.73 254.379 337.699C254.379 329.223 253.09 322.875 250.512 318.656C247.973 314.438 244.828 311.762 241.078 310.629C237.328 309.457 232.797 308.871 227.484 308.871H216ZM350.89 309.457H331.905V371.859C331.905 375.453 331.105 378.129 329.503 379.887C327.902 381.605 325.831 382.465 323.292 382.465C320.714 382.465 318.605 381.586 316.964 379.828C315.363 378.07 314.562 375.414 314.562 371.859V309.457H295.577C292.609 309.457 290.402 308.812 288.956 307.523C287.511 306.195 286.788 304.457 286.788 302.309C286.788 300.082 287.53 298.324 289.015 297.035C290.538 295.746 292.726 295.102 295.577 295.102H350.89C353.898 295.102 356.124 295.766 357.57 297.094C359.054 298.422 359.796 300.16 359.796 302.309C359.796 304.457 359.054 306.195 357.57 307.523C356.085 308.812 353.859 309.457 350.89 309.457Z" fill="white"/>
</g>
<defs>
<clipPath id="clip0">
<rect width="512" height="512" fill="white"/>
</clipPath>
</defs>
</svg>
