<svg width="512" height="512" viewBox="0 0 512 512" fill="none" xmlns="http://www.w3.org/2000/svg">
<g clip-path="url(#clip0)">
<path d="M95.5 485V433L96 239.5V25C101.6 5.4 118.333 0.5 126 0.5H352L479 128V330V489C472.2 506.6 458.167 511.667 452 512C347 511.833 135.8 511.6 131 512C125 512.5 118 510.5 108 504.5C100 499.7 96.3333 489.5 95.5 485Z" fill="#E2E5E7"/>
<path d="M479 223V128L466 115H450.5L373.5 117L479 223Z" fill="#CAD1D8"/>
<path d="M352 98V0.5L478.5 128H384.5C360.1 126.4 352.667 107.333 352 98Z" fill="#B0B7BD"/>
<path d="M97 402V447.5L402 448C412.4 446.8 415.667 438.5 416 434.5V402H97Z" fill="#CAD1D8"/>
<rect x="32" y="240" width="384" height="192" rx="16" fill="#A066AA"/>
<path d="M143.364 293.637C152.27 293.637 159.907 295.453 166.274 299.086C172.68 302.68 177.524 307.816 180.805 314.496C184.087 321.137 185.727 328.949 185.727 337.934C185.727 344.574 184.829 350.609 183.032 356.039C181.235 361.469 178.54 366.176 174.946 370.16C171.352 374.145 166.938 377.191 161.704 379.301C156.47 381.41 150.473 382.465 143.716 382.465C136.997 382.465 130.981 381.391 125.669 379.242C120.356 377.055 115.923 373.988 112.368 370.043C108.813 366.098 106.118 361.352 104.282 355.805C102.485 350.258 101.587 344.262 101.587 337.816C101.587 331.215 102.524 325.16 104.399 319.652C106.313 314.145 109.067 309.457 112.661 305.59C116.255 301.723 120.63 298.773 125.786 296.742C130.942 294.672 136.802 293.637 143.364 293.637ZM168.091 337.816C168.091 331.527 167.075 326.078 165.044 321.469C163.012 316.859 160.102 313.383 156.313 311.039C152.563 308.656 148.247 307.465 143.364 307.465C139.887 307.465 136.665 308.129 133.696 309.457C130.766 310.746 128.227 312.641 126.079 315.141C123.97 317.641 122.29 320.844 121.04 324.75C119.829 328.617 119.223 332.973 119.223 337.816C119.223 342.699 119.829 347.113 121.04 351.059C122.29 355.004 124.028 358.285 126.255 360.902C128.52 363.48 131.098 365.414 133.989 366.703C136.919 367.992 140.122 368.637 143.598 368.637C148.052 368.637 152.134 367.523 155.845 365.297C159.595 363.07 162.563 359.633 164.751 354.984C166.977 350.336 168.091 344.613 168.091 337.816ZM259.621 309.457H240.637V371.859C240.637 375.453 239.836 378.129 238.234 379.887C236.633 381.605 234.562 382.465 232.023 382.465C229.445 382.465 227.336 381.586 225.695 379.828C224.094 378.07 223.293 375.414 223.293 371.859V309.457H204.309C201.34 309.457 199.133 308.812 197.688 307.523C196.242 306.195 195.52 304.457 195.52 302.309C195.52 300.082 196.262 298.324 197.746 297.035C199.27 295.746 201.457 295.102 204.309 295.102H259.621C262.629 295.102 264.855 295.766 266.301 297.094C267.785 298.422 268.527 300.16 268.527 302.309C268.527 304.457 267.785 306.195 266.301 307.523C264.816 308.812 262.59 309.457 259.621 309.457ZM337.968 308.52H303.691V330.492H332.343C334.999 330.492 336.972 331.098 338.261 332.309C339.589 333.48 340.253 335.062 340.253 337.055C340.253 339.047 339.589 340.629 338.261 341.801C336.933 342.973 334.96 343.559 332.343 343.559H303.691V371.859C303.691 375.453 302.87 378.129 301.23 379.887C299.628 381.605 297.558 382.465 295.019 382.465C292.441 382.465 290.331 381.586 288.691 379.828C287.089 378.07 286.288 375.414 286.288 371.859V305.766C286.288 303.266 286.659 301.234 287.402 299.672C288.144 298.07 289.296 296.918 290.859 296.215C292.46 295.473 294.491 295.102 296.952 295.102H337.968C340.741 295.102 342.792 295.727 344.12 296.977C345.488 298.188 346.171 299.789 346.171 301.781C346.171 303.812 345.488 305.453 344.12 306.703C342.792 307.914 340.741 308.52 337.968 308.52Z" fill="white"/>
</g>
<defs>
<clipPath id="clip0">
<rect width="512" height="512" fill="white"/>
</clipPath>
</defs>
</svg>
