<svg width="512" height="512" viewBox="0 0 512 512" fill="none" xmlns="http://www.w3.org/2000/svg">
<g clip-path="url(#clip0)">
<path d="M95.5 485V433L96 239.5V25C101.6 5.4 118.333 0.5 126 0.5H352L479 128V330V489C472.2 506.6 458.167 511.667 452 512C347 511.833 135.8 511.6 131 512C125 512.5 118 510.5 108 504.5C100 499.7 96.3333 489.5 95.5 485Z" fill="#E2E5E7"/>
<path d="M479 223V128L466 115H450.5L373.5 117L479 223Z" fill="#CAD1D8"/>
<path d="M352 98V0.5L478.5 128H384.5C360.1 126.4 352.667 107.333 352 98Z" fill="#B0B7BD"/>
<path d="M97 402V447.5L402 448C412.4 446.8 415.667 438.5 416 434.5V402H97Z" fill="#CAD1D8"/>
<rect x="10" y="240" width="384" height="192" rx="16" fill="#576D7E"/>
<path d="M54.625 345.119H41.3438V365.383C41.3438 368.28 40.6602 370.477 39.293 371.975C37.9258 373.472 36.2005 374.221 34.1172 374.221C31.9362 374.221 30.1784 373.488 28.8438 372.023C27.5091 370.526 26.8418 368.345 26.8418 365.48V310.305C26.8418 307.115 27.5742 304.836 29.0391 303.469C30.5039 302.102 32.8314 301.418 36.0215 301.418H54.625C60.1263 301.418 64.3581 301.841 67.3203 302.688C70.25 303.501 72.7728 304.852 74.8887 306.74C77.0371 308.628 78.6647 310.939 79.7715 313.674C80.8783 316.408 81.4316 319.484 81.4316 322.902C81.4316 330.194 79.1855 335.728 74.6934 339.504C70.2012 343.247 63.5117 345.119 54.625 345.119ZM51.1094 312.307H41.3438V334.182H51.1094C54.5273 334.182 57.3757 333.824 59.6543 333.107C61.9655 332.391 63.7233 331.219 64.9277 329.592C66.1322 327.964 66.7344 325.832 66.7344 323.195C66.7344 320.038 65.8066 317.466 63.9512 315.48C61.8678 313.365 57.5872 312.307 51.1094 312.307ZM137.053 364.895L133.635 355.91H104.533L101.115 365.09C99.7806 368.671 98.6413 371.096 97.6973 372.365C96.7533 373.602 95.207 374.221 93.0586 374.221C91.2357 374.221 89.6243 373.553 88.2246 372.219C86.8249 370.884 86.125 369.37 86.125 367.678C86.125 366.701 86.2878 365.692 86.6133 364.65C86.9388 363.609 87.4759 362.16 88.2246 360.305L106.535 313.82C107.056 312.486 107.674 310.891 108.391 309.035C109.139 307.147 109.921 305.585 110.734 304.348C111.581 303.111 112.671 302.118 114.006 301.369C115.373 300.588 117.049 300.197 119.035 300.197C121.053 300.197 122.73 300.588 124.064 301.369C125.432 302.118 126.522 303.094 127.336 304.299C128.182 305.503 128.882 306.805 129.436 308.205C130.021 309.572 130.754 311.411 131.633 313.723L150.334 359.914C151.799 363.43 152.531 365.985 152.531 367.58C152.531 369.24 151.831 370.77 150.432 372.17C149.064 373.537 147.404 374.221 145.451 374.221C144.312 374.221 143.335 374.009 142.521 373.586C141.708 373.195 141.024 372.658 140.471 371.975C139.917 371.258 139.315 370.184 138.664 368.752C138.046 367.287 137.508 366.001 137.053 364.895ZM108.342 345.021H129.729L118.938 315.48L108.342 345.021ZM232.566 343.898V357.619C232.566 359.442 232.387 360.907 232.029 362.014C231.671 363.088 231.004 364.064 230.027 364.943C229.083 365.822 227.863 366.669 226.365 367.482C222.036 369.826 217.869 371.535 213.865 372.609C209.861 373.684 205.499 374.221 200.779 374.221C195.278 374.221 190.265 373.374 185.74 371.682C181.215 369.989 177.358 367.531 174.168 364.309C170.978 361.086 168.52 357.18 166.795 352.59C165.102 348 164.256 342.873 164.256 337.209C164.256 331.643 165.086 326.548 166.746 321.926C168.406 317.303 170.848 313.381 174.07 310.158C177.293 306.936 181.215 304.478 185.838 302.785C190.46 301.06 195.701 300.197 201.561 300.197C206.378 300.197 210.643 300.848 214.354 302.15C218.064 303.42 221.076 305.031 223.387 306.984C225.698 308.938 227.439 311.005 228.611 313.186C229.783 315.367 230.369 317.303 230.369 318.996C230.369 320.819 229.686 322.382 228.318 323.684C226.984 324.953 225.372 325.588 223.484 325.588C222.443 325.588 221.434 325.344 220.457 324.855C219.513 324.367 218.715 323.684 218.064 322.805C216.274 320.005 214.76 317.889 213.523 316.457C212.286 315.025 210.61 313.82 208.494 312.844C206.411 311.867 203.742 311.379 200.486 311.379C197.133 311.379 194.139 311.965 191.502 313.137C188.865 314.276 186.603 315.952 184.715 318.166C182.859 320.347 181.427 323.033 180.418 326.223C179.441 329.413 178.953 332.945 178.953 336.818C178.953 345.217 180.874 351.678 184.715 356.203C188.589 360.728 193.976 362.99 200.877 362.99C204.23 362.99 207.371 362.551 210.301 361.672C213.263 360.793 216.258 359.54 219.285 357.912V346.291H208.055C205.353 346.291 203.302 345.884 201.902 345.07C200.535 344.257 199.852 342.873 199.852 340.92C199.852 339.325 200.421 338.007 201.561 336.965C202.732 335.923 204.311 335.402 206.297 335.402H222.752C224.77 335.402 226.479 335.581 227.879 335.939C229.279 336.298 230.402 337.095 231.248 338.332C232.127 339.569 232.566 341.424 232.566 343.898ZM300.053 312.6H267.387V330.178H297.465C299.678 330.178 301.322 330.682 302.396 331.691C303.503 332.668 304.057 333.97 304.057 335.598C304.057 337.225 303.52 338.56 302.445 339.602C301.371 340.611 299.711 341.115 297.465 341.115H267.387V361.477H301.176C303.454 361.477 305.163 362.014 306.303 363.088C307.475 364.13 308.061 365.529 308.061 367.287C308.061 368.98 307.475 370.363 306.303 371.438C305.163 372.479 303.454 373 301.176 373H261.771C258.614 373 256.335 372.3 254.936 370.9C253.568 369.501 252.885 367.238 252.885 364.113V310.305C252.885 308.221 253.194 306.529 253.812 305.227C254.431 303.892 255.391 302.932 256.693 302.346C258.028 301.727 259.721 301.418 261.771 301.418H300.053C302.364 301.418 304.073 301.939 305.18 302.98C306.319 303.99 306.889 305.324 306.889 306.984C306.889 308.677 306.319 310.044 305.18 311.086C304.073 312.095 302.364 312.6 300.053 312.6ZM380.479 351.516C380.479 355.845 379.355 359.735 377.109 363.186C374.896 366.636 371.641 369.338 367.344 371.291C363.047 373.244 357.952 374.221 352.061 374.221C344.997 374.221 339.17 372.886 334.58 370.217C331.325 368.296 328.672 365.741 326.621 362.551C324.603 359.328 323.594 356.203 323.594 353.176C323.594 351.418 324.196 349.921 325.4 348.684C326.637 347.414 328.2 346.779 330.088 346.779C331.618 346.779 332.904 347.268 333.945 348.244C335.02 349.221 335.931 350.669 336.68 352.59C337.591 354.868 338.568 356.773 339.609 358.303C340.684 359.833 342.181 361.102 344.102 362.111C346.022 363.088 348.545 363.576 351.67 363.576C355.967 363.576 359.45 362.583 362.119 360.598C364.821 358.579 366.172 356.073 366.172 353.078C366.172 350.702 365.439 348.781 363.975 347.316C362.542 345.819 360.671 344.68 358.359 343.898C356.081 343.117 353.021 342.287 349.18 341.408C344.036 340.204 339.723 338.804 336.24 337.209C332.79 335.581 330.039 333.384 327.988 330.617C325.97 327.818 324.961 324.351 324.961 320.217C324.961 316.278 326.035 312.779 328.184 309.719C330.332 306.659 333.441 304.315 337.51 302.688C341.579 301.027 346.364 300.197 351.865 300.197C356.26 300.197 360.052 300.751 363.242 301.857C366.465 302.932 369.134 304.38 371.25 306.203C373.366 307.993 374.912 309.882 375.889 311.867C376.865 313.853 377.354 315.79 377.354 317.678C377.354 319.403 376.735 320.965 375.498 322.365C374.294 323.732 372.78 324.416 370.957 324.416C369.297 324.416 368.027 324.009 367.148 323.195C366.302 322.349 365.374 320.982 364.365 319.094C363.063 316.392 361.501 314.292 359.678 312.795C357.855 311.265 354.925 310.5 350.889 310.5C347.145 310.5 344.118 311.33 341.807 312.99C339.528 314.618 338.389 316.587 338.389 318.898C338.389 320.331 338.779 321.568 339.561 322.609C340.342 323.651 341.416 324.546 342.783 325.295C344.15 326.044 345.534 326.63 346.934 327.053C348.333 327.476 350.645 328.094 353.867 328.908C357.904 329.852 361.549 330.894 364.805 332.033C368.092 333.173 370.876 334.556 373.154 336.184C375.465 337.811 377.256 339.878 378.525 342.385C379.827 344.859 380.479 347.902 380.479 351.516Z" fill="white"/>
</g>
<defs>
<clipPath id="clip0">
<rect width="512" height="512" fill="white"/>
</clipPath>
</defs>
</svg>
