<svg width="512" height="512" viewBox="0 0 512 512" fill="none" xmlns="http://www.w3.org/2000/svg">
<g clip-path="url(#clip0)">
<path d="M95.5 485V433L96 239.5V25C101.6 5.4 118.333 0.5 126 0.5H352L479 128V330V489C472.2 506.6 458.167 511.667 452 512C347 511.833 135.8 511.6 131 512C125 512.5 118 510.5 108 504.5C100 499.7 96.3333 489.5 95.5 485Z" fill="#E2E5E7"/>
<path d="M479 223V128L466 115H450.5L373.5 117L479 223Z" fill="#CAD1D8"/>
<path d="M352 98V0.5L478.5 128H384.5C360.1 126.4 352.667 107.333 352 98Z" fill="#B0B7BD"/>
<path d="M97 402V447.5L402 448C412.4 446.8 415.667 438.5 416 434.5V402H97Z" fill="#CAD1D8"/>
<rect x="10" y="240" width="384" height="192" rx="16" fill="#576D7E"/>
<path d="M77.8898 346.543H61.9523V370.859C61.9523 374.336 61.132 376.973 59.4914 378.77C57.8508 380.566 55.7805 381.465 53.2805 381.465C50.6633 381.465 48.5539 380.586 46.9523 378.828C45.3508 377.031 44.55 374.414 44.55 370.977V304.766C44.55 300.938 45.4289 298.203 47.1867 296.562C48.9445 294.922 51.7375 294.102 55.5656 294.102H77.8898C84.4914 294.102 89.5695 294.609 93.1242 295.625C96.6398 296.602 99.6672 298.223 102.206 300.488C104.784 302.754 106.738 305.527 108.066 308.809C109.394 312.09 110.058 315.781 110.058 319.883C110.058 328.633 107.363 335.273 101.972 339.805C96.5813 344.297 88.5539 346.543 77.8898 346.543ZM73.6711 307.168H61.9523V333.418H73.6711C77.7727 333.418 81.1906 332.988 83.925 332.129C86.6984 331.27 88.8078 329.863 90.2531 327.91C91.6984 325.957 92.4211 323.398 92.4211 320.234C92.4211 316.445 91.3078 313.359 89.0813 310.977C86.5813 308.438 81.4445 307.168 73.6711 307.168ZM176.803 370.273L172.702 359.492H137.78L133.678 370.508C132.077 374.805 130.709 377.715 129.577 379.238C128.444 380.723 126.588 381.465 124.01 381.465C121.823 381.465 119.889 380.664 118.209 379.062C116.53 377.461 115.69 375.645 115.69 373.613C115.69 372.441 115.885 371.23 116.276 369.98C116.666 368.73 117.311 366.992 118.209 364.766L140.182 308.984C140.807 307.383 141.549 305.469 142.409 303.242C143.307 300.977 144.245 299.102 145.221 297.617C146.237 296.133 147.545 294.941 149.147 294.043C150.788 293.105 152.799 292.637 155.182 292.637C157.604 292.637 159.616 293.105 161.217 294.043C162.858 294.941 164.166 296.113 165.143 297.559C166.159 299.004 166.998 300.566 167.663 302.246C168.366 303.887 169.245 306.094 170.299 308.867L192.741 364.297C194.498 368.516 195.377 371.582 195.377 373.496C195.377 375.488 194.538 377.324 192.858 379.004C191.217 380.645 189.225 381.465 186.881 381.465C185.514 381.465 184.342 381.211 183.366 380.703C182.389 380.234 181.569 379.59 180.905 378.77C180.241 377.91 179.518 376.621 178.737 374.902C177.995 373.145 177.35 371.602 176.803 370.273ZM142.35 346.426H168.014L155.065 310.977L142.35 346.426ZM239.388 343.262H233.295V370.859C233.295 374.492 232.494 377.168 230.892 378.887C229.291 380.605 227.201 381.465 224.623 381.465C221.849 381.465 219.701 380.566 218.177 378.77C216.654 376.973 215.892 374.336 215.892 370.859V304.766C215.892 301.016 216.732 298.301 218.412 296.621C220.091 294.941 222.806 294.102 226.556 294.102H254.857C258.763 294.102 262.103 294.277 264.877 294.629C267.65 294.941 270.15 295.605 272.377 296.621C275.072 297.754 277.455 299.375 279.525 301.484C281.595 303.594 283.158 306.055 284.213 308.867C285.306 311.641 285.853 314.59 285.853 317.715C285.853 324.121 284.037 329.238 280.404 333.066C276.81 336.895 271.341 339.609 263.998 341.211C267.084 342.852 270.033 345.273 272.845 348.477C275.658 351.68 278.158 355.098 280.345 358.73C282.572 362.324 284.291 365.586 285.502 368.516C286.752 371.406 287.377 373.398 287.377 374.492C287.377 375.625 287.005 376.758 286.263 377.891C285.56 378.984 284.584 379.844 283.334 380.469C282.084 381.133 280.638 381.465 278.998 381.465C277.045 381.465 275.404 380.996 274.076 380.059C272.748 379.16 271.595 378.008 270.619 376.602C269.681 375.195 268.392 373.125 266.752 370.391L259.779 358.789C257.279 354.531 255.033 351.289 253.041 349.062C251.088 346.836 249.095 345.312 247.064 344.492C245.033 343.672 242.474 343.262 239.388 343.262ZM249.349 307.168H233.295V330.781H248.88C253.06 330.781 256.576 330.43 259.427 329.727C262.279 328.984 264.447 327.754 265.931 326.035C267.455 324.277 268.216 321.875 268.216 318.828C268.216 316.445 267.611 314.355 266.4 312.559C265.189 310.723 263.509 309.355 261.361 308.457C259.33 307.598 255.326 307.168 249.349 307.168ZM359.981 308.457H340.997V370.859C340.997 374.453 340.196 377.129 338.595 378.887C336.993 380.605 334.923 381.465 332.384 381.465C329.805 381.465 327.696 380.586 326.055 378.828C324.454 377.07 323.653 374.414 323.653 370.859V308.457H304.669C301.7 308.457 299.493 307.812 298.048 306.523C296.602 305.195 295.88 303.457 295.88 301.309C295.88 299.082 296.622 297.324 298.106 296.035C299.63 294.746 301.817 294.102 304.669 294.102H359.981C362.989 294.102 365.216 294.766 366.661 296.094C368.145 297.422 368.888 299.16 368.888 301.309C368.888 303.457 368.145 305.195 366.661 306.523C365.177 307.812 362.95 308.457 359.981 308.457Z" fill="white"/>
</g>
<defs>
<clipPath id="clip0">
<rect width="512" height="512" fill="white"/>
</clipPath>
</defs>
</svg>
