<svg width="512" height="512" viewBox="0 0 512 512" fill="none" xmlns="http://www.w3.org/2000/svg">
<g clip-path="url(#clip0)">
<path d="M95.5 485V433L96 239.5V25C101.6 5.4 118.333 0.5 126 0.5H352L479 128V330V489C472.2 506.6 458.167 511.667 452 512C347 511.833 135.8 511.6 131 512C125 512.5 118 510.5 108 504.5C100 499.7 96.3333 489.5 95.5 485Z" fill="#E2E5E7"/>
<path d="M479 223V128L466 115H450.5L373.5 117L479 223Z" fill="#CAD1D8"/>
<path d="M352 98V0.5L478.5 128H384.5C360.1 126.4 352.667 107.333 352 98Z" fill="#B0B7BD"/>
<path d="M97 402V447.5L402 448C412.4 446.8 415.667 438.5 416 434.5V402H97Z" fill="#CAD1D8"/>
<rect x="10" y="240" width="384" height="192" rx="16" fill="#576D7E"/>
<path d="M114.981 346.543H99.0437V370.859C99.0437 374.336 98.2234 376.973 96.5828 378.77C94.9422 380.566 92.8719 381.465 90.3719 381.465C87.7547 381.465 85.6453 380.586 84.0437 378.828C82.4422 377.031 81.6414 374.414 81.6414 370.977V304.766C81.6414 300.938 82.5203 298.203 84.2781 296.562C86.0359 294.922 88.8289 294.102 92.657 294.102H114.981C121.583 294.102 126.661 294.609 130.216 295.625C133.731 296.602 136.759 298.223 139.298 300.488C141.876 302.754 143.829 305.527 145.157 308.809C146.485 312.09 147.149 315.781 147.149 319.883C147.149 328.633 144.454 335.273 139.063 339.805C133.673 344.297 125.645 346.543 114.981 346.543ZM110.762 307.168H99.0437V333.418H110.762C114.864 333.418 118.282 332.988 121.016 332.129C123.79 331.27 125.899 329.863 127.345 327.91C128.79 325.957 129.512 323.398 129.512 320.234C129.512 316.445 128.399 313.359 126.173 310.977C123.673 308.438 118.536 307.168 110.762 307.168ZM242.664 352.871C242.664 355.605 241.98 358.574 240.613 361.777C239.285 364.941 237.176 368.066 234.285 371.152C231.395 374.199 227.703 376.68 223.211 378.594C218.719 380.508 213.484 381.465 207.508 381.465C202.977 381.465 198.855 381.035 195.145 380.176C191.434 379.316 188.055 377.988 185.008 376.191C182 374.355 179.227 371.953 176.688 368.984C174.422 366.289 172.488 363.281 170.887 359.961C169.285 356.602 168.074 353.027 167.254 349.238C166.473 345.449 166.082 341.426 166.082 337.168C166.082 330.254 167.078 324.062 169.07 318.594C171.102 313.125 173.992 308.457 177.742 304.59C181.492 300.684 185.887 297.715 190.926 295.684C195.965 293.652 201.336 292.637 207.039 292.637C213.992 292.637 220.184 294.023 225.613 296.797C231.043 299.57 235.203 303.008 238.094 307.109C240.984 311.172 242.43 315.02 242.43 318.652C242.43 320.645 241.727 322.402 240.32 323.926C238.914 325.449 237.215 326.211 235.223 326.211C232.996 326.211 231.316 325.684 230.184 324.629C229.09 323.574 227.859 321.758 226.492 319.18C224.227 314.922 221.551 311.738 218.465 309.629C215.418 307.52 211.648 306.465 207.156 306.465C200.008 306.465 194.305 309.18 190.047 314.609C185.828 320.039 183.719 327.754 183.719 337.754C183.719 344.434 184.656 350 186.531 354.453C188.406 358.867 191.062 362.168 194.5 364.355C197.938 366.543 201.961 367.637 206.57 367.637C211.57 367.637 215.789 366.406 219.227 363.945C222.703 361.445 225.32 357.793 227.078 352.988C227.82 350.723 228.738 348.887 229.832 347.48C230.926 346.035 232.684 345.312 235.105 345.312C237.176 345.312 238.953 346.035 240.438 347.48C241.922 348.926 242.664 350.723 242.664 352.871ZM321.89 308.457H302.905V370.859C302.905 374.453 302.105 377.129 300.503 378.887C298.902 380.605 296.831 381.465 294.292 381.465C291.714 381.465 289.605 380.586 287.964 378.828C286.363 377.07 285.562 374.414 285.562 370.859V308.457H266.577C263.609 308.457 261.402 307.812 259.956 306.523C258.511 305.195 257.788 303.457 257.788 301.309C257.788 299.082 258.53 297.324 260.015 296.035C261.538 294.746 263.726 294.102 266.577 294.102H321.89C324.898 294.102 327.124 294.766 328.57 296.094C330.054 297.422 330.796 299.16 330.796 301.309C330.796 303.457 330.054 305.195 328.57 306.523C327.085 307.812 324.859 308.457 321.89 308.457Z" fill="white"/>
</g>
<defs>
<clipPath id="clip0">
<rect width="512" height="512" fill="white"/>
</clipPath>
</defs>
</svg>
