<svg width="512" height="512" viewBox="0 0 512 512" fill="none" xmlns="http://www.w3.org/2000/svg">
<g clip-path="url(#clip0)">
<path d="M95.5 485V433L96 239.5V25C101.6 5.4 118.333 0.5 126 0.5H352L479 128V330V489C472.2 506.6 458.167 511.667 452 512C347 511.833 135.8 511.6 131 512C125 512.5 118 510.5 108 504.5C100 499.7 96.3333 489.5 95.5 485Z" fill="#E2E5E7"/>
<path d="M479 223V128L466 115H450.5L373.5 117L479 223Z" fill="#CAD1D8"/>
<path d="M352 98V0.5L478.5 128H384.5C360.1 126.4 352.667 107.333 352 98Z" fill="#B0B7BD"/>
<path d="M97 402V447.5L402 448C412.4 446.8 415.667 438.5 416 434.5V402H97Z" fill="#CAD1D8"/>
<rect x="10" y="240" width="384" height="192" rx="16" fill="#576D7E"/>
<path d="M109.798 346.543H93.8602V370.859C93.8602 374.336 93.0398 376.973 91.3992 378.77C89.7586 380.566 87.6883 381.465 85.1883 381.465C82.5711 381.465 80.4617 380.586 78.8602 378.828C77.2586 377.031 76.4578 374.414 76.4578 370.977V304.766C76.4578 300.938 77.3367 298.203 79.0945 296.562C80.8523 294.922 83.6453 294.102 87.4734 294.102H109.798C116.399 294.102 121.477 294.609 125.032 295.625C128.548 296.602 131.575 298.223 134.114 300.488C136.692 302.754 138.645 305.527 139.973 308.809C141.302 312.09 141.966 315.781 141.966 319.883C141.966 328.633 139.27 335.273 133.88 339.805C128.489 344.297 120.462 346.543 109.798 346.543ZM105.579 307.168H93.8602V333.418H105.579C109.68 333.418 113.098 332.988 115.833 332.129C118.606 331.27 120.716 329.863 122.161 327.91C123.606 325.957 124.329 323.398 124.329 320.234C124.329 316.445 123.216 313.359 120.989 310.977C118.489 308.438 113.352 307.168 105.579 307.168ZM175.078 294.102H197.754C203.652 294.102 208.711 294.648 212.93 295.742C217.148 296.836 220.977 298.887 224.414 301.895C233.359 309.551 237.832 321.191 237.832 336.816C237.832 341.973 237.383 346.68 236.484 350.938C235.586 355.195 234.199 359.043 232.324 362.48C230.449 365.879 228.047 368.926 225.117 371.621C222.812 373.691 220.293 375.352 217.559 376.602C214.824 377.852 211.875 378.73 208.711 379.238C205.586 379.746 202.051 380 198.105 380H175.43C172.266 380 169.883 379.531 168.281 378.594C166.68 377.617 165.625 376.27 165.117 374.551C164.648 372.793 164.414 370.527 164.414 367.754V304.766C164.414 301.016 165.254 298.301 166.934 296.621C168.613 294.941 171.328 294.102 175.078 294.102ZM181.816 307.871V366.172H195C197.891 366.172 200.156 366.094 201.797 365.938C203.438 365.781 205.137 365.391 206.895 364.766C208.652 364.141 210.176 363.262 211.465 362.129C217.285 357.207 220.195 348.73 220.195 336.699C220.195 328.223 218.906 321.875 216.328 317.656C213.789 313.438 210.645 310.762 206.895 309.629C203.145 308.457 198.613 307.871 193.301 307.871H181.816ZM297.605 380H271.355C267.566 380 264.851 379.16 263.21 377.48C261.609 375.762 260.808 373.047 260.808 369.336V304.766C260.808 300.977 261.628 298.262 263.269 296.621C264.948 294.941 267.644 294.102 271.355 294.102H299.187C303.288 294.102 306.843 294.355 309.851 294.863C312.859 295.371 315.554 296.348 317.937 297.793C319.968 299.004 321.765 300.547 323.327 302.422C324.89 304.258 326.081 306.309 326.902 308.574C327.722 310.801 328.132 313.164 328.132 315.664C328.132 324.258 323.835 330.547 315.241 334.531C326.53 338.125 332.175 345.117 332.175 355.508C332.175 360.312 330.945 364.648 328.484 368.516C326.023 372.344 322.702 375.176 318.523 377.012C315.905 378.105 312.898 378.887 309.499 379.355C306.101 379.785 302.136 380 297.605 380ZM296.316 341.855H278.21V366.934H296.902C308.659 366.934 314.538 362.695 314.538 354.219C314.538 349.883 313.015 346.738 309.968 344.785C306.921 342.832 302.37 341.855 296.316 341.855ZM278.21 307.168V329.375H294.148C298.484 329.375 301.823 328.965 304.167 328.145C306.55 327.324 308.366 325.762 309.616 323.457C310.593 321.816 311.081 319.98 311.081 317.949C311.081 313.613 309.538 310.742 306.452 309.336C303.366 307.891 298.659 307.168 292.331 307.168H278.21Z" fill="white"/>
</g>
<defs>
<clipPath id="clip0">
<rect width="512" height="512" fill="white"/>
</clipPath>
</defs>
</svg>
