<svg width="512" height="512" viewBox="0 0 512 512" fill="none" xmlns="http://www.w3.org/2000/svg">
<g clip-path="url(#clip0)">
<path d="M95.5 485V433L96 239.5V25C101.6 5.4 118.333 0.5 126 0.5H352L479 128V330V489C472.2 506.6 458.167 511.667 452 512C347 511.833 135.8 511.6 131 512C125 512.5 118 510.5 108 504.5C100 499.7 96.3333 489.5 95.5 485Z" fill="#E2E5E7"/>
<path d="M479 223V128L466 115H450.5L373.5 117L479 223Z" fill="#CAD1D8"/>
<path d="M352 98V0.5L478.5 128H384.5C360.1 126.4 352.667 107.333 352 98Z" fill="#B0B7BD"/>
<path d="M97 402V447.5L402 448C412.4 446.8 415.667 438.5 416 434.5V402H97Z" fill="#CAD1D8"/>
<rect x="32" y="240" width="384" height="192" rx="16" fill="#576D7E"/>
<path d="M146.212 347.543H130.274V371.859C130.274 375.336 129.454 377.973 127.813 379.77C126.173 381.566 124.102 382.465 121.602 382.465C118.985 382.465 116.876 381.586 115.274 379.828C113.673 378.031 112.872 375.414 112.872 371.977V305.766C112.872 301.938 113.751 299.203 115.509 297.562C117.266 295.922 120.059 295.102 123.887 295.102H146.212C152.813 295.102 157.891 295.609 161.446 296.625C164.962 297.602 167.989 299.223 170.528 301.488C173.106 303.754 175.059 306.527 176.387 309.809C177.716 313.09 178.38 316.781 178.38 320.883C178.38 329.633 175.684 336.273 170.294 340.805C164.903 345.297 156.876 347.543 146.212 347.543ZM141.993 308.168H130.274V334.418H141.993C146.095 334.418 149.512 333.988 152.247 333.129C155.02 332.27 157.13 330.863 158.575 328.91C160.02 326.957 160.743 324.398 160.743 321.234C160.743 317.445 159.63 314.359 157.403 311.977C154.903 309.438 149.766 308.168 141.993 308.168ZM211.492 295.102H234.168C240.066 295.102 245.125 295.648 249.344 296.742C253.562 297.836 257.391 299.887 260.828 302.895C269.773 310.551 274.246 322.191 274.246 337.816C274.246 342.973 273.797 347.68 272.898 351.938C272 356.195 270.613 360.043 268.738 363.48C266.863 366.879 264.461 369.926 261.531 372.621C259.227 374.691 256.707 376.352 253.973 377.602C251.238 378.852 248.289 379.73 245.125 380.238C242 380.746 238.465 381 234.52 381H211.844C208.68 381 206.297 380.531 204.695 379.594C203.094 378.617 202.039 377.27 201.531 375.551C201.062 373.793 200.828 371.527 200.828 368.754V305.766C200.828 302.016 201.668 299.301 203.348 297.621C205.027 295.941 207.742 295.102 211.492 295.102ZM218.23 308.871V367.172H231.414C234.305 367.172 236.57 367.094 238.211 366.938C239.852 366.781 241.551 366.391 243.309 365.766C245.066 365.141 246.59 364.262 247.879 363.129C253.699 358.207 256.609 349.73 256.609 337.699C256.609 329.223 255.32 322.875 252.742 318.656C250.203 314.438 247.059 311.762 243.309 310.629C239.559 309.457 235.027 308.871 229.715 308.871H218.23ZM348.667 308.52H314.39V330.492H343.042C345.698 330.492 347.671 331.098 348.96 332.309C350.288 333.48 350.952 335.062 350.952 337.055C350.952 339.047 350.288 340.629 348.96 341.801C347.632 342.973 345.659 343.559 343.042 343.559H314.39V371.859C314.39 375.453 313.57 378.129 311.929 379.887C310.327 381.605 308.257 382.465 305.718 382.465C303.14 382.465 301.03 381.586 299.39 379.828C297.788 378.07 296.988 375.414 296.988 371.859V305.766C296.988 303.266 297.359 301.234 298.101 299.672C298.843 298.07 299.995 296.918 301.558 296.215C303.159 295.473 305.191 295.102 307.652 295.102H348.667C351.441 295.102 353.491 295.727 354.82 296.977C356.187 298.188 356.87 299.789 356.87 301.781C356.87 303.812 356.187 305.453 354.82 306.703C353.491 307.914 351.441 308.52 348.667 308.52Z" fill="white"/>
</g>
<defs>
<clipPath id="clip0">
<rect width="512" height="512" fill="white"/>
</clipPath>
</defs>
</svg>
