<svg width="512" height="512" viewBox="0 0 512 512" fill="none" xmlns="http://www.w3.org/2000/svg">
<g clip-path="url(#clip0)">
<path d="M95.5 485V433L96 239.5V25C101.6 5.4 118.333 0.5 126 0.5H352L479 128V330V489C472.2 506.6 458.167 511.667 452 512C347 511.833 135.8 511.6 131 512C125 512.5 118 510.5 108 504.5C100 499.7 96.3333 489.5 95.5 485Z" fill="#E2E5E7"/>
<path d="M479 223V128L466 115H450.5L373.5 117L479 223Z" fill="#CAD1D8"/>
<path d="M352 98V0.5L478.5 128H384.5C360.1 126.4 352.667 107.333 352 98Z" fill="#B0B7BD"/>
<path d="M97 402V447.5L402 448C412.4 446.8 415.667 438.5 416 434.5V402H97Z" fill="#CAD1D8"/>
<rect x="32" y="240" width="384" height="192" rx="16" fill="#576D7E"/>
<path d="M132.79 347.543H116.852V371.859C116.852 375.336 116.032 377.973 114.391 379.77C112.751 381.566 110.68 382.465 108.18 382.465C105.563 382.465 103.454 381.586 101.852 379.828C100.251 378.031 99.45 375.414 99.45 371.977V305.766C99.45 301.938 100.329 299.203 102.087 297.562C103.845 295.922 106.637 295.102 110.466 295.102H132.79C139.391 295.102 144.47 295.609 148.024 296.625C151.54 297.602 154.567 299.223 157.106 301.488C159.684 303.754 161.637 306.527 162.966 309.809C164.294 313.09 164.958 316.781 164.958 320.883C164.958 329.633 162.262 336.273 156.872 340.805C151.481 345.297 143.454 347.543 132.79 347.543ZM128.571 308.168H116.852V334.418H128.571C132.673 334.418 136.091 333.988 138.825 333.129C141.598 332.27 143.708 330.863 145.153 328.91C146.598 326.957 147.321 324.398 147.321 321.234C147.321 317.445 146.208 314.359 143.981 311.977C141.481 309.438 136.345 308.168 128.571 308.168ZM204.809 304.184V328.793H242.367V304.184C242.367 300.668 243.148 298.031 244.711 296.273C246.312 294.516 248.402 293.637 250.98 293.637C253.598 293.637 255.707 294.516 257.309 296.273C258.949 297.992 259.77 300.629 259.77 304.184V371.859C259.77 375.414 258.949 378.07 257.309 379.828C255.668 381.586 253.559 382.465 250.98 382.465C248.363 382.465 246.273 381.586 244.711 379.828C243.148 378.031 242.367 375.375 242.367 371.859V342.973H204.809V371.859C204.809 375.414 203.988 378.07 202.348 379.828C200.707 381.586 198.598 382.465 196.02 382.465C193.402 382.465 191.312 381.586 189.75 379.828C188.188 378.031 187.406 375.375 187.406 371.859V304.184C187.406 300.668 188.168 298.031 189.691 296.273C191.254 294.516 193.363 293.637 196.02 293.637C198.637 293.637 200.746 294.516 202.348 296.273C203.988 297.992 204.809 300.629 204.809 304.184ZM319.601 347.543H303.663V371.859C303.663 375.336 302.843 377.973 301.202 379.77C299.562 381.566 297.491 382.465 294.991 382.465C292.374 382.465 290.265 381.586 288.663 379.828C287.062 378.031 286.261 375.414 286.261 371.977V305.766C286.261 301.938 287.14 299.203 288.898 297.562C290.655 295.922 293.448 295.102 297.277 295.102H319.601C326.202 295.102 331.28 295.609 334.835 296.625C338.351 297.602 341.378 299.223 343.917 301.488C346.495 303.754 348.448 306.527 349.777 309.809C351.105 313.09 351.769 316.781 351.769 320.883C351.769 329.633 349.073 336.273 343.683 340.805C338.292 345.297 330.265 347.543 319.601 347.543ZM315.382 308.168H303.663V334.418H315.382C319.484 334.418 322.902 333.988 325.636 333.129C328.409 332.27 330.519 330.863 331.964 328.91C333.409 326.957 334.132 324.398 334.132 321.234C334.132 317.445 333.019 314.359 330.792 311.977C328.292 309.438 323.155 308.168 315.382 308.168Z" fill="white"/>
</g>
<defs>
<clipPath id="clip0">
<rect width="512" height="512" fill="white"/>
</clipPath>
</defs>
</svg>
