<svg width="512" height="512" viewBox="0 0 512 512" fill="none" xmlns="http://www.w3.org/2000/svg">
<g clip-path="url(#clip0)">
<path d="M95.5 485V433L96 239.5V25C101.6 5.4 118.333 0.5 126 0.5H352L479 128V330V489C472.2 506.6 458.167 511.667 452 512C347 511.833 135.8 511.6 131 512C125 512.5 118 510.5 108 504.5C100 499.7 96.3333 489.5 95.5 485Z" fill="#E2E5E7"/>
<path d="M479 223V128L466 115H450.5L373.5 117L479 223Z" fill="#CAD1D8"/>
<path d="M352 98V0.5L478.5 128H384.5C360.1 126.4 352.667 107.333 352 98Z" fill="#B0B7BD"/>
<path d="M97 402V447.5L402 448C412.4 446.8 415.667 438.5 416 434.5V402H97Z" fill="#CAD1D8"/>
<rect x="10" y="240" width="384" height="192" rx="16" fill="#576D7E"/>
<path d="M107.95 346.543H92.0125V370.859C92.0125 374.336 91.1922 376.973 89.5516 378.77C87.9109 380.566 85.8406 381.465 83.3406 381.465C80.7234 381.465 78.6141 380.586 77.0125 378.828C75.4109 377.031 74.6102 374.414 74.6102 370.977V304.766C74.6102 300.938 75.4891 298.203 77.2469 296.562C79.0047 294.922 81.7977 294.102 85.6258 294.102H107.95C114.552 294.102 119.63 294.609 123.184 295.625C126.7 296.602 129.727 298.223 132.266 300.488C134.845 302.754 136.798 305.527 138.126 308.809C139.454 312.09 140.118 315.781 140.118 319.883C140.118 328.633 137.423 335.273 132.032 339.805C126.641 344.297 118.614 346.543 107.95 346.543ZM103.731 307.168H92.0125V333.418H103.731C107.833 333.418 111.251 332.988 113.985 332.129C116.759 331.27 118.868 329.863 120.313 327.91C121.759 325.957 122.481 323.398 122.481 320.234C122.481 316.445 121.368 313.359 119.141 310.977C116.641 308.438 111.505 307.168 103.731 307.168ZM179.969 303.184V333.301L214.129 297.676C215.77 295.957 217.156 294.688 218.289 293.867C219.461 293.047 221.004 292.637 222.918 292.637C225.418 292.637 227.43 293.379 228.953 294.863C230.516 296.309 231.297 298.086 231.297 300.195C231.297 302.734 229.988 305.254 227.371 307.754L206.219 327.793L230.594 362.715C232.312 365.137 233.602 367.266 234.461 369.102C235.32 370.898 235.75 372.656 235.75 374.375C235.75 376.289 234.988 377.949 233.465 379.355C231.98 380.762 229.949 381.465 227.371 381.465C224.949 381.465 222.977 380.957 221.453 379.941C219.93 378.887 218.641 377.5 217.586 375.781C216.531 374.062 215.594 372.5 214.773 371.094L194.207 339.453L179.969 353.105V370.859C179.969 374.453 179.148 377.129 177.508 378.887C175.867 380.605 173.758 381.465 171.18 381.465C169.695 381.465 168.27 381.074 166.902 380.293C165.535 379.512 164.48 378.457 163.738 377.129C163.191 376.035 162.859 374.766 162.742 373.32C162.625 371.875 162.566 369.785 162.566 367.051V303.184C162.566 299.668 163.328 297.031 164.852 295.273C166.414 293.516 168.523 292.637 171.18 292.637C173.797 292.637 175.906 293.516 177.508 295.273C179.148 296.992 179.969 299.629 179.969 303.184ZM331.558 345.078V361.543C331.558 363.73 331.343 365.488 330.913 366.816C330.484 368.105 329.683 369.277 328.511 370.332C327.378 371.387 325.913 372.402 324.116 373.379C318.921 376.191 313.921 378.242 309.116 379.531C304.312 380.82 299.077 381.465 293.413 381.465C286.812 381.465 280.796 380.449 275.366 378.418C269.937 376.387 265.308 373.438 261.48 369.57C257.652 365.703 254.702 361.016 252.632 355.508C250.601 350 249.585 343.848 249.585 337.051C249.585 330.371 250.581 324.258 252.573 318.711C254.566 313.164 257.495 308.457 261.363 304.59C265.23 300.723 269.937 297.773 275.484 295.742C281.03 293.672 287.32 292.637 294.351 292.637C300.132 292.637 305.249 293.418 309.702 294.98C314.155 296.504 317.769 298.438 320.542 300.781C323.316 303.125 325.405 305.605 326.812 308.223C328.218 310.84 328.921 313.164 328.921 315.195C328.921 317.383 328.101 319.258 326.46 320.82C324.859 322.344 322.925 323.105 320.659 323.105C319.409 323.105 318.198 322.812 317.027 322.227C315.894 321.641 314.937 320.82 314.155 319.766C312.007 316.406 310.191 313.867 308.706 312.148C307.222 310.43 305.21 308.984 302.671 307.812C300.171 306.641 296.968 306.055 293.062 306.055C289.038 306.055 285.445 306.758 282.28 308.164C279.116 309.531 276.402 311.543 274.136 314.199C271.909 316.816 270.191 320.039 268.98 323.867C267.808 327.695 267.222 331.934 267.222 336.582C267.222 346.66 269.527 354.414 274.136 359.844C278.784 365.273 285.249 367.988 293.53 367.988C297.554 367.988 301.323 367.461 304.839 366.406C308.394 365.352 311.988 363.848 315.62 361.895V347.949H302.144C298.902 347.949 296.441 347.461 294.761 346.484C293.12 345.508 292.3 343.848 292.3 341.504C292.3 339.59 292.984 338.008 294.351 336.758C295.757 335.508 297.652 334.883 300.034 334.883H319.78C322.202 334.883 324.253 335.098 325.933 335.527C327.613 335.957 328.96 336.914 329.976 338.398C331.03 339.883 331.558 342.109 331.558 345.078Z" fill="white"/>
</g>
<defs>
<clipPath id="clip0">
<rect width="512" height="512" fill="white"/>
</clipPath>
</defs>
</svg>
