<svg width="512" height="512" viewBox="0 0 512 512" fill="none" xmlns="http://www.w3.org/2000/svg">
<g clip-path="url(#clip0)">
<path d="M95.5 485V433L96 239.5V25C101.6 5.4 118.333 0.5 126 0.5H352L479 128V330V489C472.2 506.6 458.167 511.667 452 512C347 511.833 135.8 511.6 131 512C125 512.5 118 510.5 108 504.5C100 499.7 96.3333 489.5 95.5 485Z" fill="#E2E5E7"/>
<path d="M479 223V128L466 115H450.5L373.5 117L479 223Z" fill="#CAD1D8"/>
<path d="M352 98V0.5L478.5 128H384.5C360.1 126.4 352.667 107.333 352 98Z" fill="#B0B7BD"/>
<path d="M97 402V447.5L402 448C412.4 446.8 415.667 438.5 416 434.5V402H97Z" fill="#CAD1D8"/>
<rect x="10" y="240" width="384" height="192" rx="16" fill="#576D7E"/>
<path d="M165.026 346.543H149.088V370.859C149.088 374.336 148.268 376.973 146.627 378.77C144.987 380.566 142.916 381.465 140.416 381.465C137.799 381.465 135.69 380.586 134.088 378.828C132.487 377.031 131.686 374.414 131.686 370.977V304.766C131.686 300.938 132.565 298.203 134.323 296.562C136.08 294.922 138.873 294.102 142.702 294.102H165.026C171.627 294.102 176.705 294.609 180.26 295.625C183.776 296.602 186.803 298.223 189.342 300.488C191.92 302.754 193.873 305.527 195.202 308.809C196.53 312.09 197.194 315.781 197.194 319.883C197.194 328.633 194.498 335.273 189.108 339.805C183.717 344.297 175.69 346.543 165.026 346.543ZM160.807 307.168H149.088V333.418H160.807C164.909 333.418 168.327 332.988 171.061 332.129C173.834 331.27 175.944 329.863 177.389 327.91C178.834 325.957 179.557 323.398 179.557 320.234C179.557 316.445 178.444 313.359 176.217 310.977C173.717 308.438 168.58 307.168 160.807 307.168ZM236.576 303.184V365.703H271.849C274.662 365.703 276.81 366.387 278.295 367.754C279.818 369.121 280.58 370.84 280.58 372.91C280.58 375.02 279.838 376.738 278.353 378.066C276.869 379.355 274.701 380 271.849 380H229.838C226.048 380 223.314 379.16 221.634 377.48C219.994 375.801 219.173 373.086 219.173 369.336V303.184C219.173 299.668 219.955 297.031 221.517 295.273C223.119 293.516 225.209 292.637 227.787 292.637C230.404 292.637 232.513 293.516 234.115 295.273C235.755 296.992 236.576 299.629 236.576 303.184Z" fill="white"/>
</g>
<defs>
<clipPath id="clip0">
<rect width="512" height="512" fill="white"/>
</clipPath>
</defs>
</svg>
