<svg width="512" height="512" viewBox="0 0 512 512" fill="none" xmlns="http://www.w3.org/2000/svg">
<g clip-path="url(#clip0)">
<path d="M95.5 485V433L96 239.5V25C101.6 5.4 118.333 0.5 126 0.5H352L479 128V330V489C472.2 506.6 458.167 511.667 452 512C347 511.833 135.8 511.6 131 512C125 512.5 118 510.5 108 504.5C100 499.7 96.3333 489.5 95.5 485Z" fill="#E2E5E7"/>
<path d="M479 223V128L466 115H450.5L373.5 117L479 223Z" fill="#CAD1D8"/>
<path d="M352 98V0.5L478.5 128H384.5C360.1 126.4 352.667 107.333 352 98Z" fill="#B0B7BD"/>
<path d="M97 402V447.5L402 448C412.4 446.8 415.667 438.5 416 434.5V402H97Z" fill="#CAD1D8"/>
<rect x="10" y="240" width="384" height="192" rx="16" fill="#576D7E"/>
<path d="M54.46 343.301H43.1709V360.525C43.1709 362.988 42.5898 364.856 41.4277 366.128C40.2656 367.401 38.7992 368.038 37.0283 368.038C35.1745 368.038 33.6803 367.415 32.5459 366.17C31.4115 364.897 30.8442 363.043 30.8442 360.608V313.709C30.8442 310.997 31.4668 309.061 32.7119 307.898C33.957 306.736 35.9354 306.155 38.647 306.155H54.46C59.1361 306.155 62.7331 306.515 65.251 307.234C67.7412 307.926 69.8856 309.074 71.6841 310.679C73.5103 312.284 74.8937 314.249 75.8345 316.573C76.7752 318.897 77.2456 321.512 77.2456 324.417C77.2456 330.615 75.3364 335.319 71.5181 338.528C67.6997 341.71 62.0137 343.301 54.46 343.301ZM51.4717 315.411H43.1709V334.004H51.4717C54.377 334.004 56.798 333.7 58.7349 333.091C60.6994 332.483 62.1935 331.486 63.2173 330.103C64.241 328.72 64.7529 326.907 64.7529 324.666C64.7529 321.982 63.9644 319.796 62.3872 318.108C60.6164 316.31 56.9779 315.411 51.4717 315.411ZM105.141 312.588V356.873H130.127C132.119 356.873 133.641 357.357 134.692 358.326C135.771 359.294 136.311 360.512 136.311 361.978C136.311 363.472 135.785 364.69 134.733 365.63C133.682 366.543 132.146 367 130.127 367H100.368C97.6843 367 95.7475 366.405 94.5577 365.215C93.3956 364.026 92.8146 362.103 92.8146 359.446V312.588C92.8146 310.098 93.3679 308.23 94.4747 306.985C95.6091 305.74 97.0895 305.118 98.9156 305.118C100.769 305.118 102.264 305.74 103.398 306.985C104.56 308.203 105.141 310.07 105.141 312.588ZM145.82 341.849V312.588C145.82 310.098 146.373 308.23 147.48 306.985C148.615 305.74 150.095 305.118 151.921 305.118C153.83 305.118 155.338 305.74 156.445 306.985C157.579 308.23 158.147 310.098 158.147 312.588V342.513C158.147 345.916 158.52 348.766 159.267 351.062C160.042 353.331 161.398 355.102 163.335 356.375C165.272 357.62 167.983 358.243 171.469 358.243C176.284 358.243 179.687 356.97 181.679 354.424C183.672 351.851 184.668 347.964 184.668 342.762V312.588C184.668 310.07 185.221 308.203 186.328 306.985C187.435 305.74 188.915 305.118 190.769 305.118C192.623 305.118 194.117 305.74 195.251 306.985C196.413 308.203 196.994 310.07 196.994 312.588V341.849C196.994 346.608 196.524 350.578 195.583 353.76C194.67 356.942 192.927 359.737 190.354 362.144C188.14 364.192 185.567 365.686 182.634 366.626C179.701 367.567 176.27 368.038 172.341 368.038C167.665 368.038 163.639 367.54 160.263 366.543C156.888 365.52 154.135 363.956 152.004 361.854C149.874 359.723 148.31 357.011 147.314 353.719C146.318 350.398 145.82 346.442 145.82 341.849ZM271.416 342.264V353.926C271.416 355.476 271.264 356.721 270.959 357.662C270.655 358.575 270.088 359.405 269.258 360.152C268.455 360.899 267.418 361.618 266.145 362.31C262.465 364.302 258.923 365.755 255.52 366.668C252.117 367.581 248.409 368.038 244.397 368.038C239.721 368.038 235.46 367.318 231.614 365.879C227.768 364.441 224.489 362.352 221.777 359.612C219.066 356.873 216.977 353.553 215.51 349.651C214.071 345.75 213.352 341.392 213.352 336.578C213.352 331.846 214.057 327.516 215.469 323.587C216.88 319.658 218.955 316.324 221.694 313.584C224.433 310.845 227.768 308.756 231.697 307.317C235.626 305.851 240.08 305.118 245.061 305.118C249.156 305.118 252.781 305.671 255.935 306.778C259.089 307.857 261.649 309.227 263.613 310.887C265.578 312.547 267.058 314.304 268.054 316.158C269.05 318.012 269.548 319.658 269.548 321.097C269.548 322.646 268.967 323.974 267.805 325.081C266.671 326.16 265.301 326.7 263.696 326.7C262.811 326.7 261.953 326.492 261.123 326.077C260.32 325.662 259.643 325.081 259.089 324.334C257.567 321.954 256.281 320.156 255.229 318.938C254.178 317.721 252.753 316.697 250.954 315.867C249.184 315.037 246.915 314.622 244.148 314.622C241.298 314.622 238.752 315.12 236.511 316.116C234.27 317.085 232.347 318.51 230.742 320.391C229.165 322.245 227.947 324.528 227.09 327.239C226.26 329.951 225.845 332.953 225.845 336.246C225.845 343.384 227.477 348.877 230.742 352.723C234.035 356.569 238.614 358.492 244.48 358.492C247.33 358.492 250 358.118 252.49 357.371C255.008 356.624 257.554 355.559 260.127 354.175V344.297H250.581C248.284 344.297 246.541 343.951 245.351 343.26C244.189 342.568 243.608 341.392 243.608 339.732C243.608 338.376 244.092 337.256 245.061 336.37C246.057 335.485 247.399 335.042 249.087 335.042H263.074C264.789 335.042 266.242 335.194 267.431 335.499C268.621 335.803 269.576 336.481 270.295 337.532C271.042 338.584 271.416 340.161 271.416 342.264ZM289.184 360.525V312.588C289.184 310.098 289.752 308.23 290.886 306.985C292.021 305.74 293.487 305.118 295.286 305.118C297.139 305.118 298.634 305.74 299.768 306.985C300.93 308.203 301.511 310.07 301.511 312.588V360.525C301.511 363.043 300.93 364.925 299.768 366.17C298.634 367.415 297.139 368.038 295.286 368.038C293.515 368.038 292.048 367.415 290.886 366.17C289.752 364.897 289.184 363.016 289.184 360.525ZM336.919 312.505L360.618 348.365V312.173C360.618 309.821 361.116 308.064 362.112 306.902C363.136 305.713 364.505 305.118 366.221 305.118C367.992 305.118 369.389 305.713 370.413 306.902C371.436 308.064 371.948 309.821 371.948 312.173V360.027C371.948 365.368 369.735 368.038 365.308 368.038C364.201 368.038 363.205 367.872 362.319 367.54C361.434 367.235 360.604 366.737 359.829 366.045C359.054 365.354 358.335 364.551 357.671 363.638C357.007 362.697 356.343 361.743 355.679 360.774L332.561 325.33V360.982C332.561 363.306 332.021 365.063 330.942 366.253C329.863 367.443 328.48 368.038 326.792 368.038C325.049 368.038 323.652 367.443 322.6 366.253C321.549 365.035 321.023 363.278 321.023 360.982V314.041C321.023 312.049 321.244 310.486 321.687 309.351C322.213 308.106 323.084 307.096 324.302 306.321C325.519 305.519 326.833 305.118 328.245 305.118C329.351 305.118 330.292 305.298 331.067 305.657C331.869 306.017 332.561 306.501 333.142 307.11C333.751 307.719 334.36 308.507 334.968 309.476C335.605 310.444 336.255 311.454 336.919 312.505Z" fill="white"/>
</g>
<defs>
<clipPath id="clip0">
<rect width="512" height="512" fill="white"/>
</clipPath>
</defs>
</svg>
