<svg width="512" height="512" viewBox="0 0 512 512" fill="none" xmlns="http://www.w3.org/2000/svg">
<g clip-path="url(#clip0)">
<path d="M95.5 485V433L96 239.5V25C101.6 5.4 118.333 0.5 126 0.5H352L479 128V330V489C472.2 506.6 458.167 511.667 452 512C347 511.833 135.8 511.6 131 512C125 512.5 118 510.5 108 504.5C100 499.7 96.3333 489.5 95.5 485Z" fill="#E2E5E7"/>
<path d="M479 223V128L466 115H450.5L373.5 117L479 223Z" fill="#CAD1D8"/>
<path d="M352 98V0.5L478.5 128H384.5C360.1 126.4 352.667 107.333 352 98Z" fill="#B0B7BD"/>
<path d="M97 402V447.5L402 448C412.4 446.8 415.667 438.5 416 434.5V402H97Z" fill="#CAD1D8"/>
<rect x="32" y="240" width="384" height="192" rx="16" fill="#576D7E"/>
<path d="M124.79 347.543H108.852V371.859C108.852 375.336 108.032 377.973 106.391 379.77C104.751 381.566 102.68 382.465 100.18 382.465C97.5633 382.465 95.4539 381.586 93.8523 379.828C92.2508 378.031 91.45 375.414 91.45 371.977V305.766C91.45 301.938 92.3289 299.203 94.0867 297.562C95.8445 295.922 98.6375 295.102 102.466 295.102H124.79C131.391 295.102 136.47 295.609 140.024 296.625C143.54 297.602 146.567 299.223 149.106 301.488C151.684 303.754 153.637 306.527 154.966 309.809C156.294 313.09 156.958 316.781 156.958 320.883C156.958 329.633 154.262 336.273 148.872 340.805C143.481 345.297 135.454 347.543 124.79 347.543ZM120.571 308.168H108.852V334.418H120.571C124.673 334.418 128.091 333.988 130.825 333.129C133.598 332.27 135.708 330.863 137.153 328.91C138.598 326.957 139.321 324.398 139.321 321.234C139.321 317.445 138.208 314.359 135.981 311.977C133.481 309.438 128.345 308.168 120.571 308.168ZM201.965 304.066L235.422 354.691V303.598C235.422 300.277 236.125 297.797 237.531 296.156C238.977 294.477 240.91 293.637 243.332 293.637C245.832 293.637 247.805 294.477 249.25 296.156C250.695 297.797 251.418 300.277 251.418 303.598V371.156C251.418 378.695 248.293 382.465 242.043 382.465C240.48 382.465 239.074 382.23 237.824 381.762C236.574 381.332 235.402 380.629 234.309 379.652C233.215 378.676 232.199 377.543 231.262 376.254C230.324 374.926 229.387 373.578 228.449 372.211L195.812 322.172V372.504C195.812 375.785 195.051 378.266 193.527 379.945C192.004 381.625 190.051 382.465 187.668 382.465C185.207 382.465 183.234 381.625 181.75 379.945C180.266 378.227 179.523 375.746 179.523 372.504V306.234C179.523 303.422 179.836 301.215 180.461 299.613C181.203 297.855 182.434 296.43 184.152 295.336C185.871 294.203 187.727 293.637 189.719 293.637C191.281 293.637 192.609 293.891 193.703 294.398C194.836 294.906 195.812 295.59 196.633 296.449C197.492 297.309 198.352 298.422 199.211 299.789C200.109 301.156 201.027 302.582 201.965 304.066ZM356.718 346.078V362.543C356.718 364.73 356.503 366.488 356.073 367.816C355.644 369.105 354.843 370.277 353.671 371.332C352.538 372.387 351.073 373.402 349.277 374.379C344.081 377.191 339.081 379.242 334.277 380.531C329.472 381.82 324.238 382.465 318.573 382.465C311.972 382.465 305.956 381.449 300.527 379.418C295.097 377.387 290.468 374.438 286.64 370.57C282.812 366.703 279.863 362.016 277.792 356.508C275.761 351 274.745 344.848 274.745 338.051C274.745 331.371 275.741 325.258 277.734 319.711C279.726 314.164 282.655 309.457 286.523 305.59C290.39 301.723 295.097 298.773 300.644 296.742C306.191 294.672 312.48 293.637 319.511 293.637C325.292 293.637 330.409 294.418 334.863 295.98C339.316 297.504 342.929 299.438 345.702 301.781C348.476 304.125 350.566 306.605 351.972 309.223C353.378 311.84 354.081 314.164 354.081 316.195C354.081 318.383 353.261 320.258 351.62 321.82C350.019 323.344 348.085 324.105 345.82 324.105C344.57 324.105 343.359 323.812 342.187 323.227C341.054 322.641 340.097 321.82 339.316 320.766C337.167 317.406 335.351 314.867 333.866 313.148C332.382 311.43 330.37 309.984 327.831 308.812C325.331 307.641 322.128 307.055 318.222 307.055C314.198 307.055 310.605 307.758 307.441 309.164C304.277 310.531 301.562 312.543 299.296 315.199C297.07 317.816 295.351 321.039 294.14 324.867C292.968 328.695 292.382 332.934 292.382 337.582C292.382 347.66 294.687 355.414 299.296 360.844C303.945 366.273 310.409 368.988 318.691 368.988C322.714 368.988 326.484 368.461 329.999 367.406C333.554 366.352 337.148 364.848 340.78 362.895V348.949H327.304C324.062 348.949 321.601 348.461 319.921 347.484C318.28 346.508 317.46 344.848 317.46 342.504C317.46 340.59 318.144 339.008 319.511 337.758C320.917 336.508 322.812 335.883 325.195 335.883H344.941C347.363 335.883 349.413 336.098 351.093 336.527C352.773 336.957 354.12 337.914 355.136 339.398C356.191 340.883 356.718 343.109 356.718 346.078Z" fill="white"/>
</g>
<defs>
<clipPath id="clip0">
<rect width="512" height="512" fill="white"/>
</clipPath>
</defs>
</svg>
