<svg width="512" height="512" viewBox="0 0 512 512" fill="none" xmlns="http://www.w3.org/2000/svg">
<g clip-path="url(#clip0)">
<path d="M95.5 485V433L96 239.5V25C101.6 5.4 118.333 0.5 126 0.5H352L479 128V330V489C472.2 506.6 458.167 511.667 452 512C347 511.833 135.8 511.6 131 512C125 512.5 118 510.5 108 504.5C100 499.7 96.3333 489.5 95.5 485Z" fill="#E2E5E7"/>
<path d="M479 223V128L466 115H450.5L373.5 117L479 223Z" fill="#CAD1D8"/>
<path d="M352 98V0.5L478.5 128H384.5C360.1 126.4 352.667 107.333 352 98Z" fill="#B0B7BD"/>
<path d="M97 402V447.5L402 448C412.4 446.8 415.667 438.5 416 434.5V402H97Z" fill="#CAD1D8"/>
<rect x="32" y="240" width="384" height="192" rx="16" fill="#576D7E"/>
<path d="M140.876 347.543H124.938V371.859C124.938 375.336 124.118 377.973 122.477 379.77C120.837 381.566 118.766 382.465 116.266 382.465C113.649 382.465 111.54 381.586 109.938 379.828C108.337 378.031 107.536 375.414 107.536 371.977V305.766C107.536 301.938 108.415 299.203 110.173 297.562C111.93 295.922 114.723 295.102 118.552 295.102H140.876C147.477 295.102 152.555 295.609 156.11 296.625C159.626 297.602 162.653 299.223 165.192 301.488C167.77 303.754 169.723 306.527 171.052 309.809C172.38 313.09 173.044 316.781 173.044 320.883C173.044 329.633 170.348 336.273 164.958 340.805C159.567 345.297 151.54 347.543 140.876 347.543ZM136.657 308.168H124.938V334.418H136.657C140.759 334.418 144.177 333.988 146.911 333.129C149.684 332.27 151.794 330.863 153.239 328.91C154.684 326.957 155.407 324.398 155.407 321.234C155.407 317.445 154.294 314.359 152.067 311.977C149.567 309.438 144.43 308.168 136.657 308.168ZM228.715 347.543H212.777V371.859C212.777 375.336 211.957 377.973 210.316 379.77C208.676 381.566 206.605 382.465 204.105 382.465C201.488 382.465 199.379 381.586 197.777 379.828C196.176 378.031 195.375 375.414 195.375 371.977V305.766C195.375 301.938 196.254 299.203 198.012 297.562C199.77 295.922 202.562 295.102 206.391 295.102H228.715C235.316 295.102 240.395 295.609 243.949 296.625C247.465 297.602 250.492 299.223 253.031 301.488C255.609 303.754 257.562 306.527 258.891 309.809C260.219 313.09 260.883 316.781 260.883 320.883C260.883 329.633 258.188 336.273 252.797 340.805C247.406 345.297 239.379 347.543 228.715 347.543ZM224.496 308.168H212.777V334.418H224.496C228.598 334.418 232.016 333.988 234.75 333.129C237.523 332.27 239.633 330.863 241.078 328.91C242.523 326.957 243.246 324.398 243.246 321.234C243.246 317.445 242.133 314.359 239.906 311.977C237.406 309.438 232.27 308.168 224.496 308.168ZM338.995 309.457H320.011V371.859C320.011 375.453 319.21 378.129 317.609 379.887C316.007 381.605 313.937 382.465 311.398 382.465C308.82 382.465 306.71 381.586 305.07 379.828C303.468 378.07 302.667 375.414 302.667 371.859V309.457H283.683C280.714 309.457 278.507 308.812 277.062 307.523C275.616 306.195 274.894 304.457 274.894 302.309C274.894 300.082 275.636 298.324 277.12 297.035C278.644 295.746 280.831 295.102 283.683 295.102H338.995C342.003 295.102 344.23 295.766 345.675 297.094C347.159 298.422 347.902 300.16 347.902 302.309C347.902 304.457 347.159 306.195 345.675 307.523C344.191 308.812 341.964 309.457 338.995 309.457Z" fill="white"/>
</g>
<defs>
<clipPath id="clip0">
<rect width="512" height="512" fill="white"/>
</clipPath>
</defs>
</svg>
