<svg width="512" height="512" viewBox="0 0 512 512" fill="none" xmlns="http://www.w3.org/2000/svg">
<g clip-path="url(#clip0)">
<path d="M95.5 485V433L96 239.5V25C101.6 5.4 118.333 0.5 126 0.5H352L479 128V330V489C472.2 506.6 458.167 511.667 452 512C347 511.833 135.8 511.6 131 512C125 512.5 118 510.5 108 504.5C100 499.7 96.3333 489.5 95.5 485Z" fill="#E2E5E7"/>
<path d="M479 223V128L466 115H450.5L373.5 117L479 223Z" fill="#CAD1D8"/>
<path d="M352 98V0.5L478.5 128H384.5C360.1 126.4 352.667 107.333 352 98Z" fill="#B0B7BD"/>
<path d="M97 402V447.5L402 448C412.4 446.8 415.667 438.5 416 434.5V402H97Z" fill="#CAD1D8"/>
<rect x="10" y="240" width="384" height="192" rx="16" fill="#576D7E"/>
<path d="M79.2063 346.543H63.2688V370.859C63.2688 374.336 62.4484 376.973 60.8078 378.77C59.1672 380.566 57.0969 381.465 54.5969 381.465C51.9797 381.465 49.8703 380.586 48.2688 378.828C46.6672 377.031 45.8664 374.414 45.8664 370.977V304.766C45.8664 300.938 46.7453 298.203 48.5031 296.562C50.2609 294.922 53.0539 294.102 56.882 294.102H79.2063C85.8078 294.102 90.8859 294.609 94.4406 295.625C97.9563 296.602 100.984 298.223 103.523 300.488C106.101 302.754 108.054 305.527 109.382 308.809C110.71 312.09 111.374 315.781 111.374 319.883C111.374 328.633 108.679 335.273 103.288 339.805C97.8977 344.297 89.8703 346.543 79.2063 346.543ZM74.9875 307.168H63.2688V333.418H74.9875C79.0891 333.418 82.507 332.988 85.2414 332.129C88.0148 331.27 90.1242 329.863 91.5695 327.91C93.0148 325.957 93.7375 323.398 93.7375 320.234C93.7375 316.445 92.6242 313.359 90.3977 310.977C87.8977 308.438 82.7609 307.168 74.9875 307.168ZM167.045 346.543H151.108V370.859C151.108 374.336 150.288 376.973 148.647 378.77C147.006 380.566 144.936 381.465 142.436 381.465C139.819 381.465 137.709 380.586 136.108 378.828C134.506 377.031 133.705 374.414 133.705 370.977V304.766C133.705 300.938 134.584 298.203 136.342 296.562C138.1 294.922 140.893 294.102 144.721 294.102H167.045C173.647 294.102 178.725 294.609 182.28 295.625C185.795 296.602 188.823 298.223 191.362 300.488C193.94 302.754 195.893 305.527 197.221 308.809C198.549 312.09 199.213 315.781 199.213 319.883C199.213 328.633 196.518 335.273 191.127 339.805C185.737 344.297 177.709 346.543 167.045 346.543ZM162.827 307.168H151.108V333.418H162.827C166.928 333.418 170.346 332.988 173.08 332.129C175.854 331.27 177.963 329.863 179.409 327.91C180.854 325.957 181.577 323.398 181.577 320.234C181.577 316.445 180.463 313.359 178.237 310.977C175.737 308.438 170.6 307.168 162.827 307.168ZM277.326 308.457H258.341V370.859C258.341 374.453 257.541 377.129 255.939 378.887C254.338 380.605 252.267 381.465 249.728 381.465C247.15 381.465 245.041 380.586 243.4 378.828C241.798 377.07 240.998 374.414 240.998 370.859V308.457H222.013C219.045 308.457 216.838 307.812 215.392 306.523C213.947 305.195 213.224 303.457 213.224 301.309C213.224 299.082 213.966 297.324 215.451 296.035C216.974 294.746 219.162 294.102 222.013 294.102H277.326C280.334 294.102 282.56 294.766 284.005 296.094C285.49 297.422 286.232 299.16 286.232 301.309C286.232 303.457 285.49 305.195 284.005 306.523C282.521 307.812 280.295 308.457 277.326 308.457ZM301.18 363.301L320.399 335.234L304.227 310.273C302.704 307.852 301.552 305.781 300.77 304.062C300.028 302.305 299.657 300.625 299.657 299.023C299.657 297.383 300.38 295.918 301.825 294.629C303.309 293.301 305.106 292.637 307.216 292.637C309.638 292.637 311.513 293.359 312.841 294.805C314.208 296.211 316.083 298.848 318.466 302.715L331.356 323.574L345.126 302.715C346.259 300.957 347.216 299.453 347.997 298.203C348.817 296.953 349.598 295.918 350.341 295.098C351.083 294.277 351.903 293.672 352.802 293.281C353.739 292.852 354.813 292.637 356.024 292.637C358.212 292.637 359.989 293.301 361.356 294.629C362.763 295.918 363.466 297.461 363.466 299.258C363.466 301.875 361.962 305.43 358.954 309.922L342.02 335.234L360.243 363.301C361.884 365.762 363.075 367.812 363.817 369.453C364.559 371.055 364.93 372.578 364.93 374.023C364.93 375.391 364.598 376.641 363.934 377.773C363.27 378.906 362.333 379.805 361.122 380.469C359.911 381.133 358.544 381.465 357.02 381.465C355.38 381.465 353.993 381.113 352.86 380.41C351.727 379.746 350.809 378.906 350.106 377.891C349.403 376.875 348.095 374.902 346.18 371.973L331.063 348.184L315.009 372.676C313.759 374.629 312.86 375.996 312.313 376.777C311.805 377.559 311.18 378.32 310.438 379.062C309.696 379.805 308.817 380.391 307.802 380.82C306.786 381.25 305.595 381.465 304.227 381.465C302.118 381.465 300.36 380.82 298.954 379.531C297.587 378.242 296.903 376.367 296.903 373.906C296.903 371.016 298.329 367.48 301.18 363.301Z" fill="white"/>
</g>
<defs>
<clipPath id="clip0">
<rect width="512" height="512" fill="white"/>
</clipPath>
</defs>
</svg>
