<svg width="512" height="512" viewBox="0 0 512 512" fill="none" xmlns="http://www.w3.org/2000/svg">
<g clip-path="url(#clip0)">
<path d="M95.5 485V433L96 239.5V25C101.6 5.4 118.333 0.5 126 0.5H352L479 128V330V489C472.2 506.6 458.167 511.667 452 512C347 511.833 135.8 511.6 131 512C125 512.5 118 510.5 108 504.5C100 499.7 96.3333 489.5 95.5 485Z" fill="#E2E5E7"/>
<path d="M479 223V128L466 115H450.5L373.5 117L479 223Z" fill="#CAD1D8"/>
<path d="M352 98V0.5L478.5 128H384.5C360.1 126.4 352.667 107.333 352 98Z" fill="#B0B7BD"/>
<path d="M97 402V447.5L402 448C412.4 446.8 415.667 438.5 416 434.5V402H97Z" fill="#CAD1D8"/>
<rect x="10" y="240" width="384" height="192" rx="16" fill="#576D7E"/>
<path d="M117.942 346.543H102.005V370.859C102.005 374.336 101.184 376.973 99.5437 378.77C97.9031 380.566 95.8328 381.465 93.3328 381.465C90.7156 381.465 88.6062 380.586 87.0047 378.828C85.4031 377.031 84.6023 374.414 84.6023 370.977V304.766C84.6023 300.938 85.4812 298.203 87.2391 296.562C88.9969 294.922 91.7898 294.102 95.618 294.102H117.942C124.544 294.102 129.622 294.609 133.177 295.625C136.692 296.602 139.72 298.223 142.259 300.488C144.837 302.754 146.79 305.527 148.118 308.809C149.446 312.09 150.11 315.781 150.11 319.883C150.11 328.633 147.415 335.273 142.024 339.805C136.634 344.297 128.606 346.543 117.942 346.543ZM113.723 307.168H102.005V333.418H113.723C117.825 333.418 121.243 332.988 123.977 332.129C126.751 331.27 128.86 329.863 130.305 327.91C131.751 325.957 132.473 323.398 132.473 320.234C132.473 316.445 131.36 313.359 129.134 310.977C126.634 308.438 121.497 307.168 113.723 307.168ZM195.82 343.262H189.727V370.859C189.727 374.492 188.926 377.168 187.324 378.887C185.723 380.605 183.633 381.465 181.055 381.465C178.281 381.465 176.133 380.566 174.609 378.77C173.086 376.973 172.324 374.336 172.324 370.859V304.766C172.324 301.016 173.164 298.301 174.844 296.621C176.523 294.941 179.238 294.102 182.988 294.102H211.289C215.195 294.102 218.535 294.277 221.309 294.629C224.082 294.941 226.582 295.605 228.809 296.621C231.504 297.754 233.887 299.375 235.957 301.484C238.027 303.594 239.59 306.055 240.645 308.867C241.738 311.641 242.285 314.59 242.285 317.715C242.285 324.121 240.469 329.238 236.836 333.066C233.242 336.895 227.773 339.609 220.43 341.211C223.516 342.852 226.465 345.273 229.277 348.477C232.09 351.68 234.59 355.098 236.777 358.73C239.004 362.324 240.723 365.586 241.934 368.516C243.184 371.406 243.809 373.398 243.809 374.492C243.809 375.625 243.438 376.758 242.695 377.891C241.992 378.984 241.016 379.844 239.766 380.469C238.516 381.133 237.07 381.465 235.43 381.465C233.477 381.465 231.836 380.996 230.508 380.059C229.18 379.16 228.027 378.008 227.051 376.602C226.113 375.195 224.824 373.125 223.184 370.391L216.211 358.789C213.711 354.531 211.465 351.289 209.473 349.062C207.52 346.836 205.527 345.312 203.496 344.492C201.465 343.672 198.906 343.262 195.82 343.262ZM205.781 307.168H189.727V330.781H205.312C209.492 330.781 213.008 330.43 215.859 329.727C218.711 328.984 220.879 327.754 222.363 326.035C223.887 324.277 224.648 321.875 224.648 318.828C224.648 316.445 224.043 314.355 222.832 312.559C221.621 310.723 219.941 309.355 217.793 308.457C215.762 307.598 211.758 307.168 205.781 307.168ZM317.937 307.52H283.659V329.492H312.312C314.968 329.492 316.941 330.098 318.23 331.309C319.558 332.48 320.222 334.062 320.222 336.055C320.222 338.047 319.558 339.629 318.23 340.801C316.902 341.973 314.929 342.559 312.312 342.559H283.659V370.859C283.659 374.453 282.839 377.129 281.198 378.887C279.597 380.605 277.527 381.465 274.988 381.465C272.409 381.465 270.3 380.586 268.659 378.828C267.058 377.07 266.257 374.414 266.257 370.859V304.766C266.257 302.266 266.628 300.234 267.37 298.672C268.113 297.07 269.265 295.918 270.827 295.215C272.429 294.473 274.46 294.102 276.921 294.102H317.937C320.71 294.102 322.761 294.727 324.089 295.977C325.456 297.188 326.14 298.789 326.14 300.781C326.14 302.812 325.456 304.453 324.089 305.703C322.761 306.914 320.71 307.52 317.937 307.52Z" fill="white"/>
</g>
<defs>
<clipPath id="clip0">
<rect width="512" height="512" fill="white"/>
</clipPath>
</defs>
</svg>
