<svg width="512" height="512" viewBox="0 0 512 512" fill="none" xmlns="http://www.w3.org/2000/svg">
<g clip-path="url(#clip0)">
<path d="M95.5 485V433L96 239.5V25C101.6 5.4 118.333 0.5 126 0.5H352L479 128V330V489C472.2 506.6 458.167 511.667 452 512C347 511.833 135.8 511.6 131 512C125 512.5 118 510.5 108 504.5C100 499.7 96.3333 489.5 95.5 485Z" fill="#E2E5E7"/>
<path d="M479 223V128L466 115H450.5L373.5 117L479 223Z" fill="#CAD1D8"/>
<path d="M352 98V0.5L478.5 128H384.5C360.1 126.4 352.667 107.333 352 98Z" fill="#B0B7BD"/>
<path d="M97 402V447.5L402 448C412.4 446.8 415.667 438.5 416 434.5V402H97Z" fill="#CAD1D8"/>
<rect x="10" y="240" width="384" height="192" rx="16" fill="#576D7E"/>
<path d="M160.776 346.543H144.838V370.859C144.838 374.336 144.018 376.973 142.377 378.77C140.737 380.566 138.666 381.465 136.166 381.465C133.549 381.465 131.44 380.586 129.838 378.828C128.237 377.031 127.436 374.414 127.436 370.977V304.766C127.436 300.938 128.315 298.203 130.073 296.562C131.83 294.922 134.623 294.102 138.452 294.102H160.776C167.377 294.102 172.455 294.609 176.01 295.625C179.526 296.602 182.553 298.223 185.092 300.488C187.67 302.754 189.623 305.527 190.952 308.809C192.28 312.09 192.944 315.781 192.944 319.883C192.944 328.633 190.248 335.273 184.858 339.805C179.467 344.297 171.44 346.543 160.776 346.543ZM156.557 307.168H144.838V333.418H156.557C160.659 333.418 164.077 332.988 166.811 332.129C169.584 331.27 171.694 329.863 173.139 327.91C174.584 325.957 175.307 323.398 175.307 320.234C175.307 316.445 174.194 313.359 171.967 310.977C169.467 308.438 164.33 307.168 156.557 307.168ZM280.548 354.219C280.548 359.414 279.201 364.082 276.505 368.223C273.849 372.363 269.943 375.605 264.787 377.949C259.63 380.293 253.517 381.465 246.447 381.465C237.97 381.465 230.978 379.863 225.47 376.66C221.564 374.355 218.38 371.289 215.92 367.461C213.498 363.594 212.287 359.844 212.287 356.211C212.287 354.102 213.009 352.305 214.455 350.82C215.939 349.297 217.814 348.535 220.08 348.535C221.916 348.535 223.459 349.121 224.709 350.293C225.998 351.465 227.091 353.203 227.99 355.508C229.084 358.242 230.255 360.527 231.505 362.363C232.795 364.199 234.591 365.723 236.896 366.934C239.201 368.105 242.228 368.691 245.978 368.691C251.134 368.691 255.314 367.5 258.517 365.117C261.759 362.695 263.38 359.688 263.38 356.094C263.38 353.242 262.502 350.938 260.744 349.18C259.025 347.383 256.779 346.016 254.005 345.078C251.271 344.141 247.599 343.145 242.99 342.09C236.818 340.645 231.642 338.965 227.463 337.051C223.322 335.098 220.021 332.461 217.56 329.141C215.138 325.781 213.927 321.621 213.927 316.66C213.927 311.934 215.216 307.734 217.795 304.062C220.373 300.391 224.103 297.578 228.986 295.625C233.869 293.633 239.611 292.637 246.213 292.637C251.486 292.637 256.037 293.301 259.865 294.629C263.732 295.918 266.935 297.656 269.474 299.844C272.013 301.992 273.869 304.258 275.041 306.641C276.213 309.023 276.798 311.348 276.798 313.613C276.798 315.684 276.056 317.559 274.572 319.238C273.127 320.879 271.31 321.699 269.123 321.699C267.13 321.699 265.607 321.211 264.552 320.234C263.537 319.219 262.423 317.578 261.213 315.312C259.65 312.07 257.775 309.551 255.588 307.754C253.4 305.918 249.884 305 245.041 305C240.548 305 236.916 305.996 234.142 307.988C231.408 309.941 230.041 312.305 230.041 315.078C230.041 316.797 230.509 318.281 231.447 319.531C232.384 320.781 233.673 321.855 235.314 322.754C236.955 323.652 238.615 324.355 240.295 324.863C241.974 325.371 244.748 326.113 248.615 327.09C253.459 328.223 257.834 329.473 261.74 330.84C265.685 332.207 269.025 333.867 271.759 335.82C274.533 337.773 276.681 340.254 278.205 343.262C279.767 346.23 280.548 349.883 280.548 354.219Z" fill="white"/>
</g>
<defs>
<clipPath id="clip0">
<rect width="512" height="512" fill="white"/>
</clipPath>
</defs>
</svg>
