<svg width="512" height="512" viewBox="0 0 512 512" fill="none" xmlns="http://www.w3.org/2000/svg">
<g clip-path="url(#clip0)">
<path d="M95.5 485V433L96 239.5V25C101.6 5.4 118.333 0.5 126 0.5H352L479 128V330V489C472.2 506.6 458.167 511.667 452 512C347 511.833 135.8 511.6 131 512C125 512.5 118 510.5 108 504.5C100 499.7 96.3333 489.5 95.5 485Z" fill="#E2E5E7"/>
<path d="M479 223V128L466 115H450.5L373.5 117L479 223Z" fill="#CAD1D8"/>
<path d="M352 98V0.5L478.5 128H384.5C360.1 126.4 352.667 107.333 352 98Z" fill="#B0B7BD"/>
<path d="M97 402V447.5L402 448C412.4 446.8 415.667 438.5 416 434.5V402H97Z" fill="#CAD1D8"/>
<rect x="32" y="240" width="384" height="192" rx="16" fill="#576D7E"/>
<path d="M142.962 347.543H127.024V371.859C127.024 375.336 126.204 377.973 124.563 379.77C122.923 381.566 120.852 382.465 118.352 382.465C115.735 382.465 113.626 381.586 112.024 379.828C110.423 378.031 109.622 375.414 109.622 371.977V305.766C109.622 301.938 110.501 299.203 112.259 297.562C114.016 295.922 116.809 295.102 120.637 295.102H142.962C149.563 295.102 154.641 295.609 158.196 296.625C161.712 297.602 164.739 299.223 167.278 301.488C169.856 303.754 171.809 306.527 173.137 309.809C174.466 313.09 175.13 316.781 175.13 320.883C175.13 329.633 172.434 336.273 167.044 340.805C161.653 345.297 153.626 347.543 142.962 347.543ZM138.743 308.168H127.024V334.418H138.743C142.845 334.418 146.262 333.988 148.997 333.129C151.77 332.27 153.88 330.863 155.325 328.91C156.77 326.957 157.493 324.398 157.493 321.234C157.493 317.445 156.38 314.359 154.153 311.977C151.653 309.438 146.516 308.168 138.743 308.168ZM262.734 355.219C262.734 360.414 261.387 365.082 258.691 369.223C256.035 373.363 252.129 376.605 246.973 378.949C241.816 381.293 235.703 382.465 228.633 382.465C220.156 382.465 213.164 380.863 207.656 377.66C203.75 375.355 200.566 372.289 198.105 368.461C195.684 364.594 194.473 360.844 194.473 357.211C194.473 355.102 195.195 353.305 196.641 351.82C198.125 350.297 200 349.535 202.266 349.535C204.102 349.535 205.645 350.121 206.895 351.293C208.184 352.465 209.277 354.203 210.176 356.508C211.27 359.242 212.441 361.527 213.691 363.363C214.98 365.199 216.777 366.723 219.082 367.934C221.387 369.105 224.414 369.691 228.164 369.691C233.32 369.691 237.5 368.5 240.703 366.117C243.945 363.695 245.566 360.688 245.566 357.094C245.566 354.242 244.688 351.938 242.93 350.18C241.211 348.383 238.965 347.016 236.191 346.078C233.457 345.141 229.785 344.145 225.176 343.09C219.004 341.645 213.828 339.965 209.648 338.051C205.508 336.098 202.207 333.461 199.746 330.141C197.324 326.781 196.113 322.621 196.113 317.66C196.113 312.934 197.402 308.734 199.98 305.062C202.559 301.391 206.289 298.578 211.172 296.625C216.055 294.633 221.797 293.637 228.398 293.637C233.672 293.637 238.223 294.301 242.051 295.629C245.918 296.918 249.121 298.656 251.66 300.844C254.199 302.992 256.055 305.258 257.227 307.641C258.398 310.023 258.984 312.348 258.984 314.613C258.984 316.684 258.242 318.559 256.758 320.238C255.312 321.879 253.496 322.699 251.309 322.699C249.316 322.699 247.793 322.211 246.738 321.234C245.723 320.219 244.609 318.578 243.398 316.312C241.836 313.07 239.961 310.551 237.773 308.754C235.586 306.918 232.07 306 227.227 306C222.734 306 219.102 306.996 216.328 308.988C213.594 310.941 212.227 313.305 212.227 316.078C212.227 317.797 212.695 319.281 213.633 320.531C214.57 321.781 215.859 322.855 217.5 323.754C219.141 324.652 220.801 325.355 222.48 325.863C224.16 326.371 226.934 327.113 230.801 328.09C235.645 329.223 240.02 330.473 243.926 331.84C247.871 333.207 251.211 334.867 253.945 336.82C256.719 338.773 258.867 341.254 260.391 344.262C261.953 347.23 262.734 350.883 262.734 355.219ZM296.081 295.102H318.757C324.655 295.102 329.714 295.648 333.933 296.742C338.152 297.836 341.98 299.887 345.417 302.895C354.363 310.551 358.835 322.191 358.835 337.816C358.835 342.973 358.386 347.68 357.488 351.938C356.589 356.195 355.202 360.043 353.327 363.48C351.452 366.879 349.05 369.926 346.12 372.621C343.816 374.691 341.296 376.352 338.562 377.602C335.827 378.852 332.878 379.73 329.714 380.238C326.589 380.746 323.054 381 319.109 381H296.433C293.269 381 290.886 380.531 289.284 379.594C287.683 378.617 286.628 377.27 286.12 375.551C285.652 373.793 285.417 371.527 285.417 368.754V305.766C285.417 302.016 286.257 299.301 287.937 297.621C289.616 295.941 292.331 295.102 296.081 295.102ZM302.82 308.871V367.172H316.003C318.894 367.172 321.159 367.094 322.8 366.938C324.441 366.781 326.14 366.391 327.898 365.766C329.655 365.141 331.179 364.262 332.468 363.129C338.288 358.207 341.198 349.73 341.198 337.699C341.198 329.223 339.909 322.875 337.331 318.656C334.792 314.438 331.648 311.762 327.898 310.629C324.148 309.457 319.616 308.871 314.304 308.871H302.82Z" fill="white"/>
</g>
<defs>
<clipPath id="clip0">
<rect width="512" height="512" fill="white"/>
</clipPath>
</defs>
</svg>
