<svg width="512" height="512" viewBox="0 0 512 512" fill="none" xmlns="http://www.w3.org/2000/svg">
<g clip-path="url(#clip0)">
<path d="M95.5 485V433L96 239.5V25C101.6 5.4 118.333 0.5 126 0.5H352L479 128V330V489C472.2 506.6 458.167 511.667 452 512C347 511.833 135.8 511.6 131 512C125 512.5 118 510.5 108 504.5C100 499.7 96.3333 489.5 95.5 485Z" fill="#E2E5E7"/>
<path d="M479 223V128L466 115H450.5L373.5 117L479 223Z" fill="#CAD1D8"/>
<path d="M352 98V0.5L478.5 128H384.5C360.1 126.4 352.667 107.333 352 98Z" fill="#B0B7BD"/>
<path d="M97 402V447.5L402 448C412.4 446.8 415.667 438.5 416 434.5V402H97Z" fill="#CAD1D8"/>
<rect x="10" y="240" width="384" height="192" rx="16" fill="#576D7E"/>
<path d="M144.738 296.695H134.113V312.906C134.113 315.224 133.566 316.982 132.472 318.18C131.378 319.378 129.998 319.977 128.331 319.977C126.586 319.977 125.18 319.391 124.113 318.219C123.045 317.021 122.511 315.276 122.511 312.984V268.844C122.511 266.292 123.097 264.469 124.269 263.375C125.441 262.281 127.303 261.734 129.855 261.734H144.738C149.139 261.734 152.524 262.073 154.894 262.75C157.238 263.401 159.256 264.482 160.948 265.992C162.667 267.503 163.969 269.352 164.855 271.539C165.74 273.727 166.183 276.188 166.183 278.922C166.183 284.755 164.386 289.182 160.792 292.203C157.198 295.198 151.847 296.695 144.738 296.695ZM141.925 270.445H134.113V287.945H141.925C144.659 287.945 146.938 287.659 148.761 287.086C150.61 286.513 152.016 285.576 152.98 284.273C153.943 282.971 154.425 281.266 154.425 279.156C154.425 276.63 153.683 274.573 152.198 272.984C150.532 271.292 147.107 270.445 141.925 270.445ZM224.586 301.812C224.586 305.276 223.688 308.388 221.891 311.148C220.12 313.909 217.516 316.07 214.078 317.633C210.641 319.195 206.565 319.977 201.852 319.977C196.201 319.977 191.539 318.909 187.867 316.773C185.263 315.237 183.141 313.193 181.5 310.641C179.885 308.062 179.078 305.562 179.078 303.141C179.078 301.734 179.56 300.536 180.523 299.547C181.513 298.531 182.763 298.023 184.273 298.023C185.497 298.023 186.526 298.414 187.359 299.195C188.219 299.977 188.948 301.135 189.547 302.672C190.276 304.495 191.057 306.018 191.891 307.242C192.75 308.466 193.948 309.482 195.484 310.289C197.021 311.07 199.039 311.461 201.539 311.461C204.977 311.461 207.763 310.667 209.898 309.078C212.06 307.464 213.141 305.458 213.141 303.062C213.141 301.161 212.555 299.625 211.383 298.453C210.237 297.255 208.74 296.344 206.891 295.719C205.068 295.094 202.62 294.43 199.547 293.727C195.432 292.763 191.982 291.643 189.195 290.367C186.435 289.065 184.234 287.307 182.594 285.094C180.979 282.854 180.172 280.081 180.172 276.773C180.172 273.622 181.031 270.823 182.75 268.375C184.469 265.927 186.956 264.052 190.211 262.75C193.466 261.422 197.294 260.758 201.695 260.758C205.211 260.758 208.245 261.201 210.797 262.086C213.375 262.945 215.51 264.104 217.203 265.562C218.896 266.995 220.133 268.505 220.914 270.094C221.695 271.682 222.086 273.232 222.086 274.742C222.086 276.122 221.591 277.372 220.602 278.492C219.638 279.586 218.427 280.133 216.969 280.133C215.641 280.133 214.625 279.807 213.922 279.156C213.245 278.479 212.503 277.385 211.695 275.875C210.654 273.714 209.404 272.034 207.945 270.836C206.487 269.612 204.143 269 200.914 269C197.919 269 195.497 269.664 193.648 270.992C191.826 272.294 190.914 273.87 190.914 275.719C190.914 276.865 191.227 277.854 191.852 278.688C192.477 279.521 193.336 280.237 194.43 280.836C195.523 281.435 196.63 281.904 197.75 282.242C198.87 282.581 200.719 283.076 203.297 283.727C206.526 284.482 209.443 285.315 212.047 286.227C214.677 287.138 216.904 288.245 218.727 289.547C220.576 290.849 222.008 292.503 223.023 294.508C224.065 296.487 224.586 298.922 224.586 301.812ZM261.856 296.695H251.231V312.906C251.231 315.224 250.684 316.982 249.591 318.18C248.497 319.378 247.117 319.977 245.45 319.977C243.705 319.977 242.299 319.391 241.231 318.219C240.164 317.021 239.63 315.276 239.63 312.984V268.844C239.63 266.292 240.216 264.469 241.388 263.375C242.559 262.281 244.421 261.734 246.973 261.734H261.856C266.257 261.734 269.643 262.073 272.013 262.75C274.356 263.401 276.374 264.482 278.067 265.992C279.786 267.503 281.088 269.352 281.973 271.539C282.859 273.727 283.302 276.188 283.302 278.922C283.302 284.755 281.505 289.182 277.911 292.203C274.317 295.198 268.966 296.695 261.856 296.695ZM259.044 270.445H251.231V287.945H259.044C261.778 287.945 264.057 287.659 265.88 287.086C267.729 286.513 269.135 285.576 270.098 284.273C271.062 282.971 271.544 281.266 271.544 279.156C271.544 276.63 270.802 274.573 269.317 272.984C267.651 271.292 264.226 270.445 259.044 270.445ZM78.8734 405.906V360.789C78.8734 358.445 79.4073 356.688 80.475 355.516C81.5427 354.344 82.9229 353.758 84.6156 353.758C86.3604 353.758 87.7667 354.344 88.8344 355.516C89.9281 356.661 90.475 358.419 90.475 360.789V405.906C90.475 408.276 89.9281 410.047 88.8344 411.219C87.7667 412.391 86.3604 412.977 84.6156 412.977C82.949 412.977 81.5688 412.391 80.475 411.219C79.4073 410.021 78.8734 408.25 78.8734 405.906ZM143.409 392.078V406.258C143.409 408.497 142.902 410.177 141.886 411.297C140.87 412.417 139.529 412.977 137.863 412.977C136.248 412.977 134.933 412.417 133.917 411.297C132.928 410.177 132.433 408.497 132.433 406.258V389.266C132.433 386.583 132.342 384.5 132.159 383.016C131.977 381.531 131.482 380.32 130.675 379.383C129.868 378.419 128.592 377.938 126.847 377.938C123.357 377.938 121.053 379.135 119.933 381.531C118.839 383.927 118.292 387.365 118.292 391.844V406.258C118.292 408.471 117.784 410.151 116.769 411.297C115.779 412.417 114.464 412.977 112.823 412.977C111.209 412.977 109.881 412.417 108.839 411.297C107.823 410.151 107.316 408.471 107.316 406.258V375.75C107.316 373.745 107.771 372.221 108.683 371.18C109.62 370.138 110.844 369.617 112.355 369.617C113.813 369.617 115.024 370.112 115.988 371.102C116.977 372.065 117.472 373.406 117.472 375.125V376.141C119.321 373.927 121.3 372.299 123.409 371.258C125.519 370.216 127.863 369.695 130.441 369.695C133.123 369.695 135.428 370.229 137.355 371.297C139.282 372.365 140.87 373.979 142.12 376.141C143.917 373.953 145.844 372.339 147.902 371.297C149.959 370.229 152.238 369.695 154.738 369.695C157.654 369.695 160.167 370.268 162.277 371.414C164.386 372.56 165.961 374.201 167.003 376.336C167.915 378.263 168.37 381.297 168.37 385.438V406.258C168.37 408.497 167.863 410.177 166.847 411.297C165.831 412.417 164.49 412.977 162.823 412.977C161.209 412.977 159.881 412.417 158.839 411.297C157.823 410.151 157.316 408.471 157.316 406.258V388.328C157.316 386.036 157.211 384.201 157.003 382.82C156.821 381.44 156.3 380.281 155.441 379.344C154.581 378.406 153.279 377.938 151.534 377.938C150.128 377.938 148.787 378.354 147.511 379.188C146.261 380.021 145.284 381.141 144.581 382.547C143.8 384.344 143.409 387.521 143.409 392.078ZM210.875 406.961C208.297 408.966 205.797 410.477 203.375 411.492C200.979 412.482 198.284 412.977 195.289 412.977C192.555 412.977 190.146 412.443 188.063 411.375C186.005 410.281 184.417 408.81 183.297 406.961C182.177 405.112 181.617 403.107 181.617 400.945C181.617 398.029 182.542 395.542 184.391 393.484C186.24 391.427 188.779 390.047 192.008 389.344C192.685 389.188 194.365 388.836 197.047 388.289C199.729 387.742 202.021 387.247 203.922 386.805C205.849 386.336 207.932 385.776 210.172 385.125C210.042 382.312 209.469 380.255 208.453 378.953C207.464 377.625 205.393 376.961 202.242 376.961C199.534 376.961 197.49 377.339 196.109 378.094C194.755 378.849 193.583 379.982 192.594 381.492C191.63 383.003 190.94 384.005 190.523 384.5C190.133 384.969 189.273 385.203 187.945 385.203C186.747 385.203 185.706 384.826 184.82 384.07C183.961 383.289 183.531 382.299 183.531 381.102C183.531 379.227 184.195 377.404 185.523 375.633C186.852 373.862 188.922 372.404 191.734 371.258C194.547 370.112 198.049 369.539 202.242 369.539C206.93 369.539 210.615 370.099 213.297 371.219C215.979 372.312 217.867 374.057 218.961 376.453C220.081 378.849 220.641 382.026 220.641 385.984C220.641 388.484 220.628 390.607 220.602 392.352C220.602 394.096 220.589 396.036 220.563 398.172C220.563 400.177 220.888 402.273 221.539 404.461C222.216 406.622 222.555 408.016 222.555 408.641C222.555 409.734 222.034 410.737 220.992 411.648C219.977 412.534 218.818 412.977 217.516 412.977C216.422 412.977 215.341 412.469 214.273 411.453C213.206 410.411 212.073 408.914 210.875 406.961ZM210.172 391.531C208.609 392.104 206.331 392.716 203.336 393.367C200.367 393.992 198.31 394.461 197.164 394.773C196.018 395.06 194.924 395.646 193.883 396.531C192.841 397.391 192.32 398.602 192.32 400.164C192.32 401.779 192.932 403.159 194.156 404.305C195.38 405.424 196.982 405.984 198.961 405.984C201.07 405.984 203.01 405.529 204.781 404.617C206.578 403.68 207.893 402.482 208.727 401.023C209.69 399.409 210.172 396.753 210.172 393.055V391.531ZM274.825 377.43V408.406C274.825 411.948 274.447 414.995 273.692 417.547C272.937 420.099 271.726 422.208 270.059 423.875C268.393 425.542 266.205 426.779 263.497 427.586C260.815 428.393 257.468 428.797 253.458 428.797C249.786 428.797 246.505 428.276 243.614 427.234C240.723 426.219 238.497 424.891 236.934 423.25C235.372 421.635 234.591 419.969 234.591 418.25C234.591 416.948 235.033 415.88 235.919 415.047C236.804 414.24 237.872 413.836 239.122 413.836C240.684 413.836 242.052 414.526 243.223 415.906C243.796 416.609 244.382 417.312 244.981 418.016C245.606 418.745 246.283 419.357 247.013 419.852C247.768 420.372 248.666 420.75 249.708 420.984C250.749 421.245 251.947 421.375 253.302 421.375C256.062 421.375 258.197 420.984 259.708 420.203C261.244 419.448 262.312 418.38 262.911 417C263.536 415.62 263.901 414.135 264.005 412.547C264.109 410.984 264.187 408.458 264.239 404.969C262.598 407.26 260.697 409.005 258.536 410.203C256.401 411.401 253.848 412 250.88 412C247.312 412 244.187 411.089 241.505 409.266C238.848 407.443 236.804 404.891 235.372 401.609C233.94 398.328 233.223 394.539 233.223 390.242C233.223 387.039 233.653 384.148 234.513 381.57C235.398 378.992 236.648 376.818 238.263 375.047C239.877 373.276 241.739 371.948 243.848 371.062C245.958 370.151 248.276 369.695 250.802 369.695C253.822 369.695 256.44 370.281 258.653 371.453C260.867 372.599 262.924 374.409 264.825 376.883V375.438C264.825 373.589 265.281 372.156 266.192 371.141C267.104 370.125 268.276 369.617 269.708 369.617C271.765 369.617 273.132 370.294 273.809 371.648C274.486 372.977 274.825 374.904 274.825 377.43ZM243.927 390.945C243.927 395.268 244.864 398.536 246.739 400.75C248.64 402.964 251.088 404.07 254.083 404.07C255.854 404.07 257.52 403.602 259.083 402.664C260.671 401.701 261.96 400.268 262.95 398.367C263.94 396.44 264.434 394.109 264.434 391.375C264.434 387.026 263.471 383.641 261.544 381.219C259.643 378.797 257.13 377.586 254.005 377.586C250.958 377.586 248.51 378.745 246.661 381.062C244.838 383.38 243.927 386.674 243.927 390.945ZM318.541 393.914H297.681C297.707 396.336 298.189 398.471 299.127 400.32C300.09 402.169 301.353 403.562 302.916 404.5C304.504 405.438 306.249 405.906 308.15 405.906C309.426 405.906 310.585 405.763 311.627 405.477C312.694 405.164 313.723 404.695 314.713 404.07C315.702 403.419 316.614 402.729 317.447 402C318.28 401.271 319.361 400.281 320.689 399.031C321.236 398.562 322.017 398.328 323.033 398.328C324.127 398.328 325.012 398.628 325.689 399.227C326.366 399.826 326.705 400.672 326.705 401.766C326.705 402.729 326.327 403.862 325.572 405.164C324.817 406.44 323.671 407.677 322.134 408.875C320.624 410.047 318.71 411.023 316.392 411.805C314.101 412.586 311.457 412.977 308.463 412.977C301.614 412.977 296.288 411.023 292.486 407.117C288.684 403.211 286.783 397.911 286.783 391.219C286.783 388.068 287.252 385.151 288.189 382.469C289.127 379.76 290.494 377.443 292.291 375.516C294.088 373.589 296.301 372.117 298.931 371.102C301.561 370.06 304.478 369.539 307.681 369.539C311.848 369.539 315.416 370.424 318.384 372.195C321.379 373.94 323.619 376.206 325.103 378.992C326.588 381.779 327.33 384.617 327.33 387.508C327.33 390.19 326.561 391.935 325.025 392.742C323.489 393.523 321.327 393.914 318.541 393.914ZM297.681 387.859H317.017C316.757 384.214 315.767 381.492 314.048 379.695C312.356 377.872 310.116 376.961 307.33 376.961C304.673 376.961 302.486 377.885 300.767 379.734C299.074 381.557 298.046 384.266 297.681 387.859Z" fill="white"/>
</g>
<defs>
<clipPath id="clip0">
<rect width="512" height="512" fill="white"/>
</clipPath>
</defs>
</svg>
