<svg width="512" height="512" viewBox="0 0 512 512" fill="none" xmlns="http://www.w3.org/2000/svg">
<g clip-path="url(#clip0)">
<path d="M95.5 485V433L96 239.5V25C101.6 5.4 118.333 0.5 126 0.5H352L479 128V330V489C472.2 506.6 458.167 511.667 452 512C347 511.833 135.8 511.6 131 512C125 512.5 118 510.5 108 504.5C100 499.7 96.3333 489.5 95.5 485Z" fill="#E2E5E7"/>
<path d="M479 223V128L466 115H450.5L373.5 117L479 223Z" fill="#CAD1D8"/>
<path d="M352 98V0.5L478.5 128H384.5C360.1 126.4 352.667 107.333 352 98Z" fill="#B0B7BD"/>
<path d="M97 402V447.5L402 448C412.4 446.8 415.667 438.5 416 434.5V402H97Z" fill="#CAD1D8"/>
<rect x="10" y="240" width="384" height="192" rx="16" fill="#576D7E"/>
<path d="M163.795 346.543H147.858V370.859C147.858 374.336 147.037 376.973 145.397 378.77C143.756 380.566 141.686 381.465 139.186 381.465C136.569 381.465 134.459 380.586 132.858 378.828C131.256 377.031 130.455 374.414 130.455 370.977V304.766C130.455 300.938 131.334 298.203 133.092 296.562C134.85 294.922 137.643 294.102 141.471 294.102H163.795C170.397 294.102 175.475 294.609 179.03 295.625C182.545 296.602 185.573 298.223 188.112 300.488C190.69 302.754 192.643 305.527 193.971 308.809C195.299 312.09 195.963 315.781 195.963 319.883C195.963 328.633 193.268 335.273 187.877 339.805C182.487 344.297 174.459 346.543 163.795 346.543ZM159.577 307.168H147.858V333.418H159.577C163.678 333.418 167.096 332.988 169.83 332.129C172.604 331.27 174.713 329.863 176.159 327.91C177.604 325.957 178.327 323.398 178.327 320.234C178.327 316.445 177.213 313.359 174.987 310.977C172.487 308.438 167.35 307.168 159.577 307.168ZM237.455 370.859V343.613L216.478 311.094C214.642 308.164 213.334 305.879 212.552 304.238C211.81 302.598 211.439 301.172 211.439 299.961C211.439 297.969 212.201 296.25 213.724 294.805C215.287 293.359 217.201 292.637 219.466 292.637C221.849 292.637 223.646 293.32 224.857 294.688C226.107 296.016 227.963 298.691 230.423 302.715L246.478 328.789L262.709 302.715C263.685 301.113 264.505 299.766 265.17 298.672C265.834 297.578 266.556 296.562 267.338 295.625C268.158 294.648 269.056 293.906 270.033 293.398C271.009 292.891 272.201 292.637 273.607 292.637C275.795 292.637 277.611 293.359 279.056 294.805C280.541 296.211 281.283 297.852 281.283 299.727C281.283 301.25 280.912 302.773 280.17 304.297C279.427 305.82 278.158 307.93 276.361 310.625L254.857 343.613V370.859C254.857 374.414 254.037 377.07 252.396 378.828C250.755 380.586 248.666 381.465 246.127 381.465C243.548 381.465 241.459 380.605 239.857 378.887C238.255 377.129 237.455 374.453 237.455 370.859Z" fill="white"/>
</g>
<defs>
<clipPath id="clip0">
<rect width="512" height="512" fill="white"/>
</clipPath>
</defs>
</svg>
