<svg width="512" height="512" viewBox="0 0 512 512" fill="none" xmlns="http://www.w3.org/2000/svg">
<g clip-path="url(#clip0)">
<path d="M95.5 485V433L96 239.5V25C101.6 5.4 118.333 0.5 126 0.5H352L479 128V330V489C472.2 506.6 458.167 511.667 452 512C347 511.833 135.8 511.6 131 512C125 512.5 118 510.5 108 504.5C100 499.7 96.3333 489.5 95.5 485Z" fill="#E2E5E7"/>
<path d="M479 223V128L466 115H450.5L373.5 117L479 223Z" fill="#CAD1D8"/>
<path d="M352 98V0.5L478.5 128H384.5C360.1 126.4 352.667 107.333 352 98Z" fill="#B0B7BD"/>
<path d="M97 402V447.5L402 448C412.4 446.8 415.667 438.5 416 434.5V402H97Z" fill="#CAD1D8"/>
<rect x="32" y="240" width="384" height="192" rx="16" fill="#50BEE8"/>
<path d="M118.903 344.262H112.809V371.859C112.809 375.492 112.009 378.168 110.407 379.887C108.805 381.605 106.716 382.465 104.137 382.465C101.364 382.465 99.2156 381.566 97.6922 379.77C96.1687 377.973 95.407 375.336 95.407 371.859V305.766C95.407 302.016 96.2469 299.301 97.9266 297.621C99.6062 295.941 102.321 295.102 106.071 295.102H134.372C138.278 295.102 141.618 295.277 144.391 295.629C147.165 295.941 149.665 296.605 151.891 297.621C154.587 298.754 156.97 300.375 159.04 302.484C161.11 304.594 162.673 307.055 163.727 309.867C164.821 312.641 165.368 315.59 165.368 318.715C165.368 325.121 163.552 330.238 159.919 334.066C156.325 337.895 150.856 340.609 143.512 342.211C146.598 343.852 149.548 346.273 152.36 349.477C155.173 352.68 157.673 356.098 159.86 359.73C162.087 363.324 163.805 366.586 165.016 369.516C166.266 372.406 166.891 374.398 166.891 375.492C166.891 376.625 166.52 377.758 165.778 378.891C165.075 379.984 164.098 380.844 162.848 381.469C161.598 382.133 160.153 382.465 158.512 382.465C156.559 382.465 154.919 381.996 153.591 381.059C152.262 380.16 151.11 379.008 150.134 377.602C149.196 376.195 147.907 374.125 146.266 371.391L139.294 359.789C136.794 355.531 134.548 352.289 132.555 350.062C130.602 347.836 128.61 346.312 126.579 345.492C124.548 344.672 121.989 344.262 118.903 344.262ZM128.864 308.168H112.809V331.781H128.395C132.575 331.781 136.091 331.43 138.942 330.727C141.794 329.984 143.962 328.754 145.446 327.035C146.97 325.277 147.731 322.875 147.731 319.828C147.731 317.445 147.126 315.355 145.915 313.559C144.704 311.723 143.024 310.355 140.876 309.457C138.845 308.598 134.841 308.168 128.864 308.168ZM244.652 371.273L240.551 360.492H205.629L201.527 371.508C199.926 375.805 198.559 378.715 197.426 380.238C196.293 381.723 194.438 382.465 191.859 382.465C189.672 382.465 187.738 381.664 186.059 380.062C184.379 378.461 183.539 376.645 183.539 374.613C183.539 373.441 183.734 372.23 184.125 370.98C184.516 369.73 185.16 367.992 186.059 365.766L208.031 309.984C208.656 308.383 209.398 306.469 210.258 304.242C211.156 301.977 212.094 300.102 213.07 298.617C214.086 297.133 215.395 295.941 216.996 295.043C218.637 294.105 220.648 293.637 223.031 293.637C225.453 293.637 227.465 294.105 229.066 295.043C230.707 295.941 232.016 297.113 232.992 298.559C234.008 300.004 234.848 301.566 235.512 303.246C236.215 304.887 237.094 307.094 238.148 309.867L260.59 365.297C262.348 369.516 263.227 372.582 263.227 374.496C263.227 376.488 262.387 378.324 260.707 380.004C259.066 381.645 257.074 382.465 254.73 382.465C253.363 382.465 252.191 382.211 251.215 381.703C250.238 381.234 249.418 380.59 248.754 379.77C248.09 378.91 247.367 377.621 246.586 375.902C245.844 374.145 245.199 372.602 244.652 371.273ZM210.199 347.426H235.863L222.914 311.977L210.199 347.426ZM307.238 344.262H301.144V371.859C301.144 375.492 300.343 378.168 298.741 379.887C297.14 381.605 295.05 382.465 292.472 382.465C289.698 382.465 287.55 381.566 286.027 379.77C284.503 377.973 283.741 375.336 283.741 371.859V305.766C283.741 302.016 284.581 299.301 286.261 297.621C287.941 295.941 290.655 295.102 294.405 295.102H322.706C326.613 295.102 329.952 295.277 332.726 295.629C335.499 295.941 337.999 296.605 340.226 297.621C342.921 298.754 345.304 300.375 347.374 302.484C349.445 304.594 351.007 307.055 352.062 309.867C353.155 312.641 353.702 315.59 353.702 318.715C353.702 325.121 351.886 330.238 348.253 334.066C344.659 337.895 339.191 340.609 331.847 342.211C334.933 343.852 337.882 346.273 340.695 349.477C343.507 352.68 346.007 356.098 348.195 359.73C350.421 363.324 352.14 366.586 353.351 369.516C354.601 372.406 355.226 374.398 355.226 375.492C355.226 376.625 354.855 377.758 354.113 378.891C353.409 379.984 352.433 380.844 351.183 381.469C349.933 382.133 348.488 382.465 346.847 382.465C344.894 382.465 343.253 381.996 341.925 381.059C340.597 380.16 339.445 379.008 338.468 377.602C337.53 376.195 336.241 374.125 334.601 371.391L327.628 359.789C325.128 355.531 322.882 352.289 320.89 350.062C318.937 347.836 316.945 346.312 314.913 345.492C312.882 344.672 310.323 344.262 307.238 344.262ZM317.198 308.168H301.144V331.781H316.73C320.909 331.781 324.425 331.43 327.277 330.727C330.128 329.984 332.296 328.754 333.78 327.035C335.304 325.277 336.066 322.875 336.066 319.828C336.066 317.445 335.46 315.355 334.249 313.559C333.038 311.723 331.359 310.355 329.21 309.457C327.179 308.598 323.175 308.168 317.198 308.168Z" fill="white"/>
</g>
<defs>
<clipPath id="clip0">
<rect width="512" height="512" fill="white"/>
</clipPath>
</defs>
</svg>
