<svg width="512" height="512" viewBox="0 0 512 512" fill="none" xmlns="http://www.w3.org/2000/svg">
<g clip-path="url(#clip0)">
<path d="M95.5 485V433L96 239.5V25C101.6 5.4 118.333 0.5 126 0.5H352L479 128V330V489C472.2 506.6 458.167 511.667 452 512C347 511.833 135.8 511.6 131 512C125 512.5 118 510.5 108 504.5C100 499.7 96.3333 489.5 95.5 485Z" fill="#E2E5E7"/>
<path d="M479 223V128L466 115H450.5L373.5 117L479 223Z" fill="#CAD1D8"/>
<path d="M352 98V0.5L478.5 128H384.5C360.1 126.4 352.667 107.333 352 98Z" fill="#B0B7BD"/>
<path d="M97 402V447.5L402 448C412.4 446.8 415.667 438.5 416 434.5V402H97Z" fill="#CAD1D8"/>
<rect x="32" y="240" width="384" height="192" rx="16" fill="#50BEE8"/>
<path d="M105.778 344.262H99.6844V371.859C99.6844 375.492 98.8836 378.168 97.282 379.887C95.6805 381.605 93.5906 382.465 91.0125 382.465C88.2391 382.465 86.0906 381.566 84.5672 379.77C83.0437 377.973 82.282 375.336 82.282 371.859V305.766C82.282 302.016 83.1219 299.301 84.8016 297.621C86.4812 295.941 89.1961 295.102 92.9461 295.102H121.247C125.153 295.102 128.493 295.277 131.266 295.629C134.04 295.941 136.54 296.605 138.766 297.621C141.462 298.754 143.845 300.375 145.915 302.484C147.985 304.594 149.548 307.055 150.602 309.867C151.696 312.641 152.243 315.59 152.243 318.715C152.243 325.121 150.427 330.238 146.794 334.066C143.2 337.895 137.731 340.609 130.387 342.211C133.473 343.852 136.423 346.273 139.235 349.477C142.048 352.68 144.548 356.098 146.735 359.73C148.962 363.324 150.68 366.586 151.891 369.516C153.141 372.406 153.766 374.398 153.766 375.492C153.766 376.625 153.395 377.758 152.653 378.891C151.95 379.984 150.973 380.844 149.723 381.469C148.473 382.133 147.028 382.465 145.387 382.465C143.434 382.465 141.794 381.996 140.466 381.059C139.137 380.16 137.985 379.008 137.009 377.602C136.071 376.195 134.782 374.125 133.141 371.391L126.169 359.789C123.669 355.531 121.423 352.289 119.43 350.062C117.477 347.836 115.485 346.312 113.454 345.492C111.423 344.672 108.864 344.262 105.778 344.262ZM115.739 308.168H99.6844V331.781H115.27C119.45 331.781 122.966 331.43 125.817 330.727C128.669 329.984 130.837 328.754 132.321 327.035C133.845 325.277 134.606 322.875 134.606 319.828C134.606 317.445 134.001 315.355 132.79 313.559C131.579 311.723 129.899 310.355 127.751 309.457C125.72 308.598 121.716 308.168 115.739 308.168ZM231.527 371.273L227.426 360.492H192.504L188.402 371.508C186.801 375.805 185.434 378.715 184.301 380.238C183.168 381.723 181.312 382.465 178.734 382.465C176.547 382.465 174.613 381.664 172.934 380.062C171.254 378.461 170.414 376.645 170.414 374.613C170.414 373.441 170.609 372.23 171 370.98C171.391 369.73 172.035 367.992 172.934 365.766L194.906 309.984C195.531 308.383 196.273 306.469 197.133 304.242C198.031 301.977 198.969 300.102 199.945 298.617C200.961 297.133 202.27 295.941 203.871 295.043C205.512 294.105 207.523 293.637 209.906 293.637C212.328 293.637 214.34 294.105 215.941 295.043C217.582 295.941 218.891 297.113 219.867 298.559C220.883 300.004 221.723 301.566 222.387 303.246C223.09 304.887 223.969 307.094 225.023 309.867L247.465 365.297C249.223 369.516 250.102 372.582 250.102 374.496C250.102 376.488 249.262 378.324 247.582 380.004C245.941 381.645 243.949 382.465 241.605 382.465C240.238 382.465 239.066 382.211 238.09 381.703C237.113 381.234 236.293 380.59 235.629 379.77C234.965 378.91 234.242 377.621 233.461 375.902C232.719 374.145 232.074 372.602 231.527 371.273ZM197.074 347.426H222.738L209.789 311.977L197.074 347.426ZM331.554 367.465L317.667 315.961L303.605 367.465C302.511 371.371 301.632 374.184 300.968 375.902C300.343 377.582 299.23 379.105 297.628 380.473C296.027 381.801 293.898 382.465 291.241 382.465C289.093 382.465 287.316 382.055 285.909 381.234C284.542 380.453 283.429 379.34 282.57 377.895C281.71 376.41 281.007 374.672 280.46 372.68C279.913 370.648 279.425 368.773 278.995 367.055L264.698 309.223C263.839 305.863 263.409 303.305 263.409 301.547C263.409 299.32 264.191 297.445 265.753 295.922C267.316 294.398 269.249 293.637 271.554 293.637C274.718 293.637 276.847 294.652 277.941 296.684C279.034 298.715 279.991 301.664 280.812 305.531L292.062 355.688L304.659 308.754C305.597 305.16 306.437 302.426 307.179 300.551C307.921 298.676 309.132 297.055 310.812 295.688C312.491 294.32 314.777 293.637 317.667 293.637C320.597 293.637 322.863 294.359 324.464 295.805C326.105 297.211 327.238 298.754 327.863 300.434C328.488 302.113 329.327 304.887 330.382 308.754L343.097 355.688L354.347 305.531C354.894 302.914 355.402 300.863 355.87 299.379C356.378 297.895 357.218 296.566 358.39 295.395C359.601 294.223 361.339 293.637 363.605 293.637C365.87 293.637 367.784 294.398 369.347 295.922C370.948 297.406 371.749 299.281 371.749 301.547C371.749 303.148 371.32 305.707 370.46 309.223L356.163 367.055C355.187 370.961 354.366 373.832 353.702 375.668C353.077 377.465 351.984 379.047 350.421 380.414C348.898 381.781 346.73 382.465 343.917 382.465C341.261 382.465 339.132 381.801 337.53 380.473C335.929 379.145 334.816 377.66 334.191 376.02C333.566 374.34 332.687 371.488 331.554 367.465Z" fill="white"/>
</g>
<defs>
<clipPath id="clip0">
<rect width="512" height="512" fill="white"/>
</clipPath>
</defs>
</svg>
