<svg width="512" height="512" viewBox="0 0 512 512" fill="none" xmlns="http://www.w3.org/2000/svg">
<g clip-path="url(#clip0)">
<path d="M95.5 485V433L96 239.5V25C101.6 5.4 118.333 0.5 126 0.5H352L479 128V330V489C472.2 506.6 458.167 511.667 452 512C347 511.833 135.8 511.6 131 512C125 512.5 118 510.5 108 504.5C100 499.7 96.3333 489.5 95.5 485Z" fill="#E2E5E7"/>
<path d="M479 223V128L466 115H450.5L373.5 117L479 223Z" fill="#CAD1D8"/>
<path d="M352 98V0.5L478.5 128H384.5C360.1 126.4 352.667 107.333 352 98Z" fill="#B0B7BD"/>
<path d="M97 402V447.5L402 448C412.4 446.8 415.667 438.5 416 434.5V402H97Z" fill="#CAD1D8"/>
<rect x="32" y="240" width="384" height="192" rx="16" fill="#50BEE8"/>
<path d="M159.19 344.262H153.096V371.859C153.096 375.492 152.295 378.168 150.694 379.887C149.092 381.605 147.002 382.465 144.424 382.465C141.651 382.465 139.502 381.566 137.979 379.77C136.455 377.973 135.694 375.336 135.694 371.859V305.766C135.694 302.016 136.534 299.301 138.213 297.621C139.893 295.941 142.608 295.102 146.358 295.102H174.659C178.565 295.102 181.905 295.277 184.678 295.629C187.452 295.941 189.952 296.605 192.178 297.621C194.873 298.754 197.256 300.375 199.327 302.484C201.397 304.594 202.959 307.055 204.014 309.867C205.108 312.641 205.655 315.59 205.655 318.715C205.655 325.121 203.838 330.238 200.205 334.066C196.612 337.895 191.143 340.609 183.799 342.211C186.885 343.852 189.834 346.273 192.647 349.477C195.459 352.68 197.959 356.098 200.147 359.73C202.373 363.324 204.092 366.586 205.303 369.516C206.553 372.406 207.178 374.398 207.178 375.492C207.178 376.625 206.807 377.758 206.065 378.891C205.362 379.984 204.385 380.844 203.135 381.469C201.885 382.133 200.44 382.465 198.799 382.465C196.846 382.465 195.205 381.996 193.877 381.059C192.549 380.16 191.397 379.008 190.42 377.602C189.483 376.195 188.194 374.125 186.553 371.391L179.58 359.789C177.08 355.531 174.834 352.289 172.842 350.062C170.889 347.836 168.897 346.312 166.866 345.492C164.834 344.672 162.276 344.262 159.19 344.262ZM169.151 308.168H153.096V331.781H168.682C172.862 331.781 176.377 331.43 179.229 330.727C182.08 329.984 184.248 328.754 185.733 327.035C187.256 325.277 188.018 322.875 188.018 319.828C188.018 317.445 187.412 315.355 186.202 313.559C184.991 311.723 183.311 310.355 181.162 309.457C179.131 308.598 175.127 308.168 169.151 308.168ZM258.982 368.051L245.213 313.324V372.621C245.213 375.902 244.47 378.363 242.986 380.004C241.541 381.645 239.607 382.465 237.185 382.465C234.841 382.465 232.927 381.664 231.443 380.062C229.959 378.422 229.216 375.941 229.216 372.621V304.652C229.216 300.902 230.193 298.383 232.146 297.094C234.099 295.766 236.736 295.102 240.056 295.102H245.447C248.689 295.102 251.033 295.395 252.478 295.98C253.963 296.566 255.056 297.621 255.759 299.145C256.463 300.668 257.263 303.148 258.162 306.586L270.642 353.637L283.123 306.586C284.021 303.148 284.822 300.668 285.525 299.145C286.228 297.621 287.302 296.566 288.748 295.98C290.232 295.395 292.595 295.102 295.838 295.102H301.228C304.548 295.102 307.185 295.766 309.138 297.094C311.091 298.383 312.068 300.902 312.068 304.652V372.621C312.068 375.902 311.326 378.363 309.841 380.004C308.396 381.645 306.443 382.465 303.982 382.465C301.677 382.465 299.783 381.645 298.298 380.004C296.814 378.363 296.072 375.902 296.072 372.621V313.324L282.302 368.051C281.404 371.605 280.662 374.223 280.076 375.902C279.529 377.543 278.494 379.047 276.97 380.414C275.447 381.781 273.338 382.465 270.642 382.465C268.611 382.465 266.892 382.016 265.486 381.117C264.08 380.258 262.986 379.145 262.205 377.777C261.423 376.41 260.798 374.906 260.33 373.266C259.9 371.586 259.451 369.848 258.982 368.051Z" fill="white"/>
</g>
<defs>
<clipPath id="clip0">
<rect width="512" height="512" fill="white"/>
</clipPath>
</defs>
</svg>
