<svg width="512" height="512" viewBox="0 0 512 512" fill="none" xmlns="http://www.w3.org/2000/svg">
<g clip-path="url(#clip0)">
<path d="M95.5 485V433L96 239.5V25C101.6 5.4 118.333 0.5 126 0.5H352L479 128V330V489C472.2 506.6 458.167 511.667 452 512C347 511.833 135.8 511.6 131 512C125 512.5 118 510.5 108 504.5C100 499.7 96.3333 489.5 95.5 485Z" fill="#E2E5E7"/>
<path d="M479 223V128L466 115H450.5L373.5 117L479 223Z" fill="#CAD1D8"/>
<path d="M352 98V0.5L478.5 128H384.5C360.1 126.4 352.667 107.333 352 98Z" fill="#B0B7BD"/>
<path d="M97 402V447.5L402 448C412.4 446.8 415.667 438.5 416 434.5V402H97Z" fill="#CAD1D8"/>
<rect x="32" y="240" width="384" height="192" rx="16" fill="#50BEE8"/>
<path d="M107.77 344.262H101.677V371.859C101.677 375.492 100.876 378.168 99.2742 379.887C97.6727 381.605 95.5828 382.465 93.0047 382.465C90.2312 382.465 88.0828 381.566 86.5594 379.77C85.0359 377.973 84.2742 375.336 84.2742 371.859V305.766C84.2742 302.016 85.1141 299.301 86.7937 297.621C88.4734 295.941 91.1883 295.102 94.9383 295.102H123.239C127.145 295.102 130.485 295.277 133.259 295.629C136.032 295.941 138.532 296.605 140.759 297.621C143.454 298.754 145.837 300.375 147.907 302.484C149.977 304.594 151.54 307.055 152.595 309.867C153.688 312.641 154.235 315.59 154.235 318.715C154.235 325.121 152.419 330.238 148.786 334.066C145.192 337.895 139.723 340.609 132.38 342.211C135.466 343.852 138.415 346.273 141.227 349.477C144.04 352.68 146.54 356.098 148.727 359.73C150.954 363.324 152.673 366.586 153.884 369.516C155.134 372.406 155.759 374.398 155.759 375.492C155.759 376.625 155.387 377.758 154.645 378.891C153.942 379.984 152.966 380.844 151.716 381.469C150.466 382.133 149.02 382.465 147.38 382.465C145.427 382.465 143.786 381.996 142.458 381.059C141.13 380.16 139.977 379.008 139.001 377.602C138.063 376.195 136.774 374.125 135.134 371.391L128.161 359.789C125.661 355.531 123.415 352.289 121.423 350.062C119.47 347.836 117.477 346.312 115.446 345.492C113.415 344.672 110.856 344.262 107.77 344.262ZM117.731 308.168H101.677V331.781H117.262C121.442 331.781 124.958 331.43 127.809 330.727C130.661 329.984 132.829 328.754 134.313 327.035C135.837 325.277 136.598 322.875 136.598 319.828C136.598 317.445 135.993 315.355 134.782 313.559C133.571 311.723 131.891 310.355 129.743 309.457C127.712 308.598 123.708 308.168 117.731 308.168ZM216.352 293.637C225.258 293.637 232.895 295.453 239.262 299.086C245.668 302.68 250.512 307.816 253.793 314.496C257.074 321.137 258.715 328.949 258.715 337.934C258.715 344.574 257.816 350.609 256.02 356.039C254.223 361.469 251.527 366.176 247.934 370.16C244.34 374.145 239.926 377.191 234.691 379.301C229.457 381.41 223.461 382.465 216.703 382.465C209.984 382.465 203.969 381.391 198.656 379.242C193.344 377.055 188.91 373.988 185.355 370.043C181.801 366.098 179.105 361.352 177.27 355.805C175.473 350.258 174.574 344.262 174.574 337.816C174.574 331.215 175.512 325.16 177.387 319.652C179.301 314.145 182.055 309.457 185.648 305.59C189.242 301.723 193.617 298.773 198.773 296.742C203.93 294.672 209.789 293.637 216.352 293.637ZM241.078 337.816C241.078 331.527 240.062 326.078 238.031 321.469C236 316.859 233.09 313.383 229.301 311.039C225.551 308.656 221.234 307.465 216.352 307.465C212.875 307.465 209.652 308.129 206.684 309.457C203.754 310.746 201.215 312.641 199.066 315.141C196.957 317.641 195.277 320.844 194.027 324.75C192.816 328.617 192.211 332.973 192.211 337.816C192.211 342.699 192.816 347.113 194.027 351.059C195.277 355.004 197.016 358.285 199.242 360.902C201.508 363.48 204.086 365.414 206.977 366.703C209.906 367.992 213.109 368.637 216.586 368.637C221.039 368.637 225.121 367.523 228.832 365.297C232.582 363.07 235.551 359.633 237.738 354.984C239.965 350.336 241.078 344.613 241.078 337.816ZM310.402 368.051L296.632 313.324V372.621C296.632 375.902 295.89 378.363 294.405 380.004C292.96 381.645 291.027 382.465 288.605 382.465C286.261 382.465 284.347 381.664 282.863 380.062C281.378 378.422 280.636 375.941 280.636 372.621V304.652C280.636 300.902 281.613 298.383 283.566 297.094C285.519 295.766 288.155 295.102 291.476 295.102H296.866C300.109 295.102 302.452 295.395 303.898 295.98C305.382 296.566 306.476 297.621 307.179 299.145C307.882 300.668 308.683 303.148 309.581 306.586L322.062 353.637L334.542 306.586C335.441 303.148 336.241 300.668 336.945 299.145C337.648 297.621 338.722 296.566 340.167 295.98C341.652 295.395 344.015 295.102 347.257 295.102H352.648C355.968 295.102 358.605 295.766 360.558 297.094C362.511 298.383 363.488 300.902 363.488 304.652V372.621C363.488 375.902 362.745 378.363 361.261 380.004C359.816 381.645 357.863 382.465 355.402 382.465C353.097 382.465 351.202 381.645 349.718 380.004C348.234 378.363 347.491 375.902 347.491 372.621V313.324L333.722 368.051C332.823 371.605 332.081 374.223 331.495 375.902C330.948 377.543 329.913 379.047 328.39 380.414C326.866 381.781 324.757 382.465 322.062 382.465C320.03 382.465 318.312 382.016 316.905 381.117C315.499 380.258 314.405 379.145 313.624 377.777C312.843 376.41 312.218 374.906 311.749 373.266C311.32 371.586 310.87 369.848 310.402 368.051Z" fill="white"/>
</g>
<defs>
<clipPath id="clip0">
<rect width="512" height="512" fill="white"/>
</clipPath>
</defs>
</svg>
