<svg width="512" height="512" viewBox="0 0 512 512" fill="none" xmlns="http://www.w3.org/2000/svg">
<g clip-path="url(#clip0)">
<path d="M95.5 485V433L96 239.5V25C101.6 5.4 118.333 0.5 126 0.5H352L479 128V330V489C472.2 506.6 458.167 511.667 452 512C347 511.833 135.8 511.6 131 512C125 512.5 118 510.5 108 504.5C100 499.7 96.3333 489.5 95.5 485Z" fill="#E2E5E7"/>
<path d="M479 223V128L466 115H450.5L373.5 117L479 223Z" fill="#CAD1D8"/>
<path d="M352 98V0.5L478.5 128H384.5C360.1 126.4 352.667 107.333 352 98Z" fill="#B0B7BD"/>
<path d="M97 402V447.5L402 448C412.4 446.8 415.667 438.5 416 434.5V402H97Z" fill="#CAD1D8"/>
<rect x="32" y="240" width="384" height="192" rx="16" fill="#50BEE8"/>
<path d="M114.77 344.262H108.677V371.859C108.677 375.492 107.876 378.168 106.274 379.887C104.673 381.605 102.583 382.465 100.005 382.465C97.2312 382.465 95.0828 381.566 93.5594 379.77C92.0359 377.973 91.2742 375.336 91.2742 371.859V305.766C91.2742 302.016 92.1141 299.301 93.7937 297.621C95.4734 295.941 98.1883 295.102 101.938 295.102H130.239C134.145 295.102 137.485 295.277 140.259 295.629C143.032 295.941 145.532 296.605 147.759 297.621C150.454 298.754 152.837 300.375 154.907 302.484C156.977 304.594 158.54 307.055 159.595 309.867C160.688 312.641 161.235 315.59 161.235 318.715C161.235 325.121 159.419 330.238 155.786 334.066C152.192 337.895 146.723 340.609 139.38 342.211C142.466 343.852 145.415 346.273 148.227 349.477C151.04 352.68 153.54 356.098 155.727 359.73C157.954 363.324 159.673 366.586 160.884 369.516C162.134 372.406 162.759 374.398 162.759 375.492C162.759 376.625 162.387 377.758 161.645 378.891C160.942 379.984 159.966 380.844 158.716 381.469C157.466 382.133 156.02 382.465 154.38 382.465C152.427 382.465 150.786 381.996 149.458 381.059C148.13 380.16 146.977 379.008 146.001 377.602C145.063 376.195 143.774 374.125 142.134 371.391L135.161 359.789C132.661 355.531 130.415 352.289 128.423 350.062C126.47 347.836 124.477 346.312 122.446 345.492C120.415 344.672 117.856 344.262 114.77 344.262ZM124.731 308.168H108.677V331.781H124.262C128.442 331.781 131.958 331.43 134.809 330.727C137.661 329.984 139.829 328.754 141.313 327.035C142.837 325.277 143.598 322.875 143.598 319.828C143.598 317.445 142.993 315.355 141.782 313.559C140.571 311.723 138.891 310.355 136.743 309.457C134.712 308.598 130.708 308.168 124.731 308.168ZM218.898 347.543H202.961V371.859C202.961 375.336 202.141 377.973 200.5 379.77C198.859 381.566 196.789 382.465 194.289 382.465C191.672 382.465 189.562 381.586 187.961 379.828C186.359 378.031 185.559 375.414 185.559 371.977V305.766C185.559 301.938 186.438 299.203 188.195 297.562C189.953 295.922 192.746 295.102 196.574 295.102H218.898C225.5 295.102 230.578 295.609 234.133 296.625C237.648 297.602 240.676 299.223 243.215 301.488C245.793 303.754 247.746 306.527 249.074 309.809C250.402 313.09 251.066 316.781 251.066 320.883C251.066 329.633 248.371 336.273 242.98 340.805C237.59 345.297 229.562 347.543 218.898 347.543ZM214.68 308.168H202.961V334.418H214.68C218.781 334.418 222.199 333.988 224.934 333.129C227.707 332.27 229.816 330.863 231.262 328.91C232.707 326.957 233.43 324.398 233.43 321.234C233.43 317.445 232.316 314.359 230.09 311.977C227.59 309.438 222.453 308.168 214.68 308.168ZM302.402 368.051L288.632 313.324V372.621C288.632 375.902 287.89 378.363 286.405 380.004C284.96 381.645 283.027 382.465 280.605 382.465C278.261 382.465 276.347 381.664 274.863 380.062C273.378 378.422 272.636 375.941 272.636 372.621V304.652C272.636 300.902 273.613 298.383 275.566 297.094C277.519 295.766 280.155 295.102 283.476 295.102H288.866C292.109 295.102 294.452 295.395 295.898 295.98C297.382 296.566 298.476 297.621 299.179 299.145C299.882 300.668 300.683 303.148 301.581 306.586L314.062 353.637L326.542 306.586C327.441 303.148 328.241 300.668 328.945 299.145C329.648 297.621 330.722 296.566 332.167 295.98C333.652 295.395 336.015 295.102 339.257 295.102H344.648C347.968 295.102 350.605 295.766 352.558 297.094C354.511 298.383 355.488 300.902 355.488 304.652V372.621C355.488 375.902 354.745 378.363 353.261 380.004C351.816 381.645 349.863 382.465 347.402 382.465C345.097 382.465 343.202 381.645 341.718 380.004C340.234 378.363 339.491 375.902 339.491 372.621V313.324L325.722 368.051C324.823 371.605 324.081 374.223 323.495 375.902C322.948 377.543 321.913 379.047 320.39 380.414C318.866 381.781 316.757 382.465 314.062 382.465C312.03 382.465 310.312 382.016 308.905 381.117C307.499 380.258 306.405 379.145 305.624 377.777C304.843 376.41 304.218 374.906 303.749 373.266C303.32 371.586 302.87 369.848 302.402 368.051Z" fill="white"/>
</g>
<defs>
<clipPath id="clip0">
<rect width="512" height="512" fill="white"/>
</clipPath>
</defs>
</svg>
