<svg width="512" height="512" viewBox="0 0 512 512" fill="none" xmlns="http://www.w3.org/2000/svg">
<g clip-path="url(#clip0)">
<path d="M95.5 485V433L96 239.5V25C101.6 5.4 118.333 0.5 126 0.5H352L479 128V330V489C472.2 506.6 458.167 511.667 452 512C347 511.833 135.8 511.6 131 512C125 512.5 118 510.5 108 504.5C100 499.7 96.3333 489.5 95.5 485Z" fill="#E2E5E7"/>
<path d="M479 223V128L466 115H450.5L373.5 117L479 223Z" fill="#CAD1D8"/>
<path d="M352 98V0.5L478.5 128H384.5C360.1 126.4 352.667 107.333 352 98Z" fill="#B0B7BD"/>
<path d="M97 402V447.5L402 448C412.4 446.8 415.667 438.5 416 434.5V402H97Z" fill="#CAD1D8"/>
<rect x="32" y="240" width="384" height="192" rx="16" fill="#50BEE8"/>
<path d="M125.231 344.262H119.137V371.859C119.137 375.492 118.337 378.168 116.735 379.887C115.134 381.605 113.044 382.465 110.466 382.465C107.692 382.465 105.544 381.566 104.02 379.77C102.497 377.973 101.735 375.336 101.735 371.859V305.766C101.735 302.016 102.575 299.301 104.255 297.621C105.934 295.941 108.649 295.102 112.399 295.102H140.7C144.606 295.102 147.946 295.277 150.72 295.629C153.493 295.941 155.993 296.605 158.22 297.621C160.915 298.754 163.298 300.375 165.368 302.484C167.438 304.594 169.001 307.055 170.055 309.867C171.149 312.641 171.696 315.59 171.696 318.715C171.696 325.121 169.88 330.238 166.247 334.066C162.653 337.895 157.184 340.609 149.841 342.211C152.927 343.852 155.876 346.273 158.688 349.477C161.501 352.68 164.001 356.098 166.188 359.73C168.415 363.324 170.134 366.586 171.345 369.516C172.595 372.406 173.22 374.398 173.22 375.492C173.22 376.625 172.848 377.758 172.106 378.891C171.403 379.984 170.427 380.844 169.177 381.469C167.927 382.133 166.481 382.465 164.841 382.465C162.887 382.465 161.247 381.996 159.919 381.059C158.591 380.16 157.438 379.008 156.462 377.602C155.524 376.195 154.235 374.125 152.595 371.391L145.622 359.789C143.122 355.531 140.876 352.289 138.884 350.062C136.93 347.836 134.938 346.312 132.907 345.492C130.876 344.672 128.317 344.262 125.231 344.262ZM135.192 308.168H119.137V331.781H134.723C138.903 331.781 142.419 331.43 145.27 330.727C148.122 329.984 150.29 328.754 151.774 327.035C153.298 325.277 154.059 322.875 154.059 319.828C154.059 317.445 153.454 315.355 152.243 313.559C151.032 311.723 149.352 310.355 147.204 309.457C145.173 308.598 141.169 308.168 135.192 308.168ZM261.293 355.219C261.293 360.414 259.945 365.082 257.25 369.223C254.594 373.363 250.688 376.605 245.531 378.949C240.375 381.293 234.262 382.465 227.191 382.465C218.715 382.465 211.723 380.863 206.215 377.66C202.309 375.355 199.125 372.289 196.664 368.461C194.242 364.594 193.031 360.844 193.031 357.211C193.031 355.102 193.754 353.305 195.199 351.82C196.684 350.297 198.559 349.535 200.824 349.535C202.66 349.535 204.203 350.121 205.453 351.293C206.742 352.465 207.836 354.203 208.734 356.508C209.828 359.242 211 361.527 212.25 363.363C213.539 365.199 215.336 366.723 217.641 367.934C219.945 369.105 222.973 369.691 226.723 369.691C231.879 369.691 236.059 368.5 239.262 366.117C242.504 363.695 244.125 360.688 244.125 357.094C244.125 354.242 243.246 351.938 241.488 350.18C239.77 348.383 237.523 347.016 234.75 346.078C232.016 345.141 228.344 344.145 223.734 343.09C217.562 341.645 212.387 339.965 208.207 338.051C204.066 336.098 200.766 333.461 198.305 330.141C195.883 326.781 194.672 322.621 194.672 317.66C194.672 312.934 195.961 308.734 198.539 305.062C201.117 301.391 204.848 298.578 209.73 296.625C214.613 294.633 220.355 293.637 226.957 293.637C232.23 293.637 236.781 294.301 240.609 295.629C244.477 296.918 247.68 298.656 250.219 300.844C252.758 302.992 254.613 305.258 255.785 307.641C256.957 310.023 257.543 312.348 257.543 314.613C257.543 316.684 256.801 318.559 255.316 320.238C253.871 321.879 252.055 322.699 249.867 322.699C247.875 322.699 246.352 322.211 245.297 321.234C244.281 320.219 243.168 318.578 241.957 316.312C240.395 313.07 238.52 310.551 236.332 308.754C234.145 306.918 230.629 306 225.785 306C221.293 306 217.66 306.996 214.887 308.988C212.152 310.941 210.785 313.305 210.785 316.078C210.785 317.797 211.254 319.281 212.191 320.531C213.129 321.781 214.418 322.855 216.059 323.754C217.699 324.652 219.359 325.355 221.039 325.863C222.719 326.371 225.492 327.113 229.359 328.09C234.203 329.223 238.578 330.473 242.484 331.84C246.43 333.207 249.77 334.867 252.504 336.82C255.277 338.773 257.426 341.254 258.949 344.262C260.512 347.23 261.293 350.883 261.293 355.219ZM349.132 355.219C349.132 360.414 347.784 365.082 345.089 369.223C342.433 373.363 338.527 376.605 333.37 378.949C328.214 381.293 322.101 382.465 315.03 382.465C306.554 382.465 299.562 380.863 294.054 377.66C290.148 375.355 286.964 372.289 284.503 368.461C282.081 364.594 280.87 360.844 280.87 357.211C280.87 355.102 281.593 353.305 283.038 351.82C284.523 350.297 286.398 349.535 288.663 349.535C290.499 349.535 292.042 350.121 293.292 351.293C294.581 352.465 295.675 354.203 296.573 356.508C297.667 359.242 298.839 361.527 300.089 363.363C301.378 365.199 303.175 366.723 305.48 367.934C307.784 369.105 310.812 369.691 314.562 369.691C319.718 369.691 323.898 368.5 327.101 366.117C330.343 363.695 331.964 360.688 331.964 357.094C331.964 354.242 331.085 351.938 329.327 350.18C327.609 348.383 325.363 347.016 322.589 346.078C319.855 345.141 316.183 344.145 311.573 343.09C305.402 341.645 300.226 339.965 296.046 338.051C291.905 336.098 288.605 333.461 286.144 330.141C283.722 326.781 282.511 322.621 282.511 317.66C282.511 312.934 283.8 308.734 286.378 305.062C288.956 301.391 292.687 298.578 297.57 296.625C302.452 294.633 308.195 293.637 314.796 293.637C320.07 293.637 324.62 294.301 328.448 295.629C332.316 296.918 335.519 298.656 338.058 300.844C340.597 302.992 342.452 305.258 343.624 307.641C344.796 310.023 345.382 312.348 345.382 314.613C345.382 316.684 344.64 318.559 343.155 320.238C341.71 321.879 339.894 322.699 337.706 322.699C335.714 322.699 334.191 322.211 333.136 321.234C332.12 320.219 331.007 318.578 329.796 316.312C328.234 313.07 326.359 310.551 324.171 308.754C321.984 306.918 318.468 306 313.624 306C309.132 306 305.499 306.996 302.726 308.988C299.991 310.941 298.624 313.305 298.624 316.078C298.624 317.797 299.093 319.281 300.03 320.531C300.968 321.781 302.257 322.855 303.898 323.754C305.538 324.652 307.198 325.355 308.878 325.863C310.558 326.371 313.331 327.113 317.198 328.09C322.042 329.223 326.417 330.473 330.323 331.84C334.269 333.207 337.609 334.867 340.343 336.82C343.116 338.773 345.265 341.254 346.788 344.262C348.351 347.23 349.132 350.883 349.132 355.219Z" fill="white"/>
</g>
<defs>
<clipPath id="clip0">
<rect width="512" height="512" fill="white"/>
</clipPath>
</defs>
</svg>
