<svg width="512" height="512" viewBox="0 0 512 512" fill="none" xmlns="http://www.w3.org/2000/svg">
<g clip-path="url(#clip0)">
<path d="M95.5 485V433L96 239.5V25C101.6 5.4 118.333 0.5 126 0.5H352L479 128V330V489C472.2 506.6 458.167 511.667 452 512C347 511.833 135.8 511.6 131 512C125 512.5 118 510.5 108 504.5C100 499.7 96.3333 489.5 95.5 485Z" fill="#E2E5E7"/>
<path d="M479 223V128L466 115H450.5L373.5 117L479 223Z" fill="#CAD1D8"/>
<path d="M352 98V0.5L478.5 128H384.5C360.1 126.4 352.667 107.333 352 98Z" fill="#B0B7BD"/>
<path d="M97 402V447.5L402 448C412.4 446.8 415.667 438.5 416 434.5V402H97Z" fill="#CAD1D8"/>
<rect x="32" y="240" width="384" height="192" rx="16" fill="#50BEE8"/>
<path d="M133.989 344.262H127.895V371.859C127.895 375.492 127.095 378.168 125.493 379.887C123.891 381.605 121.802 382.465 119.223 382.465C116.45 382.465 114.302 381.566 112.778 379.77C111.255 377.973 110.493 375.336 110.493 371.859V305.766C110.493 302.016 111.333 299.301 113.012 297.621C114.692 295.941 117.407 295.102 121.157 295.102H149.458C153.364 295.102 156.704 295.277 159.477 295.629C162.251 295.941 164.751 296.605 166.977 297.621C169.673 298.754 172.055 300.375 174.126 302.484C176.196 304.594 177.759 307.055 178.813 309.867C179.907 312.641 180.454 315.59 180.454 318.715C180.454 325.121 178.637 330.238 175.005 334.066C171.411 337.895 165.942 340.609 158.598 342.211C161.684 343.852 164.634 346.273 167.446 349.477C170.259 352.68 172.759 356.098 174.946 359.73C177.173 363.324 178.891 366.586 180.102 369.516C181.352 372.406 181.977 374.398 181.977 375.492C181.977 376.625 181.606 377.758 180.864 378.891C180.161 379.984 179.184 380.844 177.934 381.469C176.684 382.133 175.239 382.465 173.598 382.465C171.645 382.465 170.005 381.996 168.677 381.059C167.348 380.16 166.196 379.008 165.22 377.602C164.282 376.195 162.993 374.125 161.352 371.391L154.38 359.789C151.88 355.531 149.634 352.289 147.641 350.062C145.688 347.836 143.696 346.312 141.665 345.492C139.634 344.672 137.075 344.262 133.989 344.262ZM143.95 308.168H127.895V331.781H143.481C147.661 331.781 151.177 331.43 154.028 330.727C156.88 329.984 159.048 328.754 160.532 327.035C162.055 325.277 162.817 322.875 162.817 319.828C162.817 317.445 162.212 315.355 161.001 313.559C159.79 311.723 158.11 310.355 155.962 309.457C153.93 308.598 149.927 308.168 143.95 308.168ZM254.582 309.457H235.598V371.859C235.598 375.453 234.797 378.129 233.195 379.887C231.594 381.605 229.523 382.465 226.984 382.465C224.406 382.465 222.297 381.586 220.656 379.828C219.055 378.07 218.254 375.414 218.254 371.859V309.457H199.27C196.301 309.457 194.094 308.812 192.648 307.523C191.203 306.195 190.48 304.457 190.48 302.309C190.48 300.082 191.223 298.324 192.707 297.035C194.23 295.746 196.418 295.102 199.27 295.102H254.582C257.59 295.102 259.816 295.766 261.262 297.094C262.746 298.422 263.488 300.16 263.488 302.309C263.488 304.457 262.746 306.195 261.262 307.523C259.777 308.812 257.551 309.457 254.582 309.457ZM332.929 308.52H298.652V330.492H327.304C329.96 330.492 331.933 331.098 333.222 332.309C334.55 333.48 335.214 335.062 335.214 337.055C335.214 339.047 334.55 340.629 333.222 341.801C331.894 342.973 329.921 343.559 327.304 343.559H298.652V371.859C298.652 375.453 297.831 378.129 296.191 379.887C294.589 381.605 292.519 382.465 289.98 382.465C287.402 382.465 285.292 381.586 283.652 379.828C282.05 378.07 281.249 375.414 281.249 371.859V305.766C281.249 303.266 281.62 301.234 282.363 299.672C283.105 298.07 284.257 296.918 285.82 296.215C287.421 295.473 289.452 295.102 291.913 295.102H332.929C335.702 295.102 337.753 295.727 339.081 296.977C340.448 298.188 341.132 299.789 341.132 301.781C341.132 303.812 340.448 305.453 339.081 306.703C337.753 307.914 335.702 308.52 332.929 308.52Z" fill="white"/>
</g>
<defs>
<clipPath id="clip0">
<rect width="512" height="512" fill="white"/>
</clipPath>
</defs>
</svg>
