<svg width="512" height="512" viewBox="0 0 512 512" fill="none" xmlns="http://www.w3.org/2000/svg">
<g clip-path="url(#clip0)">
<path d="M95.5 485V433L96 239.5V25C101.6 5.4 118.333 0.5 126 0.5H352L479 128V330V489C472.2 506.6 458.167 511.667 452 512C347 511.833 135.8 511.6 131 512C125 512.5 118 510.5 108 504.5C100 499.7 96.3333 489.5 95.5 485Z" fill="#E2E5E7"/>
<path d="M479 223V128L466 115H450.5L373.5 117L479 223Z" fill="#CAD1D8"/>
<path d="M352 98V0.5L478.5 128H384.5C360.1 126.4 352.667 107.333 352 98Z" fill="#B0B7BD"/>
<path d="M97 402V447.5L402 448C412.4 446.8 415.667 438.5 416 434.5V402H97Z" fill="#CAD1D8"/>
<rect x="32" y="240" width="384" height="192" rx="16" fill="#F7B84E"/>
<path d="M168.884 355.219C168.884 360.414 167.536 365.082 164.841 369.223C162.184 373.363 158.278 376.605 153.122 378.949C147.966 381.293 141.852 382.465 134.782 382.465C126.305 382.465 119.313 380.863 113.805 377.66C109.899 375.355 106.716 372.289 104.255 368.461C101.833 364.594 100.622 360.844 100.622 357.211C100.622 355.102 101.345 353.305 102.79 351.82C104.274 350.297 106.149 349.535 108.415 349.535C110.251 349.535 111.794 350.121 113.044 351.293C114.333 352.465 115.427 354.203 116.325 356.508C117.419 359.242 118.591 361.527 119.841 363.363C121.13 365.199 122.927 366.723 125.231 367.934C127.536 369.105 130.563 369.691 134.313 369.691C139.47 369.691 143.649 368.5 146.852 366.117C150.095 363.695 151.716 360.688 151.716 357.094C151.716 354.242 150.837 351.938 149.079 350.18C147.36 348.383 145.114 347.016 142.341 346.078C139.606 345.141 135.934 344.145 131.325 343.09C125.153 341.645 119.977 339.965 115.798 338.051C111.657 336.098 108.356 333.461 105.895 330.141C103.473 326.781 102.262 322.621 102.262 317.66C102.262 312.934 103.552 308.734 106.13 305.062C108.708 301.391 112.438 298.578 117.321 296.625C122.204 294.633 127.946 293.637 134.548 293.637C139.821 293.637 144.372 294.301 148.2 295.629C152.067 296.918 155.27 298.656 157.809 300.844C160.348 302.992 162.204 305.258 163.376 307.641C164.548 310.023 165.134 312.348 165.134 314.613C165.134 316.684 164.391 318.559 162.907 320.238C161.462 321.879 159.645 322.699 157.458 322.699C155.466 322.699 153.942 322.211 152.887 321.234C151.872 320.219 150.759 318.578 149.548 316.312C147.985 313.07 146.11 310.551 143.923 308.754C141.735 306.918 138.22 306 133.376 306C128.884 306 125.251 306.996 122.477 308.988C119.743 310.941 118.376 313.305 118.376 316.078C118.376 317.797 118.845 319.281 119.782 320.531C120.72 321.781 122.009 322.855 123.649 323.754C125.29 324.652 126.95 325.355 128.63 325.863C130.309 326.371 133.083 327.113 136.95 328.09C141.794 329.223 146.169 330.473 150.075 331.84C154.02 333.207 157.36 334.867 160.095 336.82C162.868 338.773 165.016 341.254 166.54 344.262C168.102 347.23 168.884 350.883 168.884 355.219ZM246.41 371.273L242.309 360.492H207.387L203.285 371.508C201.684 375.805 200.316 378.715 199.184 380.238C198.051 381.723 196.195 382.465 193.617 382.465C191.43 382.465 189.496 381.664 187.816 380.062C186.137 378.461 185.297 376.645 185.297 374.613C185.297 373.441 185.492 372.23 185.883 370.98C186.273 369.73 186.918 367.992 187.816 365.766L209.789 309.984C210.414 308.383 211.156 306.469 212.016 304.242C212.914 301.977 213.852 300.102 214.828 298.617C215.844 297.133 217.152 295.941 218.754 295.043C220.395 294.105 222.406 293.637 224.789 293.637C227.211 293.637 229.223 294.105 230.824 295.043C232.465 295.941 233.773 297.113 234.75 298.559C235.766 300.004 236.605 301.566 237.27 303.246C237.973 304.887 238.852 307.094 239.906 309.867L262.348 365.297C264.105 369.516 264.984 372.582 264.984 374.496C264.984 376.488 264.145 378.324 262.465 380.004C260.824 381.645 258.832 382.465 256.488 382.465C255.121 382.465 253.949 382.211 252.973 381.703C251.996 381.234 251.176 380.59 250.512 379.77C249.848 378.91 249.125 377.621 248.344 375.902C247.602 374.145 246.957 372.602 246.41 371.273ZM211.957 347.426H237.621L224.672 311.977L211.957 347.426ZM292.238 305.062L311.691 362.66L331.202 304.652C332.218 301.605 332.98 299.496 333.488 298.324C333.995 297.113 334.835 296.039 336.007 295.102C337.179 294.125 338.78 293.637 340.812 293.637C342.296 293.637 343.663 294.008 344.913 294.75C346.202 295.492 347.198 296.488 347.902 297.738C348.644 298.949 349.015 300.18 349.015 301.43C349.015 302.289 348.898 303.227 348.663 304.242C348.429 305.219 348.136 306.195 347.784 307.172C347.433 308.109 347.081 309.086 346.73 310.102L325.929 366.234C325.187 368.383 324.445 370.434 323.702 372.387C322.96 374.301 322.101 376 321.124 377.484C320.148 378.93 318.839 380.121 317.198 381.059C315.597 381.996 313.624 382.465 311.28 382.465C308.937 382.465 306.945 381.996 305.304 381.059C303.702 380.16 302.394 378.969 301.378 377.484C300.402 375.961 299.542 374.242 298.8 372.328C298.058 370.414 297.316 368.383 296.573 366.234L276.124 310.57C275.773 309.555 275.402 308.559 275.011 307.582C274.659 306.605 274.347 305.551 274.073 304.418C273.839 303.285 273.722 302.328 273.722 301.547C273.722 299.555 274.523 297.738 276.124 296.098C277.726 294.457 279.738 293.637 282.159 293.637C285.128 293.637 287.218 294.555 288.429 296.391C289.679 298.188 290.948 301.078 292.238 305.062Z" fill="white"/>
</g>
<defs>
<clipPath id="clip0">
<rect width="512" height="512" fill="white"/>
</clipPath>
</defs>
</svg>
