<svg width="512" height="512" viewBox="0 0 512 512" fill="none" xmlns="http://www.w3.org/2000/svg">
<g clip-path="url(#clip0)">
<path d="M95.5 485V433L96 239.5V25C101.6 5.4 118.333 0.5 126 0.5H352L479 128V330V489C472.2 506.6 458.167 511.667 452 512C347 511.833 135.8 511.6 131 512C125 512.5 118 510.5 108 504.5C100 499.7 96.3333 489.5 95.5 485Z" fill="#E2E5E7"/>
<path d="M479 223V128L466 115H450.5L373.5 117L479 223Z" fill="#CAD1D8"/>
<path d="M352 98V0.5L478.5 128H384.5C360.1 126.4 352.667 107.333 352 98Z" fill="#B0B7BD"/>
<path d="M97 402V447.5L402 448C412.4 446.8 415.667 438.5 416 434.5V402H97Z" fill="#CAD1D8"/>
<rect x="32" y="240" width="384" height="192" rx="16" fill="#F7B84E"/>
<path d="M169.145 355.219C169.145 360.414 167.798 365.082 165.102 369.223C162.446 373.363 158.54 376.605 153.384 378.949C148.227 381.293 142.114 382.465 135.044 382.465C126.567 382.465 119.575 380.863 114.067 377.66C110.161 375.355 106.977 372.289 104.516 368.461C102.095 364.594 100.884 360.844 100.884 357.211C100.884 355.102 101.606 353.305 103.052 351.82C104.536 350.297 106.411 349.535 108.677 349.535C110.512 349.535 112.055 350.121 113.305 351.293C114.595 352.465 115.688 354.203 116.587 356.508C117.68 359.242 118.852 361.527 120.102 363.363C121.391 365.199 123.188 366.723 125.493 367.934C127.798 369.105 130.825 369.691 134.575 369.691C139.731 369.691 143.911 368.5 147.114 366.117C150.356 363.695 151.977 360.688 151.977 357.094C151.977 354.242 151.098 351.938 149.341 350.18C147.622 348.383 145.376 347.016 142.602 346.078C139.868 345.141 136.196 344.145 131.587 343.09C125.415 341.645 120.239 339.965 116.059 338.051C111.919 336.098 108.618 333.461 106.157 330.141C103.735 326.781 102.524 322.621 102.524 317.66C102.524 312.934 103.813 308.734 106.391 305.062C108.97 301.391 112.7 298.578 117.583 296.625C122.466 294.633 128.208 293.637 134.809 293.637C140.083 293.637 144.634 294.301 148.462 295.629C152.329 296.918 155.532 298.656 158.071 300.844C160.61 302.992 162.466 305.258 163.637 307.641C164.809 310.023 165.395 312.348 165.395 314.613C165.395 316.684 164.653 318.559 163.169 320.238C161.723 321.879 159.907 322.699 157.72 322.699C155.727 322.699 154.204 322.211 153.149 321.234C152.134 320.219 151.02 318.578 149.809 316.312C148.247 313.07 146.372 310.551 144.184 308.754C141.997 306.918 138.481 306 133.637 306C129.145 306 125.512 306.996 122.739 308.988C120.005 310.941 118.637 313.305 118.637 316.078C118.637 317.797 119.106 319.281 120.044 320.531C120.981 321.781 122.27 322.855 123.911 323.754C125.552 324.652 127.212 325.355 128.891 325.863C130.571 326.371 133.345 327.113 137.212 328.09C142.055 329.223 146.43 330.473 150.337 331.84C154.282 333.207 157.622 334.867 160.356 336.82C163.13 338.773 165.278 341.254 166.802 344.262C168.364 347.23 169.145 350.883 169.145 355.219ZM202.492 295.102H225.168C231.066 295.102 236.125 295.648 240.344 296.742C244.562 297.836 248.391 299.887 251.828 302.895C260.773 310.551 265.246 322.191 265.246 337.816C265.246 342.973 264.797 347.68 263.898 351.938C263 356.195 261.613 360.043 259.738 363.48C257.863 366.879 255.461 369.926 252.531 372.621C250.227 374.691 247.707 376.352 244.973 377.602C242.238 378.852 239.289 379.73 236.125 380.238C233 380.746 229.465 381 225.52 381H202.844C199.68 381 197.297 380.531 195.695 379.594C194.094 378.617 193.039 377.27 192.531 375.551C192.062 373.793 191.828 371.527 191.828 368.754V305.766C191.828 302.016 192.668 299.301 194.348 297.621C196.027 295.941 198.742 295.102 202.492 295.102ZM209.23 308.871V367.172H222.414C225.305 367.172 227.57 367.094 229.211 366.938C230.852 366.781 232.551 366.391 234.309 365.766C236.066 365.141 237.59 364.262 238.879 363.129C244.699 358.207 247.609 349.73 247.609 337.699C247.609 329.223 246.32 322.875 243.742 318.656C241.203 314.438 238.059 311.762 234.309 310.629C230.559 309.457 226.027 308.871 220.715 308.871H209.23ZM339.667 308.52H305.39V330.492H334.042C336.698 330.492 338.671 331.098 339.96 332.309C341.288 333.48 341.952 335.062 341.952 337.055C341.952 339.047 341.288 340.629 339.96 341.801C338.632 342.973 336.659 343.559 334.042 343.559H305.39V371.859C305.39 375.453 304.57 378.129 302.929 379.887C301.327 381.605 299.257 382.465 296.718 382.465C294.14 382.465 292.03 381.586 290.39 379.828C288.788 378.07 287.988 375.414 287.988 371.859V305.766C287.988 303.266 288.359 301.234 289.101 299.672C289.843 298.07 290.995 296.918 292.558 296.215C294.159 295.473 296.191 295.102 298.652 295.102H339.667C342.441 295.102 344.491 295.727 345.82 296.977C347.187 298.188 347.87 299.789 347.87 301.781C347.87 303.812 347.187 305.453 345.82 306.703C344.491 307.914 342.441 308.52 339.667 308.52Z" fill="white"/>
</g>
<defs>
<clipPath id="clip0">
<rect width="512" height="512" fill="white"/>
</clipPath>
</defs>
</svg>
