<svg width="512" height="512" viewBox="0 0 512 512" fill="none" xmlns="http://www.w3.org/2000/svg">
<g clip-path="url(#clip0)">
<path d="M95.5 485V433L96 239.5V25C101.6 5.4 118.333 0.5 126 0.5H352L479 128V330V489C472.2 506.6 458.167 511.667 452 512C347 511.833 135.8 511.6 131 512C125 512.5 118 510.5 108 504.5C100 499.7 96.3333 489.5 95.5 485Z" fill="#E2E5E7"/>
<path d="M479 223V128L466 115H450.5L373.5 117L479 223Z" fill="#CAD1D8"/>
<path d="M352 98V0.5L478.5 128H384.5C360.1 126.4 352.667 107.333 352 98Z" fill="#B0B7BD"/>
<path d="M97 402V447.5L402 448C412.4 446.8 415.667 438.5 416 434.5V402H97Z" fill="#CAD1D8"/>
<rect x="32" y="240" width="384" height="192" rx="16" fill="#F7B84E"/>
<path d="M208.143 355.219C208.143 360.414 206.795 365.082 204.1 369.223C201.444 373.363 197.537 376.605 192.381 378.949C187.225 381.293 181.112 382.465 174.041 382.465C165.565 382.465 158.573 380.863 153.065 377.66C149.159 375.355 145.975 372.289 143.514 368.461C141.092 364.594 139.881 360.844 139.881 357.211C139.881 355.102 140.604 353.305 142.049 351.82C143.534 350.297 145.409 349.535 147.674 349.535C149.51 349.535 151.053 350.121 152.303 351.293C153.592 352.465 154.686 354.203 155.584 356.508C156.678 359.242 157.85 361.527 159.1 363.363C160.389 365.199 162.186 366.723 164.491 367.934C166.795 369.105 169.823 369.691 173.573 369.691C178.729 369.691 182.909 368.5 186.112 366.117C189.354 363.695 190.975 360.688 190.975 357.094C190.975 354.242 190.096 351.938 188.338 350.18C186.62 348.383 184.373 347.016 181.6 346.078C178.866 345.141 175.194 344.145 170.584 343.09C164.412 341.645 159.237 339.965 155.057 338.051C150.916 336.098 147.616 333.461 145.155 330.141C142.733 326.781 141.522 322.621 141.522 317.66C141.522 312.934 142.811 308.734 145.389 305.062C147.967 301.391 151.698 298.578 156.58 296.625C161.463 294.633 167.205 293.637 173.807 293.637C179.08 293.637 183.631 294.301 187.459 295.629C191.327 296.918 194.53 298.656 197.069 300.844C199.608 302.992 201.463 305.258 202.635 307.641C203.807 310.023 204.393 312.348 204.393 314.613C204.393 316.684 203.651 318.559 202.166 320.238C200.721 321.879 198.905 322.699 196.717 322.699C194.725 322.699 193.202 322.211 192.147 321.234C191.131 320.219 190.018 318.578 188.807 316.312C187.245 313.07 185.37 310.551 183.182 308.754C180.995 306.918 177.479 306 172.635 306C168.143 306 164.51 306.996 161.737 308.988C159.002 310.941 157.635 313.305 157.635 316.078C157.635 317.797 158.104 319.281 159.041 320.531C159.979 321.781 161.268 322.855 162.909 323.754C164.549 324.652 166.209 325.355 167.889 325.863C169.569 326.371 172.342 327.113 176.209 328.09C181.053 329.223 185.428 330.473 189.334 331.84C193.28 333.207 196.62 334.867 199.354 336.82C202.127 338.773 204.276 341.254 205.799 344.262C207.362 347.23 208.143 350.883 208.143 355.219ZM248.228 304.184V328.793H285.787V304.184C285.787 300.668 286.568 298.031 288.13 296.273C289.732 294.516 291.822 293.637 294.4 293.637C297.017 293.637 299.127 294.516 300.728 296.273C302.369 297.992 303.189 300.629 303.189 304.184V371.859C303.189 375.414 302.369 378.07 300.728 379.828C299.088 381.586 296.978 382.465 294.4 382.465C291.783 382.465 289.693 381.586 288.13 379.828C286.568 378.031 285.787 375.375 285.787 371.859V342.973H248.228V371.859C248.228 375.414 247.408 378.07 245.767 379.828C244.127 381.586 242.017 382.465 239.439 382.465C236.822 382.465 234.732 381.586 233.17 379.828C231.607 378.031 230.826 375.375 230.826 371.859V304.184C230.826 300.668 231.588 298.031 233.111 296.273C234.673 294.516 236.783 293.637 239.439 293.637C242.056 293.637 244.166 294.516 245.767 296.273C247.408 297.992 248.228 300.629 248.228 304.184Z" fill="white"/>
</g>
<defs>
<clipPath id="clip0">
<rect width="512" height="512" fill="white"/>
</clipPath>
</defs>
</svg>
