<svg width="512" height="512" viewBox="0 0 512 512" fill="none" xmlns="http://www.w3.org/2000/svg">
<g clip-path="url(#clip0)">
<path d="M95.5 485V433L96 239.5V25C101.6 5.4 118.333 0.5 126 0.5H352L479 128V330V489C472.2 506.6 458.167 511.667 452 512C347 511.833 135.8 511.6 131 512C125 512.5 118 510.5 108 504.5C100 499.7 96.3333 489.5 95.5 485Z" fill="#E2E5E7"/>
<path d="M479 223V128L466 115H450.5L373.5 117L479 223Z" fill="#CAD1D8"/>
<path d="M352 98V0.5L478.5 128H384.5C360.1 126.4 352.667 107.333 352 98Z" fill="#B0B7BD"/>
<path d="M97 402V447.5L402 448C412.4 446.8 415.667 438.5 416 434.5V402H97Z" fill="#CAD1D8"/>
<rect x="32" y="240" width="384" height="192" rx="16" fill="#F7B84E"/>
<path d="M153.851 355.219C153.851 360.414 152.503 365.082 149.808 369.223C147.152 373.363 143.245 376.605 138.089 378.949C132.933 381.293 126.82 382.465 119.749 382.465C111.273 382.465 104.28 380.863 98.7727 377.66C94.8664 375.355 91.6828 372.289 89.2219 368.461C86.8 364.594 85.5891 360.844 85.5891 357.211C85.5891 355.102 86.3117 353.305 87.757 351.82C89.2414 350.297 91.1164 349.535 93.382 349.535C95.218 349.535 96.7609 350.121 98.0109 351.293C99.3 352.465 100.394 354.203 101.292 356.508C102.386 359.242 103.558 361.527 104.808 363.363C106.097 365.199 107.894 366.723 110.198 367.934C112.503 369.105 115.53 369.691 119.28 369.691C124.437 369.691 128.616 368.5 131.82 366.117C135.062 363.695 136.683 360.688 136.683 357.094C136.683 354.242 135.804 351.938 134.046 350.18C132.327 348.383 130.081 347.016 127.308 346.078C124.573 345.141 120.902 344.145 116.292 343.09C110.12 341.645 104.945 339.965 100.765 338.051C96.6242 336.098 93.3234 333.461 90.8625 330.141C88.4406 326.781 87.2297 322.621 87.2297 317.66C87.2297 312.934 88.5188 308.734 91.0969 305.062C93.675 301.391 97.4055 298.578 102.288 296.625C107.171 294.633 112.913 293.637 119.515 293.637C124.788 293.637 129.339 294.301 133.167 295.629C137.034 296.918 140.238 298.656 142.777 300.844C145.316 302.992 147.171 305.258 148.343 307.641C149.515 310.023 150.101 312.348 150.101 314.613C150.101 316.684 149.359 318.559 147.874 320.238C146.429 321.879 144.613 322.699 142.425 322.699C140.433 322.699 138.909 322.211 137.855 321.234C136.839 320.219 135.726 318.578 134.515 316.312C132.952 313.07 131.077 310.551 128.89 308.754C126.702 306.918 123.187 306 118.343 306C113.851 306 110.218 306.996 107.445 308.988C104.71 310.941 103.343 313.305 103.343 316.078C103.343 317.797 103.812 319.281 104.749 320.531C105.687 321.781 106.976 322.855 108.616 323.754C110.257 324.652 111.917 325.355 113.597 325.863C115.277 326.371 118.05 327.113 121.917 328.09C126.761 329.223 131.136 330.473 135.042 331.84C138.988 333.207 142.327 334.867 145.062 336.82C147.835 338.773 149.984 341.254 151.507 344.262C153.07 347.23 153.851 350.883 153.851 355.219ZM177.12 371.859V304.184C177.12 300.668 177.92 298.031 179.522 296.273C181.123 294.516 183.194 293.637 185.733 293.637C188.35 293.637 190.459 294.516 192.061 296.273C193.702 297.992 194.522 300.629 194.522 304.184V371.859C194.522 375.414 193.702 378.07 192.061 379.828C190.459 381.586 188.35 382.465 185.733 382.465C183.233 382.465 181.163 381.586 179.522 379.828C177.92 378.031 177.12 375.375 177.12 371.859ZM277.615 309.457H258.63V371.859C258.63 375.453 257.83 378.129 256.228 379.887C254.627 381.605 252.556 382.465 250.017 382.465C247.439 382.465 245.33 381.586 243.689 379.828C242.088 378.07 241.287 375.414 241.287 371.859V309.457H222.302C219.334 309.457 217.127 308.812 215.681 307.523C214.236 306.195 213.513 304.457 213.513 302.309C213.513 300.082 214.255 298.324 215.74 297.035C217.263 295.746 219.451 295.102 222.302 295.102H277.615C280.623 295.102 282.849 295.766 284.295 297.094C285.779 298.422 286.521 300.16 286.521 302.309C286.521 304.457 285.779 306.195 284.295 307.523C282.81 308.812 280.584 309.457 277.615 309.457ZM301.47 364.301L320.688 336.234L304.516 311.273C302.993 308.852 301.841 306.781 301.059 305.062C300.317 303.305 299.946 301.625 299.946 300.023C299.946 298.383 300.669 296.918 302.114 295.629C303.598 294.301 305.395 293.637 307.505 293.637C309.927 293.637 311.802 294.359 313.13 295.805C314.497 297.211 316.372 299.848 318.755 303.715L331.645 324.574L345.415 303.715C346.548 301.957 347.505 300.453 348.286 299.203C349.106 297.953 349.887 296.918 350.63 296.098C351.372 295.277 352.192 294.672 353.091 294.281C354.028 293.852 355.102 293.637 356.313 293.637C358.501 293.637 360.278 294.301 361.645 295.629C363.052 296.918 363.755 298.461 363.755 300.258C363.755 302.875 362.251 306.43 359.243 310.922L342.309 336.234L360.532 364.301C362.173 366.762 363.364 368.812 364.106 370.453C364.848 372.055 365.22 373.578 365.22 375.023C365.22 376.391 364.887 377.641 364.223 378.773C363.559 379.906 362.622 380.805 361.411 381.469C360.2 382.133 358.833 382.465 357.309 382.465C355.669 382.465 354.282 382.113 353.149 381.41C352.016 380.746 351.098 379.906 350.395 378.891C349.692 377.875 348.384 375.902 346.47 372.973L331.352 349.184L315.298 373.676C314.048 375.629 313.149 376.996 312.602 377.777C312.095 378.559 311.47 379.32 310.727 380.062C309.985 380.805 309.106 381.391 308.091 381.82C307.075 382.25 305.884 382.465 304.516 382.465C302.407 382.465 300.649 381.82 299.243 380.531C297.876 379.242 297.192 377.367 297.192 374.906C297.192 372.016 298.618 368.48 301.47 364.301Z" fill="white"/>
</g>
<defs>
<clipPath id="clip0">
<rect width="512" height="512" fill="white"/>
</clipPath>
</defs>
</svg>
