<svg width="512" height="512" viewBox="0 0 512 512" fill="none" xmlns="http://www.w3.org/2000/svg">
<g clip-path="url(#clip0)">
<path d="M95.5 485V433L96 239.5V25C101.6 5.4 118.333 0.5 126 0.5H352L479 128V330V489C472.2 506.6 458.167 511.667 452 512C347 511.833 135.8 511.6 131 512C125 512.5 118 510.5 108 504.5C100 499.7 96.3333 489.5 95.5 485Z" fill="#E2E5E7"/>
<path d="M479 223V128L466 115H450.5L373.5 117L479 223Z" fill="#CAD1D8"/>
<path d="M352 98V0.5L478.5 128H384.5C360.1 126.4 352.667 107.333 352 98Z" fill="#B0B7BD"/>
<path d="M97 402V447.5L402 448C412.4 446.8 415.667 438.5 416 434.5V402H97Z" fill="#CAD1D8"/>
<rect x="32" y="240" width="384" height="192" rx="16" fill="#F7B84E"/>
<path d="M167.973 355.219C167.973 360.414 166.626 365.082 163.93 369.223C161.274 373.363 157.368 376.605 152.212 378.949C147.055 381.293 140.942 382.465 133.872 382.465C125.395 382.465 118.403 380.863 112.895 377.66C108.989 375.355 105.805 372.289 103.345 368.461C100.923 364.594 99.7117 360.844 99.7117 357.211C99.7117 355.102 100.434 353.305 101.88 351.82C103.364 350.297 105.239 349.535 107.505 349.535C109.341 349.535 110.884 350.121 112.134 351.293C113.423 352.465 114.516 354.203 115.415 356.508C116.509 359.242 117.68 361.527 118.93 363.363C120.22 365.199 122.016 366.723 124.321 367.934C126.626 369.105 129.653 369.691 133.403 369.691C138.559 369.691 142.739 368.5 145.942 366.117C149.184 363.695 150.805 360.688 150.805 357.094C150.805 354.242 149.927 351.938 148.169 350.18C146.45 348.383 144.204 347.016 141.43 346.078C138.696 345.141 135.024 344.145 130.415 343.09C124.243 341.645 119.067 339.965 114.887 338.051C110.747 336.098 107.446 333.461 104.985 330.141C102.563 326.781 101.352 322.621 101.352 317.66C101.352 312.934 102.641 308.734 105.22 305.062C107.798 301.391 111.528 298.578 116.411 296.625C121.294 294.633 127.036 293.637 133.637 293.637C138.911 293.637 143.462 294.301 147.29 295.629C151.157 296.918 154.36 298.656 156.899 300.844C159.438 302.992 161.294 305.258 162.466 307.641C163.637 310.023 164.223 312.348 164.223 314.613C164.223 316.684 163.481 318.559 161.997 320.238C160.552 321.879 158.735 322.699 156.548 322.699C154.555 322.699 153.032 322.211 151.977 321.234C150.962 320.219 149.848 318.578 148.637 316.312C147.075 313.07 145.2 310.551 143.012 308.754C140.825 306.918 137.309 306 132.466 306C127.973 306 124.341 306.996 121.567 308.988C118.833 310.941 117.466 313.305 117.466 316.078C117.466 317.797 117.934 319.281 118.872 320.531C119.809 321.781 121.098 322.855 122.739 323.754C124.38 324.652 126.04 325.355 127.72 325.863C129.399 326.371 132.173 327.113 136.04 328.09C140.884 329.223 145.259 330.473 149.165 331.84C153.11 333.207 156.45 334.867 159.184 336.82C161.958 338.773 164.106 341.254 165.63 344.262C167.192 347.23 167.973 350.883 167.973 355.219ZM207.59 304.184V366.703H242.863C245.676 366.703 247.824 367.387 249.309 368.754C250.832 370.121 251.594 371.84 251.594 373.91C251.594 376.02 250.852 377.738 249.367 379.066C247.883 380.355 245.715 381 242.863 381H200.852C197.062 381 194.328 380.16 192.648 378.48C191.008 376.801 190.188 374.086 190.188 370.336V304.184C190.188 300.668 190.969 298.031 192.531 296.273C194.133 294.516 196.223 293.637 198.801 293.637C201.418 293.637 203.527 294.516 205.129 296.273C206.77 297.992 207.59 300.629 207.59 304.184ZM293.554 304.066L327.011 354.691V303.598C327.011 300.277 327.714 297.797 329.12 296.156C330.566 294.477 332.499 293.637 334.921 293.637C337.421 293.637 339.394 294.477 340.839 296.156C342.284 297.797 343.007 300.277 343.007 303.598V371.156C343.007 378.695 339.882 382.465 333.632 382.465C332.07 382.465 330.663 382.23 329.413 381.762C328.163 381.332 326.991 380.629 325.898 379.652C324.804 378.676 323.788 377.543 322.851 376.254C321.913 374.926 320.976 373.578 320.038 372.211L287.402 322.172V372.504C287.402 375.785 286.64 378.266 285.116 379.945C283.593 381.625 281.64 382.465 279.257 382.465C276.796 382.465 274.823 381.625 273.339 379.945C271.855 378.227 271.113 375.746 271.113 372.504V306.234C271.113 303.422 271.425 301.215 272.05 299.613C272.792 297.855 274.023 296.43 275.741 295.336C277.46 294.203 279.316 293.637 281.308 293.637C282.87 293.637 284.198 293.891 285.292 294.398C286.425 294.906 287.402 295.59 288.222 296.449C289.081 297.309 289.941 298.422 290.8 299.789C291.698 301.156 292.616 302.582 293.554 304.066Z" fill="white"/>
</g>
<defs>
<clipPath id="clip0">
<rect width="512" height="512" fill="white"/>
</clipPath>
</defs>
</svg>
