<svg width="512" height="512" viewBox="0 0 512 512" fill="none" xmlns="http://www.w3.org/2000/svg">
<g clip-path="url(#clip0)">
<path d="M95.5 485V433L96 239.5V25C101.6 5.4 118.333 0.5 126 0.5H352L479 128V330V489C472.2 506.6 458.167 511.667 452 512C347 511.833 135.8 511.6 131 512C125 512.5 118 510.5 108 504.5C100 499.7 96.3333 489.5 95.5 485Z" fill="#E2E5E7"/>
<path d="M479 223V128L466 115H450.5L373.5 117L479 223Z" fill="#CAD1D8"/>
<path d="M352 98V0.5L478.5 128H384.5C360.1 126.4 352.667 107.333 352 98Z" fill="#B0B7BD"/>
<path d="M97 402V447.5L402 448C412.4 446.8 415.667 438.5 416 434.5V402H97Z" fill="#CAD1D8"/>
<rect x="32" y="240" width="384" height="192" rx="16" fill="#F7B84E"/>
<path d="M166.04 355.219C166.04 360.414 164.692 365.082 161.997 369.223C159.341 373.363 155.434 376.605 150.278 378.949C145.122 381.293 139.009 382.465 131.938 382.465C123.462 382.465 116.47 380.863 110.962 377.66C107.055 375.355 103.872 372.289 101.411 368.461C98.9891 364.594 97.7781 360.844 97.7781 357.211C97.7781 355.102 98.5008 353.305 99.9461 351.82C101.43 350.297 103.305 349.535 105.571 349.535C107.407 349.535 108.95 350.121 110.2 351.293C111.489 352.465 112.583 354.203 113.481 356.508C114.575 359.242 115.747 361.527 116.997 363.363C118.286 365.199 120.083 366.723 122.387 367.934C124.692 369.105 127.72 369.691 131.47 369.691C136.626 369.691 140.805 368.5 144.009 366.117C147.251 363.695 148.872 360.688 148.872 357.094C148.872 354.242 147.993 351.938 146.235 350.18C144.516 348.383 142.27 347.016 139.497 346.078C136.762 345.141 133.091 344.145 128.481 343.09C122.309 341.645 117.134 339.965 112.954 338.051C108.813 336.098 105.512 333.461 103.052 330.141C100.63 326.781 99.4187 322.621 99.4187 317.66C99.4187 312.934 100.708 308.734 103.286 305.062C105.864 301.391 109.595 298.578 114.477 296.625C119.36 294.633 125.102 293.637 131.704 293.637C136.977 293.637 141.528 294.301 145.356 295.629C149.223 296.918 152.427 298.656 154.966 300.844C157.505 302.992 159.36 305.258 160.532 307.641C161.704 310.023 162.29 312.348 162.29 314.613C162.29 316.684 161.548 318.559 160.063 320.238C158.618 321.879 156.802 322.699 154.614 322.699C152.622 322.699 151.098 322.211 150.044 321.234C149.028 320.219 147.915 318.578 146.704 316.312C145.141 313.07 143.266 310.551 141.079 308.754C138.891 306.918 135.376 306 130.532 306C126.04 306 122.407 306.996 119.634 308.988C116.899 310.941 115.532 313.305 115.532 316.078C115.532 317.797 116.001 319.281 116.938 320.531C117.876 321.781 119.165 322.855 120.805 323.754C122.446 324.652 124.106 325.355 125.786 325.863C127.466 326.371 130.239 327.113 134.106 328.09C138.95 329.223 143.325 330.473 147.231 331.84C151.177 333.207 154.516 334.867 157.251 336.82C160.024 338.773 162.173 341.254 163.696 344.262C165.259 347.23 166.04 350.883 166.04 355.219ZM257.688 370.336C260.227 372.055 263 373.734 266.008 375.375C269.016 376.977 271.008 378.266 271.984 379.242C272.961 380.18 273.449 381.527 273.449 383.285C273.449 384.535 272.863 385.785 271.691 387.035C270.559 388.285 269.172 388.91 267.531 388.91C266.203 388.91 264.582 388.48 262.668 387.621C260.793 386.762 258.566 385.512 255.988 383.871C253.449 382.23 250.656 380.316 247.609 378.129C241.945 381.02 234.992 382.465 226.75 382.465C220.07 382.465 214.074 381.41 208.762 379.301C203.488 377.152 199.055 374.086 195.461 370.102C191.867 366.078 189.152 361.312 187.316 355.805C185.52 350.297 184.621 344.301 184.621 337.816C184.621 331.215 185.559 325.16 187.434 319.652C189.348 314.145 192.102 309.457 195.695 305.59C199.289 301.723 203.664 298.773 208.82 296.742C213.977 294.672 219.836 293.637 226.398 293.637C235.305 293.637 242.941 295.453 249.309 299.086C255.715 302.68 260.559 307.816 263.84 314.496C267.121 321.137 268.762 328.949 268.762 337.934C268.762 351.566 265.07 362.367 257.688 370.336ZM244.035 360.844C246.457 358.07 248.234 354.789 249.367 351C250.539 347.211 251.125 342.816 251.125 337.816C251.125 331.527 250.109 326.078 248.078 321.469C246.047 316.859 243.137 313.383 239.348 311.039C235.598 308.656 231.281 307.465 226.398 307.465C222.922 307.465 219.699 308.129 216.73 309.457C213.801 310.746 211.262 312.641 209.113 315.141C207.004 317.641 205.324 320.844 204.074 324.75C202.863 328.617 202.258 332.973 202.258 337.816C202.258 347.699 204.562 355.316 209.172 360.668C213.781 365.98 219.602 368.637 226.633 368.637C229.523 368.637 232.492 368.031 235.539 366.82C233.703 365.453 231.398 364.086 228.625 362.719C225.891 361.352 224.016 360.297 223 359.555C221.984 358.812 221.477 357.758 221.477 356.391C221.477 355.219 221.965 354.184 222.941 353.285C223.918 352.387 224.992 351.938 226.164 351.938C229.719 351.938 235.676 354.906 244.035 360.844ZM308.495 304.184V366.703H343.769C346.581 366.703 348.73 367.387 350.214 368.754C351.738 370.121 352.499 371.84 352.499 373.91C352.499 376.02 351.757 377.738 350.273 379.066C348.788 380.355 346.62 381 343.769 381H301.757C297.968 381 295.234 380.16 293.554 378.48C291.913 376.801 291.093 374.086 291.093 370.336V304.184C291.093 300.668 291.874 298.031 293.437 296.273C295.038 294.516 297.128 293.637 299.706 293.637C302.323 293.637 304.433 294.516 306.034 296.273C307.675 297.992 308.495 300.629 308.495 304.184Z" fill="white"/>
</g>
<defs>
<clipPath id="clip0">
<rect width="512" height="512" fill="white"/>
</clipPath>
</defs>
</svg>
