<svg width="512" height="512" viewBox="0 0 512 512" fill="none" xmlns="http://www.w3.org/2000/svg">
<g clip-path="url(#clip0)">
<path d="M95.5 485V433L96 239.5V25C101.6 5.4 118.333 0.5 126 0.5H352L479 128V330V489C472.2 506.6 458.167 511.667 452 512C347 511.833 135.8 511.6 131 512C125 512.5 118 510.5 108 504.5C100 499.7 96.3333 489.5 95.5 485Z" fill="#E2E5E7"/>
<path d="M479 223V128L466 115H450.5L373.5 117L479 223Z" fill="#CAD1D8"/>
<path d="M352 98V0.5L478.5 128H384.5C360.1 126.4 352.667 107.333 352 98Z" fill="#B0B7BD"/>
<path d="M97 402V447.5L402 448C412.4 446.8 415.667 438.5 416 434.5V402H97Z" fill="#CAD1D8"/>
<rect x="32" y="240" width="384" height="192" rx="16" fill="#F7B84E"/>
<path d="M172.134 355.219C172.134 360.414 170.786 365.082 168.091 369.223C165.434 373.363 161.528 376.605 156.372 378.949C151.216 381.293 145.102 382.465 138.032 382.465C129.555 382.465 122.563 380.863 117.055 377.66C113.149 375.355 109.966 372.289 107.505 368.461C105.083 364.594 103.872 360.844 103.872 357.211C103.872 355.102 104.595 353.305 106.04 351.82C107.524 350.297 109.399 349.535 111.665 349.535C113.501 349.535 115.044 350.121 116.294 351.293C117.583 352.465 118.677 354.203 119.575 356.508C120.669 359.242 121.841 361.527 123.091 363.363C124.38 365.199 126.177 366.723 128.481 367.934C130.786 369.105 133.813 369.691 137.563 369.691C142.72 369.691 146.899 368.5 150.102 366.117C153.345 363.695 154.966 360.688 154.966 357.094C154.966 354.242 154.087 351.938 152.329 350.18C150.61 348.383 148.364 347.016 145.591 346.078C142.856 345.141 139.184 344.145 134.575 343.09C128.403 341.645 123.227 339.965 119.048 338.051C114.907 336.098 111.606 333.461 109.145 330.141C106.723 326.781 105.512 322.621 105.512 317.66C105.512 312.934 106.802 308.734 109.38 305.062C111.958 301.391 115.688 298.578 120.571 296.625C125.454 294.633 131.196 293.637 137.798 293.637C143.071 293.637 147.622 294.301 151.45 295.629C155.317 296.918 158.52 298.656 161.059 300.844C163.598 302.992 165.454 305.258 166.626 307.641C167.798 310.023 168.384 312.348 168.384 314.613C168.384 316.684 167.641 318.559 166.157 320.238C164.712 321.879 162.895 322.699 160.708 322.699C158.716 322.699 157.192 322.211 156.137 321.234C155.122 320.219 154.009 318.578 152.798 316.312C151.235 313.07 149.36 310.551 147.173 308.754C144.985 306.918 141.47 306 136.626 306C132.134 306 128.501 306.996 125.727 308.988C122.993 310.941 121.626 313.305 121.626 316.078C121.626 317.797 122.095 319.281 123.032 320.531C123.97 321.781 125.259 322.855 126.899 323.754C128.54 324.652 130.2 325.355 131.88 325.863C133.559 326.371 136.333 327.113 140.2 328.09C145.044 329.223 149.419 330.473 153.325 331.84C157.27 333.207 160.61 334.867 163.345 336.82C166.118 338.773 168.266 341.254 169.79 344.262C171.352 347.23 172.134 350.883 172.134 355.219ZM218.078 344.262H211.984V371.859C211.984 375.492 211.184 378.168 209.582 379.887C207.98 381.605 205.891 382.465 203.312 382.465C200.539 382.465 198.391 381.566 196.867 379.77C195.344 377.973 194.582 375.336 194.582 371.859V305.766C194.582 302.016 195.422 299.301 197.102 297.621C198.781 295.941 201.496 295.102 205.246 295.102H233.547C237.453 295.102 240.793 295.277 243.566 295.629C246.34 295.941 248.84 296.605 251.066 297.621C253.762 298.754 256.145 300.375 258.215 302.484C260.285 304.594 261.848 307.055 262.902 309.867C263.996 312.641 264.543 315.59 264.543 318.715C264.543 325.121 262.727 330.238 259.094 334.066C255.5 337.895 250.031 340.609 242.688 342.211C245.773 343.852 248.723 346.273 251.535 349.477C254.348 352.68 256.848 356.098 259.035 359.73C261.262 363.324 262.98 366.586 264.191 369.516C265.441 372.406 266.066 374.398 266.066 375.492C266.066 376.625 265.695 377.758 264.953 378.891C264.25 379.984 263.273 380.844 262.023 381.469C260.773 382.133 259.328 382.465 257.688 382.465C255.734 382.465 254.094 381.996 252.766 381.059C251.438 380.16 250.285 379.008 249.309 377.602C248.371 376.195 247.082 374.125 245.441 371.391L238.469 359.789C235.969 355.531 233.723 352.289 231.73 350.062C229.777 347.836 227.785 346.312 225.754 345.492C223.723 344.672 221.164 344.262 218.078 344.262ZM228.039 308.168H211.984V331.781H227.57C231.75 331.781 235.266 331.43 238.117 330.727C240.969 329.984 243.137 328.754 244.621 327.035C246.145 325.277 246.906 322.875 246.906 319.828C246.906 317.445 246.301 315.355 245.09 313.559C243.879 311.723 242.199 310.355 240.051 309.457C238.02 308.598 234.016 308.168 228.039 308.168ZM338.671 309.457H319.687V371.859C319.687 375.453 318.886 378.129 317.284 379.887C315.683 381.605 313.613 382.465 311.073 382.465C308.495 382.465 306.386 381.586 304.745 379.828C303.144 378.07 302.343 375.414 302.343 371.859V309.457H283.359C280.39 309.457 278.183 308.812 276.738 307.523C275.292 306.195 274.57 304.457 274.57 302.309C274.57 300.082 275.312 298.324 276.796 297.035C278.32 295.746 280.507 295.102 283.359 295.102H338.671C341.679 295.102 343.905 295.766 345.351 297.094C346.835 298.422 347.577 300.16 347.577 302.309C347.577 304.457 346.835 306.195 345.351 307.523C343.866 308.812 341.64 309.457 338.671 309.457Z" fill="white"/>
</g>
<defs>
<clipPath id="clip0">
<rect width="512" height="512" fill="white"/>
</clipPath>
</defs>
</svg>
