<svg width="512" height="512" viewBox="0 0 512 512" fill="none" xmlns="http://www.w3.org/2000/svg">
<g clip-path="url(#clip0)">
<path d="M95.5 485V433L96 239.5V25C101.6 5.4 118.333 0.5 126 0.5H352L479 128V330V489C472.2 506.6 458.167 511.667 452 512C347 511.833 135.8 511.6 131 512C125 512.5 118 510.5 108 504.5C100 499.7 96.3333 489.5 95.5 485Z" fill="#E2E5E7"/>
<path d="M479 223V128L466 115H450.5L373.5 117L479 223Z" fill="#CAD1D8"/>
<path d="M352 98V0.5L478.5 128H384.5C360.1 126.4 352.667 107.333 352 98Z" fill="#B0B7BD"/>
<path d="M97 402V447.5L402 448C412.4 446.8 415.667 438.5 416 434.5V402H97Z" fill="#CAD1D8"/>
<rect x="32" y="240" width="384" height="192" rx="16" fill="#F7B84E"/>
<path d="M161.821 355.219C161.821 360.414 160.473 365.082 157.778 369.223C155.122 373.363 151.216 376.605 146.059 378.949C140.903 381.293 134.79 382.465 127.72 382.465C119.243 382.465 112.251 380.863 106.743 377.66C102.837 375.355 99.6531 372.289 97.1922 368.461C94.7703 364.594 93.5594 360.844 93.5594 357.211C93.5594 355.102 94.282 353.305 95.7273 351.82C97.2117 350.297 99.0867 349.535 101.352 349.535C103.188 349.535 104.731 350.121 105.981 351.293C107.27 352.465 108.364 354.203 109.262 356.508C110.356 359.242 111.528 361.527 112.778 363.363C114.067 365.199 115.864 366.723 118.169 367.934C120.473 369.105 123.501 369.691 127.251 369.691C132.407 369.691 136.587 368.5 139.79 366.117C143.032 363.695 144.653 360.688 144.653 357.094C144.653 354.242 143.774 351.938 142.016 350.18C140.298 348.383 138.052 347.016 135.278 346.078C132.544 345.141 128.872 344.145 124.262 343.09C118.091 341.645 112.915 339.965 108.735 338.051C104.595 336.098 101.294 333.461 98.8328 330.141C96.4109 326.781 95.2 322.621 95.2 317.66C95.2 312.934 96.4891 308.734 99.0672 305.062C101.645 301.391 105.376 298.578 110.259 296.625C115.141 294.633 120.884 293.637 127.485 293.637C132.759 293.637 137.309 294.301 141.137 295.629C145.005 296.918 148.208 298.656 150.747 300.844C153.286 302.992 155.141 305.258 156.313 307.641C157.485 310.023 158.071 312.348 158.071 314.613C158.071 316.684 157.329 318.559 155.845 320.238C154.399 321.879 152.583 322.699 150.395 322.699C148.403 322.699 146.88 322.211 145.825 321.234C144.809 320.219 143.696 318.578 142.485 316.312C140.923 313.07 139.048 310.551 136.86 308.754C134.673 306.918 131.157 306 126.313 306C121.821 306 118.188 306.996 115.415 308.988C112.68 310.941 111.313 313.305 111.313 316.078C111.313 317.797 111.782 319.281 112.72 320.531C113.657 321.781 114.946 322.855 116.587 323.754C118.227 324.652 119.887 325.355 121.567 325.863C123.247 326.371 126.02 327.113 129.887 328.09C134.731 329.223 139.106 330.473 143.012 331.84C146.958 333.207 150.298 334.867 153.032 336.82C155.805 338.773 157.954 341.254 159.477 344.262C161.04 347.23 161.821 350.883 161.821 355.219ZM197.102 305.062L216.555 362.66L236.066 304.652C237.082 301.605 237.844 299.496 238.352 298.324C238.859 297.113 239.699 296.039 240.871 295.102C242.043 294.125 243.645 293.637 245.676 293.637C247.16 293.637 248.527 294.008 249.777 294.75C251.066 295.492 252.062 296.488 252.766 297.738C253.508 298.949 253.879 300.18 253.879 301.43C253.879 302.289 253.762 303.227 253.527 304.242C253.293 305.219 253 306.195 252.648 307.172C252.297 308.109 251.945 309.086 251.594 310.102L230.793 366.234C230.051 368.383 229.309 370.434 228.566 372.387C227.824 374.301 226.965 376 225.988 377.484C225.012 378.93 223.703 380.121 222.062 381.059C220.461 381.996 218.488 382.465 216.145 382.465C213.801 382.465 211.809 381.996 210.168 381.059C208.566 380.16 207.258 378.969 206.242 377.484C205.266 375.961 204.406 374.242 203.664 372.328C202.922 370.414 202.18 368.383 201.438 366.234L180.988 310.57C180.637 309.555 180.266 308.559 179.875 307.582C179.523 306.605 179.211 305.551 178.938 304.418C178.703 303.285 178.586 302.328 178.586 301.547C178.586 299.555 179.387 297.738 180.988 296.098C182.59 294.457 184.602 293.637 187.023 293.637C189.992 293.637 192.082 294.555 193.293 296.391C194.543 298.188 195.812 301.078 197.102 305.062ZM351.62 346.078V362.543C351.62 364.73 351.405 366.488 350.976 367.816C350.546 369.105 349.745 370.277 348.573 371.332C347.441 372.387 345.976 373.402 344.179 374.379C338.984 377.191 333.984 379.242 329.179 380.531C324.374 381.82 319.14 382.465 313.476 382.465C306.874 382.465 300.859 381.449 295.429 379.418C289.999 377.387 285.37 374.438 281.542 370.57C277.714 366.703 274.765 362.016 272.695 356.508C270.663 351 269.648 344.848 269.648 338.051C269.648 331.371 270.644 325.258 272.636 319.711C274.628 314.164 277.558 309.457 281.425 305.59C285.292 301.723 289.999 298.773 295.546 296.742C301.093 294.672 307.382 293.637 314.413 293.637C320.195 293.637 325.312 294.418 329.765 295.98C334.218 297.504 337.831 299.438 340.605 301.781C343.378 304.125 345.468 306.605 346.874 309.223C348.28 311.84 348.984 314.164 348.984 316.195C348.984 318.383 348.163 320.258 346.523 321.82C344.921 323.344 342.988 324.105 340.722 324.105C339.472 324.105 338.261 323.812 337.089 323.227C335.956 322.641 334.999 321.82 334.218 320.766C332.07 317.406 330.253 314.867 328.769 313.148C327.284 311.43 325.273 309.984 322.734 308.812C320.234 307.641 317.03 307.055 313.124 307.055C309.101 307.055 305.507 307.758 302.343 309.164C299.179 310.531 296.464 312.543 294.198 315.199C291.972 317.816 290.253 321.039 289.042 324.867C287.87 328.695 287.284 332.934 287.284 337.582C287.284 347.66 289.589 355.414 294.198 360.844C298.847 366.273 305.312 368.988 313.593 368.988C317.616 368.988 321.386 368.461 324.902 367.406C328.456 366.352 332.05 364.848 335.683 362.895V348.949H322.206C318.964 348.949 316.503 348.461 314.823 347.484C313.183 346.508 312.363 344.848 312.363 342.504C312.363 340.59 313.046 339.008 314.413 337.758C315.82 336.508 317.714 335.883 320.097 335.883H339.843C342.265 335.883 344.316 336.098 345.995 336.527C347.675 336.957 349.023 337.914 350.038 339.398C351.093 340.883 351.62 343.109 351.62 346.078Z" fill="white"/>
</g>
<defs>
<clipPath id="clip0">
<rect width="512" height="512" fill="white"/>
</clipPath>
</defs>
</svg>
