<svg width="512" height="512" viewBox="0 0 512 512" fill="none" xmlns="http://www.w3.org/2000/svg">
<g clip-path="url(#clip0)">
<path d="M95.5 485V433L96 239.5V25C101.6 5.4 118.333 0.5 126 0.5H352L479 128V330V489C472.2 506.6 458.167 511.667 452 512C347 511.833 135.8 511.6 131 512C125 512.5 118 510.5 108 504.5C100 499.7 96.3333 489.5 95.5 485Z" fill="#E2E5E7"/>
<path d="M479 223V128L466 115H450.5L373.5 117L479 223Z" fill="#CAD1D8"/>
<path d="M352 98V0.5L478.5 128H384.5C360.1 126.4 352.667 107.333 352 98Z" fill="#B0B7BD"/>
<path d="M97 402V447.5L402 448C412.4 446.8 415.667 438.5 416 434.5V402H97Z" fill="#CAD1D8"/>
<rect x="32" y="240" width="384" height="192" rx="16" fill="#F7B84E"/>
<path d="M157.751 355.219C157.751 360.414 156.403 365.082 153.708 369.223C151.052 373.363 147.145 376.605 141.989 378.949C136.833 381.293 130.72 382.465 123.649 382.465C115.173 382.465 108.18 380.863 102.673 377.66C98.7664 375.355 95.5828 372.289 93.1219 368.461C90.7 364.594 89.4891 360.844 89.4891 357.211C89.4891 355.102 90.2117 353.305 91.657 351.82C93.1414 350.297 95.0164 349.535 97.282 349.535C99.118 349.535 100.661 350.121 101.911 351.293C103.2 352.465 104.294 354.203 105.192 356.508C106.286 359.242 107.458 361.527 108.708 363.363C109.997 365.199 111.794 366.723 114.098 367.934C116.403 369.105 119.43 369.691 123.18 369.691C128.337 369.691 132.516 368.5 135.72 366.117C138.962 363.695 140.583 360.688 140.583 357.094C140.583 354.242 139.704 351.938 137.946 350.18C136.227 348.383 133.981 347.016 131.208 346.078C128.473 345.141 124.802 344.145 120.192 343.09C114.02 341.645 108.845 339.965 104.665 338.051C100.524 336.098 97.2234 333.461 94.7625 330.141C92.3406 326.781 91.1297 322.621 91.1297 317.66C91.1297 312.934 92.4187 308.734 94.9969 305.062C97.575 301.391 101.305 298.578 106.188 296.625C111.071 294.633 116.813 293.637 123.415 293.637C128.688 293.637 133.239 294.301 137.067 295.629C140.934 296.918 144.137 298.656 146.677 300.844C149.216 302.992 151.071 305.258 152.243 307.641C153.415 310.023 154.001 312.348 154.001 314.613C154.001 316.684 153.259 318.559 151.774 320.238C150.329 321.879 148.512 322.699 146.325 322.699C144.333 322.699 142.809 322.211 141.755 321.234C140.739 320.219 139.626 318.578 138.415 316.312C136.852 313.07 134.977 310.551 132.79 308.754C130.602 306.918 127.087 306 122.243 306C117.751 306 114.118 306.996 111.345 308.988C108.61 310.941 107.243 313.305 107.243 316.078C107.243 317.797 107.712 319.281 108.649 320.531C109.587 321.781 110.876 322.855 112.516 323.754C114.157 324.652 115.817 325.355 117.497 325.863C119.177 326.371 121.95 327.113 125.817 328.09C130.661 329.223 135.036 330.473 138.942 331.84C142.887 333.207 146.227 334.867 148.962 336.82C151.735 338.773 153.884 341.254 155.407 344.262C156.97 347.23 157.751 350.883 157.751 355.219ZM241.137 367.465L227.25 315.961L213.188 367.465C212.094 371.371 211.215 374.184 210.551 375.902C209.926 377.582 208.812 379.105 207.211 380.473C205.609 381.801 203.48 382.465 200.824 382.465C198.676 382.465 196.898 382.055 195.492 381.234C194.125 380.453 193.012 379.34 192.152 377.895C191.293 376.41 190.59 374.672 190.043 372.68C189.496 370.648 189.008 368.773 188.578 367.055L174.281 309.223C173.422 305.863 172.992 303.305 172.992 301.547C172.992 299.32 173.773 297.445 175.336 295.922C176.898 294.398 178.832 293.637 181.137 293.637C184.301 293.637 186.43 294.652 187.523 296.684C188.617 298.715 189.574 301.664 190.395 305.531L201.645 355.688L214.242 308.754C215.18 305.16 216.02 302.426 216.762 300.551C217.504 298.676 218.715 297.055 220.395 295.688C222.074 294.32 224.359 293.637 227.25 293.637C230.18 293.637 232.445 294.359 234.047 295.805C235.688 297.211 236.82 298.754 237.445 300.434C238.07 302.113 238.91 304.887 239.965 308.754L252.68 355.688L263.93 305.531C264.477 302.914 264.984 300.863 265.453 299.379C265.961 297.895 266.801 296.566 267.973 295.395C269.184 294.223 270.922 293.637 273.188 293.637C275.453 293.637 277.367 294.398 278.93 295.922C280.531 297.406 281.332 299.281 281.332 301.547C281.332 303.148 280.902 305.707 280.043 309.223L265.746 367.055C264.77 370.961 263.949 373.832 263.285 375.668C262.66 377.465 261.566 379.047 260.004 380.414C258.48 381.781 256.312 382.465 253.5 382.465C250.844 382.465 248.715 381.801 247.113 380.473C245.512 379.145 244.398 377.66 243.773 376.02C243.148 374.34 242.27 371.488 241.137 367.465ZM352.062 308.52H317.784V330.492H346.437C349.093 330.492 351.066 331.098 352.355 332.309C353.683 333.48 354.347 335.062 354.347 337.055C354.347 339.047 353.683 340.629 352.355 341.801C351.027 342.973 349.054 343.559 346.437 343.559H317.784V371.859C317.784 375.453 316.964 378.129 315.323 379.887C313.722 381.605 311.652 382.465 309.113 382.465C306.534 382.465 304.425 381.586 302.784 379.828C301.183 378.07 300.382 375.414 300.382 371.859V305.766C300.382 303.266 300.753 301.234 301.495 299.672C302.238 298.07 303.39 296.918 304.952 296.215C306.554 295.473 308.585 295.102 311.046 295.102H352.062C354.835 295.102 356.886 295.727 358.214 296.977C359.581 298.188 360.265 299.789 360.265 301.781C360.265 303.812 359.581 305.453 358.214 306.703C356.886 307.914 354.835 308.52 352.062 308.52Z" fill="white"/>
</g>
<defs>
<clipPath id="clip0">
<rect width="512" height="512" fill="white"/>
</clipPath>
</defs>
</svg>
