<svg width="512" height="512" viewBox="0 0 512 512" fill="none" xmlns="http://www.w3.org/2000/svg">
<g clip-path="url(#clip0)">
<path d="M95.5 485V433L96 239.5V25C101.6 5.4 118.333 0.5 126 0.5H352L479 128V330V489C472.2 506.6 458.167 511.667 452 512C347 511.833 135.8 511.6 131 512C125 512.5 118 510.5 108 504.5C100 499.7 96.3333 489.5 95.5 485Z" fill="#E2E5E7"/>
<path d="M479 223V128L466 115H450.5L373.5 117L479 223Z" fill="#CAD1D8"/>
<path d="M352 98V0.5L478.5 128H384.5C360.1 126.4 352.667 107.333 352 98Z" fill="#B0B7BD"/>
<path d="M97 402V447.5L402 448C412.4 446.8 415.667 438.5 416 434.5V402H97Z" fill="#CAD1D8"/>
<rect x="32" y="240" width="384" height="192" rx="16" fill="#F7B84E"/>
<path d="M115.285 351.516C115.285 355.845 114.162 359.735 111.916 363.186C109.702 366.636 106.447 369.338 102.15 371.291C97.8535 373.244 92.7591 374.221 86.8672 374.221C79.8034 374.221 73.9766 372.886 69.3867 370.217C66.1315 368.296 63.4785 365.741 61.4277 362.551C59.4095 359.328 58.4004 356.203 58.4004 353.176C58.4004 351.418 59.0026 349.921 60.207 348.684C61.444 347.414 63.0065 346.779 64.8945 346.779C66.4245 346.779 67.7103 347.268 68.752 348.244C69.8262 349.221 70.7376 350.669 71.4863 352.59C72.3978 354.868 73.3743 356.773 74.416 358.303C75.4902 359.833 76.9876 361.102 78.9082 362.111C80.8288 363.088 83.3516 363.576 86.4766 363.576C90.7734 363.576 94.2565 362.583 96.9258 360.598C99.6276 358.579 100.979 356.073 100.979 353.078C100.979 350.702 100.246 348.781 98.7812 347.316C97.349 345.819 95.4772 344.68 93.166 343.898C90.8874 343.117 87.8275 342.287 83.9863 341.408C78.8431 340.204 74.5299 338.804 71.0469 337.209C67.5964 335.581 64.8457 333.384 62.7949 330.617C60.7767 327.818 59.7676 324.351 59.7676 320.217C59.7676 316.278 60.8418 312.779 62.9902 309.719C65.1387 306.659 68.2474 304.315 72.3164 302.688C76.3854 301.027 81.1706 300.197 86.6719 300.197C91.0664 300.197 94.8587 300.751 98.0488 301.857C101.271 302.932 103.941 304.38 106.057 306.203C108.173 307.993 109.719 309.882 110.695 311.867C111.672 313.853 112.16 315.79 112.16 317.678C112.16 319.403 111.542 320.965 110.305 322.365C109.1 323.732 107.587 324.416 105.764 324.416C104.104 324.416 102.834 324.009 101.955 323.195C101.109 322.349 100.181 320.982 99.1719 319.094C97.8698 316.392 96.3073 314.292 94.4844 312.795C92.6615 311.265 89.7318 310.5 85.6953 310.5C81.9518 310.5 78.9245 311.33 76.6133 312.99C74.3346 314.618 73.1953 316.587 73.1953 318.898C73.1953 320.331 73.5859 321.568 74.3672 322.609C75.1484 323.651 76.2227 324.546 77.5898 325.295C78.957 326.044 80.3405 326.63 81.7402 327.053C83.14 327.476 85.4512 328.094 88.6738 328.908C92.7103 329.852 96.3561 330.894 99.6113 332.033C102.899 333.173 105.682 334.556 107.961 336.184C110.272 337.811 112.062 339.878 113.332 342.385C114.634 344.859 115.285 347.902 115.285 351.516ZM184.773 361.721L173.201 318.801L161.482 361.721C160.571 364.976 159.839 367.32 159.285 368.752C158.764 370.152 157.837 371.421 156.502 372.561C155.167 373.667 153.393 374.221 151.18 374.221C149.389 374.221 147.908 373.879 146.736 373.195C145.597 372.544 144.669 371.617 143.953 370.412C143.237 369.175 142.651 367.727 142.195 366.066C141.74 364.374 141.333 362.811 140.975 361.379L129.061 313.186C128.344 310.386 127.986 308.254 127.986 306.789C127.986 304.934 128.637 303.371 129.939 302.102C131.242 300.832 132.853 300.197 134.773 300.197C137.41 300.197 139.184 301.044 140.096 302.736C141.007 304.429 141.805 306.887 142.488 310.109L151.863 351.906L162.361 312.795C163.143 309.8 163.842 307.521 164.461 305.959C165.079 304.396 166.089 303.046 167.488 301.906C168.888 300.767 170.792 300.197 173.201 300.197C175.643 300.197 177.531 300.799 178.865 302.004C180.232 303.176 181.176 304.462 181.697 305.861C182.218 307.261 182.918 309.572 183.797 312.795L194.393 351.906L203.768 310.109C204.223 307.928 204.646 306.219 205.037 304.982C205.46 303.745 206.16 302.639 207.137 301.662C208.146 300.686 209.594 300.197 211.482 300.197C213.37 300.197 214.965 300.832 216.268 302.102C217.602 303.339 218.27 304.901 218.27 306.789C218.27 308.124 217.911 310.256 217.195 313.186L205.281 361.379C204.467 364.634 203.784 367.027 203.23 368.557C202.71 370.054 201.798 371.372 200.496 372.512C199.227 373.651 197.42 374.221 195.076 374.221C192.863 374.221 191.089 373.667 189.754 372.561C188.419 371.454 187.492 370.217 186.971 368.85C186.45 367.45 185.717 365.074 184.773 361.721ZM235.023 365.383V308.986C235.023 306.057 235.691 303.859 237.025 302.395C238.36 300.93 240.085 300.197 242.201 300.197C244.382 300.197 246.14 300.93 247.475 302.395C248.842 303.827 249.525 306.024 249.525 308.986V365.383C249.525 368.345 248.842 370.559 247.475 372.023C246.14 373.488 244.382 374.221 242.201 374.221C240.118 374.221 238.393 373.488 237.025 372.023C235.691 370.526 235.023 368.312 235.023 365.383ZM315.059 312.6H286.494V330.91H310.371C312.585 330.91 314.229 331.415 315.303 332.424C316.41 333.4 316.963 334.719 316.963 336.379C316.963 338.039 316.41 339.357 315.303 340.334C314.196 341.311 312.552 341.799 310.371 341.799H286.494V365.383C286.494 368.378 285.811 370.607 284.443 372.072C283.109 373.505 281.383 374.221 279.268 374.221C277.119 374.221 275.361 373.488 273.994 372.023C272.66 370.559 271.992 368.345 271.992 365.383V310.305C271.992 308.221 272.301 306.529 272.92 305.227C273.538 303.892 274.499 302.932 275.801 302.346C277.135 301.727 278.828 301.418 280.879 301.418H315.059C317.37 301.418 319.079 301.939 320.186 302.98C321.325 303.99 321.895 305.324 321.895 306.984C321.895 308.677 321.325 310.044 320.186 311.086C319.079 312.095 317.37 312.6 315.059 312.6ZM385.719 313.381H369.898V365.383C369.898 368.378 369.231 370.607 367.896 372.072C366.562 373.505 364.837 374.221 362.721 374.221C360.572 374.221 358.814 373.488 357.447 372.023C356.113 370.559 355.445 368.345 355.445 365.383V313.381H339.625C337.151 313.381 335.312 312.844 334.107 311.77C332.903 310.663 332.301 309.214 332.301 307.424C332.301 305.568 332.919 304.104 334.156 303.029C335.426 301.955 337.249 301.418 339.625 301.418H385.719C388.225 301.418 390.081 301.971 391.285 303.078C392.522 304.185 393.141 305.633 393.141 307.424C393.141 309.214 392.522 310.663 391.285 311.77C390.048 312.844 388.193 313.381 385.719 313.381Z" fill="white"/>
</g>
<defs>
<clipPath id="clip0">
<rect width="512" height="512" fill="white"/>
</clipPath>
</defs>
</svg>
