<svg width="512" height="512" viewBox="0 0 512 512" fill="none" xmlns="http://www.w3.org/2000/svg">
<g clip-path="url(#clip0)">
<path d="M95.5 485V433L96 239.5V25C101.6 5.4 118.333 0.5 126 0.5H352L479 128V330V489C472.2 506.6 458.167 511.667 452 512C347 511.833 135.8 511.6 131 512C125 512.5 118 510.5 108 504.5C100 499.7 96.3333 489.5 95.5 485Z" fill="#E2E5E7"/>
<path d="M479 223V128L466 115H450.5L373.5 117L479 223Z" fill="#CAD1D8"/>
<path d="M352 98V0.5L478.5 128H384.5C360.1 126.4 352.667 107.333 352 98Z" fill="#B0B7BD"/>
<path d="M97 402V447.5L402 448C412.4 446.8 415.667 438.5 416 434.5V402H97Z" fill="#CAD1D8"/>
<rect x="32" y="240" width="384" height="192" rx="16" fill="#F7B84E"/>
<path d="M173.833 355.219C173.833 360.414 172.485 365.082 169.79 369.223C167.134 373.363 163.227 376.605 158.071 378.949C152.915 381.293 146.802 382.465 139.731 382.465C131.255 382.465 124.262 380.863 118.755 377.66C114.848 375.355 111.665 372.289 109.204 368.461C106.782 364.594 105.571 360.844 105.571 357.211C105.571 355.102 106.294 353.305 107.739 351.82C109.223 350.297 111.098 349.535 113.364 349.535C115.2 349.535 116.743 350.121 117.993 351.293C119.282 352.465 120.376 354.203 121.274 356.508C122.368 359.242 123.54 361.527 124.79 363.363C126.079 365.199 127.876 366.723 130.18 367.934C132.485 369.105 135.512 369.691 139.262 369.691C144.419 369.691 148.598 368.5 151.802 366.117C155.044 363.695 156.665 360.688 156.665 357.094C156.665 354.242 155.786 351.938 154.028 350.18C152.309 348.383 150.063 347.016 147.29 346.078C144.555 345.141 140.884 344.145 136.274 343.09C130.102 341.645 124.927 339.965 120.747 338.051C116.606 336.098 113.305 333.461 110.845 330.141C108.423 326.781 107.212 322.621 107.212 317.66C107.212 312.934 108.501 308.734 111.079 305.062C113.657 301.391 117.387 298.578 122.27 296.625C127.153 294.633 132.895 293.637 139.497 293.637C144.77 293.637 149.321 294.301 153.149 295.629C157.016 296.918 160.22 298.656 162.759 300.844C165.298 302.992 167.153 305.258 168.325 307.641C169.497 310.023 170.083 312.348 170.083 314.613C170.083 316.684 169.341 318.559 167.856 320.238C166.411 321.879 164.595 322.699 162.407 322.699C160.415 322.699 158.891 322.211 157.837 321.234C156.821 320.219 155.708 318.578 154.497 316.312C152.934 313.07 151.059 310.551 148.872 308.754C146.684 306.918 143.169 306 138.325 306C133.833 306 130.2 306.996 127.427 308.988C124.692 310.941 123.325 313.305 123.325 316.078C123.325 317.797 123.794 319.281 124.731 320.531C125.669 321.781 126.958 322.855 128.598 323.754C130.239 324.652 131.899 325.355 133.579 325.863C135.259 326.371 138.032 327.113 141.899 328.09C146.743 329.223 151.118 330.473 155.024 331.84C158.97 333.207 162.309 334.867 165.044 336.82C167.817 338.773 169.966 341.254 171.489 344.262C173.052 347.23 173.833 350.883 173.833 355.219ZM215.559 371.859V344.613L194.582 312.094C192.746 309.164 191.438 306.879 190.656 305.238C189.914 303.598 189.543 302.172 189.543 300.961C189.543 298.969 190.305 297.25 191.828 295.805C193.391 294.359 195.305 293.637 197.57 293.637C199.953 293.637 201.75 294.32 202.961 295.688C204.211 297.016 206.066 299.691 208.527 303.715L224.582 329.789L240.812 303.715C241.789 302.113 242.609 300.766 243.273 299.672C243.938 298.578 244.66 297.562 245.441 296.625C246.262 295.648 247.16 294.906 248.137 294.398C249.113 293.891 250.305 293.637 251.711 293.637C253.898 293.637 255.715 294.359 257.16 295.805C258.645 297.211 259.387 298.852 259.387 300.727C259.387 302.25 259.016 303.773 258.273 305.297C257.531 306.82 256.262 308.93 254.465 311.625L232.961 344.613V371.859C232.961 375.414 232.141 378.07 230.5 379.828C228.859 381.586 226.77 382.465 224.23 382.465C221.652 382.465 219.562 381.605 217.961 379.887C216.359 378.129 215.559 375.453 215.559 371.859ZM341.425 355.219C341.425 360.414 340.077 365.082 337.382 369.223C334.726 373.363 330.82 376.605 325.663 378.949C320.507 381.293 314.394 382.465 307.323 382.465C298.847 382.465 291.855 380.863 286.347 377.66C282.441 375.355 279.257 372.289 276.796 368.461C274.374 364.594 273.163 360.844 273.163 357.211C273.163 355.102 273.886 353.305 275.331 351.82C276.816 350.297 278.691 349.535 280.956 349.535C282.792 349.535 284.335 350.121 285.585 351.293C286.874 352.465 287.968 354.203 288.866 356.508C289.96 359.242 291.132 361.527 292.382 363.363C293.671 365.199 295.468 366.723 297.773 367.934C300.077 369.105 303.105 369.691 306.855 369.691C312.011 369.691 316.191 368.5 319.394 366.117C322.636 363.695 324.257 360.688 324.257 357.094C324.257 354.242 323.378 351.938 321.62 350.18C319.902 348.383 317.655 347.016 314.882 346.078C312.148 345.141 308.476 344.145 303.866 343.09C297.695 341.645 292.519 339.965 288.339 338.051C284.198 336.098 280.898 333.461 278.437 330.141C276.015 326.781 274.804 322.621 274.804 317.66C274.804 312.934 276.093 308.734 278.671 305.062C281.249 301.391 284.98 298.578 289.863 296.625C294.745 294.633 300.488 293.637 307.089 293.637C312.363 293.637 316.913 294.301 320.741 295.629C324.609 296.918 327.812 298.656 330.351 300.844C332.89 302.992 334.745 305.258 335.917 307.641C337.089 310.023 337.675 312.348 337.675 314.613C337.675 316.684 336.933 318.559 335.448 320.238C334.003 321.879 332.187 322.699 329.999 322.699C328.007 322.699 326.484 322.211 325.429 321.234C324.413 320.219 323.3 318.578 322.089 316.312C320.527 313.07 318.652 310.551 316.464 308.754C314.277 306.918 310.761 306 305.917 306C301.425 306 297.792 306.996 295.019 308.988C292.284 310.941 290.917 313.305 290.917 316.078C290.917 317.797 291.386 319.281 292.323 320.531C293.261 321.781 294.55 322.855 296.191 323.754C297.831 324.652 299.491 325.355 301.171 325.863C302.851 326.371 305.624 327.113 309.491 328.09C314.335 329.223 318.71 330.473 322.616 331.84C326.562 333.207 329.902 334.867 332.636 336.82C335.409 338.773 337.558 341.254 339.081 344.262C340.644 347.23 341.425 350.883 341.425 355.219Z" fill="white"/>
</g>
<defs>
<clipPath id="clip0">
<rect width="512" height="512" fill="white"/>
</clipPath>
</defs>
</svg>
