<svg width="512" height="512" viewBox="0 0 512 512" fill="none" xmlns="http://www.w3.org/2000/svg">
<g clip-path="url(#clip0)">
<path d="M95.5 485V433L96 239.5V25C101.6 5.4 118.333 0.5 126 0.5H352L479 128V330V489C472.2 506.6 458.167 511.667 452 512C347 511.833 135.8 511.6 131 512C125 512.5 118 510.5 108 504.5C100 499.7 96.3333 489.5 95.5 485Z" fill="#E2E5E7"/>
<path d="M479 223V128L466 115H450.5L373.5 117L479 223Z" fill="#CAD1D8"/>
<path d="M352 98V0.5L478.5 128H384.5C360.1 126.4 352.667 107.333 352 98Z" fill="#B0B7BD"/>
<path d="M97 402V447.5L402 448C412.4 446.8 415.667 438.5 416 434.5V402H97Z" fill="#CAD1D8"/>
<rect x="10" y="240" width="384" height="192" rx="16" fill="#F15642"/>
<path d="M139.298 308.457H120.313V370.859C120.313 374.453 119.512 377.129 117.911 378.887C116.309 380.605 114.239 381.465 111.7 381.465C109.122 381.465 107.012 380.586 105.372 378.828C103.77 377.07 102.97 374.414 102.97 370.859V308.457H83.9852C81.0164 308.457 78.8094 307.812 77.3641 306.523C75.9187 305.195 75.1961 303.457 75.1961 301.309C75.1961 299.082 75.9383 297.324 77.4227 296.035C78.9461 294.746 81.1336 294.102 83.9852 294.102H139.298C142.305 294.102 144.532 294.766 145.977 296.094C147.462 297.422 148.204 299.16 148.204 301.309C148.204 303.457 147.462 305.195 145.977 306.523C144.493 307.812 142.266 308.457 139.298 308.457ZM213.66 370.273L209.559 359.492H174.637L170.535 370.508C168.934 374.805 167.566 377.715 166.434 379.238C165.301 380.723 163.445 381.465 160.867 381.465C158.68 381.465 156.746 380.664 155.066 379.062C153.387 377.461 152.547 375.645 152.547 373.613C152.547 372.441 152.742 371.23 153.133 369.98C153.523 368.73 154.168 366.992 155.066 364.766L177.039 308.984C177.664 307.383 178.406 305.469 179.266 303.242C180.164 300.977 181.102 299.102 182.078 297.617C183.094 296.133 184.402 294.941 186.004 294.043C187.645 293.105 189.656 292.637 192.039 292.637C194.461 292.637 196.473 293.105 198.074 294.043C199.715 294.941 201.023 296.113 202 297.559C203.016 299.004 203.855 300.566 204.52 302.246C205.223 303.887 206.102 306.094 207.156 308.867L229.598 364.297C231.355 368.516 232.234 371.582 232.234 373.496C232.234 375.488 231.395 377.324 229.715 379.004C228.074 380.645 226.082 381.465 223.738 381.465C222.371 381.465 221.199 381.211 220.223 380.703C219.246 380.234 218.426 379.59 217.762 378.77C217.098 377.91 216.375 376.621 215.594 374.902C214.852 373.145 214.207 371.602 213.66 370.273ZM179.207 346.426H204.871L191.922 310.977L179.207 346.426ZM276.245 343.262H270.152V370.859C270.152 374.492 269.351 377.168 267.749 378.887C266.148 380.605 264.058 381.465 261.48 381.465C258.706 381.465 256.558 380.566 255.034 378.77C253.511 376.973 252.749 374.336 252.749 370.859V304.766C252.749 301.016 253.589 298.301 255.269 296.621C256.948 294.941 259.663 294.102 263.413 294.102H291.714C295.62 294.102 298.96 294.277 301.734 294.629C304.507 294.941 307.007 295.605 309.234 296.621C311.929 297.754 314.312 299.375 316.382 301.484C318.452 303.594 320.015 306.055 321.07 308.867C322.163 311.641 322.71 314.59 322.71 317.715C322.71 324.121 320.894 329.238 317.261 333.066C313.667 336.895 308.198 339.609 300.855 341.211C303.941 342.852 306.89 345.273 309.702 348.477C312.515 351.68 315.015 355.098 317.202 358.73C319.429 362.324 321.148 365.586 322.359 368.516C323.609 371.406 324.234 373.398 324.234 374.492C324.234 375.625 323.863 376.758 323.12 377.891C322.417 378.984 321.441 379.844 320.191 380.469C318.941 381.133 317.495 381.465 315.855 381.465C313.902 381.465 312.261 380.996 310.933 380.059C309.605 379.16 308.452 378.008 307.476 376.602C306.538 375.195 305.249 373.125 303.609 370.391L296.636 358.789C294.136 354.531 291.89 351.289 289.898 349.062C287.945 346.836 285.952 345.312 283.921 344.492C281.89 343.672 279.331 343.262 276.245 343.262ZM286.206 307.168H270.152V330.781H285.738C289.917 330.781 293.433 330.43 296.284 329.727C299.136 328.984 301.304 327.754 302.788 326.035C304.312 324.277 305.073 321.875 305.073 318.828C305.073 316.445 304.468 314.355 303.257 312.559C302.046 310.723 300.366 309.355 298.218 308.457C296.187 307.598 292.183 307.168 286.206 307.168Z" fill="white"/>
</g>
<defs>
<clipPath id="clip0">
<rect width="512" height="512" fill="white"/>
</clipPath>
</defs>
</svg>
