<svg width="512" height="512" viewBox="0 0 512 512" fill="none" xmlns="http://www.w3.org/2000/svg">
<g clip-path="url(#clip0)">
<path d="M95.5 485V433L96 239.5V25C101.6 5.4 118.333 0.5 126 0.5H352L479 128V330V489C472.2 506.6 458.167 511.667 452 512C347 511.833 135.8 511.6 131 512C125 512.5 118 510.5 108 504.5C100 499.7 96.3333 489.5 95.5 485Z" fill="#E2E5E7"/>
<path d="M479 223V128L466 115H450.5L373.5 117L479 223Z" fill="#CAD1D8"/>
<path d="M352 98V0.5L478.5 128H384.5C360.1 126.4 352.667 107.333 352 98Z" fill="#B0B7BD"/>
<path d="M97 402V447.5L402 448C412.4 446.8 415.667 438.5 416 434.5V402H97Z" fill="#CAD1D8"/>
<rect x="10" y="240" width="384" height="192" rx="16" fill="#F15642"/>
<path d="M67.3604 315.343H53.1221V362.145C53.1221 364.84 52.5215 366.847 51.3203 368.165C50.1191 369.454 48.5664 370.099 46.6621 370.099C44.7285 370.099 43.1465 369.439 41.916 368.121C40.7148 366.803 40.1143 364.811 40.1143 362.145V315.343H25.876C23.6494 315.343 21.9941 314.859 20.9102 313.893C19.8262 312.896 19.2842 311.593 19.2842 309.981C19.2842 308.312 19.8408 306.993 20.9541 306.026C22.0967 305.06 23.7373 304.576 25.876 304.576H67.3604C69.6162 304.576 71.2861 305.074 72.3701 306.07C73.4834 307.066 74.04 308.37 74.04 309.981C74.04 311.593 73.4834 312.896 72.3701 313.893C71.2568 314.859 69.5869 315.343 67.3604 315.343ZM123.132 361.705L120.056 353.619H93.8646L90.7885 361.881C89.5873 365.104 88.5619 367.286 87.7123 368.429C86.8627 369.542 85.4711 370.099 83.5375 370.099C81.8969 370.099 80.4467 369.498 79.1869 368.297C77.9271 367.096 77.2973 365.733 77.2973 364.21C77.2973 363.331 77.4437 362.423 77.7367 361.485C78.0297 360.548 78.5131 359.244 79.1869 357.574L95.6664 315.738C96.1352 314.537 96.6918 313.102 97.3363 311.432C98.0102 309.732 98.7133 308.326 99.4457 307.213C100.207 306.1 101.189 305.206 102.39 304.532C103.621 303.829 105.129 303.478 106.916 303.478C108.733 303.478 110.242 303.829 111.443 304.532C112.673 305.206 113.655 306.085 114.387 307.169C115.149 308.253 115.779 309.425 116.277 310.685C116.804 311.915 117.463 313.57 118.254 315.65L135.085 357.223C136.404 360.387 137.063 362.687 137.063 364.122C137.063 365.616 136.433 366.993 135.173 368.253C133.943 369.483 132.449 370.099 130.691 370.099C129.665 370.099 128.787 369.908 128.054 369.527C127.322 369.176 126.706 368.692 126.208 368.077C125.71 367.433 125.168 366.466 124.582 365.177C124.026 363.858 123.542 362.701 123.132 361.705ZM97.2924 343.819H116.54L106.829 317.232L97.2924 343.819ZM170.071 341.446H165.501V362.145C165.501 364.869 164.9 366.876 163.699 368.165C162.498 369.454 160.93 370.099 158.997 370.099C156.917 370.099 155.305 369.425 154.163 368.077C153.02 366.729 152.449 364.752 152.449 362.145V312.574C152.449 309.762 153.079 307.726 154.339 306.466C155.598 305.206 157.635 304.576 160.447 304.576H181.673C184.602 304.576 187.107 304.708 189.187 304.972C191.267 305.206 193.142 305.704 194.812 306.466C196.834 307.315 198.621 308.531 200.174 310.113C201.726 311.695 202.898 313.541 203.689 315.65C204.51 317.73 204.92 319.942 204.92 322.286C204.92 327.091 203.557 330.929 200.833 333.8C198.137 336.671 194.036 338.707 188.528 339.908C190.843 341.139 193.054 342.955 195.164 345.357C197.273 347.76 199.148 350.323 200.789 353.048C202.459 355.743 203.748 358.189 204.656 360.387C205.594 362.555 206.062 364.049 206.062 364.869C206.062 365.719 205.784 366.568 205.227 367.418C204.7 368.238 203.968 368.883 203.03 369.352C202.093 369.85 201.009 370.099 199.778 370.099C198.313 370.099 197.083 369.747 196.087 369.044C195.091 368.37 194.226 367.506 193.494 366.451C192.791 365.396 191.824 363.844 190.594 361.793L185.364 353.092C183.489 349.898 181.804 347.467 180.31 345.797C178.846 344.127 177.351 342.984 175.828 342.369C174.304 341.754 172.386 341.446 170.071 341.446ZM177.542 314.376H165.501V332.086H177.19C180.325 332.086 182.962 331.822 185.1 331.295C187.239 330.738 188.865 329.815 189.978 328.526C191.121 327.208 191.692 325.406 191.692 323.121C191.692 321.334 191.238 319.767 190.33 318.419C189.422 317.042 188.162 316.017 186.551 315.343C185.027 314.698 182.024 314.376 177.542 314.376ZM230.281 370.099C228.465 370.099 226.898 369.513 225.579 368.341C224.261 367.169 223.602 365.528 223.602 363.419C223.602 361.632 224.232 360.094 225.491 358.805C226.751 357.516 228.304 356.871 230.15 356.871C231.995 356.871 233.563 357.516 234.852 358.805C236.17 360.064 236.829 361.603 236.829 363.419C236.829 365.499 236.17 367.14 234.852 368.341C233.563 369.513 232.039 370.099 230.281 370.099ZM316.068 342.809V355.157C316.068 356.798 315.907 358.116 315.585 359.112C315.262 360.079 314.662 360.958 313.783 361.749C312.933 362.54 311.835 363.302 310.487 364.034C306.59 366.144 302.84 367.682 299.237 368.648C295.633 369.615 291.708 370.099 287.46 370.099C282.508 370.099 277.997 369.337 273.924 367.813C269.852 366.29 266.38 364.078 263.509 361.178C260.638 358.277 258.426 354.762 256.874 350.631C255.35 346.5 254.588 341.886 254.588 336.788C254.588 331.778 255.336 327.193 256.83 323.033C258.324 318.873 260.521 315.343 263.421 312.442C266.322 309.542 269.852 307.33 274.012 305.807C278.172 304.254 282.889 303.478 288.163 303.478C292.499 303.478 296.337 304.063 299.676 305.235C303.016 306.378 305.726 307.828 307.806 309.586C309.886 311.344 311.454 313.204 312.508 315.167C313.563 317.13 314.09 318.873 314.09 320.396C314.09 322.037 313.475 323.443 312.245 324.615C311.044 325.758 309.593 326.329 307.894 326.329C306.957 326.329 306.048 326.109 305.17 325.67C304.32 325.23 303.602 324.615 303.016 323.824C301.405 321.305 300.043 319.4 298.929 318.111C297.816 316.822 296.307 315.738 294.403 314.859C292.528 313.98 290.126 313.541 287.196 313.541C284.178 313.541 281.483 314.068 279.11 315.123C276.737 316.148 274.701 317.657 273.002 319.649C271.332 321.612 270.043 324.029 269.134 326.9C268.255 329.771 267.816 332.95 267.816 336.437C267.816 343.995 269.545 349.811 273.002 353.883C276.488 357.955 281.337 359.991 287.547 359.991C290.565 359.991 293.392 359.596 296.029 358.805C298.695 358.014 301.39 356.886 304.115 355.421V344.962H294.007C291.576 344.962 289.73 344.596 288.47 343.863C287.24 343.131 286.625 341.886 286.625 340.128C286.625 338.692 287.137 337.506 288.163 336.568C289.217 335.631 290.638 335.162 292.425 335.162H307.235C309.051 335.162 310.589 335.323 311.849 335.646C313.109 335.968 314.12 336.686 314.881 337.799C315.672 338.912 316.068 340.582 316.068 342.809ZM332.641 353.971L365.731 314.376H337.299C335.307 314.376 333.798 313.937 332.772 313.058C331.776 312.179 331.278 311.021 331.278 309.586C331.278 308.092 331.776 306.891 332.772 305.982C333.798 305.045 335.307 304.576 337.299 304.576H373.949C378.695 304.576 381.068 306.788 381.068 311.212C381.068 313.321 380.673 315.006 379.882 316.266C379.091 317.525 377.494 319.562 375.092 322.374L344.154 359.2H378.256C380.277 359.2 381.786 359.625 382.782 360.475C383.778 361.295 384.276 362.452 384.276 363.946C384.276 365.499 383.778 366.729 382.782 367.638C381.786 368.546 380.277 369 378.256 369H336.42C333.578 369 331.439 368.37 330.004 367.11C328.568 365.821 327.851 364.107 327.851 361.969C327.851 361.236 327.968 360.562 328.202 359.947C328.437 359.332 328.744 358.761 329.125 358.233C329.535 357.677 330.092 356.988 330.795 356.168C331.498 355.318 332.113 354.586 332.641 353.971Z" fill="white"/>
</g>
<defs>
<clipPath id="clip0">
<rect width="512" height="512" fill="white"/>
</clipPath>
</defs>
</svg>
