<svg width="512" height="512" viewBox="0 0 512 512" fill="none" xmlns="http://www.w3.org/2000/svg">
<g clip-path="url(#clip0)">
<path d="M95.5 485V433L96 239.5V25C101.6 5.4 118.333 0.5 126 0.5H352L479 128V330V489C472.2 506.6 458.167 511.667 452 512C347 511.833 135.8 511.6 131 512C125 512.5 118 510.5 108 504.5C100 499.7 96.3333 489.5 95.5 485Z" fill="#E2E5E7"/>
<path d="M479 223V128L466 115H450.5L373.5 117L479 223Z" fill="#CAD1D8"/>
<path d="M352 98V0.5L478.5 128H384.5C360.1 126.4 352.667 107.333 352 98Z" fill="#B0B7BD"/>
<path d="M97 402V447.5L402 448C412.4 446.8 415.667 438.5 416 434.5V402H97Z" fill="#CAD1D8"/>
<rect x="10" y="240" width="384" height="192" rx="16" fill="#F15642"/>
<path d="M164.808 271.305H152.152V312.906C152.152 315.302 151.618 317.086 150.55 318.258C149.482 319.404 148.102 319.977 146.409 319.977C144.691 319.977 143.284 319.391 142.191 318.219C141.123 317.047 140.589 315.276 140.589 312.906V271.305H127.933C125.954 271.305 124.482 270.875 123.519 270.016C122.555 269.13 122.073 267.971 122.073 266.539C122.073 265.055 122.568 263.883 123.558 263.023C124.573 262.164 126.032 261.734 127.933 261.734H164.808C166.813 261.734 168.297 262.177 169.261 263.062C170.251 263.948 170.745 265.107 170.745 266.539C170.745 267.971 170.251 269.13 169.261 270.016C168.271 270.875 166.787 271.305 164.808 271.305ZM214.383 312.516L211.648 305.328H188.367L185.633 312.672C184.565 315.536 183.654 317.477 182.898 318.492C182.143 319.482 180.906 319.977 179.188 319.977C177.729 319.977 176.44 319.443 175.32 318.375C174.201 317.307 173.641 316.096 173.641 314.742C173.641 313.961 173.771 313.154 174.031 312.32C174.292 311.487 174.721 310.328 175.32 308.844L189.969 271.656C190.385 270.589 190.88 269.312 191.453 267.828C192.052 266.318 192.677 265.068 193.328 264.078C194.005 263.089 194.878 262.294 195.945 261.695C197.039 261.07 198.38 260.758 199.969 260.758C201.583 260.758 202.924 261.07 203.992 261.695C205.086 262.294 205.958 263.076 206.609 264.039C207.286 265.003 207.846 266.044 208.289 267.164C208.758 268.258 209.344 269.729 210.047 271.578L225.008 308.531C226.18 311.344 226.766 313.388 226.766 314.664C226.766 315.992 226.206 317.216 225.086 318.336C223.992 319.43 222.664 319.977 221.102 319.977C220.19 319.977 219.409 319.807 218.758 319.469C218.107 319.156 217.56 318.727 217.117 318.18C216.674 317.607 216.193 316.747 215.672 315.602C215.177 314.43 214.747 313.401 214.383 312.516ZM191.414 296.617H208.523L199.891 272.984L191.414 296.617ZM238.411 307.867L251.223 289.156L240.442 272.516C239.427 270.901 238.658 269.521 238.138 268.375C237.643 267.203 237.395 266.083 237.395 265.016C237.395 263.922 237.877 262.945 238.841 262.086C239.83 261.201 241.028 260.758 242.434 260.758C244.049 260.758 245.299 261.24 246.184 262.203C247.096 263.141 248.346 264.898 249.934 267.477L258.528 281.383L267.708 267.477C268.463 266.305 269.101 265.302 269.622 264.469C270.169 263.635 270.69 262.945 271.184 262.398C271.679 261.852 272.226 261.448 272.825 261.188C273.45 260.901 274.166 260.758 274.973 260.758C276.432 260.758 277.617 261.201 278.528 262.086C279.466 262.945 279.934 263.974 279.934 265.172C279.934 266.917 278.932 269.286 276.927 272.281L265.638 289.156L277.786 307.867C278.88 309.508 279.674 310.875 280.169 311.969C280.664 313.036 280.911 314.052 280.911 315.016C280.911 315.927 280.69 316.76 280.247 317.516C279.804 318.271 279.179 318.87 278.372 319.312C277.565 319.755 276.653 319.977 275.638 319.977C274.544 319.977 273.619 319.742 272.864 319.273C272.109 318.831 271.497 318.271 271.028 317.594C270.559 316.917 269.687 315.602 268.411 313.648L258.333 297.789L247.63 314.117C246.796 315.419 246.197 316.331 245.833 316.852C245.494 317.372 245.078 317.88 244.583 318.375C244.088 318.87 243.502 319.26 242.825 319.547C242.148 319.833 241.354 319.977 240.442 319.977C239.036 319.977 237.864 319.547 236.927 318.688C236.015 317.828 235.559 316.578 235.559 314.938C235.559 313.01 236.51 310.654 238.411 307.867ZM116.895 402.781H137.286C139.317 402.781 140.867 403.198 141.934 404.031C143.002 404.865 143.536 405.997 143.536 407.43C143.536 408.706 143.106 409.786 142.247 410.672C141.414 411.557 140.137 412 138.419 412H109.669C107.716 412 106.192 411.466 105.098 410.398C104.005 409.305 103.458 408.029 103.458 406.57C103.458 405.633 103.809 404.396 104.512 402.859C105.216 401.297 105.984 400.073 106.817 399.188C110.281 395.594 113.406 392.521 116.192 389.969C118.979 387.391 120.971 385.698 122.169 384.891C124.304 383.38 126.075 381.87 127.481 380.359C128.914 378.823 129.994 377.26 130.723 375.672C131.479 374.057 131.856 372.482 131.856 370.945C131.856 369.279 131.453 367.794 130.645 366.492C129.864 365.164 128.783 364.135 127.403 363.406C126.049 362.677 124.565 362.312 122.95 362.312C119.539 362.312 116.856 363.81 114.903 366.805C114.643 367.195 114.2 368.263 113.575 370.008C112.976 371.753 112.286 373.094 111.505 374.031C110.749 374.969 109.63 375.438 108.145 375.438C106.843 375.438 105.762 375.008 104.903 374.148C104.044 373.289 103.614 372.117 103.614 370.633C103.614 368.836 104.018 366.961 104.825 365.008C105.632 363.055 106.83 361.284 108.419 359.695C110.033 358.107 112.065 356.831 114.512 355.867C116.986 354.878 119.877 354.383 123.184 354.383C127.169 354.383 130.567 355.008 133.38 356.258C135.203 357.091 136.804 358.237 138.184 359.695C139.565 361.154 140.632 362.846 141.387 364.773C142.169 366.674 142.559 368.654 142.559 370.711C142.559 373.94 141.752 376.883 140.137 379.539C138.549 382.169 136.921 384.24 135.255 385.75C133.588 387.234 130.789 389.578 126.856 392.781C122.95 395.984 120.268 398.471 118.809 400.242C118.184 400.945 117.546 401.792 116.895 402.781ZM195.572 383.914C195.572 388.185 195.311 391.857 194.791 394.93C194.27 398.003 193.306 400.789 191.9 403.289C190.129 406.362 187.837 408.732 185.025 410.398C182.212 412.065 179.087 412.898 175.65 412.898C171.692 412.898 168.137 411.779 164.986 409.539C161.861 407.299 159.504 404.201 157.916 400.242C157.108 398.081 156.509 395.698 156.119 393.094C155.754 390.464 155.572 387.625 155.572 384.578C155.572 380.646 155.78 377.104 156.197 373.953C156.614 370.802 157.265 368.094 158.15 365.828C159.686 362.078 161.913 359.227 164.83 357.273C167.772 355.294 171.275 354.305 175.337 354.305C178.02 354.305 180.455 354.747 182.642 355.633C184.83 356.492 186.744 357.768 188.384 359.461C190.051 361.128 191.457 363.198 192.603 365.672C194.582 369.969 195.572 376.049 195.572 383.914ZM184.869 383.133C184.869 378.367 184.582 374.474 184.009 371.453C183.436 368.406 182.473 366.115 181.119 364.578C179.765 363.016 177.89 362.234 175.494 362.234C172.056 362.234 169.66 363.966 168.306 367.43C166.978 370.893 166.314 376.232 166.314 383.445C166.314 388.341 166.601 392.352 167.173 395.477C167.746 398.602 168.71 400.971 170.064 402.586C171.418 404.174 173.254 404.969 175.572 404.969C177.968 404.969 179.843 404.135 181.197 402.469C182.551 400.802 183.502 398.419 184.048 395.32C184.595 392.221 184.869 388.159 184.869 383.133ZM227.178 406.648V371.102C220.564 376.18 216.11 378.719 213.819 378.719C212.725 378.719 211.748 378.289 210.889 377.43C210.056 376.544 209.639 375.529 209.639 374.383C209.639 373.055 210.056 372.078 210.889 371.453C211.722 370.828 213.194 370.021 215.303 369.031C218.454 367.547 220.967 365.984 222.842 364.344C224.743 362.703 226.423 360.867 227.881 358.836C229.34 356.805 230.29 355.555 230.733 355.086C231.176 354.617 232.009 354.383 233.233 354.383C234.613 354.383 235.72 354.917 236.553 355.984C237.386 357.052 237.803 358.523 237.803 360.398V405.125C237.803 410.359 236.019 412.977 232.452 412.977C230.863 412.977 229.587 412.443 228.623 411.375C227.66 410.307 227.178 408.732 227.178 406.648ZM271.87 381.023C273.641 378.914 275.568 377.352 277.652 376.336C279.735 375.32 282.066 374.812 284.644 374.812C287.118 374.812 289.396 375.281 291.48 376.219C293.589 377.13 295.425 378.445 296.988 380.164C298.576 381.857 299.8 383.862 300.659 386.18C301.519 388.497 301.948 390.919 301.948 393.445C301.948 397.117 301.102 400.451 299.409 403.445C297.743 406.44 295.399 408.784 292.378 410.477C289.383 412.143 285.985 412.977 282.183 412.977C277.808 412.977 274.032 411.909 270.855 409.773C267.678 407.638 265.243 404.487 263.55 400.32C261.883 396.128 261.05 391.01 261.05 384.969C261.05 380.047 261.558 375.646 262.573 371.766C263.589 367.885 265.047 364.669 266.948 362.117C268.849 359.565 271.154 357.638 273.863 356.336C276.571 355.034 279.657 354.383 283.12 354.383C286.454 354.383 289.383 355.034 291.909 356.336C294.461 357.638 296.376 359.253 297.652 361.18C298.954 363.107 299.605 364.956 299.605 366.727C299.605 367.794 299.201 368.771 298.394 369.656C297.586 370.516 296.558 370.945 295.308 370.945C294.214 370.945 293.198 370.607 292.261 369.93C291.323 369.227 290.633 368.263 290.191 367.039C289.592 365.477 288.641 364.227 287.339 363.289C286.037 362.326 284.527 361.844 282.808 361.844C281.428 361.844 280.047 362.247 278.667 363.055C277.313 363.836 276.167 364.904 275.23 366.258C273.329 369.018 272.209 373.94 271.87 381.023ZM282.417 405.281C285.047 405.281 287.222 404.214 288.941 402.078C290.659 399.917 291.519 397.091 291.519 393.602C291.519 391.232 291.115 389.201 290.308 387.508C289.501 385.789 288.394 384.487 286.988 383.602C285.581 382.69 284.032 382.234 282.339 382.234C280.724 382.234 279.175 382.664 277.691 383.523C276.232 384.383 275.047 385.633 274.136 387.273C273.251 388.888 272.808 390.789 272.808 392.977C272.808 396.492 273.719 399.422 275.542 401.766C277.365 404.109 279.657 405.281 282.417 405.281Z" fill="white"/>
</g>
<defs>
<clipPath id="clip0">
<rect width="512" height="512" fill="white"/>
</clipPath>
</defs>
</svg>
