<svg width="512" height="512" viewBox="0 0 512 512" fill="none" xmlns="http://www.w3.org/2000/svg">
<g clip-path="url(#clip0)">
<path d="M95.5 485V433L96 239.5V25C101.6 5.4 118.333 0.5 126 0.5H352L479 128V330V489C472.2 506.6 458.167 511.667 452 512C347 511.833 135.8 511.6 131 512C125 512.5 118 510.5 108 504.5C100 499.7 96.3333 489.5 95.5 485Z" fill="#E2E5E7"/>
<path d="M479 223V128L466 115H450.5L373.5 117L479 223Z" fill="#CAD1D8"/>
<path d="M352 98V0.5L478.5 128H384.5C360.1 126.4 352.667 107.333 352 98Z" fill="#B0B7BD"/>
<path d="M97 402V447.5L402 448C412.4 446.8 415.667 438.5 416 434.5V402H97Z" fill="#CAD1D8"/>
<rect x="10" y="240" width="384" height="192" rx="16" fill="#F15642"/>
<path d="M145.567 308.457H126.583V370.859C126.583 374.453 125.782 377.129 124.18 378.887C122.579 380.605 120.509 381.465 117.97 381.465C115.391 381.465 113.282 380.586 111.641 378.828C110.04 377.07 109.239 374.414 109.239 370.859V308.457H90.2547C87.2859 308.457 85.0789 307.812 83.6336 306.523C82.1883 305.195 81.4656 303.457 81.4656 301.309C81.4656 299.082 82.2078 297.324 83.6922 296.035C85.2156 294.746 87.4031 294.102 90.2547 294.102H145.567C148.575 294.102 150.802 294.766 152.247 296.094C153.731 297.422 154.473 299.16 154.473 301.309C154.473 303.457 153.731 305.195 152.247 306.523C150.762 307.812 148.536 308.457 145.567 308.457ZM229.188 307.52H189.988V328.613H226.082C228.738 328.613 230.711 329.219 232 330.43C233.328 331.602 233.992 333.164 233.992 335.117C233.992 337.07 233.348 338.672 232.059 339.922C230.77 341.133 228.777 341.738 226.082 341.738H189.988V366.172H230.535C233.27 366.172 235.32 366.816 236.688 368.105C238.094 369.355 238.797 371.035 238.797 373.145C238.797 375.176 238.094 376.836 236.688 378.125C235.32 379.375 233.27 380 230.535 380H183.25C179.461 380 176.727 379.16 175.047 377.48C173.406 375.801 172.586 373.086 172.586 369.336V304.766C172.586 302.266 172.957 300.234 173.699 298.672C174.441 297.07 175.594 295.918 177.156 295.215C178.758 294.473 180.789 294.102 183.25 294.102H229.188C231.961 294.102 234.012 294.727 235.34 295.977C236.707 297.188 237.391 298.789 237.391 300.781C237.391 302.812 236.707 304.453 235.34 305.703C234.012 306.914 231.961 307.52 229.188 307.52ZM257.261 363.301L276.48 335.234L260.308 310.273C258.784 307.852 257.632 305.781 256.851 304.062C256.109 302.305 255.738 300.625 255.738 299.023C255.738 297.383 256.46 295.918 257.905 294.629C259.39 293.301 261.187 292.637 263.296 292.637C265.718 292.637 267.593 293.359 268.921 294.805C270.288 296.211 272.163 298.848 274.546 302.715L287.437 323.574L301.206 302.715C302.339 300.957 303.296 299.453 304.077 298.203C304.898 296.953 305.679 295.918 306.421 295.098C307.163 294.277 307.984 293.672 308.882 293.281C309.82 292.852 310.894 292.637 312.105 292.637C314.292 292.637 316.07 293.301 317.437 294.629C318.843 295.918 319.546 297.461 319.546 299.258C319.546 301.875 318.042 305.43 315.034 309.922L298.101 335.234L316.323 363.301C317.964 365.762 319.155 367.812 319.898 369.453C320.64 371.055 321.011 372.578 321.011 374.023C321.011 375.391 320.679 376.641 320.015 377.773C319.351 378.906 318.413 379.805 317.202 380.469C315.991 381.133 314.624 381.465 313.101 381.465C311.46 381.465 310.073 381.113 308.941 380.41C307.808 379.746 306.89 378.906 306.187 377.891C305.484 376.875 304.175 374.902 302.261 371.973L287.144 348.184L271.089 372.676C269.839 374.629 268.941 375.996 268.394 376.777C267.886 377.559 267.261 378.32 266.519 379.062C265.777 379.805 264.898 380.391 263.882 380.82C262.866 381.25 261.675 381.465 260.308 381.465C258.198 381.465 256.441 380.82 255.034 379.531C253.667 378.242 252.984 376.367 252.984 373.906C252.984 371.016 254.409 367.48 257.261 363.301Z" fill="white"/>
</g>
<defs>
<clipPath id="clip0">
<rect width="512" height="512" fill="white"/>
</clipPath>
</defs>
</svg>
