<svg width="512" height="512" viewBox="0 0 512 512" fill="none" xmlns="http://www.w3.org/2000/svg">
<g clip-path="url(#clip0)">
<path d="M95.5 485V433L96 239.5V25C101.6 5.4 118.333 0.5 126 0.5H352L479 128V330V489C472.2 506.6 458.167 511.667 452 512C347 511.833 135.8 511.6 131 512C125 512.5 118 510.5 108 504.5C100 499.7 96.3333 489.5 95.5 485Z" fill="#E2E5E7"/>
<path d="M479 223V128L466 115H450.5L373.5 117L479 223Z" fill="#CAD1D8"/>
<path d="M352 98V0.5L478.5 128H384.5C360.1 126.4 352.667 107.333 352 98Z" fill="#B0B7BD"/>
<path d="M97 402V447.5L402 448C412.4 446.8 415.667 438.5 416 434.5V402H97Z" fill="#CAD1D8"/>
<rect x="10" y="240" width="384" height="192" rx="16" fill="#F15642"/>
<path d="M135.462 308.457H116.477V370.859C116.477 374.453 115.677 377.129 114.075 378.887C112.473 380.605 110.403 381.465 107.864 381.465C105.286 381.465 103.177 380.586 101.536 378.828C99.9344 377.07 99.1336 374.414 99.1336 370.859V308.457H80.1492C77.1805 308.457 74.9734 307.812 73.5281 306.523C72.0828 305.195 71.3602 303.457 71.3602 301.309C71.3602 299.082 72.1023 297.324 73.5867 296.035C75.1102 294.746 77.2977 294.102 80.1492 294.102H135.462C138.47 294.102 140.696 294.766 142.141 296.094C143.626 297.422 144.368 299.16 144.368 301.309C144.368 303.457 143.626 305.195 142.141 306.523C140.657 307.812 138.43 308.457 135.462 308.457ZM237.891 345.078V361.543C237.891 363.73 237.676 365.488 237.246 366.816C236.816 368.105 236.016 369.277 234.844 370.332C233.711 371.387 232.246 372.402 230.449 373.379C225.254 376.191 220.254 378.242 215.449 379.531C210.645 380.82 205.41 381.465 199.746 381.465C193.145 381.465 187.129 380.449 181.699 378.418C176.27 376.387 171.641 373.438 167.812 369.57C163.984 365.703 161.035 361.016 158.965 355.508C156.934 350 155.918 343.848 155.918 337.051C155.918 330.371 156.914 324.258 158.906 318.711C160.898 313.164 163.828 308.457 167.695 304.59C171.562 300.723 176.27 297.773 181.816 295.742C187.363 293.672 193.652 292.637 200.684 292.637C206.465 292.637 211.582 293.418 216.035 294.98C220.488 296.504 224.102 298.438 226.875 300.781C229.648 303.125 231.738 305.605 233.145 308.223C234.551 310.84 235.254 313.164 235.254 315.195C235.254 317.383 234.434 319.258 232.793 320.82C231.191 322.344 229.258 323.105 226.992 323.105C225.742 323.105 224.531 322.812 223.359 322.227C222.227 321.641 221.27 320.82 220.488 319.766C218.34 316.406 216.523 313.867 215.039 312.148C213.555 310.43 211.543 308.984 209.004 307.812C206.504 306.641 203.301 306.055 199.395 306.055C195.371 306.055 191.777 306.758 188.613 308.164C185.449 309.531 182.734 311.543 180.469 314.199C178.242 316.816 176.523 320.039 175.312 323.867C174.141 327.695 173.555 331.934 173.555 336.582C173.555 346.66 175.859 354.414 180.469 359.844C185.117 365.273 191.582 367.988 199.863 367.988C203.887 367.988 207.656 367.461 211.172 366.406C214.727 365.352 218.32 363.848 221.953 361.895V347.949H208.477C205.234 347.949 202.773 347.461 201.094 346.484C199.453 345.508 198.633 343.848 198.633 341.504C198.633 339.59 199.316 338.008 200.684 336.758C202.09 335.508 203.984 334.883 206.367 334.883H226.113C228.535 334.883 230.586 335.098 232.266 335.527C233.945 335.957 235.293 336.914 236.309 338.398C237.363 339.883 237.891 342.109 237.891 345.078ZM312.663 370.273L308.562 359.492H273.64L269.538 370.508C267.937 374.805 266.57 377.715 265.437 379.238C264.304 380.723 262.448 381.465 259.87 381.465C257.683 381.465 255.749 380.664 254.07 379.062C252.39 377.461 251.55 375.645 251.55 373.613C251.55 372.441 251.745 371.23 252.136 369.98C252.527 368.73 253.171 366.992 254.07 364.766L276.042 308.984C276.667 307.383 277.409 305.469 278.269 303.242C279.167 300.977 280.105 299.102 281.081 297.617C282.097 296.133 283.405 294.941 285.007 294.043C286.648 293.105 288.659 292.637 291.042 292.637C293.464 292.637 295.476 293.105 297.077 294.043C298.718 294.941 300.027 296.113 301.003 297.559C302.019 299.004 302.859 300.566 303.523 302.246C304.226 303.887 305.105 306.094 306.159 308.867L328.601 364.297C330.359 368.516 331.238 371.582 331.238 373.496C331.238 375.488 330.398 377.324 328.718 379.004C327.077 380.645 325.085 381.465 322.741 381.465C321.374 381.465 320.202 381.211 319.226 380.703C318.249 380.234 317.429 379.59 316.765 378.77C316.101 377.91 315.378 376.621 314.597 374.902C313.855 373.145 313.21 371.602 312.663 370.273ZM278.21 346.426H303.874L290.925 310.977L278.21 346.426Z" fill="white"/>
</g>
<defs>
<clipPath id="clip0">
<rect width="512" height="512" fill="white"/>
</clipPath>
</defs>
</svg>
