<svg width="512" height="512" viewBox="0 0 512 512" fill="none" xmlns="http://www.w3.org/2000/svg">
<g clip-path="url(#clip0)">
<path d="M95.5 485V433L96 239.5V25C101.6 5.4 118.333 0.5 126 0.5H352L479 128V330V489C472.2 506.6 458.167 511.667 452 512C347 511.833 135.8 511.6 131 512C125 512.5 118 510.5 108 504.5C100 499.7 96.3333 489.5 95.5 485Z" fill="#E2E5E7"/>
<path d="M479 223V128L466 115H450.5L373.5 117L479 223Z" fill="#CAD1D8"/>
<path d="M352 98V0.5L478.5 128H384.5C360.1 126.4 352.667 107.333 352 98Z" fill="#B0B7BD"/>
<path d="M97 402V447.5L402 448C412.4 446.8 415.667 438.5 416 434.5V402H97Z" fill="#CAD1D8"/>
<rect x="10" y="240" width="384" height="192" rx="16" fill="#F15642"/>
<path d="M126.29 308.457H107.305V370.859C107.305 374.453 106.505 377.129 104.903 378.887C103.302 380.605 101.231 381.465 98.6922 381.465C96.1141 381.465 94.0047 380.586 92.3641 378.828C90.7625 377.07 89.9617 374.414 89.9617 370.859V308.457H70.9773C68.0086 308.457 65.8016 307.812 64.3562 306.523C62.9109 305.195 62.1883 303.457 62.1883 301.309C62.1883 299.082 62.9305 297.324 64.4148 296.035C65.9383 294.746 68.1258 294.102 70.9773 294.102H126.29C129.298 294.102 131.524 294.766 132.97 296.094C134.454 297.422 135.196 299.16 135.196 301.309C135.196 303.457 134.454 305.195 132.97 306.523C131.485 307.812 129.259 308.457 126.29 308.457ZM170.828 303.184V327.793H208.387V303.184C208.387 299.668 209.168 297.031 210.73 295.273C212.332 293.516 214.422 292.637 217 292.637C219.617 292.637 221.727 293.516 223.328 295.273C224.969 296.992 225.789 299.629 225.789 303.184V370.859C225.789 374.414 224.969 377.07 223.328 378.828C221.688 380.586 219.578 381.465 217 381.465C214.383 381.465 212.293 380.586 210.73 378.828C209.168 377.031 208.387 374.375 208.387 370.859V341.973H170.828V370.859C170.828 374.414 170.008 377.07 168.367 378.828C166.727 380.586 164.617 381.465 162.039 381.465C159.422 381.465 157.332 380.586 155.77 378.828C154.207 377.031 153.426 374.375 153.426 370.859V303.184C153.426 299.668 154.188 297.031 155.711 295.273C157.273 293.516 159.383 292.637 162.039 292.637C164.656 292.637 166.766 293.516 168.367 295.273C170.008 296.992 170.828 299.629 170.828 303.184ZM281.284 367.051L267.515 312.324V371.621C267.515 374.902 266.773 377.363 265.288 379.004C263.843 380.645 261.909 381.465 259.488 381.465C257.144 381.465 255.23 380.664 253.745 379.062C252.261 377.422 251.519 374.941 251.519 371.621V303.652C251.519 299.902 252.495 297.383 254.448 296.094C256.402 294.766 259.038 294.102 262.359 294.102H267.749C270.991 294.102 273.335 294.395 274.78 294.98C276.265 295.566 277.359 296.621 278.062 298.145C278.765 299.668 279.566 302.148 280.464 305.586L292.945 352.637L305.425 305.586C306.323 302.148 307.124 299.668 307.827 298.145C308.53 296.621 309.605 295.566 311.05 294.98C312.534 294.395 314.898 294.102 318.14 294.102H323.53C326.851 294.102 329.488 294.766 331.441 296.094C333.394 297.383 334.37 299.902 334.37 303.652V371.621C334.37 374.902 333.628 377.363 332.144 379.004C330.698 380.645 328.745 381.465 326.284 381.465C323.98 381.465 322.085 380.645 320.601 379.004C319.116 377.363 318.374 374.902 318.374 371.621V312.324L304.605 367.051C303.706 370.605 302.964 373.223 302.378 374.902C301.831 376.543 300.796 378.047 299.273 379.414C297.749 380.781 295.64 381.465 292.945 381.465C290.913 381.465 289.195 381.016 287.788 380.117C286.382 379.258 285.288 378.145 284.507 376.777C283.726 375.41 283.101 373.906 282.632 372.266C282.202 370.586 281.753 368.848 281.284 367.051Z" fill="white"/>
</g>
<defs>
<clipPath id="clip0">
<rect width="512" height="512" fill="white"/>
</clipPath>
</defs>
</svg>
