<svg width="512" height="512" viewBox="0 0 512 512" fill="none" xmlns="http://www.w3.org/2000/svg">
<g clip-path="url(#clip0)">
<path d="M95.5 485V433L96 239.5V25C101.6 5.4 118.333 0.5 126 0.5H352L479 128V330V489C472.2 506.6 458.167 511.667 452 512C347 511.833 135.8 511.6 131 512C125 512.5 118 510.5 108 504.5C100 499.7 96.3333 489.5 95.5 485Z" fill="#E2E5E7"/>
<path d="M479 223V128L466 115H450.5L373.5 117L479 223Z" fill="#CAD1D8"/>
<path d="M352 98V0.5L478.5 128H384.5C360.1 126.4 352.667 107.333 352 98Z" fill="#B0B7BD"/>
<path d="M97 402V447.5L402 448C412.4 446.8 415.667 438.5 416 434.5V402H97Z" fill="#CAD1D8"/>
<rect x="32" y="240" width="384" height="192" rx="16" fill="#F15642"/>
<path d="M188.278 309.457H169.294V371.859C169.294 375.453 168.493 378.129 166.891 379.887C165.29 381.605 163.22 382.465 160.68 382.465C158.102 382.465 155.993 381.586 154.352 379.828C152.751 378.07 151.95 375.414 151.95 371.859V309.457H132.966C129.997 309.457 127.79 308.812 126.345 307.523C124.899 306.195 124.177 304.457 124.177 302.309C124.177 300.082 124.919 298.324 126.403 297.035C127.927 295.746 130.114 295.102 132.966 295.102H188.278C191.286 295.102 193.512 295.766 194.958 297.094C196.442 298.422 197.184 300.16 197.184 302.309C197.184 304.457 196.442 306.195 194.958 307.523C193.473 308.812 191.247 309.457 188.278 309.457ZM216 371.859V304.184C216 300.668 216.801 298.031 218.402 296.273C220.004 294.516 222.074 293.637 224.613 293.637C227.23 293.637 229.34 294.516 230.941 296.273C232.582 297.992 233.402 300.629 233.402 304.184V371.859C233.402 375.414 232.582 378.07 230.941 379.828C229.34 381.586 227.23 382.465 224.613 382.465C222.113 382.465 220.043 381.586 218.402 379.828C216.801 378.031 216 375.375 216 371.859ZM312.042 308.52H277.765V330.492H306.417C309.073 330.492 311.046 331.098 312.335 332.309C313.663 333.48 314.327 335.062 314.327 337.055C314.327 339.047 313.663 340.629 312.335 341.801C311.007 342.973 309.034 343.559 306.417 343.559H277.765V371.859C277.765 375.453 276.945 378.129 275.304 379.887C273.702 381.605 271.632 382.465 269.093 382.465C266.515 382.465 264.405 381.586 262.765 379.828C261.163 378.07 260.363 375.414 260.363 371.859V305.766C260.363 303.266 260.734 301.234 261.476 299.672C262.218 298.07 263.37 296.918 264.933 296.215C266.534 295.473 268.566 295.102 271.027 295.102H312.042C314.816 295.102 316.866 295.727 318.195 296.977C319.562 298.188 320.245 299.789 320.245 301.781C320.245 303.812 319.562 305.453 318.195 306.703C316.866 307.914 314.816 308.52 312.042 308.52Z" fill="white"/>
</g>
<defs>
<clipPath id="clip0">
<rect width="512" height="512" fill="white"/>
</clipPath>
</defs>
</svg>
