<svg width="512" height="512" viewBox="0 0 512 512" fill="none" xmlns="http://www.w3.org/2000/svg">
<g clip-path="url(#clip0)">
<path d="M95.5 485V433L96 239.5V25C101.6 5.4 118.333 0.5 126 0.5H352L479 128V330V489C472.2 506.6 458.167 511.667 452 512C347 511.833 135.8 511.6 131 512C125 512.5 118 510.5 108 504.5C100 499.7 96.3333 489.5 95.5 485Z" fill="#E2E5E7"/>
<path d="M479 223V128L466 115H450.5L373.5 117L479 223Z" fill="#CAD1D8"/>
<path d="M352 98V0.5L478.5 128H384.5C360.1 126.4 352.667 107.333 352 98Z" fill="#B0B7BD"/>
<path d="M97 402V447.5L402 448C412.4 446.8 415.667 438.5 416 434.5V402H97Z" fill="#CAD1D8"/>
<rect x="32" y="240" width="384" height="192" rx="16" fill="#F15642"/>
<path d="M147.609 309.457H128.624V371.859C128.624 375.453 127.823 378.129 126.222 379.887C124.62 381.605 122.55 382.465 120.011 382.465C117.433 382.465 115.323 381.586 113.683 379.828C112.081 378.07 111.28 375.414 111.28 371.859V309.457H92.2961C89.3273 309.457 87.1203 308.812 85.675 307.523C84.2297 306.195 83.507 304.457 83.507 302.309C83.507 300.082 84.2492 298.324 85.7336 297.035C87.257 295.746 89.4445 295.102 92.2961 295.102H147.609C150.616 295.102 152.843 295.766 154.288 297.094C155.773 298.422 156.515 300.16 156.515 302.309C156.515 304.457 155.773 306.195 154.288 307.523C152.804 308.812 150.577 309.457 147.609 309.457ZM175.33 371.859V304.184C175.33 300.668 176.131 298.031 177.733 296.273C179.334 294.516 181.405 293.637 183.944 293.637C186.561 293.637 188.67 294.516 190.272 296.273C191.913 297.992 192.733 300.629 192.733 304.184V371.859C192.733 375.414 191.913 378.07 190.272 379.828C188.67 381.586 186.561 382.465 183.944 382.465C181.444 382.465 179.373 381.586 177.733 379.828C176.131 378.031 175.33 375.375 175.33 371.859ZM271.373 308.52H237.095V330.492H265.748C268.404 330.492 270.377 331.098 271.666 332.309C272.994 333.48 273.658 335.062 273.658 337.055C273.658 339.047 272.994 340.629 271.666 341.801C270.338 342.973 268.365 343.559 265.748 343.559H237.095V371.859C237.095 375.453 236.275 378.129 234.634 379.887C233.033 381.605 230.963 382.465 228.423 382.465C225.845 382.465 223.736 381.586 222.095 379.828C220.494 378.07 219.693 375.414 219.693 371.859V305.766C219.693 303.266 220.064 301.234 220.806 299.672C221.548 298.07 222.701 296.918 224.263 296.215C225.865 295.473 227.896 295.102 230.357 295.102H271.373C274.146 295.102 276.197 295.727 277.525 296.977C278.892 298.188 279.576 299.789 279.576 301.781C279.576 303.812 278.892 305.453 277.525 306.703C276.197 307.914 274.146 308.52 271.373 308.52ZM351.712 308.52H317.434V330.492H346.087C348.743 330.492 350.716 331.098 352.005 332.309C353.333 333.48 353.997 335.062 353.997 337.055C353.997 339.047 353.333 340.629 352.005 341.801C350.677 342.973 348.704 343.559 346.087 343.559H317.434V371.859C317.434 375.453 316.614 378.129 314.973 379.887C313.372 381.605 311.302 382.465 308.762 382.465C306.184 382.465 304.075 381.586 302.434 379.828C300.833 378.07 300.032 375.414 300.032 371.859V305.766C300.032 303.266 300.403 301.234 301.145 299.672C301.887 298.07 303.04 296.918 304.602 296.215C306.204 295.473 308.235 295.102 310.696 295.102H351.712C354.485 295.102 356.536 295.727 357.864 296.977C359.231 298.188 359.915 299.789 359.915 301.781C359.915 303.812 359.231 305.453 357.864 306.703C356.536 307.914 354.485 308.52 351.712 308.52Z" fill="white"/>
</g>
<defs>
<clipPath id="clip0">
<rect width="512" height="512" fill="white"/>
</clipPath>
</defs>
</svg>
