<svg width="512" height="512" viewBox="0 0 512 512" fill="none" xmlns="http://www.w3.org/2000/svg">
<g clip-path="url(#clip0)">
<path d="M95.5 485V433L96 239.5V25C101.6 5.4 118.333 0.5 126 0.5H352L479 128V330V489C472.2 506.6 458.167 511.667 452 512C347 511.833 135.8 511.6 131 512C125 512.5 118 510.5 108 504.5C100 499.7 96.3333 489.5 95.5 485Z" fill="#E2E5E7"/>
<path d="M479 223V128L466 115H450.5L373.5 117L479 223Z" fill="#CAD1D8"/>
<path d="M352 98V0.5L478.5 128H384.5C360.1 126.4 352.667 107.333 352 98Z" fill="#B0B7BD"/>
<path d="M97 402V447.5L402 448C412.4 446.8 415.667 438.5 416 434.5V402H97Z" fill="#CAD1D8"/>
<rect x="10" y="240" width="384" height="192" rx="16" fill="#F15642"/>
<path d="M132.356 308.457H113.372V370.859C113.372 374.453 112.571 377.129 110.97 378.887C109.368 380.605 107.298 381.465 104.759 381.465C102.18 381.465 100.071 380.586 98.4305 378.828C96.8289 377.07 96.0281 374.414 96.0281 370.859V308.457H77.0437C74.075 308.457 71.868 307.812 70.4227 306.523C68.9773 305.195 68.2547 303.457 68.2547 301.309C68.2547 299.082 68.9969 297.324 70.4812 296.035C72.0047 294.746 74.1922 294.102 77.0437 294.102H132.356C135.364 294.102 137.591 294.766 139.036 296.094C140.52 297.422 141.262 299.16 141.262 301.309C141.262 303.457 140.52 305.195 139.036 306.523C137.552 307.812 135.325 308.457 132.356 308.457ZM188.379 367.051L174.609 312.324V371.621C174.609 374.902 173.867 377.363 172.383 379.004C170.938 380.645 169.004 381.465 166.582 381.465C164.238 381.465 162.324 380.664 160.84 379.062C159.355 377.422 158.613 374.941 158.613 371.621V303.652C158.613 299.902 159.59 297.383 161.543 296.094C163.496 294.766 166.133 294.102 169.453 294.102H174.844C178.086 294.102 180.43 294.395 181.875 294.98C183.359 295.566 184.453 296.621 185.156 298.145C185.859 299.668 186.66 302.148 187.559 305.586L200.039 352.637L212.52 305.586C213.418 302.148 214.219 299.668 214.922 298.145C215.625 296.621 216.699 295.566 218.145 294.98C219.629 294.395 221.992 294.102 225.234 294.102H230.625C233.945 294.102 236.582 294.766 238.535 296.094C240.488 297.383 241.465 299.902 241.465 303.652V371.621C241.465 374.902 240.723 377.363 239.238 379.004C237.793 380.645 235.84 381.465 233.379 381.465C231.074 381.465 229.18 380.645 227.695 379.004C226.211 377.363 225.469 374.902 225.469 371.621V312.324L211.699 367.051C210.801 370.605 210.059 373.223 209.473 374.902C208.926 376.543 207.891 378.047 206.367 379.414C204.844 380.781 202.734 381.465 200.039 381.465C198.008 381.465 196.289 381.016 194.883 380.117C193.477 379.258 192.383 378.145 191.602 376.777C190.82 375.41 190.195 373.906 189.727 372.266C189.297 370.586 188.848 368.848 188.379 367.051ZM300.476 346.543H284.538V370.859C284.538 374.336 283.718 376.973 282.077 378.77C280.437 380.566 278.366 381.465 275.866 381.465C273.249 381.465 271.14 380.586 269.538 378.828C267.937 377.031 267.136 374.414 267.136 370.977V304.766C267.136 300.938 268.015 298.203 269.773 296.562C271.53 294.922 274.323 294.102 278.152 294.102H300.476C307.077 294.102 312.155 294.609 315.71 295.625C319.226 296.602 322.253 298.223 324.792 300.488C327.37 302.754 329.323 305.527 330.652 308.809C331.98 312.09 332.644 315.781 332.644 319.883C332.644 328.633 329.948 335.273 324.558 339.805C319.167 344.297 311.14 346.543 300.476 346.543ZM296.257 307.168H284.538V333.418H296.257C300.359 333.418 303.777 332.988 306.511 332.129C309.284 331.27 311.394 329.863 312.839 327.91C314.284 325.957 315.007 323.398 315.007 320.234C315.007 316.445 313.894 313.359 311.667 310.977C309.167 308.438 304.03 307.168 296.257 307.168Z" fill="white"/>
</g>
<defs>
<clipPath id="clip0">
<rect width="512" height="512" fill="white"/>
</clipPath>
</defs>
</svg>
