<svg width="512" height="512" viewBox="0 0 512 512" fill="none" xmlns="http://www.w3.org/2000/svg">
<g clip-path="url(#clip0)">
<path d="M95.5 485V433L96 239.5V25C101.6 5.4 118.333 0.5 126 0.5H352L479 128V330V489C472.2 506.6 458.167 511.667 452 512C347 511.833 135.8 511.6 131 512C125 512.5 118 510.5 108 504.5C100 499.7 96.3333 489.5 95.5 485Z" fill="#E2E5E7"/>
<path d="M479 223V128L466 115H450.5L373.5 117L479 223Z" fill="#CAD1D8"/>
<path d="M352 98V0.5L478.5 128H384.5C360.1 126.4 352.667 107.333 352 98Z" fill="#B0B7BD"/>
<path d="M97 402V447.5L402 448C412.4 446.8 415.667 438.5 416 434.5V402H97Z" fill="#CAD1D8"/>
<rect x="10" y="240" width="384" height="192" rx="16" fill="#F15642"/>
<path d="M80.8268 314.362H65.7975V363.764C65.7975 366.609 65.1635 368.727 63.8956 370.119C62.6277 371.479 60.9887 372.16 58.9786 372.16C56.9376 372.16 55.2677 371.464 53.9688 370.072C52.7009 368.681 52.067 366.578 52.067 363.764V314.362H37.0377C34.6874 314.362 32.9402 313.852 31.796 312.831C30.6518 311.78 30.0797 310.403 30.0797 308.703C30.0797 306.94 30.6672 305.548 31.8424 304.528C33.0484 303.507 34.7802 302.997 37.0377 302.997H80.8268C83.2079 302.997 84.9706 303.523 86.1148 304.574C87.29 305.626 87.8775 307.002 87.8775 308.703C87.8775 310.403 87.29 311.78 86.1148 312.831C84.9397 313.852 83.177 314.362 80.8268 314.362ZM130.837 301.837C137.888 301.837 143.934 303.275 148.974 306.151C154.046 308.996 157.881 313.063 160.478 318.351C163.076 323.608 164.375 329.793 164.375 336.906C164.375 342.163 163.664 346.941 162.241 351.239C160.818 355.538 158.685 359.264 155.84 362.418C152.995 365.573 149.5 367.985 145.356 369.655C141.212 371.325 136.465 372.16 131.116 372.16C125.797 372.16 121.034 371.309 116.828 369.608C112.623 367.877 109.113 365.449 106.299 362.326C103.485 359.202 101.351 355.445 99.8973 351.054C98.4747 346.662 97.7635 341.916 97.7635 336.813C97.7635 331.587 98.5057 326.793 99.99 322.433C101.505 318.073 103.686 314.362 106.531 311.3C109.376 308.239 112.839 305.904 116.921 304.296C121.003 302.657 125.642 301.837 130.837 301.837ZM150.412 336.813C150.412 331.834 149.608 327.52 148 323.871C146.392 320.222 144.088 317.47 141.089 315.614C138.12 313.728 134.703 312.785 130.837 312.785C128.085 312.785 125.534 313.31 123.183 314.362C120.864 315.382 118.854 316.882 117.153 318.861C115.483 320.84 114.153 323.376 113.164 326.469C112.205 329.53 111.726 332.978 111.726 336.813C111.726 340.679 112.205 344.173 113.164 347.296C114.153 350.42 115.53 353.017 117.292 355.089C119.086 357.13 121.127 358.661 123.415 359.682C125.735 360.702 128.27 361.212 131.023 361.212C134.548 361.212 137.78 360.331 140.718 358.568C143.686 356.806 146.037 354.084 147.768 350.404C149.531 346.724 150.412 342.194 150.412 336.813ZM222.225 363.3L218.978 354.765H191.331L188.084 363.485C186.816 366.887 185.734 369.191 184.837 370.397C183.94 371.572 182.471 372.16 180.43 372.16C178.698 372.16 177.168 371.526 175.838 370.258C174.508 368.99 173.843 367.552 173.843 365.944C173.843 365.016 173.998 364.057 174.307 363.068C174.616 362.078 175.127 360.702 175.838 358.939L193.233 314.779C193.728 313.511 194.315 311.996 194.996 310.233C195.707 308.44 196.449 306.955 197.222 305.78C198.026 304.605 199.062 303.662 200.33 302.951C201.629 302.208 203.222 301.837 205.108 301.837C207.025 301.837 208.618 302.208 209.886 302.951C211.185 303.662 212.221 304.59 212.994 305.734C213.798 306.878 214.463 308.115 214.988 309.445C215.545 310.744 216.241 312.491 217.076 314.687L234.842 358.568C236.233 361.908 236.929 364.336 236.929 365.851C236.929 367.428 236.264 368.882 234.935 370.211C233.636 371.51 232.059 372.16 230.203 372.16C229.121 372.16 228.193 371.959 227.42 371.557C226.647 371.186 225.997 370.675 225.472 370.026C224.946 369.346 224.374 368.325 223.755 366.964C223.168 365.573 222.658 364.351 222.225 363.3ZM194.949 344.42H215.267L205.015 316.356L194.949 344.42ZM304.938 350.59C304.938 354.703 303.871 358.398 301.737 361.676C299.634 364.954 296.542 367.521 292.46 369.376C288.378 371.232 283.538 372.16 277.941 372.16C271.23 372.16 265.695 370.892 261.334 368.356C258.242 366.531 255.721 364.104 253.773 361.073C251.856 358.012 250.897 355.043 250.897 352.167C250.897 350.497 251.469 349.075 252.613 347.899C253.789 346.693 255.273 346.09 257.067 346.09C258.52 346.09 259.742 346.554 260.731 347.482C261.752 348.41 262.618 349.786 263.329 351.61C264.195 353.775 265.122 355.584 266.112 357.038C267.133 358.491 268.555 359.697 270.38 360.656C272.204 361.583 274.601 362.047 277.57 362.047C281.652 362.047 284.96 361.104 287.496 359.218C290.063 357.3 291.346 354.919 291.346 352.074C291.346 349.817 290.651 347.992 289.259 346.601C287.898 345.178 286.12 344.096 283.924 343.354C281.76 342.611 278.853 341.823 275.204 340.988C270.318 339.844 266.22 338.514 262.911 336.999C259.633 335.452 257.02 333.365 255.072 330.736C253.155 328.077 252.196 324.783 252.196 320.856C252.196 317.114 253.216 313.79 255.258 310.883C257.299 307.976 260.252 305.749 264.117 304.203C267.983 302.626 272.529 301.837 277.755 301.837C281.93 301.837 285.533 302.363 288.563 303.415C291.625 304.435 294.161 305.811 296.171 307.543C298.181 309.244 299.65 311.037 300.577 312.924C301.505 314.81 301.969 316.65 301.969 318.444C301.969 320.083 301.381 321.567 300.206 322.897C299.062 324.196 297.624 324.845 295.892 324.845C294.315 324.845 293.109 324.459 292.274 323.686C291.47 322.882 290.589 321.583 289.63 319.789C288.393 317.222 286.909 315.228 285.177 313.805C283.445 312.352 280.662 311.625 276.827 311.625C273.271 311.625 270.395 312.414 268.199 313.991C266.035 315.537 264.952 317.408 264.952 319.604C264.952 320.964 265.323 322.139 266.066 323.129C266.808 324.118 267.828 324.969 269.127 325.68C270.426 326.391 271.74 326.948 273.07 327.35C274.4 327.752 276.595 328.34 279.657 329.113C283.492 330.01 286.955 330.999 290.048 332.082C293.171 333.164 295.815 334.478 297.98 336.024C300.175 337.571 301.876 339.534 303.082 341.916C304.319 344.266 304.938 347.157 304.938 350.59ZM366.962 314.362H351.933V363.764C351.933 366.609 351.299 368.727 350.031 370.119C348.763 371.479 347.124 372.16 345.114 372.16C343.073 372.16 341.403 371.464 340.104 370.072C338.836 368.681 338.203 366.578 338.203 363.764V314.362H323.173C320.823 314.362 319.076 313.852 317.932 312.831C316.787 311.78 316.215 310.403 316.215 308.703C316.215 306.94 316.803 305.548 317.978 304.528C319.184 303.507 320.916 302.997 323.173 302.997H366.962C369.343 302.997 371.106 303.523 372.25 304.574C373.426 305.626 374.013 307.002 374.013 308.703C374.013 310.403 373.426 311.78 372.25 312.831C371.075 313.852 369.313 314.362 366.962 314.362Z" fill="white"/>
</g>
<defs>
<clipPath id="clip0">
<rect width="512" height="512" fill="white"/>
</clipPath>
</defs>
</svg>
