<svg width="512" height="512" viewBox="0 0 512 512" fill="none" xmlns="http://www.w3.org/2000/svg">
<g clip-path="url(#clip0)">
<path d="M95.5 485V433L96 239.5V25C101.6 5.4 118.333 0.5 126 0.5H352L479 128V330V489C472.2 506.6 458.167 511.667 452 512C347 511.833 135.8 511.6 131 512C125 512.5 118 510.5 108 504.5C100 499.7 96.3333 489.5 95.5 485Z" fill="#E2E5E7"/>
<path d="M479 223V128L466 115H450.5L373.5 117L479 223Z" fill="#CAD1D8"/>
<path d="M352 98V0.5L478.5 128H384.5C360.1 126.4 352.667 107.333 352 98Z" fill="#B0B7BD"/>
<path d="M97 402V447.5L402 448C412.4 446.8 415.667 438.5 416 434.5V402H97Z" fill="#CAD1D8"/>
<rect x="10" y="240" width="384" height="192" rx="16" fill="#F15642"/>
<path d="M55.0492 319.267H43.975V355.668C43.975 357.764 43.5079 359.325 42.5736 360.351C41.6394 361.353 40.4317 361.854 38.9506 361.854C37.4467 361.854 36.2162 361.342 35.2592 360.316C34.3249 359.291 33.8578 357.742 33.8578 355.668V319.267H22.7836C21.0518 319.267 19.7644 318.891 18.9213 318.139C18.0782 317.364 17.6566 316.35 17.6566 315.097C17.6566 313.798 18.0896 312.772 18.9555 312.021C19.8441 311.269 21.1202 310.893 22.7836 310.893H55.0492C56.8038 310.893 58.1026 311.28 58.9457 312.055C59.8116 312.829 60.2445 313.843 60.2445 315.097C60.2445 316.35 59.8116 317.364 58.9457 318.139C58.0798 318.891 56.781 319.267 55.0492 319.267ZM91.899 310.038C97.0943 310.038 101.549 311.098 105.263 313.217C109 315.313 111.826 318.31 113.74 322.206C115.654 326.08 116.611 330.637 116.611 335.878C116.611 339.752 116.087 343.272 115.039 346.439C113.991 349.607 112.418 352.353 110.322 354.677C108.226 357.001 105.651 358.778 102.597 360.009C99.5439 361.239 96.0462 361.854 92.1041 361.854C88.1848 361.854 84.6757 361.228 81.5768 359.975C78.4778 358.699 75.8915 356.91 73.818 354.608C71.7444 352.307 70.1721 349.538 69.1012 346.303C68.053 343.067 67.5289 339.569 67.5289 335.81C67.5289 331.959 68.0758 328.427 69.1695 325.214C70.2861 322.001 71.8925 319.267 73.9889 317.011C76.0852 314.755 78.6373 313.035 81.6451 311.85C84.6529 310.642 88.0709 310.038 91.899 310.038ZM106.323 335.81C106.323 332.141 105.73 328.962 104.546 326.273C103.361 323.585 101.663 321.557 99.4527 320.189C97.2652 318.799 94.7473 318.104 91.899 318.104C89.871 318.104 87.9912 318.492 86.2594 319.267C84.5504 320.019 83.0693 321.124 81.816 322.582C80.5856 324.04 79.6057 325.909 78.8766 328.188C78.1702 330.443 77.817 332.984 77.817 335.81C77.817 338.658 78.1702 341.233 78.8766 343.534C79.6057 345.836 80.6197 347.75 81.9186 349.276C83.2402 350.78 84.7441 351.908 86.4303 352.66C88.1393 353.412 90.0078 353.788 92.0357 353.788C94.6334 353.788 97.0146 353.139 99.1793 351.84C101.367 350.541 103.099 348.536 104.375 345.824C105.673 343.113 106.323 339.774 106.323 335.81ZM143.48 339.569H139.926V355.668C139.926 357.787 139.458 359.348 138.524 360.351C137.59 361.353 136.371 361.854 134.867 361.854C133.249 361.854 131.996 361.33 131.107 360.282C130.219 359.234 129.774 357.696 129.774 355.668V317.113C129.774 314.926 130.264 313.342 131.244 312.362C132.224 311.382 133.807 310.893 135.995 310.893H152.504C154.782 310.893 156.731 310.995 158.348 311.2C159.966 311.382 161.425 311.77 162.723 312.362C164.296 313.023 165.686 313.969 166.893 315.199C168.101 316.43 169.013 317.865 169.628 319.506C170.266 321.124 170.585 322.844 170.585 324.667C170.585 328.404 169.525 331.389 167.406 333.622C165.31 335.855 162.12 337.439 157.836 338.373C159.636 339.33 161.356 340.743 162.997 342.611C164.638 344.48 166.096 346.474 167.372 348.593C168.671 350.689 169.673 352.592 170.38 354.301C171.109 355.987 171.473 357.149 171.473 357.787C171.473 358.448 171.257 359.109 170.824 359.77C170.414 360.408 169.844 360.909 169.115 361.273C168.386 361.661 167.543 361.854 166.586 361.854C165.446 361.854 164.489 361.581 163.715 361.034C162.94 360.51 162.268 359.838 161.698 359.018C161.151 358.197 160.399 356.99 159.442 355.395L155.375 348.627C153.916 346.143 152.606 344.252 151.444 342.953C150.305 341.654 149.143 340.766 147.958 340.287C146.773 339.809 145.28 339.569 143.48 339.569ZM149.291 318.515H139.926V332.289H149.017C151.456 332.289 153.506 332.084 155.17 331.674C156.833 331.241 158.098 330.523 158.964 329.521C159.852 328.495 160.297 327.094 160.297 325.316C160.297 323.926 159.943 322.707 159.237 321.659C158.531 320.588 157.551 319.791 156.298 319.267C155.113 318.765 152.777 318.515 149.291 318.515ZM198.411 339.569H194.856V355.668C194.856 357.787 194.389 359.348 193.455 360.351C192.521 361.353 191.302 361.854 189.798 361.854C188.18 361.854 186.927 361.33 186.038 360.282C185.149 359.234 184.705 357.696 184.705 355.668V317.113C184.705 314.926 185.195 313.342 186.175 312.362C187.155 311.382 188.738 310.893 190.926 310.893H207.435C209.713 310.893 211.661 310.995 213.279 311.2C214.897 311.382 216.355 311.77 217.654 312.362C219.227 313.023 220.617 313.969 221.824 315.199C223.032 316.43 223.943 317.865 224.559 319.506C225.197 321.124 225.516 322.844 225.516 324.667C225.516 328.404 224.456 331.389 222.337 333.622C220.241 335.855 217.05 337.439 212.767 338.373C214.567 339.33 216.287 340.743 217.928 342.611C219.568 344.48 221.027 346.474 222.303 348.593C223.602 350.689 224.604 352.592 225.311 354.301C226.04 355.987 226.404 357.149 226.404 357.787C226.404 358.448 226.188 359.109 225.755 359.77C225.345 360.408 224.775 360.909 224.046 361.273C223.317 361.661 222.474 361.854 221.517 361.854C220.377 361.854 219.42 361.581 218.646 361.034C217.871 360.51 217.199 359.838 216.629 359.018C216.082 358.197 215.33 356.99 214.373 355.395L210.306 348.627C208.847 346.143 207.537 344.252 206.375 342.953C205.236 341.654 204.074 340.766 202.889 340.287C201.704 339.809 200.211 339.569 198.411 339.569ZM204.222 318.515H194.856V332.289H203.948C206.386 332.289 208.437 332.084 210.101 331.674C211.764 331.241 213.029 330.523 213.895 329.521C214.783 328.495 215.228 327.094 215.228 325.316C215.228 323.926 214.874 322.707 214.168 321.659C213.462 320.588 212.482 319.791 211.229 319.267C210.044 318.765 207.708 318.515 204.222 318.515ZM272.722 318.72H249.856V331.024H270.91C272.46 331.024 273.611 331.378 274.363 332.084C275.137 332.768 275.525 333.679 275.525 334.818C275.525 335.958 275.149 336.892 274.397 337.621C273.645 338.327 272.483 338.681 270.91 338.681H249.856V352.934H273.508C275.103 352.934 276.299 353.31 277.097 354.062C277.917 354.791 278.327 355.771 278.327 357.001C278.327 358.186 277.917 359.154 277.097 359.906C276.299 360.635 275.103 361 273.508 361H245.925C243.715 361 242.12 360.51 241.14 359.53C240.183 358.55 239.704 356.967 239.704 354.779V317.113C239.704 315.655 239.921 314.47 240.354 313.559C240.787 312.624 241.459 311.952 242.37 311.542C243.305 311.109 244.489 310.893 245.925 310.893H272.722C274.34 310.893 275.536 311.257 276.311 311.986C277.108 312.693 277.507 313.627 277.507 314.789C277.507 315.974 277.108 316.931 276.311 317.66C275.536 318.367 274.34 318.72 272.722 318.72ZM304.171 316.122L323.688 345.653V315.849C323.688 313.912 324.098 312.465 324.918 311.508C325.761 310.528 326.889 310.038 328.302 310.038C329.76 310.038 330.911 310.528 331.754 311.508C332.597 312.465 333.019 313.912 333.019 315.849V355.258C333.019 359.656 331.196 361.854 327.55 361.854C326.639 361.854 325.818 361.718 325.089 361.444C324.36 361.194 323.677 360.784 323.038 360.214C322.4 359.644 321.808 358.983 321.261 358.231C320.714 357.457 320.167 356.671 319.621 355.873L300.582 326.684V356.044C300.582 357.958 300.138 359.405 299.249 360.385C298.361 361.365 297.221 361.854 295.831 361.854C294.396 361.854 293.245 361.365 292.379 360.385C291.513 359.382 291.08 357.935 291.08 356.044V317.387C291.08 315.746 291.263 314.459 291.627 313.524C292.06 312.499 292.778 311.667 293.781 311.029C294.783 310.368 295.866 310.038 297.028 310.038C297.939 310.038 298.714 310.186 299.352 310.482C300.013 310.779 300.582 311.177 301.061 311.679C301.562 312.18 302.064 312.829 302.565 313.627C303.089 314.424 303.624 315.256 304.171 316.122ZM381.216 319.267H370.142V355.668C370.142 357.764 369.675 359.325 368.741 360.351C367.807 361.353 366.599 361.854 365.118 361.854C363.614 361.854 362.383 361.342 361.426 360.316C360.492 359.291 360.025 357.742 360.025 355.668V319.267H348.951C347.219 319.267 345.932 318.891 345.088 318.139C344.245 317.364 343.824 316.35 343.824 315.097C343.824 313.798 344.257 312.772 345.123 312.021C346.011 311.269 347.287 310.893 348.951 310.893H381.216C382.971 310.893 384.27 311.28 385.113 312.055C385.979 312.829 386.412 313.843 386.412 315.097C386.412 316.35 385.979 317.364 385.113 318.139C384.247 318.891 382.948 319.267 381.216 319.267Z" fill="white"/>
</g>
<defs>
<clipPath id="clip0">
<rect width="512" height="512" fill="white"/>
</clipPath>
</defs>
</svg>
