<svg width="512" height="512" viewBox="0 0 512 512" fill="none" xmlns="http://www.w3.org/2000/svg">
<g clip-path="url(#clip0)">
<path d="M95.5 485V433L96 239.5V25C101.6 5.4 118.333 0.5 126 0.5H352L479 128V330V489C472.2 506.6 458.167 511.667 452 512C347 511.833 135.8 511.6 131 512C125 512.5 118 510.5 108 504.5C100 499.7 96.3333 489.5 95.5 485Z" fill="#E2E5E7"/>
<path d="M479 223V128L466 115H450.5L373.5 117L479 223Z" fill="#CAD1D8"/>
<path d="M352 98V0.5L478.5 128H384.5C360.1 126.4 352.667 107.333 352 98Z" fill="#B0B7BD"/>
<path d="M97 402V447.5L402 448C412.4 446.8 415.667 438.5 416 434.5V402H97Z" fill="#CAD1D8"/>
<rect x="10" y="240" width="384" height="192" rx="16" fill="#F15642"/>
<path d="M148.587 308.457H129.602V370.859C129.602 374.453 128.802 377.129 127.2 378.887C125.598 380.605 123.528 381.465 120.989 381.465C118.411 381.465 116.302 380.586 114.661 378.828C113.059 377.07 112.259 374.414 112.259 370.859V308.457H93.2742C90.3055 308.457 88.0984 307.812 86.6531 306.523C85.2078 305.195 84.4852 303.457 84.4852 301.309C84.4852 299.082 85.2273 297.324 86.7117 296.035C88.2352 294.746 90.4227 294.102 93.2742 294.102H148.587C151.595 294.102 153.821 294.766 155.266 296.094C156.751 297.422 157.493 299.16 157.493 301.309C157.493 303.457 156.751 305.195 155.266 306.523C153.782 307.812 151.555 308.457 148.587 308.457ZM231.387 308.457H212.402V370.859C212.402 374.453 211.602 377.129 210 378.887C208.398 380.605 206.328 381.465 203.789 381.465C201.211 381.465 199.102 380.586 197.461 378.828C195.859 377.07 195.059 374.414 195.059 370.859V308.457H176.074C173.105 308.457 170.898 307.812 169.453 306.523C168.008 305.195 167.285 303.457 167.285 301.309C167.285 299.082 168.027 297.324 169.512 296.035C171.035 294.746 173.223 294.102 176.074 294.102H231.387C234.395 294.102 236.621 294.766 238.066 296.094C239.551 297.422 240.293 299.16 240.293 301.309C240.293 303.457 239.551 305.195 238.066 306.523C236.582 307.812 234.355 308.457 231.387 308.457ZM309.734 307.52H275.456V329.492H304.109C306.765 329.492 308.738 330.098 310.027 331.309C311.355 332.48 312.019 334.062 312.019 336.055C312.019 338.047 311.355 339.629 310.027 340.801C308.698 341.973 306.726 342.559 304.109 342.559H275.456V370.859C275.456 374.453 274.636 377.129 272.995 378.887C271.394 380.605 269.323 381.465 266.784 381.465C264.206 381.465 262.097 380.586 260.456 378.828C258.855 377.07 258.054 374.414 258.054 370.859V304.766C258.054 302.266 258.425 300.234 259.167 298.672C259.909 297.07 261.062 295.918 262.624 295.215C264.226 294.473 266.257 294.102 268.718 294.102H309.734C312.507 294.102 314.558 294.727 315.886 295.977C317.253 297.188 317.937 298.789 317.937 300.781C317.937 302.812 317.253 304.453 315.886 305.703C314.558 306.914 312.507 307.52 309.734 307.52Z" fill="white"/>
</g>
<defs>
<clipPath id="clip0">
<rect width="512" height="512" fill="white"/>
</clipPath>
</defs>
</svg>
