<svg width="512" height="512" viewBox="0 0 512 512" fill="none" xmlns="http://www.w3.org/2000/svg">
<g clip-path="url(#clip0)">
<path d="M95.5 485V433L96 239.5V25C101.6 5.4 118.333 0.5 126 0.5H352L479 128V330V489C472.2 506.6 458.167 511.667 452 512C347 511.833 135.8 511.6 131 512C125 512.5 118 510.5 108 504.5C100 499.7 96.3333 489.5 95.5 485Z" fill="#E2E5E7"/>
<path d="M479 223V128L466 115H450.5L373.5 117L479 223Z" fill="#CAD1D8"/>
<path d="M352 98V0.5L478.5 128H384.5C360.1 126.4 352.667 107.333 352 98Z" fill="#B0B7BD"/>
<path d="M97 402V447.5L402 448C412.4 446.8 415.667 438.5 416 434.5V402H97Z" fill="#CAD1D8"/>
<rect x="10" y="240" width="384" height="192" rx="16" fill="#F15642"/>
<path d="M148.587 308.457H129.602V370.859C129.602 374.453 128.802 377.129 127.2 378.887C125.598 380.605 123.528 381.465 120.989 381.465C118.411 381.465 116.302 380.586 114.661 378.828C113.059 377.07 112.259 374.414 112.259 370.859V308.457H93.2742C90.3055 308.457 88.0984 307.812 86.6531 306.523C85.2078 305.195 84.4852 303.457 84.4852 301.309C84.4852 299.082 85.2273 297.324 86.7117 296.035C88.2352 294.746 90.4227 294.102 93.2742 294.102H148.587C151.595 294.102 153.821 294.766 155.266 296.094C156.751 297.422 157.493 299.16 157.493 301.309C157.493 303.457 156.751 305.195 155.266 306.523C153.782 307.812 151.555 308.457 148.587 308.457ZM172.441 363.301L191.66 335.234L175.488 310.273C173.965 307.852 172.812 305.781 172.031 304.062C171.289 302.305 170.918 300.625 170.918 299.023C170.918 297.383 171.641 295.918 173.086 294.629C174.57 293.301 176.367 292.637 178.477 292.637C180.898 292.637 182.773 293.359 184.102 294.805C185.469 296.211 187.344 298.848 189.727 302.715L202.617 323.574L216.387 302.715C217.52 300.957 218.477 299.453 219.258 298.203C220.078 296.953 220.859 295.918 221.602 295.098C222.344 294.277 223.164 293.672 224.062 293.281C225 292.852 226.074 292.637 227.285 292.637C229.473 292.637 231.25 293.301 232.617 294.629C234.023 295.918 234.727 297.461 234.727 299.258C234.727 301.875 233.223 305.43 230.215 309.922L213.281 335.234L231.504 363.301C233.145 365.762 234.336 367.812 235.078 369.453C235.82 371.055 236.191 372.578 236.191 374.023C236.191 375.391 235.859 376.641 235.195 377.773C234.531 378.906 233.594 379.805 232.383 380.469C231.172 381.133 229.805 381.465 228.281 381.465C226.641 381.465 225.254 381.113 224.121 380.41C222.988 379.746 222.07 378.906 221.367 377.891C220.664 376.875 219.355 374.902 217.441 371.973L202.324 348.184L186.27 372.676C185.02 374.629 184.121 375.996 183.574 376.777C183.066 377.559 182.441 378.32 181.699 379.062C180.957 379.805 180.078 380.391 179.062 380.82C178.047 381.25 176.855 381.465 175.488 381.465C173.379 381.465 171.621 380.82 170.215 379.531C168.848 378.242 168.164 376.367 168.164 373.906C168.164 371.016 169.59 367.48 172.441 363.301ZM311.726 308.457H292.741V370.859C292.741 374.453 291.941 377.129 290.339 378.887C288.738 380.605 286.667 381.465 284.128 381.465C281.55 381.465 279.441 380.586 277.8 378.828C276.198 377.07 275.398 374.414 275.398 370.859V308.457H256.413C253.445 308.457 251.238 307.812 249.792 306.523C248.347 305.195 247.624 303.457 247.624 301.309C247.624 299.082 248.366 297.324 249.851 296.035C251.374 294.746 253.562 294.102 256.413 294.102H311.726C314.734 294.102 316.96 294.766 318.405 296.094C319.89 297.422 320.632 299.16 320.632 301.309C320.632 303.457 319.89 305.195 318.405 306.523C316.921 307.812 314.695 308.457 311.726 308.457Z" fill="white"/>
</g>
<defs>
<clipPath id="clip0">
<rect width="512" height="512" fill="white"/>
</clipPath>
</defs>
</svg>
