<svg width="512" height="512" viewBox="0 0 512 512" fill="none" xmlns="http://www.w3.org/2000/svg">
<g clip-path="url(#clip0)">
<path d="M95.5 485V433L96 239.5V25C101.6 5.4 118.333 0.5 126 0.5H352L479 128V330V489C472.2 506.6 458.167 511.667 452 512C347 511.833 135.8 511.6 131 512C125 512.5 118 510.5 108 504.5C100 499.7 96.3333 489.5 95.5 485Z" fill="#E2E5E7"/>
<path d="M479 223V128L466 115H450.5L373.5 117L479 223Z" fill="#CAD1D8"/>
<path d="M352 98V0.5L478.5 128H384.5C360.1 126.4 352.667 107.333 352 98Z" fill="#B0B7BD"/>
<path d="M97 402V447.5L402 448C412.4 446.8 415.667 438.5 416 434.5V402H97Z" fill="#CAD1D8"/>
<rect x="32" y="240" width="384" height="192" rx="16" fill="#A066AA"/>
<path d="M93.5008 345.492V304.184C93.5008 300.668 94.282 298.031 95.8445 296.273C97.4461 294.516 99.5359 293.637 102.114 293.637C104.809 293.637 106.938 294.516 108.501 296.273C110.102 298.031 110.903 300.668 110.903 304.184V346.43C110.903 351.234 111.43 355.258 112.485 358.5C113.579 361.703 115.493 364.203 118.227 366C120.962 367.758 124.79 368.637 129.712 368.637C136.509 368.637 141.313 366.84 144.126 363.246C146.938 359.613 148.345 354.125 148.345 346.781V304.184C148.345 300.629 149.126 297.992 150.688 296.273C152.251 294.516 154.341 293.637 156.958 293.637C159.575 293.637 161.684 294.516 163.286 296.273C164.927 297.992 165.747 300.629 165.747 304.184V345.492C165.747 352.211 165.083 357.816 163.755 362.309C162.466 366.801 160.005 370.746 156.372 374.145C153.247 377.035 149.614 379.145 145.473 380.473C141.333 381.801 136.489 382.465 130.942 382.465C124.341 382.465 118.657 381.762 113.891 380.355C109.126 378.91 105.239 376.703 102.231 373.734C99.2234 370.727 97.0164 366.898 95.6102 362.25C94.2039 357.562 93.5008 351.977 93.5008 345.492ZM192.473 345.492V304.184C192.473 300.668 193.254 298.031 194.816 296.273C196.418 294.516 198.508 293.637 201.086 293.637C203.781 293.637 205.91 294.516 207.473 296.273C209.074 298.031 209.875 300.668 209.875 304.184V346.43C209.875 351.234 210.402 355.258 211.457 358.5C212.551 361.703 214.465 364.203 217.199 366C219.934 367.758 223.762 368.637 228.684 368.637C235.48 368.637 240.285 366.84 243.098 363.246C245.91 359.613 247.316 354.125 247.316 346.781V304.184C247.316 300.629 248.098 297.992 249.66 296.273C251.223 294.516 253.312 293.637 255.93 293.637C258.547 293.637 260.656 294.516 262.258 296.273C263.898 297.992 264.719 300.629 264.719 304.184V345.492C264.719 352.211 264.055 357.816 262.727 362.309C261.438 366.801 258.977 370.746 255.344 374.145C252.219 377.035 248.586 379.145 244.445 380.473C240.305 381.801 235.461 382.465 229.914 382.465C223.312 382.465 217.629 381.762 212.863 380.355C208.098 378.91 204.211 376.703 201.203 373.734C198.195 370.727 195.988 366.898 194.582 362.25C193.176 357.562 192.473 351.977 192.473 345.492ZM347.929 308.52H308.73V329.613H344.823C347.48 329.613 349.452 330.219 350.741 331.43C352.07 332.602 352.734 334.164 352.734 336.117C352.734 338.07 352.089 339.672 350.8 340.922C349.511 342.133 347.519 342.738 344.823 342.738H308.73V367.172H349.277C352.011 367.172 354.062 367.816 355.429 369.105C356.835 370.355 357.538 372.035 357.538 374.145C357.538 376.176 356.835 377.836 355.429 379.125C354.062 380.375 352.011 381 349.277 381H301.991C298.202 381 295.468 380.16 293.788 378.48C292.148 376.801 291.327 374.086 291.327 370.336V305.766C291.327 303.266 291.698 301.234 292.441 299.672C293.183 298.07 294.335 296.918 295.898 296.215C297.499 295.473 299.53 295.102 301.991 295.102H347.929C350.702 295.102 352.753 295.727 354.081 296.977C355.448 298.188 356.132 299.789 356.132 301.781C356.132 303.812 355.448 305.453 354.081 306.703C352.753 307.914 350.702 308.52 347.929 308.52Z" fill="white"/>
</g>
<defs>
<clipPath id="clip0">
<rect width="512" height="512" fill="white"/>
</clipPath>
</defs>
</svg>
