<svg width="512" height="512" viewBox="0 0 512 512" fill="none" xmlns="http://www.w3.org/2000/svg">
<g clip-path="url(#clip0)">
<path d="M95.5 485V433L96 239.5V25C101.6 5.4 118.333 0.5 126 0.5H352L479 128V330V489C472.2 506.6 458.167 511.667 452 512C347 511.833 135.8 511.6 131 512C125 512.5 118 510.5 108 504.5C100 499.7 96.3333 489.5 95.5 485Z" fill="#E2E5E7"/>
<path d="M479 223V128L466 115H450.5L373.5 117L479 223Z" fill="#CAD1D8"/>
<path d="M352 98V0.5L478.5 128H384.5C360.1 126.4 352.667 107.333 352 98Z" fill="#B0B7BD"/>
<path d="M97 402V447.5L402 448C412.4 446.8 415.667 438.5 416 434.5V402H97Z" fill="#CAD1D8"/>
<rect x="32" y="240" width="384" height="192" rx="16" fill="#576D7E"/>
<path d="M166.198 305.062L185.651 362.66L205.162 304.652C206.178 301.605 206.94 299.496 207.448 298.324C207.955 297.113 208.795 296.039 209.967 295.102C211.139 294.125 212.741 293.637 214.772 293.637C216.256 293.637 217.623 294.008 218.873 294.75C220.162 295.492 221.159 296.488 221.862 297.738C222.604 298.949 222.975 300.18 222.975 301.43C222.975 302.289 222.858 303.227 222.623 304.242C222.389 305.219 222.096 306.195 221.745 307.172C221.393 308.109 221.041 309.086 220.69 310.102L199.889 366.234C199.147 368.383 198.405 370.434 197.662 372.387C196.92 374.301 196.061 376 195.084 377.484C194.108 378.93 192.799 380.121 191.159 381.059C189.557 381.996 187.584 382.465 185.241 382.465C182.897 382.465 180.905 381.996 179.264 381.059C177.662 380.16 176.354 378.969 175.338 377.484C174.362 375.961 173.502 374.242 172.76 372.328C172.018 370.414 171.276 368.383 170.534 366.234L150.084 310.57C149.733 309.555 149.362 308.559 148.971 307.582C148.62 306.605 148.307 305.551 148.034 304.418C147.799 303.285 147.682 302.328 147.682 301.547C147.682 299.555 148.483 297.738 150.084 296.098C151.686 294.457 153.698 293.637 156.12 293.637C159.088 293.637 161.178 294.555 162.389 296.391C163.639 298.188 164.909 301.078 166.198 305.062ZM280.58 381H254.33C250.541 381 247.826 380.16 246.185 378.48C244.584 376.762 243.783 374.047 243.783 370.336V305.766C243.783 301.977 244.603 299.262 246.244 297.621C247.923 295.941 250.619 295.102 254.33 295.102H282.162C286.263 295.102 289.818 295.355 292.826 295.863C295.834 296.371 298.529 297.348 300.912 298.793C302.943 300.004 304.74 301.547 306.302 303.422C307.865 305.258 309.056 307.309 309.877 309.574C310.697 311.801 311.107 314.164 311.107 316.664C311.107 325.258 306.81 331.547 298.216 335.531C309.505 339.125 315.15 346.117 315.15 356.508C315.15 361.312 313.92 365.648 311.459 369.516C308.998 373.344 305.677 376.176 301.498 378.012C298.88 379.105 295.873 379.887 292.474 380.355C289.076 380.785 285.111 381 280.58 381ZM279.291 342.855H261.185V367.934H279.877C291.634 367.934 297.513 363.695 297.513 355.219C297.513 350.883 295.99 347.738 292.943 345.785C289.896 343.832 285.345 342.855 279.291 342.855ZM261.185 308.168V330.375H277.123C281.459 330.375 284.798 329.965 287.142 329.145C289.525 328.324 291.341 326.762 292.591 324.457C293.568 322.816 294.056 320.98 294.056 318.949C294.056 314.613 292.513 311.742 289.427 310.336C286.341 308.891 281.634 308.168 275.306 308.168H261.185Z" fill="white"/>
</g>
<defs>
<clipPath id="clip0">
<rect width="512" height="512" fill="white"/>
</clipPath>
</defs>
</svg>
