<svg width="512" height="512" viewBox="0 0 512 512" fill="none" xmlns="http://www.w3.org/2000/svg">
<g clip-path="url(#clip0)">
<path d="M95.5 485V433L96 239.5V25C101.6 5.4 118.333 0.5 126 0.5H352L479 128V330V489C472.2 506.6 458.167 511.667 452 512C347 511.833 135.8 511.6 131 512C125 512.5 118 510.5 108 504.5C100 499.7 96.3333 489.5 95.5 485Z" fill="#E2E5E7"/>
<path d="M479 223V128L466 115H450.5L373.5 117L479 223Z" fill="#CAD1D8"/>
<path d="M352 98V0.5L478.5 128H384.5C360.1 126.4 352.667 107.333 352 98Z" fill="#B0B7BD"/>
<path d="M97 402V447.5L402 448C412.4 446.8 415.667 438.5 416 434.5V402H97Z" fill="#CAD1D8"/>
<rect x="32" y="240" width="384" height="192" rx="16" fill="#576D7E"/>
<path d="M117.473 305.062L136.927 362.66L156.438 304.652C157.454 301.605 158.216 299.496 158.723 298.324C159.231 297.113 160.071 296.039 161.243 295.102C162.415 294.125 164.016 293.637 166.048 293.637C167.532 293.637 168.899 294.008 170.149 294.75C171.438 295.492 172.434 296.488 173.137 297.738C173.88 298.949 174.251 300.18 174.251 301.43C174.251 302.289 174.134 303.227 173.899 304.242C173.665 305.219 173.372 306.195 173.02 307.172C172.669 308.109 172.317 309.086 171.966 310.102L151.165 366.234C150.423 368.383 149.68 370.434 148.938 372.387C148.196 374.301 147.337 376 146.36 377.484C145.384 378.93 144.075 380.121 142.434 381.059C140.833 381.996 138.86 382.465 136.516 382.465C134.173 382.465 132.18 381.996 130.54 381.059C128.938 380.16 127.63 378.969 126.614 377.484C125.637 375.961 124.778 374.242 124.036 372.328C123.294 370.414 122.552 368.383 121.809 366.234L101.36 310.57C101.009 309.555 100.637 308.559 100.247 307.582C99.8953 306.605 99.5828 305.551 99.3094 304.418C99.075 303.285 98.9578 302.328 98.9578 301.547C98.9578 299.555 99.7586 297.738 101.36 296.098C102.962 294.457 104.973 293.637 107.395 293.637C110.364 293.637 112.454 294.555 113.665 296.391C114.915 298.188 116.184 301.078 117.473 305.062ZM266.719 353.871C266.719 356.605 266.035 359.574 264.668 362.777C263.34 365.941 261.23 369.066 258.34 372.152C255.449 375.199 251.758 377.68 247.266 379.594C242.773 381.508 237.539 382.465 231.562 382.465C227.031 382.465 222.91 382.035 219.199 381.176C215.488 380.316 212.109 378.988 209.062 377.191C206.055 375.355 203.281 372.953 200.742 369.984C198.477 367.289 196.543 364.281 194.941 360.961C193.34 357.602 192.129 354.027 191.309 350.238C190.527 346.449 190.137 342.426 190.137 338.168C190.137 331.254 191.133 325.062 193.125 319.594C195.156 314.125 198.047 309.457 201.797 305.59C205.547 301.684 209.941 298.715 214.98 296.684C220.02 294.652 225.391 293.637 231.094 293.637C238.047 293.637 244.238 295.023 249.668 297.797C255.098 300.57 259.258 304.008 262.148 308.109C265.039 312.172 266.484 316.02 266.484 319.652C266.484 321.645 265.781 323.402 264.375 324.926C262.969 326.449 261.27 327.211 259.277 327.211C257.051 327.211 255.371 326.684 254.238 325.629C253.145 324.574 251.914 322.758 250.547 320.18C248.281 315.922 245.605 312.738 242.52 310.629C239.473 308.52 235.703 307.465 231.211 307.465C224.062 307.465 218.359 310.18 214.102 315.609C209.883 321.039 207.773 328.754 207.773 338.754C207.773 345.434 208.711 351 210.586 355.453C212.461 359.867 215.117 363.168 218.555 365.355C221.992 367.543 226.016 368.637 230.625 368.637C235.625 368.637 239.844 367.406 243.281 364.945C246.758 362.445 249.375 358.793 251.133 353.988C251.875 351.723 252.793 349.887 253.887 348.48C254.98 347.035 256.738 346.312 259.16 346.312C261.23 346.312 263.008 347.035 264.492 348.48C265.977 349.926 266.719 351.723 266.719 353.871ZM300.945 295.102H323.62C329.519 295.102 334.577 295.648 338.796 296.742C343.015 297.836 346.843 299.887 350.28 302.895C359.226 310.551 363.698 322.191 363.698 337.816C363.698 342.973 363.249 347.68 362.351 351.938C361.452 356.195 360.066 360.043 358.191 363.48C356.316 366.879 353.913 369.926 350.984 372.621C348.679 374.691 346.159 376.352 343.425 377.602C340.691 378.852 337.741 379.73 334.577 380.238C331.452 380.746 327.917 381 323.972 381H301.296C298.132 381 295.749 380.531 294.148 379.594C292.546 378.617 291.491 377.27 290.984 375.551C290.515 373.793 290.28 371.527 290.28 368.754V305.766C290.28 302.016 291.12 299.301 292.8 297.621C294.48 295.941 297.195 295.102 300.945 295.102ZM307.683 308.871V367.172H320.866C323.757 367.172 326.023 367.094 327.663 366.938C329.304 366.781 331.003 366.391 332.761 365.766C334.519 365.141 336.042 364.262 337.331 363.129C343.152 358.207 346.062 349.73 346.062 337.699C346.062 329.223 344.773 322.875 342.195 318.656C339.655 314.438 336.511 311.762 332.761 310.629C329.011 309.457 324.48 308.871 319.167 308.871H307.683Z" fill="white"/>
</g>
<defs>
<clipPath id="clip0">
<rect width="512" height="512" fill="white"/>
</clipPath>
</defs>
</svg>
