<svg width="512" height="512" viewBox="0 0 512 512" fill="none" xmlns="http://www.w3.org/2000/svg">
<g clip-path="url(#clip0)">
<path d="M95.5 485V433L96 239.5V25C101.6 5.4 118.333 0.5 126 0.5H352L479 128V330V489C472.2 506.6 458.167 511.667 452 512C347 511.833 135.8 511.6 131 512C125 512.5 118 510.5 108 504.5C100 499.7 96.3333 489.5 95.5 485Z" fill="#E2E5E7"/>
<path d="M479 223V128L466 115H450.5L373.5 117L479 223Z" fill="#CAD1D8"/>
<path d="M352 98V0.5L478.5 128H384.5C360.1 126.4 352.667 107.333 352 98Z" fill="#B0B7BD"/>
<path d="M97 402V447.5L402 448C412.4 446.8 415.667 438.5 416 434.5V402H97Z" fill="#CAD1D8"/>
<rect x="32" y="240" width="384" height="192" rx="16" fill="#576D7E"/>
<path d="M125.118 305.062L144.571 362.66L164.083 304.652C165.098 301.605 165.86 299.496 166.368 298.324C166.876 297.113 167.716 296.039 168.887 295.102C170.059 294.125 171.661 293.637 173.692 293.637C175.177 293.637 176.544 294.008 177.794 294.75C179.083 295.492 180.079 296.488 180.782 297.738C181.524 298.949 181.895 300.18 181.895 301.43C181.895 302.289 181.778 303.227 181.544 304.242C181.309 305.219 181.016 306.195 180.665 307.172C180.313 308.109 179.962 309.086 179.61 310.102L158.809 366.234C158.067 368.383 157.325 370.434 156.583 372.387C155.841 374.301 154.981 376 154.005 377.484C153.028 378.93 151.72 380.121 150.079 381.059C148.477 381.996 146.505 382.465 144.161 382.465C141.817 382.465 139.825 381.996 138.184 381.059C136.583 380.16 135.274 378.969 134.259 377.484C133.282 375.961 132.423 374.242 131.68 372.328C130.938 370.414 130.196 368.383 129.454 366.234L109.005 310.57C108.653 309.555 108.282 308.559 107.891 307.582C107.54 306.605 107.227 305.551 106.954 304.418C106.72 303.285 106.602 302.328 106.602 301.547C106.602 299.555 107.403 297.738 109.005 296.098C110.606 294.457 112.618 293.637 115.04 293.637C118.009 293.637 120.098 294.555 121.309 296.391C122.559 298.188 123.829 301.078 125.118 305.062ZM274.363 353.871C274.363 356.605 273.68 359.574 272.312 362.777C270.984 365.941 268.875 369.066 265.984 372.152C263.094 375.199 259.402 377.68 254.91 379.594C250.418 381.508 245.184 382.465 239.207 382.465C234.676 382.465 230.555 382.035 226.844 381.176C223.133 380.316 219.754 378.988 216.707 377.191C213.699 375.355 210.926 372.953 208.387 369.984C206.121 367.289 204.188 364.281 202.586 360.961C200.984 357.602 199.773 354.027 198.953 350.238C198.172 346.449 197.781 342.426 197.781 338.168C197.781 331.254 198.777 325.062 200.77 319.594C202.801 314.125 205.691 309.457 209.441 305.59C213.191 301.684 217.586 298.715 222.625 296.684C227.664 294.652 233.035 293.637 238.738 293.637C245.691 293.637 251.883 295.023 257.312 297.797C262.742 300.57 266.902 304.008 269.793 308.109C272.684 312.172 274.129 316.02 274.129 319.652C274.129 321.645 273.426 323.402 272.02 324.926C270.613 326.449 268.914 327.211 266.922 327.211C264.695 327.211 263.016 326.684 261.883 325.629C260.789 324.574 259.559 322.758 258.191 320.18C255.926 315.922 253.25 312.738 250.164 310.629C247.117 308.52 243.348 307.465 238.855 307.465C231.707 307.465 226.004 310.18 221.746 315.609C217.527 321.039 215.418 328.754 215.418 338.754C215.418 345.434 216.355 351 218.23 355.453C220.105 359.867 222.762 363.168 226.199 365.355C229.637 367.543 233.66 368.637 238.27 368.637C243.27 368.637 247.488 367.406 250.926 364.945C254.402 362.445 257.02 358.793 258.777 353.988C259.52 351.723 260.438 349.887 261.531 348.48C262.625 347.035 264.383 346.312 266.805 346.312C268.875 346.312 270.652 347.035 272.137 348.48C273.621 349.926 274.363 351.723 274.363 353.871ZM349.136 308.52H314.859V330.492H343.511C346.167 330.492 348.14 331.098 349.429 332.309C350.757 333.48 351.421 335.062 351.421 337.055C351.421 339.047 350.757 340.629 349.429 341.801C348.101 342.973 346.128 343.559 343.511 343.559H314.859V371.859C314.859 375.453 314.038 378.129 312.398 379.887C310.796 381.605 308.726 382.465 306.187 382.465C303.609 382.465 301.499 381.586 299.859 379.828C298.257 378.07 297.456 375.414 297.456 371.859V305.766C297.456 303.266 297.827 301.234 298.57 299.672C299.312 298.07 300.464 296.918 302.027 296.215C303.628 295.473 305.659 295.102 308.12 295.102H349.136C351.909 295.102 353.96 295.727 355.288 296.977C356.655 298.188 357.339 299.789 357.339 301.781C357.339 303.812 356.655 305.453 355.288 306.703C353.96 307.914 351.909 308.52 349.136 308.52Z" fill="white"/>
</g>
<defs>
<clipPath id="clip0">
<rect width="512" height="512" fill="white"/>
</clipPath>
</defs>
</svg>
