<svg width="512" height="512" viewBox="0 0 512 512" fill="none" xmlns="http://www.w3.org/2000/svg">
<g clip-path="url(#clip0)">
<path d="M95.5 485V433L96 239.5V25C101.6 5.4 118.333 0.5 126 0.5H352L479 128V330V489C472.2 506.6 458.167 511.667 452 512C347 511.833 135.8 511.6 131 512C125 512.5 118 510.5 108 504.5C100 499.7 96.3333 489.5 95.5 485Z" fill="#E2E5E7"/>
<path d="M479 223V128L466 115H450.5L373.5 117L479 223Z" fill="#CAD1D8"/>
<path d="M352 98V0.5L478.5 128H384.5C360.1 126.4 352.667 107.333 352 98Z" fill="#B0B7BD"/>
<path d="M97 402V447.5L402 448C412.4 446.8 415.667 438.5 416 434.5V402H97Z" fill="#CAD1D8"/>
<rect x="32" y="240" width="384" height="192" rx="16" fill="#576D7E"/>
<path d="M56.2338 316.703L67.5815 350.302L78.9633 316.464C79.5557 314.687 80.0001 313.456 80.2963 312.772C80.5925 312.066 81.0824 311.439 81.766 310.893C82.4496 310.323 83.3839 310.038 84.5688 310.038C85.4346 310.038 86.2322 310.255 86.9613 310.688C87.7133 311.12 88.2943 311.701 88.7045 312.431C89.1374 313.137 89.3539 313.855 89.3539 314.584C89.3539 315.085 89.2856 315.632 89.1488 316.225C89.0121 316.794 88.8412 317.364 88.6361 317.934C88.4311 318.48 88.226 319.05 88.0209 319.643L75.8871 352.387C75.4542 353.64 75.0212 354.836 74.5883 355.976C74.1553 357.092 73.654 358.083 73.0844 358.949C72.5147 359.792 71.7514 360.487 70.7943 361.034C69.8601 361.581 68.7094 361.854 67.3422 361.854C65.975 361.854 64.8129 361.581 63.8559 361.034C62.9216 360.51 62.1583 359.815 61.5658 358.949C60.9962 358.061 60.4949 357.058 60.0619 355.941C59.629 354.825 59.196 353.64 58.7631 352.387L46.8344 319.916C46.6293 319.324 46.4128 318.743 46.185 318.173C45.9799 317.603 45.7976 316.988 45.6381 316.327C45.5014 315.666 45.433 315.108 45.433 314.652C45.433 313.49 45.9001 312.431 46.8344 311.474C47.7686 310.517 48.9421 310.038 50.3549 310.038C52.0867 310.038 53.3057 310.574 54.0121 311.645C54.7413 312.693 55.4818 314.379 56.2338 316.703ZM143.294 345.175C143.294 346.77 142.895 348.502 142.097 350.37C141.323 352.216 140.092 354.039 138.406 355.839C136.72 357.616 134.566 359.063 131.946 360.18C129.325 361.296 126.272 361.854 122.786 361.854C120.143 361.854 117.739 361.604 115.574 361.103C113.409 360.601 111.438 359.826 109.661 358.778C107.906 357.707 106.288 356.306 104.807 354.574C103.486 353.002 102.358 351.247 101.423 349.311C100.489 347.351 99.7828 345.266 99.3043 343.056C98.8486 340.845 98.6207 338.498 98.6207 336.015C98.6207 331.981 99.2018 328.37 100.364 325.18C101.549 321.99 103.235 319.267 105.422 317.011C107.61 314.732 110.173 313 113.113 311.815C116.052 310.631 119.185 310.038 122.512 310.038C126.568 310.038 130.18 310.847 133.347 312.465C136.515 314.083 138.941 316.088 140.628 318.48C142.314 320.85 143.157 323.095 143.157 325.214C143.157 326.376 142.747 327.401 141.926 328.29C141.106 329.179 140.115 329.623 138.953 329.623C137.654 329.623 136.674 329.315 136.013 328.7C135.375 328.085 134.657 327.025 133.86 325.521C132.538 323.038 130.977 321.181 129.177 319.95C127.4 318.72 125.201 318.104 122.581 318.104C118.411 318.104 115.084 319.688 112.6 322.855C110.139 326.023 108.909 330.523 108.909 336.356C108.909 340.253 109.456 343.5 110.549 346.098C111.643 348.673 113.193 350.598 115.198 351.874C117.203 353.15 119.55 353.788 122.239 353.788C125.156 353.788 127.616 353.07 129.622 351.635C131.65 350.176 133.176 348.046 134.202 345.243C134.635 343.922 135.17 342.851 135.808 342.03C136.446 341.187 137.472 340.766 138.884 340.766C140.092 340.766 141.129 341.187 141.995 342.03C142.861 342.873 143.294 343.922 143.294 345.175ZM155.124 351.259L166.335 334.887L156.901 320.326C156.013 318.913 155.34 317.706 154.885 316.703C154.452 315.678 154.235 314.698 154.235 313.764C154.235 312.807 154.657 311.952 155.5 311.2C156.366 310.425 157.414 310.038 158.644 310.038C160.057 310.038 161.151 310.46 161.926 311.303C162.723 312.123 163.817 313.661 165.207 315.917L172.726 328.085L180.759 315.917C181.419 314.892 181.978 314.014 182.433 313.285C182.912 312.556 183.368 311.952 183.801 311.474C184.234 310.995 184.712 310.642 185.236 310.414C185.783 310.163 186.41 310.038 187.116 310.038C188.392 310.038 189.429 310.425 190.226 311.2C191.047 311.952 191.457 312.852 191.457 313.9C191.457 315.427 190.58 317.501 188.825 320.121L178.947 334.887L189.577 351.259C190.534 352.694 191.229 353.891 191.662 354.848C192.095 355.782 192.311 356.671 192.311 357.514C192.311 358.311 192.118 359.04 191.73 359.701C191.343 360.362 190.796 360.886 190.09 361.273C189.383 361.661 188.586 361.854 187.697 361.854C186.74 361.854 185.931 361.649 185.27 361.239C184.61 360.852 184.074 360.362 183.664 359.77C183.254 359.177 182.49 358.026 181.374 356.317L172.555 342.44L163.19 356.728C162.461 357.867 161.937 358.664 161.618 359.12C161.322 359.576 160.957 360.02 160.524 360.453C160.091 360.886 159.579 361.228 158.986 361.479C158.394 361.729 157.699 361.854 156.901 361.854C155.671 361.854 154.645 361.479 153.825 360.727C153.027 359.975 152.629 358.881 152.629 357.445C152.629 355.759 153.46 353.697 155.124 351.259ZM223.282 341.483H213.985V355.668C213.985 357.696 213.507 359.234 212.55 360.282C211.593 361.33 210.385 361.854 208.927 361.854C207.4 361.854 206.17 361.342 205.235 360.316C204.301 359.268 203.834 357.742 203.834 355.736V317.113C203.834 314.88 204.347 313.285 205.372 312.328C206.397 311.371 208.027 310.893 210.26 310.893H223.282C227.133 310.893 230.095 311.189 232.169 311.781C234.22 312.351 235.986 313.297 237.467 314.618C238.971 315.94 240.11 317.558 240.885 319.472C241.66 321.386 242.047 323.539 242.047 325.932C242.047 331.036 240.475 334.91 237.33 337.553C234.186 340.173 229.503 341.483 223.282 341.483ZM220.821 318.515H213.985V333.827H220.821C223.214 333.827 225.208 333.576 226.803 333.075C228.421 332.574 229.651 331.754 230.494 330.614C231.337 329.475 231.759 327.982 231.759 326.137C231.759 323.926 231.109 322.126 229.811 320.736C228.352 319.255 225.356 318.515 220.821 318.515ZM268.711 339.569H265.156V355.668C265.156 357.787 264.689 359.348 263.755 360.351C262.821 361.353 261.602 361.854 260.098 361.854C258.48 361.854 257.227 361.33 256.338 360.282C255.449 359.234 255.005 357.696 255.005 355.668V317.113C255.005 314.926 255.495 313.342 256.475 312.362C257.455 311.382 259.038 310.893 261.226 310.893H277.735C280.013 310.893 281.961 310.995 283.579 311.2C285.197 311.382 286.655 311.77 287.954 312.362C289.527 313.023 290.917 313.969 292.124 315.199C293.332 316.43 294.243 317.865 294.859 319.506C295.497 321.124 295.816 322.844 295.816 324.667C295.816 328.404 294.756 331.389 292.637 333.622C290.541 335.855 287.35 337.439 283.067 338.373C284.867 339.33 286.587 340.743 288.228 342.611C289.868 344.48 291.327 346.474 292.603 348.593C293.902 350.689 294.904 352.592 295.611 354.301C296.34 355.987 296.704 357.149 296.704 357.787C296.704 358.448 296.488 359.109 296.055 359.77C295.645 360.408 295.075 360.909 294.346 361.273C293.617 361.661 292.774 361.854 291.817 361.854C290.677 361.854 289.72 361.581 288.946 361.034C288.171 360.51 287.499 359.838 286.929 359.018C286.382 358.197 285.63 356.99 284.673 355.395L280.606 348.627C279.147 346.143 277.837 344.252 276.675 342.953C275.536 341.654 274.374 340.766 273.189 340.287C272.004 339.809 270.511 339.569 268.711 339.569ZM274.522 318.515H265.156V332.289H274.248C276.686 332.289 278.737 332.084 280.401 331.674C282.064 331.241 283.329 330.523 284.195 329.521C285.083 328.495 285.528 327.094 285.528 325.316C285.528 323.926 285.174 322.707 284.468 321.659C283.762 320.588 282.782 319.791 281.529 319.267C280.344 318.765 278.008 318.515 274.522 318.515ZM332.05 310.038C337.246 310.038 341.7 311.098 345.414 313.217C349.151 315.313 351.977 318.31 353.891 322.206C355.805 326.08 356.762 330.637 356.762 335.878C356.762 339.752 356.238 343.272 355.19 346.439C354.142 349.607 352.569 352.353 350.473 354.677C348.377 357.001 345.802 358.778 342.748 360.009C339.695 361.239 336.197 361.854 332.255 361.854C328.336 361.854 324.827 361.228 321.728 359.975C318.629 358.699 316.043 356.91 313.969 354.608C311.896 352.307 310.323 349.538 309.252 346.303C308.204 343.067 307.68 339.569 307.68 335.81C307.68 331.959 308.227 328.427 309.321 325.214C310.437 322.001 312.044 319.267 314.14 317.011C316.236 314.755 318.788 313.035 321.796 311.85C324.804 310.642 328.222 310.038 332.05 310.038ZM346.474 335.81C346.474 332.141 345.882 328.962 344.697 326.273C343.512 323.585 341.814 321.557 339.604 320.189C337.416 318.799 334.899 318.104 332.05 318.104C330.022 318.104 328.142 318.492 326.411 319.267C324.702 320.019 323.22 321.124 321.967 322.582C320.737 324.04 319.757 325.909 319.028 328.188C318.321 330.443 317.968 332.984 317.968 335.81C317.968 338.658 318.321 341.233 319.028 343.534C319.757 345.836 320.771 347.75 322.07 349.276C323.391 350.78 324.895 351.908 326.581 352.66C328.29 353.412 330.159 353.788 332.187 353.788C334.785 353.788 337.166 353.139 339.33 351.84C341.518 350.541 343.25 348.536 344.526 345.824C345.825 343.113 346.474 339.774 346.474 335.81ZM399.115 316.19V342.44C399.115 344.719 399.012 346.656 398.807 348.251C398.625 349.846 398.192 351.464 397.508 353.104C396.369 355.862 394.489 358.015 391.869 359.564C389.248 361.091 386.058 361.854 382.298 361.854C378.903 361.854 376.066 361.319 373.788 360.248C371.532 359.177 369.709 357.445 368.319 355.053C367.59 353.777 366.997 352.307 366.542 350.644C366.086 348.98 365.858 347.396 365.858 345.893C365.858 344.298 366.302 343.078 367.191 342.235C368.08 341.392 369.219 340.971 370.609 340.971C371.953 340.971 372.967 341.358 373.651 342.133C374.335 342.908 374.859 344.115 375.223 345.756C375.611 347.51 375.998 348.912 376.385 349.96C376.773 351.008 377.422 351.908 378.334 352.66C379.245 353.412 380.544 353.788 382.23 353.788C386.719 353.788 388.963 350.495 388.963 343.91V316.19C388.963 314.14 389.408 312.602 390.296 311.576C391.208 310.551 392.438 310.038 393.988 310.038C395.56 310.038 396.802 310.551 397.713 311.576C398.648 312.602 399.115 314.14 399.115 316.19Z" fill="white"/>
</g>
<defs>
<clipPath id="clip0">
<rect width="512" height="512" fill="white"/>
</clipPath>
</defs>
</svg>
