<svg width="512" height="512" viewBox="0 0 512 512" fill="none" xmlns="http://www.w3.org/2000/svg">
<g clip-path="url(#clip0)">
<path d="M95.5 485V433L96 239.5V25C101.6 5.4 118.333 0.5 126 0.5H352L479 128V330V489C472.2 506.6 458.167 511.667 452 512C347 511.833 135.8 511.6 131 512C125 512.5 118 510.5 108 504.5C100 499.7 96.3333 489.5 95.5 485Z" fill="#E2E5E7"/>
<path d="M479 223V128L466 115H450.5L373.5 117L479 223Z" fill="#CAD1D8"/>
<path d="M352 98V0.5L478.5 128H384.5C360.1 126.4 352.667 107.333 352 98Z" fill="#B0B7BD"/>
<path d="M97 402V447.5L402 448C412.4 446.8 415.667 438.5 416 434.5V402H97Z" fill="#CAD1D8"/>
<rect x="32" y="240" width="384" height="192" rx="16" fill="#576D7E"/>
<path d="M115.098 305.062L134.552 362.66L154.063 304.652C155.079 301.605 155.841 299.496 156.348 298.324C156.856 297.113 157.696 296.039 158.868 295.102C160.04 294.125 161.641 293.637 163.673 293.637C165.157 293.637 166.524 294.008 167.774 294.75C169.063 295.492 170.059 296.488 170.762 297.738C171.505 298.949 171.876 300.18 171.876 301.43C171.876 302.289 171.759 303.227 171.524 304.242C171.29 305.219 170.997 306.195 170.645 307.172C170.294 308.109 169.942 309.086 169.591 310.102L148.79 366.234C148.048 368.383 147.305 370.434 146.563 372.387C145.821 374.301 144.962 376 143.985 377.484C143.009 378.93 141.7 380.121 140.059 381.059C138.458 381.996 136.485 382.465 134.141 382.465C131.798 382.465 129.805 381.996 128.165 381.059C126.563 380.16 125.255 378.969 124.239 377.484C123.262 375.961 122.403 374.242 121.661 372.328C120.919 370.414 120.177 368.383 119.434 366.234L98.9852 310.57C98.6336 309.555 98.2625 308.559 97.8719 307.582C97.5203 306.605 97.2078 305.551 96.9344 304.418C96.7 303.285 96.5828 302.328 96.5828 301.547C96.5828 299.555 97.3836 297.738 98.9852 296.098C100.587 294.457 102.598 293.637 105.02 293.637C107.989 293.637 110.079 294.555 111.29 296.391C112.54 298.188 113.809 301.078 115.098 305.062ZM228.953 293.637C237.859 293.637 245.496 295.453 251.863 299.086C258.27 302.68 263.113 307.816 266.395 314.496C269.676 321.137 271.316 328.949 271.316 337.934C271.316 344.574 270.418 350.609 268.621 356.039C266.824 361.469 264.129 366.176 260.535 370.16C256.941 374.145 252.527 377.191 247.293 379.301C242.059 381.41 236.062 382.465 229.305 382.465C222.586 382.465 216.57 381.391 211.258 379.242C205.945 377.055 201.512 373.988 197.957 370.043C194.402 366.098 191.707 361.352 189.871 355.805C188.074 350.258 187.176 344.262 187.176 337.816C187.176 331.215 188.113 325.16 189.988 319.652C191.902 314.145 194.656 309.457 198.25 305.59C201.844 301.723 206.219 298.773 211.375 296.742C216.531 294.672 222.391 293.637 228.953 293.637ZM253.68 337.816C253.68 331.527 252.664 326.078 250.633 321.469C248.602 316.859 245.691 313.383 241.902 311.039C238.152 308.656 233.836 307.465 228.953 307.465C225.477 307.465 222.254 308.129 219.285 309.457C216.355 310.746 213.816 312.641 211.668 315.141C209.559 317.641 207.879 320.844 206.629 324.75C205.418 328.617 204.812 332.973 204.812 337.816C204.812 342.699 205.418 347.113 206.629 351.059C207.879 355.004 209.617 358.285 211.844 360.902C214.109 363.48 216.688 365.414 219.578 366.703C222.508 367.992 225.711 368.637 229.188 368.637C233.641 368.637 237.723 367.523 241.434 365.297C245.184 363.07 248.152 359.633 250.34 354.984C252.566 350.336 253.68 344.613 253.68 337.816ZM330.679 381H304.429C300.64 381 297.925 380.16 296.284 378.48C294.683 376.762 293.882 374.047 293.882 370.336V305.766C293.882 301.977 294.702 299.262 296.343 297.621C298.023 295.941 300.718 295.102 304.429 295.102H332.261C336.363 295.102 339.917 295.355 342.925 295.863C345.933 296.371 348.628 297.348 351.011 298.793C353.042 300.004 354.839 301.547 356.402 303.422C357.964 305.258 359.155 307.309 359.976 309.574C360.796 311.801 361.206 314.164 361.206 316.664C361.206 325.258 356.909 331.547 348.316 335.531C359.605 339.125 365.249 346.117 365.249 356.508C365.249 361.312 364.019 365.648 361.558 369.516C359.097 373.344 355.777 376.176 351.597 378.012C348.98 379.105 345.972 379.887 342.573 380.355C339.175 380.785 335.21 381 330.679 381ZM329.39 342.855H311.284V367.934H329.976C341.734 367.934 347.613 363.695 347.613 355.219C347.613 350.883 346.089 347.738 343.042 345.785C339.995 343.832 335.445 342.855 329.39 342.855ZM311.284 308.168V330.375H327.222C331.558 330.375 334.898 329.965 337.241 329.145C339.624 328.324 341.441 326.762 342.691 324.457C343.667 322.816 344.155 320.98 344.155 318.949C344.155 314.613 342.613 311.742 339.527 310.336C336.441 308.891 331.734 308.168 325.405 308.168H311.284Z" fill="white"/>
</g>
<defs>
<clipPath id="clip0">
<rect width="512" height="512" fill="white"/>
</clipPath>
</defs>
</svg>
