<svg width="512" height="512" viewBox="0 0 512 512" fill="none" xmlns="http://www.w3.org/2000/svg">
<g clip-path="url(#clip0)">
<path d="M95.5 485V433L96 239.5V25C101.6 5.4 118.333 0.5 126 0.5H352L479 128V330V489C472.2 506.6 458.167 511.667 452 512C347 511.833 135.8 511.6 131 512C125 512.5 118 510.5 108 504.5C100 499.7 96.3333 489.5 95.5 485Z" fill="#E2E5E7"/>
<path d="M479 223V128L466 115H450.5L373.5 117L479 223Z" fill="#CAD1D8"/>
<path d="M352 98V0.5L478.5 128H384.5C360.1 126.4 352.667 107.333 352 98Z" fill="#B0B7BD"/>
<path d="M97 402V447.5L402 448C412.4 446.8 415.667 438.5 416 434.5V402H97Z" fill="#CAD1D8"/>
<rect x="32" y="240" width="384" height="192" rx="16" fill="#84BD5A"/>
<path d="M147.641 367.465L133.755 315.961L119.692 367.465C118.598 371.371 117.72 374.184 117.055 375.902C116.43 377.582 115.317 379.105 113.716 380.473C112.114 381.801 109.985 382.465 107.329 382.465C105.18 382.465 103.403 382.055 101.997 381.234C100.63 380.453 99.5164 379.34 98.657 377.895C97.7977 376.41 97.0945 374.672 96.5477 372.68C96.0008 370.648 95.5125 368.773 95.0828 367.055L80.7859 309.223C79.9266 305.863 79.4969 303.305 79.4969 301.547C79.4969 299.32 80.2781 297.445 81.8406 295.922C83.4031 294.398 85.3367 293.637 87.6414 293.637C90.8055 293.637 92.9344 294.652 94.0281 296.684C95.1219 298.715 96.0789 301.664 96.8992 305.531L108.149 355.688L120.747 308.754C121.684 305.16 122.524 302.426 123.266 300.551C124.009 298.676 125.22 297.055 126.899 295.688C128.579 294.32 130.864 293.637 133.755 293.637C136.684 293.637 138.95 294.359 140.552 295.805C142.192 297.211 143.325 298.754 143.95 300.434C144.575 302.113 145.415 304.887 146.47 308.754L159.184 355.688L170.434 305.531C170.981 302.914 171.489 300.863 171.958 299.379C172.466 297.895 173.305 296.566 174.477 295.395C175.688 294.223 177.427 293.637 179.692 293.637C181.958 293.637 183.872 294.398 185.434 295.922C187.036 297.406 187.837 299.281 187.837 301.547C187.837 303.148 187.407 305.707 186.548 309.223L172.251 367.055C171.274 370.961 170.454 373.832 169.79 375.668C169.165 377.465 168.071 379.047 166.509 380.414C164.985 381.781 162.817 382.465 160.005 382.465C157.348 382.465 155.22 381.801 153.618 380.473C152.016 379.145 150.903 377.66 150.278 376.02C149.653 374.34 148.774 371.488 147.641 367.465ZM262.199 371.273L258.098 360.492H223.176L219.074 371.508C217.473 375.805 216.105 378.715 214.973 380.238C213.84 381.723 211.984 382.465 209.406 382.465C207.219 382.465 205.285 381.664 203.605 380.062C201.926 378.461 201.086 376.645 201.086 374.613C201.086 373.441 201.281 372.23 201.672 370.98C202.062 369.73 202.707 367.992 203.605 365.766L225.578 309.984C226.203 308.383 226.945 306.469 227.805 304.242C228.703 301.977 229.641 300.102 230.617 298.617C231.633 297.133 232.941 295.941 234.543 295.043C236.184 294.105 238.195 293.637 240.578 293.637C243 293.637 245.012 294.105 246.613 295.043C248.254 295.941 249.562 297.113 250.539 298.559C251.555 300.004 252.395 301.566 253.059 303.246C253.762 304.887 254.641 307.094 255.695 309.867L278.137 365.297C279.895 369.516 280.773 372.582 280.773 374.496C280.773 376.488 279.934 378.324 278.254 380.004C276.613 381.645 274.621 382.465 272.277 382.465C270.91 382.465 269.738 382.211 268.762 381.703C267.785 381.234 266.965 380.59 266.301 379.77C265.637 378.91 264.914 377.621 264.133 375.902C263.391 374.145 262.746 372.602 262.199 371.273ZM227.746 347.426H253.41L240.461 311.977L227.746 347.426ZM308.027 305.062L327.48 362.66L346.991 304.652C348.007 301.605 348.769 299.496 349.277 298.324C349.784 297.113 350.624 296.039 351.796 295.102C352.968 294.125 354.57 293.637 356.601 293.637C358.085 293.637 359.452 294.008 360.702 294.75C361.991 295.492 362.988 296.488 363.691 297.738C364.433 298.949 364.804 300.18 364.804 301.43C364.804 302.289 364.687 303.227 364.452 304.242C364.218 305.219 363.925 306.195 363.573 307.172C363.222 308.109 362.87 309.086 362.519 310.102L341.718 366.234C340.976 368.383 340.234 370.434 339.491 372.387C338.749 374.301 337.89 376 336.913 377.484C335.937 378.93 334.628 380.121 332.988 381.059C331.386 381.996 329.413 382.465 327.07 382.465C324.726 382.465 322.734 381.996 321.093 381.059C319.491 380.16 318.183 378.969 317.167 377.484C316.191 375.961 315.331 374.242 314.589 372.328C313.847 370.414 313.105 368.383 312.363 366.234L291.913 310.57C291.562 309.555 291.191 308.559 290.8 307.582C290.448 306.605 290.136 305.551 289.863 304.418C289.628 303.285 289.511 302.328 289.511 301.547C289.511 299.555 290.312 297.738 291.913 296.098C293.515 294.457 295.527 293.637 297.948 293.637C300.917 293.637 303.007 294.555 304.218 296.391C305.468 298.188 306.738 301.078 308.027 305.062Z" fill="white"/>
</g>
<defs>
<clipPath id="clip0">
<rect width="512" height="512" fill="white"/>
</clipPath>
</defs>
</svg>
