<svg width="512" height="512" viewBox="0 0 512 512" fill="none" xmlns="http://www.w3.org/2000/svg">
<g clip-path="url(#clip0)">
<path d="M95.5 485V433L96 239.5V25C101.6 5.4 118.333 0.5 126 0.5H352L479 128V330V489C472.2 506.6 458.167 511.667 452 512C347 511.833 135.8 511.6 131 512C125 512.5 118 510.5 108 504.5C100 499.7 96.3333 489.5 95.5 485Z" fill="#E2E5E7"/>
<path d="M479 223V128L466 115H450.5L373.5 117L479 223Z" fill="#CAD1D8"/>
<path d="M352 98V0.5L478.5 128H384.5C360.1 126.4 352.667 107.333 352 98Z" fill="#B0B7BD"/>
<path d="M97 402V447.5L402 448C412.4 446.8 415.667 438.5 416 434.5V402H97Z" fill="#CAD1D8"/>
<rect x="32" y="240" width="384" height="192" rx="16" fill="#84BD5A"/>
<path d="M114.836 361.721L103.264 318.801L91.5449 361.721C90.6335 364.976 89.901 367.32 89.3477 368.752C88.8268 370.152 87.8991 371.421 86.5645 372.561C85.2298 373.667 83.4557 374.221 81.2422 374.221C79.4518 374.221 77.9707 373.879 76.7988 373.195C75.6595 372.544 74.7318 371.617 74.0156 370.412C73.2995 369.175 72.7135 367.727 72.2578 366.066C71.8021 364.374 71.3952 362.811 71.0371 361.379L59.123 313.186C58.4069 310.386 58.0488 308.254 58.0488 306.789C58.0488 304.934 58.6999 303.371 60.002 302.102C61.304 300.832 62.9154 300.197 64.8359 300.197C67.4727 300.197 69.2467 301.044 70.1582 302.736C71.0697 304.429 71.8672 306.887 72.5508 310.109L81.9258 351.906L92.4238 312.795C93.2051 309.8 93.9049 307.521 94.5234 305.959C95.1419 304.396 96.151 303.046 97.5508 301.906C98.9505 300.767 100.855 300.197 103.264 300.197C105.705 300.197 107.593 300.799 108.928 302.004C110.295 303.176 111.239 304.462 111.76 305.861C112.281 307.261 112.98 309.572 113.859 312.795L124.455 351.906L133.83 310.109C134.286 307.928 134.709 306.219 135.1 304.982C135.523 303.745 136.223 302.639 137.199 301.662C138.208 300.686 139.657 300.197 141.545 300.197C143.433 300.197 145.028 300.832 146.33 302.102C147.665 303.339 148.332 304.901 148.332 306.789C148.332 308.124 147.974 310.256 147.258 313.186L135.344 361.379C134.53 364.634 133.846 367.027 133.293 368.557C132.772 370.054 131.861 371.372 130.559 372.512C129.289 373.651 127.482 374.221 125.139 374.221C122.925 374.221 121.151 373.667 119.816 372.561C118.482 371.454 117.554 370.217 117.033 368.85C116.512 367.45 115.78 365.074 114.836 361.721ZM211.668 312.6H179.002V330.178H209.08C211.294 330.178 212.938 330.682 214.012 331.691C215.118 332.668 215.672 333.97 215.672 335.598C215.672 337.225 215.135 338.56 214.061 339.602C212.986 340.611 211.326 341.115 209.08 341.115H179.002V361.477H212.791C215.07 361.477 216.779 362.014 217.918 363.088C219.09 364.13 219.676 365.529 219.676 367.287C219.676 368.98 219.09 370.363 217.918 371.438C216.779 372.479 215.07 373 212.791 373H173.387C170.229 373 167.951 372.3 166.551 370.9C165.184 369.501 164.5 367.238 164.5 364.113V310.305C164.5 308.221 164.809 306.529 165.428 305.227C166.046 303.892 167.007 302.932 168.309 302.346C169.643 301.727 171.336 301.418 173.387 301.418H211.668C213.979 301.418 215.688 301.939 216.795 302.98C217.934 303.99 218.504 305.324 218.504 306.984C218.504 308.677 217.934 310.044 216.795 311.086C215.688 312.095 213.979 312.6 211.668 312.6ZM268.266 373H246.391C243.233 373 240.971 372.3 239.604 370.9C238.269 369.468 237.602 367.206 237.602 364.113V310.305C237.602 307.147 238.285 304.885 239.652 303.518C241.052 302.118 243.298 301.418 246.391 301.418H269.584C273.002 301.418 275.964 301.63 278.471 302.053C280.977 302.476 283.223 303.29 285.209 304.494C286.902 305.503 288.399 306.789 289.701 308.352C291.003 309.882 291.996 311.59 292.68 313.479C293.363 315.334 293.705 317.303 293.705 319.387C293.705 326.548 290.124 331.789 282.963 335.109C292.37 338.104 297.074 343.931 297.074 352.59C297.074 356.594 296.049 360.207 293.998 363.43C291.947 366.62 289.18 368.98 285.697 370.51C283.516 371.421 281.01 372.072 278.178 372.463C275.346 372.821 272.042 373 268.266 373ZM267.191 341.213H252.104V362.111H267.68C277.478 362.111 282.377 358.579 282.377 351.516C282.377 347.902 281.107 345.282 278.568 343.654C276.029 342.027 272.237 341.213 267.191 341.213ZM252.104 312.307V330.812H265.385C268.998 330.812 271.781 330.471 273.734 329.787C275.72 329.104 277.234 327.801 278.275 325.881C279.089 324.514 279.496 322.984 279.496 321.291C279.496 317.678 278.21 315.285 275.639 314.113C273.067 312.909 269.145 312.307 263.871 312.307H252.104ZM340.342 362.209L328.867 316.604V366.018C328.867 368.752 328.249 370.803 327.012 372.17C325.807 373.537 324.196 374.221 322.178 374.221C320.225 374.221 318.63 373.553 317.393 372.219C316.156 370.852 315.537 368.785 315.537 366.018V309.377C315.537 306.252 316.351 304.152 317.979 303.078C319.606 301.971 321.803 301.418 324.57 301.418H329.062C331.764 301.418 333.717 301.662 334.922 302.15C336.159 302.639 337.07 303.518 337.656 304.787C338.242 306.057 338.91 308.124 339.658 310.988L350.059 350.197L360.459 310.988C361.208 308.124 361.875 306.057 362.461 304.787C363.047 303.518 363.942 302.639 365.146 302.15C366.383 301.662 368.353 301.418 371.055 301.418H375.547C378.314 301.418 380.511 301.971 382.139 303.078C383.766 304.152 384.58 306.252 384.58 309.377V366.018C384.58 368.752 383.962 370.803 382.725 372.17C381.52 373.537 379.893 374.221 377.842 374.221C375.921 374.221 374.342 373.537 373.105 372.17C371.868 370.803 371.25 368.752 371.25 366.018V316.604L359.775 362.209C359.027 365.171 358.408 367.352 357.92 368.752C357.464 370.119 356.602 371.372 355.332 372.512C354.062 373.651 352.305 374.221 350.059 374.221C348.366 374.221 346.934 373.846 345.762 373.098C344.59 372.382 343.678 371.454 343.027 370.314C342.376 369.175 341.855 367.922 341.465 366.555C341.107 365.155 340.732 363.706 340.342 362.209Z" fill="white"/>
</g>
<defs>
<clipPath id="clip0">
<rect width="512" height="512" fill="white"/>
</clipPath>
</defs>
</svg>
