<svg width="512" height="512" viewBox="0 0 512 512" fill="none" xmlns="http://www.w3.org/2000/svg">
<g clip-path="url(#clip0)">
<path d="M95.5 485V433L96 239.5V25C101.6 5.4 118.333 0.5 126 0.5H352L479 128V330V489C472.2 506.6 458.167 511.667 452 512C347 511.833 135.8 511.6 131 512C125 512.5 118 510.5 108 504.5C100 499.7 96.3333 489.5 95.5 485Z" fill="#E2E5E7"/>
<path d="M479 223V128L466 115H450.5L373.5 117L479 223Z" fill="#CAD1D8"/>
<path d="M352 98V0.5L478.5 128H384.5C360.1 126.4 352.667 107.333 352 98Z" fill="#B0B7BD"/>
<path d="M97 402V447.5L402 448C412.4 446.8 415.667 438.5 416 434.5V402H97Z" fill="#CAD1D8"/>
<rect x="32" y="240" width="384" height="192" rx="16" fill="#84BD5A"/>
<path d="M136.423 367.465L122.536 315.961L108.473 367.465C107.38 371.371 106.501 374.184 105.837 375.902C105.212 377.582 104.098 379.105 102.497 380.473C100.895 381.801 98.7664 382.465 96.1102 382.465C93.9617 382.465 92.1844 382.055 90.7781 381.234C89.4109 380.453 88.2977 379.34 87.4383 377.895C86.5789 376.41 85.8758 374.672 85.3289 372.68C84.782 370.648 84.2937 368.773 83.8641 367.055L69.5672 309.223C68.7078 305.863 68.2781 303.305 68.2781 301.547C68.2781 299.32 69.0594 297.445 70.6219 295.922C72.1844 294.398 74.118 293.637 76.4227 293.637C79.5867 293.637 81.7156 294.652 82.8094 296.684C83.9031 298.715 84.8602 301.664 85.6805 305.531L96.9305 355.688L109.528 308.754C110.466 305.16 111.305 302.426 112.048 300.551C112.79 298.676 114.001 297.055 115.68 295.688C117.36 294.32 119.645 293.637 122.536 293.637C125.466 293.637 127.731 294.359 129.333 295.805C130.973 297.211 132.106 298.754 132.731 300.434C133.356 302.113 134.196 304.887 135.251 308.754L147.966 355.688L159.216 305.531C159.762 302.914 160.27 300.863 160.739 299.379C161.247 297.895 162.087 296.566 163.259 295.395C164.47 294.223 166.208 293.637 168.473 293.637C170.739 293.637 172.653 294.398 174.216 295.922C175.817 297.406 176.618 299.281 176.618 301.547C176.618 303.148 176.188 305.707 175.329 309.223L161.032 367.055C160.055 370.961 159.235 373.832 158.571 375.668C157.946 377.465 156.852 379.047 155.29 380.414C153.766 381.781 151.598 382.465 148.786 382.465C146.13 382.465 144.001 381.801 142.399 380.473C140.798 379.145 139.684 377.66 139.059 376.02C138.434 374.34 137.555 371.488 136.423 367.465ZM225.023 368.051L211.254 313.324V372.621C211.254 375.902 210.512 378.363 209.027 380.004C207.582 381.645 205.648 382.465 203.227 382.465C200.883 382.465 198.969 381.664 197.484 380.062C196 378.422 195.258 375.941 195.258 372.621V304.652C195.258 300.902 196.234 298.383 198.188 297.094C200.141 295.766 202.777 295.102 206.098 295.102H211.488C214.73 295.102 217.074 295.395 218.52 295.98C220.004 296.566 221.098 297.621 221.801 299.145C222.504 300.668 223.305 303.148 224.203 306.586L236.684 353.637L249.164 306.586C250.062 303.148 250.863 300.668 251.566 299.145C252.27 297.621 253.344 296.566 254.789 295.98C256.273 295.395 258.637 295.102 261.879 295.102H267.27C270.59 295.102 273.227 295.766 275.18 297.094C277.133 298.383 278.109 300.902 278.109 304.652V372.621C278.109 375.902 277.367 378.363 275.883 380.004C274.438 381.645 272.484 382.465 270.023 382.465C267.719 382.465 265.824 381.645 264.34 380.004C262.855 378.363 262.113 375.902 262.113 372.621V313.324L248.344 368.051C247.445 371.605 246.703 374.223 246.117 375.902C245.57 377.543 244.535 379.047 243.012 380.414C241.488 381.781 239.379 382.465 236.684 382.465C234.652 382.465 232.934 382.016 231.527 381.117C230.121 380.258 229.027 379.145 228.246 377.777C227.465 376.41 226.84 374.906 226.371 373.266C225.941 371.586 225.492 369.848 225.023 368.051ZM358.741 371.273L354.64 360.492H319.718L315.616 371.508C314.015 375.805 312.648 378.715 311.515 380.238C310.382 381.723 308.527 382.465 305.948 382.465C303.761 382.465 301.827 381.664 300.148 380.062C298.468 378.461 297.628 376.645 297.628 374.613C297.628 373.441 297.823 372.23 298.214 370.98C298.605 369.73 299.249 367.992 300.148 365.766L322.12 309.984C322.745 308.383 323.488 306.469 324.347 304.242C325.245 301.977 326.183 300.102 327.159 298.617C328.175 297.133 329.484 295.941 331.085 295.043C332.726 294.105 334.738 293.637 337.12 293.637C339.542 293.637 341.554 294.105 343.155 295.043C344.796 295.941 346.105 297.113 347.081 298.559C348.097 300.004 348.937 301.566 349.601 303.246C350.304 304.887 351.183 307.094 352.238 309.867L374.679 365.297C376.437 369.516 377.316 372.582 377.316 374.496C377.316 376.488 376.476 378.324 374.796 380.004C373.155 381.645 371.163 382.465 368.82 382.465C367.452 382.465 366.28 382.211 365.304 381.703C364.327 381.234 363.507 380.59 362.843 379.77C362.179 378.91 361.456 377.621 360.675 375.902C359.933 374.145 359.288 372.602 358.741 371.273ZM324.288 347.426H349.952L337.003 311.977L324.288 347.426Z" fill="white"/>
</g>
<defs>
<clipPath id="clip0">
<rect width="512" height="512" fill="white"/>
</clipPath>
</defs>
</svg>
