<svg width="512" height="512" viewBox="0 0 512 512" fill="none" xmlns="http://www.w3.org/2000/svg">
<g clip-path="url(#clip0)">
<path d="M95.5 485V433L96 239.5V25C101.6 5.4 118.333 0.5 126 0.5H352L479 128V330V489C472.2 506.6 458.167 511.667 452 512C347 511.833 135.8 511.6 131 512C125 512.5 118 510.5 108 504.5C100 499.7 96.3333 489.5 95.5 485Z" fill="#E2E5E7"/>
<path d="M479 223V128L466 115H450.5L373.5 117L479 223Z" fill="#CAD1D8"/>
<path d="M352 98V0.5L478.5 128H384.5C360.1 126.4 352.667 107.333 352 98Z" fill="#B0B7BD"/>
<path d="M97 402V447.5L402 448C412.4 446.8 415.667 438.5 416 434.5V402H97Z" fill="#CAD1D8"/>
<rect x="32" y="240" width="384" height="192" rx="16" fill="#84BD5A"/>
<path d="M147.298 367.465L133.411 315.961L119.348 367.465C118.255 371.371 117.376 374.184 116.712 375.902C116.087 377.582 114.973 379.105 113.372 380.473C111.77 381.801 109.641 382.465 106.985 382.465C104.837 382.465 103.059 382.055 101.653 381.234C100.286 380.453 99.1727 379.34 98.3133 377.895C97.4539 376.41 96.7508 374.672 96.2039 372.68C95.657 370.648 95.1687 368.773 94.7391 367.055L80.4422 309.223C79.5828 305.863 79.1531 303.305 79.1531 301.547C79.1531 299.32 79.9344 297.445 81.4969 295.922C83.0594 294.398 84.993 293.637 87.2977 293.637C90.4617 293.637 92.5906 294.652 93.6844 296.684C94.7781 298.715 95.7352 301.664 96.5555 305.531L107.805 355.688L120.403 308.754C121.341 305.16 122.18 302.426 122.923 300.551C123.665 298.676 124.876 297.055 126.555 295.688C128.235 294.32 130.52 293.637 133.411 293.637C136.341 293.637 138.606 294.359 140.208 295.805C141.848 297.211 142.981 298.754 143.606 300.434C144.231 302.113 145.071 304.887 146.126 308.754L158.841 355.688L170.091 305.531C170.637 302.914 171.145 300.863 171.614 299.379C172.122 297.895 172.962 296.566 174.134 295.395C175.345 294.223 177.083 293.637 179.348 293.637C181.614 293.637 183.528 294.398 185.091 295.922C186.692 297.406 187.493 299.281 187.493 301.547C187.493 303.148 187.063 305.707 186.204 309.223L171.907 367.055C170.93 370.961 170.11 373.832 169.446 375.668C168.821 377.465 167.727 379.047 166.165 380.414C164.641 381.781 162.473 382.465 159.661 382.465C157.005 382.465 154.876 381.801 153.274 380.473C151.673 379.145 150.559 377.66 149.934 376.02C149.309 374.34 148.43 371.488 147.298 367.465ZM235.898 368.051L222.129 313.324V372.621C222.129 375.902 221.387 378.363 219.902 380.004C218.457 381.645 216.523 382.465 214.102 382.465C211.758 382.465 209.844 381.664 208.359 380.062C206.875 378.422 206.133 375.941 206.133 372.621V304.652C206.133 300.902 207.109 298.383 209.062 297.094C211.016 295.766 213.652 295.102 216.973 295.102H222.363C225.605 295.102 227.949 295.395 229.395 295.98C230.879 296.566 231.973 297.621 232.676 299.145C233.379 300.668 234.18 303.148 235.078 306.586L247.559 353.637L260.039 306.586C260.938 303.148 261.738 300.668 262.441 299.145C263.145 297.621 264.219 296.566 265.664 295.98C267.148 295.395 269.512 295.102 272.754 295.102H278.145C281.465 295.102 284.102 295.766 286.055 297.094C288.008 298.383 288.984 300.902 288.984 304.652V372.621C288.984 375.902 288.242 378.363 286.758 380.004C285.312 381.645 283.359 382.465 280.898 382.465C278.594 382.465 276.699 381.645 275.215 380.004C273.73 378.363 272.988 375.902 272.988 372.621V313.324L259.219 368.051C258.32 371.605 257.578 374.223 256.992 375.902C256.445 377.543 255.41 379.047 253.887 380.414C252.363 381.781 250.254 382.465 247.559 382.465C245.527 382.465 243.809 382.016 242.402 381.117C240.996 380.258 239.902 379.145 239.121 377.777C238.34 376.41 237.715 374.906 237.246 373.266C236.816 371.586 236.367 369.848 235.898 368.051ZM327.37 305.062L346.823 362.66L366.335 304.652C367.351 301.605 368.113 299.496 368.62 298.324C369.128 297.113 369.968 296.039 371.14 295.102C372.312 294.125 373.913 293.637 375.945 293.637C377.429 293.637 378.796 294.008 380.046 294.75C381.335 295.492 382.331 296.488 383.034 297.738C383.777 298.949 384.148 300.18 384.148 301.43C384.148 302.289 384.03 303.227 383.796 304.242C383.562 305.219 383.269 306.195 382.917 307.172C382.566 308.109 382.214 309.086 381.863 310.102L361.062 366.234C360.32 368.383 359.577 370.434 358.835 372.387C358.093 374.301 357.234 376 356.257 377.484C355.28 378.93 353.972 380.121 352.331 381.059C350.73 381.996 348.757 382.465 346.413 382.465C344.07 382.465 342.077 381.996 340.437 381.059C338.835 380.16 337.527 378.969 336.511 377.484C335.534 375.961 334.675 374.242 333.933 372.328C333.191 370.414 332.448 368.383 331.706 366.234L311.257 310.57C310.905 309.555 310.534 308.559 310.144 307.582C309.792 306.605 309.48 305.551 309.206 304.418C308.972 303.285 308.855 302.328 308.855 301.547C308.855 299.555 309.655 297.738 311.257 296.098C312.859 294.457 314.87 293.637 317.292 293.637C320.261 293.637 322.351 294.555 323.562 296.391C324.812 298.188 326.081 301.078 327.37 305.062Z" fill="white"/>
</g>
<defs>
<clipPath id="clip0">
<rect width="512" height="512" fill="white"/>
</clipPath>
</defs>
</svg>
