<svg width="512" height="512" viewBox="0 0 512 512" fill="none" xmlns="http://www.w3.org/2000/svg">
<g clip-path="url(#clip0)">
<path d="M95.5 485V433L96 239.5V25C101.6 5.4 118.333 0.5 126 0.5H352L479 128V330V489C472.2 506.6 458.167 511.667 452 512C347 511.833 135.8 511.6 131 512C125 512.5 118 510.5 108 504.5C100 499.7 96.3333 489.5 95.5 485Z" fill="#E2E5E7"/>
<path d="M479 223V128L466 115H450.5L373.5 117L479 223Z" fill="#CAD1D8"/>
<path d="M352 98V0.5L478.5 128H384.5C360.1 126.4 352.667 107.333 352 98Z" fill="#B0B7BD"/>
<path d="M97 402V447.5L402 448C412.4 446.8 415.667 438.5 416 434.5V402H97Z" fill="#CAD1D8"/>
<rect x="32" y="240" width="384" height="192" rx="16" fill="#84BD5A"/>
<path d="M144.653 367.465L130.766 315.961L116.704 367.465C115.61 371.371 114.731 374.184 114.067 375.902C113.442 377.582 112.329 379.105 110.727 380.473C109.126 381.801 106.997 382.465 104.341 382.465C102.192 382.465 100.415 382.055 99.0086 381.234C97.6414 380.453 96.5281 379.34 95.6687 377.895C94.8094 376.41 94.1062 374.672 93.5594 372.68C93.0125 370.648 92.5242 368.773 92.0945 367.055L77.7977 309.223C76.9383 305.863 76.5086 303.305 76.5086 301.547C76.5086 299.32 77.2898 297.445 78.8523 295.922C80.4148 294.398 82.3484 293.637 84.6531 293.637C87.8172 293.637 89.9461 294.652 91.0398 296.684C92.1336 298.715 93.0906 301.664 93.9109 305.531L105.161 355.688L117.759 308.754C118.696 305.16 119.536 302.426 120.278 300.551C121.02 298.676 122.231 297.055 123.911 295.688C125.591 294.32 127.876 293.637 130.766 293.637C133.696 293.637 135.962 294.359 137.563 295.805C139.204 297.211 140.337 298.754 140.962 300.434C141.587 302.113 142.427 304.887 143.481 308.754L156.196 355.688L167.446 305.531C167.993 302.914 168.501 300.863 168.97 299.379C169.477 297.895 170.317 296.566 171.489 295.395C172.7 294.223 174.438 293.637 176.704 293.637C178.97 293.637 180.884 294.398 182.446 295.922C184.048 297.406 184.848 299.281 184.848 301.547C184.848 303.148 184.419 305.707 183.559 309.223L169.262 367.055C168.286 370.961 167.466 373.832 166.802 375.668C166.177 377.465 165.083 379.047 163.52 380.414C161.997 381.781 159.829 382.465 157.016 382.465C154.36 382.465 152.231 381.801 150.63 380.473C149.028 379.145 147.915 377.66 147.29 376.02C146.665 374.34 145.786 371.488 144.653 367.465ZM237.59 347.543H221.652V371.859C221.652 375.336 220.832 377.973 219.191 379.77C217.551 381.566 215.48 382.465 212.98 382.465C210.363 382.465 208.254 381.586 206.652 379.828C205.051 378.031 204.25 375.414 204.25 371.977V305.766C204.25 301.938 205.129 299.203 206.887 297.562C208.645 295.922 211.438 295.102 215.266 295.102H237.59C244.191 295.102 249.27 295.609 252.824 296.625C256.34 297.602 259.367 299.223 261.906 301.488C264.484 303.754 266.438 306.527 267.766 309.809C269.094 313.09 269.758 316.781 269.758 320.883C269.758 329.633 267.062 336.273 261.672 340.805C256.281 345.297 248.254 347.543 237.59 347.543ZM233.371 308.168H221.652V334.418H233.371C237.473 334.418 240.891 333.988 243.625 333.129C246.398 332.27 248.508 330.863 249.953 328.91C251.398 326.957 252.121 324.398 252.121 321.234C252.121 317.445 251.008 314.359 248.781 311.977C246.281 309.438 241.145 308.168 233.371 308.168ZM302.87 295.102H325.546C331.445 295.102 336.503 295.648 340.722 296.742C344.941 297.836 348.769 299.887 352.206 302.895C361.152 310.551 365.624 322.191 365.624 337.816C365.624 342.973 365.175 347.68 364.277 351.938C363.378 356.195 361.991 360.043 360.116 363.48C358.241 366.879 355.839 369.926 352.909 372.621C350.605 374.691 348.085 376.352 345.351 377.602C342.616 378.852 339.667 379.73 336.503 380.238C333.378 380.746 329.843 381 325.898 381H303.222C300.058 381 297.675 380.531 296.073 379.594C294.472 378.617 293.417 377.27 292.909 375.551C292.441 373.793 292.206 371.527 292.206 368.754V305.766C292.206 302.016 293.046 299.301 294.726 297.621C296.405 295.941 299.12 295.102 302.87 295.102ZM309.609 308.871V367.172H322.792C325.683 367.172 327.948 367.094 329.589 366.938C331.23 366.781 332.929 366.391 334.687 365.766C336.445 365.141 337.968 364.262 339.257 363.129C345.077 358.207 347.988 349.73 347.988 337.699C347.988 329.223 346.698 322.875 344.12 318.656C341.581 314.438 338.437 311.762 334.687 310.629C330.937 309.457 326.405 308.871 321.093 308.871H309.609Z" fill="white"/>
</g>
<defs>
<clipPath id="clip0">
<rect width="512" height="512" fill="white"/>
</clipPath>
</defs>
</svg>
