<svg width="512" height="512" viewBox="0 0 512 512" fill="none" xmlns="http://www.w3.org/2000/svg">
<g clip-path="url(#clip0)">
<path d="M95.5 485V433L96 239.5V25C101.6 5.4 118.333 0.5 126 0.5H352L479 128V330V489C472.2 506.6 458.167 511.667 452 512C347 511.833 135.8 511.6 131 512C125 512.5 118 510.5 108 504.5C100 499.7 96.3333 489.5 95.5 485Z" fill="#E2E5E7"/>
<path d="M479 223V128L466 115H450.5L373.5 117L479 223Z" fill="#CAD1D8"/>
<path d="M352 98V0.5L478.5 128H384.5C360.1 126.4 352.667 107.333 352 98Z" fill="#B0B7BD"/>
<path d="M97 402V447.5L402 448C412.4 446.8 415.667 438.5 416 434.5V402H97Z" fill="#CAD1D8"/>
<rect x="32" y="240" width="384" height="192" rx="16" fill="#84BD5A"/>
<path d="M149.548 367.465L135.661 315.961L121.598 367.465C120.505 371.371 119.626 374.184 118.962 375.902C118.337 377.582 117.223 379.105 115.622 380.473C114.02 381.801 111.891 382.465 109.235 382.465C107.087 382.465 105.309 382.055 103.903 381.234C102.536 380.453 101.423 379.34 100.563 377.895C99.7039 376.41 99.0008 374.672 98.4539 372.68C97.907 370.648 97.4187 368.773 96.9891 367.055L82.6922 309.223C81.8328 305.863 81.4031 303.305 81.4031 301.547C81.4031 299.32 82.1844 297.445 83.7469 295.922C85.3094 294.398 87.243 293.637 89.5477 293.637C92.7117 293.637 94.8406 294.652 95.9344 296.684C97.0281 298.715 97.9852 301.664 98.8055 305.531L110.055 355.688L122.653 308.754C123.591 305.16 124.43 302.426 125.173 300.551C125.915 298.676 127.126 297.055 128.805 295.688C130.485 294.32 132.77 293.637 135.661 293.637C138.591 293.637 140.856 294.359 142.458 295.805C144.098 297.211 145.231 298.754 145.856 300.434C146.481 302.113 147.321 304.887 148.376 308.754L161.091 355.688L172.341 305.531C172.887 302.914 173.395 300.863 173.864 299.379C174.372 297.895 175.212 296.566 176.384 295.395C177.595 294.223 179.333 293.637 181.598 293.637C183.864 293.637 185.778 294.398 187.341 295.922C188.942 297.406 189.743 299.281 189.743 301.547C189.743 303.148 189.313 305.707 188.454 309.223L174.157 367.055C173.18 370.961 172.36 373.832 171.696 375.668C171.071 377.465 169.977 379.047 168.415 380.414C166.891 381.781 164.723 382.465 161.911 382.465C159.255 382.465 157.126 381.801 155.524 380.473C153.923 379.145 152.809 377.66 152.184 376.02C151.559 374.34 150.68 371.488 149.548 367.465ZM242.484 347.543H226.547V371.859C226.547 375.336 225.727 377.973 224.086 379.77C222.445 381.566 220.375 382.465 217.875 382.465C215.258 382.465 213.148 381.586 211.547 379.828C209.945 378.031 209.145 375.414 209.145 371.977V305.766C209.145 301.938 210.023 299.203 211.781 297.562C213.539 295.922 216.332 295.102 220.16 295.102H242.484C249.086 295.102 254.164 295.609 257.719 296.625C261.234 297.602 264.262 299.223 266.801 301.488C269.379 303.754 271.332 306.527 272.66 309.809C273.988 313.09 274.652 316.781 274.652 320.883C274.652 329.633 271.957 336.273 266.566 340.805C261.176 345.297 253.148 347.543 242.484 347.543ZM238.266 308.168H226.547V334.418H238.266C242.367 334.418 245.785 333.988 248.52 333.129C251.293 332.27 253.402 330.863 254.848 328.91C256.293 326.957 257.016 324.398 257.016 321.234C257.016 317.445 255.902 314.359 253.676 311.977C251.176 309.438 246.039 308.168 238.266 308.168ZM362.257 355.219C362.257 360.414 360.909 365.082 358.214 369.223C355.558 373.363 351.652 376.605 346.495 378.949C341.339 381.293 335.226 382.465 328.155 382.465C319.679 382.465 312.687 380.863 307.179 377.66C303.273 375.355 300.089 372.289 297.628 368.461C295.206 364.594 293.995 360.844 293.995 357.211C293.995 355.102 294.718 353.305 296.163 351.82C297.648 350.297 299.523 349.535 301.788 349.535C303.624 349.535 305.167 350.121 306.417 351.293C307.706 352.465 308.8 354.203 309.698 356.508C310.792 359.242 311.964 361.527 313.214 363.363C314.503 365.199 316.3 366.723 318.605 367.934C320.909 369.105 323.937 369.691 327.687 369.691C332.843 369.691 337.023 368.5 340.226 366.117C343.468 363.695 345.089 360.688 345.089 357.094C345.089 354.242 344.21 351.938 342.452 350.18C340.734 348.383 338.488 347.016 335.714 346.078C332.98 345.141 329.308 344.145 324.698 343.09C318.527 341.645 313.351 339.965 309.171 338.051C305.03 336.098 301.73 333.461 299.269 330.141C296.847 326.781 295.636 322.621 295.636 317.66C295.636 312.934 296.925 308.734 299.503 305.062C302.081 301.391 305.812 298.578 310.695 296.625C315.577 294.633 321.32 293.637 327.921 293.637C333.195 293.637 337.745 294.301 341.573 295.629C345.441 296.918 348.644 298.656 351.183 300.844C353.722 302.992 355.577 305.258 356.749 307.641C357.921 310.023 358.507 312.348 358.507 314.613C358.507 316.684 357.765 318.559 356.28 320.238C354.835 321.879 353.019 322.699 350.831 322.699C348.839 322.699 347.316 322.211 346.261 321.234C345.245 320.219 344.132 318.578 342.921 316.312C341.359 313.07 339.484 310.551 337.296 308.754C335.109 306.918 331.593 306 326.749 306C322.257 306 318.624 306.996 315.851 308.988C313.116 310.941 311.749 313.305 311.749 316.078C311.749 317.797 312.218 319.281 313.155 320.531C314.093 321.781 315.382 322.855 317.023 323.754C318.663 324.652 320.323 325.355 322.003 325.863C323.683 326.371 326.456 327.113 330.323 328.09C335.167 329.223 339.542 330.473 343.448 331.84C347.394 333.207 350.734 334.867 353.468 336.82C356.241 338.773 358.39 341.254 359.913 344.262C361.476 347.23 362.257 350.883 362.257 355.219Z" fill="white"/>
</g>
<defs>
<clipPath id="clip0">
<rect width="512" height="512" fill="white"/>
</clipPath>
</defs>
</svg>
