<svg width="512" height="512" viewBox="0 0 512 512" fill="none" xmlns="http://www.w3.org/2000/svg">
<g clip-path="url(#clip0)">
<path d="M95.5 485V433L96 239.5V25C101.6 5.4 118.333 0.5 126 0.5H352L479 128V330V489C472.2 506.6 458.167 511.667 452 512C347 511.833 135.8 511.6 131 512C125 512.5 118 510.5 108 504.5C100 499.7 96.3333 489.5 95.5 485Z" fill="#E2E5E7"/>
<path d="M479 223V128L466 115H450.5L373.5 117L479 223Z" fill="#CAD1D8"/>
<path d="M352 98V0.5L478.5 128H384.5C360.1 126.4 352.667 107.333 352 98Z" fill="#B0B7BD"/>
<path d="M97 402V447.5L402 448C412.4 446.8 415.667 438.5 416 434.5V402H97Z" fill="#CAD1D8"/>
<rect x="32" y="240" width="384" height="192" rx="16" fill="#84BD5A"/>
<path d="M153.298 367.465L139.411 315.961L125.348 367.465C124.255 371.371 123.376 374.184 122.712 375.902C122.087 377.582 120.973 379.105 119.372 380.473C117.77 381.801 115.641 382.465 112.985 382.465C110.837 382.465 109.059 382.055 107.653 381.234C106.286 380.453 105.173 379.34 104.313 377.895C103.454 376.41 102.751 374.672 102.204 372.68C101.657 370.648 101.169 368.773 100.739 367.055L86.4422 309.223C85.5828 305.863 85.1531 303.305 85.1531 301.547C85.1531 299.32 85.9344 297.445 87.4969 295.922C89.0594 294.398 90.993 293.637 93.2977 293.637C96.4617 293.637 98.5906 294.652 99.6844 296.684C100.778 298.715 101.735 301.664 102.555 305.531L113.805 355.688L126.403 308.754C127.341 305.16 128.18 302.426 128.923 300.551C129.665 298.676 130.876 297.055 132.555 295.688C134.235 294.32 136.52 293.637 139.411 293.637C142.341 293.637 144.606 294.359 146.208 295.805C147.848 297.211 148.981 298.754 149.606 300.434C150.231 302.113 151.071 304.887 152.126 308.754L164.841 355.688L176.091 305.531C176.637 302.914 177.145 300.863 177.614 299.379C178.122 297.895 178.962 296.566 180.134 295.395C181.345 294.223 183.083 293.637 185.348 293.637C187.614 293.637 189.528 294.398 191.091 295.922C192.692 297.406 193.493 299.281 193.493 301.547C193.493 303.148 193.063 305.707 192.204 309.223L177.907 367.055C176.93 370.961 176.11 373.832 175.446 375.668C174.821 377.465 173.727 379.047 172.165 380.414C170.641 381.781 168.473 382.465 165.661 382.465C163.005 382.465 160.876 381.801 159.274 380.473C157.673 379.145 156.559 377.66 155.934 376.02C155.309 374.34 154.43 371.488 153.298 367.465ZM278.168 355.219C278.168 360.414 276.82 365.082 274.125 369.223C271.469 373.363 267.562 376.605 262.406 378.949C257.25 381.293 251.137 382.465 244.066 382.465C235.59 382.465 228.598 380.863 223.09 377.66C219.184 375.355 216 372.289 213.539 368.461C211.117 364.594 209.906 360.844 209.906 357.211C209.906 355.102 210.629 353.305 212.074 351.82C213.559 350.297 215.434 349.535 217.699 349.535C219.535 349.535 221.078 350.121 222.328 351.293C223.617 352.465 224.711 354.203 225.609 356.508C226.703 359.242 227.875 361.527 229.125 363.363C230.414 365.199 232.211 366.723 234.516 367.934C236.82 369.105 239.848 369.691 243.598 369.691C248.754 369.691 252.934 368.5 256.137 366.117C259.379 363.695 261 360.688 261 357.094C261 354.242 260.121 351.938 258.363 350.18C256.645 348.383 254.398 347.016 251.625 346.078C248.891 345.141 245.219 344.145 240.609 343.09C234.438 341.645 229.262 339.965 225.082 338.051C220.941 336.098 217.641 333.461 215.18 330.141C212.758 326.781 211.547 322.621 211.547 317.66C211.547 312.934 212.836 308.734 215.414 305.062C217.992 301.391 221.723 298.578 226.605 296.625C231.488 294.633 237.23 293.637 243.832 293.637C249.105 293.637 253.656 294.301 257.484 295.629C261.352 296.918 264.555 298.656 267.094 300.844C269.633 302.992 271.488 305.258 272.66 307.641C273.832 310.023 274.418 312.348 274.418 314.613C274.418 316.684 273.676 318.559 272.191 320.238C270.746 321.879 268.93 322.699 266.742 322.699C264.75 322.699 263.227 322.211 262.172 321.234C261.156 320.219 260.043 318.578 258.832 316.312C257.27 313.07 255.395 310.551 253.207 308.754C251.02 306.918 247.504 306 242.66 306C238.168 306 234.535 306.996 231.762 308.988C229.027 310.941 227.66 313.305 227.66 316.078C227.66 317.797 228.129 319.281 229.066 320.531C230.004 321.781 231.293 322.855 232.934 323.754C234.574 324.652 236.234 325.355 237.914 325.863C239.594 326.371 242.367 327.113 246.234 328.09C251.078 329.223 255.453 330.473 259.359 331.84C263.305 333.207 266.645 334.867 269.379 336.82C272.152 338.773 274.301 341.254 275.824 344.262C277.387 347.23 278.168 350.883 278.168 355.219ZM352.062 308.52H317.784V330.492H346.437C349.093 330.492 351.066 331.098 352.355 332.309C353.683 333.48 354.347 335.062 354.347 337.055C354.347 339.047 353.683 340.629 352.355 341.801C351.027 342.973 349.054 343.559 346.437 343.559H317.784V371.859C317.784 375.453 316.964 378.129 315.323 379.887C313.722 381.605 311.652 382.465 309.113 382.465C306.534 382.465 304.425 381.586 302.784 379.828C301.183 378.07 300.382 375.414 300.382 371.859V305.766C300.382 303.266 300.753 301.234 301.495 299.672C302.238 298.07 303.39 296.918 304.952 296.215C306.554 295.473 308.585 295.102 311.046 295.102H352.062C354.835 295.102 356.886 295.727 358.214 296.977C359.581 298.188 360.265 299.789 360.265 301.781C360.265 303.812 359.581 305.453 358.214 306.703C356.886 307.914 354.835 308.52 352.062 308.52Z" fill="white"/>
</g>
<defs>
<clipPath id="clip0">
<rect width="512" height="512" fill="white"/>
</clipPath>
</defs>
</svg>
