<svg width="512" height="512" viewBox="0 0 512 512" fill="none" xmlns="http://www.w3.org/2000/svg">
<g clip-path="url(#clip0)">
<path d="M95.5 485V433L96 239.5V25C101.6 5.4 118.333 0.5 126 0.5H352L479 128V330V489C472.2 506.6 458.167 511.667 452 512C347 511.833 135.8 511.6 131 512C125 512.5 118 510.5 108 504.5C100 499.7 96.3333 489.5 95.5 485Z" fill="#E2E5E7"/>
<path d="M479 223V128L466 115H450.5L373.5 117L479 223Z" fill="#CAD1D8"/>
<path d="M352 98V0.5L478.5 128H384.5C360.1 126.4 352.667 107.333 352 98Z" fill="#B0B7BD"/>
<path d="M97 402V447.5L402 448C412.4 446.8 415.667 438.5 416 434.5V402H97Z" fill="#CAD1D8"/>
<rect x="32" y="240" width="384" height="192" rx="16" fill="#50BEE8"/>
<path d="M76.5375 307.867L89.35 289.156L78.5688 272.516C77.5531 270.901 76.7849 269.521 76.2641 268.375C75.7693 267.203 75.5219 266.083 75.5219 265.016C75.5219 263.922 76.0037 262.945 76.9672 262.086C77.9568 261.201 79.1547 260.758 80.5609 260.758C82.1755 260.758 83.4255 261.24 84.3109 262.203C85.2224 263.141 86.4724 264.898 88.0609 267.477L96.6547 281.383L105.834 267.477C106.59 266.305 107.228 265.302 107.748 264.469C108.295 263.635 108.816 262.945 109.311 262.398C109.806 261.852 110.353 261.448 110.952 261.188C111.577 260.901 112.293 260.758 113.1 260.758C114.558 260.758 115.743 261.201 116.655 262.086C117.592 262.945 118.061 263.974 118.061 265.172C118.061 266.917 117.058 269.286 115.053 272.281L103.764 289.156L115.913 307.867C117.006 309.508 117.801 310.875 118.295 311.969C118.79 313.036 119.038 314.052 119.038 315.016C119.038 315.927 118.816 316.76 118.373 317.516C117.931 318.271 117.306 318.87 116.498 319.312C115.691 319.755 114.78 319.977 113.764 319.977C112.67 319.977 111.746 319.742 110.991 319.273C110.235 318.831 109.623 318.271 109.155 317.594C108.686 316.917 107.814 315.602 106.538 313.648L96.4594 297.789L85.7563 314.117C84.9229 315.419 84.324 316.331 83.9594 316.852C83.6208 317.372 83.2042 317.88 82.7094 318.375C82.2146 318.87 81.6287 319.26 80.9516 319.547C80.2745 319.833 79.4802 319.977 78.5688 319.977C77.1625 319.977 75.9906 319.547 75.0531 318.688C74.1417 317.828 73.6859 316.578 73.6859 314.938C73.6859 313.01 74.6365 310.654 76.5375 307.867ZM178.886 300.914C178.886 302.737 178.43 304.716 177.519 306.852C176.633 308.961 175.227 311.044 173.3 313.102C171.373 315.133 168.912 316.786 165.917 318.062C162.922 319.339 159.433 319.977 155.448 319.977C152.428 319.977 149.68 319.69 147.206 319.117C144.732 318.544 142.48 317.659 140.448 316.461C138.443 315.237 136.594 313.635 134.902 311.656C133.391 309.859 132.102 307.854 131.034 305.641C129.967 303.401 129.159 301.018 128.613 298.492C128.092 295.966 127.831 293.284 127.831 290.445C127.831 285.836 128.495 281.708 129.823 278.062C131.178 274.417 133.105 271.305 135.605 268.727C138.105 266.122 141.034 264.143 144.394 262.789C147.753 261.435 151.334 260.758 155.136 260.758C159.771 260.758 163.899 261.682 167.519 263.531C171.139 265.38 173.912 267.672 175.839 270.406C177.766 273.115 178.73 275.68 178.73 278.102C178.73 279.43 178.261 280.602 177.323 281.617C176.386 282.633 175.253 283.141 173.925 283.141C172.441 283.141 171.321 282.789 170.566 282.086C169.836 281.383 169.016 280.172 168.105 278.453C166.594 275.615 164.81 273.492 162.753 272.086C160.722 270.68 158.209 269.977 155.214 269.977C150.448 269.977 146.646 271.786 143.808 275.406C140.995 279.026 139.589 284.169 139.589 290.836C139.589 295.289 140.214 299 141.464 301.969C142.714 304.911 144.485 307.112 146.777 308.57C149.068 310.029 151.751 310.758 154.823 310.758C158.157 310.758 160.969 309.938 163.261 308.297C165.579 306.63 167.323 304.195 168.495 300.992C168.99 299.482 169.602 298.258 170.331 297.32C171.06 296.357 172.232 295.875 173.847 295.875C175.227 295.875 176.412 296.357 177.402 297.32C178.391 298.284 178.886 299.482 178.886 300.914ZM219.711 260.758C225.648 260.758 230.74 261.969 234.984 264.391C239.255 266.786 242.484 270.211 244.672 274.664C246.859 279.091 247.953 284.299 247.953 290.289C247.953 294.716 247.354 298.74 246.156 302.359C244.958 305.979 243.161 309.117 240.766 311.773C238.37 314.43 235.427 316.461 231.938 317.867C228.448 319.273 224.451 319.977 219.945 319.977C215.466 319.977 211.456 319.26 207.914 317.828C204.372 316.37 201.417 314.326 199.047 311.695C196.677 309.065 194.88 305.901 193.656 302.203C192.458 298.505 191.859 294.508 191.859 290.211C191.859 285.81 192.484 281.773 193.734 278.102C195.01 274.43 196.846 271.305 199.242 268.727C201.638 266.148 204.555 264.182 207.992 262.828C211.43 261.448 215.336 260.758 219.711 260.758ZM236.195 290.211C236.195 286.018 235.518 282.385 234.164 279.312C232.81 276.24 230.87 273.922 228.344 272.359C225.844 270.771 222.966 269.977 219.711 269.977C217.393 269.977 215.245 270.419 213.266 271.305C211.313 272.164 209.62 273.427 208.188 275.094C206.781 276.76 205.661 278.896 204.828 281.5C204.021 284.078 203.617 286.982 203.617 290.211C203.617 293.466 204.021 296.409 204.828 299.039C205.661 301.669 206.82 303.857 208.305 305.602C209.815 307.32 211.534 308.609 213.461 309.469C215.414 310.328 217.549 310.758 219.867 310.758C222.836 310.758 225.557 310.016 228.031 308.531C230.531 307.047 232.51 304.755 233.969 301.656C235.453 298.557 236.195 294.742 236.195 290.211ZM270.263 261.734H285.38C289.312 261.734 292.684 262.099 295.497 262.828C298.309 263.557 300.861 264.924 303.153 266.93C309.117 272.034 312.098 279.794 312.098 290.211C312.098 293.648 311.799 296.786 311.2 299.625C310.601 302.464 309.677 305.029 308.427 307.32C307.177 309.586 305.575 311.617 303.622 313.414C302.085 314.794 300.406 315.901 298.583 316.734C296.76 317.568 294.794 318.154 292.684 318.492C290.601 318.831 288.244 319 285.614 319H270.497C268.388 319 266.799 318.688 265.731 318.062C264.664 317.411 263.96 316.513 263.622 315.367C263.309 314.195 263.153 312.685 263.153 310.836V268.844C263.153 266.344 263.713 264.534 264.833 263.414C265.953 262.294 267.763 261.734 270.263 261.734ZM274.755 270.914V309.781H283.544C285.471 309.781 286.981 309.729 288.075 309.625C289.169 309.521 290.302 309.26 291.473 308.844C292.645 308.427 293.661 307.841 294.52 307.086C298.401 303.805 300.341 298.154 300.341 290.133C300.341 284.482 299.481 280.25 297.763 277.438C296.07 274.625 293.973 272.841 291.473 272.086C288.973 271.305 285.953 270.914 282.411 270.914H274.755ZM365.228 270.68H339.095V284.742H363.158C364.929 284.742 366.244 285.146 367.103 285.953C367.989 286.734 368.431 287.776 368.431 289.078C368.431 290.38 368.002 291.448 367.142 292.281C366.283 293.089 364.955 293.492 363.158 293.492H339.095V309.781H366.127C367.949 309.781 369.317 310.211 370.228 311.07C371.166 311.904 371.634 313.023 371.634 314.43C371.634 315.784 371.166 316.891 370.228 317.75C369.317 318.583 367.949 319 366.127 319H334.603C332.077 319 330.254 318.44 329.134 317.32C328.041 316.201 327.494 314.391 327.494 311.891V268.844C327.494 267.177 327.741 265.823 328.236 264.781C328.731 263.714 329.499 262.945 330.541 262.477C331.608 261.982 332.963 261.734 334.603 261.734H365.228C367.077 261.734 368.444 262.151 369.33 262.984C370.241 263.792 370.697 264.859 370.697 266.188C370.697 267.542 370.241 268.635 369.33 269.469C368.444 270.276 367.077 270.68 365.228 270.68ZM134.098 389.695H123.473V405.906C123.473 408.224 122.927 409.982 121.833 411.18C120.739 412.378 119.359 412.977 117.692 412.977C115.947 412.977 114.541 412.391 113.473 411.219C112.406 410.021 111.872 408.276 111.872 405.984V361.844C111.872 359.292 112.458 357.469 113.63 356.375C114.802 355.281 116.664 354.734 119.216 354.734H134.098C138.499 354.734 141.885 355.073 144.255 355.75C146.598 356.401 148.617 357.482 150.309 358.992C152.028 360.503 153.33 362.352 154.216 364.539C155.101 366.727 155.544 369.188 155.544 371.922C155.544 377.755 153.747 382.182 150.153 385.203C146.559 388.198 141.208 389.695 134.098 389.695ZM131.286 363.445H123.473V380.945H131.286C134.02 380.945 136.299 380.659 138.122 380.086C139.971 379.513 141.377 378.576 142.341 377.273C143.304 375.971 143.786 374.266 143.786 372.156C143.786 369.63 143.044 367.573 141.559 365.984C139.893 364.292 136.468 363.445 131.286 363.445ZM186.017 387.508H181.955V405.906C181.955 408.328 181.421 410.112 180.353 411.258C179.285 412.404 177.892 412.977 176.173 412.977C174.324 412.977 172.892 412.378 171.877 411.18C170.861 409.982 170.353 408.224 170.353 405.906V361.844C170.353 359.344 170.913 357.534 172.033 356.414C173.153 355.294 174.962 354.734 177.462 354.734H196.33C198.934 354.734 201.16 354.852 203.009 355.086C204.858 355.294 206.525 355.737 208.009 356.414C209.806 357.169 211.395 358.25 212.775 359.656C214.155 361.062 215.197 362.703 215.9 364.578C216.629 366.427 216.994 368.393 216.994 370.477C216.994 374.747 215.783 378.159 213.361 380.711C210.965 383.263 207.319 385.073 202.423 386.141C204.481 387.234 206.447 388.849 208.322 390.984C210.197 393.12 211.864 395.398 213.322 397.82C214.806 400.216 215.952 402.391 216.759 404.344C217.593 406.271 218.009 407.599 218.009 408.328C218.009 409.083 217.762 409.839 217.267 410.594C216.798 411.323 216.147 411.896 215.314 412.312C214.481 412.755 213.517 412.977 212.423 412.977C211.121 412.977 210.028 412.664 209.142 412.039C208.257 411.44 207.489 410.672 206.837 409.734C206.212 408.797 205.353 407.417 204.259 405.594L199.611 397.859C197.944 395.021 196.447 392.859 195.119 391.375C193.817 389.891 192.489 388.875 191.134 388.328C189.78 387.781 188.074 387.508 186.017 387.508ZM192.658 363.445H181.955V379.188H192.345C195.132 379.188 197.476 378.953 199.377 378.484C201.278 377.99 202.723 377.169 203.712 376.023C204.728 374.852 205.236 373.25 205.236 371.219C205.236 369.63 204.832 368.237 204.025 367.039C203.218 365.815 202.098 364.904 200.666 364.305C199.311 363.732 196.642 363.445 192.658 363.445ZM258.405 353.758C264.342 353.758 269.433 354.969 273.678 357.391C277.949 359.786 281.178 363.211 283.366 367.664C285.553 372.091 286.647 377.299 286.647 383.289C286.647 387.716 286.048 391.74 284.85 395.359C283.652 398.979 281.855 402.117 279.459 404.773C277.064 407.43 274.121 409.461 270.631 410.867C267.142 412.273 263.144 412.977 258.639 412.977C254.16 412.977 250.149 412.26 246.608 410.828C243.066 409.37 240.11 407.326 237.741 404.695C235.371 402.065 233.574 398.901 232.35 395.203C231.152 391.505 230.553 387.508 230.553 383.211C230.553 378.81 231.178 374.773 232.428 371.102C233.704 367.43 235.54 364.305 237.936 361.727C240.332 359.148 243.248 357.182 246.686 355.828C250.123 354.448 254.03 353.758 258.405 353.758ZM274.889 383.211C274.889 379.018 274.212 375.385 272.858 372.312C271.504 369.24 269.564 366.922 267.038 365.359C264.538 363.771 261.66 362.977 258.405 362.977C256.087 362.977 253.939 363.419 251.959 364.305C250.006 365.164 248.314 366.427 246.881 368.094C245.475 369.76 244.355 371.896 243.522 374.5C242.715 377.078 242.311 379.982 242.311 383.211C242.311 386.466 242.715 389.409 243.522 392.039C244.355 394.669 245.514 396.857 246.998 398.602C248.509 400.32 250.228 401.609 252.155 402.469C254.108 403.328 256.243 403.758 258.561 403.758C261.53 403.758 264.251 403.016 266.725 401.531C269.225 400.047 271.204 397.755 272.663 394.656C274.147 391.557 274.889 387.742 274.889 383.211ZM335.05 360.789V390.789C335.05 393.393 334.933 395.607 334.698 397.43C334.49 399.253 333.995 401.102 333.214 402.977C331.912 406.128 329.764 408.589 326.769 410.359C323.774 412.104 320.128 412.977 315.831 412.977C311.951 412.977 308.709 412.365 306.105 411.141C303.527 409.917 301.443 407.938 299.855 405.203C299.021 403.745 298.344 402.065 297.823 400.164C297.303 398.263 297.042 396.453 297.042 394.734C297.042 392.911 297.55 391.518 298.566 390.555C299.581 389.591 300.883 389.109 302.472 389.109C304.008 389.109 305.167 389.552 305.948 390.438C306.73 391.323 307.329 392.703 307.745 394.578C308.188 396.583 308.631 398.185 309.073 399.383C309.516 400.581 310.258 401.609 311.3 402.469C312.342 403.328 313.826 403.758 315.753 403.758C320.883 403.758 323.448 399.995 323.448 392.469V360.789C323.448 358.445 323.956 356.688 324.972 355.516C326.014 354.344 327.42 353.758 329.191 353.758C330.988 353.758 332.407 354.344 333.448 355.516C334.516 356.688 335.05 358.445 335.05 360.789Z" fill="white"/>
</g>
<defs>
<clipPath id="clip0">
<rect width="512" height="512" fill="white"/>
</clipPath>
</defs>
</svg>
