<svg width="512" height="512" viewBox="0 0 512 512" fill="none" xmlns="http://www.w3.org/2000/svg">
<g clip-path="url(#clip0)">
<path d="M95.5 485V433L96 239.5V25C101.6 5.4 118.333 0.5 126 0.5H352L479 128V330V489C472.2 506.6 458.167 511.667 452 512C347 511.833 135.8 511.6 131 512C125 512.5 118 510.5 108 504.5C100 499.7 96.3333 489.5 95.5 485Z" fill="#E2E5E7"/>
<path d="M479 223V128L466 115H450.5L373.5 117L479 223Z" fill="#CAD1D8"/>
<path d="M352 98V0.5L478.5 128H384.5C360.1 126.4 352.667 107.333 352 98Z" fill="#B0B7BD"/>
<path d="M97 402V447.5L402 448C412.4 446.8 415.667 438.5 416 434.5V402H97Z" fill="#CAD1D8"/>
<rect x="32" y="240" width="384" height="192" rx="16" fill="#50BEE8"/>
<path d="M53.296 357.78L68.5108 335.561L55.7081 315.8C54.502 313.882 53.5898 312.243 52.9713 310.883C52.3837 309.491 52.0899 308.161 52.0899 306.894C52.0899 305.595 52.662 304.435 53.8062 303.415C54.9814 302.363 56.4039 301.837 58.0738 301.837C59.9911 301.837 61.4755 302.41 62.5269 303.554C63.6093 304.667 65.0937 306.754 66.9801 309.816L77.1852 326.33L88.086 309.816C88.9828 308.424 89.7405 307.234 90.359 306.244C91.0084 305.255 91.6269 304.435 92.2144 303.786C92.802 303.136 93.4514 302.657 94.1627 302.348C94.9049 302.007 95.7553 301.837 96.714 301.837C98.4457 301.837 99.8528 302.363 100.935 303.415C102.048 304.435 102.605 305.657 102.605 307.079C102.605 309.151 101.414 311.965 99.0333 315.521L85.6275 335.561L100.054 357.78C101.353 359.728 102.296 361.352 102.883 362.65C103.471 363.918 103.765 365.124 103.765 366.269C103.765 367.351 103.502 368.34 102.976 369.237C102.45 370.134 101.708 370.845 100.75 371.371C99.7909 371.897 98.7086 372.16 97.5025 372.16C96.2037 372.16 95.1059 371.881 94.2091 371.325C93.3123 370.799 92.5855 370.134 92.0289 369.33C91.4723 368.526 90.4363 366.964 88.921 364.645L76.9532 345.812L64.2433 365.202C63.2537 366.748 62.5424 367.83 62.1095 368.449C61.7074 369.067 61.2127 369.67 60.6251 370.258C60.0375 370.845 59.3417 371.309 58.5377 371.649C57.7337 371.99 56.7905 372.16 55.7081 372.16C54.0382 372.16 52.6466 371.649 51.5333 370.629C50.4509 369.608 49.9098 368.124 49.9098 366.176C49.9098 363.887 51.0385 361.089 53.296 357.78ZM133.272 310.187V329.669H163.006V310.187C163.006 307.404 163.625 305.316 164.862 303.925C166.13 302.533 167.784 301.837 169.825 301.837C171.897 301.837 173.567 302.533 174.835 303.925C176.134 305.285 176.783 307.373 176.783 310.187V363.764C176.783 366.578 176.134 368.681 174.835 370.072C173.536 371.464 171.866 372.16 169.825 372.16C167.753 372.16 166.099 371.464 164.862 370.072C163.625 368.65 163.006 366.547 163.006 363.764V340.895H133.272V363.764C133.272 366.578 132.623 368.681 131.324 370.072C130.025 371.464 128.355 372.16 126.314 372.16C124.242 372.16 122.588 371.464 121.351 370.072C120.114 368.65 119.495 366.547 119.495 363.764V310.187C119.495 307.404 120.098 305.316 121.304 303.925C122.541 302.533 124.211 301.837 126.314 301.837C128.386 301.837 130.056 302.533 131.324 303.925C132.623 305.285 133.272 307.373 133.272 310.187ZM241.916 314.362H226.886V363.764C226.886 366.609 226.252 368.727 224.984 370.119C223.716 371.479 222.077 372.16 220.067 372.16C218.026 372.16 216.356 371.464 215.058 370.072C213.79 368.681 213.156 366.578 213.156 363.764V314.362H198.126C195.776 314.362 194.029 313.852 192.885 312.831C191.741 311.78 191.168 310.403 191.168 308.703C191.168 306.94 191.756 305.548 192.931 304.528C194.137 303.507 195.869 302.997 198.126 302.997H241.916C244.297 302.997 246.059 303.523 247.204 304.574C248.379 305.626 248.966 307.002 248.966 308.703C248.966 310.403 248.379 311.78 247.204 312.831C246.028 313.852 244.266 314.362 241.916 314.362ZM286.267 360.749L275.366 317.423V364.367C275.366 366.964 274.778 368.913 273.603 370.211C272.459 371.51 270.928 372.16 269.011 372.16C267.155 372.16 265.64 371.526 264.465 370.258C263.29 368.959 262.702 366.995 262.702 364.367V310.558C262.702 307.589 263.475 305.595 265.022 304.574C266.568 303.523 268.655 302.997 271.284 302.997H275.551C278.118 302.997 279.974 303.229 281.118 303.693C282.293 304.157 283.159 304.992 283.716 306.198C284.272 307.404 284.906 309.368 285.617 312.089L295.498 349.337L305.378 312.089C306.089 309.368 306.723 307.404 307.28 306.198C307.837 304.992 308.687 304.157 309.831 303.693C311.006 303.229 312.877 302.997 315.444 302.997H319.712C322.34 302.997 324.428 303.523 325.974 304.574C327.52 305.595 328.293 307.589 328.293 310.558V364.367C328.293 366.964 327.706 368.913 326.53 370.211C325.386 371.51 323.84 372.16 321.892 372.16C320.067 372.16 318.567 371.51 317.392 370.211C316.217 368.913 315.63 366.964 315.63 364.367V317.423L304.729 360.749C304.017 363.563 303.43 365.635 302.966 366.964C302.533 368.263 301.714 369.454 300.508 370.536C299.301 371.618 297.632 372.16 295.498 372.16C293.89 372.16 292.529 371.804 291.416 371.093C290.302 370.412 289.437 369.531 288.818 368.449C288.2 367.366 287.705 366.176 287.334 364.877C286.994 363.547 286.638 362.171 286.267 360.749ZM362.115 310.187V359.682H390.039C392.266 359.682 393.967 360.223 395.142 361.305C396.348 362.388 396.951 363.748 396.951 365.387C396.951 367.057 396.364 368.418 395.188 369.469C394.013 370.49 392.297 371 390.039 371H356.78C353.781 371 351.616 370.335 350.286 369.005C348.987 367.676 348.338 365.526 348.338 362.558V310.187C348.338 307.404 348.956 305.316 350.193 303.925C351.461 302.533 353.116 301.837 355.157 301.837C357.229 301.837 358.899 302.533 360.166 303.925C361.465 305.285 362.115 307.373 362.115 310.187Z" fill="white"/>
</g>
<defs>
<clipPath id="clip0">
<rect width="512" height="512" fill="white"/>
</clipPath>
</defs>
</svg>
