<svg width="512" height="512" viewBox="0 0 512 512" fill="none" xmlns="http://www.w3.org/2000/svg">
<g clip-path="url(#clip0)">
<path d="M95.5 485V433L96 239.5V25C101.6 5.4 118.333 0.5 126 0.5H352L479 128V330V489C472.2 506.6 458.167 511.667 452 512C347 511.833 135.8 511.6 131 512C125 512.5 118 510.5 108 504.5C100 499.7 96.3333 489.5 95.5 485Z" fill="#E2E5E7"/>
<path d="M479 223V128L466 115H450.5L373.5 117L479 223Z" fill="#CAD1D8"/>
<path d="M352 98V0.5L478.5 128H384.5C360.1 126.4 352.667 107.333 352 98Z" fill="#B0B7BD"/>
<path d="M97 402V447.5L402 448C412.4 446.8 415.667 438.5 416 434.5V402H97Z" fill="#CAD1D8"/>
<rect x="32" y="240" width="384" height="192" rx="16" fill="#50BEE8"/>
<path d="M105.688 364.301L124.907 336.234L108.735 311.273C107.212 308.852 106.059 306.781 105.278 305.062C104.536 303.305 104.165 301.625 104.165 300.023C104.165 298.383 104.887 296.918 106.333 295.629C107.817 294.301 109.614 293.637 111.723 293.637C114.145 293.637 116.02 294.359 117.348 295.805C118.716 297.211 120.591 299.848 122.973 303.715L135.864 324.574L149.634 303.715C150.766 301.957 151.723 300.453 152.505 299.203C153.325 297.953 154.106 296.918 154.848 296.098C155.591 295.277 156.411 294.672 157.309 294.281C158.247 293.852 159.321 293.637 160.532 293.637C162.72 293.637 164.497 294.301 165.864 295.629C167.27 296.918 167.973 298.461 167.973 300.258C167.973 302.875 166.47 306.43 163.462 310.922L146.528 336.234L164.751 364.301C166.391 366.762 167.583 368.812 168.325 370.453C169.067 372.055 169.438 373.578 169.438 375.023C169.438 376.391 169.106 377.641 168.442 378.773C167.778 379.906 166.841 380.805 165.63 381.469C164.419 382.133 163.052 382.465 161.528 382.465C159.887 382.465 158.501 382.113 157.368 381.41C156.235 380.746 155.317 379.906 154.614 378.891C153.911 377.875 152.602 375.902 150.688 372.973L135.571 349.184L119.516 373.676C118.266 375.629 117.368 376.996 116.821 377.777C116.313 378.559 115.688 379.32 114.946 380.062C114.204 380.805 113.325 381.391 112.309 381.82C111.294 382.25 110.102 382.465 108.735 382.465C106.626 382.465 104.868 381.82 103.462 380.531C102.095 379.242 101.411 377.367 101.411 374.906C101.411 372.016 102.837 368.48 105.688 364.301ZM206.242 304.184V366.703H241.516C244.328 366.703 246.477 367.387 247.961 368.754C249.484 370.121 250.246 371.84 250.246 373.91C250.246 376.02 249.504 377.738 248.02 379.066C246.535 380.355 244.367 381 241.516 381H199.504C195.715 381 192.98 380.16 191.301 378.48C189.66 376.801 188.84 374.086 188.84 370.336V304.184C188.84 300.668 189.621 298.031 191.184 296.273C192.785 294.516 194.875 293.637 197.453 293.637C200.07 293.637 202.18 294.516 203.781 296.273C205.422 297.992 206.242 300.629 206.242 304.184ZM292.909 344.262H286.816V371.859C286.816 375.492 286.015 378.168 284.413 379.887C282.812 381.605 280.722 382.465 278.144 382.465C275.37 382.465 273.222 381.566 271.698 379.77C270.175 377.973 269.413 375.336 269.413 371.859V305.766C269.413 302.016 270.253 299.301 271.933 297.621C273.613 295.941 276.327 295.102 280.077 295.102H308.378C312.284 295.102 315.624 295.277 318.398 295.629C321.171 295.941 323.671 296.605 325.898 297.621C328.593 298.754 330.976 300.375 333.046 302.484C335.116 304.594 336.679 307.055 337.734 309.867C338.827 312.641 339.374 315.59 339.374 318.715C339.374 325.121 337.558 330.238 333.925 334.066C330.331 337.895 324.863 340.609 317.519 342.211C320.605 343.852 323.554 346.273 326.366 349.477C329.179 352.68 331.679 356.098 333.866 359.73C336.093 363.324 337.812 366.586 339.023 369.516C340.273 372.406 340.898 374.398 340.898 375.492C340.898 376.625 340.527 377.758 339.784 378.891C339.081 379.984 338.105 380.844 336.855 381.469C335.605 382.133 334.159 382.465 332.519 382.465C330.566 382.465 328.925 381.996 327.597 381.059C326.269 380.16 325.116 379.008 324.14 377.602C323.202 376.195 321.913 374.125 320.273 371.391L313.3 359.789C310.8 355.531 308.554 352.289 306.562 350.062C304.609 347.836 302.616 346.312 300.585 345.492C298.554 344.672 295.995 344.262 292.909 344.262ZM302.87 308.168H286.816V331.781H302.402C306.581 331.781 310.097 331.43 312.948 330.727C315.8 329.984 317.968 328.754 319.452 327.035C320.976 325.277 321.738 322.875 321.738 319.828C321.738 317.445 321.132 315.355 319.921 313.559C318.71 311.723 317.03 310.355 314.882 309.457C312.851 308.598 308.847 308.168 302.87 308.168Z" fill="white"/>
</g>
<defs>
<clipPath id="clip0">
<rect width="512" height="512" fill="white"/>
</clipPath>
</defs>
</svg>
