<svg width="512" height="512" viewBox="0 0 512 512" fill="none" xmlns="http://www.w3.org/2000/svg">
<g clip-path="url(#clip0)">
<path d="M95.5 485V433L96 239.5V25C101.6 5.4 118.333 0.5 126 0.5H352L479 128V330V489C472.2 506.6 458.167 511.667 452 512C347 511.833 135.8 511.6 131 512C125 512.5 118 510.5 108 504.5C100 499.7 96.3333 489.5 95.5 485Z" fill="#E2E5E7"/>
<path d="M479 223V128L466 115H450.5L373.5 117L479 223Z" fill="#CAD1D8"/>
<path d="M352 98V0.5L478.5 128H384.5C360.1 126.4 352.667 107.333 352 98Z" fill="#B0B7BD"/>
<path d="M97 402V447.5L402 448C412.4 446.8 415.667 438.5 416 434.5V402H97Z" fill="#CAD1D8"/>
<rect x="32" y="240" width="384" height="192" rx="16" fill="#50BEE8"/>
<path d="M111.637 364.301L130.856 336.234L114.684 311.273C113.161 308.852 112.009 306.781 111.227 305.062C110.485 303.305 110.114 301.625 110.114 300.023C110.114 298.383 110.837 296.918 112.282 295.629C113.766 294.301 115.563 293.637 117.673 293.637C120.095 293.637 121.97 294.359 123.298 295.805C124.665 297.211 126.54 299.848 128.923 303.715L141.813 324.574L155.583 303.715C156.716 301.957 157.673 300.453 158.454 299.203C159.274 297.953 160.055 296.918 160.798 296.098C161.54 295.277 162.36 294.672 163.259 294.281C164.196 293.852 165.27 293.637 166.481 293.637C168.669 293.637 170.446 294.301 171.813 295.629C173.22 296.918 173.923 298.461 173.923 300.258C173.923 302.875 172.419 306.43 169.411 310.922L152.477 336.234L170.7 364.301C172.341 366.762 173.532 368.812 174.274 370.453C175.016 372.055 175.387 373.578 175.387 375.023C175.387 376.391 175.055 377.641 174.391 378.773C173.727 379.906 172.79 380.805 171.579 381.469C170.368 382.133 169.001 382.465 167.477 382.465C165.837 382.465 164.45 382.113 163.317 381.41C162.184 380.746 161.266 379.906 160.563 378.891C159.86 377.875 158.552 375.902 156.637 372.973L141.52 349.184L125.466 373.676C124.216 375.629 123.317 376.996 122.77 377.777C122.262 378.559 121.637 379.32 120.895 380.062C120.153 380.805 119.274 381.391 118.259 381.82C117.243 382.25 116.052 382.465 114.684 382.465C112.575 382.465 110.817 381.82 109.411 380.531C108.044 379.242 107.36 377.367 107.36 374.906C107.36 372.016 108.786 368.48 111.637 364.301ZM212.191 304.184V366.703H247.465C250.277 366.703 252.426 367.387 253.91 368.754C255.434 370.121 256.195 371.84 256.195 373.91C256.195 376.02 255.453 377.738 253.969 379.066C252.484 380.355 250.316 381 247.465 381H205.453C201.664 381 198.93 380.16 197.25 378.48C195.609 376.801 194.789 374.086 194.789 370.336V304.184C194.789 300.668 195.57 298.031 197.133 296.273C198.734 294.516 200.824 293.637 203.402 293.637C206.02 293.637 208.129 294.516 209.73 296.273C211.371 297.992 212.191 300.629 212.191 304.184ZM336.183 355.219C336.183 360.414 334.835 365.082 332.14 369.223C329.484 373.363 325.577 376.605 320.421 378.949C315.265 381.293 309.152 382.465 302.081 382.465C293.605 382.465 286.613 380.863 281.105 377.66C277.198 375.355 274.015 372.289 271.554 368.461C269.132 364.594 267.921 360.844 267.921 357.211C267.921 355.102 268.644 353.305 270.089 351.82C271.573 350.297 273.448 349.535 275.714 349.535C277.55 349.535 279.093 350.121 280.343 351.293C281.632 352.465 282.726 354.203 283.624 356.508C284.718 359.242 285.89 361.527 287.14 363.363C288.429 365.199 290.226 366.723 292.53 367.934C294.835 369.105 297.863 369.691 301.613 369.691C306.769 369.691 310.948 368.5 314.152 366.117C317.394 363.695 319.015 360.688 319.015 357.094C319.015 354.242 318.136 351.938 316.378 350.18C314.659 348.383 312.413 347.016 309.64 346.078C306.905 345.141 303.234 344.145 298.624 343.09C292.452 341.645 287.277 339.965 283.097 338.051C278.956 336.098 275.655 333.461 273.195 330.141C270.773 326.781 269.562 322.621 269.562 317.66C269.562 312.934 270.851 308.734 273.429 305.062C276.007 301.391 279.738 298.578 284.62 296.625C289.503 294.633 295.245 293.637 301.847 293.637C307.12 293.637 311.671 294.301 315.499 295.629C319.366 296.918 322.57 298.656 325.109 300.844C327.648 302.992 329.503 305.258 330.675 307.641C331.847 310.023 332.433 312.348 332.433 314.613C332.433 316.684 331.691 318.559 330.206 320.238C328.761 321.879 326.945 322.699 324.757 322.699C322.765 322.699 321.241 322.211 320.187 321.234C319.171 320.219 318.058 318.578 316.847 316.312C315.284 313.07 313.409 310.551 311.222 308.754C309.034 306.918 305.519 306 300.675 306C296.183 306 292.55 306.996 289.777 308.988C287.042 310.941 285.675 313.305 285.675 316.078C285.675 317.797 286.144 319.281 287.081 320.531C288.019 321.781 289.308 322.855 290.948 323.754C292.589 324.652 294.249 325.355 295.929 325.863C297.609 326.371 300.382 327.113 304.249 328.09C309.093 329.223 313.468 330.473 317.374 331.84C321.32 333.207 324.659 334.867 327.394 336.82C330.167 338.773 332.316 341.254 333.839 344.262C335.402 347.23 336.183 350.883 336.183 355.219Z" fill="white"/>
</g>
<defs>
<clipPath id="clip0">
<rect width="512" height="512" fill="white"/>
</clipPath>
</defs>
</svg>
