<svg width="512" height="512" viewBox="0 0 512 512" fill="none" xmlns="http://www.w3.org/2000/svg">
<g clip-path="url(#clip0)">
<path d="M95.5 485V433L96 239.5V25C101.6 5.4 118.333 0.5 126 0.5H352L479 128V330V489C472.2 506.6 458.167 511.667 452 512C347 511.833 135.8 511.6 131 512C125 512.5 118 510.5 108 504.5C100 499.7 96.3333 489.5 95.5 485Z" fill="#E2E5E7"/>
<path d="M479 223V128L466 115H450.5L373.5 117L479 223Z" fill="#CAD1D8"/>
<path d="M352 98V0.5L478.5 128H384.5C360.1 126.4 352.667 107.333 352 98Z" fill="#B0B7BD"/>
<path d="M97 402V447.5L402 448C412.4 446.8 415.667 438.5 416 434.5V402H97Z" fill="#CAD1D8"/>
<rect x="32" y="240" width="384" height="192" rx="16" fill="#50BEE8"/>
<path d="M71.468 364.301L90.6867 336.234L74.5148 311.273C72.9914 308.852 71.8391 306.781 71.0578 305.062C70.3156 303.305 69.9445 301.625 69.9445 300.023C69.9445 298.383 70.6672 296.918 72.1125 295.629C73.5969 294.301 75.3938 293.637 77.5031 293.637C79.925 293.637 81.8 294.359 83.1281 295.805C84.4953 297.211 86.3703 299.848 88.7531 303.715L101.644 324.574L115.413 303.715C116.546 301.957 117.503 300.453 118.284 299.203C119.105 297.953 119.886 296.918 120.628 296.098C121.37 295.277 122.191 294.672 123.089 294.281C124.027 293.852 125.101 293.637 126.312 293.637C128.499 293.637 130.277 294.301 131.644 295.629C133.05 296.918 133.753 298.461 133.753 300.258C133.753 302.875 132.249 306.43 129.241 310.922L112.308 336.234L130.53 364.301C132.171 366.762 133.363 368.812 134.105 370.453C134.847 372.055 135.218 373.578 135.218 375.023C135.218 376.391 134.886 377.641 134.222 378.773C133.558 379.906 132.62 380.805 131.409 381.469C130.198 382.133 128.831 382.465 127.308 382.465C125.667 382.465 124.28 382.113 123.148 381.41C122.015 380.746 121.097 379.906 120.394 378.891C119.691 377.875 118.382 375.902 116.468 372.973L101.351 349.184L85.2961 373.676C84.0461 375.629 83.1477 376.996 82.6008 377.777C82.093 378.559 81.468 379.32 80.7258 380.062C79.9836 380.805 79.1047 381.391 78.0891 381.82C77.0734 382.25 75.882 382.465 74.5148 382.465C72.4055 382.465 70.6477 381.82 69.2414 380.531C67.8742 379.242 67.1906 377.367 67.1906 374.906C67.1906 372.016 68.6164 368.48 71.468 364.301ZM172.022 304.184V366.703H207.295C210.108 366.703 212.256 367.387 213.741 368.754C215.264 370.121 216.026 371.84 216.026 373.91C216.026 376.02 215.284 377.738 213.799 379.066C212.315 380.355 210.147 381 207.295 381H165.284C161.495 381 158.76 380.16 157.08 378.48C155.44 376.801 154.62 374.086 154.62 370.336V304.184C154.62 300.668 155.401 298.031 156.963 296.273C158.565 294.516 160.655 293.637 163.233 293.637C165.85 293.637 167.959 294.516 169.561 296.273C171.202 297.992 172.022 300.629 172.022 304.184ZM296.013 355.219C296.013 360.414 294.666 365.082 291.97 369.223C289.314 373.363 285.408 376.605 280.252 378.949C275.095 381.293 268.982 382.465 261.912 382.465C253.435 382.465 246.443 380.863 240.935 377.66C237.029 375.355 233.845 372.289 231.384 368.461C228.963 364.594 227.752 360.844 227.752 357.211C227.752 355.102 228.474 353.305 229.92 351.82C231.404 350.297 233.279 349.535 235.545 349.535C237.38 349.535 238.923 350.121 240.173 351.293C241.463 352.465 242.556 354.203 243.455 356.508C244.548 359.242 245.72 361.527 246.97 363.363C248.259 365.199 250.056 366.723 252.361 367.934C254.666 369.105 257.693 369.691 261.443 369.691C266.599 369.691 270.779 368.5 273.982 366.117C277.224 363.695 278.845 360.688 278.845 357.094C278.845 354.242 277.966 351.938 276.209 350.18C274.49 348.383 272.244 347.016 269.47 346.078C266.736 345.141 263.064 344.145 258.455 343.09C252.283 341.645 247.107 339.965 242.927 338.051C238.787 336.098 235.486 333.461 233.025 330.141C230.603 326.781 229.392 322.621 229.392 317.66C229.392 312.934 230.681 308.734 233.259 305.062C235.838 301.391 239.568 298.578 244.451 296.625C249.334 294.633 255.076 293.637 261.677 293.637C266.951 293.637 271.502 294.301 275.33 295.629C279.197 296.918 282.4 298.656 284.939 300.844C287.478 302.992 289.334 305.258 290.505 307.641C291.677 310.023 292.263 312.348 292.263 314.613C292.263 316.684 291.521 318.559 290.037 320.238C288.591 321.879 286.775 322.699 284.588 322.699C282.595 322.699 281.072 322.211 280.017 321.234C279.002 320.219 277.888 318.578 276.677 316.312C275.115 313.07 273.24 310.551 271.052 308.754C268.865 306.918 265.349 306 260.505 306C256.013 306 252.38 306.996 249.607 308.988C246.873 310.941 245.505 313.305 245.505 316.078C245.505 317.797 245.974 319.281 246.912 320.531C247.849 321.781 249.138 322.855 250.779 323.754C252.42 324.652 254.08 325.355 255.759 325.863C257.439 326.371 260.213 327.113 264.08 328.09C268.923 329.223 273.298 330.473 277.205 331.84C281.15 333.207 284.49 334.867 287.224 336.82C289.998 338.773 292.146 341.254 293.67 344.262C295.232 347.23 296.013 350.883 296.013 355.219ZM315.415 364.301L334.634 336.234L318.462 311.273C316.938 308.852 315.786 306.781 315.005 305.062C314.262 303.305 313.891 301.625 313.891 300.023C313.891 298.383 314.614 296.918 316.059 295.629C317.544 294.301 319.341 293.637 321.45 293.637C323.872 293.637 325.747 294.359 327.075 295.805C328.442 297.211 330.317 299.848 332.7 303.715L345.591 324.574L359.36 303.715C360.493 301.957 361.45 300.453 362.231 299.203C363.052 297.953 363.833 296.918 364.575 296.098C365.317 295.277 366.137 294.672 367.036 294.281C367.973 293.852 369.048 293.637 370.259 293.637C372.446 293.637 374.223 294.301 375.591 295.629C376.997 296.918 377.7 298.461 377.7 300.258C377.7 302.875 376.196 306.43 373.188 310.922L356.255 336.234L374.477 364.301C376.118 366.762 377.309 368.812 378.052 370.453C378.794 372.055 379.165 373.578 379.165 375.023C379.165 376.391 378.833 377.641 378.169 378.773C377.505 379.906 376.567 380.805 375.356 381.469C374.145 382.133 372.778 382.465 371.255 382.465C369.614 382.465 368.227 382.113 367.095 381.41C365.962 380.746 365.044 379.906 364.341 378.891C363.637 377.875 362.329 375.902 360.415 372.973L345.298 349.184L329.243 373.676C327.993 375.629 327.095 376.996 326.548 377.777C326.04 378.559 325.415 379.32 324.673 380.062C323.93 380.805 323.052 381.391 322.036 381.82C321.02 382.25 319.829 382.465 318.462 382.465C316.352 382.465 314.595 381.82 313.188 380.531C311.821 379.242 311.137 377.367 311.137 374.906C311.137 372.016 312.563 368.48 315.415 364.301Z" fill="white"/>
</g>
<defs>
<clipPath id="clip0">
<rect width="512" height="512" fill="white"/>
</clipPath>
</defs>
</svg>
