<svg width="512" height="512" viewBox="0 0 512 512" fill="none" xmlns="http://www.w3.org/2000/svg">
<g clip-path="url(#clip0)">
<path d="M95.5 485V433L96 239.5V25C101.6 5.4 118.333 0.5 126 0.5H352L479 128V330V489C472.2 506.6 458.167 511.667 452 512C347 511.833 135.8 511.6 131 512C125 512.5 118 510.5 108 504.5C100 499.7 96.3333 489.5 95.5 485Z" fill="#E2E5E7"/>
<path d="M479 223V128L466 115H450.5L373.5 117L479 223Z" fill="#CAD1D8"/>
<path d="M352 98V0.5L478.5 128H384.5C360.1 126.4 352.667 107.333 352 98Z" fill="#B0B7BD"/>
<path d="M97 402V447.5L402 448C412.4 446.8 415.667 438.5 416 434.5V402H97Z" fill="#CAD1D8"/>
<rect x="32" y="240" width="384" height="192" rx="16" fill="#50BEE8"/>
<path d="M99.3914 364.301L118.61 336.234L102.438 311.273C100.915 308.852 99.7625 306.781 98.9812 305.062C98.2391 303.305 97.868 301.625 97.868 300.023C97.868 298.383 98.5906 296.918 100.036 295.629C101.52 294.301 103.317 293.637 105.427 293.637C107.848 293.637 109.723 294.359 111.052 295.805C112.419 297.211 114.294 299.848 116.677 303.715L129.567 324.574L143.337 303.715C144.47 301.957 145.427 300.453 146.208 299.203C147.028 297.953 147.809 296.918 148.552 296.098C149.294 295.277 150.114 294.672 151.012 294.281C151.95 293.852 153.024 293.637 154.235 293.637C156.423 293.637 158.2 294.301 159.567 295.629C160.973 296.918 161.677 298.461 161.677 300.258C161.677 302.875 160.173 306.43 157.165 310.922L140.231 336.234L158.454 364.301C160.095 366.762 161.286 368.812 162.028 370.453C162.77 372.055 163.141 373.578 163.141 375.023C163.141 376.391 162.809 377.641 162.145 378.773C161.481 379.906 160.544 380.805 159.333 381.469C158.122 382.133 156.755 382.465 155.231 382.465C153.591 382.465 152.204 382.113 151.071 381.41C149.938 380.746 149.02 379.906 148.317 378.891C147.614 377.875 146.305 375.902 144.391 372.973L129.274 349.184L113.22 373.676C111.97 375.629 111.071 376.996 110.524 377.777C110.016 378.559 109.391 379.32 108.649 380.062C107.907 380.805 107.028 381.391 106.012 381.82C104.997 382.25 103.805 382.465 102.438 382.465C100.329 382.465 98.5711 381.82 97.1648 380.531C95.7977 379.242 95.1141 377.367 95.1141 374.906C95.1141 372.016 96.5398 368.48 99.3914 364.301ZM211.898 368.051L198.129 313.324V372.621C198.129 375.902 197.387 378.363 195.902 380.004C194.457 381.645 192.523 382.465 190.102 382.465C187.758 382.465 185.844 381.664 184.359 380.062C182.875 378.422 182.133 375.941 182.133 372.621V304.652C182.133 300.902 183.109 298.383 185.062 297.094C187.016 295.766 189.652 295.102 192.973 295.102H198.363C201.605 295.102 203.949 295.395 205.395 295.98C206.879 296.566 207.973 297.621 208.676 299.145C209.379 300.668 210.18 303.148 211.078 306.586L223.559 353.637L236.039 306.586C236.938 303.148 237.738 300.668 238.441 299.145C239.145 297.621 240.219 296.566 241.664 295.98C243.148 295.395 245.512 295.102 248.754 295.102H254.145C257.465 295.102 260.102 295.766 262.055 297.094C264.008 298.383 264.984 300.902 264.984 304.652V372.621C264.984 375.902 264.242 378.363 262.758 380.004C261.312 381.645 259.359 382.465 256.898 382.465C254.594 382.465 252.699 381.645 251.215 380.004C249.73 378.363 248.988 375.902 248.988 372.621V313.324L235.219 368.051C234.32 371.605 233.578 374.223 232.992 375.902C232.445 377.543 231.41 379.047 229.887 380.414C228.363 381.781 226.254 382.465 223.559 382.465C221.527 382.465 219.809 382.016 218.402 381.117C216.996 380.258 215.902 379.145 215.121 377.777C214.34 376.41 213.715 374.906 213.246 373.266C212.816 371.586 212.367 369.848 211.898 368.051ZM307.706 304.184V366.703H342.98C345.792 366.703 347.941 367.387 349.425 368.754C350.948 370.121 351.71 371.84 351.71 373.91C351.71 376.02 350.968 377.738 349.484 379.066C347.999 380.355 345.831 381 342.98 381H300.968C297.179 381 294.445 380.16 292.765 378.48C291.124 376.801 290.304 374.086 290.304 370.336V304.184C290.304 300.668 291.085 298.031 292.648 296.273C294.249 294.516 296.339 293.637 298.917 293.637C301.534 293.637 303.644 294.516 305.245 296.273C306.886 297.992 307.706 300.629 307.706 304.184Z" fill="white"/>
</g>
<defs>
<clipPath id="clip0">
<rect width="512" height="512" fill="white"/>
</clipPath>
</defs>
</svg>
