<svg width="512" height="512" viewBox="0 0 512 512" fill="none" xmlns="http://www.w3.org/2000/svg">
<g clip-path="url(#clip0)">
<path d="M95.5 485V433L96 239.5V25C101.6 5.4 118.333 0.5 126 0.5H352L479 128V330V489C472.2 506.6 458.167 511.667 452 512C347 511.833 135.8 511.6 131 512C125 512.5 118 510.5 108 504.5C100 499.7 96.3333 489.5 95.5 485Z" fill="#E2E5E7"/>
<path d="M479 223V128L466 115H450.5L373.5 117L479 223Z" fill="#CAD1D8"/>
<path d="M352 98V0.5L478.5 128H384.5C360.1 126.4 352.667 107.333 352 98Z" fill="#B0B7BD"/>
<path d="M97 402V447.5L402 448C412.4 446.8 415.667 438.5 416 434.5V402H97Z" fill="#CAD1D8"/>
<rect x="32" y="240" width="384" height="192" rx="16" fill="#F7B84E"/>
<path d="M119.841 371.859V344.613L98.8641 312.094C97.0281 309.164 95.7195 306.879 94.9383 305.238C94.1961 303.598 93.825 302.172 93.825 300.961C93.825 298.969 94.5867 297.25 96.1102 295.805C97.6727 294.359 99.5867 293.637 101.852 293.637C104.235 293.637 106.032 294.32 107.243 295.688C108.493 297.016 110.348 299.691 112.809 303.715L128.864 329.789L145.095 303.715C146.071 302.113 146.891 300.766 147.555 299.672C148.22 298.578 148.942 297.562 149.723 296.625C150.544 295.648 151.442 294.906 152.419 294.398C153.395 293.891 154.587 293.637 155.993 293.637C158.18 293.637 159.997 294.359 161.442 295.805C162.927 297.211 163.669 298.852 163.669 300.727C163.669 302.25 163.298 303.773 162.555 305.297C161.813 306.82 160.544 308.93 158.747 311.625L137.243 344.613V371.859C137.243 375.414 136.423 378.07 134.782 379.828C133.141 381.586 131.052 382.465 128.512 382.465C125.934 382.465 123.845 381.605 122.243 379.887C120.641 378.129 119.841 375.453 119.841 371.859ZM183.598 345.492V304.184C183.598 300.668 184.379 298.031 185.941 296.273C187.543 294.516 189.633 293.637 192.211 293.637C194.906 293.637 197.035 294.516 198.598 296.273C200.199 298.031 201 300.668 201 304.184V346.43C201 351.234 201.527 355.258 202.582 358.5C203.676 361.703 205.59 364.203 208.324 366C211.059 367.758 214.887 368.637 219.809 368.637C226.605 368.637 231.41 366.84 234.223 363.246C237.035 359.613 238.441 354.125 238.441 346.781V304.184C238.441 300.629 239.223 297.992 240.785 296.273C242.348 294.516 244.438 293.637 247.055 293.637C249.672 293.637 251.781 294.516 253.383 296.273C255.023 297.992 255.844 300.629 255.844 304.184V345.492C255.844 352.211 255.18 357.816 253.852 362.309C252.562 366.801 250.102 370.746 246.469 374.145C243.344 377.035 239.711 379.145 235.57 380.473C231.43 381.801 226.586 382.465 221.039 382.465C214.438 382.465 208.754 381.762 203.988 380.355C199.223 378.91 195.336 376.703 192.328 373.734C189.32 370.727 187.113 366.898 185.707 362.25C184.301 357.562 183.598 351.977 183.598 345.492ZM295.167 305.062L314.62 362.66L334.132 304.652C335.148 301.605 335.909 299.496 336.417 298.324C336.925 297.113 337.765 296.039 338.937 295.102C340.109 294.125 341.71 293.637 343.741 293.637C345.226 293.637 346.593 294.008 347.843 294.75C349.132 295.492 350.128 296.488 350.831 297.738C351.573 298.949 351.945 300.18 351.945 301.43C351.945 302.289 351.827 303.227 351.593 304.242C351.359 305.219 351.066 306.195 350.714 307.172C350.363 308.109 350.011 309.086 349.659 310.102L328.859 366.234C328.116 368.383 327.374 370.434 326.632 372.387C325.89 374.301 325.03 376 324.054 377.484C323.077 378.93 321.769 380.121 320.128 381.059C318.527 381.996 316.554 382.465 314.21 382.465C311.866 382.465 309.874 381.996 308.234 381.059C306.632 380.16 305.323 378.969 304.308 377.484C303.331 375.961 302.472 374.242 301.73 372.328C300.988 370.414 300.245 368.383 299.503 366.234L279.054 310.57C278.702 309.555 278.331 308.559 277.941 307.582C277.589 306.605 277.277 305.551 277.003 304.418C276.769 303.285 276.652 302.328 276.652 301.547C276.652 299.555 277.452 297.738 279.054 296.098C280.655 294.457 282.667 293.637 285.089 293.637C288.058 293.637 290.148 294.555 291.359 296.391C292.609 298.188 293.878 301.078 295.167 305.062Z" fill="white"/>
</g>
<defs>
<clipPath id="clip0">
<rect width="512" height="512" fill="white"/>
</clipPath>
</defs>
</svg>
