<svg width="512" height="512" viewBox="0 0 512 512" fill="none" xmlns="http://www.w3.org/2000/svg">
<g clip-path="url(#clip0)">
<path d="M95.5 485V433L96 239.5V25C101.6 5.4 118.333 0.5 126 0.5H352L479 128V330V489C472.2 506.6 458.167 511.667 452 512C347 511.833 135.8 511.6 131 512C125 512.5 118 510.5 108 504.5C100 499.7 96.3333 489.5 95.5 485Z" fill="#E2E5E7"/>
<path d="M479 223V128L466 115H450.5L373.5 117L479 223Z" fill="#CAD1D8"/>
<path d="M352 98V0.5L478.5 128H384.5C360.1 126.4 352.667 107.333 352 98Z" fill="#B0B7BD"/>
<path d="M97 402V447.5L402 448C412.4 446.8 415.667 438.5 416 434.5V402H97Z" fill="#CAD1D8"/>
<rect x="32" y="240" width="384" height="192" rx="16" fill="#F15642"/>
<path d="M125.173 360.961L169.294 308.168H131.384C128.727 308.168 126.716 307.582 125.348 306.41C124.02 305.238 123.356 303.695 123.356 301.781C123.356 299.789 124.02 298.188 125.348 296.977C126.716 295.727 128.727 295.102 131.384 295.102H180.251C186.579 295.102 189.743 298.051 189.743 303.949C189.743 306.762 189.216 309.008 188.161 310.688C187.106 312.367 184.977 315.082 181.774 318.832L140.524 367.934H185.993C188.688 367.934 190.7 368.5 192.028 369.633C193.356 370.727 194.02 372.27 194.02 374.262C194.02 376.332 193.356 377.973 192.028 379.184C190.7 380.395 188.688 381 185.993 381H130.212C126.423 381 123.571 380.16 121.657 378.48C119.743 376.762 118.786 374.477 118.786 371.625C118.786 370.648 118.942 369.75 119.255 368.93C119.567 368.109 119.977 367.348 120.485 366.645C121.032 365.902 121.774 364.984 122.712 363.891C123.649 362.758 124.47 361.781 125.173 360.961ZM213.539 371.859V304.184C213.539 300.668 214.34 298.031 215.941 296.273C217.543 294.516 219.613 293.637 222.152 293.637C224.77 293.637 226.879 294.516 228.48 296.273C230.121 297.992 230.941 300.629 230.941 304.184V371.859C230.941 375.414 230.121 378.07 228.48 379.828C226.879 381.586 224.77 382.465 222.152 382.465C219.652 382.465 217.582 381.586 215.941 379.828C214.34 378.031 213.539 375.375 213.539 371.859ZM291.593 347.543H275.655V371.859C275.655 375.336 274.835 377.973 273.195 379.77C271.554 381.566 269.484 382.465 266.984 382.465C264.366 382.465 262.257 381.586 260.655 379.828C259.054 378.031 258.253 375.414 258.253 371.977V305.766C258.253 301.938 259.132 299.203 260.89 297.562C262.648 295.922 265.441 295.102 269.269 295.102H291.593C298.195 295.102 303.273 295.609 306.827 296.625C310.343 297.602 313.37 299.223 315.909 301.488C318.488 303.754 320.441 306.527 321.769 309.809C323.097 313.09 323.761 316.781 323.761 320.883C323.761 329.633 321.066 336.273 315.675 340.805C310.284 345.297 302.257 347.543 291.593 347.543ZM287.374 308.168H275.655V334.418H287.374C291.476 334.418 294.894 333.988 297.628 333.129C300.402 332.27 302.511 330.863 303.956 328.91C305.402 326.957 306.124 324.398 306.124 321.234C306.124 317.445 305.011 314.359 302.784 311.977C300.284 309.438 295.148 308.168 287.374 308.168Z" fill="white"/>
</g>
<defs>
<clipPath id="clip0">
<rect width="512" height="512" fill="white"/>
</clipPath>
</defs>
</svg>
