<svg width="512" height="512" viewBox="0 0 512 512" fill="none" xmlns="http://www.w3.org/2000/svg">
<g clip-path="url(#clip0)">
<path d="M95.5 485V433L96 239.5V25C101.6 5.4 118.333 0.5 126 0.5H352L479 128V330V489C472.2 506.6 458.167 511.667 452 512C347 511.833 135.8 511.6 131 512C125 512.5 118 510.5 108 504.5C100 499.7 96.3333 489.5 95.5 485Z" fill="#E2E5E7"/>
<path d="M479 223V128L466 115H450.5L373.5 117L479 223Z" fill="#CAD1D8"/>
<path d="M352 98V0.5L478.5 128H384.5C360.1 126.4 352.667 107.333 352 98Z" fill="#B0B7BD"/>
<path d="M97 402V447.5L402 448C412.4 446.8 415.667 438.5 416 434.5V402H97Z" fill="#CAD1D8"/>
<rect x="32" y="240" width="384" height="192" rx="16" fill="#F15642"/>
<path d="M84.5031 360.961L128.624 308.168H90.7141C88.0578 308.168 86.0461 307.582 84.6789 306.41C83.3508 305.238 82.6867 303.695 82.6867 301.781C82.6867 299.789 83.3508 298.188 84.6789 296.977C86.0461 295.727 88.0578 295.102 90.7141 295.102H139.581C145.909 295.102 149.073 298.051 149.073 303.949C149.073 306.762 148.546 309.008 147.491 310.688C146.437 312.367 144.308 315.082 141.105 318.832L99.8547 367.934H145.323C148.019 367.934 150.03 368.5 151.359 369.633C152.687 370.727 153.351 372.27 153.351 374.262C153.351 376.332 152.687 377.973 151.359 379.184C150.03 380.395 148.019 381 145.323 381H89.5422C85.7531 381 82.9016 380.16 80.9875 378.48C79.0734 376.762 78.1164 374.477 78.1164 371.625C78.1164 370.648 78.2727 369.75 78.5852 368.93C78.8977 368.109 79.3078 367.348 79.8156 366.645C80.3625 365.902 81.1047 364.984 82.0422 363.891C82.9797 362.758 83.8 361.781 84.5031 360.961ZM172.87 371.859V304.184C172.87 300.668 173.67 298.031 175.272 296.273C176.873 294.516 178.944 293.637 181.483 293.637C184.1 293.637 186.209 294.516 187.811 296.273C189.452 297.992 190.272 300.629 190.272 304.184V371.859C190.272 375.414 189.452 378.07 187.811 379.828C186.209 381.586 184.1 382.465 181.483 382.465C178.983 382.465 176.913 381.586 175.272 379.828C173.67 378.031 172.87 375.375 172.87 371.859ZM250.923 347.543H234.986V371.859C234.986 375.336 234.166 377.973 232.525 379.77C230.884 381.566 228.814 382.465 226.314 382.465C223.697 382.465 221.588 381.586 219.986 379.828C218.384 378.031 217.584 375.414 217.584 371.977V305.766C217.584 301.938 218.463 299.203 220.22 297.562C221.978 295.922 224.771 295.102 228.599 295.102H250.923C257.525 295.102 262.603 295.609 266.158 296.625C269.673 297.602 272.701 299.223 275.24 301.488C277.818 303.754 279.771 306.527 281.099 309.809C282.427 313.09 283.091 316.781 283.091 320.883C283.091 329.633 280.396 336.273 275.005 340.805C269.615 345.297 261.588 347.543 250.923 347.543ZM246.705 308.168H234.986V334.418H246.705C250.806 334.418 254.224 333.988 256.959 333.129C259.732 332.27 261.841 330.863 263.287 328.91C264.732 326.957 265.455 324.398 265.455 321.234C265.455 317.445 264.341 314.359 262.115 311.977C259.615 309.438 254.478 308.168 246.705 308.168ZM302.259 364.301L321.477 336.234L305.305 311.273C303.782 308.852 302.63 306.781 301.848 305.062C301.106 303.305 300.735 301.625 300.735 300.023C300.735 298.383 301.458 296.918 302.903 295.629C304.387 294.301 306.184 293.637 308.294 293.637C310.716 293.637 312.591 294.359 313.919 295.805C315.286 297.211 317.161 299.848 319.544 303.715L332.434 324.574L346.204 303.715C347.337 301.957 348.294 300.453 349.075 299.203C349.895 297.953 350.677 296.918 351.419 296.098C352.161 295.277 352.981 294.672 353.88 294.281C354.817 293.852 355.891 293.637 357.102 293.637C359.29 293.637 361.067 294.301 362.434 295.629C363.841 296.918 364.544 298.461 364.544 300.258C364.544 302.875 363.04 306.43 360.032 310.922L343.098 336.234L361.321 364.301C362.962 366.762 364.153 368.812 364.895 370.453C365.637 372.055 366.009 373.578 366.009 375.023C366.009 376.391 365.677 377.641 365.012 378.773C364.348 379.906 363.411 380.805 362.2 381.469C360.989 382.133 359.622 382.465 358.098 382.465C356.458 382.465 355.071 382.113 353.938 381.41C352.805 380.746 351.887 379.906 351.184 378.891C350.481 377.875 349.173 375.902 347.259 372.973L332.141 349.184L316.087 373.676C314.837 375.629 313.938 376.996 313.391 377.777C312.884 378.559 312.259 379.32 311.516 380.062C310.774 380.805 309.895 381.391 308.88 381.82C307.864 382.25 306.673 382.465 305.305 382.465C303.196 382.465 301.438 381.82 300.032 380.531C298.665 379.242 297.981 377.367 297.981 374.906C297.981 372.016 299.407 368.48 302.259 364.301Z" fill="white"/>
</g>
<defs>
<clipPath id="clip0">
<rect width="512" height="512" fill="white"/>
</clipPath>
</defs>
</svg>
